%TF.GenerationSoftware,KiCad,Pcbnew,9.0.0*%
%TF.CreationDate,2026-03-27T18:10:49+01:00*%
%TF.ProjectId,BACKPACK,4241434b-5041-4434-9b2e-6b696361645f,rev?*%
%TF.SameCoordinates,Original*%
%TF.FileFunction,Legend,Bot*%
%TF.FilePolarity,Positive*%
%FSLAX46Y46*%
G04 Gerber Fmt 4.6, Leading zero omitted, Abs format (unit mm)*
G04 Created by KiCad (PCBNEW 9.0.0) date 2026-03-27 18:10:49*
%MOMM*%
%LPD*%
G01*
G04 APERTURE LIST*
%ADD10C,0.083820*%
%ADD11C,0.200000*%
%ADD12C,0.150000*%
%ADD13C,0.000000*%
%ADD14C,0.120000*%
%ADD15C,0.127000*%
G04 APERTURE END LIST*
D10*
X145075000Y-100200000D02*
X175075000Y-100200000D01*
X175075000Y-100200000D02*
X175075000Y-107700000D01*
X145075000Y-107700000D02*
X145075000Y-100200000D01*
X175075000Y-107700000D02*
X145075000Y-107700000D01*
D11*
G36*
X172889056Y-95328330D02*
G01*
X169992565Y-95328330D01*
X169992565Y-95097710D01*
X170103676Y-95097710D01*
X170103676Y-95136728D01*
X170118608Y-95172776D01*
X170146198Y-95200366D01*
X170182246Y-95215298D01*
X170201755Y-95217219D01*
X170677945Y-95217219D01*
X170697454Y-95215298D01*
X170733502Y-95200366D01*
X170761092Y-95172776D01*
X170776024Y-95136728D01*
X170777945Y-95117219D01*
X170777945Y-94192948D01*
X171008438Y-94192948D01*
X171008438Y-94231966D01*
X171023370Y-94268014D01*
X171050960Y-94295604D01*
X171087008Y-94310536D01*
X171126026Y-94310536D01*
X171162074Y-94295604D01*
X171177228Y-94283168D01*
X171208154Y-94252240D01*
X171313219Y-94217219D01*
X171376004Y-94217219D01*
X171481068Y-94252240D01*
X171548141Y-94319313D01*
X171583593Y-94390218D01*
X171625564Y-94558099D01*
X171625564Y-94676337D01*
X171583593Y-94844218D01*
X171548140Y-94915124D01*
X171481069Y-94982197D01*
X171376004Y-95017219D01*
X171313219Y-95017219D01*
X171208154Y-94982197D01*
X171177228Y-94951270D01*
X171162075Y-94938833D01*
X171126027Y-94923902D01*
X171087009Y-94923901D01*
X171050960Y-94938832D01*
X171023370Y-94966422D01*
X171008439Y-95002470D01*
X171008438Y-95041488D01*
X171023369Y-95077537D01*
X171035806Y-95092690D01*
X171083424Y-95140310D01*
X171098578Y-95152747D01*
X171101897Y-95154122D01*
X171104613Y-95156477D01*
X171122513Y-95164468D01*
X171265370Y-95212087D01*
X171275042Y-95214286D01*
X171277484Y-95215298D01*
X171281021Y-95215646D01*
X171284485Y-95216434D01*
X171287119Y-95216246D01*
X171296993Y-95217219D01*
X171392231Y-95217219D01*
X171402104Y-95216246D01*
X171404738Y-95216434D01*
X171408201Y-95215646D01*
X171411740Y-95215298D01*
X171414182Y-95214286D01*
X171423854Y-95212087D01*
X171566710Y-95164468D01*
X171584611Y-95156477D01*
X171587326Y-95154122D01*
X171590646Y-95152747D01*
X171605799Y-95140310D01*
X171701037Y-95045071D01*
X171707329Y-95037404D01*
X171709326Y-95035673D01*
X171711219Y-95032665D01*
X171713474Y-95029918D01*
X171714485Y-95027476D01*
X171719769Y-95019082D01*
X171767388Y-94923845D01*
X171767934Y-94922416D01*
X171768364Y-94921837D01*
X171771285Y-94913660D01*
X171774394Y-94905536D01*
X171774445Y-94904815D01*
X171774959Y-94903377D01*
X171792927Y-94831504D01*
X172006517Y-94831504D01*
X172006517Y-94926742D01*
X172008438Y-94946251D01*
X172009813Y-94949571D01*
X172010068Y-94953155D01*
X172017074Y-94971463D01*
X172064693Y-95066701D01*
X172069976Y-95075093D01*
X172070988Y-95077537D01*
X172073244Y-95080286D01*
X172075136Y-95083291D01*
X172077130Y-95085020D01*
X172083425Y-95092690D01*
X172131043Y-95140310D01*
X172138711Y-95146603D01*
X172140443Y-95148600D01*
X172143451Y-95150493D01*
X172146197Y-95152747D01*
X172148637Y-95153757D01*
X172157034Y-95159043D01*
X172252271Y-95206662D01*
X172270580Y-95213668D01*
X172274163Y-95213922D01*
X172277484Y-95215298D01*
X172296993Y-95217219D01*
X172535088Y-95217219D01*
X172544961Y-95216246D01*
X172547595Y-95216434D01*
X172551058Y-95215646D01*
X172554597Y-95215298D01*
X172557039Y-95214286D01*
X172566711Y-95212087D01*
X172709567Y-95164468D01*
X172727468Y-95156477D01*
X172756944Y-95130912D01*
X172774393Y-95096013D01*
X172777160Y-95057093D01*
X172764821Y-95020077D01*
X172739256Y-94990601D01*
X172704357Y-94973151D01*
X172665437Y-94970385D01*
X172646322Y-94974732D01*
X172518861Y-95017219D01*
X172320600Y-95017219D01*
X172260990Y-94987414D01*
X172236323Y-94962746D01*
X172206517Y-94903134D01*
X172206517Y-94855111D01*
X172236322Y-94795501D01*
X172260990Y-94770832D01*
X172331897Y-94735379D01*
X172511722Y-94690423D01*
X172513159Y-94689909D01*
X172513882Y-94689858D01*
X172522006Y-94686749D01*
X172530183Y-94683828D01*
X172530763Y-94683397D01*
X172532190Y-94682852D01*
X172627428Y-94635233D01*
X172635824Y-94629947D01*
X172638264Y-94628937D01*
X172641010Y-94626683D01*
X172644018Y-94624790D01*
X172645747Y-94622795D01*
X172653418Y-94616501D01*
X172701036Y-94568882D01*
X172707328Y-94561215D01*
X172709326Y-94559483D01*
X172711219Y-94556474D01*
X172713473Y-94553729D01*
X172714483Y-94551288D01*
X172719769Y-94542892D01*
X172767388Y-94447655D01*
X172774394Y-94429346D01*
X172774648Y-94425762D01*
X172776024Y-94422442D01*
X172777945Y-94402933D01*
X172777945Y-94307695D01*
X172776024Y-94288186D01*
X172774648Y-94284865D01*
X172774394Y-94281282D01*
X172767388Y-94262973D01*
X172719769Y-94167736D01*
X172714483Y-94159339D01*
X172713473Y-94156899D01*
X172711219Y-94154153D01*
X172709326Y-94151145D01*
X172707328Y-94149412D01*
X172701036Y-94141746D01*
X172653418Y-94094127D01*
X172645747Y-94087832D01*
X172644018Y-94085838D01*
X172641010Y-94083944D01*
X172638264Y-94081691D01*
X172635824Y-94080680D01*
X172627428Y-94075395D01*
X172532190Y-94027776D01*
X172513882Y-94020770D01*
X172510298Y-94020515D01*
X172506978Y-94019140D01*
X172487469Y-94017219D01*
X172249374Y-94017219D01*
X172239500Y-94018191D01*
X172236866Y-94018004D01*
X172233402Y-94018791D01*
X172229865Y-94019140D01*
X172227423Y-94020151D01*
X172217751Y-94022351D01*
X172074894Y-94069970D01*
X172056994Y-94077961D01*
X172027518Y-94103526D01*
X172010068Y-94138425D01*
X172007302Y-94177345D01*
X172019640Y-94214361D01*
X172045205Y-94243837D01*
X172080104Y-94261287D01*
X172119024Y-94264053D01*
X172138140Y-94259706D01*
X172265600Y-94217219D01*
X172463862Y-94217219D01*
X172523471Y-94247024D01*
X172548140Y-94271692D01*
X172577945Y-94331302D01*
X172577945Y-94379326D01*
X172548140Y-94438935D01*
X172523471Y-94463603D01*
X172452564Y-94499057D01*
X172272739Y-94544014D01*
X172271300Y-94544527D01*
X172270580Y-94544579D01*
X172262455Y-94547687D01*
X172254279Y-94550609D01*
X172253699Y-94551038D01*
X172252271Y-94551585D01*
X172157034Y-94599204D01*
X172148637Y-94604489D01*
X172146197Y-94605500D01*
X172143451Y-94607753D01*
X172140443Y-94609647D01*
X172138710Y-94611644D01*
X172131044Y-94617937D01*
X172083425Y-94665555D01*
X172077130Y-94673225D01*
X172075136Y-94674955D01*
X172073242Y-94677962D01*
X172070989Y-94680709D01*
X172069978Y-94683148D01*
X172064693Y-94691545D01*
X172017074Y-94786783D01*
X172010068Y-94805091D01*
X172009813Y-94808674D01*
X172008438Y-94811995D01*
X172006517Y-94831504D01*
X171792927Y-94831504D01*
X171822578Y-94712901D01*
X171823078Y-94709519D01*
X171823643Y-94708156D01*
X171824366Y-94700805D01*
X171825446Y-94693508D01*
X171825228Y-94692049D01*
X171825564Y-94688647D01*
X171825564Y-94545790D01*
X171825228Y-94542387D01*
X171825446Y-94540929D01*
X171824366Y-94533631D01*
X171823643Y-94526281D01*
X171823078Y-94524917D01*
X171822578Y-94521536D01*
X171774959Y-94331060D01*
X171774445Y-94329621D01*
X171774394Y-94328901D01*
X171771285Y-94320776D01*
X171768364Y-94312600D01*
X171767934Y-94312020D01*
X171767388Y-94310592D01*
X171719769Y-94215355D01*
X171714482Y-94206956D01*
X171713473Y-94204519D01*
X171711221Y-94201775D01*
X171709326Y-94198764D01*
X171707328Y-94197031D01*
X171701037Y-94189365D01*
X171605799Y-94094127D01*
X171590645Y-94081691D01*
X171587326Y-94080316D01*
X171584611Y-94077961D01*
X171566710Y-94069970D01*
X171423854Y-94022351D01*
X171414182Y-94020151D01*
X171411740Y-94019140D01*
X171408201Y-94018791D01*
X171404738Y-94018004D01*
X171402104Y-94018191D01*
X171392231Y-94017219D01*
X171296993Y-94017219D01*
X171287119Y-94018191D01*
X171284485Y-94018004D01*
X171281021Y-94018791D01*
X171277484Y-94019140D01*
X171275042Y-94020151D01*
X171265370Y-94022351D01*
X171122513Y-94069970D01*
X171104613Y-94077961D01*
X171101897Y-94080316D01*
X171098578Y-94081691D01*
X171083425Y-94094128D01*
X171035806Y-94141746D01*
X171023370Y-94156900D01*
X171008438Y-94192948D01*
X170777945Y-94192948D01*
X170777945Y-94117219D01*
X170776024Y-94097710D01*
X170761092Y-94061662D01*
X170733502Y-94034072D01*
X170697454Y-94019140D01*
X170658436Y-94019140D01*
X170622388Y-94034072D01*
X170594798Y-94061662D01*
X170579866Y-94097710D01*
X170577945Y-94117219D01*
X170577945Y-95017219D01*
X170201755Y-95017219D01*
X170182246Y-95019140D01*
X170146198Y-95034072D01*
X170118608Y-95061662D01*
X170103676Y-95097710D01*
X169992565Y-95097710D01*
X169992565Y-93906108D01*
X172889056Y-93906108D01*
X172889056Y-95328330D01*
G37*
X147677945Y-82069600D02*
X147535088Y-82117219D01*
X147535088Y-82117219D02*
X147296993Y-82117219D01*
X147296993Y-82117219D02*
X147201755Y-82069600D01*
X147201755Y-82069600D02*
X147154136Y-82021980D01*
X147154136Y-82021980D02*
X147106517Y-81926742D01*
X147106517Y-81926742D02*
X147106517Y-81831504D01*
X147106517Y-81831504D02*
X147154136Y-81736266D01*
X147154136Y-81736266D02*
X147201755Y-81688647D01*
X147201755Y-81688647D02*
X147296993Y-81641028D01*
X147296993Y-81641028D02*
X147487469Y-81593409D01*
X147487469Y-81593409D02*
X147582707Y-81545790D01*
X147582707Y-81545790D02*
X147630326Y-81498171D01*
X147630326Y-81498171D02*
X147677945Y-81402933D01*
X147677945Y-81402933D02*
X147677945Y-81307695D01*
X147677945Y-81307695D02*
X147630326Y-81212457D01*
X147630326Y-81212457D02*
X147582707Y-81164838D01*
X147582707Y-81164838D02*
X147487469Y-81117219D01*
X147487469Y-81117219D02*
X147249374Y-81117219D01*
X147249374Y-81117219D02*
X147106517Y-81164838D01*
X146773183Y-81117219D02*
X146535088Y-82117219D01*
X146535088Y-82117219D02*
X146344612Y-81402933D01*
X146344612Y-81402933D02*
X146154136Y-82117219D01*
X146154136Y-82117219D02*
X145916041Y-81117219D01*
X145535088Y-82117219D02*
X145535088Y-81117219D01*
X145535088Y-81117219D02*
X145296993Y-81117219D01*
X145296993Y-81117219D02*
X145154136Y-81164838D01*
X145154136Y-81164838D02*
X145058898Y-81260076D01*
X145058898Y-81260076D02*
X145011279Y-81355314D01*
X145011279Y-81355314D02*
X144963660Y-81545790D01*
X144963660Y-81545790D02*
X144963660Y-81688647D01*
X144963660Y-81688647D02*
X145011279Y-81879123D01*
X145011279Y-81879123D02*
X145058898Y-81974361D01*
X145058898Y-81974361D02*
X145154136Y-82069600D01*
X145154136Y-82069600D02*
X145296993Y-82117219D01*
X145296993Y-82117219D02*
X145535088Y-82117219D01*
X144535088Y-82117219D02*
X144535088Y-81117219D01*
X143868422Y-81117219D02*
X143677946Y-81117219D01*
X143677946Y-81117219D02*
X143582708Y-81164838D01*
X143582708Y-81164838D02*
X143487470Y-81260076D01*
X143487470Y-81260076D02*
X143439851Y-81450552D01*
X143439851Y-81450552D02*
X143439851Y-81783885D01*
X143439851Y-81783885D02*
X143487470Y-81974361D01*
X143487470Y-81974361D02*
X143582708Y-82069600D01*
X143582708Y-82069600D02*
X143677946Y-82117219D01*
X143677946Y-82117219D02*
X143868422Y-82117219D01*
X143868422Y-82117219D02*
X143963660Y-82069600D01*
X143963660Y-82069600D02*
X144058898Y-81974361D01*
X144058898Y-81974361D02*
X144106517Y-81783885D01*
X144106517Y-81783885D02*
X144106517Y-81450552D01*
X144106517Y-81450552D02*
X144058898Y-81260076D01*
X144058898Y-81260076D02*
X143963660Y-81164838D01*
X143963660Y-81164838D02*
X143868422Y-81117219D01*
G36*
X144321090Y-83997024D02*
G01*
X144345759Y-84021692D01*
X144375564Y-84081302D01*
X144375564Y-84272183D01*
X144345759Y-84331792D01*
X144321090Y-84356460D01*
X144261481Y-84386266D01*
X144118219Y-84386266D01*
X144058609Y-84356461D01*
X144033941Y-84331792D01*
X144004136Y-84272182D01*
X144004136Y-84081302D01*
X144033941Y-84021692D01*
X144058609Y-83997023D01*
X144118219Y-83967219D01*
X144261481Y-83967219D01*
X144321090Y-83997024D01*
G37*
G36*
X145684754Y-85078330D02*
G01*
X143693025Y-85078330D01*
X143693025Y-84057695D01*
X143804136Y-84057695D01*
X143804136Y-84438647D01*
X143804471Y-84442049D01*
X143804254Y-84443508D01*
X143805333Y-84450805D01*
X143806057Y-84458156D01*
X143806621Y-84459519D01*
X143807122Y-84462901D01*
X143854741Y-84653376D01*
X143858847Y-84664871D01*
X143859327Y-84667295D01*
X143860498Y-84669491D01*
X143861336Y-84671837D01*
X143862807Y-84673823D01*
X143868550Y-84684593D01*
X143963788Y-84827450D01*
X143963830Y-84827501D01*
X143963845Y-84827537D01*
X143970068Y-84835119D01*
X143976208Y-84842617D01*
X143976239Y-84842637D01*
X143976282Y-84842690D01*
X144023900Y-84890310D01*
X144031568Y-84896603D01*
X144033300Y-84898600D01*
X144036308Y-84900493D01*
X144039054Y-84902747D01*
X144041494Y-84903757D01*
X144049891Y-84909043D01*
X144145128Y-84956662D01*
X144163437Y-84963668D01*
X144167020Y-84963922D01*
X144170341Y-84965298D01*
X144189850Y-84967219D01*
X144380326Y-84967219D01*
X144399835Y-84965298D01*
X144435883Y-84950366D01*
X144463473Y-84922776D01*
X144478405Y-84886728D01*
X144478405Y-84847710D01*
X144463473Y-84811662D01*
X144435883Y-84784072D01*
X144399835Y-84769140D01*
X144380326Y-84767219D01*
X144213457Y-84767219D01*
X144153847Y-84737414D01*
X144124706Y-84708272D01*
X144044568Y-84588065D01*
X144040277Y-84570902D01*
X144049890Y-84575709D01*
X144068199Y-84582715D01*
X144071782Y-84582969D01*
X144075103Y-84584345D01*
X144094612Y-84586266D01*
X144285088Y-84586266D01*
X144304597Y-84584345D01*
X144307917Y-84582969D01*
X144311501Y-84582715D01*
X144329809Y-84575709D01*
X144425047Y-84528090D01*
X144433443Y-84522804D01*
X144435883Y-84521794D01*
X144438629Y-84519540D01*
X144441637Y-84517647D01*
X144443366Y-84515652D01*
X144451037Y-84509358D01*
X144498655Y-84461739D01*
X144504947Y-84454072D01*
X144506945Y-84452340D01*
X144508838Y-84449331D01*
X144511092Y-84446586D01*
X144512102Y-84444145D01*
X144515563Y-84438647D01*
X144756517Y-84438647D01*
X144756517Y-84676742D01*
X144758438Y-84696251D01*
X144759813Y-84699571D01*
X144760068Y-84703155D01*
X144767074Y-84721463D01*
X144814693Y-84816701D01*
X144819976Y-84825093D01*
X144820988Y-84827537D01*
X144823244Y-84830286D01*
X144825136Y-84833291D01*
X144827130Y-84835020D01*
X144833425Y-84842690D01*
X144881043Y-84890310D01*
X144888711Y-84896603D01*
X144890443Y-84898600D01*
X144893451Y-84900493D01*
X144896197Y-84902747D01*
X144898637Y-84903757D01*
X144907034Y-84909043D01*
X145002271Y-84956662D01*
X145020580Y-84963668D01*
X145024163Y-84963922D01*
X145027484Y-84965298D01*
X145046993Y-84967219D01*
X145332707Y-84967219D01*
X145352216Y-84965298D01*
X145355536Y-84963922D01*
X145359120Y-84963668D01*
X145377428Y-84956662D01*
X145472666Y-84909043D01*
X145481061Y-84903758D01*
X145483503Y-84902747D01*
X145486250Y-84900491D01*
X145489256Y-84898600D01*
X145490986Y-84896605D01*
X145498656Y-84890310D01*
X145546275Y-84842690D01*
X145558712Y-84827537D01*
X145573643Y-84791488D01*
X145573642Y-84752470D01*
X145558711Y-84716422D01*
X145531120Y-84688832D01*
X145495072Y-84673901D01*
X145456054Y-84673902D01*
X145420006Y-84688833D01*
X145404852Y-84701270D01*
X145368709Y-84737413D01*
X145309100Y-84767219D01*
X145070600Y-84767219D01*
X145010990Y-84737414D01*
X144986323Y-84712746D01*
X144956517Y-84653134D01*
X144956517Y-84462254D01*
X144986322Y-84402644D01*
X145010990Y-84377975D01*
X145070600Y-84348171D01*
X145189850Y-84348171D01*
X145200167Y-84347155D01*
X145202792Y-84347330D01*
X145204599Y-84346718D01*
X145209359Y-84346250D01*
X145224362Y-84340035D01*
X145239754Y-84334830D01*
X145242293Y-84332607D01*
X145245407Y-84331318D01*
X145256884Y-84319840D01*
X145269118Y-84309136D01*
X145270613Y-84306111D01*
X145272997Y-84303728D01*
X145279211Y-84288726D01*
X145286414Y-84274161D01*
X145286638Y-84270795D01*
X145287929Y-84267680D01*
X145287929Y-84251431D01*
X145289009Y-84235229D01*
X145287929Y-84232035D01*
X145287929Y-84228662D01*
X145281713Y-84213656D01*
X145276509Y-84198268D01*
X145273727Y-84194377D01*
X145272997Y-84192614D01*
X145271137Y-84190754D01*
X145265108Y-84182321D01*
X145076894Y-83967219D01*
X145475564Y-83967219D01*
X145495073Y-83965298D01*
X145531121Y-83950366D01*
X145558711Y-83922776D01*
X145573643Y-83886728D01*
X145573643Y-83847710D01*
X145558711Y-83811662D01*
X145531121Y-83784072D01*
X145495073Y-83769140D01*
X145475564Y-83767219D01*
X144856517Y-83767219D01*
X144846199Y-83768234D01*
X144843575Y-83768060D01*
X144841767Y-83768671D01*
X144837008Y-83769140D01*
X144822002Y-83775355D01*
X144806614Y-83780560D01*
X144804074Y-83782781D01*
X144800960Y-83784072D01*
X144789475Y-83795556D01*
X144777250Y-83806254D01*
X144775754Y-83809277D01*
X144773370Y-83811662D01*
X144767153Y-83826668D01*
X144759953Y-83841229D01*
X144759728Y-83844594D01*
X144758438Y-83847710D01*
X144758438Y-83863958D01*
X144757358Y-83880161D01*
X144758438Y-83883354D01*
X144758438Y-83886728D01*
X144764653Y-83901733D01*
X144769858Y-83917122D01*
X144772639Y-83921012D01*
X144773370Y-83922776D01*
X144775229Y-83924635D01*
X144781259Y-83933069D01*
X144985880Y-84166923D01*
X144907034Y-84206347D01*
X144898637Y-84211632D01*
X144896197Y-84212643D01*
X144893451Y-84214896D01*
X144890443Y-84216790D01*
X144888710Y-84218787D01*
X144881044Y-84225080D01*
X144833425Y-84272698D01*
X144827130Y-84280368D01*
X144825136Y-84282098D01*
X144823242Y-84285105D01*
X144820989Y-84287852D01*
X144819978Y-84290291D01*
X144814693Y-84298688D01*
X144767074Y-84393926D01*
X144760068Y-84412234D01*
X144759813Y-84415817D01*
X144758438Y-84419138D01*
X144756517Y-84438647D01*
X144515563Y-84438647D01*
X144517388Y-84435749D01*
X144565007Y-84340512D01*
X144572013Y-84322203D01*
X144572267Y-84318619D01*
X144573643Y-84315299D01*
X144575564Y-84295790D01*
X144575564Y-84057695D01*
X144573643Y-84038186D01*
X144572267Y-84034865D01*
X144572013Y-84031282D01*
X144565007Y-84012973D01*
X144517388Y-83917736D01*
X144512102Y-83909339D01*
X144511092Y-83906899D01*
X144508838Y-83904153D01*
X144506945Y-83901145D01*
X144504947Y-83899412D01*
X144498655Y-83891746D01*
X144451037Y-83844127D01*
X144443366Y-83837832D01*
X144441637Y-83835838D01*
X144438629Y-83833944D01*
X144435883Y-83831691D01*
X144433443Y-83830680D01*
X144425047Y-83825395D01*
X144329809Y-83777776D01*
X144311501Y-83770770D01*
X144307917Y-83770515D01*
X144304597Y-83769140D01*
X144285088Y-83767219D01*
X144094612Y-83767219D01*
X144075103Y-83769140D01*
X144071782Y-83770515D01*
X144068199Y-83770770D01*
X144049890Y-83777776D01*
X143954653Y-83825395D01*
X143946256Y-83830680D01*
X143943816Y-83831691D01*
X143941070Y-83833944D01*
X143938062Y-83835838D01*
X143936329Y-83837835D01*
X143928663Y-83844128D01*
X143881044Y-83891746D01*
X143874749Y-83899416D01*
X143872755Y-83901146D01*
X143870861Y-83904153D01*
X143868608Y-83906900D01*
X143867597Y-83909339D01*
X143862312Y-83917736D01*
X143814693Y-84012974D01*
X143807687Y-84031282D01*
X143807432Y-84034865D01*
X143806057Y-84038186D01*
X143804136Y-84057695D01*
X143693025Y-84057695D01*
X143693025Y-83656108D01*
X145684754Y-83656108D01*
X145684754Y-85078330D01*
G37*
X148177945Y-79569600D02*
X148035088Y-79617219D01*
X148035088Y-79617219D02*
X147796993Y-79617219D01*
X147796993Y-79617219D02*
X147701755Y-79569600D01*
X147701755Y-79569600D02*
X147654136Y-79521980D01*
X147654136Y-79521980D02*
X147606517Y-79426742D01*
X147606517Y-79426742D02*
X147606517Y-79331504D01*
X147606517Y-79331504D02*
X147654136Y-79236266D01*
X147654136Y-79236266D02*
X147701755Y-79188647D01*
X147701755Y-79188647D02*
X147796993Y-79141028D01*
X147796993Y-79141028D02*
X147987469Y-79093409D01*
X147987469Y-79093409D02*
X148082707Y-79045790D01*
X148082707Y-79045790D02*
X148130326Y-78998171D01*
X148130326Y-78998171D02*
X148177945Y-78902933D01*
X148177945Y-78902933D02*
X148177945Y-78807695D01*
X148177945Y-78807695D02*
X148130326Y-78712457D01*
X148130326Y-78712457D02*
X148082707Y-78664838D01*
X148082707Y-78664838D02*
X147987469Y-78617219D01*
X147987469Y-78617219D02*
X147749374Y-78617219D01*
X147749374Y-78617219D02*
X147606517Y-78664838D01*
X147273183Y-78617219D02*
X147035088Y-79617219D01*
X147035088Y-79617219D02*
X146844612Y-78902933D01*
X146844612Y-78902933D02*
X146654136Y-79617219D01*
X146654136Y-79617219D02*
X146416041Y-78617219D01*
X146035088Y-79617219D02*
X146035088Y-78617219D01*
X146035088Y-78617219D02*
X145796993Y-78617219D01*
X145796993Y-78617219D02*
X145654136Y-78664838D01*
X145654136Y-78664838D02*
X145558898Y-78760076D01*
X145558898Y-78760076D02*
X145511279Y-78855314D01*
X145511279Y-78855314D02*
X145463660Y-79045790D01*
X145463660Y-79045790D02*
X145463660Y-79188647D01*
X145463660Y-79188647D02*
X145511279Y-79379123D01*
X145511279Y-79379123D02*
X145558898Y-79474361D01*
X145558898Y-79474361D02*
X145654136Y-79569600D01*
X145654136Y-79569600D02*
X145796993Y-79617219D01*
X145796993Y-79617219D02*
X146035088Y-79617219D01*
X144463660Y-79521980D02*
X144511279Y-79569600D01*
X144511279Y-79569600D02*
X144654136Y-79617219D01*
X144654136Y-79617219D02*
X144749374Y-79617219D01*
X144749374Y-79617219D02*
X144892231Y-79569600D01*
X144892231Y-79569600D02*
X144987469Y-79474361D01*
X144987469Y-79474361D02*
X145035088Y-79379123D01*
X145035088Y-79379123D02*
X145082707Y-79188647D01*
X145082707Y-79188647D02*
X145082707Y-79045790D01*
X145082707Y-79045790D02*
X145035088Y-78855314D01*
X145035088Y-78855314D02*
X144987469Y-78760076D01*
X144987469Y-78760076D02*
X144892231Y-78664838D01*
X144892231Y-78664838D02*
X144749374Y-78617219D01*
X144749374Y-78617219D02*
X144654136Y-78617219D01*
X144654136Y-78617219D02*
X144511279Y-78664838D01*
X144511279Y-78664838D02*
X144463660Y-78712457D01*
X144035088Y-79617219D02*
X144035088Y-78617219D01*
X143463660Y-79617219D02*
X143892231Y-79045790D01*
X143463660Y-78617219D02*
X144035088Y-79188647D01*
X145356517Y-93914838D02*
X145451755Y-93867219D01*
X145451755Y-93867219D02*
X145594612Y-93867219D01*
X145594612Y-93867219D02*
X145737469Y-93914838D01*
X145737469Y-93914838D02*
X145832707Y-94010076D01*
X145832707Y-94010076D02*
X145880326Y-94105314D01*
X145880326Y-94105314D02*
X145927945Y-94295790D01*
X145927945Y-94295790D02*
X145927945Y-94438647D01*
X145927945Y-94438647D02*
X145880326Y-94629123D01*
X145880326Y-94629123D02*
X145832707Y-94724361D01*
X145832707Y-94724361D02*
X145737469Y-94819600D01*
X145737469Y-94819600D02*
X145594612Y-94867219D01*
X145594612Y-94867219D02*
X145499374Y-94867219D01*
X145499374Y-94867219D02*
X145356517Y-94819600D01*
X145356517Y-94819600D02*
X145308898Y-94771980D01*
X145308898Y-94771980D02*
X145308898Y-94438647D01*
X145308898Y-94438647D02*
X145499374Y-94438647D01*
X144880326Y-94867219D02*
X144880326Y-93867219D01*
X144880326Y-93867219D02*
X144308898Y-94867219D01*
X144308898Y-94867219D02*
X144308898Y-93867219D01*
X143832707Y-94867219D02*
X143832707Y-93867219D01*
X143832707Y-93867219D02*
X143594612Y-93867219D01*
X143594612Y-93867219D02*
X143451755Y-93914838D01*
X143451755Y-93914838D02*
X143356517Y-94010076D01*
X143356517Y-94010076D02*
X143308898Y-94105314D01*
X143308898Y-94105314D02*
X143261279Y-94295790D01*
X143261279Y-94295790D02*
X143261279Y-94438647D01*
X143261279Y-94438647D02*
X143308898Y-94629123D01*
X143308898Y-94629123D02*
X143356517Y-94724361D01*
X143356517Y-94724361D02*
X143451755Y-94819600D01*
X143451755Y-94819600D02*
X143594612Y-94867219D01*
X143594612Y-94867219D02*
X143832707Y-94867219D01*
G36*
X137388271Y-90076409D02*
G01*
X135397327Y-90076409D01*
X135397327Y-89514376D01*
X135508438Y-89514376D01*
X135508438Y-89553394D01*
X135523370Y-89589442D01*
X135550960Y-89617032D01*
X135587008Y-89631964D01*
X135606517Y-89633885D01*
X135649374Y-89633885D01*
X135649374Y-89867219D01*
X135651295Y-89886728D01*
X135666227Y-89922776D01*
X135693817Y-89950366D01*
X135729865Y-89965298D01*
X135768883Y-89965298D01*
X135804931Y-89950366D01*
X135832521Y-89922776D01*
X135847453Y-89886728D01*
X135849374Y-89867219D01*
X135849374Y-89633885D01*
X136225564Y-89633885D01*
X136235437Y-89632912D01*
X136238071Y-89633100D01*
X136239972Y-89632466D01*
X136245073Y-89631964D01*
X136259885Y-89625828D01*
X136275087Y-89620761D01*
X136277800Y-89618407D01*
X136281121Y-89617032D01*
X136292459Y-89605693D01*
X136304563Y-89595196D01*
X136306169Y-89591983D01*
X136308711Y-89589442D01*
X136314847Y-89574627D01*
X136322013Y-89560297D01*
X136322267Y-89556714D01*
X136323643Y-89553394D01*
X136323643Y-89537361D01*
X136324779Y-89521377D01*
X136323643Y-89516381D01*
X136323643Y-89514376D01*
X136460819Y-89514376D01*
X136460819Y-89553394D01*
X136475751Y-89589442D01*
X136503341Y-89617032D01*
X136539389Y-89631964D01*
X136558898Y-89633885D01*
X136601755Y-89633885D01*
X136601755Y-89867219D01*
X136603676Y-89886728D01*
X136618608Y-89922776D01*
X136646198Y-89950366D01*
X136682246Y-89965298D01*
X136721264Y-89965298D01*
X136757312Y-89950366D01*
X136784902Y-89922776D01*
X136799834Y-89886728D01*
X136801755Y-89867219D01*
X136801755Y-89633885D01*
X137177945Y-89633885D01*
X137187818Y-89632912D01*
X137190452Y-89633100D01*
X137192353Y-89632466D01*
X137197454Y-89631964D01*
X137212266Y-89625828D01*
X137227468Y-89620761D01*
X137230181Y-89618407D01*
X137233502Y-89617032D01*
X137244840Y-89605693D01*
X137256944Y-89595196D01*
X137258550Y-89591983D01*
X137261092Y-89589442D01*
X137267228Y-89574627D01*
X137274394Y-89560297D01*
X137274648Y-89556714D01*
X137276024Y-89553394D01*
X137276024Y-89537361D01*
X137277160Y-89521377D01*
X137276024Y-89516381D01*
X137276024Y-89514376D01*
X137275012Y-89511934D01*
X137272813Y-89502262D01*
X137034718Y-88787977D01*
X137026727Y-88770077D01*
X137001162Y-88740601D01*
X136966263Y-88723151D01*
X136927343Y-88720385D01*
X136890327Y-88732723D01*
X136860851Y-88758288D01*
X136843401Y-88793187D01*
X136840635Y-88832107D01*
X136844982Y-88851223D01*
X137039203Y-89433885D01*
X136801755Y-89433885D01*
X136801755Y-89200552D01*
X136799834Y-89181043D01*
X136784902Y-89144995D01*
X136757312Y-89117405D01*
X136721264Y-89102473D01*
X136682246Y-89102473D01*
X136646198Y-89117405D01*
X136618608Y-89144995D01*
X136603676Y-89181043D01*
X136601755Y-89200552D01*
X136601755Y-89433885D01*
X136558898Y-89433885D01*
X136539389Y-89435806D01*
X136503341Y-89450738D01*
X136475751Y-89478328D01*
X136460819Y-89514376D01*
X136323643Y-89514376D01*
X136322631Y-89511934D01*
X136320432Y-89502262D01*
X136082337Y-88787977D01*
X136074346Y-88770077D01*
X136048781Y-88740601D01*
X136013882Y-88723151D01*
X135974962Y-88720385D01*
X135937946Y-88732723D01*
X135908470Y-88758288D01*
X135891020Y-88793187D01*
X135888254Y-88832107D01*
X135892601Y-88851223D01*
X136086822Y-89433885D01*
X135849374Y-89433885D01*
X135849374Y-89200552D01*
X135847453Y-89181043D01*
X135832521Y-89144995D01*
X135804931Y-89117405D01*
X135768883Y-89102473D01*
X135729865Y-89102473D01*
X135693817Y-89117405D01*
X135666227Y-89144995D01*
X135651295Y-89181043D01*
X135649374Y-89200552D01*
X135649374Y-89433885D01*
X135606517Y-89433885D01*
X135587008Y-89435806D01*
X135550960Y-89450738D01*
X135523370Y-89478328D01*
X135508438Y-89514376D01*
X135397327Y-89514376D01*
X135397327Y-88609274D01*
X137388271Y-88609274D01*
X137388271Y-90076409D01*
G37*
X180856517Y-83914838D02*
X180951755Y-83867219D01*
X180951755Y-83867219D02*
X181094612Y-83867219D01*
X181094612Y-83867219D02*
X181237469Y-83914838D01*
X181237469Y-83914838D02*
X181332707Y-84010076D01*
X181332707Y-84010076D02*
X181380326Y-84105314D01*
X181380326Y-84105314D02*
X181427945Y-84295790D01*
X181427945Y-84295790D02*
X181427945Y-84438647D01*
X181427945Y-84438647D02*
X181380326Y-84629123D01*
X181380326Y-84629123D02*
X181332707Y-84724361D01*
X181332707Y-84724361D02*
X181237469Y-84819600D01*
X181237469Y-84819600D02*
X181094612Y-84867219D01*
X181094612Y-84867219D02*
X180999374Y-84867219D01*
X180999374Y-84867219D02*
X180856517Y-84819600D01*
X180856517Y-84819600D02*
X180808898Y-84771980D01*
X180808898Y-84771980D02*
X180808898Y-84438647D01*
X180808898Y-84438647D02*
X180999374Y-84438647D01*
X180380326Y-84867219D02*
X180380326Y-83867219D01*
X180380326Y-83867219D02*
X179808898Y-84867219D01*
X179808898Y-84867219D02*
X179808898Y-83867219D01*
X179332707Y-84867219D02*
X179332707Y-83867219D01*
X179332707Y-83867219D02*
X179094612Y-83867219D01*
X179094612Y-83867219D02*
X178951755Y-83914838D01*
X178951755Y-83914838D02*
X178856517Y-84010076D01*
X178856517Y-84010076D02*
X178808898Y-84105314D01*
X178808898Y-84105314D02*
X178761279Y-84295790D01*
X178761279Y-84295790D02*
X178761279Y-84438647D01*
X178761279Y-84438647D02*
X178808898Y-84629123D01*
X178808898Y-84629123D02*
X178856517Y-84724361D01*
X178856517Y-84724361D02*
X178951755Y-84819600D01*
X178951755Y-84819600D02*
X179094612Y-84867219D01*
X179094612Y-84867219D02*
X179332707Y-84867219D01*
X137475564Y-76117219D02*
X136856517Y-76117219D01*
X136856517Y-76117219D02*
X137189850Y-76498171D01*
X137189850Y-76498171D02*
X137046993Y-76498171D01*
X137046993Y-76498171D02*
X136951755Y-76545790D01*
X136951755Y-76545790D02*
X136904136Y-76593409D01*
X136904136Y-76593409D02*
X136856517Y-76688647D01*
X136856517Y-76688647D02*
X136856517Y-76926742D01*
X136856517Y-76926742D02*
X136904136Y-77021980D01*
X136904136Y-77021980D02*
X136951755Y-77069600D01*
X136951755Y-77069600D02*
X137046993Y-77117219D01*
X137046993Y-77117219D02*
X137332707Y-77117219D01*
X137332707Y-77117219D02*
X137427945Y-77069600D01*
X137427945Y-77069600D02*
X137475564Y-77021980D01*
X136570802Y-76117219D02*
X136237469Y-77117219D01*
X136237469Y-77117219D02*
X135904136Y-76117219D01*
X135666040Y-76117219D02*
X135046993Y-76117219D01*
X135046993Y-76117219D02*
X135380326Y-76498171D01*
X135380326Y-76498171D02*
X135237469Y-76498171D01*
X135237469Y-76498171D02*
X135142231Y-76545790D01*
X135142231Y-76545790D02*
X135094612Y-76593409D01*
X135094612Y-76593409D02*
X135046993Y-76688647D01*
X135046993Y-76688647D02*
X135046993Y-76926742D01*
X135046993Y-76926742D02*
X135094612Y-77021980D01*
X135094612Y-77021980D02*
X135142231Y-77069600D01*
X135142231Y-77069600D02*
X135237469Y-77117219D01*
X135237469Y-77117219D02*
X135523183Y-77117219D01*
X135523183Y-77117219D02*
X135618421Y-77069600D01*
X135618421Y-77069600D02*
X135666040Y-77021980D01*
G36*
X137388271Y-87578330D02*
G01*
X135443025Y-87578330D01*
X135443025Y-86557695D01*
X135554136Y-86557695D01*
X135554136Y-86652933D01*
X135555108Y-86662806D01*
X135554921Y-86665440D01*
X135555708Y-86668903D01*
X135556057Y-86672442D01*
X135557068Y-86674884D01*
X135559268Y-86684556D01*
X135606887Y-86827412D01*
X135614878Y-86845313D01*
X135617233Y-86848028D01*
X135618608Y-86851347D01*
X135631044Y-86866501D01*
X136031761Y-87267219D01*
X135654136Y-87267219D01*
X135634627Y-87269140D01*
X135598579Y-87284072D01*
X135570989Y-87311662D01*
X135556057Y-87347710D01*
X135556057Y-87386728D01*
X135570989Y-87422776D01*
X135598579Y-87450366D01*
X135634627Y-87465298D01*
X135654136Y-87467219D01*
X136273183Y-87467219D01*
X136292692Y-87465298D01*
X136328740Y-87450366D01*
X136356330Y-87422776D01*
X136371262Y-87386728D01*
X136371262Y-87347710D01*
X136356330Y-87311662D01*
X136343894Y-87296508D01*
X136061763Y-87014376D01*
X136460819Y-87014376D01*
X136460819Y-87053394D01*
X136475751Y-87089442D01*
X136503341Y-87117032D01*
X136539389Y-87131964D01*
X136558898Y-87133885D01*
X136601755Y-87133885D01*
X136601755Y-87367219D01*
X136603676Y-87386728D01*
X136618608Y-87422776D01*
X136646198Y-87450366D01*
X136682246Y-87465298D01*
X136721264Y-87465298D01*
X136757312Y-87450366D01*
X136784902Y-87422776D01*
X136799834Y-87386728D01*
X136801755Y-87367219D01*
X136801755Y-87133885D01*
X137177945Y-87133885D01*
X137187818Y-87132912D01*
X137190452Y-87133100D01*
X137192353Y-87132466D01*
X137197454Y-87131964D01*
X137212266Y-87125828D01*
X137227468Y-87120761D01*
X137230181Y-87118407D01*
X137233502Y-87117032D01*
X137244840Y-87105693D01*
X137256944Y-87095196D01*
X137258550Y-87091983D01*
X137261092Y-87089442D01*
X137267228Y-87074627D01*
X137274394Y-87060297D01*
X137274648Y-87056714D01*
X137276024Y-87053394D01*
X137276024Y-87037361D01*
X137277160Y-87021377D01*
X137276024Y-87016381D01*
X137276024Y-87014376D01*
X137275012Y-87011934D01*
X137272813Y-87002262D01*
X137034718Y-86287977D01*
X137026727Y-86270077D01*
X137001162Y-86240601D01*
X136966263Y-86223151D01*
X136927343Y-86220385D01*
X136890327Y-86232723D01*
X136860851Y-86258288D01*
X136843401Y-86293187D01*
X136840635Y-86332107D01*
X136844982Y-86351223D01*
X137039203Y-86933885D01*
X136801755Y-86933885D01*
X136801755Y-86700552D01*
X136799834Y-86681043D01*
X136784902Y-86644995D01*
X136757312Y-86617405D01*
X136721264Y-86602473D01*
X136682246Y-86602473D01*
X136646198Y-86617405D01*
X136618608Y-86644995D01*
X136603676Y-86681043D01*
X136601755Y-86700552D01*
X136601755Y-86933885D01*
X136558898Y-86933885D01*
X136539389Y-86935806D01*
X136503341Y-86950738D01*
X136475751Y-86978328D01*
X136460819Y-87014376D01*
X136061763Y-87014376D01*
X135789157Y-86741770D01*
X135754136Y-86636706D01*
X135754136Y-86581302D01*
X135783941Y-86521692D01*
X135808609Y-86497023D01*
X135868219Y-86467219D01*
X136059100Y-86467219D01*
X136118709Y-86497024D01*
X136154853Y-86533167D01*
X136170006Y-86545604D01*
X136206055Y-86560535D01*
X136245073Y-86560535D01*
X136281121Y-86545604D01*
X136308711Y-86518014D01*
X136323642Y-86481966D01*
X136323642Y-86442948D01*
X136308711Y-86406899D01*
X136296274Y-86391746D01*
X136248656Y-86344127D01*
X136240985Y-86337832D01*
X136239256Y-86335838D01*
X136236248Y-86333944D01*
X136233502Y-86331691D01*
X136231062Y-86330680D01*
X136222666Y-86325395D01*
X136127428Y-86277776D01*
X136109120Y-86270770D01*
X136105536Y-86270515D01*
X136102216Y-86269140D01*
X136082707Y-86267219D01*
X135844612Y-86267219D01*
X135825103Y-86269140D01*
X135821782Y-86270515D01*
X135818199Y-86270770D01*
X135799890Y-86277776D01*
X135704653Y-86325395D01*
X135696256Y-86330680D01*
X135693816Y-86331691D01*
X135691070Y-86333944D01*
X135688062Y-86335838D01*
X135686329Y-86337835D01*
X135678663Y-86344128D01*
X135631044Y-86391746D01*
X135624749Y-86399416D01*
X135622755Y-86401146D01*
X135620861Y-86404153D01*
X135618608Y-86406900D01*
X135617597Y-86409339D01*
X135612312Y-86417736D01*
X135564693Y-86512974D01*
X135557687Y-86531282D01*
X135557432Y-86534865D01*
X135556057Y-86538186D01*
X135554136Y-86557695D01*
X135443025Y-86557695D01*
X135443025Y-86109274D01*
X137388271Y-86109274D01*
X137388271Y-87578330D01*
G37*
G36*
X171321090Y-81877976D02*
G01*
X171345759Y-81902644D01*
X171375564Y-81962254D01*
X171375564Y-82153135D01*
X171345759Y-82212743D01*
X171321090Y-82237413D01*
X171261481Y-82267219D01*
X171118219Y-82267219D01*
X171058609Y-82237414D01*
X171033942Y-82212746D01*
X171004136Y-82153134D01*
X171004136Y-81962254D01*
X171033941Y-81902644D01*
X171058609Y-81877975D01*
X171118219Y-81848171D01*
X171261481Y-81848171D01*
X171321090Y-81877976D01*
G37*
G36*
X172684754Y-82578330D02*
G01*
X170693025Y-82578330D01*
X170693025Y-81938647D01*
X170804136Y-81938647D01*
X170804136Y-82176742D01*
X170806057Y-82196251D01*
X170807432Y-82199571D01*
X170807687Y-82203155D01*
X170814693Y-82221463D01*
X170862312Y-82316701D01*
X170867595Y-82325093D01*
X170868607Y-82327537D01*
X170870863Y-82330286D01*
X170872755Y-82333291D01*
X170874749Y-82335020D01*
X170881044Y-82342690D01*
X170928662Y-82390310D01*
X170936330Y-82396603D01*
X170938062Y-82398600D01*
X170941070Y-82400493D01*
X170943816Y-82402747D01*
X170946256Y-82403757D01*
X170954653Y-82409043D01*
X171049890Y-82456662D01*
X171068199Y-82463668D01*
X171071782Y-82463922D01*
X171075103Y-82465298D01*
X171094612Y-82467219D01*
X171285088Y-82467219D01*
X171304597Y-82465298D01*
X171307917Y-82463922D01*
X171311501Y-82463668D01*
X171329809Y-82456662D01*
X171425047Y-82409043D01*
X171433442Y-82403758D01*
X171435884Y-82402747D01*
X171438631Y-82400491D01*
X171441637Y-82398600D01*
X171443367Y-82396605D01*
X171451037Y-82390310D01*
X171498656Y-82342690D01*
X171504948Y-82335023D01*
X171506945Y-82333292D01*
X171508838Y-82330284D01*
X171511093Y-82327537D01*
X171512104Y-82325095D01*
X171517388Y-82316701D01*
X171565007Y-82221464D01*
X171572013Y-82203155D01*
X171572267Y-82199571D01*
X171573643Y-82196251D01*
X171575564Y-82176742D01*
X171575564Y-81795790D01*
X171575228Y-81792387D01*
X171575446Y-81790929D01*
X171574366Y-81783631D01*
X171573643Y-81776281D01*
X171573078Y-81774917D01*
X171572578Y-81771536D01*
X171524959Y-81581060D01*
X171520852Y-81569565D01*
X171520373Y-81567142D01*
X171519202Y-81564945D01*
X171518364Y-81562600D01*
X171516892Y-81560613D01*
X171515336Y-81557695D01*
X171756517Y-81557695D01*
X171756517Y-81652933D01*
X171757489Y-81662806D01*
X171757302Y-81665440D01*
X171758089Y-81668903D01*
X171758438Y-81672442D01*
X171759449Y-81674884D01*
X171761649Y-81684556D01*
X171809268Y-81827412D01*
X171817259Y-81845313D01*
X171819614Y-81848028D01*
X171820989Y-81851347D01*
X171833425Y-81866501D01*
X172234142Y-82267219D01*
X171856517Y-82267219D01*
X171837008Y-82269140D01*
X171800960Y-82284072D01*
X171773370Y-82311662D01*
X171758438Y-82347710D01*
X171758438Y-82386728D01*
X171773370Y-82422776D01*
X171800960Y-82450366D01*
X171837008Y-82465298D01*
X171856517Y-82467219D01*
X172475564Y-82467219D01*
X172495073Y-82465298D01*
X172531121Y-82450366D01*
X172558711Y-82422776D01*
X172573643Y-82386728D01*
X172573643Y-82347710D01*
X172558711Y-82311662D01*
X172546275Y-82296508D01*
X171991538Y-81741770D01*
X171956517Y-81636706D01*
X171956517Y-81581302D01*
X171986322Y-81521692D01*
X172010990Y-81497023D01*
X172070600Y-81467219D01*
X172261481Y-81467219D01*
X172321090Y-81497024D01*
X172357234Y-81533167D01*
X172372387Y-81545604D01*
X172408436Y-81560535D01*
X172447454Y-81560535D01*
X172483502Y-81545604D01*
X172511092Y-81518014D01*
X172526023Y-81481966D01*
X172526023Y-81442948D01*
X172511092Y-81406899D01*
X172498655Y-81391746D01*
X172451037Y-81344127D01*
X172443366Y-81337832D01*
X172441637Y-81335838D01*
X172438629Y-81333944D01*
X172435883Y-81331691D01*
X172433443Y-81330680D01*
X172425047Y-81325395D01*
X172329809Y-81277776D01*
X172311501Y-81270770D01*
X172307917Y-81270515D01*
X172304597Y-81269140D01*
X172285088Y-81267219D01*
X172046993Y-81267219D01*
X172027484Y-81269140D01*
X172024163Y-81270515D01*
X172020580Y-81270770D01*
X172002271Y-81277776D01*
X171907034Y-81325395D01*
X171898637Y-81330680D01*
X171896197Y-81331691D01*
X171893451Y-81333944D01*
X171890443Y-81335838D01*
X171888710Y-81337835D01*
X171881044Y-81344128D01*
X171833425Y-81391746D01*
X171827130Y-81399416D01*
X171825136Y-81401146D01*
X171823242Y-81404153D01*
X171820989Y-81406900D01*
X171819978Y-81409339D01*
X171814693Y-81417736D01*
X171767074Y-81512974D01*
X171760068Y-81531282D01*
X171759813Y-81534865D01*
X171758438Y-81538186D01*
X171756517Y-81557695D01*
X171515336Y-81557695D01*
X171511150Y-81549844D01*
X171415912Y-81406987D01*
X171415868Y-81406933D01*
X171415854Y-81406899D01*
X171409709Y-81399413D01*
X171403492Y-81391820D01*
X171403460Y-81391798D01*
X171403417Y-81391746D01*
X171355799Y-81344127D01*
X171348128Y-81337832D01*
X171346399Y-81335838D01*
X171343391Y-81333944D01*
X171340645Y-81331691D01*
X171338205Y-81330680D01*
X171329809Y-81325395D01*
X171234571Y-81277776D01*
X171216263Y-81270770D01*
X171212679Y-81270515D01*
X171209359Y-81269140D01*
X171189850Y-81267219D01*
X170999374Y-81267219D01*
X170979865Y-81269140D01*
X170943817Y-81284072D01*
X170916227Y-81311662D01*
X170901295Y-81347710D01*
X170901295Y-81386728D01*
X170916227Y-81422776D01*
X170943817Y-81450366D01*
X170979865Y-81465298D01*
X170999374Y-81467219D01*
X171166243Y-81467219D01*
X171225852Y-81497024D01*
X171254994Y-81526165D01*
X171335132Y-81646372D01*
X171339422Y-81663534D01*
X171329809Y-81658728D01*
X171311501Y-81651722D01*
X171307917Y-81651467D01*
X171304597Y-81650092D01*
X171285088Y-81648171D01*
X171094612Y-81648171D01*
X171075103Y-81650092D01*
X171071782Y-81651467D01*
X171068199Y-81651722D01*
X171049890Y-81658728D01*
X170954653Y-81706347D01*
X170946256Y-81711632D01*
X170943816Y-81712643D01*
X170941070Y-81714896D01*
X170938062Y-81716790D01*
X170936329Y-81718787D01*
X170928663Y-81725080D01*
X170881044Y-81772698D01*
X170874749Y-81780368D01*
X170872755Y-81782098D01*
X170870861Y-81785105D01*
X170868608Y-81787852D01*
X170867597Y-81790291D01*
X170862312Y-81798688D01*
X170814693Y-81893926D01*
X170807687Y-81912234D01*
X170807432Y-81915817D01*
X170806057Y-81919138D01*
X170804136Y-81938647D01*
X170693025Y-81938647D01*
X170693025Y-81156108D01*
X172684754Y-81156108D01*
X172684754Y-82578330D01*
G37*
G36*
X145638271Y-90078330D02*
G01*
X143693025Y-90078330D01*
X143693025Y-89438647D01*
X143804136Y-89438647D01*
X143804136Y-89676742D01*
X143806057Y-89696251D01*
X143807432Y-89699571D01*
X143807687Y-89703155D01*
X143814693Y-89721463D01*
X143862312Y-89816701D01*
X143867595Y-89825093D01*
X143868607Y-89827537D01*
X143870863Y-89830286D01*
X143872755Y-89833291D01*
X143874749Y-89835020D01*
X143881044Y-89842690D01*
X143928662Y-89890310D01*
X143936330Y-89896603D01*
X143938062Y-89898600D01*
X143941070Y-89900493D01*
X143943816Y-89902747D01*
X143946256Y-89903757D01*
X143954653Y-89909043D01*
X144049890Y-89956662D01*
X144068199Y-89963668D01*
X144071782Y-89963922D01*
X144075103Y-89965298D01*
X144094612Y-89967219D01*
X144380326Y-89967219D01*
X144399835Y-89965298D01*
X144403155Y-89963922D01*
X144406739Y-89963668D01*
X144425047Y-89956662D01*
X144520285Y-89909043D01*
X144528680Y-89903758D01*
X144531122Y-89902747D01*
X144533869Y-89900491D01*
X144536875Y-89898600D01*
X144538605Y-89896605D01*
X144546275Y-89890310D01*
X144593894Y-89842690D01*
X144606331Y-89827537D01*
X144621262Y-89791488D01*
X144621261Y-89752470D01*
X144606330Y-89716422D01*
X144578739Y-89688832D01*
X144542691Y-89673901D01*
X144503673Y-89673902D01*
X144467625Y-89688833D01*
X144452471Y-89701270D01*
X144416328Y-89737413D01*
X144356719Y-89767219D01*
X144118219Y-89767219D01*
X144058609Y-89737414D01*
X144033942Y-89712746D01*
X144004136Y-89653134D01*
X144004136Y-89514376D01*
X144710819Y-89514376D01*
X144710819Y-89553394D01*
X144725751Y-89589442D01*
X144753341Y-89617032D01*
X144789389Y-89631964D01*
X144808898Y-89633885D01*
X144851755Y-89633885D01*
X144851755Y-89867219D01*
X144853676Y-89886728D01*
X144868608Y-89922776D01*
X144896198Y-89950366D01*
X144932246Y-89965298D01*
X144971264Y-89965298D01*
X145007312Y-89950366D01*
X145034902Y-89922776D01*
X145049834Y-89886728D01*
X145051755Y-89867219D01*
X145051755Y-89633885D01*
X145427945Y-89633885D01*
X145437818Y-89632912D01*
X145440452Y-89633100D01*
X145442353Y-89632466D01*
X145447454Y-89631964D01*
X145462266Y-89625828D01*
X145477468Y-89620761D01*
X145480181Y-89618407D01*
X145483502Y-89617032D01*
X145494840Y-89605693D01*
X145506944Y-89595196D01*
X145508550Y-89591983D01*
X145511092Y-89589442D01*
X145517228Y-89574627D01*
X145524394Y-89560297D01*
X145524648Y-89556714D01*
X145526024Y-89553394D01*
X145526024Y-89537361D01*
X145527160Y-89521377D01*
X145526024Y-89516381D01*
X145526024Y-89514376D01*
X145525012Y-89511934D01*
X145522813Y-89502262D01*
X145284718Y-88787977D01*
X145276727Y-88770077D01*
X145251162Y-88740601D01*
X145216263Y-88723151D01*
X145177343Y-88720385D01*
X145140327Y-88732723D01*
X145110851Y-88758288D01*
X145093401Y-88793187D01*
X145090635Y-88832107D01*
X145094982Y-88851223D01*
X145289203Y-89433885D01*
X145051755Y-89433885D01*
X145051755Y-89200552D01*
X145049834Y-89181043D01*
X145034902Y-89144995D01*
X145007312Y-89117405D01*
X144971264Y-89102473D01*
X144932246Y-89102473D01*
X144896198Y-89117405D01*
X144868608Y-89144995D01*
X144853676Y-89181043D01*
X144851755Y-89200552D01*
X144851755Y-89433885D01*
X144808898Y-89433885D01*
X144789389Y-89435806D01*
X144753341Y-89450738D01*
X144725751Y-89478328D01*
X144710819Y-89514376D01*
X144004136Y-89514376D01*
X144004136Y-89462254D01*
X144033941Y-89402644D01*
X144058609Y-89377975D01*
X144118219Y-89348171D01*
X144237469Y-89348171D01*
X144247786Y-89347155D01*
X144250411Y-89347330D01*
X144252218Y-89346718D01*
X144256978Y-89346250D01*
X144271981Y-89340035D01*
X144287373Y-89334830D01*
X144289912Y-89332607D01*
X144293026Y-89331318D01*
X144304503Y-89319840D01*
X144316737Y-89309136D01*
X144318232Y-89306111D01*
X144320616Y-89303728D01*
X144326830Y-89288726D01*
X144334033Y-89274161D01*
X144334257Y-89270795D01*
X144335548Y-89267680D01*
X144335548Y-89251431D01*
X144336628Y-89235229D01*
X144335548Y-89232035D01*
X144335548Y-89228662D01*
X144329332Y-89213656D01*
X144324128Y-89198268D01*
X144321346Y-89194377D01*
X144320616Y-89192614D01*
X144318756Y-89190754D01*
X144312727Y-89182321D01*
X144124513Y-88967219D01*
X144523183Y-88967219D01*
X144542692Y-88965298D01*
X144578740Y-88950366D01*
X144606330Y-88922776D01*
X144621262Y-88886728D01*
X144621262Y-88847710D01*
X144606330Y-88811662D01*
X144578740Y-88784072D01*
X144542692Y-88769140D01*
X144523183Y-88767219D01*
X143904136Y-88767219D01*
X143893818Y-88768234D01*
X143891194Y-88768060D01*
X143889386Y-88768671D01*
X143884627Y-88769140D01*
X143869621Y-88775355D01*
X143854233Y-88780560D01*
X143851693Y-88782781D01*
X143848579Y-88784072D01*
X143837094Y-88795556D01*
X143824869Y-88806254D01*
X143823373Y-88809277D01*
X143820989Y-88811662D01*
X143814772Y-88826668D01*
X143807572Y-88841229D01*
X143807347Y-88844594D01*
X143806057Y-88847710D01*
X143806057Y-88863958D01*
X143804977Y-88880161D01*
X143806057Y-88883354D01*
X143806057Y-88886728D01*
X143812272Y-88901733D01*
X143817477Y-88917122D01*
X143820258Y-88921012D01*
X143820989Y-88922776D01*
X143822848Y-88924635D01*
X143828878Y-88933069D01*
X144033499Y-89166923D01*
X143954653Y-89206347D01*
X143946256Y-89211632D01*
X143943816Y-89212643D01*
X143941070Y-89214896D01*
X143938062Y-89216790D01*
X143936329Y-89218787D01*
X143928663Y-89225080D01*
X143881044Y-89272698D01*
X143874749Y-89280368D01*
X143872755Y-89282098D01*
X143870861Y-89285105D01*
X143868608Y-89287852D01*
X143867597Y-89290291D01*
X143862312Y-89298688D01*
X143814693Y-89393926D01*
X143807687Y-89412234D01*
X143807432Y-89415817D01*
X143806057Y-89419138D01*
X143804136Y-89438647D01*
X143693025Y-89438647D01*
X143693025Y-88609274D01*
X145638271Y-88609274D01*
X145638271Y-90078330D01*
G37*
G36*
X180327945Y-95017219D02*
G01*
X180206076Y-95017219D01*
X180101011Y-94982197D01*
X180033941Y-94915127D01*
X179998487Y-94844218D01*
X179956517Y-94676337D01*
X179956517Y-94558100D01*
X179998487Y-94390218D01*
X180033940Y-94319312D01*
X180101012Y-94252240D01*
X180206076Y-94217219D01*
X180327945Y-94217219D01*
X180327945Y-95017219D01*
G37*
G36*
X179336822Y-94731504D02*
G01*
X179138117Y-94731504D01*
X179237469Y-94433446D01*
X179336822Y-94731504D01*
G37*
G36*
X181639056Y-95328330D02*
G01*
X178693810Y-95328330D01*
X178693810Y-95104712D01*
X178804921Y-95104712D01*
X178807687Y-95143632D01*
X178825137Y-95178531D01*
X178854613Y-95204096D01*
X178891629Y-95216434D01*
X178930549Y-95213668D01*
X178965448Y-95196218D01*
X178991013Y-95166742D01*
X178999004Y-95148842D01*
X179071450Y-94931504D01*
X179403488Y-94931504D01*
X179475934Y-95148841D01*
X179483925Y-95166742D01*
X179509490Y-95196218D01*
X179544389Y-95213667D01*
X179583309Y-95216434D01*
X179620325Y-95204095D01*
X179649801Y-95178530D01*
X179667251Y-95143631D01*
X179670017Y-95104711D01*
X179665670Y-95085596D01*
X179485735Y-94545790D01*
X179756517Y-94545790D01*
X179756517Y-94688647D01*
X179756852Y-94692049D01*
X179756635Y-94693508D01*
X179757714Y-94700805D01*
X179758438Y-94708156D01*
X179759002Y-94709519D01*
X179759503Y-94712901D01*
X179807122Y-94903376D01*
X179807635Y-94904813D01*
X179807687Y-94905536D01*
X179810795Y-94913660D01*
X179813717Y-94921837D01*
X179814147Y-94922417D01*
X179814693Y-94923844D01*
X179862312Y-95019082D01*
X179867594Y-95027474D01*
X179868607Y-95029918D01*
X179870863Y-95032667D01*
X179872755Y-95035672D01*
X179874749Y-95037401D01*
X179881044Y-95045071D01*
X179976282Y-95140311D01*
X179991435Y-95152747D01*
X179994754Y-95154122D01*
X179997470Y-95156477D01*
X180015370Y-95164468D01*
X180158227Y-95212087D01*
X180167899Y-95214286D01*
X180170341Y-95215298D01*
X180173878Y-95215646D01*
X180177342Y-95216434D01*
X180179976Y-95216246D01*
X180189850Y-95217219D01*
X180427945Y-95217219D01*
X180447454Y-95215298D01*
X180483502Y-95200366D01*
X180511092Y-95172776D01*
X180526024Y-95136728D01*
X180527945Y-95117219D01*
X180527945Y-94831504D01*
X180756517Y-94831504D01*
X180756517Y-94926742D01*
X180758438Y-94946251D01*
X180759813Y-94949571D01*
X180760068Y-94953155D01*
X180767074Y-94971463D01*
X180814693Y-95066701D01*
X180819976Y-95075093D01*
X180820988Y-95077537D01*
X180823244Y-95080286D01*
X180825136Y-95083291D01*
X180827130Y-95085020D01*
X180833425Y-95092690D01*
X180881043Y-95140310D01*
X180888711Y-95146603D01*
X180890443Y-95148600D01*
X180893451Y-95150493D01*
X180896197Y-95152747D01*
X180898637Y-95153757D01*
X180907034Y-95159043D01*
X181002271Y-95206662D01*
X181020580Y-95213668D01*
X181024163Y-95213922D01*
X181027484Y-95215298D01*
X181046993Y-95217219D01*
X181285088Y-95217219D01*
X181294961Y-95216246D01*
X181297595Y-95216434D01*
X181301058Y-95215646D01*
X181304597Y-95215298D01*
X181307039Y-95214286D01*
X181316711Y-95212087D01*
X181459567Y-95164468D01*
X181477468Y-95156477D01*
X181506944Y-95130912D01*
X181524393Y-95096013D01*
X181527160Y-95057093D01*
X181514821Y-95020077D01*
X181489256Y-94990601D01*
X181454357Y-94973151D01*
X181415437Y-94970385D01*
X181396322Y-94974732D01*
X181268861Y-95017219D01*
X181070600Y-95017219D01*
X181010990Y-94987414D01*
X180986323Y-94962746D01*
X180956517Y-94903134D01*
X180956517Y-94855111D01*
X180986322Y-94795501D01*
X181010990Y-94770832D01*
X181081897Y-94735379D01*
X181261722Y-94690423D01*
X181263159Y-94689909D01*
X181263882Y-94689858D01*
X181272006Y-94686749D01*
X181280183Y-94683828D01*
X181280763Y-94683397D01*
X181282190Y-94682852D01*
X181377428Y-94635233D01*
X181385824Y-94629947D01*
X181388264Y-94628937D01*
X181391010Y-94626683D01*
X181394018Y-94624790D01*
X181395747Y-94622795D01*
X181403418Y-94616501D01*
X181451036Y-94568882D01*
X181457328Y-94561215D01*
X181459326Y-94559483D01*
X181461219Y-94556474D01*
X181463473Y-94553729D01*
X181464483Y-94551288D01*
X181469769Y-94542892D01*
X181517388Y-94447655D01*
X181524394Y-94429346D01*
X181524648Y-94425762D01*
X181526024Y-94422442D01*
X181527945Y-94402933D01*
X181527945Y-94307695D01*
X181526024Y-94288186D01*
X181524648Y-94284865D01*
X181524394Y-94281282D01*
X181517388Y-94262973D01*
X181469769Y-94167736D01*
X181464483Y-94159339D01*
X181463473Y-94156899D01*
X181461219Y-94154153D01*
X181459326Y-94151145D01*
X181457328Y-94149412D01*
X181451036Y-94141746D01*
X181403418Y-94094127D01*
X181395747Y-94087832D01*
X181394018Y-94085838D01*
X181391010Y-94083944D01*
X181388264Y-94081691D01*
X181385824Y-94080680D01*
X181377428Y-94075395D01*
X181282190Y-94027776D01*
X181263882Y-94020770D01*
X181260298Y-94020515D01*
X181256978Y-94019140D01*
X181237469Y-94017219D01*
X180999374Y-94017219D01*
X180989500Y-94018191D01*
X180986866Y-94018004D01*
X180983402Y-94018791D01*
X180979865Y-94019140D01*
X180977423Y-94020151D01*
X180967751Y-94022351D01*
X180824894Y-94069970D01*
X180806994Y-94077961D01*
X180777518Y-94103526D01*
X180760068Y-94138425D01*
X180757302Y-94177345D01*
X180769640Y-94214361D01*
X180795205Y-94243837D01*
X180830104Y-94261287D01*
X180869024Y-94264053D01*
X180888140Y-94259706D01*
X181015600Y-94217219D01*
X181213862Y-94217219D01*
X181273471Y-94247024D01*
X181298140Y-94271692D01*
X181327945Y-94331302D01*
X181327945Y-94379326D01*
X181298140Y-94438935D01*
X181273471Y-94463603D01*
X181202564Y-94499057D01*
X181022739Y-94544014D01*
X181021300Y-94544527D01*
X181020580Y-94544579D01*
X181012455Y-94547687D01*
X181004279Y-94550609D01*
X181003699Y-94551038D01*
X181002271Y-94551585D01*
X180907034Y-94599204D01*
X180898637Y-94604489D01*
X180896197Y-94605500D01*
X180893451Y-94607753D01*
X180890443Y-94609647D01*
X180888710Y-94611644D01*
X180881044Y-94617937D01*
X180833425Y-94665555D01*
X180827130Y-94673225D01*
X180825136Y-94674955D01*
X180823242Y-94677962D01*
X180820989Y-94680709D01*
X180819978Y-94683148D01*
X180814693Y-94691545D01*
X180767074Y-94786783D01*
X180760068Y-94805091D01*
X180759813Y-94808674D01*
X180758438Y-94811995D01*
X180756517Y-94831504D01*
X180527945Y-94831504D01*
X180527945Y-94117219D01*
X180526024Y-94097710D01*
X180511092Y-94061662D01*
X180483502Y-94034072D01*
X180447454Y-94019140D01*
X180427945Y-94017219D01*
X180189850Y-94017219D01*
X180179976Y-94018191D01*
X180177342Y-94018004D01*
X180173878Y-94018791D01*
X180170341Y-94019140D01*
X180167899Y-94020151D01*
X180158227Y-94022351D01*
X180015370Y-94069970D01*
X179997470Y-94077961D01*
X179994754Y-94080316D01*
X179991436Y-94081691D01*
X179976282Y-94094127D01*
X179881044Y-94189365D01*
X179874749Y-94197035D01*
X179872755Y-94198765D01*
X179870861Y-94201772D01*
X179868608Y-94204519D01*
X179867597Y-94206958D01*
X179862312Y-94215355D01*
X179814693Y-94310593D01*
X179814147Y-94312019D01*
X179813717Y-94312600D01*
X179810795Y-94320776D01*
X179807687Y-94328901D01*
X179807635Y-94329623D01*
X179807122Y-94331061D01*
X179759503Y-94521536D01*
X179759002Y-94524917D01*
X179758438Y-94526281D01*
X179757714Y-94533631D01*
X179756635Y-94540929D01*
X179756852Y-94542387D01*
X179756517Y-94545790D01*
X179485735Y-94545790D01*
X179332337Y-94085596D01*
X179324346Y-94067696D01*
X179319661Y-94062294D01*
X179316468Y-94055908D01*
X179306999Y-94047695D01*
X179298781Y-94038220D01*
X179292389Y-94035023D01*
X179286992Y-94030343D01*
X179275098Y-94026378D01*
X179263882Y-94020770D01*
X179256754Y-94020263D01*
X179249976Y-94018004D01*
X179237471Y-94018893D01*
X179224962Y-94018004D01*
X179218180Y-94020264D01*
X179211056Y-94020771D01*
X179199847Y-94026374D01*
X179187946Y-94030342D01*
X179182545Y-94035025D01*
X179176157Y-94038220D01*
X179167941Y-94047691D01*
X179158470Y-94055907D01*
X179155275Y-94062296D01*
X179150592Y-94067696D01*
X179142601Y-94085597D01*
X178809268Y-95085596D01*
X178804921Y-95104712D01*
X178693810Y-95104712D01*
X178693810Y-93906108D01*
X181639056Y-93906108D01*
X181639056Y-95328330D01*
G37*
G36*
X172684754Y-80078330D02*
G01*
X170647327Y-80078330D01*
X170647327Y-79514376D01*
X170758438Y-79514376D01*
X170758438Y-79553394D01*
X170773370Y-79589442D01*
X170800960Y-79617032D01*
X170837008Y-79631964D01*
X170856517Y-79633885D01*
X170899374Y-79633885D01*
X170899374Y-79867219D01*
X170901295Y-79886728D01*
X170916227Y-79922776D01*
X170943817Y-79950366D01*
X170979865Y-79965298D01*
X171018883Y-79965298D01*
X171054931Y-79950366D01*
X171082521Y-79922776D01*
X171097453Y-79886728D01*
X171099374Y-79867219D01*
X171099374Y-79633885D01*
X171475564Y-79633885D01*
X171485437Y-79632912D01*
X171488071Y-79633100D01*
X171489972Y-79632466D01*
X171495073Y-79631964D01*
X171509885Y-79625828D01*
X171525087Y-79620761D01*
X171527800Y-79618407D01*
X171531121Y-79617032D01*
X171542459Y-79605693D01*
X171554563Y-79595196D01*
X171556169Y-79591983D01*
X171558711Y-79589442D01*
X171564847Y-79574627D01*
X171572013Y-79560297D01*
X171572267Y-79556714D01*
X171573643Y-79553394D01*
X171573643Y-79537361D01*
X171574779Y-79521377D01*
X171573643Y-79516381D01*
X171573643Y-79514376D01*
X171572631Y-79511934D01*
X171570432Y-79502262D01*
X171422243Y-79057695D01*
X171756517Y-79057695D01*
X171756517Y-79152933D01*
X171757489Y-79162806D01*
X171757302Y-79165440D01*
X171758089Y-79168903D01*
X171758438Y-79172442D01*
X171759449Y-79174884D01*
X171761649Y-79184556D01*
X171809268Y-79327412D01*
X171817259Y-79345313D01*
X171819614Y-79348028D01*
X171820989Y-79351347D01*
X171833425Y-79366501D01*
X172234142Y-79767219D01*
X171856517Y-79767219D01*
X171837008Y-79769140D01*
X171800960Y-79784072D01*
X171773370Y-79811662D01*
X171758438Y-79847710D01*
X171758438Y-79886728D01*
X171773370Y-79922776D01*
X171800960Y-79950366D01*
X171837008Y-79965298D01*
X171856517Y-79967219D01*
X172475564Y-79967219D01*
X172495073Y-79965298D01*
X172531121Y-79950366D01*
X172558711Y-79922776D01*
X172573643Y-79886728D01*
X172573643Y-79847710D01*
X172558711Y-79811662D01*
X172546275Y-79796508D01*
X171991538Y-79241770D01*
X171956517Y-79136706D01*
X171956517Y-79081302D01*
X171986322Y-79021692D01*
X172010990Y-78997023D01*
X172070600Y-78967219D01*
X172261481Y-78967219D01*
X172321090Y-78997024D01*
X172357234Y-79033167D01*
X172372387Y-79045604D01*
X172408436Y-79060535D01*
X172447454Y-79060535D01*
X172483502Y-79045604D01*
X172511092Y-79018014D01*
X172526023Y-78981966D01*
X172526023Y-78942948D01*
X172511092Y-78906899D01*
X172498655Y-78891746D01*
X172451037Y-78844127D01*
X172443366Y-78837832D01*
X172441637Y-78835838D01*
X172438629Y-78833944D01*
X172435883Y-78831691D01*
X172433443Y-78830680D01*
X172425047Y-78825395D01*
X172329809Y-78777776D01*
X172311501Y-78770770D01*
X172307917Y-78770515D01*
X172304597Y-78769140D01*
X172285088Y-78767219D01*
X172046993Y-78767219D01*
X172027484Y-78769140D01*
X172024163Y-78770515D01*
X172020580Y-78770770D01*
X172002271Y-78777776D01*
X171907034Y-78825395D01*
X171898637Y-78830680D01*
X171896197Y-78831691D01*
X171893451Y-78833944D01*
X171890443Y-78835838D01*
X171888710Y-78837835D01*
X171881044Y-78844128D01*
X171833425Y-78891746D01*
X171827130Y-78899416D01*
X171825136Y-78901146D01*
X171823242Y-78904153D01*
X171820989Y-78906900D01*
X171819978Y-78909339D01*
X171814693Y-78917736D01*
X171767074Y-79012974D01*
X171760068Y-79031282D01*
X171759813Y-79034865D01*
X171758438Y-79038186D01*
X171756517Y-79057695D01*
X171422243Y-79057695D01*
X171332337Y-78787977D01*
X171324346Y-78770077D01*
X171298781Y-78740601D01*
X171263882Y-78723151D01*
X171224962Y-78720385D01*
X171187946Y-78732723D01*
X171158470Y-78758288D01*
X171141020Y-78793187D01*
X171138254Y-78832107D01*
X171142601Y-78851223D01*
X171336822Y-79433885D01*
X171099374Y-79433885D01*
X171099374Y-79200552D01*
X171097453Y-79181043D01*
X171082521Y-79144995D01*
X171054931Y-79117405D01*
X171018883Y-79102473D01*
X170979865Y-79102473D01*
X170943817Y-79117405D01*
X170916227Y-79144995D01*
X170901295Y-79181043D01*
X170899374Y-79200552D01*
X170899374Y-79433885D01*
X170856517Y-79433885D01*
X170837008Y-79435806D01*
X170800960Y-79450738D01*
X170773370Y-79478328D01*
X170758438Y-79514376D01*
X170647327Y-79514376D01*
X170647327Y-78609274D01*
X172684754Y-78609274D01*
X172684754Y-80078330D01*
G37*
X180856517Y-91664838D02*
X180951755Y-91617219D01*
X180951755Y-91617219D02*
X181094612Y-91617219D01*
X181094612Y-91617219D02*
X181237469Y-91664838D01*
X181237469Y-91664838D02*
X181332707Y-91760076D01*
X181332707Y-91760076D02*
X181380326Y-91855314D01*
X181380326Y-91855314D02*
X181427945Y-92045790D01*
X181427945Y-92045790D02*
X181427945Y-92188647D01*
X181427945Y-92188647D02*
X181380326Y-92379123D01*
X181380326Y-92379123D02*
X181332707Y-92474361D01*
X181332707Y-92474361D02*
X181237469Y-92569600D01*
X181237469Y-92569600D02*
X181094612Y-92617219D01*
X181094612Y-92617219D02*
X180999374Y-92617219D01*
X180999374Y-92617219D02*
X180856517Y-92569600D01*
X180856517Y-92569600D02*
X180808898Y-92521980D01*
X180808898Y-92521980D02*
X180808898Y-92188647D01*
X180808898Y-92188647D02*
X180999374Y-92188647D01*
X180380326Y-92617219D02*
X180380326Y-91617219D01*
X180380326Y-91617219D02*
X179808898Y-92617219D01*
X179808898Y-92617219D02*
X179808898Y-91617219D01*
X179332707Y-92617219D02*
X179332707Y-91617219D01*
X179332707Y-91617219D02*
X179094612Y-91617219D01*
X179094612Y-91617219D02*
X178951755Y-91664838D01*
X178951755Y-91664838D02*
X178856517Y-91760076D01*
X178856517Y-91760076D02*
X178808898Y-91855314D01*
X178808898Y-91855314D02*
X178761279Y-92045790D01*
X178761279Y-92045790D02*
X178761279Y-92188647D01*
X178761279Y-92188647D02*
X178808898Y-92379123D01*
X178808898Y-92379123D02*
X178856517Y-92474361D01*
X178856517Y-92474361D02*
X178951755Y-92569600D01*
X178951755Y-92569600D02*
X179094612Y-92617219D01*
X179094612Y-92617219D02*
X179332707Y-92617219D01*
G36*
X179523471Y-89425595D02*
G01*
X179548140Y-89450263D01*
X179577945Y-89509873D01*
X179577945Y-89653135D01*
X179548140Y-89712743D01*
X179523471Y-89737413D01*
X179463862Y-89767219D01*
X179320600Y-89767219D01*
X179260990Y-89737414D01*
X179236323Y-89712746D01*
X179206517Y-89653134D01*
X179206517Y-89509873D01*
X179236322Y-89450263D01*
X179260990Y-89425594D01*
X179320600Y-89395790D01*
X179463862Y-89395790D01*
X179523471Y-89425595D01*
G37*
G36*
X179523471Y-88997024D02*
G01*
X179548140Y-89021692D01*
X179577945Y-89081302D01*
X179577945Y-89081707D01*
X179548140Y-89141316D01*
X179523471Y-89165984D01*
X179463862Y-89195790D01*
X179320600Y-89195790D01*
X179260990Y-89165985D01*
X179236322Y-89141316D01*
X179206517Y-89081706D01*
X179206517Y-89081302D01*
X179236322Y-89021692D01*
X179260990Y-88997023D01*
X179320600Y-88967219D01*
X179463862Y-88967219D01*
X179523471Y-88997024D01*
G37*
G36*
X179889056Y-90078330D02*
G01*
X178895406Y-90078330D01*
X178895406Y-89057695D01*
X179006517Y-89057695D01*
X179006517Y-89105314D01*
X179008438Y-89124823D01*
X179009813Y-89128143D01*
X179010068Y-89131727D01*
X179017074Y-89150035D01*
X179064693Y-89245273D01*
X179069978Y-89253669D01*
X179070989Y-89256109D01*
X179073242Y-89258855D01*
X179075136Y-89261863D01*
X179077130Y-89263592D01*
X179083425Y-89271263D01*
X179107952Y-89295790D01*
X179083425Y-89320317D01*
X179077130Y-89327987D01*
X179075136Y-89329717D01*
X179073242Y-89332724D01*
X179070989Y-89335471D01*
X179069978Y-89337910D01*
X179064693Y-89346307D01*
X179017074Y-89441545D01*
X179010068Y-89459853D01*
X179009813Y-89463436D01*
X179008438Y-89466757D01*
X179006517Y-89486266D01*
X179006517Y-89676742D01*
X179008438Y-89696251D01*
X179009813Y-89699571D01*
X179010068Y-89703155D01*
X179017074Y-89721463D01*
X179064693Y-89816701D01*
X179069976Y-89825093D01*
X179070988Y-89827537D01*
X179073244Y-89830286D01*
X179075136Y-89833291D01*
X179077130Y-89835020D01*
X179083425Y-89842690D01*
X179131043Y-89890310D01*
X179138711Y-89896603D01*
X179140443Y-89898600D01*
X179143451Y-89900493D01*
X179146197Y-89902747D01*
X179148637Y-89903757D01*
X179157034Y-89909043D01*
X179252271Y-89956662D01*
X179270580Y-89963668D01*
X179274163Y-89963922D01*
X179277484Y-89965298D01*
X179296993Y-89967219D01*
X179487469Y-89967219D01*
X179506978Y-89965298D01*
X179510298Y-89963922D01*
X179513882Y-89963668D01*
X179532190Y-89956662D01*
X179627428Y-89909043D01*
X179635823Y-89903758D01*
X179638265Y-89902747D01*
X179641012Y-89900491D01*
X179644018Y-89898600D01*
X179645748Y-89896605D01*
X179653418Y-89890310D01*
X179701037Y-89842690D01*
X179707329Y-89835023D01*
X179709326Y-89833292D01*
X179711219Y-89830284D01*
X179713474Y-89827537D01*
X179714485Y-89825095D01*
X179719769Y-89816701D01*
X179767388Y-89721464D01*
X179774394Y-89703155D01*
X179774648Y-89699571D01*
X179776024Y-89696251D01*
X179777945Y-89676742D01*
X179777945Y-89486266D01*
X179776024Y-89466757D01*
X179774648Y-89463436D01*
X179774394Y-89459853D01*
X179767388Y-89441544D01*
X179719769Y-89346307D01*
X179714483Y-89337910D01*
X179713473Y-89335470D01*
X179711219Y-89332724D01*
X179709326Y-89329716D01*
X179707328Y-89327983D01*
X179701036Y-89320317D01*
X179676509Y-89295790D01*
X179701036Y-89271263D01*
X179707328Y-89263596D01*
X179709326Y-89261864D01*
X179711219Y-89258855D01*
X179713473Y-89256110D01*
X179714483Y-89253669D01*
X179719769Y-89245273D01*
X179767388Y-89150036D01*
X179774394Y-89131727D01*
X179774648Y-89128143D01*
X179776024Y-89124823D01*
X179777945Y-89105314D01*
X179777945Y-89057695D01*
X179776024Y-89038186D01*
X179774648Y-89034865D01*
X179774394Y-89031282D01*
X179767388Y-89012973D01*
X179719769Y-88917736D01*
X179714483Y-88909339D01*
X179713473Y-88906899D01*
X179711219Y-88904153D01*
X179709326Y-88901145D01*
X179707328Y-88899412D01*
X179701036Y-88891746D01*
X179653418Y-88844127D01*
X179645747Y-88837832D01*
X179644018Y-88835838D01*
X179641010Y-88833944D01*
X179638264Y-88831691D01*
X179635824Y-88830680D01*
X179627428Y-88825395D01*
X179532190Y-88777776D01*
X179513882Y-88770770D01*
X179510298Y-88770515D01*
X179506978Y-88769140D01*
X179487469Y-88767219D01*
X179296993Y-88767219D01*
X179277484Y-88769140D01*
X179274163Y-88770515D01*
X179270580Y-88770770D01*
X179252271Y-88777776D01*
X179157034Y-88825395D01*
X179148637Y-88830680D01*
X179146197Y-88831691D01*
X179143451Y-88833944D01*
X179140443Y-88835838D01*
X179138710Y-88837835D01*
X179131044Y-88844128D01*
X179083425Y-88891746D01*
X179077130Y-88899416D01*
X179075136Y-88901146D01*
X179073242Y-88904153D01*
X179070989Y-88906900D01*
X179069978Y-88909339D01*
X179064693Y-88917736D01*
X179017074Y-89012974D01*
X179010068Y-89031282D01*
X179009813Y-89034865D01*
X179008438Y-89038186D01*
X179006517Y-89057695D01*
X178895406Y-89057695D01*
X178895406Y-88656108D01*
X179889056Y-88656108D01*
X179889056Y-90078330D01*
G37*
G36*
X180934754Y-82578330D02*
G01*
X178943025Y-82578330D01*
X178943025Y-81938647D01*
X179054136Y-81938647D01*
X179054136Y-82176742D01*
X179056057Y-82196251D01*
X179057432Y-82199571D01*
X179057687Y-82203155D01*
X179064693Y-82221463D01*
X179112312Y-82316701D01*
X179117595Y-82325093D01*
X179118607Y-82327537D01*
X179120863Y-82330286D01*
X179122755Y-82333291D01*
X179124749Y-82335020D01*
X179131044Y-82342690D01*
X179178662Y-82390310D01*
X179186330Y-82396603D01*
X179188062Y-82398600D01*
X179191070Y-82400493D01*
X179193816Y-82402747D01*
X179196256Y-82403757D01*
X179204653Y-82409043D01*
X179299890Y-82456662D01*
X179318199Y-82463668D01*
X179321782Y-82463922D01*
X179325103Y-82465298D01*
X179344612Y-82467219D01*
X179582707Y-82467219D01*
X179602216Y-82465298D01*
X179605536Y-82463922D01*
X179609120Y-82463668D01*
X179627428Y-82456662D01*
X179722666Y-82409043D01*
X179731061Y-82403758D01*
X179733503Y-82402747D01*
X179736250Y-82400491D01*
X179739256Y-82398600D01*
X179740986Y-82396605D01*
X179748656Y-82390310D01*
X179796275Y-82342690D01*
X179808712Y-82327537D01*
X179823643Y-82291488D01*
X179823642Y-82252470D01*
X179808711Y-82216422D01*
X179781120Y-82188832D01*
X179745072Y-82173901D01*
X179706054Y-82173902D01*
X179670006Y-82188833D01*
X179654852Y-82201270D01*
X179618709Y-82237413D01*
X179559100Y-82267219D01*
X179368219Y-82267219D01*
X179308609Y-82237414D01*
X179283942Y-82212746D01*
X179254136Y-82153134D01*
X179254136Y-81962254D01*
X179283941Y-81902644D01*
X179308609Y-81877975D01*
X179368219Y-81848171D01*
X179559100Y-81848171D01*
X179618709Y-81877976D01*
X179654853Y-81914119D01*
X179670006Y-81926556D01*
X179674660Y-81928483D01*
X179678556Y-81931671D01*
X179692549Y-81935893D01*
X179706055Y-81941487D01*
X179711089Y-81941487D01*
X179715911Y-81942942D01*
X179730462Y-81941487D01*
X179745073Y-81941487D01*
X179749722Y-81939561D01*
X179754735Y-81939060D01*
X179767618Y-81932148D01*
X179781121Y-81926556D01*
X179784681Y-81922995D01*
X179789119Y-81920615D01*
X179798374Y-81909302D01*
X179808711Y-81898966D01*
X179810638Y-81894313D01*
X179813826Y-81890417D01*
X179818048Y-81876422D01*
X179823642Y-81862918D01*
X179823642Y-81857884D01*
X179825097Y-81853062D01*
X179825068Y-81833459D01*
X179797492Y-81557695D01*
X180006517Y-81557695D01*
X180006517Y-81652933D01*
X180007489Y-81662806D01*
X180007302Y-81665440D01*
X180008089Y-81668903D01*
X180008438Y-81672442D01*
X180009449Y-81674884D01*
X180011649Y-81684556D01*
X180059268Y-81827412D01*
X180067259Y-81845313D01*
X180069614Y-81848028D01*
X180070989Y-81851347D01*
X180083425Y-81866501D01*
X180484142Y-82267219D01*
X180106517Y-82267219D01*
X180087008Y-82269140D01*
X180050960Y-82284072D01*
X180023370Y-82311662D01*
X180008438Y-82347710D01*
X180008438Y-82386728D01*
X180023370Y-82422776D01*
X180050960Y-82450366D01*
X180087008Y-82465298D01*
X180106517Y-82467219D01*
X180725564Y-82467219D01*
X180745073Y-82465298D01*
X180781121Y-82450366D01*
X180808711Y-82422776D01*
X180823643Y-82386728D01*
X180823643Y-82347710D01*
X180808711Y-82311662D01*
X180796275Y-82296508D01*
X180241538Y-81741770D01*
X180206517Y-81636706D01*
X180206517Y-81581302D01*
X180236322Y-81521692D01*
X180260990Y-81497023D01*
X180320600Y-81467219D01*
X180511481Y-81467219D01*
X180571090Y-81497024D01*
X180607234Y-81533167D01*
X180622387Y-81545604D01*
X180658436Y-81560535D01*
X180697454Y-81560535D01*
X180733502Y-81545604D01*
X180761092Y-81518014D01*
X180776023Y-81481966D01*
X180776023Y-81442948D01*
X180761092Y-81406899D01*
X180748655Y-81391746D01*
X180701037Y-81344127D01*
X180693366Y-81337832D01*
X180691637Y-81335838D01*
X180688629Y-81333944D01*
X180685883Y-81331691D01*
X180683443Y-81330680D01*
X180675047Y-81325395D01*
X180579809Y-81277776D01*
X180561501Y-81270770D01*
X180557917Y-81270515D01*
X180554597Y-81269140D01*
X180535088Y-81267219D01*
X180296993Y-81267219D01*
X180277484Y-81269140D01*
X180274163Y-81270515D01*
X180270580Y-81270770D01*
X180252271Y-81277776D01*
X180157034Y-81325395D01*
X180148637Y-81330680D01*
X180146197Y-81331691D01*
X180143451Y-81333944D01*
X180140443Y-81335838D01*
X180138710Y-81337835D01*
X180131044Y-81344128D01*
X180083425Y-81391746D01*
X180077130Y-81399416D01*
X180075136Y-81401146D01*
X180073242Y-81404153D01*
X180070989Y-81406900D01*
X180069978Y-81409339D01*
X180064693Y-81417736D01*
X180017074Y-81512974D01*
X180010068Y-81531282D01*
X180009813Y-81534865D01*
X180008438Y-81538186D01*
X180006517Y-81557695D01*
X179797492Y-81557695D01*
X179777449Y-81357269D01*
X179776024Y-81350160D01*
X179776024Y-81347710D01*
X179775072Y-81345412D01*
X179773596Y-81338048D01*
X179766686Y-81325167D01*
X179761092Y-81311662D01*
X179757531Y-81308101D01*
X179755151Y-81303664D01*
X179743838Y-81294408D01*
X179733502Y-81284072D01*
X179728849Y-81282144D01*
X179724953Y-81278957D01*
X179710963Y-81274736D01*
X179697454Y-81269140D01*
X179689976Y-81268403D01*
X179687598Y-81267686D01*
X179685161Y-81267929D01*
X179677945Y-81267219D01*
X179201755Y-81267219D01*
X179182246Y-81269140D01*
X179146198Y-81284072D01*
X179118608Y-81311662D01*
X179103676Y-81347710D01*
X179103676Y-81386728D01*
X179118608Y-81422776D01*
X179146198Y-81450366D01*
X179182246Y-81465298D01*
X179201755Y-81467219D01*
X179587446Y-81467219D01*
X179605873Y-81651491D01*
X179605536Y-81651467D01*
X179602216Y-81650092D01*
X179582707Y-81648171D01*
X179344612Y-81648171D01*
X179325103Y-81650092D01*
X179321782Y-81651467D01*
X179318199Y-81651722D01*
X179299890Y-81658728D01*
X179204653Y-81706347D01*
X179196256Y-81711632D01*
X179193816Y-81712643D01*
X179191070Y-81714896D01*
X179188062Y-81716790D01*
X179186329Y-81718787D01*
X179178663Y-81725080D01*
X179131044Y-81772698D01*
X179124749Y-81780368D01*
X179122755Y-81782098D01*
X179120861Y-81785105D01*
X179118608Y-81787852D01*
X179117597Y-81790291D01*
X179112312Y-81798688D01*
X179064693Y-81893926D01*
X179057687Y-81912234D01*
X179057432Y-81915817D01*
X179056057Y-81919138D01*
X179054136Y-81938647D01*
X178943025Y-81938647D01*
X178943025Y-81156108D01*
X180934754Y-81156108D01*
X180934754Y-82578330D01*
G37*
G36*
X145638271Y-87578330D02*
G01*
X143694946Y-87578330D01*
X143694946Y-87347710D01*
X143806057Y-87347710D01*
X143806057Y-87386728D01*
X143820989Y-87422776D01*
X143848579Y-87450366D01*
X143884627Y-87465298D01*
X143904136Y-87467219D01*
X144475564Y-87467219D01*
X144495073Y-87465298D01*
X144531121Y-87450366D01*
X144558711Y-87422776D01*
X144573643Y-87386728D01*
X144573643Y-87347710D01*
X144558711Y-87311662D01*
X144531121Y-87284072D01*
X144495073Y-87269140D01*
X144475564Y-87267219D01*
X144289850Y-87267219D01*
X144289850Y-87014376D01*
X144710819Y-87014376D01*
X144710819Y-87053394D01*
X144725751Y-87089442D01*
X144753341Y-87117032D01*
X144789389Y-87131964D01*
X144808898Y-87133885D01*
X144851755Y-87133885D01*
X144851755Y-87367219D01*
X144853676Y-87386728D01*
X144868608Y-87422776D01*
X144896198Y-87450366D01*
X144932246Y-87465298D01*
X144971264Y-87465298D01*
X145007312Y-87450366D01*
X145034902Y-87422776D01*
X145049834Y-87386728D01*
X145051755Y-87367219D01*
X145051755Y-87133885D01*
X145427945Y-87133885D01*
X145437818Y-87132912D01*
X145440452Y-87133100D01*
X145442353Y-87132466D01*
X145447454Y-87131964D01*
X145462266Y-87125828D01*
X145477468Y-87120761D01*
X145480181Y-87118407D01*
X145483502Y-87117032D01*
X145494840Y-87105693D01*
X145506944Y-87095196D01*
X145508550Y-87091983D01*
X145511092Y-87089442D01*
X145517228Y-87074627D01*
X145524394Y-87060297D01*
X145524648Y-87056714D01*
X145526024Y-87053394D01*
X145526024Y-87037361D01*
X145527160Y-87021377D01*
X145526024Y-87016381D01*
X145526024Y-87014376D01*
X145525012Y-87011934D01*
X145522813Y-87002262D01*
X145284718Y-86287977D01*
X145276727Y-86270077D01*
X145251162Y-86240601D01*
X145216263Y-86223151D01*
X145177343Y-86220385D01*
X145140327Y-86232723D01*
X145110851Y-86258288D01*
X145093401Y-86293187D01*
X145090635Y-86332107D01*
X145094982Y-86351223D01*
X145289203Y-86933885D01*
X145051755Y-86933885D01*
X145051755Y-86700552D01*
X145049834Y-86681043D01*
X145034902Y-86644995D01*
X145007312Y-86617405D01*
X144971264Y-86602473D01*
X144932246Y-86602473D01*
X144896198Y-86617405D01*
X144868608Y-86644995D01*
X144853676Y-86681043D01*
X144851755Y-86700552D01*
X144851755Y-86933885D01*
X144808898Y-86933885D01*
X144789389Y-86935806D01*
X144753341Y-86950738D01*
X144725751Y-86978328D01*
X144710819Y-87014376D01*
X144289850Y-87014376D01*
X144289850Y-86656260D01*
X144309615Y-86676025D01*
X144317281Y-86682316D01*
X144319014Y-86684314D01*
X144322025Y-86686209D01*
X144324769Y-86688461D01*
X144327206Y-86689470D01*
X144335605Y-86694757D01*
X144430842Y-86742376D01*
X144449151Y-86749382D01*
X144488071Y-86752148D01*
X144525087Y-86739809D01*
X144554564Y-86714244D01*
X144572013Y-86679346D01*
X144574778Y-86640426D01*
X144562440Y-86603410D01*
X144536875Y-86573933D01*
X144520285Y-86563490D01*
X144439563Y-86523129D01*
X144362799Y-86446365D01*
X144273055Y-86311749D01*
X144273010Y-86311694D01*
X144272997Y-86311662D01*
X144272923Y-86311588D01*
X144260635Y-86296582D01*
X144252406Y-86291071D01*
X144245407Y-86284072D01*
X144236355Y-86280322D01*
X144228215Y-86274871D01*
X144218507Y-86272929D01*
X144209359Y-86269140D01*
X144199560Y-86269140D01*
X144189955Y-86267219D01*
X144180244Y-86269140D01*
X144170341Y-86269140D01*
X144161288Y-86272889D01*
X144151678Y-86274791D01*
X144143439Y-86280283D01*
X144134293Y-86284072D01*
X144127366Y-86290998D01*
X144119213Y-86296434D01*
X144113702Y-86304662D01*
X144106703Y-86311662D01*
X144102953Y-86320713D01*
X144097502Y-86328854D01*
X144095560Y-86338561D01*
X144091771Y-86347710D01*
X144089870Y-86367012D01*
X144089850Y-86367114D01*
X144089856Y-86367148D01*
X144089850Y-86367219D01*
X144089850Y-87267219D01*
X143904136Y-87267219D01*
X143884627Y-87269140D01*
X143848579Y-87284072D01*
X143820989Y-87311662D01*
X143806057Y-87347710D01*
X143694946Y-87347710D01*
X143694946Y-86109274D01*
X145638271Y-86109274D01*
X145638271Y-87578330D01*
G37*
G36*
X144321090Y-91877976D02*
G01*
X144345759Y-91902644D01*
X144375564Y-91962254D01*
X144375564Y-92153135D01*
X144345759Y-92212743D01*
X144321090Y-92237413D01*
X144261481Y-92267219D01*
X144118219Y-92267219D01*
X144058609Y-92237414D01*
X144033942Y-92212746D01*
X144004136Y-92153134D01*
X144004136Y-91962254D01*
X144033941Y-91902644D01*
X144058609Y-91877975D01*
X144118219Y-91848171D01*
X144261481Y-91848171D01*
X144321090Y-91877976D01*
G37*
G36*
X145638271Y-92578330D02*
G01*
X143693025Y-92578330D01*
X143693025Y-91938647D01*
X143804136Y-91938647D01*
X143804136Y-92176742D01*
X143806057Y-92196251D01*
X143807432Y-92199571D01*
X143807687Y-92203155D01*
X143814693Y-92221463D01*
X143862312Y-92316701D01*
X143867595Y-92325093D01*
X143868607Y-92327537D01*
X143870863Y-92330286D01*
X143872755Y-92333291D01*
X143874749Y-92335020D01*
X143881044Y-92342690D01*
X143928662Y-92390310D01*
X143936330Y-92396603D01*
X143938062Y-92398600D01*
X143941070Y-92400493D01*
X143943816Y-92402747D01*
X143946256Y-92403757D01*
X143954653Y-92409043D01*
X144049890Y-92456662D01*
X144068199Y-92463668D01*
X144071782Y-92463922D01*
X144075103Y-92465298D01*
X144094612Y-92467219D01*
X144285088Y-92467219D01*
X144304597Y-92465298D01*
X144307917Y-92463922D01*
X144311501Y-92463668D01*
X144329809Y-92456662D01*
X144425047Y-92409043D01*
X144433442Y-92403758D01*
X144435884Y-92402747D01*
X144438631Y-92400491D01*
X144441637Y-92398600D01*
X144443367Y-92396605D01*
X144451037Y-92390310D01*
X144498656Y-92342690D01*
X144504948Y-92335023D01*
X144506945Y-92333292D01*
X144508838Y-92330284D01*
X144511093Y-92327537D01*
X144512104Y-92325095D01*
X144517388Y-92316701D01*
X144565007Y-92221464D01*
X144572013Y-92203155D01*
X144572267Y-92199571D01*
X144573643Y-92196251D01*
X144575564Y-92176742D01*
X144575564Y-92014376D01*
X144710819Y-92014376D01*
X144710819Y-92053394D01*
X144725751Y-92089442D01*
X144753341Y-92117032D01*
X144789389Y-92131964D01*
X144808898Y-92133885D01*
X144851755Y-92133885D01*
X144851755Y-92367219D01*
X144853676Y-92386728D01*
X144868608Y-92422776D01*
X144896198Y-92450366D01*
X144932246Y-92465298D01*
X144971264Y-92465298D01*
X145007312Y-92450366D01*
X145034902Y-92422776D01*
X145049834Y-92386728D01*
X145051755Y-92367219D01*
X145051755Y-92133885D01*
X145427945Y-92133885D01*
X145437818Y-92132912D01*
X145440452Y-92133100D01*
X145442353Y-92132466D01*
X145447454Y-92131964D01*
X145462266Y-92125828D01*
X145477468Y-92120761D01*
X145480181Y-92118407D01*
X145483502Y-92117032D01*
X145494840Y-92105693D01*
X145506944Y-92095196D01*
X145508550Y-92091983D01*
X145511092Y-92089442D01*
X145517228Y-92074627D01*
X145524394Y-92060297D01*
X145524648Y-92056714D01*
X145526024Y-92053394D01*
X145526024Y-92037361D01*
X145527160Y-92021377D01*
X145526024Y-92016381D01*
X145526024Y-92014376D01*
X145525012Y-92011934D01*
X145522813Y-92002262D01*
X145284718Y-91287977D01*
X145276727Y-91270077D01*
X145251162Y-91240601D01*
X145216263Y-91223151D01*
X145177343Y-91220385D01*
X145140327Y-91232723D01*
X145110851Y-91258288D01*
X145093401Y-91293187D01*
X145090635Y-91332107D01*
X145094982Y-91351223D01*
X145289203Y-91933885D01*
X145051755Y-91933885D01*
X145051755Y-91700552D01*
X145049834Y-91681043D01*
X145034902Y-91644995D01*
X145007312Y-91617405D01*
X144971264Y-91602473D01*
X144932246Y-91602473D01*
X144896198Y-91617405D01*
X144868608Y-91644995D01*
X144853676Y-91681043D01*
X144851755Y-91700552D01*
X144851755Y-91933885D01*
X144808898Y-91933885D01*
X144789389Y-91935806D01*
X144753341Y-91950738D01*
X144725751Y-91978328D01*
X144710819Y-92014376D01*
X144575564Y-92014376D01*
X144575564Y-91795790D01*
X144575228Y-91792387D01*
X144575446Y-91790929D01*
X144574366Y-91783631D01*
X144573643Y-91776281D01*
X144573078Y-91774917D01*
X144572578Y-91771536D01*
X144524959Y-91581060D01*
X144520852Y-91569565D01*
X144520373Y-91567142D01*
X144519202Y-91564945D01*
X144518364Y-91562600D01*
X144516892Y-91560613D01*
X144511150Y-91549844D01*
X144415912Y-91406987D01*
X144415868Y-91406933D01*
X144415854Y-91406899D01*
X144409709Y-91399413D01*
X144403492Y-91391820D01*
X144403460Y-91391798D01*
X144403417Y-91391746D01*
X144355799Y-91344127D01*
X144348128Y-91337832D01*
X144346399Y-91335838D01*
X144343391Y-91333944D01*
X144340645Y-91331691D01*
X144338205Y-91330680D01*
X144329809Y-91325395D01*
X144234571Y-91277776D01*
X144216263Y-91270770D01*
X144212679Y-91270515D01*
X144209359Y-91269140D01*
X144189850Y-91267219D01*
X143999374Y-91267219D01*
X143979865Y-91269140D01*
X143943817Y-91284072D01*
X143916227Y-91311662D01*
X143901295Y-91347710D01*
X143901295Y-91386728D01*
X143916227Y-91422776D01*
X143943817Y-91450366D01*
X143979865Y-91465298D01*
X143999374Y-91467219D01*
X144166243Y-91467219D01*
X144225852Y-91497024D01*
X144254994Y-91526165D01*
X144335132Y-91646372D01*
X144339422Y-91663534D01*
X144329809Y-91658728D01*
X144311501Y-91651722D01*
X144307917Y-91651467D01*
X144304597Y-91650092D01*
X144285088Y-91648171D01*
X144094612Y-91648171D01*
X144075103Y-91650092D01*
X144071782Y-91651467D01*
X144068199Y-91651722D01*
X144049890Y-91658728D01*
X143954653Y-91706347D01*
X143946256Y-91711632D01*
X143943816Y-91712643D01*
X143941070Y-91714896D01*
X143938062Y-91716790D01*
X143936329Y-91718787D01*
X143928663Y-91725080D01*
X143881044Y-91772698D01*
X143874749Y-91780368D01*
X143872755Y-91782098D01*
X143870861Y-91785105D01*
X143868608Y-91787852D01*
X143867597Y-91790291D01*
X143862312Y-91798688D01*
X143814693Y-91893926D01*
X143807687Y-91912234D01*
X143807432Y-91915817D01*
X143806057Y-91919138D01*
X143804136Y-91938647D01*
X143693025Y-91938647D01*
X143693025Y-91109274D01*
X145638271Y-91109274D01*
X145638271Y-92578330D01*
G37*
G36*
X137388271Y-92578330D02*
G01*
X135443025Y-92578330D01*
X135443025Y-91938647D01*
X135554136Y-91938647D01*
X135554136Y-92176742D01*
X135556057Y-92196251D01*
X135557432Y-92199571D01*
X135557687Y-92203155D01*
X135564693Y-92221463D01*
X135612312Y-92316701D01*
X135617595Y-92325093D01*
X135618607Y-92327537D01*
X135620863Y-92330286D01*
X135622755Y-92333291D01*
X135624749Y-92335020D01*
X135631044Y-92342690D01*
X135678662Y-92390310D01*
X135686330Y-92396603D01*
X135688062Y-92398600D01*
X135691070Y-92400493D01*
X135693816Y-92402747D01*
X135696256Y-92403757D01*
X135704653Y-92409043D01*
X135799890Y-92456662D01*
X135818199Y-92463668D01*
X135821782Y-92463922D01*
X135825103Y-92465298D01*
X135844612Y-92467219D01*
X136082707Y-92467219D01*
X136102216Y-92465298D01*
X136105536Y-92463922D01*
X136109120Y-92463668D01*
X136127428Y-92456662D01*
X136222666Y-92409043D01*
X136231061Y-92403758D01*
X136233503Y-92402747D01*
X136236250Y-92400491D01*
X136239256Y-92398600D01*
X136240986Y-92396605D01*
X136248656Y-92390310D01*
X136296275Y-92342690D01*
X136308712Y-92327537D01*
X136323643Y-92291488D01*
X136323642Y-92252470D01*
X136308711Y-92216422D01*
X136281120Y-92188832D01*
X136245072Y-92173901D01*
X136206054Y-92173902D01*
X136170006Y-92188833D01*
X136154852Y-92201270D01*
X136118709Y-92237413D01*
X136059100Y-92267219D01*
X135868219Y-92267219D01*
X135808609Y-92237414D01*
X135783942Y-92212746D01*
X135754136Y-92153134D01*
X135754136Y-92014376D01*
X136460819Y-92014376D01*
X136460819Y-92053394D01*
X136475751Y-92089442D01*
X136503341Y-92117032D01*
X136539389Y-92131964D01*
X136558898Y-92133885D01*
X136601755Y-92133885D01*
X136601755Y-92367219D01*
X136603676Y-92386728D01*
X136618608Y-92422776D01*
X136646198Y-92450366D01*
X136682246Y-92465298D01*
X136721264Y-92465298D01*
X136757312Y-92450366D01*
X136784902Y-92422776D01*
X136799834Y-92386728D01*
X136801755Y-92367219D01*
X136801755Y-92133885D01*
X137177945Y-92133885D01*
X137187818Y-92132912D01*
X137190452Y-92133100D01*
X137192353Y-92132466D01*
X137197454Y-92131964D01*
X137212266Y-92125828D01*
X137227468Y-92120761D01*
X137230181Y-92118407D01*
X137233502Y-92117032D01*
X137244840Y-92105693D01*
X137256944Y-92095196D01*
X137258550Y-92091983D01*
X137261092Y-92089442D01*
X137267228Y-92074627D01*
X137274394Y-92060297D01*
X137274648Y-92056714D01*
X137276024Y-92053394D01*
X137276024Y-92037361D01*
X137277160Y-92021377D01*
X137276024Y-92016381D01*
X137276024Y-92014376D01*
X137275012Y-92011934D01*
X137272813Y-92002262D01*
X137034718Y-91287977D01*
X137026727Y-91270077D01*
X137001162Y-91240601D01*
X136966263Y-91223151D01*
X136927343Y-91220385D01*
X136890327Y-91232723D01*
X136860851Y-91258288D01*
X136843401Y-91293187D01*
X136840635Y-91332107D01*
X136844982Y-91351223D01*
X137039203Y-91933885D01*
X136801755Y-91933885D01*
X136801755Y-91700552D01*
X136799834Y-91681043D01*
X136784902Y-91644995D01*
X136757312Y-91617405D01*
X136721264Y-91602473D01*
X136682246Y-91602473D01*
X136646198Y-91617405D01*
X136618608Y-91644995D01*
X136603676Y-91681043D01*
X136601755Y-91700552D01*
X136601755Y-91933885D01*
X136558898Y-91933885D01*
X136539389Y-91935806D01*
X136503341Y-91950738D01*
X136475751Y-91978328D01*
X136460819Y-92014376D01*
X135754136Y-92014376D01*
X135754136Y-91962254D01*
X135783941Y-91902644D01*
X135808609Y-91877975D01*
X135868219Y-91848171D01*
X136059100Y-91848171D01*
X136118709Y-91877976D01*
X136154853Y-91914119D01*
X136170006Y-91926556D01*
X136174660Y-91928483D01*
X136178556Y-91931671D01*
X136192549Y-91935893D01*
X136206055Y-91941487D01*
X136211089Y-91941487D01*
X136215911Y-91942942D01*
X136230462Y-91941487D01*
X136245073Y-91941487D01*
X136249722Y-91939561D01*
X136254735Y-91939060D01*
X136267618Y-91932148D01*
X136281121Y-91926556D01*
X136284681Y-91922995D01*
X136289119Y-91920615D01*
X136298374Y-91909302D01*
X136308711Y-91898966D01*
X136310638Y-91894313D01*
X136313826Y-91890417D01*
X136318048Y-91876422D01*
X136323642Y-91862918D01*
X136323642Y-91857884D01*
X136325097Y-91853062D01*
X136325068Y-91833459D01*
X136277449Y-91357269D01*
X136276024Y-91350160D01*
X136276024Y-91347710D01*
X136275072Y-91345412D01*
X136273596Y-91338048D01*
X136266686Y-91325167D01*
X136261092Y-91311662D01*
X136257531Y-91308101D01*
X136255151Y-91303664D01*
X136243838Y-91294408D01*
X136233502Y-91284072D01*
X136228849Y-91282144D01*
X136224953Y-91278957D01*
X136210963Y-91274736D01*
X136197454Y-91269140D01*
X136189976Y-91268403D01*
X136187598Y-91267686D01*
X136185161Y-91267929D01*
X136177945Y-91267219D01*
X135701755Y-91267219D01*
X135682246Y-91269140D01*
X135646198Y-91284072D01*
X135618608Y-91311662D01*
X135603676Y-91347710D01*
X135603676Y-91386728D01*
X135618608Y-91422776D01*
X135646198Y-91450366D01*
X135682246Y-91465298D01*
X135701755Y-91467219D01*
X136087446Y-91467219D01*
X136105873Y-91651491D01*
X136105536Y-91651467D01*
X136102216Y-91650092D01*
X136082707Y-91648171D01*
X135844612Y-91648171D01*
X135825103Y-91650092D01*
X135821782Y-91651467D01*
X135818199Y-91651722D01*
X135799890Y-91658728D01*
X135704653Y-91706347D01*
X135696256Y-91711632D01*
X135693816Y-91712643D01*
X135691070Y-91714896D01*
X135688062Y-91716790D01*
X135686329Y-91718787D01*
X135678663Y-91725080D01*
X135631044Y-91772698D01*
X135624749Y-91780368D01*
X135622755Y-91782098D01*
X135620861Y-91785105D01*
X135618608Y-91787852D01*
X135617597Y-91790291D01*
X135612312Y-91798688D01*
X135564693Y-91893926D01*
X135557687Y-91912234D01*
X135557432Y-91915817D01*
X135556057Y-91919138D01*
X135554136Y-91938647D01*
X135443025Y-91938647D01*
X135443025Y-91109274D01*
X137388271Y-91109274D01*
X137388271Y-92578330D01*
G37*
X181475564Y-76367219D02*
X180856517Y-76367219D01*
X180856517Y-76367219D02*
X181189850Y-76748171D01*
X181189850Y-76748171D02*
X181046993Y-76748171D01*
X181046993Y-76748171D02*
X180951755Y-76795790D01*
X180951755Y-76795790D02*
X180904136Y-76843409D01*
X180904136Y-76843409D02*
X180856517Y-76938647D01*
X180856517Y-76938647D02*
X180856517Y-77176742D01*
X180856517Y-77176742D02*
X180904136Y-77271980D01*
X180904136Y-77271980D02*
X180951755Y-77319600D01*
X180951755Y-77319600D02*
X181046993Y-77367219D01*
X181046993Y-77367219D02*
X181332707Y-77367219D01*
X181332707Y-77367219D02*
X181427945Y-77319600D01*
X181427945Y-77319600D02*
X181475564Y-77271980D01*
X180570802Y-76367219D02*
X180237469Y-77367219D01*
X180237469Y-77367219D02*
X179904136Y-76367219D01*
X179666040Y-76367219D02*
X179046993Y-76367219D01*
X179046993Y-76367219D02*
X179380326Y-76748171D01*
X179380326Y-76748171D02*
X179237469Y-76748171D01*
X179237469Y-76748171D02*
X179142231Y-76795790D01*
X179142231Y-76795790D02*
X179094612Y-76843409D01*
X179094612Y-76843409D02*
X179046993Y-76938647D01*
X179046993Y-76938647D02*
X179046993Y-77176742D01*
X179046993Y-77176742D02*
X179094612Y-77271980D01*
X179094612Y-77271980D02*
X179142231Y-77319600D01*
X179142231Y-77319600D02*
X179237469Y-77367219D01*
X179237469Y-77367219D02*
X179523183Y-77367219D01*
X179523183Y-77367219D02*
X179618421Y-77319600D01*
X179618421Y-77319600D02*
X179666040Y-77271980D01*
G36*
X180934754Y-80078330D02*
G01*
X178897097Y-80078330D01*
X178897097Y-78848907D01*
X179008208Y-78848907D01*
X179008438Y-78867798D01*
X179008438Y-78886728D01*
X179008675Y-78887301D01*
X179008683Y-78887923D01*
X179014602Y-78906611D01*
X179443173Y-79906611D01*
X179452624Y-79923785D01*
X179480549Y-79951037D01*
X179516776Y-79965528D01*
X179555791Y-79965052D01*
X179591655Y-79949682D01*
X179618906Y-79921758D01*
X179633397Y-79885530D01*
X179632922Y-79846515D01*
X179627002Y-79827827D01*
X179296946Y-79057695D01*
X180006517Y-79057695D01*
X180006517Y-79152933D01*
X180007489Y-79162806D01*
X180007302Y-79165440D01*
X180008089Y-79168903D01*
X180008438Y-79172442D01*
X180009449Y-79174884D01*
X180011649Y-79184556D01*
X180059268Y-79327412D01*
X180067259Y-79345313D01*
X180069614Y-79348028D01*
X180070989Y-79351347D01*
X180083425Y-79366501D01*
X180484142Y-79767219D01*
X180106517Y-79767219D01*
X180087008Y-79769140D01*
X180050960Y-79784072D01*
X180023370Y-79811662D01*
X180008438Y-79847710D01*
X180008438Y-79886728D01*
X180023370Y-79922776D01*
X180050960Y-79950366D01*
X180087008Y-79965298D01*
X180106517Y-79967219D01*
X180725564Y-79967219D01*
X180745073Y-79965298D01*
X180781121Y-79950366D01*
X180808711Y-79922776D01*
X180823643Y-79886728D01*
X180823643Y-79847710D01*
X180808711Y-79811662D01*
X180796275Y-79796508D01*
X180241538Y-79241770D01*
X180206517Y-79136706D01*
X180206517Y-79081302D01*
X180236322Y-79021692D01*
X180260990Y-78997023D01*
X180320600Y-78967219D01*
X180511481Y-78967219D01*
X180571090Y-78997024D01*
X180607234Y-79033167D01*
X180622387Y-79045604D01*
X180658436Y-79060535D01*
X180697454Y-79060535D01*
X180733502Y-79045604D01*
X180761092Y-79018014D01*
X180776023Y-78981966D01*
X180776023Y-78942948D01*
X180761092Y-78906899D01*
X180748655Y-78891746D01*
X180701037Y-78844127D01*
X180693366Y-78837832D01*
X180691637Y-78835838D01*
X180688629Y-78833944D01*
X180685883Y-78831691D01*
X180683443Y-78830680D01*
X180675047Y-78825395D01*
X180579809Y-78777776D01*
X180561501Y-78770770D01*
X180557917Y-78770515D01*
X180554597Y-78769140D01*
X180535088Y-78767219D01*
X180296993Y-78767219D01*
X180277484Y-78769140D01*
X180274163Y-78770515D01*
X180270580Y-78770770D01*
X180252271Y-78777776D01*
X180157034Y-78825395D01*
X180148637Y-78830680D01*
X180146197Y-78831691D01*
X180143451Y-78833944D01*
X180140443Y-78835838D01*
X180138710Y-78837835D01*
X180131044Y-78844128D01*
X180083425Y-78891746D01*
X180077130Y-78899416D01*
X180075136Y-78901146D01*
X180073242Y-78904153D01*
X180070989Y-78906900D01*
X180069978Y-78909339D01*
X180064693Y-78917736D01*
X180017074Y-79012974D01*
X180010068Y-79031282D01*
X180009813Y-79034865D01*
X180008438Y-79038186D01*
X180006517Y-79057695D01*
X179296946Y-79057695D01*
X179258171Y-78967219D01*
X179773183Y-78967219D01*
X179792692Y-78965298D01*
X179828740Y-78950366D01*
X179856330Y-78922776D01*
X179871262Y-78886728D01*
X179871262Y-78847710D01*
X179856330Y-78811662D01*
X179828740Y-78784072D01*
X179792692Y-78769140D01*
X179773183Y-78767219D01*
X179106517Y-78767219D01*
X179087008Y-78769140D01*
X179086434Y-78769377D01*
X179085813Y-78769385D01*
X179068391Y-78776851D01*
X179050960Y-78784072D01*
X179050522Y-78784509D01*
X179049950Y-78784755D01*
X179036728Y-78798303D01*
X179023370Y-78811662D01*
X179023132Y-78812236D01*
X179022699Y-78812680D01*
X179015685Y-78830212D01*
X179008438Y-78847710D01*
X179008438Y-78848332D01*
X179008208Y-78848907D01*
X178897097Y-78848907D01*
X178897097Y-78656108D01*
X180934754Y-78656108D01*
X180934754Y-80078330D01*
G37*
G36*
X172273471Y-88997024D02*
G01*
X172298140Y-89021692D01*
X172327945Y-89081302D01*
X172327945Y-89272183D01*
X172298140Y-89331792D01*
X172273471Y-89356460D01*
X172213862Y-89386266D01*
X172070600Y-89386266D01*
X172010990Y-89356461D01*
X171986322Y-89331792D01*
X171956517Y-89272182D01*
X171956517Y-89081302D01*
X171986322Y-89021692D01*
X172010990Y-88997023D01*
X172070600Y-88967219D01*
X172213862Y-88967219D01*
X172273471Y-88997024D01*
G37*
G36*
X172639056Y-90078330D02*
G01*
X171645406Y-90078330D01*
X171645406Y-89057695D01*
X171756517Y-89057695D01*
X171756517Y-89438647D01*
X171756852Y-89442049D01*
X171756635Y-89443508D01*
X171757714Y-89450805D01*
X171758438Y-89458156D01*
X171759002Y-89459519D01*
X171759503Y-89462901D01*
X171807122Y-89653376D01*
X171811228Y-89664871D01*
X171811708Y-89667295D01*
X171812879Y-89669491D01*
X171813717Y-89671837D01*
X171815188Y-89673823D01*
X171820931Y-89684593D01*
X171916169Y-89827450D01*
X171916211Y-89827501D01*
X171916226Y-89827537D01*
X171922449Y-89835119D01*
X171928589Y-89842617D01*
X171928620Y-89842637D01*
X171928663Y-89842690D01*
X171976281Y-89890310D01*
X171983949Y-89896603D01*
X171985681Y-89898600D01*
X171988689Y-89900493D01*
X171991435Y-89902747D01*
X171993875Y-89903757D01*
X172002272Y-89909043D01*
X172097509Y-89956662D01*
X172115818Y-89963668D01*
X172119401Y-89963922D01*
X172122722Y-89965298D01*
X172142231Y-89967219D01*
X172332707Y-89967219D01*
X172352216Y-89965298D01*
X172388264Y-89950366D01*
X172415854Y-89922776D01*
X172430786Y-89886728D01*
X172430786Y-89847710D01*
X172415854Y-89811662D01*
X172388264Y-89784072D01*
X172352216Y-89769140D01*
X172332707Y-89767219D01*
X172165838Y-89767219D01*
X172106228Y-89737414D01*
X172077087Y-89708272D01*
X171996949Y-89588065D01*
X171992658Y-89570902D01*
X172002271Y-89575709D01*
X172020580Y-89582715D01*
X172024163Y-89582969D01*
X172027484Y-89584345D01*
X172046993Y-89586266D01*
X172237469Y-89586266D01*
X172256978Y-89584345D01*
X172260298Y-89582969D01*
X172263882Y-89582715D01*
X172282190Y-89575709D01*
X172377428Y-89528090D01*
X172385824Y-89522804D01*
X172388264Y-89521794D01*
X172391010Y-89519540D01*
X172394018Y-89517647D01*
X172395747Y-89515652D01*
X172403418Y-89509358D01*
X172451036Y-89461739D01*
X172457328Y-89454072D01*
X172459326Y-89452340D01*
X172461219Y-89449331D01*
X172463473Y-89446586D01*
X172464483Y-89444145D01*
X172469769Y-89435749D01*
X172517388Y-89340512D01*
X172524394Y-89322203D01*
X172524648Y-89318619D01*
X172526024Y-89315299D01*
X172527945Y-89295790D01*
X172527945Y-89057695D01*
X172526024Y-89038186D01*
X172524648Y-89034865D01*
X172524394Y-89031282D01*
X172517388Y-89012973D01*
X172469769Y-88917736D01*
X172464483Y-88909339D01*
X172463473Y-88906899D01*
X172461219Y-88904153D01*
X172459326Y-88901145D01*
X172457328Y-88899412D01*
X172451036Y-88891746D01*
X172403418Y-88844127D01*
X172395747Y-88837832D01*
X172394018Y-88835838D01*
X172391010Y-88833944D01*
X172388264Y-88831691D01*
X172385824Y-88830680D01*
X172377428Y-88825395D01*
X172282190Y-88777776D01*
X172263882Y-88770770D01*
X172260298Y-88770515D01*
X172256978Y-88769140D01*
X172237469Y-88767219D01*
X172046993Y-88767219D01*
X172027484Y-88769140D01*
X172024163Y-88770515D01*
X172020580Y-88770770D01*
X172002271Y-88777776D01*
X171907034Y-88825395D01*
X171898637Y-88830680D01*
X171896197Y-88831691D01*
X171893451Y-88833944D01*
X171890443Y-88835838D01*
X171888710Y-88837835D01*
X171881044Y-88844128D01*
X171833425Y-88891746D01*
X171827130Y-88899416D01*
X171825136Y-88901146D01*
X171823242Y-88904153D01*
X171820989Y-88906900D01*
X171819978Y-88909339D01*
X171814693Y-88917736D01*
X171767074Y-89012974D01*
X171760068Y-89031282D01*
X171759813Y-89034865D01*
X171758438Y-89038186D01*
X171756517Y-89057695D01*
X171645406Y-89057695D01*
X171645406Y-88656108D01*
X172639056Y-88656108D01*
X172639056Y-90078330D01*
G37*
X172106517Y-91664838D02*
X172201755Y-91617219D01*
X172201755Y-91617219D02*
X172344612Y-91617219D01*
X172344612Y-91617219D02*
X172487469Y-91664838D01*
X172487469Y-91664838D02*
X172582707Y-91760076D01*
X172582707Y-91760076D02*
X172630326Y-91855314D01*
X172630326Y-91855314D02*
X172677945Y-92045790D01*
X172677945Y-92045790D02*
X172677945Y-92188647D01*
X172677945Y-92188647D02*
X172630326Y-92379123D01*
X172630326Y-92379123D02*
X172582707Y-92474361D01*
X172582707Y-92474361D02*
X172487469Y-92569600D01*
X172487469Y-92569600D02*
X172344612Y-92617219D01*
X172344612Y-92617219D02*
X172249374Y-92617219D01*
X172249374Y-92617219D02*
X172106517Y-92569600D01*
X172106517Y-92569600D02*
X172058898Y-92521980D01*
X172058898Y-92521980D02*
X172058898Y-92188647D01*
X172058898Y-92188647D02*
X172249374Y-92188647D01*
X171630326Y-92617219D02*
X171630326Y-91617219D01*
X171630326Y-91617219D02*
X171058898Y-92617219D01*
X171058898Y-92617219D02*
X171058898Y-91617219D01*
X170582707Y-92617219D02*
X170582707Y-91617219D01*
X170582707Y-91617219D02*
X170344612Y-91617219D01*
X170344612Y-91617219D02*
X170201755Y-91664838D01*
X170201755Y-91664838D02*
X170106517Y-91760076D01*
X170106517Y-91760076D02*
X170058898Y-91855314D01*
X170058898Y-91855314D02*
X170011279Y-92045790D01*
X170011279Y-92045790D02*
X170011279Y-92188647D01*
X170011279Y-92188647D02*
X170058898Y-92379123D01*
X170058898Y-92379123D02*
X170106517Y-92474361D01*
X170106517Y-92474361D02*
X170201755Y-92569600D01*
X170201755Y-92569600D02*
X170344612Y-92617219D01*
X170344612Y-92617219D02*
X170582707Y-92617219D01*
G36*
X172638270Y-87578330D02*
G01*
X170647097Y-87578330D01*
X170647097Y-86348907D01*
X170758208Y-86348907D01*
X170758438Y-86367798D01*
X170758438Y-86386728D01*
X170758675Y-86387301D01*
X170758683Y-86387923D01*
X170764602Y-86406611D01*
X171193173Y-87406611D01*
X171202624Y-87423785D01*
X171230549Y-87451037D01*
X171266776Y-87465528D01*
X171305791Y-87465052D01*
X171341655Y-87449682D01*
X171368906Y-87421758D01*
X171383397Y-87385530D01*
X171382937Y-87347710D01*
X171758438Y-87347710D01*
X171758438Y-87386728D01*
X171773370Y-87422776D01*
X171800960Y-87450366D01*
X171837008Y-87465298D01*
X171856517Y-87467219D01*
X172427945Y-87467219D01*
X172447454Y-87465298D01*
X172483502Y-87450366D01*
X172511092Y-87422776D01*
X172526024Y-87386728D01*
X172526024Y-87347710D01*
X172511092Y-87311662D01*
X172483502Y-87284072D01*
X172447454Y-87269140D01*
X172427945Y-87267219D01*
X172242231Y-87267219D01*
X172242231Y-86656260D01*
X172261996Y-86676025D01*
X172269662Y-86682316D01*
X172271395Y-86684314D01*
X172274406Y-86686209D01*
X172277150Y-86688461D01*
X172279587Y-86689470D01*
X172287986Y-86694757D01*
X172383223Y-86742376D01*
X172401532Y-86749382D01*
X172440452Y-86752148D01*
X172477468Y-86739809D01*
X172506945Y-86714244D01*
X172524394Y-86679346D01*
X172527159Y-86640426D01*
X172514821Y-86603410D01*
X172489256Y-86573933D01*
X172472666Y-86563490D01*
X172391944Y-86523129D01*
X172315180Y-86446365D01*
X172225436Y-86311749D01*
X172225391Y-86311694D01*
X172225378Y-86311662D01*
X172225304Y-86311588D01*
X172213016Y-86296582D01*
X172204787Y-86291071D01*
X172197788Y-86284072D01*
X172188736Y-86280322D01*
X172180596Y-86274871D01*
X172170888Y-86272929D01*
X172161740Y-86269140D01*
X172151941Y-86269140D01*
X172142336Y-86267219D01*
X172132625Y-86269140D01*
X172122722Y-86269140D01*
X172113669Y-86272889D01*
X172104059Y-86274791D01*
X172095820Y-86280283D01*
X172086674Y-86284072D01*
X172079747Y-86290998D01*
X172071594Y-86296434D01*
X172066083Y-86304662D01*
X172059084Y-86311662D01*
X172055334Y-86320713D01*
X172049883Y-86328854D01*
X172047941Y-86338561D01*
X172044152Y-86347710D01*
X172042251Y-86367012D01*
X172042231Y-86367114D01*
X172042237Y-86367148D01*
X172042231Y-86367219D01*
X172042231Y-87267219D01*
X171856517Y-87267219D01*
X171837008Y-87269140D01*
X171800960Y-87284072D01*
X171773370Y-87311662D01*
X171758438Y-87347710D01*
X171382937Y-87347710D01*
X171382922Y-87346515D01*
X171377002Y-87327827D01*
X171008171Y-86467219D01*
X171523183Y-86467219D01*
X171542692Y-86465298D01*
X171578740Y-86450366D01*
X171606330Y-86422776D01*
X171621262Y-86386728D01*
X171621262Y-86347710D01*
X171606330Y-86311662D01*
X171578740Y-86284072D01*
X171542692Y-86269140D01*
X171523183Y-86267219D01*
X170856517Y-86267219D01*
X170837008Y-86269140D01*
X170836434Y-86269377D01*
X170835813Y-86269385D01*
X170818391Y-86276851D01*
X170800960Y-86284072D01*
X170800522Y-86284509D01*
X170799950Y-86284755D01*
X170786728Y-86298303D01*
X170773370Y-86311662D01*
X170773132Y-86312236D01*
X170772699Y-86312680D01*
X170765685Y-86330212D01*
X170758438Y-86347710D01*
X170758438Y-86348332D01*
X170758208Y-86348907D01*
X170647097Y-86348907D01*
X170647097Y-86156108D01*
X172638270Y-86156108D01*
X172638270Y-87578330D01*
G37*
X171267219Y-75474435D02*
X171267219Y-76093482D01*
X171267219Y-76093482D02*
X171648171Y-75760149D01*
X171648171Y-75760149D02*
X171648171Y-75903006D01*
X171648171Y-75903006D02*
X171695790Y-75998244D01*
X171695790Y-75998244D02*
X171743409Y-76045863D01*
X171743409Y-76045863D02*
X171838647Y-76093482D01*
X171838647Y-76093482D02*
X172076742Y-76093482D01*
X172076742Y-76093482D02*
X172171980Y-76045863D01*
X172171980Y-76045863D02*
X172219600Y-75998244D01*
X172219600Y-75998244D02*
X172267219Y-75903006D01*
X172267219Y-75903006D02*
X172267219Y-75617292D01*
X172267219Y-75617292D02*
X172219600Y-75522054D01*
X172219600Y-75522054D02*
X172171980Y-75474435D01*
X171267219Y-76379197D02*
X172267219Y-76712530D01*
X172267219Y-76712530D02*
X171267219Y-77045863D01*
X171267219Y-77283959D02*
X171267219Y-77903006D01*
X171267219Y-77903006D02*
X171648171Y-77569673D01*
X171648171Y-77569673D02*
X171648171Y-77712530D01*
X171648171Y-77712530D02*
X171695790Y-77807768D01*
X171695790Y-77807768D02*
X171743409Y-77855387D01*
X171743409Y-77855387D02*
X171838647Y-77903006D01*
X171838647Y-77903006D02*
X172076742Y-77903006D01*
X172076742Y-77903006D02*
X172171980Y-77855387D01*
X172171980Y-77855387D02*
X172219600Y-77807768D01*
X172219600Y-77807768D02*
X172267219Y-77712530D01*
X172267219Y-77712530D02*
X172267219Y-77426816D01*
X172267219Y-77426816D02*
X172219600Y-77331578D01*
X172219600Y-77331578D02*
X172171980Y-77283959D01*
G36*
X171273471Y-83997024D02*
G01*
X171298140Y-84021692D01*
X171333593Y-84092599D01*
X171375564Y-84260480D01*
X171375564Y-84473956D01*
X171333593Y-84641837D01*
X171298140Y-84712743D01*
X171273471Y-84737413D01*
X171213862Y-84767219D01*
X171165838Y-84767219D01*
X171106228Y-84737414D01*
X171081561Y-84712746D01*
X171046106Y-84641837D01*
X171004136Y-84473956D01*
X171004136Y-84260481D01*
X171046106Y-84092599D01*
X171081560Y-84021692D01*
X171106228Y-83997023D01*
X171165838Y-83967219D01*
X171213862Y-83967219D01*
X171273471Y-83997024D01*
G37*
G36*
X172684754Y-85078330D02*
G01*
X170693025Y-85078330D01*
X170693025Y-84248171D01*
X170804136Y-84248171D01*
X170804136Y-84486266D01*
X170804471Y-84489668D01*
X170804254Y-84491127D01*
X170805333Y-84498424D01*
X170806057Y-84505775D01*
X170806621Y-84507138D01*
X170807122Y-84510520D01*
X170854741Y-84700995D01*
X170855254Y-84702432D01*
X170855306Y-84703155D01*
X170858414Y-84711279D01*
X170861336Y-84719456D01*
X170861766Y-84720036D01*
X170862312Y-84721463D01*
X170909931Y-84816701D01*
X170915214Y-84825093D01*
X170916226Y-84827537D01*
X170918482Y-84830286D01*
X170920374Y-84833291D01*
X170922368Y-84835020D01*
X170928663Y-84842690D01*
X170976281Y-84890310D01*
X170983949Y-84896603D01*
X170985681Y-84898600D01*
X170988689Y-84900493D01*
X170991435Y-84902747D01*
X170993875Y-84903757D01*
X171002272Y-84909043D01*
X171097509Y-84956662D01*
X171115818Y-84963668D01*
X171119401Y-84963922D01*
X171122722Y-84965298D01*
X171142231Y-84967219D01*
X171237469Y-84967219D01*
X171256978Y-84965298D01*
X171260298Y-84963922D01*
X171263882Y-84963668D01*
X171282190Y-84956662D01*
X171377428Y-84909043D01*
X171385823Y-84903758D01*
X171388265Y-84902747D01*
X171391012Y-84900491D01*
X171394018Y-84898600D01*
X171395748Y-84896605D01*
X171403418Y-84890310D01*
X171451037Y-84842690D01*
X171457329Y-84835023D01*
X171459326Y-84833292D01*
X171461219Y-84830284D01*
X171463474Y-84827537D01*
X171464485Y-84825095D01*
X171469769Y-84816701D01*
X171517388Y-84721464D01*
X171517934Y-84720035D01*
X171518364Y-84719456D01*
X171521285Y-84711279D01*
X171524394Y-84703155D01*
X171524445Y-84702434D01*
X171524959Y-84700996D01*
X171572578Y-84510520D01*
X171573078Y-84507138D01*
X171573643Y-84505775D01*
X171574366Y-84498424D01*
X171575446Y-84491127D01*
X171575228Y-84489668D01*
X171575564Y-84486266D01*
X171575564Y-84248171D01*
X171575228Y-84244768D01*
X171575446Y-84243310D01*
X171574366Y-84236012D01*
X171573643Y-84228662D01*
X171573078Y-84227298D01*
X171572578Y-84223917D01*
X171531022Y-84057695D01*
X171756517Y-84057695D01*
X171756517Y-84152933D01*
X171757489Y-84162806D01*
X171757302Y-84165440D01*
X171758089Y-84168903D01*
X171758438Y-84172442D01*
X171759449Y-84174884D01*
X171761649Y-84184556D01*
X171809268Y-84327412D01*
X171817259Y-84345313D01*
X171819614Y-84348028D01*
X171820989Y-84351347D01*
X171833425Y-84366501D01*
X172234142Y-84767219D01*
X171856517Y-84767219D01*
X171837008Y-84769140D01*
X171800960Y-84784072D01*
X171773370Y-84811662D01*
X171758438Y-84847710D01*
X171758438Y-84886728D01*
X171773370Y-84922776D01*
X171800960Y-84950366D01*
X171837008Y-84965298D01*
X171856517Y-84967219D01*
X172475564Y-84967219D01*
X172495073Y-84965298D01*
X172531121Y-84950366D01*
X172558711Y-84922776D01*
X172573643Y-84886728D01*
X172573643Y-84847710D01*
X172558711Y-84811662D01*
X172546275Y-84796508D01*
X171991538Y-84241770D01*
X171956517Y-84136706D01*
X171956517Y-84081302D01*
X171986322Y-84021692D01*
X172010990Y-83997023D01*
X172070600Y-83967219D01*
X172261481Y-83967219D01*
X172321090Y-83997024D01*
X172357234Y-84033167D01*
X172372387Y-84045604D01*
X172408436Y-84060535D01*
X172447454Y-84060535D01*
X172483502Y-84045604D01*
X172511092Y-84018014D01*
X172526023Y-83981966D01*
X172526023Y-83942948D01*
X172511092Y-83906899D01*
X172498655Y-83891746D01*
X172451037Y-83844127D01*
X172443366Y-83837832D01*
X172441637Y-83835838D01*
X172438629Y-83833944D01*
X172435883Y-83831691D01*
X172433443Y-83830680D01*
X172425047Y-83825395D01*
X172329809Y-83777776D01*
X172311501Y-83770770D01*
X172307917Y-83770515D01*
X172304597Y-83769140D01*
X172285088Y-83767219D01*
X172046993Y-83767219D01*
X172027484Y-83769140D01*
X172024163Y-83770515D01*
X172020580Y-83770770D01*
X172002271Y-83777776D01*
X171907034Y-83825395D01*
X171898637Y-83830680D01*
X171896197Y-83831691D01*
X171893451Y-83833944D01*
X171890443Y-83835838D01*
X171888710Y-83837835D01*
X171881044Y-83844128D01*
X171833425Y-83891746D01*
X171827130Y-83899416D01*
X171825136Y-83901146D01*
X171823242Y-83904153D01*
X171820989Y-83906900D01*
X171819978Y-83909339D01*
X171814693Y-83917736D01*
X171767074Y-84012974D01*
X171760068Y-84031282D01*
X171759813Y-84034865D01*
X171758438Y-84038186D01*
X171756517Y-84057695D01*
X171531022Y-84057695D01*
X171524959Y-84033441D01*
X171524445Y-84032002D01*
X171524394Y-84031282D01*
X171521285Y-84023157D01*
X171518364Y-84014981D01*
X171517934Y-84014401D01*
X171517388Y-84012973D01*
X171469769Y-83917736D01*
X171464483Y-83909339D01*
X171463473Y-83906899D01*
X171461219Y-83904153D01*
X171459326Y-83901145D01*
X171457328Y-83899412D01*
X171451036Y-83891746D01*
X171403418Y-83844127D01*
X171395747Y-83837832D01*
X171394018Y-83835838D01*
X171391010Y-83833944D01*
X171388264Y-83831691D01*
X171385824Y-83830680D01*
X171377428Y-83825395D01*
X171282190Y-83777776D01*
X171263882Y-83770770D01*
X171260298Y-83770515D01*
X171256978Y-83769140D01*
X171237469Y-83767219D01*
X171142231Y-83767219D01*
X171122722Y-83769140D01*
X171119401Y-83770515D01*
X171115818Y-83770770D01*
X171097509Y-83777776D01*
X171002272Y-83825395D01*
X170993875Y-83830680D01*
X170991435Y-83831691D01*
X170988689Y-83833944D01*
X170985681Y-83835838D01*
X170983948Y-83837835D01*
X170976282Y-83844128D01*
X170928663Y-83891746D01*
X170922368Y-83899416D01*
X170920374Y-83901146D01*
X170918480Y-83904153D01*
X170916227Y-83906900D01*
X170915216Y-83909339D01*
X170909931Y-83917736D01*
X170862312Y-84012974D01*
X170861766Y-84014400D01*
X170861336Y-84014981D01*
X170858414Y-84023157D01*
X170855306Y-84031282D01*
X170855254Y-84032004D01*
X170854741Y-84033442D01*
X170807122Y-84223917D01*
X170806621Y-84227298D01*
X170806057Y-84228662D01*
X170805333Y-84236012D01*
X170804254Y-84243310D01*
X170804471Y-84244768D01*
X170804136Y-84248171D01*
X170693025Y-84248171D01*
X170693025Y-83656108D01*
X172684754Y-83656108D01*
X172684754Y-85078330D01*
G37*
G36*
X179571090Y-86877976D02*
G01*
X179595759Y-86902644D01*
X179625564Y-86962254D01*
X179625564Y-87153135D01*
X179595759Y-87212743D01*
X179571090Y-87237413D01*
X179511481Y-87267219D01*
X179368219Y-87267219D01*
X179308609Y-87237414D01*
X179283942Y-87212746D01*
X179254136Y-87153134D01*
X179254136Y-86962254D01*
X179283941Y-86902644D01*
X179308609Y-86877975D01*
X179368219Y-86848171D01*
X179511481Y-86848171D01*
X179571090Y-86877976D01*
G37*
G36*
X180888270Y-87578330D02*
G01*
X178943025Y-87578330D01*
X178943025Y-86938647D01*
X179054136Y-86938647D01*
X179054136Y-87176742D01*
X179056057Y-87196251D01*
X179057432Y-87199571D01*
X179057687Y-87203155D01*
X179064693Y-87221463D01*
X179112312Y-87316701D01*
X179117595Y-87325093D01*
X179118607Y-87327537D01*
X179120863Y-87330286D01*
X179122755Y-87333291D01*
X179124749Y-87335020D01*
X179131044Y-87342690D01*
X179178662Y-87390310D01*
X179186330Y-87396603D01*
X179188062Y-87398600D01*
X179191070Y-87400493D01*
X179193816Y-87402747D01*
X179196256Y-87403757D01*
X179204653Y-87409043D01*
X179299890Y-87456662D01*
X179318199Y-87463668D01*
X179321782Y-87463922D01*
X179325103Y-87465298D01*
X179344612Y-87467219D01*
X179535088Y-87467219D01*
X179554597Y-87465298D01*
X179557917Y-87463922D01*
X179561501Y-87463668D01*
X179579809Y-87456662D01*
X179675047Y-87409043D01*
X179683442Y-87403758D01*
X179685884Y-87402747D01*
X179688631Y-87400491D01*
X179691637Y-87398600D01*
X179693367Y-87396605D01*
X179701037Y-87390310D01*
X179743636Y-87347710D01*
X180008438Y-87347710D01*
X180008438Y-87386728D01*
X180023370Y-87422776D01*
X180050960Y-87450366D01*
X180087008Y-87465298D01*
X180106517Y-87467219D01*
X180677945Y-87467219D01*
X180697454Y-87465298D01*
X180733502Y-87450366D01*
X180761092Y-87422776D01*
X180776024Y-87386728D01*
X180776024Y-87347710D01*
X180761092Y-87311662D01*
X180733502Y-87284072D01*
X180697454Y-87269140D01*
X180677945Y-87267219D01*
X180492231Y-87267219D01*
X180492231Y-86656260D01*
X180511996Y-86676025D01*
X180519662Y-86682316D01*
X180521395Y-86684314D01*
X180524406Y-86686209D01*
X180527150Y-86688461D01*
X180529587Y-86689470D01*
X180537986Y-86694757D01*
X180633223Y-86742376D01*
X180651532Y-86749382D01*
X180690452Y-86752148D01*
X180727468Y-86739809D01*
X180756945Y-86714244D01*
X180774394Y-86679346D01*
X180777159Y-86640426D01*
X180764821Y-86603410D01*
X180739256Y-86573933D01*
X180722666Y-86563490D01*
X180641944Y-86523129D01*
X180565180Y-86446365D01*
X180475436Y-86311749D01*
X180475391Y-86311694D01*
X180475378Y-86311662D01*
X180475304Y-86311588D01*
X180463016Y-86296582D01*
X180454787Y-86291071D01*
X180447788Y-86284072D01*
X180438736Y-86280322D01*
X180430596Y-86274871D01*
X180420888Y-86272929D01*
X180411740Y-86269140D01*
X180401941Y-86269140D01*
X180392336Y-86267219D01*
X180382625Y-86269140D01*
X180372722Y-86269140D01*
X180363669Y-86272889D01*
X180354059Y-86274791D01*
X180345820Y-86280283D01*
X180336674Y-86284072D01*
X180329747Y-86290998D01*
X180321594Y-86296434D01*
X180316083Y-86304662D01*
X180309084Y-86311662D01*
X180305334Y-86320713D01*
X180299883Y-86328854D01*
X180297941Y-86338561D01*
X180294152Y-86347710D01*
X180292251Y-86367012D01*
X180292231Y-86367114D01*
X180292237Y-86367148D01*
X180292231Y-86367219D01*
X180292231Y-87267219D01*
X180106517Y-87267219D01*
X180087008Y-87269140D01*
X180050960Y-87284072D01*
X180023370Y-87311662D01*
X180008438Y-87347710D01*
X179743636Y-87347710D01*
X179748656Y-87342690D01*
X179754948Y-87335023D01*
X179756945Y-87333292D01*
X179758838Y-87330284D01*
X179761093Y-87327537D01*
X179762104Y-87325095D01*
X179767388Y-87316701D01*
X179815007Y-87221464D01*
X179822013Y-87203155D01*
X179822267Y-87199571D01*
X179823643Y-87196251D01*
X179825564Y-87176742D01*
X179825564Y-86795790D01*
X179825228Y-86792387D01*
X179825446Y-86790929D01*
X179824366Y-86783631D01*
X179823643Y-86776281D01*
X179823078Y-86774917D01*
X179822578Y-86771536D01*
X179774959Y-86581060D01*
X179770852Y-86569565D01*
X179770373Y-86567142D01*
X179769202Y-86564945D01*
X179768364Y-86562600D01*
X179766892Y-86560613D01*
X179761150Y-86549844D01*
X179665912Y-86406987D01*
X179665868Y-86406933D01*
X179665854Y-86406899D01*
X179659709Y-86399413D01*
X179653492Y-86391820D01*
X179653460Y-86391798D01*
X179653417Y-86391746D01*
X179605799Y-86344127D01*
X179598128Y-86337832D01*
X179596399Y-86335838D01*
X179593391Y-86333944D01*
X179590645Y-86331691D01*
X179588205Y-86330680D01*
X179579809Y-86325395D01*
X179484571Y-86277776D01*
X179466263Y-86270770D01*
X179462679Y-86270515D01*
X179459359Y-86269140D01*
X179439850Y-86267219D01*
X179249374Y-86267219D01*
X179229865Y-86269140D01*
X179193817Y-86284072D01*
X179166227Y-86311662D01*
X179151295Y-86347710D01*
X179151295Y-86386728D01*
X179166227Y-86422776D01*
X179193817Y-86450366D01*
X179229865Y-86465298D01*
X179249374Y-86467219D01*
X179416243Y-86467219D01*
X179475852Y-86497024D01*
X179504994Y-86526165D01*
X179585132Y-86646372D01*
X179589422Y-86663534D01*
X179579809Y-86658728D01*
X179561501Y-86651722D01*
X179557917Y-86651467D01*
X179554597Y-86650092D01*
X179535088Y-86648171D01*
X179344612Y-86648171D01*
X179325103Y-86650092D01*
X179321782Y-86651467D01*
X179318199Y-86651722D01*
X179299890Y-86658728D01*
X179204653Y-86706347D01*
X179196256Y-86711632D01*
X179193816Y-86712643D01*
X179191070Y-86714896D01*
X179188062Y-86716790D01*
X179186329Y-86718787D01*
X179178663Y-86725080D01*
X179131044Y-86772698D01*
X179124749Y-86780368D01*
X179122755Y-86782098D01*
X179120861Y-86785105D01*
X179118608Y-86787852D01*
X179117597Y-86790291D01*
X179112312Y-86798688D01*
X179064693Y-86893926D01*
X179057687Y-86912234D01*
X179057432Y-86915817D01*
X179056057Y-86919138D01*
X179054136Y-86938647D01*
X178943025Y-86938647D01*
X178943025Y-86156108D01*
X180888270Y-86156108D01*
X180888270Y-87578330D01*
G37*
X145975564Y-76117219D02*
X145356517Y-76117219D01*
X145356517Y-76117219D02*
X145689850Y-76498171D01*
X145689850Y-76498171D02*
X145546993Y-76498171D01*
X145546993Y-76498171D02*
X145451755Y-76545790D01*
X145451755Y-76545790D02*
X145404136Y-76593409D01*
X145404136Y-76593409D02*
X145356517Y-76688647D01*
X145356517Y-76688647D02*
X145356517Y-76926742D01*
X145356517Y-76926742D02*
X145404136Y-77021980D01*
X145404136Y-77021980D02*
X145451755Y-77069600D01*
X145451755Y-77069600D02*
X145546993Y-77117219D01*
X145546993Y-77117219D02*
X145832707Y-77117219D01*
X145832707Y-77117219D02*
X145927945Y-77069600D01*
X145927945Y-77069600D02*
X145975564Y-77021980D01*
X145070802Y-76117219D02*
X144737469Y-77117219D01*
X144737469Y-77117219D02*
X144404136Y-76117219D01*
X144166040Y-76117219D02*
X143546993Y-76117219D01*
X143546993Y-76117219D02*
X143880326Y-76498171D01*
X143880326Y-76498171D02*
X143737469Y-76498171D01*
X143737469Y-76498171D02*
X143642231Y-76545790D01*
X143642231Y-76545790D02*
X143594612Y-76593409D01*
X143594612Y-76593409D02*
X143546993Y-76688647D01*
X143546993Y-76688647D02*
X143546993Y-76926742D01*
X143546993Y-76926742D02*
X143594612Y-77021980D01*
X143594612Y-77021980D02*
X143642231Y-77069600D01*
X143642231Y-77069600D02*
X143737469Y-77117219D01*
X143737469Y-77117219D02*
X144023183Y-77117219D01*
X144023183Y-77117219D02*
X144118421Y-77069600D01*
X144118421Y-77069600D02*
X144166040Y-77021980D01*
D12*
X176063333Y-73834819D02*
X176063333Y-74549104D01*
X176063333Y-74549104D02*
X176110952Y-74691961D01*
X176110952Y-74691961D02*
X176206190Y-74787200D01*
X176206190Y-74787200D02*
X176349047Y-74834819D01*
X176349047Y-74834819D02*
X176444285Y-74834819D01*
X175110952Y-73834819D02*
X175587142Y-73834819D01*
X175587142Y-73834819D02*
X175634761Y-74311009D01*
X175634761Y-74311009D02*
X175587142Y-74263390D01*
X175587142Y-74263390D02*
X175491904Y-74215771D01*
X175491904Y-74215771D02*
X175253809Y-74215771D01*
X175253809Y-74215771D02*
X175158571Y-74263390D01*
X175158571Y-74263390D02*
X175110952Y-74311009D01*
X175110952Y-74311009D02*
X175063333Y-74406247D01*
X175063333Y-74406247D02*
X175063333Y-74644342D01*
X175063333Y-74644342D02*
X175110952Y-74739580D01*
X175110952Y-74739580D02*
X175158571Y-74787200D01*
X175158571Y-74787200D02*
X175253809Y-74834819D01*
X175253809Y-74834819D02*
X175491904Y-74834819D01*
X175491904Y-74834819D02*
X175587142Y-74787200D01*
X175587142Y-74787200D02*
X175634761Y-74739580D01*
X167749404Y-66629819D02*
X167749404Y-67439342D01*
X167749404Y-67439342D02*
X167701785Y-67534580D01*
X167701785Y-67534580D02*
X167654166Y-67582200D01*
X167654166Y-67582200D02*
X167558928Y-67629819D01*
X167558928Y-67629819D02*
X167368452Y-67629819D01*
X167368452Y-67629819D02*
X167273214Y-67582200D01*
X167273214Y-67582200D02*
X167225595Y-67534580D01*
X167225595Y-67534580D02*
X167177976Y-67439342D01*
X167177976Y-67439342D02*
X167177976Y-66629819D01*
X166654166Y-67629819D02*
X166463690Y-67629819D01*
X166463690Y-67629819D02*
X166368452Y-67582200D01*
X166368452Y-67582200D02*
X166320833Y-67534580D01*
X166320833Y-67534580D02*
X166225595Y-67391723D01*
X166225595Y-67391723D02*
X166177976Y-67201247D01*
X166177976Y-67201247D02*
X166177976Y-66820295D01*
X166177976Y-66820295D02*
X166225595Y-66725057D01*
X166225595Y-66725057D02*
X166273214Y-66677438D01*
X166273214Y-66677438D02*
X166368452Y-66629819D01*
X166368452Y-66629819D02*
X166558928Y-66629819D01*
X166558928Y-66629819D02*
X166654166Y-66677438D01*
X166654166Y-66677438D02*
X166701785Y-66725057D01*
X166701785Y-66725057D02*
X166749404Y-66820295D01*
X166749404Y-66820295D02*
X166749404Y-67058390D01*
X166749404Y-67058390D02*
X166701785Y-67153628D01*
X166701785Y-67153628D02*
X166654166Y-67201247D01*
X166654166Y-67201247D02*
X166558928Y-67248866D01*
X166558928Y-67248866D02*
X166368452Y-67248866D01*
X166368452Y-67248866D02*
X166273214Y-67201247D01*
X166273214Y-67201247D02*
X166225595Y-67153628D01*
X166225595Y-67153628D02*
X166177976Y-67058390D01*
X158586904Y-67106819D02*
X158015476Y-67106819D01*
X158301190Y-68106819D02*
X158301190Y-67106819D01*
X157682142Y-68106819D02*
X157682142Y-67106819D01*
X157682142Y-67106819D02*
X157301190Y-67106819D01*
X157301190Y-67106819D02*
X157205952Y-67154438D01*
X157205952Y-67154438D02*
X157158333Y-67202057D01*
X157158333Y-67202057D02*
X157110714Y-67297295D01*
X157110714Y-67297295D02*
X157110714Y-67440152D01*
X157110714Y-67440152D02*
X157158333Y-67535390D01*
X157158333Y-67535390D02*
X157205952Y-67583009D01*
X157205952Y-67583009D02*
X157301190Y-67630628D01*
X157301190Y-67630628D02*
X157682142Y-67630628D01*
X156158333Y-68106819D02*
X156729761Y-68106819D01*
X156444047Y-68106819D02*
X156444047Y-67106819D01*
X156444047Y-67106819D02*
X156539285Y-67249676D01*
X156539285Y-67249676D02*
X156634523Y-67344914D01*
X156634523Y-67344914D02*
X156729761Y-67392533D01*
X140763333Y-73734819D02*
X140763333Y-74449104D01*
X140763333Y-74449104D02*
X140810952Y-74591961D01*
X140810952Y-74591961D02*
X140906190Y-74687200D01*
X140906190Y-74687200D02*
X141049047Y-74734819D01*
X141049047Y-74734819D02*
X141144285Y-74734819D01*
X139858571Y-73734819D02*
X140049047Y-73734819D01*
X140049047Y-73734819D02*
X140144285Y-73782438D01*
X140144285Y-73782438D02*
X140191904Y-73830057D01*
X140191904Y-73830057D02*
X140287142Y-73972914D01*
X140287142Y-73972914D02*
X140334761Y-74163390D01*
X140334761Y-74163390D02*
X140334761Y-74544342D01*
X140334761Y-74544342D02*
X140287142Y-74639580D01*
X140287142Y-74639580D02*
X140239523Y-74687200D01*
X140239523Y-74687200D02*
X140144285Y-74734819D01*
X140144285Y-74734819D02*
X139953809Y-74734819D01*
X139953809Y-74734819D02*
X139858571Y-74687200D01*
X139858571Y-74687200D02*
X139810952Y-74639580D01*
X139810952Y-74639580D02*
X139763333Y-74544342D01*
X139763333Y-74544342D02*
X139763333Y-74306247D01*
X139763333Y-74306247D02*
X139810952Y-74211009D01*
X139810952Y-74211009D02*
X139858571Y-74163390D01*
X139858571Y-74163390D02*
X139953809Y-74115771D01*
X139953809Y-74115771D02*
X140144285Y-74115771D01*
X140144285Y-74115771D02*
X140239523Y-74163390D01*
X140239523Y-74163390D02*
X140287142Y-74211009D01*
X140287142Y-74211009D02*
X140334761Y-74306247D01*
D13*
%TO.C,G\u002A\u002A\u002A*%
G36*
X165981569Y-88824999D02*
G01*
X165981569Y-90568029D01*
X165981569Y-96681568D01*
X158125001Y-96681568D01*
X150268432Y-96681568D01*
X150268432Y-88824999D01*
X150268432Y-81516274D01*
X151239609Y-81516274D01*
X151239609Y-82282058D01*
X151239609Y-83047842D01*
X153617746Y-85425881D01*
X155995883Y-87803921D01*
X155995883Y-89073762D01*
X155995883Y-90343604D01*
X156532268Y-90880404D01*
X157068652Y-91417204D01*
X157032345Y-91556598D01*
X157011828Y-91700936D01*
X157031447Y-91847967D01*
X157093973Y-91974191D01*
X157196989Y-92074954D01*
X157338080Y-92145602D01*
X157432539Y-92169199D01*
X157519832Y-92166999D01*
X157623544Y-92137836D01*
X157692763Y-92107230D01*
X157809026Y-92019782D01*
X157889731Y-91905393D01*
X157931569Y-91772333D01*
X157931234Y-91628871D01*
X157885415Y-91483277D01*
X157815864Y-91381434D01*
X157707388Y-91295023D01*
X157578343Y-91243748D01*
X157439997Y-91231865D01*
X157303618Y-91263627D01*
X157205813Y-91304493D01*
X156688005Y-90787125D01*
X156170197Y-90269758D01*
X156170197Y-89111853D01*
X156170197Y-87953949D01*
X156616820Y-88400055D01*
X157063442Y-88846161D01*
X157025923Y-88918714D01*
X157021750Y-88927374D01*
X156997310Y-89018463D01*
X156989735Y-89130501D01*
X156999058Y-89240898D01*
X157025313Y-89327061D01*
X157026766Y-89329812D01*
X157093644Y-89422932D01*
X157182392Y-89504977D01*
X157273730Y-89558023D01*
X157320701Y-89571619D01*
X157438822Y-89583455D01*
X157561035Y-89572849D01*
X157662544Y-89540892D01*
X157760310Y-89474156D01*
X157847609Y-89367770D01*
X157898405Y-89243008D01*
X157911998Y-89109136D01*
X157903350Y-89061568D01*
X158834707Y-89061568D01*
X158834707Y-91146899D01*
X158834707Y-93232231D01*
X159374588Y-93772531D01*
X159914469Y-94312831D01*
X159881813Y-94411779D01*
X159855193Y-94547890D01*
X159865744Y-94694192D01*
X159914827Y-94827061D01*
X159998862Y-94937196D01*
X160114267Y-95015300D01*
X160147325Y-95029070D01*
X160286810Y-95060400D01*
X160417004Y-95050403D01*
X160533703Y-95005459D01*
X160632704Y-94931951D01*
X160709801Y-94836259D01*
X160760791Y-94724764D01*
X160781469Y-94603846D01*
X160767630Y-94479888D01*
X160715071Y-94359269D01*
X160619587Y-94248370D01*
X160527571Y-94185171D01*
X160409914Y-94135655D01*
X160298201Y-94116805D01*
X160285139Y-94117932D01*
X160225749Y-94132210D01*
X160152657Y-94157666D01*
X160050187Y-94198666D01*
X159529604Y-93678526D01*
X159009020Y-93158385D01*
X159009020Y-91925768D01*
X159009020Y-90693151D01*
X159468092Y-91151719D01*
X159927163Y-91610287D01*
X159888772Y-91684527D01*
X159881947Y-91699064D01*
X159860800Y-91788558D01*
X159860249Y-91913747D01*
X159867274Y-91977647D01*
X159909480Y-92111709D01*
X159989859Y-92216155D01*
X160111892Y-92296273D01*
X160201997Y-92329722D01*
X160346206Y-92344461D01*
X160483963Y-92314189D01*
X160606533Y-92241377D01*
X160705178Y-92128496D01*
X160750256Y-92039411D01*
X160780067Y-91904691D01*
X160769188Y-91774288D01*
X160722845Y-91654590D01*
X160646264Y-91551983D01*
X160544669Y-91472855D01*
X160423286Y-91423592D01*
X160287341Y-91410582D01*
X160142060Y-91440211D01*
X160042452Y-91475884D01*
X159525736Y-90959978D01*
X159009020Y-90444071D01*
X159009020Y-89852427D01*
X159009020Y-89260783D01*
X159588208Y-89260783D01*
X160167396Y-89260783D01*
X160697221Y-89791039D01*
X161227046Y-90321294D01*
X161186179Y-90419102D01*
X161163086Y-90491035D01*
X161153917Y-90628412D01*
X161185685Y-90759409D01*
X161252839Y-90875732D01*
X161349825Y-90969088D01*
X161471091Y-91031183D01*
X161611083Y-91053725D01*
X161729560Y-91041886D01*
X161856051Y-90990920D01*
X161965470Y-90895898D01*
X162049251Y-90769650D01*
X162085367Y-90634412D01*
X162072194Y-90492333D01*
X162009707Y-90343751D01*
X161957037Y-90272710D01*
X161849537Y-90190186D01*
X161718332Y-90141876D01*
X161573589Y-90130968D01*
X161425478Y-90160648D01*
X161344308Y-90188944D01*
X160880228Y-89724864D01*
X160416147Y-89260783D01*
X161636478Y-89260783D01*
X162856808Y-89260783D01*
X163384645Y-89789950D01*
X163912483Y-90319117D01*
X163873739Y-90456572D01*
X163864605Y-90492669D01*
X163852974Y-90638810D01*
X163888133Y-90771250D01*
X163971395Y-90895898D01*
X164056983Y-90974940D01*
X164179161Y-91034719D01*
X164325781Y-91053725D01*
X164419648Y-91044417D01*
X164545781Y-90997541D01*
X164647678Y-90918360D01*
X164722669Y-90814978D01*
X164768088Y-90695499D01*
X164781266Y-90568029D01*
X164759535Y-90440670D01*
X164700227Y-90321529D01*
X164600674Y-90218708D01*
X164536334Y-90180520D01*
X164409577Y-90142049D01*
X164269845Y-90133927D01*
X164135108Y-90158481D01*
X164036152Y-90191139D01*
X163470966Y-89626353D01*
X162905780Y-89061568D01*
X160870243Y-89061568D01*
X158834707Y-89061568D01*
X157903350Y-89061568D01*
X157887688Y-88975419D01*
X157824777Y-88851122D01*
X157722566Y-88745510D01*
X157687011Y-88720045D01*
X157630689Y-88691776D01*
X157563905Y-88678742D01*
X157467091Y-88675587D01*
X157385111Y-88677873D01*
X157301464Y-88685140D01*
X157248094Y-88695660D01*
X157238793Y-88697650D01*
X157218301Y-88694256D01*
X157189489Y-88679578D01*
X157148981Y-88650640D01*
X157093401Y-88604466D01*
X157019370Y-88538078D01*
X156923511Y-88448500D01*
X156802449Y-88332755D01*
X156652805Y-88187866D01*
X156471203Y-88010856D01*
X156426276Y-87966872D01*
X156299246Y-87841771D01*
X156141693Y-87685816D01*
X155956774Y-87502158D01*
X155747643Y-87293953D01*
X155517456Y-87064354D01*
X155269370Y-86816515D01*
X155006540Y-86553591D01*
X154732123Y-86278734D01*
X154449273Y-85995100D01*
X154161146Y-85705841D01*
X153870899Y-85414113D01*
X153581688Y-85123068D01*
X151413922Y-82940156D01*
X151413922Y-82383871D01*
X151413922Y-81827586D01*
X153458420Y-83872084D01*
X155502918Y-85916582D01*
X155463028Y-85993720D01*
X155451139Y-86020013D01*
X155426416Y-86139512D01*
X155435135Y-86271406D01*
X155474664Y-86398758D01*
X155542372Y-86504630D01*
X155562538Y-86524897D01*
X155668919Y-86593932D01*
X155798794Y-86635167D01*
X155935592Y-86644941D01*
X156062743Y-86619591D01*
X156063281Y-86619387D01*
X156156002Y-86565159D01*
X156245456Y-86481251D01*
X156312938Y-86385190D01*
X156338802Y-86307172D01*
X156350158Y-86193395D01*
X156341201Y-86077565D01*
X156311987Y-85983064D01*
X156262046Y-85910356D01*
X156186694Y-85832717D01*
X156104517Y-85769346D01*
X156031629Y-85734528D01*
X156001637Y-85729847D01*
X155919874Y-85727571D01*
X155823386Y-85732647D01*
X155733654Y-85743612D01*
X155672158Y-85759003D01*
X155654212Y-85749743D01*
X155610755Y-85714388D01*
X155541124Y-85651977D01*
X155444450Y-85561664D01*
X155319859Y-85442597D01*
X155166482Y-85293929D01*
X154983446Y-85114811D01*
X154769881Y-84904393D01*
X154524915Y-84661826D01*
X154247677Y-84386262D01*
X153937296Y-84076851D01*
X153592901Y-83732744D01*
X151550997Y-81690587D01*
X152123726Y-81690587D01*
X152696454Y-81690587D01*
X155579742Y-84573956D01*
X158463031Y-87457325D01*
X158422113Y-87555255D01*
X158399016Y-87627173D01*
X158389810Y-87764598D01*
X158421550Y-87895631D01*
X158488685Y-88011979D01*
X158585666Y-88105351D01*
X158706943Y-88167455D01*
X158846966Y-88189999D01*
X158965443Y-88178161D01*
X159091934Y-88127194D01*
X159201352Y-88032173D01*
X159239634Y-87983437D01*
X159303196Y-87856880D01*
X159324317Y-87728613D01*
X159307491Y-87604755D01*
X159257214Y-87491426D01*
X159177979Y-87394747D01*
X159074282Y-87320836D01*
X158950618Y-87275816D01*
X158811480Y-87265804D01*
X158661364Y-87296921D01*
X158580197Y-87325216D01*
X158141020Y-86886039D01*
X157701843Y-86446862D01*
X158847468Y-86446862D01*
X159993093Y-86446862D01*
X160512736Y-86966948D01*
X161032379Y-87487033D01*
X160988904Y-87600873D01*
X160961007Y-87716411D01*
X160971661Y-87850673D01*
X161029531Y-87991211D01*
X161102771Y-88086714D01*
X161211894Y-88163871D01*
X161338107Y-88205844D01*
X161471389Y-88212321D01*
X161601723Y-88182989D01*
X161719089Y-88117536D01*
X161813471Y-88015649D01*
X161850431Y-87949448D01*
X161890713Y-87810769D01*
X161888216Y-87671348D01*
X161845262Y-87540586D01*
X161764171Y-87427882D01*
X161647266Y-87342638D01*
X161564876Y-87312714D01*
X161444698Y-87295195D01*
X161325451Y-87300481D01*
X161228444Y-87329253D01*
X161159361Y-87364977D01*
X160613570Y-86818763D01*
X160067778Y-86272548D01*
X158797517Y-86272548D01*
X157527256Y-86272548D01*
X155149217Y-83894411D01*
X152771177Y-81516274D01*
X152005393Y-81516274D01*
X151239609Y-81516274D01*
X150268432Y-81516274D01*
X150268432Y-80968431D01*
X158125001Y-80968431D01*
X165981569Y-80968431D01*
X165981569Y-87810769D01*
X165981569Y-88824999D01*
G37*
G36*
X174706709Y-71042586D02*
G01*
X174701808Y-71113538D01*
X174594667Y-71174498D01*
X174516807Y-71152171D01*
X174483786Y-71025836D01*
X174536729Y-70918210D01*
X174633442Y-70912102D01*
X174706709Y-71042586D01*
G37*
G36*
X173910070Y-70272184D02*
G01*
X173959667Y-70409950D01*
X173945670Y-70508613D01*
X173884876Y-70579849D01*
X173832817Y-70547664D01*
X173765802Y-70409950D01*
X173757397Y-70302491D01*
X173840594Y-70240050D01*
X173910070Y-70272184D01*
G37*
G36*
X174667882Y-70270995D02*
G01*
X174721667Y-70417029D01*
X174716994Y-70467846D01*
X174651158Y-70554914D01*
X174553330Y-70523276D01*
X174482626Y-70381673D01*
X174486733Y-70303741D01*
X174588459Y-70240050D01*
X174667882Y-70270995D01*
G37*
G36*
X175092061Y-71545832D02*
G01*
X175145001Y-71684197D01*
X175121429Y-71783275D01*
X175018001Y-71854097D01*
X174943940Y-71822563D01*
X174891001Y-71684197D01*
X174914573Y-71585120D01*
X175018001Y-71514298D01*
X175092061Y-71545832D01*
G37*
G36*
X175430728Y-71545832D02*
G01*
X175483667Y-71684197D01*
X175460096Y-71783275D01*
X175356667Y-71854097D01*
X175282607Y-71822563D01*
X175229667Y-71684197D01*
X175253239Y-71585120D01*
X175356667Y-71514298D01*
X175430728Y-71545832D01*
G37*
G36*
X175821339Y-71570872D02*
G01*
X175892042Y-71712474D01*
X175887935Y-71790406D01*
X175786209Y-71854097D01*
X175706786Y-71823153D01*
X175653001Y-71677118D01*
X175657675Y-71626302D01*
X175723510Y-71539233D01*
X175821339Y-71570872D01*
G37*
G36*
X176181968Y-71545489D02*
G01*
X176185533Y-71684197D01*
X176148816Y-71783659D01*
X176084602Y-71854097D01*
X176051749Y-71822395D01*
X176027953Y-71684197D01*
X176046950Y-71585282D01*
X176128884Y-71514298D01*
X176181968Y-71545489D01*
G37*
G36*
X176202878Y-70921744D02*
G01*
X176245667Y-71055436D01*
X176245613Y-71064139D01*
X176221452Y-71136169D01*
X176127554Y-71071660D01*
X176068883Y-71000229D01*
X176048738Y-70897026D01*
X176113911Y-70860756D01*
X176202878Y-70921744D01*
G37*
G36*
X176198153Y-70255186D02*
G01*
X176276285Y-70367475D01*
X176280272Y-70452839D01*
X176161001Y-70494900D01*
X176059637Y-70472633D01*
X176045716Y-70367475D01*
X176076589Y-70307423D01*
X176161001Y-70240050D01*
X176198153Y-70255186D01*
G37*
G36*
X174298334Y-70962124D02*
G01*
X174298334Y-70968974D01*
X174298334Y-71089548D01*
X174296141Y-71109632D01*
X174221159Y-71174498D01*
X174186380Y-71158382D01*
X174162965Y-71044738D01*
X174194927Y-70962518D01*
X174261886Y-70911092D01*
X174298334Y-70962124D01*
G37*
G36*
X174323068Y-70263400D02*
G01*
X174376317Y-70388712D01*
X174362639Y-70472124D01*
X174323734Y-70421575D01*
X174274339Y-70348313D01*
X174204715Y-70421575D01*
X174146893Y-70482945D01*
X174130297Y-70388712D01*
X174149298Y-70309446D01*
X174256001Y-70240050D01*
X174323068Y-70263400D01*
G37*
G36*
X175075930Y-70262872D02*
G01*
X175118429Y-70412139D01*
X175112462Y-70516228D01*
X175008411Y-70579849D01*
X174932123Y-70559112D01*
X174924276Y-70445477D01*
X174947171Y-70375903D01*
X174975667Y-70218944D01*
X174979690Y-70180647D01*
X175019243Y-70171579D01*
X175075930Y-70262872D01*
G37*
G36*
X175437998Y-70914310D02*
G01*
X175483667Y-71052087D01*
X175460749Y-71117083D01*
X175335501Y-71173197D01*
X175316520Y-71172923D01*
X175236499Y-71155381D01*
X175314334Y-71089548D01*
X175386035Y-71029349D01*
X175330504Y-71005899D01*
X175286957Y-70996340D01*
X175272854Y-70918263D01*
X175341780Y-70868403D01*
X175437998Y-70914310D01*
G37*
G36*
X175135179Y-70926728D02*
G01*
X175117568Y-71073563D01*
X175018001Y-71146182D01*
X174942510Y-71113412D01*
X174892297Y-70969203D01*
X174892497Y-70953618D01*
X174910691Y-70854248D01*
X174968389Y-70910742D01*
X174974435Y-70920162D01*
X175038256Y-70972971D01*
X175084271Y-70868267D01*
X175095492Y-70827776D01*
X175121500Y-70795948D01*
X175135179Y-70926728D01*
G37*
G36*
X175887142Y-71113538D02*
G01*
X175780001Y-71174498D01*
X175702141Y-71152171D01*
X175674670Y-71047074D01*
X175737667Y-71047074D01*
X175780001Y-71089548D01*
X175822334Y-71047074D01*
X175780001Y-71004599D01*
X175737667Y-71047074D01*
X175674670Y-71047074D01*
X175669119Y-71025836D01*
X175722062Y-70918210D01*
X175818776Y-70912102D01*
X175892042Y-71042586D01*
X175891732Y-71047074D01*
X175887142Y-71113538D01*
G37*
G36*
X173621541Y-70387160D02*
G01*
X173564556Y-70523216D01*
X173514788Y-70562758D01*
X173409372Y-70557943D01*
X173367001Y-70409950D01*
X173377106Y-70367475D01*
X173451667Y-70367475D01*
X173494001Y-70409950D01*
X173536334Y-70367475D01*
X173494001Y-70325000D01*
X173451667Y-70367475D01*
X173377106Y-70367475D01*
X173390573Y-70310872D01*
X173494001Y-70240050D01*
X173572575Y-70268577D01*
X173613413Y-70367475D01*
X173621541Y-70387160D01*
G37*
G36*
X175907541Y-70387160D02*
G01*
X175850556Y-70523216D01*
X175800788Y-70562758D01*
X175695372Y-70557943D01*
X175653001Y-70409950D01*
X175663106Y-70367475D01*
X175737667Y-70367475D01*
X175780001Y-70409950D01*
X175822334Y-70367475D01*
X175780001Y-70325000D01*
X175737667Y-70367475D01*
X175663106Y-70367475D01*
X175676573Y-70310872D01*
X175780001Y-70240050D01*
X175858575Y-70268577D01*
X175899413Y-70367475D01*
X175907541Y-70387160D01*
G37*
G36*
X175483667Y-70462826D02*
G01*
X175481158Y-70551144D01*
X175448681Y-70631405D01*
X175356667Y-70579849D01*
X175289399Y-70505950D01*
X175233840Y-70367475D01*
X175314334Y-70367475D01*
X175356667Y-70409950D01*
X175399001Y-70367475D01*
X175356667Y-70325000D01*
X175314334Y-70367475D01*
X175233840Y-70367475D01*
X175229667Y-70357073D01*
X175244301Y-70302705D01*
X175356667Y-70240050D01*
X175441258Y-70284250D01*
X175461023Y-70367475D01*
X175483667Y-70462826D01*
G37*
G36*
X180753213Y-66843523D02*
G01*
X180870216Y-66857832D01*
X180986418Y-66900347D01*
X181121866Y-66986434D01*
X181296603Y-67131459D01*
X181530674Y-67350788D01*
X181844125Y-67659790D01*
X182257001Y-68073829D01*
X183482477Y-69305602D01*
X184163556Y-69305602D01*
X184844635Y-69305602D01*
X185347334Y-69815301D01*
X185850033Y-70325000D01*
X185466358Y-70325000D01*
X185252100Y-70313148D01*
X185038216Y-70240420D01*
X184839334Y-70070150D01*
X184809066Y-70039251D01*
X184569601Y-69865557D01*
X184299653Y-69815301D01*
X184003320Y-69815301D01*
X184246667Y-70070150D01*
X184490015Y-70325000D01*
X184113567Y-70325000D01*
X183737118Y-70325000D01*
X182003001Y-68583528D01*
X180268883Y-66842057D01*
X180650204Y-66842057D01*
X180753213Y-66843523D01*
G37*
G36*
X180055667Y-70259133D02*
G01*
X180055667Y-71062523D01*
X180055637Y-71150631D01*
X180052766Y-71492597D01*
X180039830Y-71701641D01*
X180009283Y-71808516D01*
X179953578Y-71843974D01*
X179865167Y-71838768D01*
X179795044Y-71823281D01*
X179714379Y-71759007D01*
X179672039Y-71610705D01*
X179649641Y-71335443D01*
X179641054Y-71200281D01*
X179606834Y-70969953D01*
X179536394Y-70835100D01*
X179408297Y-70743107D01*
X179303506Y-70691661D01*
X179182568Y-70678519D01*
X179085323Y-70773299D01*
X178991811Y-70856805D01*
X178826626Y-70913604D01*
X178679760Y-70897302D01*
X178616334Y-70803680D01*
X178616358Y-70801700D01*
X178667366Y-70656043D01*
X178786824Y-70470244D01*
X178880156Y-70366674D01*
X179006839Y-70293330D01*
X179198235Y-70261599D01*
X179506491Y-70255954D01*
X180055667Y-70259133D01*
G37*
G36*
X186786668Y-71259448D02*
G01*
X187289367Y-71769147D01*
X186904609Y-71769147D01*
X186737815Y-71762504D01*
X186505058Y-71702343D01*
X186321001Y-71556773D01*
X186134307Y-71411710D01*
X185825817Y-71344398D01*
X185529484Y-71344398D01*
X185728334Y-71556773D01*
X185927185Y-71769147D01*
X185546185Y-71769147D01*
X185388479Y-71763107D01*
X185152479Y-71703330D01*
X184966334Y-71556773D01*
X184965173Y-71555536D01*
X184780529Y-71415812D01*
X184587446Y-71349905D01*
X184435350Y-71365147D01*
X184373667Y-71468867D01*
X184383210Y-71513512D01*
X184473317Y-71681422D01*
X184627667Y-71883593D01*
X184663909Y-71926198D01*
X184832511Y-72200687D01*
X184881667Y-72496006D01*
X184881667Y-72818161D01*
X184685711Y-72633453D01*
X184589776Y-72546882D01*
X184453683Y-72463217D01*
X184389663Y-72521831D01*
X184373667Y-72730177D01*
X184373668Y-72731466D01*
X184432626Y-73003534D01*
X184627667Y-73255769D01*
X184762018Y-73402818D01*
X184857638Y-73604594D01*
X184881667Y-73884890D01*
X184881667Y-74269849D01*
X184373667Y-73765468D01*
X183865667Y-73261088D01*
X183865667Y-72005418D01*
X183865667Y-70749749D01*
X185074818Y-70749749D01*
X186283968Y-70749749D01*
X186786668Y-71259448D01*
G37*
G36*
X181348462Y-70240108D02*
G01*
X181609916Y-70256862D01*
X181767520Y-70318801D01*
X181881070Y-70448265D01*
X181892041Y-70465458D01*
X181984462Y-70723168D01*
X181915562Y-70935458D01*
X181688016Y-71098794D01*
X181304501Y-71209641D01*
X181086973Y-71270046D01*
X180996653Y-71343790D01*
X181061396Y-71404269D01*
X181283334Y-71429348D01*
X181322287Y-71428561D01*
X181505259Y-71398537D01*
X181579667Y-71338490D01*
X181618661Y-71285581D01*
X181746845Y-71274513D01*
X181892706Y-71317637D01*
X181980494Y-71402801D01*
X181954704Y-71521292D01*
X181838959Y-71678888D01*
X181807257Y-71707030D01*
X181563356Y-71818970D01*
X181252340Y-71858854D01*
X180946594Y-71824444D01*
X180718501Y-71713506D01*
X180587401Y-71522840D01*
X180568906Y-71284174D01*
X180670707Y-71062364D01*
X180872506Y-70898433D01*
X181154006Y-70833398D01*
X181312543Y-70813451D01*
X181495001Y-70742040D01*
X181505978Y-70733739D01*
X181511974Y-70692415D01*
X181378864Y-70683287D01*
X181092834Y-70705084D01*
X180995455Y-70714079D01*
X180712366Y-70721878D01*
X180581078Y-70679382D01*
X180591365Y-70578201D01*
X180733001Y-70409950D01*
X180792262Y-70358619D01*
X181003464Y-70267149D01*
X181323716Y-70240050D01*
X181348462Y-70240108D01*
G37*
G36*
X177512341Y-69816198D02*
G01*
X177650031Y-69866015D01*
X177685001Y-70027676D01*
X177691067Y-70120029D01*
X177757474Y-70217193D01*
X177939001Y-70240050D01*
X178049455Y-70245122D01*
X178165663Y-70300647D01*
X178193001Y-70452425D01*
X178186935Y-70544778D01*
X178120528Y-70641942D01*
X177939001Y-70664799D01*
X177831090Y-70667816D01*
X177730689Y-70705007D01*
X177691613Y-70821604D01*
X177685001Y-71062836D01*
X177683289Y-71151554D01*
X177633676Y-71444966D01*
X177500909Y-71657485D01*
X177348264Y-71776934D01*
X177035242Y-71854097D01*
X176882273Y-71845846D01*
X176777405Y-71788010D01*
X176753667Y-71641722D01*
X176759733Y-71549369D01*
X176826141Y-71452205D01*
X177007667Y-71429348D01*
X177103492Y-71427187D01*
X177211791Y-71393475D01*
X177254304Y-71282140D01*
X177261667Y-71047074D01*
X177260232Y-70902857D01*
X177237832Y-70739864D01*
X177163856Y-70675881D01*
X177007667Y-70664799D01*
X176897213Y-70659728D01*
X176781005Y-70604203D01*
X176753667Y-70452425D01*
X176759733Y-70360071D01*
X176826141Y-70262908D01*
X177007667Y-70240050D01*
X177118122Y-70234978D01*
X177234330Y-70179454D01*
X177261667Y-70027676D01*
X177262561Y-69988538D01*
X177312212Y-69850387D01*
X177473334Y-69815301D01*
X177512341Y-69816198D01*
G37*
G36*
X180036852Y-67267785D02*
G01*
X180124846Y-67339827D01*
X180314266Y-67515192D01*
X180589272Y-67778574D01*
X180934022Y-68114667D01*
X181332676Y-68508167D01*
X181769393Y-68943769D01*
X181851637Y-69026212D01*
X182325081Y-69501549D01*
X182693815Y-69875332D01*
X182970923Y-70163635D01*
X183169495Y-70382530D01*
X183302616Y-70548090D01*
X183383373Y-70676390D01*
X183424854Y-70783503D01*
X183440145Y-70885501D01*
X183442334Y-70998458D01*
X183442334Y-71376185D01*
X183188334Y-71132023D01*
X182934334Y-70887862D01*
X182934334Y-71227661D01*
X182938730Y-71343691D01*
X183006655Y-71588994D01*
X183188334Y-71811622D01*
X183255564Y-71879985D01*
X183402144Y-72105995D01*
X183442334Y-72379689D01*
X183441210Y-72441651D01*
X183420358Y-72628414D01*
X183381497Y-72703595D01*
X183375807Y-72702397D01*
X183276264Y-72632063D01*
X183097357Y-72474763D01*
X182873497Y-72260511D01*
X182426334Y-71817426D01*
X182426334Y-71091352D01*
X182426334Y-70365277D01*
X181198667Y-69135702D01*
X181078657Y-69015410D01*
X180692475Y-68625449D01*
X180407917Y-68329789D01*
X180209598Y-68109016D01*
X180082133Y-67943713D01*
X180010136Y-67814464D01*
X179978220Y-67701854D01*
X179971001Y-67586467D01*
X179972052Y-67528220D01*
X179993444Y-67341917D01*
X180033726Y-67266806D01*
X180036852Y-67267785D01*
G37*
D14*
%TO.C,J5*%
X173080000Y-75380000D02*
X173080000Y-95920000D01*
X175730000Y-75380000D02*
X173080000Y-75380000D01*
X175730000Y-78030000D02*
X175730000Y-75380000D01*
X178380000Y-75380000D02*
X177000000Y-75380000D01*
X178380000Y-76760000D02*
X178380000Y-75380000D01*
X178380000Y-78030000D02*
X175730000Y-78030000D01*
X178380000Y-78030000D02*
X178380000Y-95920000D01*
X178380000Y-95920000D02*
X173080000Y-95920000D01*
D15*
%TO.C,U9*%
X161512500Y-78550000D02*
X168112500Y-78550000D01*
X168012500Y-68450000D02*
X161612500Y-68450000D01*
D11*
X171162500Y-69050000D02*
G75*
G02*
X170962500Y-69050000I-100000J0D01*
G01*
X170962500Y-69050000D02*
G75*
G02*
X171162500Y-69050000I100000J0D01*
G01*
D14*
%TO.C,TP1*%
X158025000Y-69100000D02*
G75*
G02*
X156625000Y-69100000I-700000J0D01*
G01*
X156625000Y-69100000D02*
G75*
G02*
X158025000Y-69100000I700000J0D01*
G01*
%TO.C,J6*%
X137780000Y-75280000D02*
X137780000Y-95820000D01*
X140430000Y-75280000D02*
X137780000Y-75280000D01*
X140430000Y-77930000D02*
X140430000Y-75280000D01*
X143080000Y-75280000D02*
X141700000Y-75280000D01*
X143080000Y-76660000D02*
X143080000Y-75280000D01*
X143080000Y-77930000D02*
X140430000Y-77930000D01*
X143080000Y-77930000D02*
X143080000Y-95820000D01*
X143080000Y-95820000D02*
X137780000Y-95820000D01*
%TD*%
M02*
