M48
; DRILL file {KiCad 9.0.7+dfsg-1} date 2026-03-28T18:55:19+0100
; FORMAT={-:-/ absolute / metric / decimal}
; #@! TF.CreationDate,2026-03-28T18:55:19+01:00
; #@! TF.GenerationSoftware,Kicad,Pcbnew,9.0.7+dfsg-1
; #@! TF.FileFunction,Plated,1,4,PTH
FMAT,2
METRIC
; #@! TA.AperFunction,Plated,PTH,ViaDrill
T1C0.250
; #@! TA.AperFunction,Plated,PTH,ComponentDrill
T2C0.950
; #@! TA.AperFunction,Plated,PTH,ComponentDrill
T3C1.000
; #@! TA.AperFunction,Plated,PTH,ComponentDrill
T4C1.200
%
G90
G05
T1
X129.084Y-101.34
X129.1Y-76.9
X129.109Y-96.692
X131.0Y-76.662
X131.1Y-97.8
X131.1Y-99.8
X132.08Y-99.8
X132.1Y-97.8
X132.1Y-99.8
X132.12Y-97.8
X133.163Y-99.913
X133.23Y-97.89
X134.198Y-100.252
X134.312Y-98.153
X135.121Y-100.789
X135.138Y-100.801
X135.34Y-98.581
X135.941Y-101.39
X136.288Y-99.165
X136.304Y-99.176
X136.76Y-101.991
X137.124Y-99.777
X137.58Y-102.592
X137.943Y-100.378
X138.399Y-103.193
X138.763Y-100.979
X139.219Y-103.794
X139.582Y-101.58
X140.038Y-104.395
X140.401Y-102.181
X140.858Y-104.996
X141.221Y-102.782
X141.677Y-105.597
X142.04Y-103.383
X142.497Y-106.198
X142.513Y-106.209
X142.86Y-103.984
X143.41Y-106.761
X143.663Y-104.573
X143.679Y-104.585
X144.382Y-107.166
X144.534Y-105.082
X145.405Y-107.414
X145.492Y-105.396
X146.136Y-79.236
X146.455Y-107.5
X146.475Y-105.5
X146.475Y-107.5
X146.495Y-105.5
X146.71Y-103.865
X148.35Y-103.5
X148.35Y-105.5
X148.35Y-107.5
X150.6Y-102.8
X154.6Y-67.6
X155.715Y-67.665
X156.25Y-93.6
X156.25Y-108.9
X157.68Y-100.9
X157.71Y-95.87
X158.78Y-103.1
X158.79Y-101.9
X158.82Y-96.99
X159.062Y-76.0
X159.062Y-77.75
X159.27Y-100.4
X160.1Y-101.4
X160.213Y-75.7
X160.213Y-76.8
X160.213Y-77.9
X160.67Y-102.5
X163.15Y-105.5
X163.588Y-80.312
X164.8Y-93.4
X164.86Y-100.4
X165.2Y-102.787
X165.22Y-95.307
X165.22Y-97.032
X165.36Y-100.9
X166.77Y-95.297
X166.77Y-97.022
X167.6Y-93.4
X167.8Y-100.85
X168.05Y-109.487
X168.66Y-102.63
X169.412Y-69.1
X169.412Y-76.8
X170.95Y-100.6
X171.05Y-109.487
X172.0Y-95.0
X174.05Y-109.487
X174.606Y-99.796
X179.3Y-88.1
X179.3Y-88.9
X182.16Y-97.62
X183.75Y-97.657
T2
X184.7Y-77.2
X184.7Y-79.7
X184.7Y-82.2
X184.7Y-88.4
X184.7Y-90.9
X184.7Y-93.4
X191.875Y-77.2
X191.875Y-79.7
X191.875Y-82.2
X191.9Y-88.4
X191.9Y-90.9
X191.9Y-93.4
T3
X139.15Y-81.56
X139.15Y-84.1
X139.15Y-86.64
X139.15Y-89.18
X139.15Y-91.72
X139.15Y-94.26
X139.15Y-96.8
X139.15Y-99.34
X141.69Y-81.56
X141.69Y-84.1
X141.69Y-86.64
X141.69Y-89.18
X141.69Y-91.72
X141.69Y-94.26
X141.69Y-96.8
X141.69Y-99.34
X174.45Y-81.66
X174.45Y-84.2
X174.45Y-86.74
X174.45Y-89.28
X174.45Y-91.82
X174.45Y-94.36
X174.45Y-96.9
X174.45Y-99.44
X176.99Y-81.66
X176.99Y-84.2
X176.99Y-86.74
X176.99Y-89.28
X176.99Y-91.82
X176.99Y-94.36
X176.99Y-96.9
X176.99Y-99.44
T4
X157.1Y-76.6
M30
