%TF.GenerationSoftware,KiCad,Pcbnew,9.0.0*%
%TF.CreationDate,2026-03-27T18:10:49+01:00*%
%TF.ProjectId,BACKPACK,4241434b-5041-4434-9b2e-6b696361645f,rev?*%
%TF.SameCoordinates,Original*%
%TF.FileFunction,Copper,L2,Inr*%
%TF.FilePolarity,Positive*%
%FSLAX46Y46*%
G04 Gerber Fmt 4.6, Leading zero omitted, Abs format (unit mm)*
G04 Created by KiCad (PCBNEW 9.0.0) date 2026-03-27 18:10:49*
%MOMM*%
%LPD*%
G01*
G04 APERTURE LIST*
G04 Aperture macros list*
%AMRoundRect*
0 Rectangle with rounded corners*
0 $1 Rounding radius*
0 $2 $3 $4 $5 $6 $7 $8 $9 X,Y pos of 4 corners*
0 Add a 4 corners polygon primitive as box body*
4,1,4,$2,$3,$4,$5,$6,$7,$8,$9,$2,$3,0*
0 Add four circle primitives for the rounded corners*
1,1,$1+$1,$2,$3*
1,1,$1+$1,$4,$5*
1,1,$1+$1,$6,$7*
1,1,$1+$1,$8,$9*
0 Add four rect primitives between the rounded corners*
20,1,$1+$1,$2,$3,$4,$5,0*
20,1,$1+$1,$4,$5,$6,$7,0*
20,1,$1+$1,$6,$7,$8,$9,0*
20,1,$1+$1,$8,$9,$2,$3,0*%
G04 Aperture macros list end*
%TA.AperFunction,ComponentPad*%
%ADD10RoundRect,0.250000X0.725000X-0.600000X0.725000X0.600000X-0.725000X0.600000X-0.725000X-0.600000X0*%
%TD*%
%TA.AperFunction,ComponentPad*%
%ADD11O,1.950000X1.700000*%
%TD*%
%TA.AperFunction,ComponentPad*%
%ADD12C,2.500000*%
%TD*%
%TA.AperFunction,ComponentPad*%
%ADD13R,1.700000X1.700000*%
%TD*%
%TA.AperFunction,ComponentPad*%
%ADD14C,1.700000*%
%TD*%
%TA.AperFunction,ViaPad*%
%ADD15C,0.450000*%
%TD*%
G04 APERTURE END LIST*
D10*
%TO.N,/CPU_SWDCLK*%
%TO.C,J2*%
X191875000Y-82200000D03*
D11*
%TO.N,/CPU_SWDIO*%
X191875000Y-79700000D03*
%TO.N,GND*%
X191875000Y-77200000D03*
%TD*%
D10*
%TO.N,/SWDIO*%
%TO.C,J3*%
X184700000Y-82200000D03*
D11*
%TO.N,/SWCLK*%
X184700000Y-79700000D03*
%TO.N,GND*%
X184700000Y-77200000D03*
%TD*%
D12*
%TO.N,Net-(U9-RF_IN)*%
%TO.C,ANT1*%
X157100000Y-76600000D03*
%TD*%
D10*
%TO.N,/UART1_RX_RADIO*%
%TO.C,J7*%
X191900000Y-93400000D03*
D11*
%TO.N,/UART1_TX_RADIO*%
X191900000Y-90900000D03*
%TO.N,GND*%
X191900000Y-88400000D03*
%TD*%
D10*
%TO.N,HIL_TX*%
%TO.C,J1*%
X184700000Y-93400000D03*
D11*
%TO.N,HIL_RX*%
X184700000Y-90900000D03*
%TO.N,GND*%
X184700000Y-88400000D03*
%TD*%
D13*
%TO.N,+3V3*%
%TO.C,J5*%
X177000000Y-76760000D03*
D14*
X174460000Y-76760000D03*
%TO.N,/PWM4*%
X177000000Y-79300000D03*
%TO.N,/PWM1*%
X174460000Y-79300000D03*
%TO.N,/PWM2*%
X177000000Y-81840000D03*
%TO.N,/PWM3*%
X174460000Y-81840000D03*
%TO.N,GND*%
X177000000Y-84380000D03*
%TO.N,/GPIO20*%
X174460000Y-84380000D03*
%TO.N,/RX_GPS*%
X177000000Y-86920000D03*
%TO.N,/TX_GPS*%
X174460000Y-86920000D03*
%TO.N,HIL_TX*%
X177000000Y-89460000D03*
%TO.N,HIL_RX*%
X174460000Y-89460000D03*
%TO.N,GND*%
X177000000Y-92000000D03*
X174460000Y-92000000D03*
%TO.N,/SDA_RADIO*%
X177000000Y-94540000D03*
%TO.N,/SCL_RADIO*%
X174460000Y-94540000D03*
%TD*%
D13*
%TO.N,+3V3*%
%TO.C,J6*%
X141700000Y-76660000D03*
D14*
X139160000Y-76660000D03*
%TO.N,/CPU_SWDCLK*%
X141700000Y-79200000D03*
%TO.N,PPS*%
X139160000Y-79200000D03*
%TO.N,/CPU_SWDIO*%
X141700000Y-81740000D03*
%TO.N,/BOOTSEL*%
X139160000Y-81740000D03*
%TO.N,/GPIO39*%
X141700000Y-84280000D03*
%TO.N,/RESET*%
X139160000Y-84280000D03*
%TO.N,/GPIO41*%
X141700000Y-86820000D03*
%TO.N,/GPIO42*%
X139160000Y-86820000D03*
%TO.N,/GPIO43*%
X141700000Y-89360000D03*
%TO.N,/GPIO44*%
X139160000Y-89360000D03*
%TO.N,/GPIO46*%
X141700000Y-91900000D03*
%TO.N,/GPIO45*%
X139160000Y-91900000D03*
%TO.N,GND*%
X141700000Y-94440000D03*
X139160000Y-94440000D03*
%TD*%
D15*
%TO.N,GND*%
X146014515Y-107412035D03*
X174606377Y-99795718D03*
X166770000Y-97022500D03*
X137324238Y-97300000D03*
X139731646Y-97314470D03*
X159062500Y-76000000D03*
X141865828Y-103263348D03*
X143051167Y-104448687D03*
X169412500Y-69100000D03*
X144829176Y-106226696D03*
X165220000Y-97032500D03*
X140680488Y-102078008D03*
X145007171Y-102162051D03*
X142736812Y-99891692D03*
X159062500Y-77750000D03*
X129084000Y-101340000D03*
X174050000Y-109487500D03*
X143871991Y-101026871D03*
X134901352Y-100300000D03*
X135718851Y-97300000D03*
X131700450Y-100300000D03*
X129109400Y-96691800D03*
X160212500Y-75700000D03*
X137302029Y-100300000D03*
X134101127Y-100300000D03*
X140087819Y-101485339D03*
X145421845Y-106819365D03*
X147511838Y-108000000D03*
X142458497Y-103856017D03*
X142169222Y-99324102D03*
X143304401Y-100459281D03*
X131000000Y-76662500D03*
X138902480Y-100300000D03*
X171050000Y-109487500D03*
X148350000Y-108000000D03*
X136521545Y-97300000D03*
X146709940Y-103864820D03*
X138929624Y-97300000D03*
X134113465Y-97300000D03*
X131705386Y-97300000D03*
X134916158Y-97300000D03*
X140460138Y-97628134D03*
X145574760Y-102729640D03*
X133000000Y-76875000D03*
X156249999Y-93600001D03*
X133300901Y-100300000D03*
X143643836Y-105041356D03*
X141601632Y-98756512D03*
X144236506Y-105634026D03*
X138126931Y-97300000D03*
X144439581Y-101594461D03*
X136501803Y-100300000D03*
X139495149Y-100892669D03*
X183750000Y-97657500D03*
X141034042Y-98188922D03*
X146142350Y-103297230D03*
X168050000Y-109487500D03*
X160212500Y-77900000D03*
X135701578Y-100300000D03*
X138102254Y-100300000D03*
X133310772Y-97300000D03*
X163150000Y-105500002D03*
X141273158Y-102670678D03*
X146685926Y-107900247D03*
X132508079Y-97300000D03*
X132500676Y-100300000D03*
%TO.N,Net-(BT1-+)*%
X172000000Y-95000000D03*
%TO.N,+3V3*%
X169412500Y-76800000D03*
X165220000Y-95307500D03*
X166770000Y-95297500D03*
X182160000Y-97620000D03*
%TO.N,/L_BLUE*%
X158820285Y-96990285D03*
X157710000Y-95870000D03*
%TO.N,Net-(U9-RF_IN)*%
X160212500Y-76800000D03*
%TO.N,/TX_GPS*%
X164860000Y-100400000D03*
X159270000Y-100400000D03*
%TO.N,/SDA_RADIO*%
X150600000Y-102800000D03*
%TO.N,/SCL_RADIO*%
X167600000Y-93400000D03*
X164800000Y-93400000D03*
X148350000Y-103500001D03*
%TO.N,/RX_GPS*%
X157680000Y-100900000D03*
X165360000Y-100900000D03*
%TO.N,unconnected-(U10-PA7{slash}SPI1_MOSI-Pad13)*%
X156249999Y-108900001D03*
%TO.N,/UART1_TX_RADIO*%
X160100000Y-101400000D03*
%TO.N,/UART1_RX_RADIO*%
X158790000Y-101900000D03*
%TO.N,/SWCLK*%
X165200000Y-102787500D03*
X158780000Y-103100000D03*
X167800000Y-100850000D03*
%TO.N,/SWDIO*%
X168660000Y-102630000D03*
X170950000Y-100350000D03*
X160670000Y-102500000D03*
%TD*%
%TA.AperFunction,Conductor*%
%TO.N,GND*%
G36*
X192252702Y-65625617D02*
G01*
X192669455Y-65643813D01*
X192680188Y-65644753D01*
X193091085Y-65698848D01*
X193101719Y-65700723D01*
X193506336Y-65790425D01*
X193516777Y-65793223D01*
X193912022Y-65917842D01*
X193922168Y-65921535D01*
X194305060Y-66080135D01*
X194314852Y-66084701D01*
X194331092Y-66093155D01*
X194682442Y-66276056D01*
X194691810Y-66281464D01*
X195041335Y-66504136D01*
X195050196Y-66510341D01*
X195378975Y-66762622D01*
X195387262Y-66769576D01*
X195692800Y-67049550D01*
X195700449Y-67057199D01*
X195980423Y-67362737D01*
X195987377Y-67371024D01*
X196239658Y-67699803D01*
X196245863Y-67708664D01*
X196468535Y-68058189D01*
X196473943Y-68067557D01*
X196665295Y-68435141D01*
X196669867Y-68444945D01*
X196828460Y-68827821D01*
X196832160Y-68837987D01*
X196956775Y-69233219D01*
X196959575Y-69243667D01*
X197049274Y-69648272D01*
X197051152Y-69658925D01*
X197105244Y-70069788D01*
X197106187Y-70080565D01*
X197124382Y-70497297D01*
X197124500Y-70502706D01*
X197124500Y-105497293D01*
X197124382Y-105502702D01*
X197106187Y-105919434D01*
X197105244Y-105930211D01*
X197051152Y-106341074D01*
X197049274Y-106351727D01*
X196959575Y-106756332D01*
X196956775Y-106766780D01*
X196832160Y-107162012D01*
X196828460Y-107172178D01*
X196669867Y-107555054D01*
X196665295Y-107564858D01*
X196473943Y-107932442D01*
X196468535Y-107941810D01*
X196245863Y-108291335D01*
X196239658Y-108300196D01*
X195987377Y-108628975D01*
X195980423Y-108637262D01*
X195700449Y-108942800D01*
X195692800Y-108950449D01*
X195387262Y-109230423D01*
X195378975Y-109237377D01*
X195050196Y-109489658D01*
X195041335Y-109495863D01*
X194691810Y-109718535D01*
X194682442Y-109723943D01*
X194314858Y-109915295D01*
X194305054Y-109919867D01*
X193922178Y-110078460D01*
X193912012Y-110082160D01*
X193516780Y-110206775D01*
X193506332Y-110209575D01*
X193101727Y-110299274D01*
X193091074Y-110301152D01*
X192680211Y-110355244D01*
X192669434Y-110356187D01*
X192252703Y-110374382D01*
X192247294Y-110374500D01*
X131502706Y-110374500D01*
X131497297Y-110374382D01*
X131080565Y-110356187D01*
X131069790Y-110355244D01*
X130976056Y-110342903D01*
X130658925Y-110301152D01*
X130648272Y-110299274D01*
X130243667Y-110209575D01*
X130233219Y-110206775D01*
X129837987Y-110082160D01*
X129827821Y-110078460D01*
X129444945Y-109919867D01*
X129435141Y-109915295D01*
X129067557Y-109723943D01*
X129058189Y-109718535D01*
X128708664Y-109495863D01*
X128699803Y-109489658D01*
X128371024Y-109237377D01*
X128362737Y-109230423D01*
X128057199Y-108950449D01*
X128049560Y-108942811D01*
X127959001Y-108843983D01*
X155824499Y-108843983D01*
X155824499Y-108956019D01*
X155853496Y-109064238D01*
X155909514Y-109161264D01*
X155988736Y-109240486D01*
X156085762Y-109296504D01*
X156193981Y-109325501D01*
X156193983Y-109325501D01*
X156306015Y-109325501D01*
X156306017Y-109325501D01*
X156414236Y-109296504D01*
X156511262Y-109240486D01*
X156590484Y-109161264D01*
X156646502Y-109064238D01*
X156675499Y-108956019D01*
X156675499Y-108843983D01*
X156646502Y-108735764D01*
X156590484Y-108638738D01*
X156511262Y-108559516D01*
X156414236Y-108503498D01*
X156306017Y-108474501D01*
X156193981Y-108474501D01*
X156085762Y-108503498D01*
X156085759Y-108503499D01*
X155988739Y-108559514D01*
X155988733Y-108559518D01*
X155909516Y-108638735D01*
X155909512Y-108638741D01*
X155853497Y-108735761D01*
X155853496Y-108735764D01*
X155824499Y-108843983D01*
X127959001Y-108843983D01*
X127770931Y-108638741D01*
X127769576Y-108637262D01*
X127762622Y-108628975D01*
X127510341Y-108300196D01*
X127504136Y-108291335D01*
X127281464Y-107941810D01*
X127276056Y-107932442D01*
X127084704Y-107564858D01*
X127080132Y-107555054D01*
X127031555Y-107437779D01*
X126921535Y-107172168D01*
X126917839Y-107162012D01*
X126910945Y-107140147D01*
X126793223Y-106766777D01*
X126790424Y-106756332D01*
X126745975Y-106555834D01*
X126700723Y-106351719D01*
X126698847Y-106341074D01*
X126698357Y-106337351D01*
X126644753Y-105930188D01*
X126643813Y-105919453D01*
X126642392Y-105886911D01*
X129274500Y-105886911D01*
X129274500Y-106113088D01*
X129274501Y-106113104D01*
X129304023Y-106337347D01*
X129362567Y-106555834D01*
X129449120Y-106764794D01*
X129449127Y-106764809D01*
X129562220Y-106960692D01*
X129699915Y-107140140D01*
X129699921Y-107140147D01*
X129859852Y-107300078D01*
X129859859Y-107300084D01*
X130039307Y-107437779D01*
X130235190Y-107550872D01*
X130235205Y-107550879D01*
X130268954Y-107564858D01*
X130444166Y-107637433D01*
X130662649Y-107695976D01*
X130886905Y-107725500D01*
X130886912Y-107725500D01*
X131113088Y-107725500D01*
X131113095Y-107725500D01*
X131337351Y-107695976D01*
X131555834Y-107637433D01*
X131764806Y-107550874D01*
X131960693Y-107437779D01*
X132140142Y-107300083D01*
X132300083Y-107140142D01*
X132437779Y-106960693D01*
X132550874Y-106764806D01*
X132637433Y-106555834D01*
X132695976Y-106337351D01*
X132725500Y-106113095D01*
X132725500Y-105886911D01*
X183274500Y-105886911D01*
X183274500Y-106113088D01*
X183274501Y-106113104D01*
X183304023Y-106337347D01*
X183362567Y-106555834D01*
X183449120Y-106764794D01*
X183449127Y-106764809D01*
X183562220Y-106960692D01*
X183699915Y-107140140D01*
X183699921Y-107140147D01*
X183859852Y-107300078D01*
X183859859Y-107300084D01*
X184039307Y-107437779D01*
X184235190Y-107550872D01*
X184235205Y-107550879D01*
X184268954Y-107564858D01*
X184444166Y-107637433D01*
X184662649Y-107695976D01*
X184886905Y-107725500D01*
X184886912Y-107725500D01*
X185113088Y-107725500D01*
X185113095Y-107725500D01*
X185337351Y-107695976D01*
X185555834Y-107637433D01*
X185764806Y-107550874D01*
X185960693Y-107437779D01*
X186140142Y-107300083D01*
X186300083Y-107140142D01*
X186437779Y-106960693D01*
X186550874Y-106764806D01*
X186637433Y-106555834D01*
X186695976Y-106337351D01*
X186725500Y-106113095D01*
X186725500Y-105886911D01*
X190774500Y-105886911D01*
X190774500Y-106113088D01*
X190774501Y-106113104D01*
X190804023Y-106337347D01*
X190862567Y-106555834D01*
X190949120Y-106764794D01*
X190949127Y-106764809D01*
X191062220Y-106960692D01*
X191199915Y-107140140D01*
X191199921Y-107140147D01*
X191359852Y-107300078D01*
X191359859Y-107300084D01*
X191539307Y-107437779D01*
X191735190Y-107550872D01*
X191735205Y-107550879D01*
X191768954Y-107564858D01*
X191944166Y-107637433D01*
X192162649Y-107695976D01*
X192386905Y-107725500D01*
X192386912Y-107725500D01*
X192613088Y-107725500D01*
X192613095Y-107725500D01*
X192837351Y-107695976D01*
X193055834Y-107637433D01*
X193264806Y-107550874D01*
X193460693Y-107437779D01*
X193640142Y-107300083D01*
X193800083Y-107140142D01*
X193937779Y-106960693D01*
X194050874Y-106764806D01*
X194137433Y-106555834D01*
X194195976Y-106337351D01*
X194225500Y-106113095D01*
X194225500Y-105886905D01*
X194195976Y-105662649D01*
X194137433Y-105444166D01*
X194050874Y-105235194D01*
X193937779Y-105039307D01*
X193800083Y-104859858D01*
X193800078Y-104859852D01*
X193640147Y-104699921D01*
X193640140Y-104699915D01*
X193460692Y-104562220D01*
X193264809Y-104449127D01*
X193264794Y-104449120D01*
X193055834Y-104362567D01*
X192837347Y-104304023D01*
X192613104Y-104274501D01*
X192613101Y-104274500D01*
X192613095Y-104274500D01*
X192386905Y-104274500D01*
X192386899Y-104274500D01*
X192386895Y-104274501D01*
X192162652Y-104304023D01*
X191944165Y-104362567D01*
X191735205Y-104449120D01*
X191735190Y-104449127D01*
X191539307Y-104562220D01*
X191359859Y-104699915D01*
X191359852Y-104699921D01*
X191199921Y-104859852D01*
X191199915Y-104859859D01*
X191062220Y-105039307D01*
X190949127Y-105235190D01*
X190949120Y-105235205D01*
X190862567Y-105444165D01*
X190804023Y-105662652D01*
X190774501Y-105886895D01*
X190774500Y-105886911D01*
X186725500Y-105886911D01*
X186725500Y-105886905D01*
X186695976Y-105662649D01*
X186637433Y-105444166D01*
X186550874Y-105235194D01*
X186437779Y-105039307D01*
X186300083Y-104859858D01*
X186300078Y-104859852D01*
X186140147Y-104699921D01*
X186140140Y-104699915D01*
X185960692Y-104562220D01*
X185764809Y-104449127D01*
X185764794Y-104449120D01*
X185555834Y-104362567D01*
X185337347Y-104304023D01*
X185113104Y-104274501D01*
X185113101Y-104274500D01*
X185113095Y-104274500D01*
X184886905Y-104274500D01*
X184886899Y-104274500D01*
X184886895Y-104274501D01*
X184662652Y-104304023D01*
X184444165Y-104362567D01*
X184235205Y-104449120D01*
X184235190Y-104449127D01*
X184039307Y-104562220D01*
X183859859Y-104699915D01*
X183859852Y-104699921D01*
X183699921Y-104859852D01*
X183699915Y-104859859D01*
X183562220Y-105039307D01*
X183449127Y-105235190D01*
X183449120Y-105235205D01*
X183362567Y-105444165D01*
X183304023Y-105662652D01*
X183274501Y-105886895D01*
X183274500Y-105886911D01*
X132725500Y-105886911D01*
X132725500Y-105886905D01*
X132695976Y-105662649D01*
X132637433Y-105444166D01*
X132550874Y-105235194D01*
X132437779Y-105039307D01*
X132300083Y-104859858D01*
X132300078Y-104859852D01*
X132140147Y-104699921D01*
X132140140Y-104699915D01*
X131960692Y-104562220D01*
X131764809Y-104449127D01*
X131764794Y-104449120D01*
X131555834Y-104362567D01*
X131337347Y-104304023D01*
X131113104Y-104274501D01*
X131113101Y-104274500D01*
X131113095Y-104274500D01*
X130886905Y-104274500D01*
X130886899Y-104274500D01*
X130886895Y-104274501D01*
X130662652Y-104304023D01*
X130444165Y-104362567D01*
X130235205Y-104449120D01*
X130235190Y-104449127D01*
X130039307Y-104562220D01*
X129859859Y-104699915D01*
X129859852Y-104699921D01*
X129699921Y-104859852D01*
X129699915Y-104859859D01*
X129562220Y-105039307D01*
X129449127Y-105235190D01*
X129449120Y-105235205D01*
X129362567Y-105444165D01*
X129304023Y-105662652D01*
X129274501Y-105886895D01*
X129274500Y-105886911D01*
X126642392Y-105886911D01*
X126625618Y-105502702D01*
X126625500Y-105497293D01*
X126625500Y-103443983D01*
X147924500Y-103443983D01*
X147924500Y-103556019D01*
X147953497Y-103664238D01*
X148009515Y-103761264D01*
X148088737Y-103840486D01*
X148185763Y-103896504D01*
X148293982Y-103925501D01*
X148293984Y-103925501D01*
X148406016Y-103925501D01*
X148406018Y-103925501D01*
X148514237Y-103896504D01*
X148611263Y-103840486D01*
X148690485Y-103761264D01*
X148746503Y-103664238D01*
X148775500Y-103556019D01*
X148775500Y-103443983D01*
X148746503Y-103335764D01*
X148690485Y-103238738D01*
X148611263Y-103159516D01*
X148514237Y-103103498D01*
X148406018Y-103074501D01*
X148293982Y-103074501D01*
X148185763Y-103103498D01*
X148185760Y-103103499D01*
X148088740Y-103159514D01*
X148088734Y-103159518D01*
X148009517Y-103238735D01*
X148009513Y-103238741D01*
X147953498Y-103335761D01*
X147953497Y-103335764D01*
X147924500Y-103443983D01*
X126625500Y-103443983D01*
X126625500Y-102743982D01*
X150174500Y-102743982D01*
X150174500Y-102856018D01*
X150200148Y-102951736D01*
X150203497Y-102964236D01*
X150203498Y-102964239D01*
X150207104Y-102970485D01*
X150259515Y-103061263D01*
X150338737Y-103140485D01*
X150435763Y-103196503D01*
X150543982Y-103225500D01*
X150543984Y-103225500D01*
X150656016Y-103225500D01*
X150656018Y-103225500D01*
X150764237Y-103196503D01*
X150861263Y-103140485D01*
X150940485Y-103061263D01*
X150950462Y-103043982D01*
X158354500Y-103043982D01*
X158354500Y-103156018D01*
X158383497Y-103264237D01*
X158439515Y-103361263D01*
X158518737Y-103440485D01*
X158615763Y-103496503D01*
X158723982Y-103525500D01*
X158723984Y-103525500D01*
X158836016Y-103525500D01*
X158836018Y-103525500D01*
X158944237Y-103496503D01*
X159041263Y-103440485D01*
X159120485Y-103361263D01*
X159176503Y-103264237D01*
X159205500Y-103156018D01*
X159205500Y-103043982D01*
X159176503Y-102935763D01*
X159120485Y-102838737D01*
X159041263Y-102759515D01*
X158944237Y-102703497D01*
X158836018Y-102674500D01*
X158723982Y-102674500D01*
X158615763Y-102703497D01*
X158615760Y-102703498D01*
X158518740Y-102759513D01*
X158518734Y-102759517D01*
X158439517Y-102838734D01*
X158439513Y-102838740D01*
X158383498Y-102935760D01*
X158383497Y-102935763D01*
X158354500Y-103043982D01*
X150950462Y-103043982D01*
X150996503Y-102964237D01*
X151025500Y-102856018D01*
X151025500Y-102743982D01*
X150996503Y-102635763D01*
X150940485Y-102538737D01*
X150861263Y-102459515D01*
X150834359Y-102443982D01*
X160244500Y-102443982D01*
X160244500Y-102556018D01*
X160273497Y-102664237D01*
X160329515Y-102761263D01*
X160408737Y-102840485D01*
X160505763Y-102896503D01*
X160613982Y-102925500D01*
X160613984Y-102925500D01*
X160726016Y-102925500D01*
X160726018Y-102925500D01*
X160834237Y-102896503D01*
X160931263Y-102840485D01*
X161010485Y-102761263D01*
X161027679Y-102731482D01*
X164774500Y-102731482D01*
X164774500Y-102843518D01*
X164803497Y-102951737D01*
X164859515Y-103048763D01*
X164938737Y-103127985D01*
X165035763Y-103184003D01*
X165143982Y-103213000D01*
X165143984Y-103213000D01*
X165256016Y-103213000D01*
X165256018Y-103213000D01*
X165364237Y-103184003D01*
X165461263Y-103127985D01*
X165540485Y-103048763D01*
X165596503Y-102951737D01*
X165625500Y-102843518D01*
X165625500Y-102731482D01*
X165596503Y-102623263D01*
X165568051Y-102573982D01*
X168234500Y-102573982D01*
X168234500Y-102686018D01*
X168263497Y-102794237D01*
X168319515Y-102891263D01*
X168398737Y-102970485D01*
X168495763Y-103026503D01*
X168603982Y-103055500D01*
X168603984Y-103055500D01*
X168716016Y-103055500D01*
X168716018Y-103055500D01*
X168824237Y-103026503D01*
X168921263Y-102970485D01*
X169000485Y-102891263D01*
X169056503Y-102794237D01*
X169085500Y-102686018D01*
X169085500Y-102573982D01*
X169056503Y-102465763D01*
X169000485Y-102368737D01*
X168921263Y-102289515D01*
X168836341Y-102240485D01*
X168824239Y-102233498D01*
X168824238Y-102233497D01*
X168824237Y-102233497D01*
X168716018Y-102204500D01*
X168603982Y-102204500D01*
X168495763Y-102233497D01*
X168495760Y-102233498D01*
X168398740Y-102289513D01*
X168398734Y-102289517D01*
X168319517Y-102368734D01*
X168319513Y-102368740D01*
X168263498Y-102465760D01*
X168263497Y-102465763D01*
X168234500Y-102573982D01*
X165568051Y-102573982D01*
X165540485Y-102526237D01*
X165461263Y-102447015D01*
X165364237Y-102390997D01*
X165256018Y-102362000D01*
X165143982Y-102362000D01*
X165035763Y-102390997D01*
X165035760Y-102390998D01*
X164938740Y-102447013D01*
X164938734Y-102447017D01*
X164859517Y-102526234D01*
X164859513Y-102526240D01*
X164803498Y-102623260D01*
X164803498Y-102623261D01*
X164803497Y-102623263D01*
X164774500Y-102731482D01*
X161027679Y-102731482D01*
X161066503Y-102664237D01*
X161095500Y-102556018D01*
X161095500Y-102443982D01*
X161066503Y-102335763D01*
X161010485Y-102238737D01*
X160931263Y-102159515D01*
X160834237Y-102103497D01*
X160726018Y-102074500D01*
X160613982Y-102074500D01*
X160505763Y-102103497D01*
X160505760Y-102103498D01*
X160408740Y-102159513D01*
X160408734Y-102159517D01*
X160329517Y-102238734D01*
X160329513Y-102238740D01*
X160273498Y-102335760D01*
X160273497Y-102335763D01*
X160244500Y-102443982D01*
X150834359Y-102443982D01*
X150764237Y-102403497D01*
X150656018Y-102374500D01*
X150543982Y-102374500D01*
X150435763Y-102403497D01*
X150435760Y-102403498D01*
X150338740Y-102459513D01*
X150338734Y-102459517D01*
X150259517Y-102538734D01*
X150259513Y-102538740D01*
X150203498Y-102635760D01*
X150203497Y-102635763D01*
X150174500Y-102743982D01*
X126625500Y-102743982D01*
X126625500Y-101843982D01*
X158364500Y-101843982D01*
X158364500Y-101956018D01*
X158393497Y-102064237D01*
X158449515Y-102161263D01*
X158528737Y-102240485D01*
X158625763Y-102296503D01*
X158733982Y-102325500D01*
X158733984Y-102325500D01*
X158846016Y-102325500D01*
X158846018Y-102325500D01*
X158954237Y-102296503D01*
X159051263Y-102240485D01*
X159130485Y-102161263D01*
X159186503Y-102064237D01*
X159215500Y-101956018D01*
X159215500Y-101843982D01*
X159186503Y-101735763D01*
X159130485Y-101638737D01*
X159051263Y-101559515D01*
X158954237Y-101503497D01*
X158846018Y-101474500D01*
X158733982Y-101474500D01*
X158625763Y-101503497D01*
X158625760Y-101503498D01*
X158528740Y-101559513D01*
X158528734Y-101559517D01*
X158449517Y-101638734D01*
X158449513Y-101638740D01*
X158393498Y-101735760D01*
X158393497Y-101735763D01*
X158364500Y-101843982D01*
X126625500Y-101843982D01*
X126625500Y-101343982D01*
X159674500Y-101343982D01*
X159674500Y-101456018D01*
X159703497Y-101564237D01*
X159759515Y-101661263D01*
X159838737Y-101740485D01*
X159935763Y-101796503D01*
X160043982Y-101825500D01*
X160043984Y-101825500D01*
X160156016Y-101825500D01*
X160156018Y-101825500D01*
X160264237Y-101796503D01*
X160361263Y-101740485D01*
X160440485Y-101661263D01*
X160496503Y-101564237D01*
X160525500Y-101456018D01*
X160525500Y-101343982D01*
X160496503Y-101235763D01*
X160440485Y-101138737D01*
X160361263Y-101059515D01*
X160282839Y-101014237D01*
X160264239Y-101003498D01*
X160264238Y-101003497D01*
X160264237Y-101003497D01*
X160156018Y-100974500D01*
X160043982Y-100974500D01*
X159935763Y-101003497D01*
X159935760Y-101003498D01*
X159838740Y-101059513D01*
X159838734Y-101059517D01*
X159759517Y-101138734D01*
X159759513Y-101138740D01*
X159703498Y-101235760D01*
X159703497Y-101235763D01*
X159674500Y-101343982D01*
X126625500Y-101343982D01*
X126625500Y-100843982D01*
X157254500Y-100843982D01*
X157254500Y-100956018D01*
X157283497Y-101064237D01*
X157339515Y-101161263D01*
X157418737Y-101240485D01*
X157515763Y-101296503D01*
X157623982Y-101325500D01*
X157623984Y-101325500D01*
X157736016Y-101325500D01*
X157736018Y-101325500D01*
X157844237Y-101296503D01*
X157941263Y-101240485D01*
X158020485Y-101161263D01*
X158076503Y-101064237D01*
X158105500Y-100956018D01*
X158105500Y-100843982D01*
X158076503Y-100735763D01*
X158020485Y-100638737D01*
X157941263Y-100559515D01*
X157862839Y-100514237D01*
X157844239Y-100503498D01*
X157844238Y-100503497D01*
X157844237Y-100503497D01*
X157736018Y-100474500D01*
X157623982Y-100474500D01*
X157515763Y-100503497D01*
X157515760Y-100503498D01*
X157418740Y-100559513D01*
X157418734Y-100559517D01*
X157339517Y-100638734D01*
X157339513Y-100638740D01*
X157283498Y-100735760D01*
X157283497Y-100735763D01*
X157254500Y-100843982D01*
X126625500Y-100843982D01*
X126625500Y-100343982D01*
X158844500Y-100343982D01*
X158844500Y-100456018D01*
X158873497Y-100564237D01*
X158929515Y-100661263D01*
X159008737Y-100740485D01*
X159105763Y-100796503D01*
X159213982Y-100825500D01*
X159213984Y-100825500D01*
X159326016Y-100825500D01*
X159326018Y-100825500D01*
X159434237Y-100796503D01*
X159531263Y-100740485D01*
X159610485Y-100661263D01*
X159666503Y-100564237D01*
X159695500Y-100456018D01*
X159695500Y-100343982D01*
X164434500Y-100343982D01*
X164434500Y-100456018D01*
X164463497Y-100564237D01*
X164519515Y-100661263D01*
X164598737Y-100740485D01*
X164695763Y-100796503D01*
X164803982Y-100825500D01*
X164803984Y-100825500D01*
X164810500Y-100825500D01*
X164877539Y-100845185D01*
X164923294Y-100897989D01*
X164934500Y-100949500D01*
X164934500Y-100956018D01*
X164963497Y-101064237D01*
X165019515Y-101161263D01*
X165098737Y-101240485D01*
X165195763Y-101296503D01*
X165303982Y-101325500D01*
X165303984Y-101325500D01*
X165416016Y-101325500D01*
X165416018Y-101325500D01*
X165524237Y-101296503D01*
X165621263Y-101240485D01*
X165700485Y-101161263D01*
X165756503Y-101064237D01*
X165785500Y-100956018D01*
X165785500Y-100843982D01*
X165772103Y-100793982D01*
X167374500Y-100793982D01*
X167374500Y-100906018D01*
X167403497Y-101014237D01*
X167459515Y-101111263D01*
X167538737Y-101190485D01*
X167635763Y-101246503D01*
X167743982Y-101275500D01*
X167743984Y-101275500D01*
X167856016Y-101275500D01*
X167856018Y-101275500D01*
X167964237Y-101246503D01*
X168061263Y-101190485D01*
X168140485Y-101111263D01*
X168196503Y-101014237D01*
X168225500Y-100906018D01*
X168225500Y-100793982D01*
X168196503Y-100685763D01*
X168140485Y-100588737D01*
X168061263Y-100509515D01*
X167996579Y-100472169D01*
X167964239Y-100453498D01*
X167964238Y-100453497D01*
X167964237Y-100453497D01*
X167856018Y-100424500D01*
X167743982Y-100424500D01*
X167635763Y-100453497D01*
X167635760Y-100453498D01*
X167538740Y-100509513D01*
X167538734Y-100509517D01*
X167459517Y-100588734D01*
X167459513Y-100588740D01*
X167403498Y-100685760D01*
X167403497Y-100685763D01*
X167374500Y-100793982D01*
X165772103Y-100793982D01*
X165756503Y-100735763D01*
X165700485Y-100638737D01*
X165621263Y-100559515D01*
X165542839Y-100514237D01*
X165524239Y-100503498D01*
X165524238Y-100503497D01*
X165524237Y-100503497D01*
X165416018Y-100474500D01*
X165409500Y-100474500D01*
X165342461Y-100454815D01*
X165296706Y-100402011D01*
X165287320Y-100371670D01*
X165285500Y-100361167D01*
X165285500Y-100343982D01*
X165272103Y-100293982D01*
X170524500Y-100293982D01*
X170524500Y-100406018D01*
X170553497Y-100514237D01*
X170609515Y-100611263D01*
X170688737Y-100690485D01*
X170785763Y-100746503D01*
X170893982Y-100775500D01*
X170893984Y-100775500D01*
X171006016Y-100775500D01*
X171006018Y-100775500D01*
X171114237Y-100746503D01*
X171211263Y-100690485D01*
X171290485Y-100611263D01*
X171346503Y-100514237D01*
X171375500Y-100406018D01*
X171375500Y-100293982D01*
X171346503Y-100185763D01*
X171290485Y-100088737D01*
X171211263Y-100009515D01*
X171114237Y-99953497D01*
X171006018Y-99924500D01*
X170893982Y-99924500D01*
X170785763Y-99953497D01*
X170785760Y-99953498D01*
X170688740Y-100009513D01*
X170688734Y-100009517D01*
X170609517Y-100088734D01*
X170609513Y-100088740D01*
X170553498Y-100185760D01*
X170553497Y-100185763D01*
X170524500Y-100293982D01*
X165272103Y-100293982D01*
X165256503Y-100235763D01*
X165200485Y-100138737D01*
X165121263Y-100059515D01*
X165034664Y-100009517D01*
X165024239Y-100003498D01*
X165024238Y-100003497D01*
X165024237Y-100003497D01*
X164916018Y-99974500D01*
X164803982Y-99974500D01*
X164695763Y-100003497D01*
X164695760Y-100003498D01*
X164598740Y-100059513D01*
X164598734Y-100059517D01*
X164519517Y-100138734D01*
X164519513Y-100138740D01*
X164463498Y-100235760D01*
X164463497Y-100235763D01*
X164434500Y-100343982D01*
X159695500Y-100343982D01*
X159666503Y-100235763D01*
X159610485Y-100138737D01*
X159531263Y-100059515D01*
X159444664Y-100009517D01*
X159434239Y-100003498D01*
X159434238Y-100003497D01*
X159434237Y-100003497D01*
X159326018Y-99974500D01*
X159213982Y-99974500D01*
X159105763Y-100003497D01*
X159105760Y-100003498D01*
X159008740Y-100059513D01*
X159008734Y-100059517D01*
X158929517Y-100138734D01*
X158929513Y-100138740D01*
X158873498Y-100235760D01*
X158873497Y-100235763D01*
X158844500Y-100343982D01*
X126625500Y-100343982D01*
X126625500Y-97563982D01*
X181734500Y-97563982D01*
X181734500Y-97676018D01*
X181763497Y-97784237D01*
X181819515Y-97881263D01*
X181898737Y-97960485D01*
X181995763Y-98016503D01*
X182103982Y-98045500D01*
X182103984Y-98045500D01*
X182216016Y-98045500D01*
X182216018Y-98045500D01*
X182324237Y-98016503D01*
X182421263Y-97960485D01*
X182500485Y-97881263D01*
X182556503Y-97784237D01*
X182585500Y-97676018D01*
X182585500Y-97563982D01*
X182556503Y-97455763D01*
X182500485Y-97358737D01*
X182421263Y-97279515D01*
X182324237Y-97223497D01*
X182216018Y-97194500D01*
X182103982Y-97194500D01*
X181995763Y-97223497D01*
X181995760Y-97223498D01*
X181898740Y-97279513D01*
X181898734Y-97279517D01*
X181819517Y-97358734D01*
X181819513Y-97358740D01*
X181763498Y-97455760D01*
X181763497Y-97455763D01*
X181734500Y-97563982D01*
X126625500Y-97563982D01*
X126625500Y-96934267D01*
X158394785Y-96934267D01*
X158394785Y-97046303D01*
X158423782Y-97154522D01*
X158479800Y-97251548D01*
X158559022Y-97330770D01*
X158656048Y-97386788D01*
X158764267Y-97415785D01*
X158764269Y-97415785D01*
X158876301Y-97415785D01*
X158876303Y-97415785D01*
X158984522Y-97386788D01*
X159081548Y-97330770D01*
X159160770Y-97251548D01*
X159216788Y-97154522D01*
X159245785Y-97046303D01*
X159245785Y-96934267D01*
X159216788Y-96826048D01*
X159160770Y-96729022D01*
X159081548Y-96649800D01*
X158984522Y-96593782D01*
X158876303Y-96564785D01*
X158764267Y-96564785D01*
X158656048Y-96593782D01*
X158656045Y-96593783D01*
X158559025Y-96649798D01*
X158559019Y-96649802D01*
X158479802Y-96729019D01*
X158479798Y-96729025D01*
X158423783Y-96826045D01*
X158423782Y-96826048D01*
X158394785Y-96934267D01*
X126625500Y-96934267D01*
X126625500Y-95813982D01*
X157284500Y-95813982D01*
X157284500Y-95926018D01*
X157313497Y-96034237D01*
X157369515Y-96131263D01*
X157448737Y-96210485D01*
X157545763Y-96266503D01*
X157653982Y-96295500D01*
X157653984Y-96295500D01*
X157766016Y-96295500D01*
X157766018Y-96295500D01*
X157874237Y-96266503D01*
X157971263Y-96210485D01*
X158050485Y-96131263D01*
X158106503Y-96034237D01*
X158135500Y-95926018D01*
X158135500Y-95813982D01*
X158106503Y-95705763D01*
X158050485Y-95608737D01*
X157971263Y-95529515D01*
X157874237Y-95473497D01*
X157766018Y-95444500D01*
X157653982Y-95444500D01*
X157545763Y-95473497D01*
X157545760Y-95473498D01*
X157448740Y-95529513D01*
X157448734Y-95529517D01*
X157369517Y-95608734D01*
X157369513Y-95608740D01*
X157313498Y-95705760D01*
X157313497Y-95705763D01*
X157284500Y-95813982D01*
X126625500Y-95813982D01*
X126625500Y-94333753D01*
X137810000Y-94333753D01*
X137810000Y-94546246D01*
X137843242Y-94756127D01*
X137843242Y-94756130D01*
X137908904Y-94958217D01*
X138005375Y-95147550D01*
X138044728Y-95201716D01*
X138677037Y-94569408D01*
X138694075Y-94632993D01*
X138759901Y-94747007D01*
X138852993Y-94840099D01*
X138967007Y-94905925D01*
X139030590Y-94922962D01*
X138398282Y-95555269D01*
X138398282Y-95555270D01*
X138452449Y-95594624D01*
X138641782Y-95691095D01*
X138843870Y-95756757D01*
X139053754Y-95790000D01*
X139266246Y-95790000D01*
X139476127Y-95756757D01*
X139476130Y-95756757D01*
X139678217Y-95691095D01*
X139867554Y-95594622D01*
X139921716Y-95555270D01*
X139921717Y-95555270D01*
X139289408Y-94922962D01*
X139352993Y-94905925D01*
X139467007Y-94840099D01*
X139560099Y-94747007D01*
X139625925Y-94632993D01*
X139642962Y-94569408D01*
X140275270Y-95201717D01*
X140275270Y-95201716D01*
X140314622Y-95147554D01*
X140319514Y-95137954D01*
X140367488Y-95087157D01*
X140435308Y-95070361D01*
X140501444Y-95092897D01*
X140540486Y-95137954D01*
X140545375Y-95147550D01*
X140584728Y-95201716D01*
X141217037Y-94569408D01*
X141234075Y-94632993D01*
X141299901Y-94747007D01*
X141392993Y-94840099D01*
X141507007Y-94905925D01*
X141570590Y-94922962D01*
X140938282Y-95555269D01*
X140938282Y-95555270D01*
X140992449Y-95594624D01*
X141181782Y-95691095D01*
X141383870Y-95756757D01*
X141593754Y-95790000D01*
X141806246Y-95790000D01*
X142016127Y-95756757D01*
X142016130Y-95756757D01*
X142218217Y-95691095D01*
X142407554Y-95594622D01*
X142461716Y-95555270D01*
X142461717Y-95555270D01*
X142157929Y-95251482D01*
X164794500Y-95251482D01*
X164794500Y-95363518D01*
X164823497Y-95471737D01*
X164879515Y-95568763D01*
X164958737Y-95647985D01*
X165055763Y-95704003D01*
X165163982Y-95733000D01*
X165163984Y-95733000D01*
X165276016Y-95733000D01*
X165276018Y-95733000D01*
X165384237Y-95704003D01*
X165481263Y-95647985D01*
X165560485Y-95568763D01*
X165616503Y-95471737D01*
X165645500Y-95363518D01*
X165645500Y-95251482D01*
X165642821Y-95241482D01*
X166344500Y-95241482D01*
X166344500Y-95353518D01*
X166368879Y-95444500D01*
X166373497Y-95461736D01*
X166373498Y-95461739D01*
X166379272Y-95471739D01*
X166429515Y-95558763D01*
X166508737Y-95637985D01*
X166605763Y-95694003D01*
X166713982Y-95723000D01*
X166713984Y-95723000D01*
X166826016Y-95723000D01*
X166826018Y-95723000D01*
X166934237Y-95694003D01*
X167031263Y-95637985D01*
X167110485Y-95558763D01*
X167166503Y-95461737D01*
X167195500Y-95353518D01*
X167195500Y-95241482D01*
X167166503Y-95133263D01*
X167110485Y-95036237D01*
X167031263Y-94957015D01*
X167008689Y-94943982D01*
X171574500Y-94943982D01*
X171574500Y-95056018D01*
X171603497Y-95164237D01*
X171659515Y-95261263D01*
X171738737Y-95340485D01*
X171835763Y-95396503D01*
X171943982Y-95425500D01*
X171943984Y-95425500D01*
X172056016Y-95425500D01*
X172056018Y-95425500D01*
X172164237Y-95396503D01*
X172261263Y-95340485D01*
X172340485Y-95261263D01*
X172396503Y-95164237D01*
X172425500Y-95056018D01*
X172425500Y-94943982D01*
X172396503Y-94835763D01*
X172340485Y-94738737D01*
X172261263Y-94659515D01*
X172164237Y-94603497D01*
X172056018Y-94574500D01*
X171943982Y-94574500D01*
X171835763Y-94603497D01*
X171835760Y-94603498D01*
X171738740Y-94659513D01*
X171738734Y-94659517D01*
X171659517Y-94738734D01*
X171659513Y-94738740D01*
X171603498Y-94835760D01*
X171603497Y-94835763D01*
X171574500Y-94943982D01*
X167008689Y-94943982D01*
X166934237Y-94900997D01*
X166826018Y-94872000D01*
X166713982Y-94872000D01*
X166605763Y-94900997D01*
X166605760Y-94900998D01*
X166508740Y-94957013D01*
X166508734Y-94957017D01*
X166429517Y-95036234D01*
X166429513Y-95036240D01*
X166373498Y-95133260D01*
X166373497Y-95133263D01*
X166344500Y-95241482D01*
X165642821Y-95241482D01*
X165616503Y-95143263D01*
X165560485Y-95046237D01*
X165481263Y-94967015D01*
X165384237Y-94910997D01*
X165276018Y-94882000D01*
X165163982Y-94882000D01*
X165055763Y-94910997D01*
X165055760Y-94910998D01*
X164958740Y-94967013D01*
X164958734Y-94967017D01*
X164879517Y-95046234D01*
X164879513Y-95046240D01*
X164823498Y-95143260D01*
X164823497Y-95143263D01*
X164794500Y-95251482D01*
X142157929Y-95251482D01*
X141829408Y-94922962D01*
X141892993Y-94905925D01*
X142007007Y-94840099D01*
X142100099Y-94747007D01*
X142165925Y-94632993D01*
X142182962Y-94569409D01*
X142815270Y-95201717D01*
X142815270Y-95201716D01*
X142837974Y-95170469D01*
X142854622Y-95147554D01*
X142951095Y-94958217D01*
X143016757Y-94756130D01*
X143016757Y-94756127D01*
X143050000Y-94546246D01*
X143050000Y-94333753D01*
X143016757Y-94123872D01*
X143016757Y-94123869D01*
X142951095Y-93921782D01*
X142854624Y-93732449D01*
X142815270Y-93678282D01*
X142815269Y-93678282D01*
X142182962Y-94310590D01*
X142165925Y-94247007D01*
X142100099Y-94132993D01*
X142007007Y-94039901D01*
X141892993Y-93974075D01*
X141829409Y-93957037D01*
X142442462Y-93343982D01*
X164374500Y-93343982D01*
X164374500Y-93456018D01*
X164403497Y-93564237D01*
X164459515Y-93661263D01*
X164538737Y-93740485D01*
X164635763Y-93796503D01*
X164743982Y-93825500D01*
X164743984Y-93825500D01*
X164856016Y-93825500D01*
X164856018Y-93825500D01*
X164964237Y-93796503D01*
X165061263Y-93740485D01*
X165140485Y-93661263D01*
X165196503Y-93564237D01*
X165225500Y-93456018D01*
X165225500Y-93343982D01*
X167174500Y-93343982D01*
X167174500Y-93456018D01*
X167203497Y-93564237D01*
X167259515Y-93661263D01*
X167338737Y-93740485D01*
X167435763Y-93796503D01*
X167543982Y-93825500D01*
X167543984Y-93825500D01*
X167656016Y-93825500D01*
X167656018Y-93825500D01*
X167764237Y-93796503D01*
X167861263Y-93740485D01*
X167940485Y-93661263D01*
X167996503Y-93564237D01*
X168025500Y-93456018D01*
X168025500Y-93343982D01*
X167996503Y-93235763D01*
X167940485Y-93138737D01*
X167861263Y-93059515D01*
X167796579Y-93022169D01*
X167764239Y-93003498D01*
X167764238Y-93003497D01*
X167764237Y-93003497D01*
X167656018Y-92974500D01*
X167543982Y-92974500D01*
X167435763Y-93003497D01*
X167435760Y-93003498D01*
X167338740Y-93059513D01*
X167338734Y-93059517D01*
X167259517Y-93138734D01*
X167259513Y-93138740D01*
X167203498Y-93235760D01*
X167203497Y-93235763D01*
X167174500Y-93343982D01*
X165225500Y-93343982D01*
X165196503Y-93235763D01*
X165140485Y-93138737D01*
X165061263Y-93059515D01*
X164996579Y-93022169D01*
X164964239Y-93003498D01*
X164964238Y-93003497D01*
X164964237Y-93003497D01*
X164856018Y-92974500D01*
X164743982Y-92974500D01*
X164635763Y-93003497D01*
X164635760Y-93003498D01*
X164538740Y-93059513D01*
X164538734Y-93059517D01*
X164459517Y-93138734D01*
X164459513Y-93138740D01*
X164403498Y-93235760D01*
X164403497Y-93235763D01*
X164374500Y-93343982D01*
X142442462Y-93343982D01*
X142461716Y-93324728D01*
X142407550Y-93285375D01*
X142218216Y-93188904D01*
X142042026Y-93131656D01*
X141984350Y-93092218D01*
X141957152Y-93027860D01*
X141969067Y-92959013D01*
X142016311Y-92907538D01*
X142032882Y-92899168D01*
X142197598Y-92830941D01*
X142369655Y-92715977D01*
X142515977Y-92569655D01*
X142630941Y-92397598D01*
X142710130Y-92206420D01*
X142750500Y-92003465D01*
X142750500Y-91893753D01*
X173110000Y-91893753D01*
X173110000Y-92106246D01*
X173143242Y-92316127D01*
X173143242Y-92316130D01*
X173208904Y-92518217D01*
X173305375Y-92707550D01*
X173344728Y-92761716D01*
X173977037Y-92129408D01*
X173994075Y-92192993D01*
X174059901Y-92307007D01*
X174152993Y-92400099D01*
X174267007Y-92465925D01*
X174330590Y-92482962D01*
X173698282Y-93115269D01*
X173698282Y-93115270D01*
X173752449Y-93154624D01*
X173941782Y-93251095D01*
X174117973Y-93308343D01*
X174175648Y-93347780D01*
X174202847Y-93412139D01*
X174190932Y-93480985D01*
X174143688Y-93532461D01*
X174127108Y-93540835D01*
X173962403Y-93609057D01*
X173790342Y-93724024D01*
X173644024Y-93870342D01*
X173529058Y-94042403D01*
X173449870Y-94233579D01*
X173449868Y-94233587D01*
X173409500Y-94436530D01*
X173409500Y-94643469D01*
X173449868Y-94846412D01*
X173449870Y-94846420D01*
X173499821Y-94967013D01*
X173529059Y-95037598D01*
X173562173Y-95087157D01*
X173644024Y-95209657D01*
X173790342Y-95355975D01*
X173790345Y-95355977D01*
X173962402Y-95470941D01*
X174153580Y-95550130D01*
X174356530Y-95590499D01*
X174356534Y-95590500D01*
X174356535Y-95590500D01*
X174563466Y-95590500D01*
X174563467Y-95590499D01*
X174766420Y-95550130D01*
X174957598Y-95470941D01*
X175129655Y-95355977D01*
X175275977Y-95209655D01*
X175390941Y-95037598D01*
X175470130Y-94846420D01*
X175510500Y-94643465D01*
X175510500Y-94436535D01*
X175470130Y-94233580D01*
X175390941Y-94042402D01*
X175275977Y-93870345D01*
X175275975Y-93870342D01*
X175129657Y-93724024D01*
X175035721Y-93661259D01*
X174957598Y-93609059D01*
X174957593Y-93609057D01*
X174895891Y-93583499D01*
X174792890Y-93540834D01*
X174738488Y-93496994D01*
X174716423Y-93430700D01*
X174733702Y-93363001D01*
X174784839Y-93315390D01*
X174802026Y-93308343D01*
X174978217Y-93251095D01*
X175167554Y-93154622D01*
X175221716Y-93115270D01*
X175221717Y-93115270D01*
X174589408Y-92482962D01*
X174652993Y-92465925D01*
X174767007Y-92400099D01*
X174860099Y-92307007D01*
X174925925Y-92192993D01*
X174942962Y-92129408D01*
X175575270Y-92761717D01*
X175575270Y-92761716D01*
X175614622Y-92707554D01*
X175619514Y-92697954D01*
X175667488Y-92647157D01*
X175735308Y-92630361D01*
X175801444Y-92652897D01*
X175840486Y-92697954D01*
X175845375Y-92707550D01*
X175884728Y-92761716D01*
X176517037Y-92129408D01*
X176534075Y-92192993D01*
X176599901Y-92307007D01*
X176692993Y-92400099D01*
X176807007Y-92465925D01*
X176870590Y-92482962D01*
X176238282Y-93115269D01*
X176238282Y-93115270D01*
X176292449Y-93154624D01*
X176481782Y-93251095D01*
X176657973Y-93308343D01*
X176715648Y-93347780D01*
X176742847Y-93412139D01*
X176730932Y-93480985D01*
X176683688Y-93532461D01*
X176667108Y-93540835D01*
X176502403Y-93609057D01*
X176330342Y-93724024D01*
X176184024Y-93870342D01*
X176069058Y-94042403D01*
X175989870Y-94233579D01*
X175989868Y-94233587D01*
X175949500Y-94436530D01*
X175949500Y-94643469D01*
X175989868Y-94846412D01*
X175989870Y-94846420D01*
X176039821Y-94967013D01*
X176069059Y-95037598D01*
X176102173Y-95087157D01*
X176184024Y-95209657D01*
X176330342Y-95355975D01*
X176330345Y-95355977D01*
X176502402Y-95470941D01*
X176693580Y-95550130D01*
X176896530Y-95590499D01*
X176896534Y-95590500D01*
X176896535Y-95590500D01*
X177103466Y-95590500D01*
X177103467Y-95590499D01*
X177306420Y-95550130D01*
X177497598Y-95470941D01*
X177669655Y-95355977D01*
X177815977Y-95209655D01*
X177930941Y-95037598D01*
X178010130Y-94846420D01*
X178050500Y-94643465D01*
X178050500Y-94436535D01*
X178010130Y-94233580D01*
X177930941Y-94042402D01*
X177815977Y-93870345D01*
X177815975Y-93870342D01*
X177669657Y-93724024D01*
X177575721Y-93661259D01*
X177497598Y-93609059D01*
X177497593Y-93609057D01*
X177435891Y-93583499D01*
X177332890Y-93540834D01*
X177278488Y-93496994D01*
X177256423Y-93430700D01*
X177273702Y-93363001D01*
X177324839Y-93315390D01*
X177342026Y-93308343D01*
X177518217Y-93251095D01*
X177707554Y-93154622D01*
X177761716Y-93115270D01*
X177761717Y-93115270D01*
X177129408Y-92482962D01*
X177192993Y-92465925D01*
X177307007Y-92400099D01*
X177400099Y-92307007D01*
X177465925Y-92192993D01*
X177482962Y-92129408D01*
X178115270Y-92761717D01*
X178115270Y-92761716D01*
X178126885Y-92745730D01*
X183524500Y-92745730D01*
X183524500Y-94054269D01*
X183527353Y-94084699D01*
X183527353Y-94084701D01*
X183572206Y-94212880D01*
X183572207Y-94212882D01*
X183652850Y-94322150D01*
X183762118Y-94402793D01*
X183804845Y-94417744D01*
X183890299Y-94447646D01*
X183920730Y-94450500D01*
X183920734Y-94450500D01*
X185479270Y-94450500D01*
X185509699Y-94447646D01*
X185509701Y-94447646D01*
X185573790Y-94425219D01*
X185637882Y-94402793D01*
X185747150Y-94322150D01*
X185827793Y-94212882D01*
X185872035Y-94086446D01*
X185872646Y-94084701D01*
X185872646Y-94084699D01*
X185875500Y-94054269D01*
X185875500Y-92745730D01*
X190724500Y-92745730D01*
X190724500Y-94054269D01*
X190727353Y-94084699D01*
X190727353Y-94084701D01*
X190772206Y-94212880D01*
X190772207Y-94212882D01*
X190852850Y-94322150D01*
X190962118Y-94402793D01*
X191004845Y-94417744D01*
X191090299Y-94447646D01*
X191120730Y-94450500D01*
X191120734Y-94450500D01*
X192679270Y-94450500D01*
X192709699Y-94447646D01*
X192709701Y-94447646D01*
X192773790Y-94425219D01*
X192837882Y-94402793D01*
X192947150Y-94322150D01*
X193027793Y-94212882D01*
X193072035Y-94086446D01*
X193072646Y-94084701D01*
X193072646Y-94084699D01*
X193075500Y-94054269D01*
X193075500Y-92745730D01*
X193072646Y-92715300D01*
X193072646Y-92715298D01*
X193027793Y-92587119D01*
X193027792Y-92587117D01*
X193014906Y-92569657D01*
X192947150Y-92477850D01*
X192837882Y-92397207D01*
X192837880Y-92397206D01*
X192709700Y-92352353D01*
X192679270Y-92349500D01*
X192679266Y-92349500D01*
X191120734Y-92349500D01*
X191120730Y-92349500D01*
X191090300Y-92352353D01*
X191090298Y-92352353D01*
X190962119Y-92397206D01*
X190962117Y-92397207D01*
X190852850Y-92477850D01*
X190772207Y-92587117D01*
X190772206Y-92587119D01*
X190727353Y-92715298D01*
X190727353Y-92715300D01*
X190724500Y-92745730D01*
X185875500Y-92745730D01*
X185872646Y-92715300D01*
X185872646Y-92715298D01*
X185827793Y-92587119D01*
X185827792Y-92587117D01*
X185814906Y-92569657D01*
X185747150Y-92477850D01*
X185637882Y-92397207D01*
X185637880Y-92397206D01*
X185509700Y-92352353D01*
X185479270Y-92349500D01*
X185479266Y-92349500D01*
X183920734Y-92349500D01*
X183920730Y-92349500D01*
X183890300Y-92352353D01*
X183890298Y-92352353D01*
X183762119Y-92397206D01*
X183762117Y-92397207D01*
X183652850Y-92477850D01*
X183572207Y-92587117D01*
X183572206Y-92587119D01*
X183527353Y-92715298D01*
X183527353Y-92715300D01*
X183524500Y-92745730D01*
X178126885Y-92745730D01*
X178154622Y-92707554D01*
X178165330Y-92686540D01*
X178251095Y-92518217D01*
X178316757Y-92316130D01*
X178316757Y-92316127D01*
X178350000Y-92106246D01*
X178350000Y-91893753D01*
X178316757Y-91683872D01*
X178316757Y-91683869D01*
X178251095Y-91481782D01*
X178154624Y-91292449D01*
X178115270Y-91238282D01*
X178115269Y-91238282D01*
X177482962Y-91870590D01*
X177465925Y-91807007D01*
X177400099Y-91692993D01*
X177307007Y-91599901D01*
X177192993Y-91534075D01*
X177129409Y-91517037D01*
X177761716Y-90884728D01*
X177707550Y-90845375D01*
X177518216Y-90748904D01*
X177342026Y-90691656D01*
X177284350Y-90652218D01*
X177257152Y-90587860D01*
X177269067Y-90519013D01*
X177316311Y-90467538D01*
X177332882Y-90459168D01*
X177497598Y-90390941D01*
X177669655Y-90275977D01*
X177815977Y-90129655D01*
X177930941Y-89957598D01*
X178010130Y-89766420D01*
X178050500Y-89563465D01*
X178050500Y-89356535D01*
X178010130Y-89153580D01*
X177930941Y-88962402D01*
X177815977Y-88790345D01*
X177815975Y-88790342D01*
X177669657Y-88644024D01*
X177578840Y-88583343D01*
X177497598Y-88529059D01*
X177306420Y-88449870D01*
X177306412Y-88449868D01*
X177103469Y-88409500D01*
X177103465Y-88409500D01*
X176896535Y-88409500D01*
X176896530Y-88409500D01*
X176693587Y-88449868D01*
X176693579Y-88449870D01*
X176502403Y-88529058D01*
X176330342Y-88644024D01*
X176184024Y-88790342D01*
X176069058Y-88962403D01*
X175989870Y-89153579D01*
X175989868Y-89153587D01*
X175949500Y-89356530D01*
X175949500Y-89563469D01*
X175989868Y-89766412D01*
X175989870Y-89766420D01*
X176069058Y-89957596D01*
X176184024Y-90129657D01*
X176330342Y-90275975D01*
X176502405Y-90390943D01*
X176605043Y-90433456D01*
X176667108Y-90459164D01*
X176721511Y-90503005D01*
X176743576Y-90569299D01*
X176726297Y-90636998D01*
X176675160Y-90684609D01*
X176657974Y-90691656D01*
X176481781Y-90748905D01*
X176292439Y-90845380D01*
X176238282Y-90884727D01*
X176238282Y-90884728D01*
X176870591Y-91517037D01*
X176807007Y-91534075D01*
X176692993Y-91599901D01*
X176599901Y-91692993D01*
X176534075Y-91807007D01*
X176517037Y-91870591D01*
X175884728Y-91238282D01*
X175884727Y-91238282D01*
X175845380Y-91292440D01*
X175840483Y-91302051D01*
X175792506Y-91352845D01*
X175724684Y-91369638D01*
X175658550Y-91347098D01*
X175619516Y-91302048D01*
X175614626Y-91292452D01*
X175575270Y-91238282D01*
X175575269Y-91238282D01*
X174942962Y-91870590D01*
X174925925Y-91807007D01*
X174860099Y-91692993D01*
X174767007Y-91599901D01*
X174652993Y-91534075D01*
X174589409Y-91517037D01*
X175221716Y-90884728D01*
X175167550Y-90845375D01*
X174978216Y-90748904D01*
X174802026Y-90691656D01*
X174744350Y-90652218D01*
X174717152Y-90587860D01*
X174729067Y-90519013D01*
X174776311Y-90467538D01*
X174792882Y-90459168D01*
X174957598Y-90390941D01*
X175129655Y-90275977D01*
X175275977Y-90129655D01*
X175390941Y-89957598D01*
X175470130Y-89766420D01*
X175510500Y-89563465D01*
X175510500Y-89356535D01*
X175470130Y-89153580D01*
X175390941Y-88962402D01*
X175275977Y-88790345D01*
X175275975Y-88790342D01*
X175129657Y-88644024D01*
X175038840Y-88583343D01*
X174957598Y-88529059D01*
X174766420Y-88449870D01*
X174766412Y-88449868D01*
X174563469Y-88409500D01*
X174563465Y-88409500D01*
X174356535Y-88409500D01*
X174356530Y-88409500D01*
X174153587Y-88449868D01*
X174153579Y-88449870D01*
X173962403Y-88529058D01*
X173790342Y-88644024D01*
X173644024Y-88790342D01*
X173529058Y-88962403D01*
X173449870Y-89153579D01*
X173449868Y-89153587D01*
X173409500Y-89356530D01*
X173409500Y-89563469D01*
X173449868Y-89766412D01*
X173449870Y-89766420D01*
X173529058Y-89957596D01*
X173644024Y-90129657D01*
X173790342Y-90275975D01*
X173962405Y-90390943D01*
X174065043Y-90433456D01*
X174127108Y-90459164D01*
X174181511Y-90503005D01*
X174203576Y-90569299D01*
X174186297Y-90636998D01*
X174135160Y-90684609D01*
X174117974Y-90691656D01*
X173941781Y-90748905D01*
X173752439Y-90845380D01*
X173698282Y-90884727D01*
X173698282Y-90884728D01*
X174330591Y-91517037D01*
X174267007Y-91534075D01*
X174152993Y-91599901D01*
X174059901Y-91692993D01*
X173994075Y-91807007D01*
X173977037Y-91870591D01*
X173344728Y-91238282D01*
X173344727Y-91238282D01*
X173305380Y-91292439D01*
X173208904Y-91481782D01*
X173143242Y-91683869D01*
X173143242Y-91683872D01*
X173110000Y-91893753D01*
X142750500Y-91893753D01*
X142750500Y-91796535D01*
X142710130Y-91593580D01*
X142630941Y-91402402D01*
X142515977Y-91230345D01*
X142515975Y-91230342D01*
X142369657Y-91084024D01*
X142283626Y-91026541D01*
X142197598Y-90969059D01*
X142006420Y-90889870D01*
X142006412Y-90889868D01*
X141803469Y-90849500D01*
X141803465Y-90849500D01*
X141596535Y-90849500D01*
X141596530Y-90849500D01*
X141393587Y-90889868D01*
X141393579Y-90889870D01*
X141202403Y-90969058D01*
X141030342Y-91084024D01*
X140884024Y-91230342D01*
X140769058Y-91402403D01*
X140689870Y-91593579D01*
X140689868Y-91593587D01*
X140649500Y-91796530D01*
X140649500Y-92003469D01*
X140689868Y-92206412D01*
X140689870Y-92206420D01*
X140769058Y-92397596D01*
X140884024Y-92569657D01*
X141030342Y-92715975D01*
X141202405Y-92830943D01*
X141305043Y-92873456D01*
X141367108Y-92899164D01*
X141421511Y-92943005D01*
X141443576Y-93009299D01*
X141426297Y-93076998D01*
X141375160Y-93124609D01*
X141357974Y-93131656D01*
X141181781Y-93188905D01*
X140992439Y-93285380D01*
X140938282Y-93324727D01*
X140938282Y-93324728D01*
X141570591Y-93957037D01*
X141507007Y-93974075D01*
X141392993Y-94039901D01*
X141299901Y-94132993D01*
X141234075Y-94247007D01*
X141217037Y-94310591D01*
X140584728Y-93678282D01*
X140584727Y-93678282D01*
X140545380Y-93732440D01*
X140540483Y-93742051D01*
X140492506Y-93792845D01*
X140424684Y-93809638D01*
X140358550Y-93787098D01*
X140319516Y-93742048D01*
X140314626Y-93732452D01*
X140275270Y-93678282D01*
X140275269Y-93678282D01*
X139642962Y-94310590D01*
X139625925Y-94247007D01*
X139560099Y-94132993D01*
X139467007Y-94039901D01*
X139352993Y-93974075D01*
X139289409Y-93957037D01*
X139921716Y-93324728D01*
X139867550Y-93285375D01*
X139678216Y-93188904D01*
X139502026Y-93131656D01*
X139444350Y-93092218D01*
X139417152Y-93027860D01*
X139429067Y-92959013D01*
X139476311Y-92907538D01*
X139492882Y-92899168D01*
X139657598Y-92830941D01*
X139829655Y-92715977D01*
X139975977Y-92569655D01*
X140090941Y-92397598D01*
X140170130Y-92206420D01*
X140210500Y-92003465D01*
X140210500Y-91796535D01*
X140170130Y-91593580D01*
X140090941Y-91402402D01*
X139975977Y-91230345D01*
X139975975Y-91230342D01*
X139829657Y-91084024D01*
X139743626Y-91026541D01*
X139657598Y-90969059D01*
X139466420Y-90889870D01*
X139466412Y-90889868D01*
X139263469Y-90849500D01*
X139263465Y-90849500D01*
X139056535Y-90849500D01*
X139056530Y-90849500D01*
X138853587Y-90889868D01*
X138853579Y-90889870D01*
X138662403Y-90969058D01*
X138490342Y-91084024D01*
X138344024Y-91230342D01*
X138229058Y-91402403D01*
X138149870Y-91593579D01*
X138149868Y-91593587D01*
X138109500Y-91796530D01*
X138109500Y-92003469D01*
X138149868Y-92206412D01*
X138149870Y-92206420D01*
X138229058Y-92397596D01*
X138344024Y-92569657D01*
X138490342Y-92715975D01*
X138662405Y-92830943D01*
X138765043Y-92873456D01*
X138827108Y-92899164D01*
X138881511Y-92943005D01*
X138903576Y-93009299D01*
X138886297Y-93076998D01*
X138835160Y-93124609D01*
X138817974Y-93131656D01*
X138641781Y-93188905D01*
X138452439Y-93285380D01*
X138398282Y-93324727D01*
X138398282Y-93324728D01*
X139030591Y-93957037D01*
X138967007Y-93974075D01*
X138852993Y-94039901D01*
X138759901Y-94132993D01*
X138694075Y-94247007D01*
X138677037Y-94310591D01*
X138044728Y-93678282D01*
X138044727Y-93678282D01*
X138005380Y-93732439D01*
X137908904Y-93921782D01*
X137843242Y-94123869D01*
X137843242Y-94123872D01*
X137810000Y-94333753D01*
X126625500Y-94333753D01*
X126625500Y-89256530D01*
X138109500Y-89256530D01*
X138109500Y-89463469D01*
X138149868Y-89666412D01*
X138149870Y-89666420D01*
X138202945Y-89794555D01*
X138229059Y-89857598D01*
X138267331Y-89914877D01*
X138344024Y-90029657D01*
X138490342Y-90175975D01*
X138490345Y-90175977D01*
X138662402Y-90290941D01*
X138853580Y-90370130D01*
X139056530Y-90410499D01*
X139056534Y-90410500D01*
X139056535Y-90410500D01*
X139263466Y-90410500D01*
X139263467Y-90410499D01*
X139466420Y-90370130D01*
X139657598Y-90290941D01*
X139829655Y-90175977D01*
X139975977Y-90029655D01*
X140090941Y-89857598D01*
X140170130Y-89666420D01*
X140210500Y-89463465D01*
X140210500Y-89256535D01*
X140210499Y-89256530D01*
X140649500Y-89256530D01*
X140649500Y-89463469D01*
X140689868Y-89666412D01*
X140689870Y-89666420D01*
X140742945Y-89794555D01*
X140769059Y-89857598D01*
X140807331Y-89914877D01*
X140884024Y-90029657D01*
X141030342Y-90175975D01*
X141030345Y-90175977D01*
X141202402Y-90290941D01*
X141393580Y-90370130D01*
X141596530Y-90410499D01*
X141596534Y-90410500D01*
X141596535Y-90410500D01*
X141803466Y-90410500D01*
X141803467Y-90410499D01*
X142006420Y-90370130D01*
X142197598Y-90290941D01*
X142369655Y-90175977D01*
X142515977Y-90029655D01*
X142630941Y-89857598D01*
X142710130Y-89666420D01*
X142750500Y-89463465D01*
X142750500Y-89256535D01*
X142710130Y-89053580D01*
X142630941Y-88862402D01*
X142515977Y-88690345D01*
X142515975Y-88690342D01*
X142369657Y-88544024D01*
X142228741Y-88449868D01*
X142197598Y-88429059D01*
X142006420Y-88349870D01*
X142006412Y-88349868D01*
X141803468Y-88309500D01*
X141803465Y-88309500D01*
X141596535Y-88309500D01*
X141596530Y-88309500D01*
X141393587Y-88349868D01*
X141393579Y-88349870D01*
X141202403Y-88429058D01*
X141030342Y-88544024D01*
X140884024Y-88690342D01*
X140769058Y-88862403D01*
X140689870Y-89053579D01*
X140689868Y-89053587D01*
X140649500Y-89256530D01*
X140210499Y-89256530D01*
X140170130Y-89053580D01*
X140090941Y-88862402D01*
X139975977Y-88690345D01*
X139975975Y-88690342D01*
X139829657Y-88544024D01*
X139688741Y-88449868D01*
X139657598Y-88429059D01*
X139466420Y-88349870D01*
X139466412Y-88349868D01*
X139263469Y-88309500D01*
X139263465Y-88309500D01*
X139056535Y-88309500D01*
X139056530Y-88309500D01*
X138853587Y-88349868D01*
X138853579Y-88349870D01*
X138662403Y-88429058D01*
X138490342Y-88544024D01*
X138344024Y-88690342D01*
X138229058Y-88862403D01*
X138149870Y-89053579D01*
X138149868Y-89053587D01*
X138109500Y-89256530D01*
X126625500Y-89256530D01*
X126625500Y-88150000D01*
X183247769Y-88150000D01*
X184295854Y-88150000D01*
X184257370Y-88216657D01*
X184225000Y-88337465D01*
X184225000Y-88462535D01*
X184257370Y-88583343D01*
X184295854Y-88650000D01*
X183247769Y-88650000D01*
X183258242Y-88716126D01*
X183258242Y-88716129D01*
X183323904Y-88918217D01*
X183420379Y-89107557D01*
X183545272Y-89279459D01*
X183545276Y-89279464D01*
X183695535Y-89429723D01*
X183695540Y-89429727D01*
X183867442Y-89554620D01*
X184056782Y-89651095D01*
X184178855Y-89690759D01*
X184236530Y-89730196D01*
X184263729Y-89794555D01*
X184251815Y-89863401D01*
X184204570Y-89914877D01*
X184187990Y-89923251D01*
X184077404Y-89969057D01*
X183905342Y-90084024D01*
X183759024Y-90230342D01*
X183644058Y-90402403D01*
X183564870Y-90593579D01*
X183564868Y-90593587D01*
X183524500Y-90796530D01*
X183524500Y-91003469D01*
X183564868Y-91206412D01*
X183564870Y-91206420D01*
X183644058Y-91397596D01*
X183759024Y-91569657D01*
X183905342Y-91715975D01*
X183905345Y-91715977D01*
X184077402Y-91830941D01*
X184268580Y-91910130D01*
X184471530Y-91950499D01*
X184471534Y-91950500D01*
X184471535Y-91950500D01*
X184928466Y-91950500D01*
X184928467Y-91950499D01*
X185131420Y-91910130D01*
X185322598Y-91830941D01*
X185494655Y-91715977D01*
X185640977Y-91569655D01*
X185755941Y-91397598D01*
X185835130Y-91206420D01*
X185875500Y-91003465D01*
X185875500Y-90796535D01*
X185835130Y-90593580D01*
X185755941Y-90402402D01*
X185640977Y-90230345D01*
X185640975Y-90230342D01*
X185494657Y-90084024D01*
X185322596Y-89969057D01*
X185212009Y-89923251D01*
X185157606Y-89879410D01*
X185135541Y-89813116D01*
X185152820Y-89745416D01*
X185203958Y-89697806D01*
X185221144Y-89690759D01*
X185343217Y-89651095D01*
X185532557Y-89554620D01*
X185704459Y-89429727D01*
X185704464Y-89429723D01*
X185854723Y-89279464D01*
X185854727Y-89279459D01*
X185979620Y-89107557D01*
X186076095Y-88918217D01*
X186141757Y-88716129D01*
X186141757Y-88716126D01*
X186152231Y-88650000D01*
X185104146Y-88650000D01*
X185142630Y-88583343D01*
X185175000Y-88462535D01*
X185175000Y-88337465D01*
X185142630Y-88216657D01*
X185104146Y-88150000D01*
X186152231Y-88150000D01*
X190447769Y-88150000D01*
X191495854Y-88150000D01*
X191457370Y-88216657D01*
X191425000Y-88337465D01*
X191425000Y-88462535D01*
X191457370Y-88583343D01*
X191495854Y-88650000D01*
X190447769Y-88650000D01*
X190458242Y-88716126D01*
X190458242Y-88716129D01*
X190523904Y-88918217D01*
X190620379Y-89107557D01*
X190745272Y-89279459D01*
X190745276Y-89279464D01*
X190895535Y-89429723D01*
X190895540Y-89429727D01*
X191067442Y-89554620D01*
X191256782Y-89651095D01*
X191378855Y-89690759D01*
X191436530Y-89730196D01*
X191463729Y-89794555D01*
X191451815Y-89863401D01*
X191404570Y-89914877D01*
X191387990Y-89923251D01*
X191277404Y-89969057D01*
X191105342Y-90084024D01*
X190959024Y-90230342D01*
X190844058Y-90402403D01*
X190764870Y-90593579D01*
X190764868Y-90593587D01*
X190724500Y-90796530D01*
X190724500Y-91003469D01*
X190764868Y-91206412D01*
X190764870Y-91206420D01*
X190844058Y-91397596D01*
X190959024Y-91569657D01*
X191105342Y-91715975D01*
X191105345Y-91715977D01*
X191277402Y-91830941D01*
X191468580Y-91910130D01*
X191671530Y-91950499D01*
X191671534Y-91950500D01*
X191671535Y-91950500D01*
X192128466Y-91950500D01*
X192128467Y-91950499D01*
X192331420Y-91910130D01*
X192522598Y-91830941D01*
X192694655Y-91715977D01*
X192840977Y-91569655D01*
X192955941Y-91397598D01*
X193035130Y-91206420D01*
X193075500Y-91003465D01*
X193075500Y-90796535D01*
X193035130Y-90593580D01*
X192955941Y-90402402D01*
X192840977Y-90230345D01*
X192840975Y-90230342D01*
X192694657Y-90084024D01*
X192522596Y-89969057D01*
X192412009Y-89923251D01*
X192357606Y-89879410D01*
X192335541Y-89813116D01*
X192352820Y-89745416D01*
X192403958Y-89697806D01*
X192421144Y-89690759D01*
X192543217Y-89651095D01*
X192732557Y-89554620D01*
X192904459Y-89429727D01*
X192904464Y-89429723D01*
X193054723Y-89279464D01*
X193054727Y-89279459D01*
X193179620Y-89107557D01*
X193276095Y-88918217D01*
X193341757Y-88716129D01*
X193341757Y-88716126D01*
X193352231Y-88650000D01*
X192304146Y-88650000D01*
X192342630Y-88583343D01*
X192375000Y-88462535D01*
X192375000Y-88337465D01*
X192342630Y-88216657D01*
X192304146Y-88150000D01*
X193352231Y-88150000D01*
X193341757Y-88083873D01*
X193341757Y-88083870D01*
X193276095Y-87881782D01*
X193179620Y-87692442D01*
X193054727Y-87520540D01*
X193054723Y-87520535D01*
X192904464Y-87370276D01*
X192904459Y-87370272D01*
X192732557Y-87245379D01*
X192543217Y-87148904D01*
X192341128Y-87083242D01*
X192150000Y-87052969D01*
X192150000Y-87995854D01*
X192083343Y-87957370D01*
X191962535Y-87925000D01*
X191837465Y-87925000D01*
X191716657Y-87957370D01*
X191650000Y-87995854D01*
X191650000Y-87052969D01*
X191458872Y-87083242D01*
X191458869Y-87083242D01*
X191256782Y-87148904D01*
X191067442Y-87245379D01*
X190895540Y-87370272D01*
X190895535Y-87370276D01*
X190745276Y-87520535D01*
X190745272Y-87520540D01*
X190620379Y-87692442D01*
X190523904Y-87881782D01*
X190458242Y-88083870D01*
X190458242Y-88083873D01*
X190447769Y-88150000D01*
X186152231Y-88150000D01*
X186141757Y-88083873D01*
X186141757Y-88083870D01*
X186076095Y-87881782D01*
X185979620Y-87692442D01*
X185854727Y-87520540D01*
X185854723Y-87520535D01*
X185704464Y-87370276D01*
X185704459Y-87370272D01*
X185532557Y-87245379D01*
X185343217Y-87148904D01*
X185141128Y-87083242D01*
X184950000Y-87052969D01*
X184950000Y-87995854D01*
X184883343Y-87957370D01*
X184762535Y-87925000D01*
X184637465Y-87925000D01*
X184516657Y-87957370D01*
X184450000Y-87995854D01*
X184450000Y-87052969D01*
X184258872Y-87083242D01*
X184258869Y-87083242D01*
X184056782Y-87148904D01*
X183867442Y-87245379D01*
X183695540Y-87370272D01*
X183695535Y-87370276D01*
X183545276Y-87520535D01*
X183545272Y-87520540D01*
X183420379Y-87692442D01*
X183323904Y-87881782D01*
X183258242Y-88083870D01*
X183258242Y-88083873D01*
X183247769Y-88150000D01*
X126625500Y-88150000D01*
X126625500Y-86716530D01*
X138109500Y-86716530D01*
X138109500Y-86923469D01*
X138141281Y-87083242D01*
X138149870Y-87126420D01*
X138229059Y-87317598D01*
X138264257Y-87370276D01*
X138344024Y-87489657D01*
X138490342Y-87635975D01*
X138490345Y-87635977D01*
X138662402Y-87750941D01*
X138853580Y-87830130D01*
X139056530Y-87870499D01*
X139056534Y-87870500D01*
X139056535Y-87870500D01*
X139263466Y-87870500D01*
X139263467Y-87870499D01*
X139466420Y-87830130D01*
X139657598Y-87750941D01*
X139829655Y-87635977D01*
X139975977Y-87489655D01*
X140090941Y-87317598D01*
X140170130Y-87126420D01*
X140210500Y-86923465D01*
X140210500Y-86716535D01*
X140210499Y-86716530D01*
X140649500Y-86716530D01*
X140649500Y-86923469D01*
X140681281Y-87083242D01*
X140689870Y-87126420D01*
X140769059Y-87317598D01*
X140804257Y-87370276D01*
X140884024Y-87489657D01*
X141030342Y-87635975D01*
X141030345Y-87635977D01*
X141202402Y-87750941D01*
X141393580Y-87830130D01*
X141596530Y-87870499D01*
X141596534Y-87870500D01*
X141596535Y-87870500D01*
X141803466Y-87870500D01*
X141803467Y-87870499D01*
X142006420Y-87830130D01*
X142197598Y-87750941D01*
X142369655Y-87635977D01*
X142515977Y-87489655D01*
X142630941Y-87317598D01*
X142710130Y-87126420D01*
X142750500Y-86923465D01*
X142750500Y-86816530D01*
X173409500Y-86816530D01*
X173409500Y-87023469D01*
X173449868Y-87226412D01*
X173449870Y-87226420D01*
X173529058Y-87417596D01*
X173644024Y-87589657D01*
X173790342Y-87735975D01*
X173790345Y-87735977D01*
X173962402Y-87850941D01*
X174153580Y-87930130D01*
X174290526Y-87957370D01*
X174356530Y-87970499D01*
X174356534Y-87970500D01*
X174356535Y-87970500D01*
X174563466Y-87970500D01*
X174563467Y-87970499D01*
X174766420Y-87930130D01*
X174957598Y-87850941D01*
X175129655Y-87735977D01*
X175275977Y-87589655D01*
X175390941Y-87417598D01*
X175470130Y-87226420D01*
X175510500Y-87023465D01*
X175510500Y-86816535D01*
X175470130Y-86613580D01*
X175390941Y-86422402D01*
X175275977Y-86250345D01*
X175275975Y-86250342D01*
X175129657Y-86104024D01*
X175043626Y-86046541D01*
X174957598Y-85989059D01*
X174957593Y-85989057D01*
X174766420Y-85909870D01*
X174766412Y-85909868D01*
X174563469Y-85869500D01*
X174563465Y-85869500D01*
X174356535Y-85869500D01*
X174356530Y-85869500D01*
X174153587Y-85909868D01*
X174153579Y-85909870D01*
X173962403Y-85989058D01*
X173790342Y-86104024D01*
X173644024Y-86250342D01*
X173529058Y-86422403D01*
X173449870Y-86613579D01*
X173449868Y-86613587D01*
X173409500Y-86816530D01*
X142750500Y-86816530D01*
X142750500Y-86716535D01*
X142710130Y-86513580D01*
X142630941Y-86322402D01*
X142515977Y-86150345D01*
X142515975Y-86150342D01*
X142369657Y-86004024D01*
X142228741Y-85909868D01*
X142197598Y-85889059D01*
X142006420Y-85809870D01*
X142006412Y-85809868D01*
X141803469Y-85769500D01*
X141803465Y-85769500D01*
X141596535Y-85769500D01*
X141596530Y-85769500D01*
X141393587Y-85809868D01*
X141393579Y-85809870D01*
X141202403Y-85889058D01*
X141030342Y-86004024D01*
X140884024Y-86150342D01*
X140769058Y-86322403D01*
X140689870Y-86513579D01*
X140689868Y-86513587D01*
X140649500Y-86716530D01*
X140210499Y-86716530D01*
X140170130Y-86513580D01*
X140090941Y-86322402D01*
X139975977Y-86150345D01*
X139975975Y-86150342D01*
X139829657Y-86004024D01*
X139688741Y-85909868D01*
X139657598Y-85889059D01*
X139466420Y-85809870D01*
X139466412Y-85809868D01*
X139263469Y-85769500D01*
X139263465Y-85769500D01*
X139056535Y-85769500D01*
X139056530Y-85769500D01*
X138853587Y-85809868D01*
X138853579Y-85809870D01*
X138662403Y-85889058D01*
X138490342Y-86004024D01*
X138344024Y-86150342D01*
X138229058Y-86322403D01*
X138149870Y-86513579D01*
X138149868Y-86513587D01*
X138109500Y-86716530D01*
X126625500Y-86716530D01*
X126625500Y-84176530D01*
X138109500Y-84176530D01*
X138109500Y-84383469D01*
X138149868Y-84586412D01*
X138149870Y-84586420D01*
X138229058Y-84777596D01*
X138344024Y-84949657D01*
X138490342Y-85095975D01*
X138490345Y-85095977D01*
X138662402Y-85210941D01*
X138853580Y-85290130D01*
X139056530Y-85330499D01*
X139056534Y-85330500D01*
X139056535Y-85330500D01*
X139263466Y-85330500D01*
X139263467Y-85330499D01*
X139466420Y-85290130D01*
X139657598Y-85210941D01*
X139829655Y-85095977D01*
X139975977Y-84949655D01*
X140090941Y-84777598D01*
X140170130Y-84586420D01*
X140210500Y-84383465D01*
X140210500Y-84176535D01*
X140210499Y-84176530D01*
X140649500Y-84176530D01*
X140649500Y-84383469D01*
X140689868Y-84586412D01*
X140689870Y-84586420D01*
X140769058Y-84777596D01*
X140884024Y-84949657D01*
X141030342Y-85095975D01*
X141030345Y-85095977D01*
X141202402Y-85210941D01*
X141393580Y-85290130D01*
X141596530Y-85330499D01*
X141596534Y-85330500D01*
X141596535Y-85330500D01*
X141803466Y-85330500D01*
X141803467Y-85330499D01*
X142006420Y-85290130D01*
X142197598Y-85210941D01*
X142369655Y-85095977D01*
X142515977Y-84949655D01*
X142630941Y-84777598D01*
X142710130Y-84586420D01*
X142750500Y-84383465D01*
X142750500Y-84276530D01*
X173409500Y-84276530D01*
X173409500Y-84483469D01*
X173449868Y-84686412D01*
X173449870Y-84686420D01*
X173515939Y-84845925D01*
X173529059Y-84877598D01*
X173542836Y-84898217D01*
X173644024Y-85049657D01*
X173790342Y-85195975D01*
X173790345Y-85195977D01*
X173962402Y-85310941D01*
X174153580Y-85390130D01*
X174356530Y-85430499D01*
X174356534Y-85430500D01*
X174356535Y-85430500D01*
X174563466Y-85430500D01*
X174563467Y-85430499D01*
X174766420Y-85390130D01*
X174957598Y-85310941D01*
X175129655Y-85195977D01*
X175275977Y-85049655D01*
X175390941Y-84877598D01*
X175459165Y-84712889D01*
X175503004Y-84658488D01*
X175569298Y-84636423D01*
X175636998Y-84653702D01*
X175684609Y-84704839D01*
X175691656Y-84722026D01*
X175748904Y-84898216D01*
X175845375Y-85087550D01*
X175884728Y-85141716D01*
X176517037Y-84509408D01*
X176534075Y-84572993D01*
X176599901Y-84687007D01*
X176692993Y-84780099D01*
X176807007Y-84845925D01*
X176870590Y-84862962D01*
X176238282Y-85495269D01*
X176238282Y-85495270D01*
X176292449Y-85534624D01*
X176481782Y-85631095D01*
X176657973Y-85688343D01*
X176715648Y-85727780D01*
X176742847Y-85792139D01*
X176730932Y-85860985D01*
X176683688Y-85912461D01*
X176667108Y-85920835D01*
X176502403Y-85989057D01*
X176330342Y-86104024D01*
X176184024Y-86250342D01*
X176069058Y-86422403D01*
X175989870Y-86613579D01*
X175989868Y-86613587D01*
X175949500Y-86816530D01*
X175949500Y-87023469D01*
X175989868Y-87226412D01*
X175989870Y-87226420D01*
X176069058Y-87417596D01*
X176184024Y-87589657D01*
X176330342Y-87735975D01*
X176330345Y-87735977D01*
X176502402Y-87850941D01*
X176693580Y-87930130D01*
X176830526Y-87957370D01*
X176896530Y-87970499D01*
X176896534Y-87970500D01*
X176896535Y-87970500D01*
X177103466Y-87970500D01*
X177103467Y-87970499D01*
X177306420Y-87930130D01*
X177497598Y-87850941D01*
X177669655Y-87735977D01*
X177815977Y-87589655D01*
X177930941Y-87417598D01*
X178010130Y-87226420D01*
X178050500Y-87023465D01*
X178050500Y-86816535D01*
X178010130Y-86613580D01*
X177930941Y-86422402D01*
X177815977Y-86250345D01*
X177815975Y-86250342D01*
X177669657Y-86104024D01*
X177583626Y-86046541D01*
X177497598Y-85989059D01*
X177497593Y-85989057D01*
X177435891Y-85963499D01*
X177332890Y-85920834D01*
X177278488Y-85876994D01*
X177256423Y-85810700D01*
X177273702Y-85743001D01*
X177324839Y-85695390D01*
X177342026Y-85688343D01*
X177518217Y-85631095D01*
X177707554Y-85534622D01*
X177761716Y-85495270D01*
X177761717Y-85495270D01*
X177129408Y-84862962D01*
X177192993Y-84845925D01*
X177307007Y-84780099D01*
X177400099Y-84687007D01*
X177465925Y-84572993D01*
X177482962Y-84509408D01*
X178115270Y-85141717D01*
X178115270Y-85141716D01*
X178154622Y-85087554D01*
X178251095Y-84898217D01*
X178316757Y-84696130D01*
X178316757Y-84696127D01*
X178350000Y-84486246D01*
X178350000Y-84273753D01*
X178316757Y-84063872D01*
X178316757Y-84063869D01*
X178251095Y-83861782D01*
X178154624Y-83672449D01*
X178115270Y-83618282D01*
X178115269Y-83618282D01*
X177482962Y-84250590D01*
X177465925Y-84187007D01*
X177400099Y-84072993D01*
X177307007Y-83979901D01*
X177192993Y-83914075D01*
X177129409Y-83897037D01*
X177761716Y-83264728D01*
X177707550Y-83225375D01*
X177518216Y-83128904D01*
X177342026Y-83071656D01*
X177284350Y-83032218D01*
X177257152Y-82967860D01*
X177269067Y-82899013D01*
X177316311Y-82847538D01*
X177332882Y-82839168D01*
X177497598Y-82770941D01*
X177669655Y-82655977D01*
X177815977Y-82509655D01*
X177930941Y-82337598D01*
X178010130Y-82146420D01*
X178050500Y-81943465D01*
X178050500Y-81736535D01*
X178012547Y-81545730D01*
X183524500Y-81545730D01*
X183524500Y-82854269D01*
X183527353Y-82884699D01*
X183527353Y-82884701D01*
X183572206Y-83012880D01*
X183572207Y-83012882D01*
X183652850Y-83122150D01*
X183762118Y-83202793D01*
X183804845Y-83217744D01*
X183890299Y-83247646D01*
X183920730Y-83250500D01*
X183920734Y-83250500D01*
X185479270Y-83250500D01*
X185509699Y-83247646D01*
X185509701Y-83247646D01*
X185573790Y-83225219D01*
X185637882Y-83202793D01*
X185747150Y-83122150D01*
X185827793Y-83012882D01*
X185850219Y-82948790D01*
X185872646Y-82884701D01*
X185872646Y-82884699D01*
X185875500Y-82854269D01*
X185875500Y-81545730D01*
X190699500Y-81545730D01*
X190699500Y-82854269D01*
X190702353Y-82884699D01*
X190702353Y-82884701D01*
X190747206Y-83012880D01*
X190747207Y-83012882D01*
X190827850Y-83122150D01*
X190937118Y-83202793D01*
X190979845Y-83217744D01*
X191065299Y-83247646D01*
X191095730Y-83250500D01*
X191095734Y-83250500D01*
X192654270Y-83250500D01*
X192684699Y-83247646D01*
X192684701Y-83247646D01*
X192748790Y-83225219D01*
X192812882Y-83202793D01*
X192922150Y-83122150D01*
X193002793Y-83012882D01*
X193025219Y-82948790D01*
X193047646Y-82884701D01*
X193047646Y-82884699D01*
X193050500Y-82854269D01*
X193050500Y-81545730D01*
X193047646Y-81515300D01*
X193047646Y-81515298D01*
X193002793Y-81387119D01*
X193002792Y-81387117D01*
X192922150Y-81277850D01*
X192812882Y-81197207D01*
X192812880Y-81197206D01*
X192684700Y-81152353D01*
X192654270Y-81149500D01*
X192654266Y-81149500D01*
X191095734Y-81149500D01*
X191095730Y-81149500D01*
X191065300Y-81152353D01*
X191065298Y-81152353D01*
X190937119Y-81197206D01*
X190937117Y-81197207D01*
X190827850Y-81277850D01*
X190747207Y-81387117D01*
X190747206Y-81387119D01*
X190702353Y-81515298D01*
X190702353Y-81515300D01*
X190699500Y-81545730D01*
X185875500Y-81545730D01*
X185872646Y-81515300D01*
X185872646Y-81515298D01*
X185827793Y-81387119D01*
X185827792Y-81387117D01*
X185747150Y-81277850D01*
X185637882Y-81197207D01*
X185637880Y-81197206D01*
X185509700Y-81152353D01*
X185479270Y-81149500D01*
X185479266Y-81149500D01*
X183920734Y-81149500D01*
X183920730Y-81149500D01*
X183890300Y-81152353D01*
X183890298Y-81152353D01*
X183762119Y-81197206D01*
X183762117Y-81197207D01*
X183652850Y-81277850D01*
X183572207Y-81387117D01*
X183572206Y-81387119D01*
X183527353Y-81515298D01*
X183527353Y-81515300D01*
X183524500Y-81545730D01*
X178012547Y-81545730D01*
X178010130Y-81533580D01*
X177930941Y-81342402D01*
X177815977Y-81170345D01*
X177815975Y-81170342D01*
X177669657Y-81024024D01*
X177583626Y-80966541D01*
X177497598Y-80909059D01*
X177306420Y-80829870D01*
X177306412Y-80829868D01*
X177103469Y-80789500D01*
X177103465Y-80789500D01*
X176896535Y-80789500D01*
X176896530Y-80789500D01*
X176693587Y-80829868D01*
X176693579Y-80829870D01*
X176502403Y-80909058D01*
X176330342Y-81024024D01*
X176184024Y-81170342D01*
X176069058Y-81342403D01*
X175989870Y-81533579D01*
X175989868Y-81533587D01*
X175949500Y-81736530D01*
X175949500Y-81943469D01*
X175989868Y-82146412D01*
X175989870Y-82146420D01*
X176069058Y-82337596D01*
X176184024Y-82509657D01*
X176330342Y-82655975D01*
X176502405Y-82770943D01*
X176605043Y-82813456D01*
X176667108Y-82839164D01*
X176721511Y-82883005D01*
X176743576Y-82949299D01*
X176726297Y-83016998D01*
X176675160Y-83064609D01*
X176657974Y-83071656D01*
X176481781Y-83128905D01*
X176292439Y-83225380D01*
X176238282Y-83264727D01*
X176238282Y-83264728D01*
X176870591Y-83897037D01*
X176807007Y-83914075D01*
X176692993Y-83979901D01*
X176599901Y-84072993D01*
X176534075Y-84187007D01*
X176517037Y-84250591D01*
X175884728Y-83618282D01*
X175884727Y-83618282D01*
X175845380Y-83672439D01*
X175748905Y-83861781D01*
X175691656Y-84037974D01*
X175652218Y-84095649D01*
X175587859Y-84122847D01*
X175519013Y-84110932D01*
X175467537Y-84063688D01*
X175459164Y-84047107D01*
X175390943Y-83882405D01*
X175275975Y-83710342D01*
X175129657Y-83564024D01*
X175043626Y-83506541D01*
X174957598Y-83449059D01*
X174766420Y-83369870D01*
X174766412Y-83369868D01*
X174563469Y-83329500D01*
X174563465Y-83329500D01*
X174356535Y-83329500D01*
X174356530Y-83329500D01*
X174153587Y-83369868D01*
X174153579Y-83369870D01*
X173962403Y-83449058D01*
X173790342Y-83564024D01*
X173644024Y-83710342D01*
X173529058Y-83882403D01*
X173449870Y-84073579D01*
X173449868Y-84073587D01*
X173409500Y-84276530D01*
X142750500Y-84276530D01*
X142750500Y-84176535D01*
X142710130Y-83973580D01*
X142630941Y-83782402D01*
X142515977Y-83610345D01*
X142515975Y-83610342D01*
X142369657Y-83464024D01*
X142228741Y-83369868D01*
X142197598Y-83349059D01*
X142006420Y-83269870D01*
X142006412Y-83269868D01*
X141803469Y-83229500D01*
X141803465Y-83229500D01*
X141596535Y-83229500D01*
X141596530Y-83229500D01*
X141393587Y-83269868D01*
X141393579Y-83269870D01*
X141202403Y-83349058D01*
X141030342Y-83464024D01*
X140884024Y-83610342D01*
X140769058Y-83782403D01*
X140689870Y-83973579D01*
X140689868Y-83973587D01*
X140649500Y-84176530D01*
X140210499Y-84176530D01*
X140170130Y-83973580D01*
X140090941Y-83782402D01*
X139975977Y-83610345D01*
X139975975Y-83610342D01*
X139829657Y-83464024D01*
X139688741Y-83369868D01*
X139657598Y-83349059D01*
X139466420Y-83269870D01*
X139466412Y-83269868D01*
X139263469Y-83229500D01*
X139263465Y-83229500D01*
X139056535Y-83229500D01*
X139056530Y-83229500D01*
X138853587Y-83269868D01*
X138853579Y-83269870D01*
X138662403Y-83349058D01*
X138490342Y-83464024D01*
X138344024Y-83610342D01*
X138229058Y-83782403D01*
X138149870Y-83973579D01*
X138149868Y-83973587D01*
X138109500Y-84176530D01*
X126625500Y-84176530D01*
X126625500Y-81636530D01*
X138109500Y-81636530D01*
X138109500Y-81843469D01*
X138149868Y-82046412D01*
X138149870Y-82046420D01*
X138229058Y-82237596D01*
X138344024Y-82409657D01*
X138490342Y-82555975D01*
X138490345Y-82555977D01*
X138662402Y-82670941D01*
X138853580Y-82750130D01*
X139056530Y-82790499D01*
X139056534Y-82790500D01*
X139056535Y-82790500D01*
X139263466Y-82790500D01*
X139263467Y-82790499D01*
X139466420Y-82750130D01*
X139657598Y-82670941D01*
X139829655Y-82555977D01*
X139975977Y-82409655D01*
X140090941Y-82237598D01*
X140170130Y-82046420D01*
X140210500Y-81843465D01*
X140210500Y-81636535D01*
X140210499Y-81636530D01*
X140649500Y-81636530D01*
X140649500Y-81843469D01*
X140689868Y-82046412D01*
X140689870Y-82046420D01*
X140769058Y-82237596D01*
X140884024Y-82409657D01*
X141030342Y-82555975D01*
X141030345Y-82555977D01*
X141202402Y-82670941D01*
X141393580Y-82750130D01*
X141596530Y-82790499D01*
X141596534Y-82790500D01*
X141596535Y-82790500D01*
X141803466Y-82790500D01*
X141803467Y-82790499D01*
X142006420Y-82750130D01*
X142197598Y-82670941D01*
X142369655Y-82555977D01*
X142515977Y-82409655D01*
X142630941Y-82237598D01*
X142710130Y-82046420D01*
X142750500Y-81843465D01*
X142750500Y-81736530D01*
X173409500Y-81736530D01*
X173409500Y-81943469D01*
X173449868Y-82146412D01*
X173449870Y-82146420D01*
X173529058Y-82337596D01*
X173644024Y-82509657D01*
X173790342Y-82655975D01*
X173790345Y-82655977D01*
X173962402Y-82770941D01*
X174153580Y-82850130D01*
X174356530Y-82890499D01*
X174356534Y-82890500D01*
X174356535Y-82890500D01*
X174563466Y-82890500D01*
X174563467Y-82890499D01*
X174766420Y-82850130D01*
X174957598Y-82770941D01*
X175129655Y-82655977D01*
X175275977Y-82509655D01*
X175390941Y-82337598D01*
X175470130Y-82146420D01*
X175510500Y-81943465D01*
X175510500Y-81736535D01*
X175470130Y-81533580D01*
X175390941Y-81342402D01*
X175275977Y-81170345D01*
X175275975Y-81170342D01*
X175129657Y-81024024D01*
X175043626Y-80966541D01*
X174957598Y-80909059D01*
X174766420Y-80829870D01*
X174766412Y-80829868D01*
X174563469Y-80789500D01*
X174563465Y-80789500D01*
X174356535Y-80789500D01*
X174356530Y-80789500D01*
X174153587Y-80829868D01*
X174153579Y-80829870D01*
X173962403Y-80909058D01*
X173790342Y-81024024D01*
X173644024Y-81170342D01*
X173529058Y-81342403D01*
X173449870Y-81533579D01*
X173449868Y-81533587D01*
X173409500Y-81736530D01*
X142750500Y-81736530D01*
X142750500Y-81636535D01*
X142710130Y-81433580D01*
X142630941Y-81242402D01*
X142515977Y-81070345D01*
X142515975Y-81070342D01*
X142369657Y-80924024D01*
X142228741Y-80829868D01*
X142197598Y-80809059D01*
X142006420Y-80729870D01*
X142006412Y-80729868D01*
X141803469Y-80689500D01*
X141803465Y-80689500D01*
X141596535Y-80689500D01*
X141596530Y-80689500D01*
X141393587Y-80729868D01*
X141393579Y-80729870D01*
X141202403Y-80809058D01*
X141030342Y-80924024D01*
X140884024Y-81070342D01*
X140769058Y-81242403D01*
X140689870Y-81433579D01*
X140689868Y-81433587D01*
X140649500Y-81636530D01*
X140210499Y-81636530D01*
X140170130Y-81433580D01*
X140090941Y-81242402D01*
X139975977Y-81070345D01*
X139975975Y-81070342D01*
X139829657Y-80924024D01*
X139688741Y-80829868D01*
X139657598Y-80809059D01*
X139466420Y-80729870D01*
X139466412Y-80729868D01*
X139263469Y-80689500D01*
X139263465Y-80689500D01*
X139056535Y-80689500D01*
X139056530Y-80689500D01*
X138853587Y-80729868D01*
X138853579Y-80729870D01*
X138662403Y-80809058D01*
X138490342Y-80924024D01*
X138344024Y-81070342D01*
X138229058Y-81242403D01*
X138149870Y-81433579D01*
X138149868Y-81433587D01*
X138109500Y-81636530D01*
X126625500Y-81636530D01*
X126625500Y-79096530D01*
X138109500Y-79096530D01*
X138109500Y-79303469D01*
X138149868Y-79506412D01*
X138149870Y-79506420D01*
X138229058Y-79697596D01*
X138344024Y-79869657D01*
X138490342Y-80015975D01*
X138490345Y-80015977D01*
X138662402Y-80130941D01*
X138853580Y-80210130D01*
X139056530Y-80250499D01*
X139056534Y-80250500D01*
X139056535Y-80250500D01*
X139263466Y-80250500D01*
X139263467Y-80250499D01*
X139466420Y-80210130D01*
X139657598Y-80130941D01*
X139829655Y-80015977D01*
X139975977Y-79869655D01*
X140090941Y-79697598D01*
X140170130Y-79506420D01*
X140210500Y-79303465D01*
X140210500Y-79096535D01*
X140210499Y-79096530D01*
X140649500Y-79096530D01*
X140649500Y-79303469D01*
X140689868Y-79506412D01*
X140689870Y-79506420D01*
X140769058Y-79697596D01*
X140884024Y-79869657D01*
X141030342Y-80015975D01*
X141030345Y-80015977D01*
X141202402Y-80130941D01*
X141393580Y-80210130D01*
X141596530Y-80250499D01*
X141596534Y-80250500D01*
X141596535Y-80250500D01*
X141803466Y-80250500D01*
X141803467Y-80250499D01*
X142006420Y-80210130D01*
X142197598Y-80130941D01*
X142369655Y-80015977D01*
X142515977Y-79869655D01*
X142630941Y-79697598D01*
X142710130Y-79506420D01*
X142750500Y-79303465D01*
X142750500Y-79196530D01*
X173409500Y-79196530D01*
X173409500Y-79403469D01*
X173449868Y-79606412D01*
X173449870Y-79606420D01*
X173529058Y-79797596D01*
X173644024Y-79969657D01*
X173790342Y-80115975D01*
X173790345Y-80115977D01*
X173962402Y-80230941D01*
X174153580Y-80310130D01*
X174356530Y-80350499D01*
X174356534Y-80350500D01*
X174356535Y-80350500D01*
X174563466Y-80350500D01*
X174563467Y-80350499D01*
X174766420Y-80310130D01*
X174957598Y-80230941D01*
X175129655Y-80115977D01*
X175275977Y-79969655D01*
X175390941Y-79797598D01*
X175470130Y-79606420D01*
X175510500Y-79403465D01*
X175510500Y-79196535D01*
X175510499Y-79196530D01*
X175949500Y-79196530D01*
X175949500Y-79403469D01*
X175989868Y-79606412D01*
X175989870Y-79606420D01*
X176069058Y-79797596D01*
X176184024Y-79969657D01*
X176330342Y-80115975D01*
X176330345Y-80115977D01*
X176502402Y-80230941D01*
X176693580Y-80310130D01*
X176896530Y-80350499D01*
X176896534Y-80350500D01*
X176896535Y-80350500D01*
X177103466Y-80350500D01*
X177103467Y-80350499D01*
X177306420Y-80310130D01*
X177497598Y-80230941D01*
X177669655Y-80115977D01*
X177815977Y-79969655D01*
X177930941Y-79797598D01*
X178010130Y-79606420D01*
X178050500Y-79403465D01*
X178050500Y-79196535D01*
X178010130Y-78993580D01*
X177930941Y-78802402D01*
X177815977Y-78630345D01*
X177815975Y-78630342D01*
X177669657Y-78484024D01*
X177583626Y-78426541D01*
X177497598Y-78369059D01*
X177462739Y-78354620D01*
X177306420Y-78289870D01*
X177306412Y-78289868D01*
X177103469Y-78249500D01*
X177103465Y-78249500D01*
X176896535Y-78249500D01*
X176896530Y-78249500D01*
X176693587Y-78289868D01*
X176693579Y-78289870D01*
X176502403Y-78369058D01*
X176330342Y-78484024D01*
X176184024Y-78630342D01*
X176069058Y-78802403D01*
X175989870Y-78993579D01*
X175989868Y-78993587D01*
X175949500Y-79196530D01*
X175510499Y-79196530D01*
X175470130Y-78993580D01*
X175390941Y-78802402D01*
X175275977Y-78630345D01*
X175275975Y-78630342D01*
X175129657Y-78484024D01*
X175043626Y-78426541D01*
X174957598Y-78369059D01*
X174922739Y-78354620D01*
X174766420Y-78289870D01*
X174766412Y-78289868D01*
X174563469Y-78249500D01*
X174563465Y-78249500D01*
X174356535Y-78249500D01*
X174356530Y-78249500D01*
X174153587Y-78289868D01*
X174153579Y-78289870D01*
X173962403Y-78369058D01*
X173790342Y-78484024D01*
X173644024Y-78630342D01*
X173529058Y-78802403D01*
X173449870Y-78993579D01*
X173449868Y-78993587D01*
X173409500Y-79196530D01*
X142750500Y-79196530D01*
X142750500Y-79096535D01*
X142710130Y-78893580D01*
X142630941Y-78702402D01*
X142515977Y-78530345D01*
X142515975Y-78530342D01*
X142369657Y-78384024D01*
X142228741Y-78289868D01*
X142197598Y-78269059D01*
X142006420Y-78189870D01*
X142006412Y-78189868D01*
X141803469Y-78149500D01*
X141803465Y-78149500D01*
X141596535Y-78149500D01*
X141596530Y-78149500D01*
X141393587Y-78189868D01*
X141393579Y-78189870D01*
X141202403Y-78269058D01*
X141030342Y-78384024D01*
X140884024Y-78530342D01*
X140769058Y-78702403D01*
X140689870Y-78893579D01*
X140689868Y-78893587D01*
X140649500Y-79096530D01*
X140210499Y-79096530D01*
X140170130Y-78893580D01*
X140090941Y-78702402D01*
X139975977Y-78530345D01*
X139975975Y-78530342D01*
X139829657Y-78384024D01*
X139688741Y-78289868D01*
X139657598Y-78269059D01*
X139466420Y-78189870D01*
X139466412Y-78189868D01*
X139263469Y-78149500D01*
X139263465Y-78149500D01*
X139056535Y-78149500D01*
X139056530Y-78149500D01*
X138853587Y-78189868D01*
X138853579Y-78189870D01*
X138662403Y-78269058D01*
X138490342Y-78384024D01*
X138344024Y-78530342D01*
X138229058Y-78702403D01*
X138149870Y-78893579D01*
X138149868Y-78893587D01*
X138109500Y-79096530D01*
X126625500Y-79096530D01*
X126625500Y-76556530D01*
X138109500Y-76556530D01*
X138109500Y-76763469D01*
X138149868Y-76966412D01*
X138149870Y-76966420D01*
X138229058Y-77157596D01*
X138344024Y-77329657D01*
X138490342Y-77475975D01*
X138490345Y-77475977D01*
X138662402Y-77590941D01*
X138853580Y-77670130D01*
X138998052Y-77698867D01*
X139056530Y-77710499D01*
X139056534Y-77710500D01*
X139056535Y-77710500D01*
X139263466Y-77710500D01*
X139263467Y-77710499D01*
X139466420Y-77670130D01*
X139657598Y-77590941D01*
X139829655Y-77475977D01*
X139975977Y-77329655D01*
X140090941Y-77157598D01*
X140170130Y-76966420D01*
X140210500Y-76763465D01*
X140210500Y-76556535D01*
X140170130Y-76353580D01*
X140090941Y-76162402D01*
X139975977Y-75990345D01*
X139975975Y-75990342D01*
X139829657Y-75844024D01*
X139749173Y-75790247D01*
X140649500Y-75790247D01*
X140649500Y-77529752D01*
X140661131Y-77588229D01*
X140661132Y-77588230D01*
X140705447Y-77654552D01*
X140771769Y-77698867D01*
X140771770Y-77698868D01*
X140830247Y-77710499D01*
X140830250Y-77710500D01*
X140830252Y-77710500D01*
X142569750Y-77710500D01*
X142569751Y-77710499D01*
X142590476Y-77706377D01*
X142628229Y-77698868D01*
X142628229Y-77698867D01*
X142628231Y-77698867D01*
X142694552Y-77654552D01*
X142738867Y-77588231D01*
X142738867Y-77588229D01*
X142738868Y-77588229D01*
X142750499Y-77529752D01*
X142750500Y-77529750D01*
X142750500Y-76485837D01*
X155649500Y-76485837D01*
X155649500Y-76714162D01*
X155685215Y-76939660D01*
X155755770Y-77156803D01*
X155809644Y-77262535D01*
X155859421Y-77360228D01*
X155993621Y-77544937D01*
X156155063Y-77706379D01*
X156339772Y-77840579D01*
X156435884Y-77889550D01*
X156543196Y-77944229D01*
X156543198Y-77944229D01*
X156543201Y-77944231D01*
X156659592Y-77982049D01*
X156760339Y-78014784D01*
X156985838Y-78050500D01*
X156985843Y-78050500D01*
X157214162Y-78050500D01*
X157439660Y-78014784D01*
X157656799Y-77944231D01*
X157860228Y-77840579D01*
X158044937Y-77706379D01*
X158206379Y-77544937D01*
X158340579Y-77360228D01*
X158444231Y-77156799D01*
X158514784Y-76939660D01*
X158523620Y-76883873D01*
X158545777Y-76743982D01*
X159787000Y-76743982D01*
X159787000Y-76856018D01*
X159815997Y-76964237D01*
X159872015Y-77061263D01*
X159951237Y-77140485D01*
X160048263Y-77196503D01*
X160156482Y-77225500D01*
X160156484Y-77225500D01*
X160268516Y-77225500D01*
X160268518Y-77225500D01*
X160376737Y-77196503D01*
X160473763Y-77140485D01*
X160552985Y-77061263D01*
X160609003Y-76964237D01*
X160638000Y-76856018D01*
X160638000Y-76743982D01*
X168987000Y-76743982D01*
X168987000Y-76856018D01*
X169015997Y-76964237D01*
X169072015Y-77061263D01*
X169151237Y-77140485D01*
X169248263Y-77196503D01*
X169356482Y-77225500D01*
X169356484Y-77225500D01*
X169468516Y-77225500D01*
X169468518Y-77225500D01*
X169576737Y-77196503D01*
X169673763Y-77140485D01*
X169752985Y-77061263D01*
X169809003Y-76964237D01*
X169838000Y-76856018D01*
X169838000Y-76743982D01*
X169814567Y-76656530D01*
X173409500Y-76656530D01*
X173409500Y-76863469D01*
X173449868Y-77066412D01*
X173449870Y-77066420D01*
X173529058Y-77257596D01*
X173644024Y-77429657D01*
X173790342Y-77575975D01*
X173790345Y-77575977D01*
X173962402Y-77690941D01*
X174153580Y-77770130D01*
X174298052Y-77798867D01*
X174356530Y-77810499D01*
X174356534Y-77810500D01*
X174356535Y-77810500D01*
X174563466Y-77810500D01*
X174563467Y-77810499D01*
X174766420Y-77770130D01*
X174957598Y-77690941D01*
X175129655Y-77575977D01*
X175275977Y-77429655D01*
X175390941Y-77257598D01*
X175470130Y-77066420D01*
X175510500Y-76863465D01*
X175510500Y-76656535D01*
X175470130Y-76453580D01*
X175390941Y-76262402D01*
X175275977Y-76090345D01*
X175275975Y-76090342D01*
X175129657Y-75944024D01*
X175049173Y-75890247D01*
X175949500Y-75890247D01*
X175949500Y-77629752D01*
X175961131Y-77688229D01*
X175961132Y-77688230D01*
X176005447Y-77754552D01*
X176071769Y-77798867D01*
X176071770Y-77798868D01*
X176130247Y-77810499D01*
X176130250Y-77810500D01*
X176130252Y-77810500D01*
X177869750Y-77810500D01*
X177869751Y-77810499D01*
X177884568Y-77807552D01*
X177928229Y-77798868D01*
X177928229Y-77798867D01*
X177928231Y-77798867D01*
X177994552Y-77754552D01*
X178038867Y-77688231D01*
X178038867Y-77688229D01*
X178038868Y-77688229D01*
X178050499Y-77629752D01*
X178050500Y-77629750D01*
X178050500Y-76950000D01*
X183247769Y-76950000D01*
X184295854Y-76950000D01*
X184257370Y-77016657D01*
X184225000Y-77137465D01*
X184225000Y-77262535D01*
X184257370Y-77383343D01*
X184295854Y-77450000D01*
X183247769Y-77450000D01*
X183258242Y-77516126D01*
X183258242Y-77516129D01*
X183323904Y-77718217D01*
X183420379Y-77907557D01*
X183545272Y-78079459D01*
X183545276Y-78079464D01*
X183695535Y-78229723D01*
X183695540Y-78229727D01*
X183867442Y-78354620D01*
X184056782Y-78451095D01*
X184178855Y-78490759D01*
X184236530Y-78530196D01*
X184263729Y-78594555D01*
X184251815Y-78663401D01*
X184204570Y-78714877D01*
X184187990Y-78723251D01*
X184077404Y-78769057D01*
X183905342Y-78884024D01*
X183759024Y-79030342D01*
X183644058Y-79202403D01*
X183564870Y-79393579D01*
X183564868Y-79393587D01*
X183524500Y-79596530D01*
X183524500Y-79803469D01*
X183564868Y-80006412D01*
X183564870Y-80006420D01*
X183616448Y-80130941D01*
X183644059Y-80197598D01*
X183666338Y-80230941D01*
X183759024Y-80369657D01*
X183905342Y-80515975D01*
X183905345Y-80515977D01*
X184077402Y-80630941D01*
X184268580Y-80710130D01*
X184471530Y-80750499D01*
X184471534Y-80750500D01*
X184471535Y-80750500D01*
X184928466Y-80750500D01*
X184928467Y-80750499D01*
X185131420Y-80710130D01*
X185322598Y-80630941D01*
X185494655Y-80515977D01*
X185640977Y-80369655D01*
X185755941Y-80197598D01*
X185835130Y-80006420D01*
X185875500Y-79803465D01*
X185875500Y-79596535D01*
X185835130Y-79393580D01*
X185755941Y-79202402D01*
X185640977Y-79030345D01*
X185640975Y-79030342D01*
X185494657Y-78884024D01*
X185322596Y-78769057D01*
X185212009Y-78723251D01*
X185157606Y-78679410D01*
X185135541Y-78613116D01*
X185152820Y-78545416D01*
X185203958Y-78497806D01*
X185221144Y-78490759D01*
X185343217Y-78451095D01*
X185532557Y-78354620D01*
X185704459Y-78229727D01*
X185704464Y-78229723D01*
X185854723Y-78079464D01*
X185854727Y-78079459D01*
X185979620Y-77907557D01*
X186076095Y-77718217D01*
X186141757Y-77516129D01*
X186141757Y-77516126D01*
X186152231Y-77450000D01*
X185104146Y-77450000D01*
X185142630Y-77383343D01*
X185175000Y-77262535D01*
X185175000Y-77137465D01*
X185142630Y-77016657D01*
X185104146Y-76950000D01*
X186152231Y-76950000D01*
X190422769Y-76950000D01*
X191470854Y-76950000D01*
X191432370Y-77016657D01*
X191400000Y-77137465D01*
X191400000Y-77262535D01*
X191432370Y-77383343D01*
X191470854Y-77450000D01*
X190422769Y-77450000D01*
X190433242Y-77516126D01*
X190433242Y-77516129D01*
X190498904Y-77718217D01*
X190595379Y-77907557D01*
X190720272Y-78079459D01*
X190720276Y-78079464D01*
X190870535Y-78229723D01*
X190870540Y-78229727D01*
X191042442Y-78354620D01*
X191231782Y-78451095D01*
X191353855Y-78490759D01*
X191411530Y-78530196D01*
X191438729Y-78594555D01*
X191426815Y-78663401D01*
X191379570Y-78714877D01*
X191362990Y-78723251D01*
X191252404Y-78769057D01*
X191080342Y-78884024D01*
X190934024Y-79030342D01*
X190819058Y-79202403D01*
X190739870Y-79393579D01*
X190739868Y-79393587D01*
X190699500Y-79596530D01*
X190699500Y-79803469D01*
X190739868Y-80006412D01*
X190739870Y-80006420D01*
X190791448Y-80130941D01*
X190819059Y-80197598D01*
X190841338Y-80230941D01*
X190934024Y-80369657D01*
X191080342Y-80515975D01*
X191080345Y-80515977D01*
X191252402Y-80630941D01*
X191443580Y-80710130D01*
X191646530Y-80750499D01*
X191646534Y-80750500D01*
X191646535Y-80750500D01*
X192103466Y-80750500D01*
X192103467Y-80750499D01*
X192306420Y-80710130D01*
X192497598Y-80630941D01*
X192669655Y-80515977D01*
X192815977Y-80369655D01*
X192930941Y-80197598D01*
X193010130Y-80006420D01*
X193050500Y-79803465D01*
X193050500Y-79596535D01*
X193010130Y-79393580D01*
X192930941Y-79202402D01*
X192815977Y-79030345D01*
X192815975Y-79030342D01*
X192669657Y-78884024D01*
X192497596Y-78769057D01*
X192387009Y-78723251D01*
X192332606Y-78679410D01*
X192310541Y-78613116D01*
X192327820Y-78545416D01*
X192378958Y-78497806D01*
X192396144Y-78490759D01*
X192518217Y-78451095D01*
X192707557Y-78354620D01*
X192879459Y-78229727D01*
X192879464Y-78229723D01*
X193029723Y-78079464D01*
X193029727Y-78079459D01*
X193154620Y-77907557D01*
X193251095Y-77718217D01*
X193316757Y-77516129D01*
X193316757Y-77516126D01*
X193327231Y-77450000D01*
X192279146Y-77450000D01*
X192317630Y-77383343D01*
X192350000Y-77262535D01*
X192350000Y-77137465D01*
X192317630Y-77016657D01*
X192279146Y-76950000D01*
X193327231Y-76950000D01*
X193316757Y-76883873D01*
X193316757Y-76883870D01*
X193251095Y-76681782D01*
X193154620Y-76492442D01*
X193029727Y-76320540D01*
X193029723Y-76320535D01*
X192879464Y-76170276D01*
X192879459Y-76170272D01*
X192707557Y-76045379D01*
X192518217Y-75948904D01*
X192316128Y-75883242D01*
X192125000Y-75852969D01*
X192125000Y-76795854D01*
X192058343Y-76757370D01*
X191937535Y-76725000D01*
X191812465Y-76725000D01*
X191691657Y-76757370D01*
X191625000Y-76795854D01*
X191625000Y-75852969D01*
X191433872Y-75883242D01*
X191433869Y-75883242D01*
X191231782Y-75948904D01*
X191042442Y-76045379D01*
X190870540Y-76170272D01*
X190870535Y-76170276D01*
X190720276Y-76320535D01*
X190720272Y-76320540D01*
X190595379Y-76492442D01*
X190498904Y-76681782D01*
X190433242Y-76883870D01*
X190433242Y-76883873D01*
X190422769Y-76950000D01*
X186152231Y-76950000D01*
X186141757Y-76883873D01*
X186141757Y-76883870D01*
X186076095Y-76681782D01*
X185979620Y-76492442D01*
X185854727Y-76320540D01*
X185854723Y-76320535D01*
X185704464Y-76170276D01*
X185704459Y-76170272D01*
X185532557Y-76045379D01*
X185343217Y-75948904D01*
X185141128Y-75883242D01*
X184950000Y-75852969D01*
X184950000Y-76795854D01*
X184883343Y-76757370D01*
X184762535Y-76725000D01*
X184637465Y-76725000D01*
X184516657Y-76757370D01*
X184450000Y-76795854D01*
X184450000Y-75852969D01*
X184258872Y-75883242D01*
X184258869Y-75883242D01*
X184056782Y-75948904D01*
X183867442Y-76045379D01*
X183695540Y-76170272D01*
X183695535Y-76170276D01*
X183545276Y-76320535D01*
X183545272Y-76320540D01*
X183420379Y-76492442D01*
X183323904Y-76681782D01*
X183258242Y-76883870D01*
X183258242Y-76883873D01*
X183247769Y-76950000D01*
X178050500Y-76950000D01*
X178050500Y-75890249D01*
X178050499Y-75890247D01*
X178038868Y-75831770D01*
X178038867Y-75831769D01*
X177994552Y-75765447D01*
X177928230Y-75721132D01*
X177928229Y-75721131D01*
X177869752Y-75709500D01*
X177869748Y-75709500D01*
X176130252Y-75709500D01*
X176130247Y-75709500D01*
X176071770Y-75721131D01*
X176071769Y-75721132D01*
X176005447Y-75765447D01*
X175961132Y-75831769D01*
X175961131Y-75831770D01*
X175949500Y-75890247D01*
X175049173Y-75890247D01*
X174993382Y-75852969D01*
X174957598Y-75829059D01*
X174766420Y-75749870D01*
X174766412Y-75749868D01*
X174563469Y-75709500D01*
X174563465Y-75709500D01*
X174356535Y-75709500D01*
X174356530Y-75709500D01*
X174153587Y-75749868D01*
X174153579Y-75749870D01*
X173962403Y-75829058D01*
X173790342Y-75944024D01*
X173644024Y-76090342D01*
X173529058Y-76262403D01*
X173449870Y-76453579D01*
X173449868Y-76453587D01*
X173409500Y-76656530D01*
X169814567Y-76656530D01*
X169809003Y-76635763D01*
X169752985Y-76538737D01*
X169673763Y-76459515D01*
X169576737Y-76403497D01*
X169468518Y-76374500D01*
X169356482Y-76374500D01*
X169248263Y-76403497D01*
X169248260Y-76403498D01*
X169151240Y-76459513D01*
X169151234Y-76459517D01*
X169072017Y-76538734D01*
X169072013Y-76538740D01*
X169015998Y-76635760D01*
X169015997Y-76635763D01*
X168987000Y-76743982D01*
X160638000Y-76743982D01*
X160609003Y-76635763D01*
X160552985Y-76538737D01*
X160473763Y-76459515D01*
X160376737Y-76403497D01*
X160268518Y-76374500D01*
X160156482Y-76374500D01*
X160048263Y-76403497D01*
X160048260Y-76403498D01*
X159951240Y-76459513D01*
X159951234Y-76459517D01*
X159872017Y-76538734D01*
X159872013Y-76538740D01*
X159815998Y-76635760D01*
X159815997Y-76635763D01*
X159787000Y-76743982D01*
X158545777Y-76743982D01*
X158550137Y-76716457D01*
X158550137Y-76716456D01*
X158550499Y-76714165D01*
X158550500Y-76714164D01*
X158550500Y-76485837D01*
X158514784Y-76260339D01*
X158459548Y-76090342D01*
X158444231Y-76043201D01*
X158444229Y-76043198D01*
X158444229Y-76043196D01*
X158340578Y-75839771D01*
X158332795Y-75829059D01*
X158206379Y-75655063D01*
X158044937Y-75493621D01*
X157860228Y-75359421D01*
X157656803Y-75255770D01*
X157439660Y-75185215D01*
X157214162Y-75149500D01*
X157214157Y-75149500D01*
X156985843Y-75149500D01*
X156985838Y-75149500D01*
X156760339Y-75185215D01*
X156543196Y-75255770D01*
X156339771Y-75359421D01*
X156155061Y-75493622D01*
X155993622Y-75655061D01*
X155859421Y-75839771D01*
X155755770Y-76043196D01*
X155685215Y-76260339D01*
X155649500Y-76485837D01*
X142750500Y-76485837D01*
X142750500Y-75790249D01*
X142750499Y-75790247D01*
X142738868Y-75731770D01*
X142738867Y-75731769D01*
X142694552Y-75665447D01*
X142628230Y-75621132D01*
X142628229Y-75621131D01*
X142569752Y-75609500D01*
X142569748Y-75609500D01*
X140830252Y-75609500D01*
X140830247Y-75609500D01*
X140771770Y-75621131D01*
X140771769Y-75621132D01*
X140705447Y-75665447D01*
X140661132Y-75731769D01*
X140661131Y-75731770D01*
X140649500Y-75790247D01*
X139749173Y-75790247D01*
X139661655Y-75731770D01*
X139657598Y-75729059D01*
X139638458Y-75721131D01*
X139466420Y-75649870D01*
X139466412Y-75649868D01*
X139263469Y-75609500D01*
X139263465Y-75609500D01*
X139056535Y-75609500D01*
X139056530Y-75609500D01*
X138853587Y-75649868D01*
X138853579Y-75649870D01*
X138662403Y-75729058D01*
X138490342Y-75844024D01*
X138344024Y-75990342D01*
X138229058Y-76162403D01*
X138149870Y-76353579D01*
X138149868Y-76353587D01*
X138109500Y-76556530D01*
X126625500Y-76556530D01*
X126625500Y-70502706D01*
X126625618Y-70497297D01*
X126632601Y-70337351D01*
X126643813Y-70080542D01*
X126644752Y-70069813D01*
X126668832Y-69886911D01*
X129274500Y-69886911D01*
X129274500Y-70113088D01*
X129274501Y-70113104D01*
X129304023Y-70337347D01*
X129362567Y-70555834D01*
X129449120Y-70764794D01*
X129449127Y-70764809D01*
X129562220Y-70960692D01*
X129699915Y-71140140D01*
X129699921Y-71140147D01*
X129859852Y-71300078D01*
X129859859Y-71300084D01*
X130039307Y-71437779D01*
X130235190Y-71550872D01*
X130235205Y-71550879D01*
X130325259Y-71588180D01*
X130444166Y-71637433D01*
X130662649Y-71695976D01*
X130886905Y-71725500D01*
X130886912Y-71725500D01*
X131113088Y-71725500D01*
X131113095Y-71725500D01*
X131337351Y-71695976D01*
X131555834Y-71637433D01*
X131764806Y-71550874D01*
X131960693Y-71437779D01*
X132140142Y-71300083D01*
X132300083Y-71140142D01*
X132437779Y-70960693D01*
X132550874Y-70764806D01*
X132637433Y-70555834D01*
X132695976Y-70337351D01*
X132725500Y-70113095D01*
X132725500Y-69886911D01*
X136774500Y-69886911D01*
X136774500Y-70113088D01*
X136774501Y-70113104D01*
X136804023Y-70337347D01*
X136862567Y-70555834D01*
X136949120Y-70764794D01*
X136949127Y-70764809D01*
X137062220Y-70960692D01*
X137199915Y-71140140D01*
X137199921Y-71140147D01*
X137359852Y-71300078D01*
X137359859Y-71300084D01*
X137539307Y-71437779D01*
X137735190Y-71550872D01*
X137735205Y-71550879D01*
X137825259Y-71588180D01*
X137944166Y-71637433D01*
X138162649Y-71695976D01*
X138386905Y-71725500D01*
X138386912Y-71725500D01*
X138613088Y-71725500D01*
X138613095Y-71725500D01*
X138837351Y-71695976D01*
X139055834Y-71637433D01*
X139264806Y-71550874D01*
X139460693Y-71437779D01*
X139640142Y-71300083D01*
X139800083Y-71140142D01*
X139937779Y-70960693D01*
X140050874Y-70764806D01*
X140137433Y-70555834D01*
X140195976Y-70337351D01*
X140225500Y-70113095D01*
X140225500Y-69886905D01*
X140195976Y-69662649D01*
X140189079Y-69636911D01*
X191024500Y-69636911D01*
X191024500Y-69863088D01*
X191024501Y-69863104D01*
X191054023Y-70087347D01*
X191112567Y-70305834D01*
X191199120Y-70514794D01*
X191199127Y-70514809D01*
X191312220Y-70710692D01*
X191449915Y-70890140D01*
X191449921Y-70890147D01*
X191609852Y-71050078D01*
X191609859Y-71050084D01*
X191789307Y-71187779D01*
X191985190Y-71300872D01*
X191985205Y-71300879D01*
X192075259Y-71338180D01*
X192194166Y-71387433D01*
X192412649Y-71445976D01*
X192636905Y-71475500D01*
X192636912Y-71475500D01*
X192863088Y-71475500D01*
X192863095Y-71475500D01*
X193087351Y-71445976D01*
X193305834Y-71387433D01*
X193514806Y-71300874D01*
X193710693Y-71187779D01*
X193890142Y-71050083D01*
X194050083Y-70890142D01*
X194187779Y-70710693D01*
X194300874Y-70514806D01*
X194387433Y-70305834D01*
X194445976Y-70087351D01*
X194475500Y-69863095D01*
X194475500Y-69636905D01*
X194445976Y-69412649D01*
X194387433Y-69194166D01*
X194338180Y-69075259D01*
X194300879Y-68985205D01*
X194300872Y-68985190D01*
X194187779Y-68789307D01*
X194050084Y-68609859D01*
X194050078Y-68609852D01*
X193890147Y-68449921D01*
X193890140Y-68449915D01*
X193710692Y-68312220D01*
X193514809Y-68199127D01*
X193514794Y-68199120D01*
X193305834Y-68112567D01*
X193137856Y-68067557D01*
X193087351Y-68054024D01*
X193087350Y-68054023D01*
X193087347Y-68054023D01*
X192863104Y-68024501D01*
X192863101Y-68024500D01*
X192863095Y-68024500D01*
X192636905Y-68024500D01*
X192636899Y-68024500D01*
X192636895Y-68024501D01*
X192412652Y-68054023D01*
X192194165Y-68112567D01*
X191985205Y-68199120D01*
X191985190Y-68199127D01*
X191789307Y-68312220D01*
X191609859Y-68449915D01*
X191609852Y-68449921D01*
X191449921Y-68609852D01*
X191449915Y-68609859D01*
X191312220Y-68789307D01*
X191199127Y-68985190D01*
X191199120Y-68985205D01*
X191112567Y-69194165D01*
X191054023Y-69412652D01*
X191024501Y-69636895D01*
X191024500Y-69636911D01*
X140189079Y-69636911D01*
X140137433Y-69444166D01*
X140050874Y-69235194D01*
X139937779Y-69039307D01*
X139800083Y-68859858D01*
X139800078Y-68859852D01*
X139640147Y-68699921D01*
X139640140Y-68699915D01*
X139460692Y-68562220D01*
X139264809Y-68449127D01*
X139264794Y-68449120D01*
X139055834Y-68362567D01*
X138867942Y-68312221D01*
X138837351Y-68304024D01*
X138837350Y-68304023D01*
X138837347Y-68304023D01*
X138613104Y-68274501D01*
X138613101Y-68274500D01*
X138613095Y-68274500D01*
X138386905Y-68274500D01*
X138386899Y-68274500D01*
X138386895Y-68274501D01*
X138162652Y-68304023D01*
X137944165Y-68362567D01*
X137735205Y-68449120D01*
X137735190Y-68449127D01*
X137539307Y-68562220D01*
X137359859Y-68699915D01*
X137359852Y-68699921D01*
X137199921Y-68859852D01*
X137199915Y-68859859D01*
X137062220Y-69039307D01*
X136949127Y-69235190D01*
X136949120Y-69235205D01*
X136862567Y-69444165D01*
X136804023Y-69662652D01*
X136774501Y-69886895D01*
X136774500Y-69886911D01*
X132725500Y-69886911D01*
X132725500Y-69886905D01*
X132695976Y-69662649D01*
X132637433Y-69444166D01*
X132550874Y-69235194D01*
X132437779Y-69039307D01*
X132300083Y-68859858D01*
X132300078Y-68859852D01*
X132140147Y-68699921D01*
X132140140Y-68699915D01*
X131960692Y-68562220D01*
X131764809Y-68449127D01*
X131764794Y-68449120D01*
X131555834Y-68362567D01*
X131367942Y-68312221D01*
X131337351Y-68304024D01*
X131337350Y-68304023D01*
X131337347Y-68304023D01*
X131113104Y-68274501D01*
X131113101Y-68274500D01*
X131113095Y-68274500D01*
X130886905Y-68274500D01*
X130886899Y-68274500D01*
X130886895Y-68274501D01*
X130662652Y-68304023D01*
X130444165Y-68362567D01*
X130235205Y-68449120D01*
X130235190Y-68449127D01*
X130039307Y-68562220D01*
X129859859Y-68699915D01*
X129859852Y-68699921D01*
X129699921Y-68859852D01*
X129699915Y-68859859D01*
X129562220Y-69039307D01*
X129449127Y-69235190D01*
X129449120Y-69235205D01*
X129362567Y-69444165D01*
X129304023Y-69662652D01*
X129274501Y-69886895D01*
X129274500Y-69886911D01*
X126668832Y-69886911D01*
X126698848Y-69658914D01*
X126700722Y-69648284D01*
X126790426Y-69243657D01*
X126793224Y-69233219D01*
X126917845Y-68837970D01*
X126921532Y-68827838D01*
X127080138Y-68444930D01*
X127084696Y-68435156D01*
X127276062Y-68067545D01*
X127281457Y-68058200D01*
X127504143Y-67708653D01*
X127510333Y-67699813D01*
X127762629Y-67371015D01*
X127769567Y-67362746D01*
X128049560Y-67057188D01*
X128057188Y-67049560D01*
X128362746Y-66769567D01*
X128371015Y-66762629D01*
X128699813Y-66510333D01*
X128708653Y-66504143D01*
X129058200Y-66281457D01*
X129067545Y-66276062D01*
X129435156Y-66084696D01*
X129444930Y-66080138D01*
X129827838Y-65921532D01*
X129837970Y-65917845D01*
X130233228Y-65793221D01*
X130243657Y-65790426D01*
X130648284Y-65700722D01*
X130658910Y-65698849D01*
X131069813Y-65644752D01*
X131080542Y-65643813D01*
X131497297Y-65625617D01*
X131502706Y-65625500D01*
X131528644Y-65625500D01*
X192221356Y-65625500D01*
X192247294Y-65625500D01*
X192252702Y-65625617D01*
G37*
%TD.AperFunction*%
%TD*%
M02*
