%TF.GenerationSoftware,KiCad,Pcbnew,9.0.0*%
%TF.CreationDate,2026-03-27T18:10:49+01:00*%
%TF.ProjectId,BACKPACK,4241434b-5041-4434-9b2e-6b696361645f,rev?*%
%TF.SameCoordinates,Original*%
%TF.FileFunction,Copper,L3,Inr*%
%TF.FilePolarity,Positive*%
%FSLAX46Y46*%
G04 Gerber Fmt 4.6, Leading zero omitted, Abs format (unit mm)*
G04 Created by KiCad (PCBNEW 9.0.0) date 2026-03-27 18:10:49*
%MOMM*%
%LPD*%
G01*
G04 APERTURE LIST*
G04 Aperture macros list*
%AMRoundRect*
0 Rectangle with rounded corners*
0 $1 Rounding radius*
0 $2 $3 $4 $5 $6 $7 $8 $9 X,Y pos of 4 corners*
0 Add a 4 corners polygon primitive as box body*
4,1,4,$2,$3,$4,$5,$6,$7,$8,$9,$2,$3,0*
0 Add four circle primitives for the rounded corners*
1,1,$1+$1,$2,$3*
1,1,$1+$1,$4,$5*
1,1,$1+$1,$6,$7*
1,1,$1+$1,$8,$9*
0 Add four rect primitives between the rounded corners*
20,1,$1+$1,$2,$3,$4,$5,0*
20,1,$1+$1,$4,$5,$6,$7,0*
20,1,$1+$1,$6,$7,$8,$9,0*
20,1,$1+$1,$8,$9,$2,$3,0*%
G04 Aperture macros list end*
%TA.AperFunction,ComponentPad*%
%ADD10RoundRect,0.250000X0.725000X-0.600000X0.725000X0.600000X-0.725000X0.600000X-0.725000X-0.600000X0*%
%TD*%
%TA.AperFunction,ComponentPad*%
%ADD11O,1.950000X1.700000*%
%TD*%
%TA.AperFunction,ComponentPad*%
%ADD12C,2.500000*%
%TD*%
%TA.AperFunction,ComponentPad*%
%ADD13R,1.700000X1.700000*%
%TD*%
%TA.AperFunction,ComponentPad*%
%ADD14C,1.700000*%
%TD*%
%TA.AperFunction,ViaPad*%
%ADD15C,0.450000*%
%TD*%
G04 APERTURE END LIST*
D10*
%TO.N,/CPU_SWDCLK*%
%TO.C,J2*%
X191875000Y-82200000D03*
D11*
%TO.N,/CPU_SWDIO*%
X191875000Y-79700000D03*
%TO.N,GND*%
X191875000Y-77200000D03*
%TD*%
D10*
%TO.N,/SWDIO*%
%TO.C,J3*%
X184700000Y-82200000D03*
D11*
%TO.N,/SWCLK*%
X184700000Y-79700000D03*
%TO.N,GND*%
X184700000Y-77200000D03*
%TD*%
D12*
%TO.N,Net-(U9-RF_IN)*%
%TO.C,ANT1*%
X157100000Y-76600000D03*
%TD*%
D10*
%TO.N,/UART1_RX_RADIO*%
%TO.C,J7*%
X191900000Y-93400000D03*
D11*
%TO.N,/UART1_TX_RADIO*%
X191900000Y-90900000D03*
%TO.N,GND*%
X191900000Y-88400000D03*
%TD*%
D10*
%TO.N,HIL_TX*%
%TO.C,J1*%
X184700000Y-93400000D03*
D11*
%TO.N,HIL_RX*%
X184700000Y-90900000D03*
%TO.N,GND*%
X184700000Y-88400000D03*
%TD*%
D13*
%TO.N,+3V3*%
%TO.C,J5*%
X177000000Y-76760000D03*
D14*
X174460000Y-76760000D03*
%TO.N,/PWM4*%
X177000000Y-79300000D03*
%TO.N,/PWM1*%
X174460000Y-79300000D03*
%TO.N,/PWM2*%
X177000000Y-81840000D03*
%TO.N,/PWM3*%
X174460000Y-81840000D03*
%TO.N,GND*%
X177000000Y-84380000D03*
%TO.N,/GPIO20*%
X174460000Y-84380000D03*
%TO.N,/RX_GPS*%
X177000000Y-86920000D03*
%TO.N,/TX_GPS*%
X174460000Y-86920000D03*
%TO.N,HIL_TX*%
X177000000Y-89460000D03*
%TO.N,HIL_RX*%
X174460000Y-89460000D03*
%TO.N,GND*%
X177000000Y-92000000D03*
X174460000Y-92000000D03*
%TO.N,/SDA_RADIO*%
X177000000Y-94540000D03*
%TO.N,/SCL_RADIO*%
X174460000Y-94540000D03*
%TD*%
D13*
%TO.N,+3V3*%
%TO.C,J6*%
X141700000Y-76660000D03*
D14*
X139160000Y-76660000D03*
%TO.N,/CPU_SWDCLK*%
X141700000Y-79200000D03*
%TO.N,PPS*%
X139160000Y-79200000D03*
%TO.N,/CPU_SWDIO*%
X141700000Y-81740000D03*
%TO.N,/BOOTSEL*%
X139160000Y-81740000D03*
%TO.N,/GPIO39*%
X141700000Y-84280000D03*
%TO.N,/RESET*%
X139160000Y-84280000D03*
%TO.N,/GPIO41*%
X141700000Y-86820000D03*
%TO.N,/GPIO42*%
X139160000Y-86820000D03*
%TO.N,/GPIO43*%
X141700000Y-89360000D03*
%TO.N,/GPIO44*%
X139160000Y-89360000D03*
%TO.N,/GPIO46*%
X141700000Y-91900000D03*
%TO.N,/GPIO45*%
X139160000Y-91900000D03*
%TO.N,GND*%
X141700000Y-94440000D03*
X139160000Y-94440000D03*
%TD*%
D15*
%TO.N,GND*%
X146014515Y-107412035D03*
X174606377Y-99795718D03*
X166770000Y-97022500D03*
X137324238Y-97300000D03*
X139731646Y-97314470D03*
X159062500Y-76000000D03*
X141865828Y-103263348D03*
X143051167Y-104448687D03*
X169412500Y-69100000D03*
X144829176Y-106226696D03*
X165220000Y-97032500D03*
X140680488Y-102078008D03*
X145007171Y-102162051D03*
X142736812Y-99891692D03*
X159062500Y-77750000D03*
X129084000Y-101340000D03*
X174050000Y-109487500D03*
X143871991Y-101026871D03*
X134901352Y-100300000D03*
X135718851Y-97300000D03*
X131700450Y-100300000D03*
X129109400Y-96691800D03*
X160212500Y-75700000D03*
X137302029Y-100300000D03*
X134101127Y-100300000D03*
X140087819Y-101485339D03*
X145421845Y-106819365D03*
X147511838Y-108000000D03*
X142458497Y-103856017D03*
X142169222Y-99324102D03*
X143304401Y-100459281D03*
X131000000Y-76662500D03*
X138902480Y-100300000D03*
X171050000Y-109487500D03*
X148350000Y-108000000D03*
X136521545Y-97300000D03*
X146709940Y-103864820D03*
X138929624Y-97300000D03*
X134113465Y-97300000D03*
X131705386Y-97300000D03*
X134916158Y-97300000D03*
X140460138Y-97628134D03*
X145574760Y-102729640D03*
X133000000Y-76875000D03*
X156249999Y-93600001D03*
X133300901Y-100300000D03*
X143643836Y-105041356D03*
X141601632Y-98756512D03*
X144236506Y-105634026D03*
X138126931Y-97300000D03*
X144439581Y-101594461D03*
X136501803Y-100300000D03*
X139495149Y-100892669D03*
X183750000Y-97657500D03*
X141034042Y-98188922D03*
X146142350Y-103297230D03*
X168050000Y-109487500D03*
X160212500Y-77900000D03*
X135701578Y-100300000D03*
X138102254Y-100300000D03*
X133310772Y-97300000D03*
X163150000Y-105500002D03*
X141273158Y-102670678D03*
X146685926Y-107900247D03*
X132508079Y-97300000D03*
X132500676Y-100300000D03*
%TO.N,Net-(BT1-+)*%
X172000000Y-95000000D03*
%TO.N,+3V3*%
X169412500Y-76800000D03*
X165220000Y-95307500D03*
X166770000Y-95297500D03*
X182160000Y-97620000D03*
%TO.N,/L_BLUE*%
X158820285Y-96990285D03*
X157710000Y-95870000D03*
%TO.N,Net-(U9-RF_IN)*%
X160212500Y-76800000D03*
%TO.N,/TX_GPS*%
X164860000Y-100400000D03*
X159270000Y-100400000D03*
%TO.N,/SDA_RADIO*%
X150600000Y-102800000D03*
%TO.N,/SCL_RADIO*%
X167600000Y-93400000D03*
X164800000Y-93400000D03*
X148350000Y-103500001D03*
%TO.N,/RX_GPS*%
X157680000Y-100900000D03*
X165360000Y-100900000D03*
%TO.N,unconnected-(U10-PA7{slash}SPI1_MOSI-Pad13)*%
X156249999Y-108900001D03*
%TO.N,/UART1_TX_RADIO*%
X160100000Y-101400000D03*
%TO.N,/UART1_RX_RADIO*%
X158790000Y-101900000D03*
%TO.N,/SWCLK*%
X165200000Y-102787500D03*
X158780000Y-103100000D03*
X167800000Y-100850000D03*
%TO.N,/SWDIO*%
X168660000Y-102630000D03*
X170950000Y-100350000D03*
X160670000Y-102500000D03*
%TD*%
%TA.AperFunction,Conductor*%
%TO.N,+3V3*%
G36*
X192252702Y-65625617D02*
G01*
X192669455Y-65643813D01*
X192680188Y-65644753D01*
X193091085Y-65698848D01*
X193101719Y-65700723D01*
X193506336Y-65790425D01*
X193516777Y-65793223D01*
X193912022Y-65917842D01*
X193922168Y-65921535D01*
X194305060Y-66080135D01*
X194314852Y-66084701D01*
X194331092Y-66093155D01*
X194682442Y-66276056D01*
X194691810Y-66281464D01*
X195041335Y-66504136D01*
X195050196Y-66510341D01*
X195378975Y-66762622D01*
X195387262Y-66769576D01*
X195692800Y-67049550D01*
X195700449Y-67057199D01*
X195980423Y-67362737D01*
X195987377Y-67371024D01*
X196239658Y-67699803D01*
X196245863Y-67708664D01*
X196468535Y-68058189D01*
X196473943Y-68067557D01*
X196665295Y-68435141D01*
X196669867Y-68444945D01*
X196828460Y-68827821D01*
X196832160Y-68837987D01*
X196956775Y-69233219D01*
X196959575Y-69243667D01*
X197049274Y-69648272D01*
X197051152Y-69658925D01*
X197105244Y-70069788D01*
X197106187Y-70080565D01*
X197124382Y-70497297D01*
X197124500Y-70502706D01*
X197124500Y-105497293D01*
X197124382Y-105502702D01*
X197106187Y-105919434D01*
X197105244Y-105930211D01*
X197051152Y-106341074D01*
X197049274Y-106351727D01*
X196959575Y-106756332D01*
X196956775Y-106766780D01*
X196832160Y-107162012D01*
X196828460Y-107172178D01*
X196669867Y-107555054D01*
X196665295Y-107564858D01*
X196473943Y-107932442D01*
X196468535Y-107941810D01*
X196245863Y-108291335D01*
X196239658Y-108300196D01*
X195987377Y-108628975D01*
X195980423Y-108637262D01*
X195700449Y-108942800D01*
X195692800Y-108950449D01*
X195387262Y-109230423D01*
X195378975Y-109237377D01*
X195050196Y-109489658D01*
X195041335Y-109495863D01*
X194691810Y-109718535D01*
X194682442Y-109723943D01*
X194314858Y-109915295D01*
X194305054Y-109919867D01*
X193922178Y-110078460D01*
X193912012Y-110082160D01*
X193516780Y-110206775D01*
X193506332Y-110209575D01*
X193101727Y-110299274D01*
X193091074Y-110301152D01*
X192680211Y-110355244D01*
X192669434Y-110356187D01*
X192252703Y-110374382D01*
X192247294Y-110374500D01*
X131502706Y-110374500D01*
X131497297Y-110374382D01*
X131080565Y-110356187D01*
X131069790Y-110355244D01*
X130976056Y-110342903D01*
X130658925Y-110301152D01*
X130648272Y-110299274D01*
X130243667Y-110209575D01*
X130233219Y-110206775D01*
X129837987Y-110082160D01*
X129827821Y-110078460D01*
X129444945Y-109919867D01*
X129435141Y-109915295D01*
X129067557Y-109723943D01*
X129058189Y-109718535D01*
X128708664Y-109495863D01*
X128699803Y-109489658D01*
X128623987Y-109431482D01*
X167624500Y-109431482D01*
X167624500Y-109543518D01*
X167653497Y-109651737D01*
X167709515Y-109748763D01*
X167788737Y-109827985D01*
X167885763Y-109884003D01*
X167993982Y-109913000D01*
X167993984Y-109913000D01*
X168106016Y-109913000D01*
X168106018Y-109913000D01*
X168214237Y-109884003D01*
X168311263Y-109827985D01*
X168390485Y-109748763D01*
X168446503Y-109651737D01*
X168475500Y-109543518D01*
X168475500Y-109431482D01*
X170624500Y-109431482D01*
X170624500Y-109543518D01*
X170653497Y-109651737D01*
X170709515Y-109748763D01*
X170788737Y-109827985D01*
X170885763Y-109884003D01*
X170993982Y-109913000D01*
X170993984Y-109913000D01*
X171106016Y-109913000D01*
X171106018Y-109913000D01*
X171214237Y-109884003D01*
X171311263Y-109827985D01*
X171390485Y-109748763D01*
X171446503Y-109651737D01*
X171475500Y-109543518D01*
X171475500Y-109431482D01*
X173624500Y-109431482D01*
X173624500Y-109543518D01*
X173653497Y-109651737D01*
X173709515Y-109748763D01*
X173788737Y-109827985D01*
X173885763Y-109884003D01*
X173993982Y-109913000D01*
X173993984Y-109913000D01*
X174106016Y-109913000D01*
X174106018Y-109913000D01*
X174214237Y-109884003D01*
X174311263Y-109827985D01*
X174390485Y-109748763D01*
X174446503Y-109651737D01*
X174475500Y-109543518D01*
X174475500Y-109431482D01*
X174446503Y-109323263D01*
X174390485Y-109226237D01*
X174311263Y-109147015D01*
X174214237Y-109090997D01*
X174106018Y-109062000D01*
X173993982Y-109062000D01*
X173885763Y-109090997D01*
X173885760Y-109090998D01*
X173788740Y-109147013D01*
X173788734Y-109147017D01*
X173709517Y-109226234D01*
X173709513Y-109226240D01*
X173653498Y-109323260D01*
X173653497Y-109323263D01*
X173624500Y-109431482D01*
X171475500Y-109431482D01*
X171446503Y-109323263D01*
X171390485Y-109226237D01*
X171311263Y-109147015D01*
X171214237Y-109090997D01*
X171106018Y-109062000D01*
X170993982Y-109062000D01*
X170885763Y-109090997D01*
X170885760Y-109090998D01*
X170788740Y-109147013D01*
X170788734Y-109147017D01*
X170709517Y-109226234D01*
X170709513Y-109226240D01*
X170653498Y-109323260D01*
X170653497Y-109323263D01*
X170624500Y-109431482D01*
X168475500Y-109431482D01*
X168446503Y-109323263D01*
X168390485Y-109226237D01*
X168311263Y-109147015D01*
X168214237Y-109090997D01*
X168106018Y-109062000D01*
X167993982Y-109062000D01*
X167885763Y-109090997D01*
X167885760Y-109090998D01*
X167788740Y-109147013D01*
X167788734Y-109147017D01*
X167709517Y-109226234D01*
X167709513Y-109226240D01*
X167653498Y-109323260D01*
X167653497Y-109323263D01*
X167624500Y-109431482D01*
X128623987Y-109431482D01*
X128371024Y-109237377D01*
X128362737Y-109230423D01*
X128057199Y-108950449D01*
X128049560Y-108942811D01*
X127959001Y-108843983D01*
X155824499Y-108843983D01*
X155824499Y-108956019D01*
X155853496Y-109064238D01*
X155909514Y-109161264D01*
X155988736Y-109240486D01*
X156085762Y-109296504D01*
X156193981Y-109325501D01*
X156193983Y-109325501D01*
X156306015Y-109325501D01*
X156306017Y-109325501D01*
X156414236Y-109296504D01*
X156511262Y-109240486D01*
X156590484Y-109161264D01*
X156646502Y-109064238D01*
X156675499Y-108956019D01*
X156675499Y-108843983D01*
X156646502Y-108735764D01*
X156590484Y-108638738D01*
X156511262Y-108559516D01*
X156414236Y-108503498D01*
X156306017Y-108474501D01*
X156193981Y-108474501D01*
X156085762Y-108503498D01*
X156085759Y-108503499D01*
X155988739Y-108559514D01*
X155988733Y-108559518D01*
X155909516Y-108638735D01*
X155909512Y-108638741D01*
X155853497Y-108735761D01*
X155853496Y-108735764D01*
X155824499Y-108843983D01*
X127959001Y-108843983D01*
X127770931Y-108638741D01*
X127769576Y-108637262D01*
X127762622Y-108628975D01*
X127510341Y-108300196D01*
X127504136Y-108291335D01*
X127484975Y-108261259D01*
X127281463Y-107941809D01*
X127276056Y-107932442D01*
X127269592Y-107920025D01*
X127084701Y-107564852D01*
X127080132Y-107555054D01*
X127044095Y-107468053D01*
X126921535Y-107172168D01*
X126917839Y-107162012D01*
X126917157Y-107159850D01*
X126793223Y-106766777D01*
X126790424Y-106756332D01*
X126767338Y-106652196D01*
X126700723Y-106351719D01*
X126698847Y-106341074D01*
X126698357Y-106337351D01*
X126644753Y-105930188D01*
X126643813Y-105919453D01*
X126642392Y-105886911D01*
X129274500Y-105886911D01*
X129274500Y-106113088D01*
X129274501Y-106113104D01*
X129304023Y-106337347D01*
X129362567Y-106555834D01*
X129449120Y-106764794D01*
X129449127Y-106764809D01*
X129562220Y-106960692D01*
X129699915Y-107140140D01*
X129699921Y-107140147D01*
X129859852Y-107300078D01*
X129859859Y-107300084D01*
X130039307Y-107437779D01*
X130235190Y-107550872D01*
X130235205Y-107550879D01*
X130296510Y-107576272D01*
X130444166Y-107637433D01*
X130662649Y-107695976D01*
X130886905Y-107725500D01*
X130886912Y-107725500D01*
X131113088Y-107725500D01*
X131113095Y-107725500D01*
X131337351Y-107695976D01*
X131555834Y-107637433D01*
X131764806Y-107550874D01*
X131960693Y-107437779D01*
X132140142Y-107300083D01*
X132300083Y-107140142D01*
X132437779Y-106960693D01*
X132550874Y-106764806D01*
X132637433Y-106555834D01*
X132695976Y-106337351D01*
X132725500Y-106113095D01*
X132725500Y-105886905D01*
X132695976Y-105662649D01*
X132637433Y-105444166D01*
X132552344Y-105238742D01*
X132550879Y-105235205D01*
X132550872Y-105235190D01*
X132437779Y-105039307D01*
X132300084Y-104859859D01*
X132300078Y-104859852D01*
X132140147Y-104699921D01*
X132140140Y-104699915D01*
X131960692Y-104562220D01*
X131764809Y-104449127D01*
X131764794Y-104449120D01*
X131555834Y-104362567D01*
X131337347Y-104304023D01*
X131113104Y-104274501D01*
X131113101Y-104274500D01*
X131113095Y-104274500D01*
X130886905Y-104274500D01*
X130886899Y-104274500D01*
X130886895Y-104274501D01*
X130662652Y-104304023D01*
X130444165Y-104362567D01*
X130235205Y-104449120D01*
X130235190Y-104449127D01*
X130039307Y-104562220D01*
X129859859Y-104699915D01*
X129859852Y-104699921D01*
X129699921Y-104859852D01*
X129699915Y-104859859D01*
X129562220Y-105039307D01*
X129449127Y-105235190D01*
X129449120Y-105235205D01*
X129362567Y-105444165D01*
X129304023Y-105662652D01*
X129274501Y-105886895D01*
X129274500Y-105886911D01*
X126642392Y-105886911D01*
X126625618Y-105502702D01*
X126625500Y-105497293D01*
X126625500Y-101283982D01*
X128658500Y-101283982D01*
X128658500Y-101396018D01*
X128687497Y-101504237D01*
X128743515Y-101601263D01*
X128822737Y-101680485D01*
X128919763Y-101736503D01*
X129027982Y-101765500D01*
X129027984Y-101765500D01*
X129140016Y-101765500D01*
X129140018Y-101765500D01*
X129248237Y-101736503D01*
X129345263Y-101680485D01*
X129424485Y-101601263D01*
X129480503Y-101504237D01*
X129509500Y-101396018D01*
X129509500Y-101283982D01*
X129480503Y-101175763D01*
X129424485Y-101078737D01*
X129345263Y-100999515D01*
X129269921Y-100956016D01*
X129248239Y-100943498D01*
X129248238Y-100943497D01*
X129248237Y-100943497D01*
X129140018Y-100914500D01*
X129027982Y-100914500D01*
X128919763Y-100943497D01*
X128919760Y-100943498D01*
X128822740Y-100999513D01*
X128822734Y-100999517D01*
X128743517Y-101078734D01*
X128743513Y-101078740D01*
X128687498Y-101175760D01*
X128687497Y-101175763D01*
X128658500Y-101283982D01*
X126625500Y-101283982D01*
X126625500Y-100375023D01*
X126645185Y-100307984D01*
X126697989Y-100262229D01*
X126750006Y-100251024D01*
X131157018Y-100269085D01*
X131223974Y-100289044D01*
X131269513Y-100342035D01*
X131276281Y-100360985D01*
X131301745Y-100456018D01*
X131303947Y-100464236D01*
X131303948Y-100464239D01*
X131318422Y-100489309D01*
X131359965Y-100561263D01*
X131439187Y-100640485D01*
X131536213Y-100696503D01*
X131644432Y-100725500D01*
X131644434Y-100725500D01*
X131756466Y-100725500D01*
X131756468Y-100725500D01*
X131864687Y-100696503D01*
X131961713Y-100640485D01*
X132012882Y-100589316D01*
X132074205Y-100555831D01*
X132143897Y-100560815D01*
X132188244Y-100589316D01*
X132239413Y-100640485D01*
X132336439Y-100696503D01*
X132444658Y-100725500D01*
X132444660Y-100725500D01*
X132556692Y-100725500D01*
X132556694Y-100725500D01*
X132664913Y-100696503D01*
X132761939Y-100640485D01*
X132813108Y-100589315D01*
X132874429Y-100555831D01*
X132944121Y-100560815D01*
X132988469Y-100589316D01*
X133039638Y-100640485D01*
X133136664Y-100696503D01*
X133244883Y-100725500D01*
X133244885Y-100725500D01*
X133356917Y-100725500D01*
X133356919Y-100725500D01*
X133465138Y-100696503D01*
X133562164Y-100640485D01*
X133613333Y-100589316D01*
X133674656Y-100555831D01*
X133744348Y-100560815D01*
X133788695Y-100589316D01*
X133839864Y-100640485D01*
X133936890Y-100696503D01*
X134045109Y-100725500D01*
X134045111Y-100725500D01*
X134157143Y-100725500D01*
X134157145Y-100725500D01*
X134265364Y-100696503D01*
X134362390Y-100640485D01*
X134413559Y-100589315D01*
X134474880Y-100555831D01*
X134544572Y-100560815D01*
X134588920Y-100589316D01*
X134640089Y-100640485D01*
X134737115Y-100696503D01*
X134845334Y-100725500D01*
X134845336Y-100725500D01*
X134957368Y-100725500D01*
X134957370Y-100725500D01*
X135065589Y-100696503D01*
X135162615Y-100640485D01*
X135213784Y-100589316D01*
X135275107Y-100555831D01*
X135344799Y-100560815D01*
X135389146Y-100589316D01*
X135440315Y-100640485D01*
X135537341Y-100696503D01*
X135645560Y-100725500D01*
X135645562Y-100725500D01*
X135757594Y-100725500D01*
X135757596Y-100725500D01*
X135865815Y-100696503D01*
X135962841Y-100640485D01*
X136014010Y-100589315D01*
X136075331Y-100555831D01*
X136145023Y-100560815D01*
X136189371Y-100589316D01*
X136240540Y-100640485D01*
X136337566Y-100696503D01*
X136445785Y-100725500D01*
X136445787Y-100725500D01*
X136557819Y-100725500D01*
X136557821Y-100725500D01*
X136666040Y-100696503D01*
X136763066Y-100640485D01*
X136814235Y-100589316D01*
X136875558Y-100555831D01*
X136945250Y-100560815D01*
X136989597Y-100589316D01*
X137040766Y-100640485D01*
X137137792Y-100696503D01*
X137246011Y-100725500D01*
X137246013Y-100725500D01*
X137358045Y-100725500D01*
X137358047Y-100725500D01*
X137466266Y-100696503D01*
X137563292Y-100640485D01*
X137614461Y-100589315D01*
X137675782Y-100555831D01*
X137745474Y-100560815D01*
X137789822Y-100589316D01*
X137840991Y-100640485D01*
X137938017Y-100696503D01*
X138046236Y-100725500D01*
X138046238Y-100725500D01*
X138158270Y-100725500D01*
X138158272Y-100725500D01*
X138266491Y-100696503D01*
X138363517Y-100640485D01*
X138414686Y-100589316D01*
X138476009Y-100555831D01*
X138545701Y-100560815D01*
X138590048Y-100589316D01*
X138641217Y-100640485D01*
X138738243Y-100696503D01*
X138846462Y-100725500D01*
X138846464Y-100725500D01*
X138945649Y-100725500D01*
X139012688Y-100745185D01*
X139058443Y-100797989D01*
X139069649Y-100849500D01*
X139069649Y-100948687D01*
X139087214Y-101014239D01*
X139098646Y-101056905D01*
X139098647Y-101056908D01*
X139102880Y-101064239D01*
X139154664Y-101153932D01*
X139233886Y-101233154D01*
X139330912Y-101289172D01*
X139439131Y-101318169D01*
X139439133Y-101318169D01*
X139538319Y-101318169D01*
X139605358Y-101337854D01*
X139651113Y-101390658D01*
X139662319Y-101442169D01*
X139662319Y-101541357D01*
X139691316Y-101649576D01*
X139747334Y-101746602D01*
X139826556Y-101825824D01*
X139923582Y-101881842D01*
X140031801Y-101910839D01*
X140031803Y-101910839D01*
X140130988Y-101910839D01*
X140198027Y-101930524D01*
X140243782Y-101983328D01*
X140254988Y-102034839D01*
X140254988Y-102134026D01*
X140283985Y-102242245D01*
X140340003Y-102339271D01*
X140419225Y-102418493D01*
X140516251Y-102474511D01*
X140624470Y-102503508D01*
X140624472Y-102503508D01*
X140723658Y-102503508D01*
X140790697Y-102523193D01*
X140836452Y-102575997D01*
X140847658Y-102627508D01*
X140847658Y-102726696D01*
X140872447Y-102819208D01*
X140876655Y-102834914D01*
X140876656Y-102834917D01*
X140878863Y-102838740D01*
X140932673Y-102931941D01*
X141011895Y-103011163D01*
X141108921Y-103067181D01*
X141217140Y-103096178D01*
X141217142Y-103096178D01*
X141316328Y-103096178D01*
X141383367Y-103115863D01*
X141429122Y-103168667D01*
X141440328Y-103220178D01*
X141440328Y-103319365D01*
X141469325Y-103427584D01*
X141469326Y-103427587D01*
X141487997Y-103459927D01*
X141525343Y-103524611D01*
X141604565Y-103603833D01*
X141701591Y-103659851D01*
X141809810Y-103688848D01*
X141809812Y-103688848D01*
X141908997Y-103688848D01*
X141976036Y-103708533D01*
X142021791Y-103761337D01*
X142032997Y-103812848D01*
X142032997Y-103912035D01*
X142035356Y-103920837D01*
X142061994Y-104020253D01*
X142061995Y-104020256D01*
X142080666Y-104052596D01*
X142118012Y-104117280D01*
X142197234Y-104196502D01*
X142294260Y-104252520D01*
X142402479Y-104281517D01*
X142402481Y-104281517D01*
X142501667Y-104281517D01*
X142568706Y-104301202D01*
X142614461Y-104354006D01*
X142625667Y-104405517D01*
X142625667Y-104504705D01*
X142654664Y-104612924D01*
X142710682Y-104709950D01*
X142789904Y-104789172D01*
X142886930Y-104845190D01*
X142995149Y-104874187D01*
X142995151Y-104874187D01*
X143094336Y-104874187D01*
X143161375Y-104893872D01*
X143207130Y-104946676D01*
X143218336Y-104998187D01*
X143218336Y-105097374D01*
X143245835Y-105200000D01*
X143247333Y-105205592D01*
X143247334Y-105205595D01*
X143266005Y-105237935D01*
X143303351Y-105302619D01*
X143382573Y-105381841D01*
X143479599Y-105437859D01*
X143587818Y-105466856D01*
X143587820Y-105466856D01*
X143687006Y-105466856D01*
X143754045Y-105486541D01*
X143799800Y-105539345D01*
X143811006Y-105590856D01*
X143811006Y-105690044D01*
X143840003Y-105798263D01*
X143896021Y-105895289D01*
X143975243Y-105974511D01*
X144072269Y-106030529D01*
X144180488Y-106059526D01*
X144180490Y-106059526D01*
X144279676Y-106059526D01*
X144346715Y-106079211D01*
X144392470Y-106132015D01*
X144403676Y-106183526D01*
X144403676Y-106282714D01*
X144432673Y-106390933D01*
X144488691Y-106487959D01*
X144567913Y-106567181D01*
X144664939Y-106623199D01*
X144773158Y-106652196D01*
X144773160Y-106652196D01*
X144872345Y-106652196D01*
X144939384Y-106671881D01*
X144985139Y-106724685D01*
X144996345Y-106776196D01*
X144996345Y-106875383D01*
X145025342Y-106983602D01*
X145081360Y-107080628D01*
X145160582Y-107159850D01*
X145257608Y-107215868D01*
X145365827Y-107244865D01*
X145365829Y-107244865D01*
X145465015Y-107244865D01*
X145532054Y-107264550D01*
X145577809Y-107317354D01*
X145589015Y-107368865D01*
X145589015Y-107468053D01*
X145618012Y-107576272D01*
X145674030Y-107673298D01*
X145753252Y-107752520D01*
X145850278Y-107808538D01*
X145958497Y-107837535D01*
X145958499Y-107837535D01*
X146070531Y-107837535D01*
X146070533Y-107837535D01*
X146104334Y-107828478D01*
X146174183Y-107830141D01*
X146232045Y-107869304D01*
X146259549Y-107933532D01*
X146260426Y-107948253D01*
X146260426Y-107956265D01*
X146289423Y-108064484D01*
X146345441Y-108161510D01*
X146424663Y-108240732D01*
X146521689Y-108296750D01*
X146629908Y-108325747D01*
X146629910Y-108325747D01*
X146741942Y-108325747D01*
X146741944Y-108325747D01*
X146850163Y-108296750D01*
X146947189Y-108240732D01*
X146967522Y-108220398D01*
X147028841Y-108186915D01*
X147098532Y-108191898D01*
X147154467Y-108233769D01*
X147162582Y-108246072D01*
X147171353Y-108261263D01*
X147250575Y-108340485D01*
X147347601Y-108396503D01*
X147455820Y-108425500D01*
X147455822Y-108425500D01*
X147567854Y-108425500D01*
X147567856Y-108425500D01*
X147676075Y-108396503D01*
X147773101Y-108340485D01*
X147843238Y-108270348D01*
X147904561Y-108236863D01*
X147974253Y-108241847D01*
X148018600Y-108270348D01*
X148088737Y-108340485D01*
X148185763Y-108396503D01*
X148293982Y-108425500D01*
X148293984Y-108425500D01*
X148406016Y-108425500D01*
X148406018Y-108425500D01*
X148514237Y-108396503D01*
X148611263Y-108340485D01*
X148690485Y-108261263D01*
X148746503Y-108164237D01*
X148775500Y-108056018D01*
X148775500Y-107943982D01*
X148746503Y-107835763D01*
X148746499Y-107835756D01*
X148743392Y-107828253D01*
X148744635Y-107827738D01*
X148730168Y-107768098D01*
X148753021Y-107702071D01*
X148807943Y-107658882D01*
X148854027Y-107650000D01*
X149300000Y-107650000D01*
X149209959Y-105443984D01*
X162724500Y-105443984D01*
X162724500Y-105556019D01*
X162753497Y-105664238D01*
X162753498Y-105664241D01*
X162772169Y-105696581D01*
X162809515Y-105761265D01*
X162888737Y-105840487D01*
X162985763Y-105896505D01*
X163093982Y-105925502D01*
X163093984Y-105925502D01*
X163206016Y-105925502D01*
X163206018Y-105925502D01*
X163314237Y-105896505D01*
X163330854Y-105886911D01*
X183274500Y-105886911D01*
X183274500Y-106113088D01*
X183274501Y-106113104D01*
X183304023Y-106337347D01*
X183362567Y-106555834D01*
X183449120Y-106764794D01*
X183449127Y-106764809D01*
X183562220Y-106960692D01*
X183699915Y-107140140D01*
X183699921Y-107140147D01*
X183859852Y-107300078D01*
X183859859Y-107300084D01*
X184039307Y-107437779D01*
X184235190Y-107550872D01*
X184235205Y-107550879D01*
X184296510Y-107576272D01*
X184444166Y-107637433D01*
X184662649Y-107695976D01*
X184886905Y-107725500D01*
X184886912Y-107725500D01*
X185113088Y-107725500D01*
X185113095Y-107725500D01*
X185337351Y-107695976D01*
X185555834Y-107637433D01*
X185764806Y-107550874D01*
X185960693Y-107437779D01*
X186140142Y-107300083D01*
X186300083Y-107140142D01*
X186437779Y-106960693D01*
X186550874Y-106764806D01*
X186637433Y-106555834D01*
X186695976Y-106337351D01*
X186725500Y-106113095D01*
X186725500Y-105886911D01*
X190774500Y-105886911D01*
X190774500Y-106113088D01*
X190774501Y-106113104D01*
X190804023Y-106337347D01*
X190862567Y-106555834D01*
X190949120Y-106764794D01*
X190949127Y-106764809D01*
X191062220Y-106960692D01*
X191199915Y-107140140D01*
X191199921Y-107140147D01*
X191359852Y-107300078D01*
X191359859Y-107300084D01*
X191539307Y-107437779D01*
X191735190Y-107550872D01*
X191735205Y-107550879D01*
X191796510Y-107576272D01*
X191944166Y-107637433D01*
X192162649Y-107695976D01*
X192386905Y-107725500D01*
X192386912Y-107725500D01*
X192613088Y-107725500D01*
X192613095Y-107725500D01*
X192837351Y-107695976D01*
X193055834Y-107637433D01*
X193264806Y-107550874D01*
X193460693Y-107437779D01*
X193640142Y-107300083D01*
X193800083Y-107140142D01*
X193937779Y-106960693D01*
X194050874Y-106764806D01*
X194137433Y-106555834D01*
X194195976Y-106337351D01*
X194225500Y-106113095D01*
X194225500Y-105886905D01*
X194195976Y-105662649D01*
X194137433Y-105444166D01*
X194052344Y-105238742D01*
X194050879Y-105235205D01*
X194050872Y-105235190D01*
X193937779Y-105039307D01*
X193800084Y-104859859D01*
X193800078Y-104859852D01*
X193640147Y-104699921D01*
X193640140Y-104699915D01*
X193460692Y-104562220D01*
X193264809Y-104449127D01*
X193264794Y-104449120D01*
X193055834Y-104362567D01*
X192837347Y-104304023D01*
X192613104Y-104274501D01*
X192613101Y-104274500D01*
X192613095Y-104274500D01*
X192386905Y-104274500D01*
X192386899Y-104274500D01*
X192386895Y-104274501D01*
X192162652Y-104304023D01*
X191944165Y-104362567D01*
X191735205Y-104449120D01*
X191735190Y-104449127D01*
X191539307Y-104562220D01*
X191359859Y-104699915D01*
X191359852Y-104699921D01*
X191199921Y-104859852D01*
X191199915Y-104859859D01*
X191062220Y-105039307D01*
X190949127Y-105235190D01*
X190949120Y-105235205D01*
X190862567Y-105444165D01*
X190804023Y-105662652D01*
X190774501Y-105886895D01*
X190774500Y-105886911D01*
X186725500Y-105886911D01*
X186725500Y-105886905D01*
X186695976Y-105662649D01*
X186637433Y-105444166D01*
X186552344Y-105238742D01*
X186550879Y-105235205D01*
X186550872Y-105235190D01*
X186437779Y-105039307D01*
X186300084Y-104859859D01*
X186300078Y-104859852D01*
X186140147Y-104699921D01*
X186140140Y-104699915D01*
X185960692Y-104562220D01*
X185764809Y-104449127D01*
X185764794Y-104449120D01*
X185555834Y-104362567D01*
X185337347Y-104304023D01*
X185113104Y-104274501D01*
X185113101Y-104274500D01*
X185113095Y-104274500D01*
X184886905Y-104274500D01*
X184886899Y-104274500D01*
X184886895Y-104274501D01*
X184662652Y-104304023D01*
X184444165Y-104362567D01*
X184235205Y-104449120D01*
X184235190Y-104449127D01*
X184039307Y-104562220D01*
X183859859Y-104699915D01*
X183859852Y-104699921D01*
X183699921Y-104859852D01*
X183699915Y-104859859D01*
X183562220Y-105039307D01*
X183449127Y-105235190D01*
X183449120Y-105235205D01*
X183362567Y-105444165D01*
X183304023Y-105662652D01*
X183274501Y-105886895D01*
X183274500Y-105886911D01*
X163330854Y-105886911D01*
X163411263Y-105840487D01*
X163490485Y-105761265D01*
X163546503Y-105664239D01*
X163575500Y-105556020D01*
X163575500Y-105443984D01*
X163546503Y-105335765D01*
X163490485Y-105238739D01*
X163411263Y-105159517D01*
X163314237Y-105103499D01*
X163206018Y-105074502D01*
X163093982Y-105074502D01*
X162985763Y-105103499D01*
X162985760Y-105103500D01*
X162888740Y-105159515D01*
X162888734Y-105159519D01*
X162809517Y-105238736D01*
X162809513Y-105238742D01*
X162753498Y-105335762D01*
X162753497Y-105335765D01*
X162724500Y-105443984D01*
X149209959Y-105443984D01*
X149200000Y-105200000D01*
X147751362Y-105200000D01*
X147684323Y-105180315D01*
X147663681Y-105163681D01*
X146916898Y-104416898D01*
X146883413Y-104355575D01*
X146888397Y-104285883D01*
X146930269Y-104229950D01*
X146942557Y-104221843D01*
X146971203Y-104205305D01*
X147050425Y-104126083D01*
X147106443Y-104029057D01*
X147135440Y-103920838D01*
X147135440Y-103808802D01*
X147106443Y-103700583D01*
X147050425Y-103603557D01*
X146971203Y-103524335D01*
X146874177Y-103468317D01*
X146783361Y-103443983D01*
X147924500Y-103443983D01*
X147924500Y-103556019D01*
X147953497Y-103664238D01*
X148009515Y-103761264D01*
X148088737Y-103840486D01*
X148185763Y-103896504D01*
X148293982Y-103925501D01*
X148293984Y-103925501D01*
X148406016Y-103925501D01*
X148406018Y-103925501D01*
X148514237Y-103896504D01*
X148611263Y-103840486D01*
X148690485Y-103761264D01*
X148746503Y-103664238D01*
X148775500Y-103556019D01*
X148775500Y-103443983D01*
X148746503Y-103335764D01*
X148690485Y-103238738D01*
X148611263Y-103159516D01*
X148514237Y-103103498D01*
X148406018Y-103074501D01*
X148293982Y-103074501D01*
X148185763Y-103103498D01*
X148185760Y-103103499D01*
X148088740Y-103159514D01*
X148088734Y-103159518D01*
X148009517Y-103238735D01*
X148009513Y-103238741D01*
X147953498Y-103335761D01*
X147953497Y-103335764D01*
X147924500Y-103443983D01*
X146783361Y-103443983D01*
X146765958Y-103439320D01*
X146691850Y-103439320D01*
X146624811Y-103419635D01*
X146579056Y-103366831D01*
X146567850Y-103315320D01*
X146567850Y-103241214D01*
X146567850Y-103241212D01*
X146538853Y-103132993D01*
X146482835Y-103035967D01*
X146403613Y-102956745D01*
X146306587Y-102900727D01*
X146198368Y-102871730D01*
X146124260Y-102871730D01*
X146115574Y-102869179D01*
X146106613Y-102870468D01*
X146082572Y-102859489D01*
X146057221Y-102852045D01*
X146051293Y-102845204D01*
X146043057Y-102841443D01*
X146028767Y-102819208D01*
X146011466Y-102799241D01*
X146009178Y-102788726D01*
X146005283Y-102782665D01*
X146000260Y-102747730D01*
X146000260Y-102743982D01*
X150174500Y-102743982D01*
X150174500Y-102856018D01*
X150200148Y-102951736D01*
X150203497Y-102964236D01*
X150203498Y-102964239D01*
X150207104Y-102970485D01*
X150259515Y-103061263D01*
X150338737Y-103140485D01*
X150435763Y-103196503D01*
X150543982Y-103225500D01*
X150543984Y-103225500D01*
X150656016Y-103225500D01*
X150656018Y-103225500D01*
X150764237Y-103196503D01*
X150861263Y-103140485D01*
X150940485Y-103061263D01*
X150950462Y-103043982D01*
X158354500Y-103043982D01*
X158354500Y-103156018D01*
X158383497Y-103264237D01*
X158439515Y-103361263D01*
X158518737Y-103440485D01*
X158615763Y-103496503D01*
X158723982Y-103525500D01*
X158723984Y-103525500D01*
X158836016Y-103525500D01*
X158836018Y-103525500D01*
X158944237Y-103496503D01*
X159041263Y-103440485D01*
X159120485Y-103361263D01*
X159176503Y-103264237D01*
X159205500Y-103156018D01*
X159205500Y-103043982D01*
X159176503Y-102935763D01*
X159120485Y-102838737D01*
X159041263Y-102759515D01*
X158944237Y-102703497D01*
X158836018Y-102674500D01*
X158723982Y-102674500D01*
X158615763Y-102703497D01*
X158615760Y-102703498D01*
X158518740Y-102759513D01*
X158518734Y-102759517D01*
X158439517Y-102838734D01*
X158439513Y-102838740D01*
X158383498Y-102935760D01*
X158383497Y-102935763D01*
X158354500Y-103043982D01*
X150950462Y-103043982D01*
X150996503Y-102964237D01*
X151025500Y-102856018D01*
X151025500Y-102743982D01*
X150996503Y-102635763D01*
X150940485Y-102538737D01*
X150861263Y-102459515D01*
X150834359Y-102443982D01*
X160244500Y-102443982D01*
X160244500Y-102556018D01*
X160270864Y-102654408D01*
X160273497Y-102664236D01*
X160273498Y-102664239D01*
X160279422Y-102674500D01*
X160329515Y-102761263D01*
X160408737Y-102840485D01*
X160505763Y-102896503D01*
X160613982Y-102925500D01*
X160613984Y-102925500D01*
X160726016Y-102925500D01*
X160726018Y-102925500D01*
X160834237Y-102896503D01*
X160931263Y-102840485D01*
X161010485Y-102761263D01*
X161027679Y-102731482D01*
X164774500Y-102731482D01*
X164774500Y-102843518D01*
X164798194Y-102931943D01*
X164803497Y-102951736D01*
X164803498Y-102951739D01*
X164810713Y-102964236D01*
X164859515Y-103048763D01*
X164938737Y-103127985D01*
X165035763Y-103184003D01*
X165143982Y-103213000D01*
X165143984Y-103213000D01*
X165256016Y-103213000D01*
X165256018Y-103213000D01*
X165364237Y-103184003D01*
X165461263Y-103127985D01*
X165540485Y-103048763D01*
X165596503Y-102951737D01*
X165625500Y-102843518D01*
X165625500Y-102731482D01*
X165596503Y-102623263D01*
X165568051Y-102573982D01*
X168234500Y-102573982D01*
X168234500Y-102686018D01*
X168263497Y-102794237D01*
X168319515Y-102891263D01*
X168398737Y-102970485D01*
X168495763Y-103026503D01*
X168603982Y-103055500D01*
X168603984Y-103055500D01*
X168716016Y-103055500D01*
X168716018Y-103055500D01*
X168824237Y-103026503D01*
X168921263Y-102970485D01*
X169000485Y-102891263D01*
X169056503Y-102794237D01*
X169085500Y-102686018D01*
X169085500Y-102573982D01*
X169056503Y-102465763D01*
X169000485Y-102368737D01*
X168921263Y-102289515D01*
X168856579Y-102252169D01*
X168824239Y-102233498D01*
X168824238Y-102233497D01*
X168824237Y-102233497D01*
X168716018Y-102204500D01*
X168603982Y-102204500D01*
X168495763Y-102233497D01*
X168495760Y-102233498D01*
X168398740Y-102289513D01*
X168398734Y-102289517D01*
X168319517Y-102368734D01*
X168319513Y-102368740D01*
X168263498Y-102465760D01*
X168263497Y-102465763D01*
X168234500Y-102573982D01*
X165568051Y-102573982D01*
X165540485Y-102526237D01*
X165461263Y-102447015D01*
X165364237Y-102390997D01*
X165256018Y-102362000D01*
X165143982Y-102362000D01*
X165035763Y-102390997D01*
X165035760Y-102390998D01*
X164938740Y-102447013D01*
X164938734Y-102447017D01*
X164859517Y-102526234D01*
X164859513Y-102526240D01*
X164803498Y-102623260D01*
X164803498Y-102623261D01*
X164803497Y-102623263D01*
X164774500Y-102731482D01*
X161027679Y-102731482D01*
X161066503Y-102664237D01*
X161095500Y-102556018D01*
X161095500Y-102443982D01*
X161066503Y-102335763D01*
X161010485Y-102238737D01*
X160931263Y-102159515D01*
X160838633Y-102106035D01*
X160834239Y-102103498D01*
X160834238Y-102103497D01*
X160834237Y-102103497D01*
X160726018Y-102074500D01*
X160613982Y-102074500D01*
X160505763Y-102103497D01*
X160505760Y-102103498D01*
X160408740Y-102159513D01*
X160408734Y-102159517D01*
X160329517Y-102238734D01*
X160329513Y-102238740D01*
X160273498Y-102335760D01*
X160273497Y-102335763D01*
X160244500Y-102443982D01*
X150834359Y-102443982D01*
X150764237Y-102403497D01*
X150656018Y-102374500D01*
X150543982Y-102374500D01*
X150435763Y-102403497D01*
X150435760Y-102403498D01*
X150338740Y-102459513D01*
X150338734Y-102459517D01*
X150259517Y-102538734D01*
X150259513Y-102538740D01*
X150203498Y-102635760D01*
X150203497Y-102635763D01*
X150174500Y-102743982D01*
X146000260Y-102743982D01*
X146000260Y-102673624D01*
X146000260Y-102673622D01*
X145971263Y-102565403D01*
X145915245Y-102468377D01*
X145836023Y-102389155D01*
X145749625Y-102339273D01*
X145738999Y-102333138D01*
X145738998Y-102333137D01*
X145738997Y-102333137D01*
X145630778Y-102304140D01*
X145556671Y-102304140D01*
X145489632Y-102284455D01*
X145443877Y-102231651D01*
X145432671Y-102180140D01*
X145432671Y-102106035D01*
X145432671Y-102106033D01*
X145403674Y-101997814D01*
X145353458Y-101910838D01*
X145347659Y-101900793D01*
X145347658Y-101900792D01*
X145347656Y-101900788D01*
X145290850Y-101843982D01*
X158364500Y-101843982D01*
X158364500Y-101956018D01*
X158393497Y-102064237D01*
X158449515Y-102161263D01*
X158528737Y-102240485D01*
X158625763Y-102296503D01*
X158733982Y-102325500D01*
X158733984Y-102325500D01*
X158846016Y-102325500D01*
X158846018Y-102325500D01*
X158954237Y-102296503D01*
X159051263Y-102240485D01*
X159130485Y-102161263D01*
X159186503Y-102064237D01*
X159215500Y-101956018D01*
X159215500Y-101843982D01*
X159186503Y-101735763D01*
X159130485Y-101638737D01*
X159051263Y-101559515D01*
X158954237Y-101503497D01*
X158846018Y-101474500D01*
X158733982Y-101474500D01*
X158625763Y-101503497D01*
X158625760Y-101503498D01*
X158528740Y-101559513D01*
X158528734Y-101559517D01*
X158449517Y-101638734D01*
X158449513Y-101638740D01*
X158393498Y-101735760D01*
X158393497Y-101735763D01*
X158364500Y-101843982D01*
X145290850Y-101843982D01*
X145268434Y-101821566D01*
X145171408Y-101765548D01*
X145063189Y-101736551D01*
X144989081Y-101736551D01*
X144922042Y-101716866D01*
X144876287Y-101664062D01*
X144865081Y-101612551D01*
X144865081Y-101538445D01*
X144865081Y-101538443D01*
X144836084Y-101430224D01*
X144786292Y-101343982D01*
X159674500Y-101343982D01*
X159674500Y-101456018D01*
X159703497Y-101564237D01*
X159759515Y-101661263D01*
X159838737Y-101740485D01*
X159935763Y-101796503D01*
X160043982Y-101825500D01*
X160043984Y-101825500D01*
X160156016Y-101825500D01*
X160156018Y-101825500D01*
X160264237Y-101796503D01*
X160361263Y-101740485D01*
X160440485Y-101661263D01*
X160496503Y-101564237D01*
X160525500Y-101456018D01*
X160525500Y-101343982D01*
X160496503Y-101235763D01*
X160440485Y-101138737D01*
X160361263Y-101059515D01*
X160282839Y-101014237D01*
X160264239Y-101003498D01*
X160264238Y-101003497D01*
X160264237Y-101003497D01*
X160156018Y-100974500D01*
X160043982Y-100974500D01*
X159935763Y-101003497D01*
X159935760Y-101003498D01*
X159838740Y-101059513D01*
X159838734Y-101059517D01*
X159759517Y-101138734D01*
X159759513Y-101138740D01*
X159703498Y-101235760D01*
X159703497Y-101235763D01*
X159674500Y-101343982D01*
X144786292Y-101343982D01*
X144780066Y-101333198D01*
X144700844Y-101253976D01*
X144603818Y-101197958D01*
X144495599Y-101168961D01*
X144421491Y-101168961D01*
X144354452Y-101149276D01*
X144308697Y-101096472D01*
X144298900Y-101063603D01*
X144297491Y-101054337D01*
X144297491Y-100970853D01*
X144268494Y-100862634D01*
X144257725Y-100843982D01*
X157254500Y-100843982D01*
X157254500Y-100956018D01*
X157282233Y-101059517D01*
X157283497Y-101064236D01*
X157283498Y-101064239D01*
X157291870Y-101078740D01*
X157339515Y-101161263D01*
X157418737Y-101240485D01*
X157515763Y-101296503D01*
X157623982Y-101325500D01*
X157623984Y-101325500D01*
X157736016Y-101325500D01*
X157736018Y-101325500D01*
X157844237Y-101296503D01*
X157941263Y-101240485D01*
X158020485Y-101161263D01*
X158076503Y-101064237D01*
X158105500Y-100956018D01*
X158105500Y-100843982D01*
X158076503Y-100735763D01*
X158020485Y-100638737D01*
X157941263Y-100559515D01*
X157862839Y-100514237D01*
X157844239Y-100503498D01*
X157844238Y-100503497D01*
X157844237Y-100503497D01*
X157736018Y-100474500D01*
X157623982Y-100474500D01*
X157515763Y-100503497D01*
X157515760Y-100503498D01*
X157418740Y-100559513D01*
X157418734Y-100559517D01*
X157339517Y-100638734D01*
X157339513Y-100638740D01*
X157283498Y-100735760D01*
X157283497Y-100735763D01*
X157254500Y-100843982D01*
X144257725Y-100843982D01*
X144212476Y-100765608D01*
X144133254Y-100686386D01*
X144036228Y-100630368D01*
X143928009Y-100601371D01*
X143853901Y-100601371D01*
X143851045Y-100600532D01*
X143848152Y-100601238D01*
X143817727Y-100590749D01*
X143786862Y-100581686D01*
X143784912Y-100579436D01*
X143782098Y-100578466D01*
X143762173Y-100553194D01*
X143741107Y-100528882D01*
X143740125Y-100525228D01*
X143738840Y-100523598D01*
X143736661Y-100512333D01*
X143730477Y-100489309D01*
X143729901Y-100483354D01*
X143729901Y-100403263D01*
X143714017Y-100343982D01*
X158844500Y-100343982D01*
X158844500Y-100456018D01*
X158873497Y-100564237D01*
X158929515Y-100661263D01*
X159008737Y-100740485D01*
X159105763Y-100796503D01*
X159213982Y-100825500D01*
X159213984Y-100825500D01*
X159326016Y-100825500D01*
X159326018Y-100825500D01*
X159434237Y-100796503D01*
X159531263Y-100740485D01*
X159610485Y-100661263D01*
X159666503Y-100564237D01*
X159695500Y-100456018D01*
X159695500Y-100343982D01*
X164434500Y-100343982D01*
X164434500Y-100456018D01*
X164463497Y-100564237D01*
X164519515Y-100661263D01*
X164598737Y-100740485D01*
X164695763Y-100796503D01*
X164803982Y-100825500D01*
X164803984Y-100825500D01*
X164810500Y-100825500D01*
X164877539Y-100845185D01*
X164923294Y-100897989D01*
X164934500Y-100949500D01*
X164934500Y-100956018D01*
X164962233Y-101059517D01*
X164963497Y-101064236D01*
X164963498Y-101064239D01*
X164971870Y-101078740D01*
X165019515Y-101161263D01*
X165098737Y-101240485D01*
X165195763Y-101296503D01*
X165303982Y-101325500D01*
X165303984Y-101325500D01*
X165416016Y-101325500D01*
X165416018Y-101325500D01*
X165524237Y-101296503D01*
X165621263Y-101240485D01*
X165700485Y-101161263D01*
X165756503Y-101064237D01*
X165785500Y-100956018D01*
X165785500Y-100843982D01*
X165772103Y-100793982D01*
X167374500Y-100793982D01*
X167374500Y-100906018D01*
X167403497Y-101014237D01*
X167459515Y-101111263D01*
X167538737Y-101190485D01*
X167635763Y-101246503D01*
X167743982Y-101275500D01*
X167743984Y-101275500D01*
X167856016Y-101275500D01*
X167856018Y-101275500D01*
X167964237Y-101246503D01*
X168061263Y-101190485D01*
X168140485Y-101111263D01*
X168196503Y-101014237D01*
X168225500Y-100906018D01*
X168225500Y-100793982D01*
X168196503Y-100685763D01*
X168140485Y-100588737D01*
X168061263Y-100509515D01*
X167982839Y-100464237D01*
X167964239Y-100453498D01*
X167964238Y-100453497D01*
X167964237Y-100453497D01*
X167856018Y-100424500D01*
X167743982Y-100424500D01*
X167635763Y-100453497D01*
X167635760Y-100453498D01*
X167538740Y-100509513D01*
X167538734Y-100509517D01*
X167459517Y-100588734D01*
X167459513Y-100588740D01*
X167403498Y-100685760D01*
X167403497Y-100685763D01*
X167374500Y-100793982D01*
X165772103Y-100793982D01*
X165756503Y-100735763D01*
X165700485Y-100638737D01*
X165621263Y-100559515D01*
X165542839Y-100514237D01*
X165524239Y-100503498D01*
X165524238Y-100503497D01*
X165524237Y-100503497D01*
X165416018Y-100474500D01*
X165409500Y-100474500D01*
X165342461Y-100454815D01*
X165296706Y-100402011D01*
X165287320Y-100371670D01*
X165285500Y-100361167D01*
X165285500Y-100343982D01*
X165272103Y-100293982D01*
X170524500Y-100293982D01*
X170524500Y-100406018D01*
X170552233Y-100509517D01*
X170553497Y-100514236D01*
X170553498Y-100514239D01*
X170559843Y-100525228D01*
X170609515Y-100611263D01*
X170688737Y-100690485D01*
X170785763Y-100746503D01*
X170893982Y-100775500D01*
X170893984Y-100775500D01*
X171006016Y-100775500D01*
X171006018Y-100775500D01*
X171114237Y-100746503D01*
X171211263Y-100690485D01*
X171290485Y-100611263D01*
X171346503Y-100514237D01*
X171375500Y-100406018D01*
X171375500Y-100293982D01*
X171346503Y-100185763D01*
X171290485Y-100088737D01*
X171211263Y-100009515D01*
X171114237Y-99953497D01*
X171006018Y-99924500D01*
X170893982Y-99924500D01*
X170785763Y-99953497D01*
X170785760Y-99953498D01*
X170688740Y-100009513D01*
X170688734Y-100009517D01*
X170609517Y-100088734D01*
X170609513Y-100088740D01*
X170553498Y-100185760D01*
X170553497Y-100185763D01*
X170524500Y-100293982D01*
X165272103Y-100293982D01*
X165256503Y-100235763D01*
X165200485Y-100138737D01*
X165121263Y-100059515D01*
X165034664Y-100009517D01*
X165024239Y-100003498D01*
X165024238Y-100003497D01*
X165024237Y-100003497D01*
X164916018Y-99974500D01*
X164803982Y-99974500D01*
X164695763Y-100003497D01*
X164695760Y-100003498D01*
X164598740Y-100059513D01*
X164598734Y-100059517D01*
X164519517Y-100138734D01*
X164519513Y-100138740D01*
X164463498Y-100235760D01*
X164463497Y-100235763D01*
X164434500Y-100343982D01*
X159695500Y-100343982D01*
X159666503Y-100235763D01*
X159610485Y-100138737D01*
X159531263Y-100059515D01*
X159444664Y-100009517D01*
X159434239Y-100003498D01*
X159434238Y-100003497D01*
X159434237Y-100003497D01*
X159326018Y-99974500D01*
X159213982Y-99974500D01*
X159105763Y-100003497D01*
X159105760Y-100003498D01*
X159008740Y-100059513D01*
X159008734Y-100059517D01*
X158929517Y-100138734D01*
X158929513Y-100138740D01*
X158873498Y-100235760D01*
X158873497Y-100235763D01*
X158844500Y-100343982D01*
X143714017Y-100343982D01*
X143700904Y-100295044D01*
X143644886Y-100198018D01*
X143565664Y-100118796D01*
X143468638Y-100062778D01*
X143360419Y-100033781D01*
X143286312Y-100033781D01*
X143285595Y-100033570D01*
X143284876Y-100033773D01*
X143252098Y-100023734D01*
X143219273Y-100014096D01*
X143218784Y-100013532D01*
X143218069Y-100013313D01*
X143195914Y-99987139D01*
X143173518Y-99961292D01*
X143173251Y-99960363D01*
X143172929Y-99959983D01*
X143172335Y-99957178D01*
X143163378Y-99926006D01*
X143162312Y-99917929D01*
X143162312Y-99835674D01*
X143136596Y-99739700D01*
X174180877Y-99739700D01*
X174180877Y-99851736D01*
X174200778Y-99926006D01*
X174209874Y-99959954D01*
X174209875Y-99959957D01*
X174225569Y-99987139D01*
X174265892Y-100056981D01*
X174345114Y-100136203D01*
X174442140Y-100192221D01*
X174550359Y-100221218D01*
X174550361Y-100221218D01*
X174662393Y-100221218D01*
X174662395Y-100221218D01*
X174770614Y-100192221D01*
X174867640Y-100136203D01*
X174946862Y-100056981D01*
X175002880Y-99959955D01*
X175031877Y-99851736D01*
X175031877Y-99739700D01*
X175002880Y-99631481D01*
X174946862Y-99534455D01*
X174867640Y-99455233D01*
X174770614Y-99399215D01*
X174662395Y-99370218D01*
X174550359Y-99370218D01*
X174442140Y-99399215D01*
X174442137Y-99399216D01*
X174345117Y-99455231D01*
X174345111Y-99455235D01*
X174265894Y-99534452D01*
X174265890Y-99534458D01*
X174209875Y-99631478D01*
X174209874Y-99631481D01*
X174180877Y-99739700D01*
X143136596Y-99739700D01*
X143133315Y-99727455D01*
X143077297Y-99630429D01*
X142998075Y-99551207D01*
X142901049Y-99495189D01*
X142792830Y-99466192D01*
X142718722Y-99466192D01*
X142651683Y-99446507D01*
X142605928Y-99393703D01*
X142594722Y-99342192D01*
X142594722Y-99268086D01*
X142594722Y-99268084D01*
X142565725Y-99159865D01*
X142509707Y-99062839D01*
X142430485Y-98983617D01*
X142333459Y-98927599D01*
X142225240Y-98898602D01*
X142151132Y-98898602D01*
X142084093Y-98878917D01*
X142038338Y-98826113D01*
X142027132Y-98774602D01*
X142027132Y-98700496D01*
X142027132Y-98700494D01*
X141998135Y-98592275D01*
X141942117Y-98495249D01*
X141862895Y-98416027D01*
X141765869Y-98360009D01*
X141657650Y-98331012D01*
X141583542Y-98331012D01*
X141516503Y-98311327D01*
X141470748Y-98258523D01*
X141459542Y-98207012D01*
X141459542Y-98132906D01*
X141459542Y-98132904D01*
X141430545Y-98024685D01*
X141374527Y-97927659D01*
X141295305Y-97848437D01*
X141198279Y-97792419D01*
X141090060Y-97763422D01*
X141009638Y-97763422D01*
X141000952Y-97760871D01*
X140991991Y-97762160D01*
X140967950Y-97751181D01*
X140942599Y-97743737D01*
X140936671Y-97736896D01*
X140928435Y-97733135D01*
X140914145Y-97710900D01*
X140896844Y-97690933D01*
X140894556Y-97680418D01*
X140890661Y-97674357D01*
X140885638Y-97639422D01*
X140885638Y-97601482D01*
X183324500Y-97601482D01*
X183324500Y-97713518D01*
X183353497Y-97821737D01*
X183409515Y-97918763D01*
X183488737Y-97997985D01*
X183585763Y-98054003D01*
X183693982Y-98083000D01*
X183693984Y-98083000D01*
X183806016Y-98083000D01*
X183806018Y-98083000D01*
X183914237Y-98054003D01*
X184011263Y-97997985D01*
X184090485Y-97918763D01*
X184146503Y-97821737D01*
X184175500Y-97713518D01*
X184175500Y-97601482D01*
X184146503Y-97493263D01*
X184090485Y-97396237D01*
X184011263Y-97317015D01*
X183914237Y-97260997D01*
X183806018Y-97232000D01*
X183693982Y-97232000D01*
X183585763Y-97260997D01*
X183585760Y-97260998D01*
X183488740Y-97317013D01*
X183488734Y-97317017D01*
X183409517Y-97396234D01*
X183409513Y-97396240D01*
X183353498Y-97493260D01*
X183353497Y-97493263D01*
X183324500Y-97601482D01*
X140885638Y-97601482D01*
X140885638Y-97572118D01*
X140885638Y-97572116D01*
X140856641Y-97463897D01*
X140800623Y-97366871D01*
X140721401Y-97287649D01*
X140624375Y-97231631D01*
X140516156Y-97202634D01*
X140404120Y-97202634D01*
X140295901Y-97231631D01*
X140295900Y-97231631D01*
X140295898Y-97231632D01*
X140295162Y-97231937D01*
X140294491Y-97232009D01*
X140288050Y-97233735D01*
X140287780Y-97232729D01*
X140225692Y-97239400D01*
X140163216Y-97208121D01*
X140144495Y-97186082D01*
X140133213Y-97169133D01*
X140128149Y-97150233D01*
X140072131Y-97053207D01*
X139992909Y-96973985D01*
X139924115Y-96934267D01*
X158394785Y-96934267D01*
X158394785Y-97046303D01*
X158423782Y-97154522D01*
X158479800Y-97251548D01*
X158559022Y-97330770D01*
X158656048Y-97386788D01*
X158764267Y-97415785D01*
X158764269Y-97415785D01*
X158876301Y-97415785D01*
X158876303Y-97415785D01*
X158984522Y-97386788D01*
X159081548Y-97330770D01*
X159160770Y-97251548D01*
X159216788Y-97154522D01*
X159245785Y-97046303D01*
X159245785Y-96976482D01*
X164794500Y-96976482D01*
X164794500Y-97088518D01*
X164820818Y-97186736D01*
X164823497Y-97196736D01*
X164823498Y-97196739D01*
X164842169Y-97229079D01*
X164879515Y-97293763D01*
X164958737Y-97372985D01*
X165055763Y-97429003D01*
X165163982Y-97458000D01*
X165163984Y-97458000D01*
X165276016Y-97458000D01*
X165276018Y-97458000D01*
X165384237Y-97429003D01*
X165481263Y-97372985D01*
X165560485Y-97293763D01*
X165616503Y-97196737D01*
X165645500Y-97088518D01*
X165645500Y-96976482D01*
X165642821Y-96966482D01*
X166344500Y-96966482D01*
X166344500Y-97078518D01*
X166373322Y-97186082D01*
X166373497Y-97186736D01*
X166373498Y-97186739D01*
X166379272Y-97196739D01*
X166429515Y-97283763D01*
X166508737Y-97362985D01*
X166605763Y-97419003D01*
X166713982Y-97448000D01*
X166713984Y-97448000D01*
X166826016Y-97448000D01*
X166826018Y-97448000D01*
X166934237Y-97419003D01*
X167031263Y-97362985D01*
X167110485Y-97283763D01*
X167166503Y-97186737D01*
X167195500Y-97078518D01*
X167195500Y-96966482D01*
X167166503Y-96858263D01*
X167110485Y-96761237D01*
X167031263Y-96682015D01*
X166934237Y-96625997D01*
X166826018Y-96597000D01*
X166713982Y-96597000D01*
X166605763Y-96625997D01*
X166605760Y-96625998D01*
X166508740Y-96682013D01*
X166508734Y-96682017D01*
X166429517Y-96761234D01*
X166429513Y-96761240D01*
X166373498Y-96858260D01*
X166373497Y-96858263D01*
X166344500Y-96966482D01*
X165642821Y-96966482D01*
X165616503Y-96868263D01*
X165560485Y-96771237D01*
X165481263Y-96692015D01*
X165408148Y-96649802D01*
X165384239Y-96635998D01*
X165384238Y-96635997D01*
X165384237Y-96635997D01*
X165276018Y-96607000D01*
X165163982Y-96607000D01*
X165055763Y-96635997D01*
X165055760Y-96635998D01*
X164958740Y-96692013D01*
X164958734Y-96692017D01*
X164879517Y-96771234D01*
X164879513Y-96771240D01*
X164823498Y-96868260D01*
X164823497Y-96868263D01*
X164794500Y-96976482D01*
X159245785Y-96976482D01*
X159245785Y-96934267D01*
X159216788Y-96826048D01*
X159160770Y-96729022D01*
X159081548Y-96649800D01*
X158984522Y-96593782D01*
X158876303Y-96564785D01*
X158764267Y-96564785D01*
X158656048Y-96593782D01*
X158656045Y-96593783D01*
X158559025Y-96649798D01*
X158559019Y-96649802D01*
X158479802Y-96729019D01*
X158479798Y-96729025D01*
X158423783Y-96826045D01*
X158423782Y-96826048D01*
X158394785Y-96934267D01*
X139924115Y-96934267D01*
X139895883Y-96917967D01*
X139787664Y-96888970D01*
X139675628Y-96888970D01*
X139567409Y-96917967D01*
X139567406Y-96917968D01*
X139470386Y-96973983D01*
X139470380Y-96973987D01*
X139425551Y-97018817D01*
X139364228Y-97052302D01*
X139294536Y-97047318D01*
X139250189Y-97018817D01*
X139190889Y-96959517D01*
X139190887Y-96959515D01*
X139093861Y-96903497D01*
X138985642Y-96874500D01*
X138873606Y-96874500D01*
X138765387Y-96903497D01*
X138765384Y-96903498D01*
X138668364Y-96959513D01*
X138668357Y-96959518D01*
X138615957Y-97011918D01*
X138554634Y-97045402D01*
X138484942Y-97040417D01*
X138440596Y-97011917D01*
X138388196Y-96959517D01*
X138388194Y-96959515D01*
X138291168Y-96903497D01*
X138182949Y-96874500D01*
X138070913Y-96874500D01*
X137962694Y-96903497D01*
X137962691Y-96903498D01*
X137865671Y-96959513D01*
X137865664Y-96959518D01*
X137813264Y-97011918D01*
X137751941Y-97045402D01*
X137682249Y-97040417D01*
X137637903Y-97011917D01*
X137585503Y-96959517D01*
X137585501Y-96959515D01*
X137488475Y-96903497D01*
X137380256Y-96874500D01*
X137268220Y-96874500D01*
X137160001Y-96903497D01*
X137159998Y-96903498D01*
X137062978Y-96959513D01*
X137062971Y-96959518D01*
X137010571Y-97011918D01*
X136949248Y-97045402D01*
X136879556Y-97040417D01*
X136835210Y-97011917D01*
X136782810Y-96959517D01*
X136782808Y-96959515D01*
X136685782Y-96903497D01*
X136577563Y-96874500D01*
X136465527Y-96874500D01*
X136357308Y-96903497D01*
X136357305Y-96903498D01*
X136260285Y-96959513D01*
X136260279Y-96959517D01*
X136207879Y-97011918D01*
X136146556Y-97045403D01*
X136076864Y-97040419D01*
X136032517Y-97011918D01*
X135980116Y-96959517D01*
X135980114Y-96959515D01*
X135883088Y-96903497D01*
X135774869Y-96874500D01*
X135662833Y-96874500D01*
X135554614Y-96903497D01*
X135554611Y-96903498D01*
X135457591Y-96959513D01*
X135457584Y-96959518D01*
X135405184Y-97011918D01*
X135343861Y-97045402D01*
X135274169Y-97040417D01*
X135229823Y-97011917D01*
X135177423Y-96959517D01*
X135177421Y-96959515D01*
X135080395Y-96903497D01*
X134972176Y-96874500D01*
X134860140Y-96874500D01*
X134751921Y-96903497D01*
X134751918Y-96903498D01*
X134654898Y-96959513D01*
X134654891Y-96959518D01*
X134602491Y-97011918D01*
X134541168Y-97045402D01*
X134471476Y-97040417D01*
X134427130Y-97011917D01*
X134374730Y-96959517D01*
X134374728Y-96959515D01*
X134277702Y-96903497D01*
X134169483Y-96874500D01*
X134057447Y-96874500D01*
X133949228Y-96903497D01*
X133949225Y-96903498D01*
X133852205Y-96959513D01*
X133852198Y-96959518D01*
X133799798Y-97011918D01*
X133738475Y-97045402D01*
X133668783Y-97040417D01*
X133624437Y-97011917D01*
X133572037Y-96959517D01*
X133572035Y-96959515D01*
X133475009Y-96903497D01*
X133366790Y-96874500D01*
X133254754Y-96874500D01*
X133146535Y-96903497D01*
X133146532Y-96903498D01*
X133049512Y-96959513D01*
X133049505Y-96959518D01*
X132997105Y-97011918D01*
X132935782Y-97045402D01*
X132866090Y-97040417D01*
X132821744Y-97011917D01*
X132769344Y-96959517D01*
X132769342Y-96959515D01*
X132672316Y-96903497D01*
X132564097Y-96874500D01*
X132452061Y-96874500D01*
X132343842Y-96903497D01*
X132343839Y-96903498D01*
X132246819Y-96959513D01*
X132246812Y-96959518D01*
X132194412Y-97011918D01*
X132133089Y-97045402D01*
X132063397Y-97040417D01*
X132019051Y-97011917D01*
X131966651Y-96959517D01*
X131966649Y-96959515D01*
X131869623Y-96903497D01*
X131761404Y-96874500D01*
X131649368Y-96874500D01*
X131541149Y-96903497D01*
X131541146Y-96903498D01*
X131444126Y-96959513D01*
X131444120Y-96959517D01*
X131364903Y-97038734D01*
X131364899Y-97038740D01*
X131308884Y-97135760D01*
X131308883Y-97135763D01*
X131279886Y-97243982D01*
X131279886Y-97276000D01*
X131260201Y-97343039D01*
X131207397Y-97388794D01*
X131155886Y-97400000D01*
X126749500Y-97400000D01*
X126682461Y-97380315D01*
X126636706Y-97327511D01*
X126625500Y-97276000D01*
X126625500Y-96635782D01*
X128683900Y-96635782D01*
X128683900Y-96747818D01*
X128712897Y-96856037D01*
X128768915Y-96953063D01*
X128848137Y-97032285D01*
X128945163Y-97088303D01*
X129053382Y-97117300D01*
X129053384Y-97117300D01*
X129165416Y-97117300D01*
X129165418Y-97117300D01*
X129273637Y-97088303D01*
X129370663Y-97032285D01*
X129449885Y-96953063D01*
X129505903Y-96856037D01*
X129534900Y-96747818D01*
X129534900Y-96635782D01*
X129505903Y-96527563D01*
X129449885Y-96430537D01*
X129370663Y-96351315D01*
X129273637Y-96295297D01*
X129165418Y-96266300D01*
X129053382Y-96266300D01*
X128945163Y-96295297D01*
X128945160Y-96295298D01*
X128848140Y-96351313D01*
X128848134Y-96351317D01*
X128768917Y-96430534D01*
X128768913Y-96430540D01*
X128712898Y-96527560D01*
X128712897Y-96527563D01*
X128683900Y-96635782D01*
X126625500Y-96635782D01*
X126625500Y-95813982D01*
X157284500Y-95813982D01*
X157284500Y-95926018D01*
X157313497Y-96034237D01*
X157369515Y-96131263D01*
X157448737Y-96210485D01*
X157545763Y-96266503D01*
X157653982Y-96295500D01*
X157653984Y-96295500D01*
X157766016Y-96295500D01*
X157766018Y-96295500D01*
X157874237Y-96266503D01*
X157971263Y-96210485D01*
X158050485Y-96131263D01*
X158106503Y-96034237D01*
X158135500Y-95926018D01*
X158135500Y-95813982D01*
X158106503Y-95705763D01*
X158050485Y-95608737D01*
X157971263Y-95529515D01*
X157874237Y-95473497D01*
X157766018Y-95444500D01*
X157653982Y-95444500D01*
X157545763Y-95473497D01*
X157545760Y-95473498D01*
X157448740Y-95529513D01*
X157448734Y-95529517D01*
X157369517Y-95608734D01*
X157369513Y-95608740D01*
X157313498Y-95705760D01*
X157313497Y-95705763D01*
X157284500Y-95813982D01*
X126625500Y-95813982D01*
X126625500Y-94336530D01*
X138109500Y-94336530D01*
X138109500Y-94543469D01*
X138149868Y-94746412D01*
X138149870Y-94746420D01*
X138229058Y-94937596D01*
X138344024Y-95109657D01*
X138490342Y-95255975D01*
X138490345Y-95255977D01*
X138662402Y-95370941D01*
X138853580Y-95450130D01*
X138971055Y-95473497D01*
X139056530Y-95490499D01*
X139056534Y-95490500D01*
X139056535Y-95490500D01*
X139263466Y-95490500D01*
X139263467Y-95490499D01*
X139466420Y-95450130D01*
X139657598Y-95370941D01*
X139829655Y-95255977D01*
X139975977Y-95109655D01*
X140090941Y-94937598D01*
X140170130Y-94746420D01*
X140210500Y-94543465D01*
X140210500Y-94336535D01*
X140210499Y-94336530D01*
X140649500Y-94336530D01*
X140649500Y-94543469D01*
X140689868Y-94746412D01*
X140689870Y-94746420D01*
X140769058Y-94937596D01*
X140884024Y-95109657D01*
X141030342Y-95255975D01*
X141030345Y-95255977D01*
X141202402Y-95370941D01*
X141393580Y-95450130D01*
X141511055Y-95473497D01*
X141596530Y-95490499D01*
X141596534Y-95490500D01*
X141596535Y-95490500D01*
X141803466Y-95490500D01*
X141803467Y-95490499D01*
X142006420Y-95450130D01*
X142197598Y-95370941D01*
X142369655Y-95255977D01*
X142515977Y-95109655D01*
X142626675Y-94943982D01*
X171574500Y-94943982D01*
X171574500Y-95056018D01*
X171603497Y-95164237D01*
X171659515Y-95261263D01*
X171738737Y-95340485D01*
X171835763Y-95396503D01*
X171943982Y-95425500D01*
X171943984Y-95425500D01*
X172056016Y-95425500D01*
X172056018Y-95425500D01*
X172164237Y-95396503D01*
X172261263Y-95340485D01*
X172340485Y-95261263D01*
X172396503Y-95164237D01*
X172425500Y-95056018D01*
X172425500Y-94943982D01*
X172396503Y-94835763D01*
X172340485Y-94738737D01*
X172261263Y-94659515D01*
X172164237Y-94603497D01*
X172056018Y-94574500D01*
X171943982Y-94574500D01*
X171835763Y-94603497D01*
X171835760Y-94603498D01*
X171738740Y-94659513D01*
X171738734Y-94659517D01*
X171659517Y-94738734D01*
X171659513Y-94738740D01*
X171603498Y-94835760D01*
X171603497Y-94835763D01*
X171574500Y-94943982D01*
X142626675Y-94943982D01*
X142630941Y-94937598D01*
X142710130Y-94746420D01*
X142750500Y-94543465D01*
X142750500Y-94436530D01*
X173409500Y-94436530D01*
X173409500Y-94643469D01*
X173449868Y-94846412D01*
X173449870Y-94846420D01*
X173490282Y-94943984D01*
X173529059Y-95037598D01*
X173541366Y-95056017D01*
X173644024Y-95209657D01*
X173790342Y-95355975D01*
X173790345Y-95355977D01*
X173962402Y-95470941D01*
X174153580Y-95550130D01*
X174356530Y-95590499D01*
X174356534Y-95590500D01*
X174356535Y-95590500D01*
X174563466Y-95590500D01*
X174563467Y-95590499D01*
X174766420Y-95550130D01*
X174957598Y-95470941D01*
X175129655Y-95355977D01*
X175275977Y-95209655D01*
X175390941Y-95037598D01*
X175470130Y-94846420D01*
X175510500Y-94643465D01*
X175510500Y-94436535D01*
X175510499Y-94436530D01*
X175949500Y-94436530D01*
X175949500Y-94643469D01*
X175989868Y-94846412D01*
X175989870Y-94846420D01*
X176030282Y-94943984D01*
X176069059Y-95037598D01*
X176081366Y-95056017D01*
X176184024Y-95209657D01*
X176330342Y-95355975D01*
X176330345Y-95355977D01*
X176502402Y-95470941D01*
X176693580Y-95550130D01*
X176896530Y-95590499D01*
X176896534Y-95590500D01*
X176896535Y-95590500D01*
X177103466Y-95590500D01*
X177103467Y-95590499D01*
X177306420Y-95550130D01*
X177497598Y-95470941D01*
X177669655Y-95355977D01*
X177815977Y-95209655D01*
X177930941Y-95037598D01*
X178010130Y-94846420D01*
X178050500Y-94643465D01*
X178050500Y-94436535D01*
X178010130Y-94233580D01*
X177930941Y-94042402D01*
X177815977Y-93870345D01*
X177815975Y-93870342D01*
X177669657Y-93724024D01*
X177567876Y-93656017D01*
X177497598Y-93609059D01*
X177389386Y-93564236D01*
X177306420Y-93529870D01*
X177306412Y-93529868D01*
X177103469Y-93489500D01*
X177103465Y-93489500D01*
X176896535Y-93489500D01*
X176896530Y-93489500D01*
X176693587Y-93529868D01*
X176693579Y-93529870D01*
X176502403Y-93609058D01*
X176330342Y-93724024D01*
X176184024Y-93870342D01*
X176069058Y-94042403D01*
X175989870Y-94233579D01*
X175989868Y-94233587D01*
X175949500Y-94436530D01*
X175510499Y-94436530D01*
X175470130Y-94233580D01*
X175390941Y-94042402D01*
X175275977Y-93870345D01*
X175275975Y-93870342D01*
X175129657Y-93724024D01*
X175027876Y-93656017D01*
X174957598Y-93609059D01*
X174849386Y-93564236D01*
X174766420Y-93529870D01*
X174766412Y-93529868D01*
X174563469Y-93489500D01*
X174563465Y-93489500D01*
X174356535Y-93489500D01*
X174356530Y-93489500D01*
X174153587Y-93529868D01*
X174153579Y-93529870D01*
X173962403Y-93609058D01*
X173790342Y-93724024D01*
X173644024Y-93870342D01*
X173529058Y-94042403D01*
X173449870Y-94233579D01*
X173449868Y-94233587D01*
X173409500Y-94436530D01*
X142750500Y-94436530D01*
X142750500Y-94336535D01*
X142710130Y-94133580D01*
X142630941Y-93942402D01*
X142515977Y-93770345D01*
X142515975Y-93770342D01*
X142369657Y-93624024D01*
X142249866Y-93543983D01*
X155824499Y-93543983D01*
X155824499Y-93656019D01*
X155853496Y-93764238D01*
X155909514Y-93861264D01*
X155988736Y-93940486D01*
X156085762Y-93996504D01*
X156193981Y-94025501D01*
X156193983Y-94025501D01*
X156306015Y-94025501D01*
X156306017Y-94025501D01*
X156414236Y-93996504D01*
X156511262Y-93940486D01*
X156590484Y-93861264D01*
X156646502Y-93764238D01*
X156675499Y-93656019D01*
X156675499Y-93543983D01*
X156646502Y-93435764D01*
X156593512Y-93343982D01*
X164374500Y-93343982D01*
X164374500Y-93456018D01*
X164403497Y-93564237D01*
X164459515Y-93661263D01*
X164538737Y-93740485D01*
X164635763Y-93796503D01*
X164743982Y-93825500D01*
X164743984Y-93825500D01*
X164856016Y-93825500D01*
X164856018Y-93825500D01*
X164964237Y-93796503D01*
X165061263Y-93740485D01*
X165140485Y-93661263D01*
X165196503Y-93564237D01*
X165225500Y-93456018D01*
X165225500Y-93343982D01*
X167174500Y-93343982D01*
X167174500Y-93456018D01*
X167203497Y-93564237D01*
X167259515Y-93661263D01*
X167338737Y-93740485D01*
X167435763Y-93796503D01*
X167543982Y-93825500D01*
X167543984Y-93825500D01*
X167656016Y-93825500D01*
X167656018Y-93825500D01*
X167764237Y-93796503D01*
X167861263Y-93740485D01*
X167940485Y-93661263D01*
X167996503Y-93564237D01*
X168025500Y-93456018D01*
X168025500Y-93343982D01*
X167996503Y-93235763D01*
X167940485Y-93138737D01*
X167861263Y-93059515D01*
X167796579Y-93022169D01*
X167764239Y-93003498D01*
X167764238Y-93003497D01*
X167764237Y-93003497D01*
X167656018Y-92974500D01*
X167543982Y-92974500D01*
X167435763Y-93003497D01*
X167435760Y-93003498D01*
X167338740Y-93059513D01*
X167338734Y-93059517D01*
X167259517Y-93138734D01*
X167259513Y-93138740D01*
X167203498Y-93235760D01*
X167203497Y-93235763D01*
X167174500Y-93343982D01*
X165225500Y-93343982D01*
X165196503Y-93235763D01*
X165140485Y-93138737D01*
X165061263Y-93059515D01*
X164996579Y-93022169D01*
X164964239Y-93003498D01*
X164964238Y-93003497D01*
X164964237Y-93003497D01*
X164856018Y-92974500D01*
X164743982Y-92974500D01*
X164635763Y-93003497D01*
X164635760Y-93003498D01*
X164538740Y-93059513D01*
X164538734Y-93059517D01*
X164459517Y-93138734D01*
X164459513Y-93138740D01*
X164403498Y-93235760D01*
X164403497Y-93235763D01*
X164374500Y-93343982D01*
X156593512Y-93343982D01*
X156590484Y-93338738D01*
X156511262Y-93259516D01*
X156414236Y-93203498D01*
X156306017Y-93174501D01*
X156193981Y-93174501D01*
X156085762Y-93203498D01*
X156085759Y-93203499D01*
X155988739Y-93259514D01*
X155988733Y-93259518D01*
X155909516Y-93338735D01*
X155909512Y-93338741D01*
X155853497Y-93435761D01*
X155853496Y-93435764D01*
X155824499Y-93543983D01*
X142249866Y-93543983D01*
X142228741Y-93529868D01*
X142197598Y-93509059D01*
X142069546Y-93456018D01*
X142006420Y-93429870D01*
X142006412Y-93429868D01*
X141803469Y-93389500D01*
X141803465Y-93389500D01*
X141596535Y-93389500D01*
X141596530Y-93389500D01*
X141393587Y-93429868D01*
X141393579Y-93429870D01*
X141202403Y-93509058D01*
X141030342Y-93624024D01*
X140884024Y-93770342D01*
X140769058Y-93942403D01*
X140689870Y-94133579D01*
X140689868Y-94133587D01*
X140649500Y-94336530D01*
X140210499Y-94336530D01*
X140170130Y-94133580D01*
X140090941Y-93942402D01*
X139975977Y-93770345D01*
X139975975Y-93770342D01*
X139829657Y-93624024D01*
X139688741Y-93529868D01*
X139657598Y-93509059D01*
X139529546Y-93456018D01*
X139466420Y-93429870D01*
X139466412Y-93429868D01*
X139263469Y-93389500D01*
X139263465Y-93389500D01*
X139056535Y-93389500D01*
X139056530Y-93389500D01*
X138853587Y-93429868D01*
X138853579Y-93429870D01*
X138662403Y-93509058D01*
X138490342Y-93624024D01*
X138344024Y-93770342D01*
X138229058Y-93942403D01*
X138149870Y-94133579D01*
X138149868Y-94133587D01*
X138109500Y-94336530D01*
X126625500Y-94336530D01*
X126625500Y-91796530D01*
X138109500Y-91796530D01*
X138109500Y-92003469D01*
X138149868Y-92206412D01*
X138149870Y-92206420D01*
X138229058Y-92397596D01*
X138344024Y-92569657D01*
X138490342Y-92715975D01*
X138490345Y-92715977D01*
X138662402Y-92830941D01*
X138853580Y-92910130D01*
X139056530Y-92950499D01*
X139056534Y-92950500D01*
X139056535Y-92950500D01*
X139263466Y-92950500D01*
X139263467Y-92950499D01*
X139466420Y-92910130D01*
X139657598Y-92830941D01*
X139829655Y-92715977D01*
X139975977Y-92569655D01*
X140090941Y-92397598D01*
X140170130Y-92206420D01*
X140210500Y-92003465D01*
X140210500Y-91796535D01*
X140210499Y-91796530D01*
X140649500Y-91796530D01*
X140649500Y-92003469D01*
X140689868Y-92206412D01*
X140689870Y-92206420D01*
X140769058Y-92397596D01*
X140884024Y-92569657D01*
X141030342Y-92715975D01*
X141030345Y-92715977D01*
X141202402Y-92830941D01*
X141393580Y-92910130D01*
X141596530Y-92950499D01*
X141596534Y-92950500D01*
X141596535Y-92950500D01*
X141803466Y-92950500D01*
X141803467Y-92950499D01*
X142006420Y-92910130D01*
X142197598Y-92830941D01*
X142369655Y-92715977D01*
X142515977Y-92569655D01*
X142630941Y-92397598D01*
X142710130Y-92206420D01*
X142750500Y-92003465D01*
X142750500Y-91896530D01*
X173409500Y-91896530D01*
X173409500Y-92103469D01*
X173449868Y-92306412D01*
X173449870Y-92306420D01*
X173529058Y-92497596D01*
X173644024Y-92669657D01*
X173790342Y-92815975D01*
X173790345Y-92815977D01*
X173962402Y-92930941D01*
X174153580Y-93010130D01*
X174356530Y-93050499D01*
X174356534Y-93050500D01*
X174356535Y-93050500D01*
X174563466Y-93050500D01*
X174563467Y-93050499D01*
X174766420Y-93010130D01*
X174957598Y-92930941D01*
X175129655Y-92815977D01*
X175275977Y-92669655D01*
X175390941Y-92497598D01*
X175470130Y-92306420D01*
X175510500Y-92103465D01*
X175510500Y-91896535D01*
X175510499Y-91896530D01*
X175949500Y-91896530D01*
X175949500Y-92103469D01*
X175989868Y-92306412D01*
X175989870Y-92306420D01*
X176069058Y-92497596D01*
X176184024Y-92669657D01*
X176330342Y-92815975D01*
X176330345Y-92815977D01*
X176502402Y-92930941D01*
X176693580Y-93010130D01*
X176896530Y-93050499D01*
X176896534Y-93050500D01*
X176896535Y-93050500D01*
X177103466Y-93050500D01*
X177103467Y-93050499D01*
X177306420Y-93010130D01*
X177497598Y-92930941D01*
X177669655Y-92815977D01*
X177739902Y-92745730D01*
X183524500Y-92745730D01*
X183524500Y-94054269D01*
X183527353Y-94084699D01*
X183527353Y-94084701D01*
X183572206Y-94212880D01*
X183572207Y-94212882D01*
X183652850Y-94322150D01*
X183762118Y-94402793D01*
X183804845Y-94417744D01*
X183890299Y-94447646D01*
X183920730Y-94450500D01*
X183920734Y-94450500D01*
X185479270Y-94450500D01*
X185509699Y-94447646D01*
X185509701Y-94447646D01*
X185573790Y-94425219D01*
X185637882Y-94402793D01*
X185747150Y-94322150D01*
X185827793Y-94212882D01*
X185850219Y-94148790D01*
X185872646Y-94084701D01*
X185872646Y-94084699D01*
X185875500Y-94054269D01*
X185875500Y-92745730D01*
X190724500Y-92745730D01*
X190724500Y-94054269D01*
X190727353Y-94084699D01*
X190727353Y-94084701D01*
X190772206Y-94212880D01*
X190772207Y-94212882D01*
X190852850Y-94322150D01*
X190962118Y-94402793D01*
X191004845Y-94417744D01*
X191090299Y-94447646D01*
X191120730Y-94450500D01*
X191120734Y-94450500D01*
X192679270Y-94450500D01*
X192709699Y-94447646D01*
X192709701Y-94447646D01*
X192773790Y-94425219D01*
X192837882Y-94402793D01*
X192947150Y-94322150D01*
X193027793Y-94212882D01*
X193050219Y-94148790D01*
X193072646Y-94084701D01*
X193072646Y-94084699D01*
X193075500Y-94054269D01*
X193075500Y-92745730D01*
X193072646Y-92715300D01*
X193072646Y-92715298D01*
X193027793Y-92587119D01*
X193027792Y-92587117D01*
X193014906Y-92569657D01*
X192947150Y-92477850D01*
X192837882Y-92397207D01*
X192837880Y-92397206D01*
X192709700Y-92352353D01*
X192679270Y-92349500D01*
X192679266Y-92349500D01*
X191120734Y-92349500D01*
X191120730Y-92349500D01*
X191090300Y-92352353D01*
X191090298Y-92352353D01*
X190962119Y-92397206D01*
X190962117Y-92397207D01*
X190852850Y-92477850D01*
X190772207Y-92587117D01*
X190772206Y-92587119D01*
X190727353Y-92715298D01*
X190727353Y-92715300D01*
X190724500Y-92745730D01*
X185875500Y-92745730D01*
X185872646Y-92715300D01*
X185872646Y-92715298D01*
X185827793Y-92587119D01*
X185827792Y-92587117D01*
X185814906Y-92569657D01*
X185747150Y-92477850D01*
X185637882Y-92397207D01*
X185637880Y-92397206D01*
X185509700Y-92352353D01*
X185479270Y-92349500D01*
X185479266Y-92349500D01*
X183920734Y-92349500D01*
X183920730Y-92349500D01*
X183890300Y-92352353D01*
X183890298Y-92352353D01*
X183762119Y-92397206D01*
X183762117Y-92397207D01*
X183652850Y-92477850D01*
X183572207Y-92587117D01*
X183572206Y-92587119D01*
X183527353Y-92715298D01*
X183527353Y-92715300D01*
X183524500Y-92745730D01*
X177739902Y-92745730D01*
X177815977Y-92669655D01*
X177930941Y-92497598D01*
X178010130Y-92306420D01*
X178050500Y-92103465D01*
X178050500Y-91896535D01*
X178010130Y-91693580D01*
X177930941Y-91502402D01*
X177815977Y-91330345D01*
X177815975Y-91330342D01*
X177669657Y-91184024D01*
X177583626Y-91126541D01*
X177497598Y-91069059D01*
X177339243Y-91003466D01*
X177306420Y-90989870D01*
X177306412Y-90989868D01*
X177103469Y-90949500D01*
X177103465Y-90949500D01*
X176896535Y-90949500D01*
X176896530Y-90949500D01*
X176693587Y-90989868D01*
X176693579Y-90989870D01*
X176502403Y-91069058D01*
X176330342Y-91184024D01*
X176184024Y-91330342D01*
X176069058Y-91502403D01*
X175989870Y-91693579D01*
X175989868Y-91693587D01*
X175949500Y-91896530D01*
X175510499Y-91896530D01*
X175470130Y-91693580D01*
X175390941Y-91502402D01*
X175275977Y-91330345D01*
X175275975Y-91330342D01*
X175129657Y-91184024D01*
X175043626Y-91126541D01*
X174957598Y-91069059D01*
X174799243Y-91003466D01*
X174766420Y-90989870D01*
X174766412Y-90989868D01*
X174563469Y-90949500D01*
X174563465Y-90949500D01*
X174356535Y-90949500D01*
X174356530Y-90949500D01*
X174153587Y-90989868D01*
X174153579Y-90989870D01*
X173962403Y-91069058D01*
X173790342Y-91184024D01*
X173644024Y-91330342D01*
X173529058Y-91502403D01*
X173449870Y-91693579D01*
X173449868Y-91693587D01*
X173409500Y-91896530D01*
X142750500Y-91896530D01*
X142750500Y-91796535D01*
X142710130Y-91593580D01*
X142630941Y-91402402D01*
X142515977Y-91230345D01*
X142515975Y-91230342D01*
X142369657Y-91084024D01*
X142283626Y-91026541D01*
X142197598Y-90969059D01*
X142006420Y-90889870D01*
X142006412Y-90889868D01*
X141803469Y-90849500D01*
X141803465Y-90849500D01*
X141596535Y-90849500D01*
X141596530Y-90849500D01*
X141393587Y-90889868D01*
X141393579Y-90889870D01*
X141202403Y-90969058D01*
X141030342Y-91084024D01*
X140884024Y-91230342D01*
X140769058Y-91402403D01*
X140689870Y-91593579D01*
X140689868Y-91593587D01*
X140649500Y-91796530D01*
X140210499Y-91796530D01*
X140170130Y-91593580D01*
X140090941Y-91402402D01*
X139975977Y-91230345D01*
X139975975Y-91230342D01*
X139829657Y-91084024D01*
X139743626Y-91026541D01*
X139657598Y-90969059D01*
X139502956Y-90905004D01*
X139466420Y-90889870D01*
X139466412Y-90889868D01*
X139263469Y-90849500D01*
X139263465Y-90849500D01*
X139056535Y-90849500D01*
X139056530Y-90849500D01*
X138853587Y-90889868D01*
X138853579Y-90889870D01*
X138662403Y-90969058D01*
X138490342Y-91084024D01*
X138344024Y-91230342D01*
X138229058Y-91402403D01*
X138149870Y-91593579D01*
X138149868Y-91593587D01*
X138109500Y-91796530D01*
X126625500Y-91796530D01*
X126625500Y-90796530D01*
X183524500Y-90796530D01*
X183524500Y-91003469D01*
X183564868Y-91206412D01*
X183564870Y-91206420D01*
X183644058Y-91397596D01*
X183759024Y-91569657D01*
X183905342Y-91715975D01*
X183905345Y-91715977D01*
X184077402Y-91830941D01*
X184268580Y-91910130D01*
X184471530Y-91950499D01*
X184471534Y-91950500D01*
X184471535Y-91950500D01*
X184928466Y-91950500D01*
X184928467Y-91950499D01*
X185131420Y-91910130D01*
X185322598Y-91830941D01*
X185494655Y-91715977D01*
X185640977Y-91569655D01*
X185755941Y-91397598D01*
X185835130Y-91206420D01*
X185875500Y-91003465D01*
X185875500Y-90796535D01*
X185875499Y-90796530D01*
X190724500Y-90796530D01*
X190724500Y-91003469D01*
X190764868Y-91206412D01*
X190764870Y-91206420D01*
X190844058Y-91397596D01*
X190959024Y-91569657D01*
X191105342Y-91715975D01*
X191105345Y-91715977D01*
X191277402Y-91830941D01*
X191468580Y-91910130D01*
X191671530Y-91950499D01*
X191671534Y-91950500D01*
X191671535Y-91950500D01*
X192128466Y-91950500D01*
X192128467Y-91950499D01*
X192331420Y-91910130D01*
X192522598Y-91830941D01*
X192694655Y-91715977D01*
X192840977Y-91569655D01*
X192955941Y-91397598D01*
X193035130Y-91206420D01*
X193075500Y-91003465D01*
X193075500Y-90796535D01*
X193035130Y-90593580D01*
X192955941Y-90402402D01*
X192840977Y-90230345D01*
X192840975Y-90230342D01*
X192694657Y-90084024D01*
X192608626Y-90026541D01*
X192522598Y-89969059D01*
X192331420Y-89889870D01*
X192331412Y-89889868D01*
X192128469Y-89849500D01*
X192128465Y-89849500D01*
X191671535Y-89849500D01*
X191671530Y-89849500D01*
X191468587Y-89889868D01*
X191468579Y-89889870D01*
X191277403Y-89969058D01*
X191105342Y-90084024D01*
X190959024Y-90230342D01*
X190844058Y-90402403D01*
X190764870Y-90593579D01*
X190764868Y-90593587D01*
X190724500Y-90796530D01*
X185875499Y-90796530D01*
X185835130Y-90593580D01*
X185755941Y-90402402D01*
X185640977Y-90230345D01*
X185640975Y-90230342D01*
X185494657Y-90084024D01*
X185408626Y-90026541D01*
X185322598Y-89969059D01*
X185131420Y-89889870D01*
X185131412Y-89889868D01*
X184928469Y-89849500D01*
X184928465Y-89849500D01*
X184471535Y-89849500D01*
X184471530Y-89849500D01*
X184268587Y-89889868D01*
X184268579Y-89889870D01*
X184077403Y-89969058D01*
X183905342Y-90084024D01*
X183759024Y-90230342D01*
X183644058Y-90402403D01*
X183564870Y-90593579D01*
X183564868Y-90593587D01*
X183524500Y-90796530D01*
X126625500Y-90796530D01*
X126625500Y-89256530D01*
X138109500Y-89256530D01*
X138109500Y-89463469D01*
X138149868Y-89666412D01*
X138149870Y-89666420D01*
X138229059Y-89857598D01*
X138286541Y-89943626D01*
X138344024Y-90029657D01*
X138490342Y-90175975D01*
X138490345Y-90175977D01*
X138662402Y-90290941D01*
X138853580Y-90370130D01*
X139056530Y-90410499D01*
X139056534Y-90410500D01*
X139056535Y-90410500D01*
X139263466Y-90410500D01*
X139263467Y-90410499D01*
X139466420Y-90370130D01*
X139657598Y-90290941D01*
X139829655Y-90175977D01*
X139975977Y-90029655D01*
X140090941Y-89857598D01*
X140170130Y-89666420D01*
X140210500Y-89463465D01*
X140210500Y-89256535D01*
X140210499Y-89256530D01*
X140649500Y-89256530D01*
X140649500Y-89463469D01*
X140689868Y-89666412D01*
X140689870Y-89666420D01*
X140769059Y-89857598D01*
X140826541Y-89943626D01*
X140884024Y-90029657D01*
X141030342Y-90175975D01*
X141030345Y-90175977D01*
X141202402Y-90290941D01*
X141393580Y-90370130D01*
X141596530Y-90410499D01*
X141596534Y-90410500D01*
X141596535Y-90410500D01*
X141803466Y-90410500D01*
X141803467Y-90410499D01*
X142006420Y-90370130D01*
X142197598Y-90290941D01*
X142369655Y-90175977D01*
X142515977Y-90029655D01*
X142630941Y-89857598D01*
X142710130Y-89666420D01*
X142750500Y-89463465D01*
X142750500Y-89356530D01*
X173409500Y-89356530D01*
X173409500Y-89563469D01*
X173449868Y-89766412D01*
X173449870Y-89766420D01*
X173487636Y-89857596D01*
X173529059Y-89957598D01*
X173536717Y-89969059D01*
X173644024Y-90129657D01*
X173790342Y-90275975D01*
X173790345Y-90275977D01*
X173962402Y-90390941D01*
X174153580Y-90470130D01*
X174356530Y-90510499D01*
X174356534Y-90510500D01*
X174356535Y-90510500D01*
X174563466Y-90510500D01*
X174563467Y-90510499D01*
X174766420Y-90470130D01*
X174957598Y-90390941D01*
X175129655Y-90275977D01*
X175275977Y-90129655D01*
X175390941Y-89957598D01*
X175470130Y-89766420D01*
X175510500Y-89563465D01*
X175510500Y-89356535D01*
X175510499Y-89356530D01*
X175949500Y-89356530D01*
X175949500Y-89563469D01*
X175989868Y-89766412D01*
X175989870Y-89766420D01*
X176027636Y-89857596D01*
X176069059Y-89957598D01*
X176076717Y-89969059D01*
X176184024Y-90129657D01*
X176330342Y-90275975D01*
X176330345Y-90275977D01*
X176502402Y-90390941D01*
X176693580Y-90470130D01*
X176896530Y-90510499D01*
X176896534Y-90510500D01*
X176896535Y-90510500D01*
X177103466Y-90510500D01*
X177103467Y-90510499D01*
X177306420Y-90470130D01*
X177497598Y-90390941D01*
X177669655Y-90275977D01*
X177815977Y-90129655D01*
X177930941Y-89957598D01*
X178010130Y-89766420D01*
X178050500Y-89563465D01*
X178050500Y-89356535D01*
X178010130Y-89153580D01*
X177930941Y-88962402D01*
X177815977Y-88790345D01*
X177815975Y-88790342D01*
X177669657Y-88644024D01*
X177583626Y-88586541D01*
X177497598Y-88529059D01*
X177435811Y-88503466D01*
X177306420Y-88449870D01*
X177306412Y-88449868D01*
X177116338Y-88412060D01*
X177103469Y-88409500D01*
X177103465Y-88409500D01*
X176896535Y-88409500D01*
X176896530Y-88409500D01*
X176693587Y-88449868D01*
X176693579Y-88449870D01*
X176502403Y-88529058D01*
X176330342Y-88644024D01*
X176184024Y-88790342D01*
X176069058Y-88962403D01*
X175989870Y-89153579D01*
X175989868Y-89153587D01*
X175949500Y-89356530D01*
X175510499Y-89356530D01*
X175470130Y-89153580D01*
X175390941Y-88962402D01*
X175275977Y-88790345D01*
X175275975Y-88790342D01*
X175129657Y-88644024D01*
X175043626Y-88586541D01*
X174957598Y-88529059D01*
X174895811Y-88503466D01*
X174766420Y-88449870D01*
X174766412Y-88449868D01*
X174563469Y-88409500D01*
X174563465Y-88409500D01*
X174356535Y-88409500D01*
X174356530Y-88409500D01*
X174153587Y-88449868D01*
X174153579Y-88449870D01*
X173962403Y-88529058D01*
X173790342Y-88644024D01*
X173644024Y-88790342D01*
X173529058Y-88962403D01*
X173449870Y-89153579D01*
X173449868Y-89153587D01*
X173409500Y-89356530D01*
X142750500Y-89356530D01*
X142750500Y-89256535D01*
X142710130Y-89053580D01*
X142630941Y-88862402D01*
X142515977Y-88690345D01*
X142515975Y-88690342D01*
X142369657Y-88544024D01*
X142228741Y-88449868D01*
X142197598Y-88429059D01*
X142006420Y-88349870D01*
X142006412Y-88349868D01*
X141803469Y-88309500D01*
X141803465Y-88309500D01*
X141596535Y-88309500D01*
X141596530Y-88309500D01*
X141393587Y-88349868D01*
X141393579Y-88349870D01*
X141202403Y-88429058D01*
X141030342Y-88544024D01*
X140884024Y-88690342D01*
X140769058Y-88862403D01*
X140689870Y-89053579D01*
X140689868Y-89053587D01*
X140649500Y-89256530D01*
X140210499Y-89256530D01*
X140170130Y-89053580D01*
X140090941Y-88862402D01*
X139975977Y-88690345D01*
X139975975Y-88690342D01*
X139829657Y-88544024D01*
X139688741Y-88449868D01*
X139657598Y-88429059D01*
X139466420Y-88349870D01*
X139466412Y-88349868D01*
X139263469Y-88309500D01*
X139263465Y-88309500D01*
X139056535Y-88309500D01*
X139056530Y-88309500D01*
X138853587Y-88349868D01*
X138853579Y-88349870D01*
X138662403Y-88429058D01*
X138490342Y-88544024D01*
X138344024Y-88690342D01*
X138229058Y-88862403D01*
X138149870Y-89053579D01*
X138149868Y-89053587D01*
X138109500Y-89256530D01*
X126625500Y-89256530D01*
X126625500Y-88296530D01*
X183524500Y-88296530D01*
X183524500Y-88503469D01*
X183564868Y-88706412D01*
X183564870Y-88706420D01*
X183644058Y-88897596D01*
X183759024Y-89069657D01*
X183905342Y-89215975D01*
X183905345Y-89215977D01*
X184077402Y-89330941D01*
X184268580Y-89410130D01*
X184471530Y-89450499D01*
X184471534Y-89450500D01*
X184471535Y-89450500D01*
X184928466Y-89450500D01*
X184928467Y-89450499D01*
X185131420Y-89410130D01*
X185322598Y-89330941D01*
X185494655Y-89215977D01*
X185640977Y-89069655D01*
X185755941Y-88897598D01*
X185835130Y-88706420D01*
X185875500Y-88503465D01*
X185875500Y-88296535D01*
X185875499Y-88296530D01*
X190724500Y-88296530D01*
X190724500Y-88503469D01*
X190764868Y-88706412D01*
X190764870Y-88706420D01*
X190844058Y-88897596D01*
X190959024Y-89069657D01*
X191105342Y-89215975D01*
X191105345Y-89215977D01*
X191277402Y-89330941D01*
X191468580Y-89410130D01*
X191671530Y-89450499D01*
X191671534Y-89450500D01*
X191671535Y-89450500D01*
X192128466Y-89450500D01*
X192128467Y-89450499D01*
X192331420Y-89410130D01*
X192522598Y-89330941D01*
X192694655Y-89215977D01*
X192840977Y-89069655D01*
X192955941Y-88897598D01*
X193035130Y-88706420D01*
X193075500Y-88503465D01*
X193075500Y-88296535D01*
X193035130Y-88093580D01*
X192955941Y-87902402D01*
X192840977Y-87730345D01*
X192840975Y-87730342D01*
X192694657Y-87584024D01*
X192553422Y-87489655D01*
X192522598Y-87469059D01*
X192331420Y-87389870D01*
X192331412Y-87389868D01*
X192128469Y-87349500D01*
X192128465Y-87349500D01*
X191671535Y-87349500D01*
X191671530Y-87349500D01*
X191468587Y-87389868D01*
X191468579Y-87389870D01*
X191277403Y-87469058D01*
X191105342Y-87584024D01*
X190959024Y-87730342D01*
X190844058Y-87902403D01*
X190764870Y-88093579D01*
X190764868Y-88093587D01*
X190724500Y-88296530D01*
X185875499Y-88296530D01*
X185835130Y-88093580D01*
X185755941Y-87902402D01*
X185640977Y-87730345D01*
X185640975Y-87730342D01*
X185494657Y-87584024D01*
X185353422Y-87489655D01*
X185322598Y-87469059D01*
X185131420Y-87389870D01*
X185131412Y-87389868D01*
X184928469Y-87349500D01*
X184928465Y-87349500D01*
X184471535Y-87349500D01*
X184471530Y-87349500D01*
X184268587Y-87389868D01*
X184268579Y-87389870D01*
X184077403Y-87469058D01*
X183905342Y-87584024D01*
X183759024Y-87730342D01*
X183644058Y-87902403D01*
X183564870Y-88093579D01*
X183564868Y-88093587D01*
X183524500Y-88296530D01*
X126625500Y-88296530D01*
X126625500Y-86716530D01*
X138109500Y-86716530D01*
X138109500Y-86923469D01*
X138149868Y-87126412D01*
X138149870Y-87126420D01*
X138229058Y-87317596D01*
X138344024Y-87489657D01*
X138490342Y-87635975D01*
X138490345Y-87635977D01*
X138662402Y-87750941D01*
X138853580Y-87830130D01*
X139056530Y-87870499D01*
X139056534Y-87870500D01*
X139056535Y-87870500D01*
X139263466Y-87870500D01*
X139263467Y-87870499D01*
X139466420Y-87830130D01*
X139657598Y-87750941D01*
X139829655Y-87635977D01*
X139975977Y-87489655D01*
X140090941Y-87317598D01*
X140170130Y-87126420D01*
X140210500Y-86923465D01*
X140210500Y-86716535D01*
X140210499Y-86716530D01*
X140649500Y-86716530D01*
X140649500Y-86923469D01*
X140689868Y-87126412D01*
X140689870Y-87126420D01*
X140769058Y-87317596D01*
X140884024Y-87489657D01*
X141030342Y-87635975D01*
X141030345Y-87635977D01*
X141202402Y-87750941D01*
X141393580Y-87830130D01*
X141596530Y-87870499D01*
X141596534Y-87870500D01*
X141596535Y-87870500D01*
X141803466Y-87870500D01*
X141803467Y-87870499D01*
X142006420Y-87830130D01*
X142197598Y-87750941D01*
X142369655Y-87635977D01*
X142515977Y-87489655D01*
X142630941Y-87317598D01*
X142710130Y-87126420D01*
X142750500Y-86923465D01*
X142750500Y-86816530D01*
X173409500Y-86816530D01*
X173409500Y-87023469D01*
X173449868Y-87226412D01*
X173449870Y-87226420D01*
X173529058Y-87417596D01*
X173644024Y-87589657D01*
X173790342Y-87735975D01*
X173790345Y-87735977D01*
X173962402Y-87850941D01*
X174153580Y-87930130D01*
X174356530Y-87970499D01*
X174356534Y-87970500D01*
X174356535Y-87970500D01*
X174563466Y-87970500D01*
X174563467Y-87970499D01*
X174766420Y-87930130D01*
X174957598Y-87850941D01*
X175129655Y-87735977D01*
X175275977Y-87589655D01*
X175390941Y-87417598D01*
X175470130Y-87226420D01*
X175510500Y-87023465D01*
X175510500Y-86816535D01*
X175510499Y-86816530D01*
X175949500Y-86816530D01*
X175949500Y-87023469D01*
X175989868Y-87226412D01*
X175989870Y-87226420D01*
X176069058Y-87417596D01*
X176184024Y-87589657D01*
X176330342Y-87735975D01*
X176330345Y-87735977D01*
X176502402Y-87850941D01*
X176693580Y-87930130D01*
X176896530Y-87970499D01*
X176896534Y-87970500D01*
X176896535Y-87970500D01*
X177103466Y-87970500D01*
X177103467Y-87970499D01*
X177306420Y-87930130D01*
X177497598Y-87850941D01*
X177669655Y-87735977D01*
X177815977Y-87589655D01*
X177930941Y-87417598D01*
X178010130Y-87226420D01*
X178050500Y-87023465D01*
X178050500Y-86816535D01*
X178010130Y-86613580D01*
X177930941Y-86422402D01*
X177815977Y-86250345D01*
X177815975Y-86250342D01*
X177669657Y-86104024D01*
X177583626Y-86046541D01*
X177497598Y-85989059D01*
X177306420Y-85909870D01*
X177306412Y-85909868D01*
X177103469Y-85869500D01*
X177103465Y-85869500D01*
X176896535Y-85869500D01*
X176896530Y-85869500D01*
X176693587Y-85909868D01*
X176693579Y-85909870D01*
X176502403Y-85989058D01*
X176330342Y-86104024D01*
X176184024Y-86250342D01*
X176069058Y-86422403D01*
X175989870Y-86613579D01*
X175989868Y-86613587D01*
X175949500Y-86816530D01*
X175510499Y-86816530D01*
X175470130Y-86613580D01*
X175390941Y-86422402D01*
X175275977Y-86250345D01*
X175275975Y-86250342D01*
X175129657Y-86104024D01*
X175043626Y-86046541D01*
X174957598Y-85989059D01*
X174766420Y-85909870D01*
X174766412Y-85909868D01*
X174563469Y-85869500D01*
X174563465Y-85869500D01*
X174356535Y-85869500D01*
X174356530Y-85869500D01*
X174153587Y-85909868D01*
X174153579Y-85909870D01*
X173962403Y-85989058D01*
X173790342Y-86104024D01*
X173644024Y-86250342D01*
X173529058Y-86422403D01*
X173449870Y-86613579D01*
X173449868Y-86613587D01*
X173409500Y-86816530D01*
X142750500Y-86816530D01*
X142750500Y-86716535D01*
X142710130Y-86513580D01*
X142630941Y-86322402D01*
X142515977Y-86150345D01*
X142515975Y-86150342D01*
X142369657Y-86004024D01*
X142228741Y-85909868D01*
X142197598Y-85889059D01*
X142006420Y-85809870D01*
X142006412Y-85809868D01*
X141803469Y-85769500D01*
X141803465Y-85769500D01*
X141596535Y-85769500D01*
X141596530Y-85769500D01*
X141393587Y-85809868D01*
X141393579Y-85809870D01*
X141202403Y-85889058D01*
X141030342Y-86004024D01*
X140884024Y-86150342D01*
X140769058Y-86322403D01*
X140689870Y-86513579D01*
X140689868Y-86513587D01*
X140649500Y-86716530D01*
X140210499Y-86716530D01*
X140170130Y-86513580D01*
X140090941Y-86322402D01*
X139975977Y-86150345D01*
X139975975Y-86150342D01*
X139829657Y-86004024D01*
X139688741Y-85909868D01*
X139657598Y-85889059D01*
X139466420Y-85809870D01*
X139466412Y-85809868D01*
X139263469Y-85769500D01*
X139263465Y-85769500D01*
X139056535Y-85769500D01*
X139056530Y-85769500D01*
X138853587Y-85809868D01*
X138853579Y-85809870D01*
X138662403Y-85889058D01*
X138490342Y-86004024D01*
X138344024Y-86150342D01*
X138229058Y-86322403D01*
X138149870Y-86513579D01*
X138149868Y-86513587D01*
X138109500Y-86716530D01*
X126625500Y-86716530D01*
X126625500Y-84176530D01*
X138109500Y-84176530D01*
X138109500Y-84383469D01*
X138149868Y-84586412D01*
X138149870Y-84586420D01*
X138229058Y-84777596D01*
X138344024Y-84949657D01*
X138490342Y-85095975D01*
X138490345Y-85095977D01*
X138662402Y-85210941D01*
X138853580Y-85290130D01*
X139056530Y-85330499D01*
X139056534Y-85330500D01*
X139056535Y-85330500D01*
X139263466Y-85330500D01*
X139263467Y-85330499D01*
X139466420Y-85290130D01*
X139657598Y-85210941D01*
X139829655Y-85095977D01*
X139975977Y-84949655D01*
X140090941Y-84777598D01*
X140170130Y-84586420D01*
X140210500Y-84383465D01*
X140210500Y-84176535D01*
X140210499Y-84176530D01*
X140649500Y-84176530D01*
X140649500Y-84383469D01*
X140689868Y-84586412D01*
X140689870Y-84586420D01*
X140769058Y-84777596D01*
X140884024Y-84949657D01*
X141030342Y-85095975D01*
X141030345Y-85095977D01*
X141202402Y-85210941D01*
X141393580Y-85290130D01*
X141596530Y-85330499D01*
X141596534Y-85330500D01*
X141596535Y-85330500D01*
X141803466Y-85330500D01*
X141803467Y-85330499D01*
X142006420Y-85290130D01*
X142197598Y-85210941D01*
X142369655Y-85095977D01*
X142515977Y-84949655D01*
X142630941Y-84777598D01*
X142710130Y-84586420D01*
X142750500Y-84383465D01*
X142750500Y-84276530D01*
X173409500Y-84276530D01*
X173409500Y-84483469D01*
X173449868Y-84686412D01*
X173449870Y-84686420D01*
X173529058Y-84877596D01*
X173644024Y-85049657D01*
X173790342Y-85195975D01*
X173790345Y-85195977D01*
X173962402Y-85310941D01*
X174153580Y-85390130D01*
X174356530Y-85430499D01*
X174356534Y-85430500D01*
X174356535Y-85430500D01*
X174563466Y-85430500D01*
X174563467Y-85430499D01*
X174766420Y-85390130D01*
X174957598Y-85310941D01*
X175129655Y-85195977D01*
X175275977Y-85049655D01*
X175390941Y-84877598D01*
X175470130Y-84686420D01*
X175510500Y-84483465D01*
X175510500Y-84276535D01*
X175510499Y-84276530D01*
X175949500Y-84276530D01*
X175949500Y-84483469D01*
X175989868Y-84686412D01*
X175989870Y-84686420D01*
X176069058Y-84877596D01*
X176184024Y-85049657D01*
X176330342Y-85195975D01*
X176330345Y-85195977D01*
X176502402Y-85310941D01*
X176693580Y-85390130D01*
X176896530Y-85430499D01*
X176896534Y-85430500D01*
X176896535Y-85430500D01*
X177103466Y-85430500D01*
X177103467Y-85430499D01*
X177306420Y-85390130D01*
X177497598Y-85310941D01*
X177669655Y-85195977D01*
X177815977Y-85049655D01*
X177930941Y-84877598D01*
X178010130Y-84686420D01*
X178050500Y-84483465D01*
X178050500Y-84276535D01*
X178010130Y-84073580D01*
X177930941Y-83882402D01*
X177815977Y-83710345D01*
X177815975Y-83710342D01*
X177669657Y-83564024D01*
X177583626Y-83506541D01*
X177497598Y-83449059D01*
X177306420Y-83369870D01*
X177306412Y-83369868D01*
X177103469Y-83329500D01*
X177103465Y-83329500D01*
X176896535Y-83329500D01*
X176896530Y-83329500D01*
X176693587Y-83369868D01*
X176693579Y-83369870D01*
X176502403Y-83449058D01*
X176330342Y-83564024D01*
X176184024Y-83710342D01*
X176069058Y-83882403D01*
X175989870Y-84073579D01*
X175989868Y-84073587D01*
X175949500Y-84276530D01*
X175510499Y-84276530D01*
X175470130Y-84073580D01*
X175390941Y-83882402D01*
X175275977Y-83710345D01*
X175275975Y-83710342D01*
X175129657Y-83564024D01*
X175043626Y-83506541D01*
X174957598Y-83449059D01*
X174766420Y-83369870D01*
X174766412Y-83369868D01*
X174563469Y-83329500D01*
X174563465Y-83329500D01*
X174356535Y-83329500D01*
X174356530Y-83329500D01*
X174153587Y-83369868D01*
X174153579Y-83369870D01*
X173962403Y-83449058D01*
X173790342Y-83564024D01*
X173644024Y-83710342D01*
X173529058Y-83882403D01*
X173449870Y-84073579D01*
X173449868Y-84073587D01*
X173409500Y-84276530D01*
X142750500Y-84276530D01*
X142750500Y-84176535D01*
X142710130Y-83973580D01*
X142630941Y-83782402D01*
X142515977Y-83610345D01*
X142515975Y-83610342D01*
X142369657Y-83464024D01*
X142228741Y-83369868D01*
X142197598Y-83349059D01*
X142006420Y-83269870D01*
X142006412Y-83269868D01*
X141803469Y-83229500D01*
X141803465Y-83229500D01*
X141596535Y-83229500D01*
X141596530Y-83229500D01*
X141393587Y-83269868D01*
X141393579Y-83269870D01*
X141202403Y-83349058D01*
X141030342Y-83464024D01*
X140884024Y-83610342D01*
X140769058Y-83782403D01*
X140689870Y-83973579D01*
X140689868Y-83973587D01*
X140649500Y-84176530D01*
X140210499Y-84176530D01*
X140170130Y-83973580D01*
X140090941Y-83782402D01*
X139975977Y-83610345D01*
X139975975Y-83610342D01*
X139829657Y-83464024D01*
X139688741Y-83369868D01*
X139657598Y-83349059D01*
X139466420Y-83269870D01*
X139466412Y-83269868D01*
X139263469Y-83229500D01*
X139263465Y-83229500D01*
X139056535Y-83229500D01*
X139056530Y-83229500D01*
X138853587Y-83269868D01*
X138853579Y-83269870D01*
X138662403Y-83349058D01*
X138490342Y-83464024D01*
X138344024Y-83610342D01*
X138229058Y-83782403D01*
X138149870Y-83973579D01*
X138149868Y-83973587D01*
X138109500Y-84176530D01*
X126625500Y-84176530D01*
X126625500Y-81636530D01*
X138109500Y-81636530D01*
X138109500Y-81843469D01*
X138149868Y-82046412D01*
X138149870Y-82046420D01*
X138229058Y-82237596D01*
X138344024Y-82409657D01*
X138490342Y-82555975D01*
X138490345Y-82555977D01*
X138662402Y-82670941D01*
X138853580Y-82750130D01*
X139056530Y-82790499D01*
X139056534Y-82790500D01*
X139056535Y-82790500D01*
X139263466Y-82790500D01*
X139263467Y-82790499D01*
X139466420Y-82750130D01*
X139657598Y-82670941D01*
X139829655Y-82555977D01*
X139975977Y-82409655D01*
X140090941Y-82237598D01*
X140170130Y-82046420D01*
X140210500Y-81843465D01*
X140210500Y-81636535D01*
X140210499Y-81636530D01*
X140649500Y-81636530D01*
X140649500Y-81843469D01*
X140689868Y-82046412D01*
X140689870Y-82046420D01*
X140769058Y-82237596D01*
X140884024Y-82409657D01*
X141030342Y-82555975D01*
X141030345Y-82555977D01*
X141202402Y-82670941D01*
X141393580Y-82750130D01*
X141596530Y-82790499D01*
X141596534Y-82790500D01*
X141596535Y-82790500D01*
X141803466Y-82790500D01*
X141803467Y-82790499D01*
X142006420Y-82750130D01*
X142197598Y-82670941D01*
X142369655Y-82555977D01*
X142515977Y-82409655D01*
X142630941Y-82237598D01*
X142710130Y-82046420D01*
X142750500Y-81843465D01*
X142750500Y-81736530D01*
X173409500Y-81736530D01*
X173409500Y-81943469D01*
X173449868Y-82146412D01*
X173449870Y-82146420D01*
X173529058Y-82337596D01*
X173644024Y-82509657D01*
X173790342Y-82655975D01*
X173790345Y-82655977D01*
X173962402Y-82770941D01*
X174153580Y-82850130D01*
X174356530Y-82890499D01*
X174356534Y-82890500D01*
X174356535Y-82890500D01*
X174563466Y-82890500D01*
X174563467Y-82890499D01*
X174766420Y-82850130D01*
X174957598Y-82770941D01*
X175129655Y-82655977D01*
X175275977Y-82509655D01*
X175390941Y-82337598D01*
X175470130Y-82146420D01*
X175510500Y-81943465D01*
X175510500Y-81736535D01*
X175510499Y-81736530D01*
X175949500Y-81736530D01*
X175949500Y-81943469D01*
X175989868Y-82146412D01*
X175989870Y-82146420D01*
X176069058Y-82337596D01*
X176184024Y-82509657D01*
X176330342Y-82655975D01*
X176330345Y-82655977D01*
X176502402Y-82770941D01*
X176693580Y-82850130D01*
X176896530Y-82890499D01*
X176896534Y-82890500D01*
X176896535Y-82890500D01*
X177103466Y-82890500D01*
X177103467Y-82890499D01*
X177306420Y-82850130D01*
X177497598Y-82770941D01*
X177669655Y-82655977D01*
X177815977Y-82509655D01*
X177930941Y-82337598D01*
X178010130Y-82146420D01*
X178050500Y-81943465D01*
X178050500Y-81736535D01*
X178012547Y-81545730D01*
X183524500Y-81545730D01*
X183524500Y-82854269D01*
X183527353Y-82884699D01*
X183527353Y-82884701D01*
X183572206Y-83012880D01*
X183572207Y-83012882D01*
X183652850Y-83122150D01*
X183762118Y-83202793D01*
X183804845Y-83217744D01*
X183890299Y-83247646D01*
X183920730Y-83250500D01*
X183920734Y-83250500D01*
X185479270Y-83250500D01*
X185509699Y-83247646D01*
X185509701Y-83247646D01*
X185573790Y-83225219D01*
X185637882Y-83202793D01*
X185747150Y-83122150D01*
X185827793Y-83012882D01*
X185850219Y-82948790D01*
X185872646Y-82884701D01*
X185872646Y-82884699D01*
X185875500Y-82854269D01*
X185875500Y-81545730D01*
X190699500Y-81545730D01*
X190699500Y-82854269D01*
X190702353Y-82884699D01*
X190702353Y-82884701D01*
X190747206Y-83012880D01*
X190747207Y-83012882D01*
X190827850Y-83122150D01*
X190937118Y-83202793D01*
X190979845Y-83217744D01*
X191065299Y-83247646D01*
X191095730Y-83250500D01*
X191095734Y-83250500D01*
X192654270Y-83250500D01*
X192684699Y-83247646D01*
X192684701Y-83247646D01*
X192748790Y-83225219D01*
X192812882Y-83202793D01*
X192922150Y-83122150D01*
X193002793Y-83012882D01*
X193025219Y-82948790D01*
X193047646Y-82884701D01*
X193047646Y-82884699D01*
X193050500Y-82854269D01*
X193050500Y-81545730D01*
X193047646Y-81515300D01*
X193047646Y-81515298D01*
X193002793Y-81387119D01*
X193002792Y-81387117D01*
X192922150Y-81277850D01*
X192812882Y-81197207D01*
X192812880Y-81197206D01*
X192684700Y-81152353D01*
X192654270Y-81149500D01*
X192654266Y-81149500D01*
X191095734Y-81149500D01*
X191095730Y-81149500D01*
X191065300Y-81152353D01*
X191065298Y-81152353D01*
X190937119Y-81197206D01*
X190937117Y-81197207D01*
X190827850Y-81277850D01*
X190747207Y-81387117D01*
X190747206Y-81387119D01*
X190702353Y-81515298D01*
X190702353Y-81515300D01*
X190699500Y-81545730D01*
X185875500Y-81545730D01*
X185872646Y-81515300D01*
X185872646Y-81515298D01*
X185827793Y-81387119D01*
X185827792Y-81387117D01*
X185747150Y-81277850D01*
X185637882Y-81197207D01*
X185637880Y-81197206D01*
X185509700Y-81152353D01*
X185479270Y-81149500D01*
X185479266Y-81149500D01*
X183920734Y-81149500D01*
X183920730Y-81149500D01*
X183890300Y-81152353D01*
X183890298Y-81152353D01*
X183762119Y-81197206D01*
X183762117Y-81197207D01*
X183652850Y-81277850D01*
X183572207Y-81387117D01*
X183572206Y-81387119D01*
X183527353Y-81515298D01*
X183527353Y-81515300D01*
X183524500Y-81545730D01*
X178012547Y-81545730D01*
X178010130Y-81533580D01*
X177930941Y-81342402D01*
X177815977Y-81170345D01*
X177815975Y-81170342D01*
X177669657Y-81024024D01*
X177583626Y-80966541D01*
X177497598Y-80909059D01*
X177306420Y-80829870D01*
X177306412Y-80829868D01*
X177103469Y-80789500D01*
X177103465Y-80789500D01*
X176896535Y-80789500D01*
X176896530Y-80789500D01*
X176693587Y-80829868D01*
X176693579Y-80829870D01*
X176502403Y-80909058D01*
X176330342Y-81024024D01*
X176184024Y-81170342D01*
X176069058Y-81342403D01*
X175989870Y-81533579D01*
X175989868Y-81533587D01*
X175949500Y-81736530D01*
X175510499Y-81736530D01*
X175470130Y-81533580D01*
X175390941Y-81342402D01*
X175275977Y-81170345D01*
X175275975Y-81170342D01*
X175129657Y-81024024D01*
X175043626Y-80966541D01*
X174957598Y-80909059D01*
X174766420Y-80829870D01*
X174766412Y-80829868D01*
X174563469Y-80789500D01*
X174563465Y-80789500D01*
X174356535Y-80789500D01*
X174356530Y-80789500D01*
X174153587Y-80829868D01*
X174153579Y-80829870D01*
X173962403Y-80909058D01*
X173790342Y-81024024D01*
X173644024Y-81170342D01*
X173529058Y-81342403D01*
X173449870Y-81533579D01*
X173449868Y-81533587D01*
X173409500Y-81736530D01*
X142750500Y-81736530D01*
X142750500Y-81636535D01*
X142710130Y-81433580D01*
X142630941Y-81242402D01*
X142515977Y-81070345D01*
X142515975Y-81070342D01*
X142369657Y-80924024D01*
X142228741Y-80829868D01*
X142197598Y-80809059D01*
X142006420Y-80729870D01*
X142006412Y-80729868D01*
X141803469Y-80689500D01*
X141803465Y-80689500D01*
X141596535Y-80689500D01*
X141596530Y-80689500D01*
X141393587Y-80729868D01*
X141393579Y-80729870D01*
X141202403Y-80809058D01*
X141030342Y-80924024D01*
X140884024Y-81070342D01*
X140769058Y-81242403D01*
X140689870Y-81433579D01*
X140689868Y-81433587D01*
X140649500Y-81636530D01*
X140210499Y-81636530D01*
X140170130Y-81433580D01*
X140090941Y-81242402D01*
X139975977Y-81070345D01*
X139975975Y-81070342D01*
X139829657Y-80924024D01*
X139688741Y-80829868D01*
X139657598Y-80809059D01*
X139466420Y-80729870D01*
X139466412Y-80729868D01*
X139263469Y-80689500D01*
X139263465Y-80689500D01*
X139056535Y-80689500D01*
X139056530Y-80689500D01*
X138853587Y-80729868D01*
X138853579Y-80729870D01*
X138662403Y-80809058D01*
X138490342Y-80924024D01*
X138344024Y-81070342D01*
X138229058Y-81242403D01*
X138149870Y-81433579D01*
X138149868Y-81433587D01*
X138109500Y-81636530D01*
X126625500Y-81636530D01*
X126625500Y-76606482D01*
X130574500Y-76606482D01*
X130574500Y-76718518D01*
X130603497Y-76826737D01*
X130659515Y-76923763D01*
X130738737Y-77002985D01*
X130835763Y-77059003D01*
X130943982Y-77088000D01*
X130943984Y-77088000D01*
X131056016Y-77088000D01*
X131056018Y-77088000D01*
X131164237Y-77059003D01*
X131261263Y-77002985D01*
X131340485Y-76923763D01*
X131396503Y-76826737D01*
X131398581Y-76818982D01*
X132574500Y-76818982D01*
X132574500Y-76931018D01*
X132603497Y-77039237D01*
X132659515Y-77136263D01*
X132738737Y-77215485D01*
X132835763Y-77271503D01*
X132943982Y-77300500D01*
X132943984Y-77300500D01*
X133056016Y-77300500D01*
X133056018Y-77300500D01*
X133164237Y-77271503D01*
X133261263Y-77215485D01*
X133340485Y-77136263D01*
X133396503Y-77039237D01*
X133425500Y-76931018D01*
X133425500Y-76818982D01*
X133396503Y-76710763D01*
X133340485Y-76613737D01*
X133280501Y-76553753D01*
X137810000Y-76553753D01*
X137810000Y-76766246D01*
X137843242Y-76976127D01*
X137843242Y-76976130D01*
X137908904Y-77178217D01*
X138005375Y-77367550D01*
X138044728Y-77421716D01*
X138677037Y-76789408D01*
X138694075Y-76852993D01*
X138759901Y-76967007D01*
X138852993Y-77060099D01*
X138967007Y-77125925D01*
X139030590Y-77142962D01*
X138398282Y-77775269D01*
X138398282Y-77775270D01*
X138452449Y-77814624D01*
X138641782Y-77911095D01*
X138817973Y-77968343D01*
X138875648Y-78007780D01*
X138902847Y-78072139D01*
X138890932Y-78140985D01*
X138843688Y-78192461D01*
X138827108Y-78200835D01*
X138662403Y-78269057D01*
X138490342Y-78384024D01*
X138344024Y-78530342D01*
X138229058Y-78702403D01*
X138149870Y-78893579D01*
X138149868Y-78893587D01*
X138109500Y-79096530D01*
X138109500Y-79303469D01*
X138149868Y-79506412D01*
X138149870Y-79506420D01*
X138229058Y-79697596D01*
X138344024Y-79869657D01*
X138490342Y-80015975D01*
X138490345Y-80015977D01*
X138662402Y-80130941D01*
X138853580Y-80210130D01*
X139056530Y-80250499D01*
X139056534Y-80250500D01*
X139056535Y-80250500D01*
X139263466Y-80250500D01*
X139263467Y-80250499D01*
X139466420Y-80210130D01*
X139657598Y-80130941D01*
X139829655Y-80015977D01*
X139975977Y-79869655D01*
X140090941Y-79697598D01*
X140170130Y-79506420D01*
X140210500Y-79303465D01*
X140210500Y-79096535D01*
X140170130Y-78893580D01*
X140090941Y-78702402D01*
X139975977Y-78530345D01*
X139975975Y-78530342D01*
X139829657Y-78384024D01*
X139698671Y-78296503D01*
X139657598Y-78269059D01*
X139657593Y-78269057D01*
X139583644Y-78238426D01*
X139492890Y-78200834D01*
X139438488Y-78156994D01*
X139416423Y-78090700D01*
X139433702Y-78023001D01*
X139484839Y-77975390D01*
X139502026Y-77968343D01*
X139678217Y-77911095D01*
X139867554Y-77814622D01*
X139921716Y-77775270D01*
X139921717Y-77775270D01*
X139289408Y-77142962D01*
X139352993Y-77125925D01*
X139467007Y-77060099D01*
X139560099Y-76967007D01*
X139625925Y-76852993D01*
X139642962Y-76789408D01*
X140312356Y-77458803D01*
X140345841Y-77520126D01*
X140344926Y-77534831D01*
X140347497Y-77534555D01*
X140356401Y-77617373D01*
X140356403Y-77617380D01*
X140406645Y-77752086D01*
X140406649Y-77752093D01*
X140492809Y-77867187D01*
X140492812Y-77867190D01*
X140607906Y-77953350D01*
X140607913Y-77953354D01*
X140742620Y-78003596D01*
X140742627Y-78003598D01*
X140802155Y-78009999D01*
X140802172Y-78010000D01*
X141204435Y-78010000D01*
X141271474Y-78029685D01*
X141317229Y-78082489D01*
X141327173Y-78151647D01*
X141298148Y-78215203D01*
X141251888Y-78248561D01*
X141202403Y-78269058D01*
X141030342Y-78384024D01*
X140884024Y-78530342D01*
X140769058Y-78702403D01*
X140689870Y-78893579D01*
X140689868Y-78893587D01*
X140649500Y-79096530D01*
X140649500Y-79303469D01*
X140689868Y-79506412D01*
X140689870Y-79506420D01*
X140769058Y-79697596D01*
X140884024Y-79869657D01*
X141030342Y-80015975D01*
X141030345Y-80015977D01*
X141202402Y-80130941D01*
X141393580Y-80210130D01*
X141596530Y-80250499D01*
X141596534Y-80250500D01*
X141596535Y-80250500D01*
X141803466Y-80250500D01*
X141803467Y-80250499D01*
X142006420Y-80210130D01*
X142197598Y-80130941D01*
X142369655Y-80015977D01*
X142515977Y-79869655D01*
X142630941Y-79697598D01*
X142710130Y-79506420D01*
X142750500Y-79303465D01*
X142750500Y-79096535D01*
X142710130Y-78893580D01*
X142630941Y-78702402D01*
X142515977Y-78530345D01*
X142515975Y-78530342D01*
X142369657Y-78384024D01*
X142238671Y-78296503D01*
X142197598Y-78269059D01*
X142197593Y-78269057D01*
X142148112Y-78248561D01*
X142093709Y-78204720D01*
X142071644Y-78138426D01*
X142088923Y-78070726D01*
X142140061Y-78023116D01*
X142195565Y-78010000D01*
X142597828Y-78010000D01*
X142597844Y-78009999D01*
X142657372Y-78003598D01*
X142657379Y-78003596D01*
X142792086Y-77953354D01*
X142792093Y-77953350D01*
X142907187Y-77867190D01*
X142907190Y-77867187D01*
X142993350Y-77752093D01*
X142993354Y-77752086D01*
X143043596Y-77617379D01*
X143043598Y-77617372D01*
X143049999Y-77557844D01*
X143050000Y-77557827D01*
X143050000Y-76910000D01*
X142133012Y-76910000D01*
X142165925Y-76852993D01*
X142200000Y-76725826D01*
X142200000Y-76594174D01*
X142170971Y-76485837D01*
X155649500Y-76485837D01*
X155649500Y-76714162D01*
X155685215Y-76939660D01*
X155755770Y-77156803D01*
X155828988Y-77300500D01*
X155859421Y-77360228D01*
X155993621Y-77544937D01*
X156155063Y-77706379D01*
X156339772Y-77840579D01*
X156396837Y-77869655D01*
X156543196Y-77944229D01*
X156543198Y-77944229D01*
X156543201Y-77944231D01*
X156617410Y-77968343D01*
X156760339Y-78014784D01*
X156985838Y-78050500D01*
X156985843Y-78050500D01*
X157214162Y-78050500D01*
X157439660Y-78014784D01*
X157450509Y-78011259D01*
X157656799Y-77944231D01*
X157860228Y-77840579D01*
X158044937Y-77706379D01*
X158057334Y-77693982D01*
X158637000Y-77693982D01*
X158637000Y-77806018D01*
X158665997Y-77914237D01*
X158722015Y-78011263D01*
X158801237Y-78090485D01*
X158898263Y-78146503D01*
X159006482Y-78175500D01*
X159006484Y-78175500D01*
X159118516Y-78175500D01*
X159118518Y-78175500D01*
X159226737Y-78146503D01*
X159323763Y-78090485D01*
X159402985Y-78011263D01*
X159459003Y-77914237D01*
X159477828Y-77843982D01*
X159787000Y-77843982D01*
X159787000Y-77956018D01*
X159803066Y-78015975D01*
X159815997Y-78064236D01*
X159815998Y-78064239D01*
X159819743Y-78070726D01*
X159872015Y-78161263D01*
X159951237Y-78240485D01*
X160048263Y-78296503D01*
X160156482Y-78325500D01*
X160156484Y-78325500D01*
X160268516Y-78325500D01*
X160268518Y-78325500D01*
X160376737Y-78296503D01*
X160473763Y-78240485D01*
X160552985Y-78161263D01*
X160609003Y-78064237D01*
X160638000Y-77956018D01*
X160638000Y-77843982D01*
X160609003Y-77735763D01*
X160552985Y-77638737D01*
X160473763Y-77559515D01*
X160376737Y-77503497D01*
X160268518Y-77474500D01*
X160156482Y-77474500D01*
X160048263Y-77503497D01*
X160048260Y-77503498D01*
X159951240Y-77559513D01*
X159951234Y-77559517D01*
X159872017Y-77638734D01*
X159872013Y-77638740D01*
X159815998Y-77735760D01*
X159815997Y-77735763D01*
X159787000Y-77843982D01*
X159477828Y-77843982D01*
X159488000Y-77806018D01*
X159488000Y-77693982D01*
X159459003Y-77585763D01*
X159402985Y-77488737D01*
X159323763Y-77409515D01*
X159251078Y-77367550D01*
X159226739Y-77353498D01*
X159226738Y-77353497D01*
X159226737Y-77353497D01*
X159118518Y-77324500D01*
X159006482Y-77324500D01*
X158898263Y-77353497D01*
X158898260Y-77353498D01*
X158801240Y-77409513D01*
X158801234Y-77409517D01*
X158722017Y-77488734D01*
X158722013Y-77488740D01*
X158665998Y-77585760D01*
X158665997Y-77585763D01*
X158637000Y-77693982D01*
X158057334Y-77693982D01*
X158206379Y-77544937D01*
X158340579Y-77360228D01*
X158444231Y-77156799D01*
X158514784Y-76939660D01*
X158517302Y-76923763D01*
X158545777Y-76743982D01*
X159787000Y-76743982D01*
X159787000Y-76856018D01*
X159815997Y-76964237D01*
X159872015Y-77061263D01*
X159951237Y-77140485D01*
X160048263Y-77196503D01*
X160156482Y-77225500D01*
X160156484Y-77225500D01*
X160268516Y-77225500D01*
X160268518Y-77225500D01*
X160376737Y-77196503D01*
X160473763Y-77140485D01*
X160552985Y-77061263D01*
X160609003Y-76964237D01*
X160638000Y-76856018D01*
X160638000Y-76743982D01*
X160613823Y-76653753D01*
X173110000Y-76653753D01*
X173110000Y-76866246D01*
X173143242Y-77076127D01*
X173143242Y-77076130D01*
X173208904Y-77278217D01*
X173305375Y-77467550D01*
X173344728Y-77521716D01*
X173977037Y-76889408D01*
X173994075Y-76952993D01*
X174059901Y-77067007D01*
X174152993Y-77160099D01*
X174267007Y-77225925D01*
X174330590Y-77242962D01*
X173698282Y-77875269D01*
X173698282Y-77875270D01*
X173752449Y-77914624D01*
X173941782Y-78011095D01*
X174117973Y-78068343D01*
X174175648Y-78107780D01*
X174202847Y-78172139D01*
X174190932Y-78240985D01*
X174143688Y-78292461D01*
X174127108Y-78300835D01*
X173962403Y-78369057D01*
X173790342Y-78484024D01*
X173644024Y-78630342D01*
X173529058Y-78802403D01*
X173449870Y-78993579D01*
X173449868Y-78993587D01*
X173409500Y-79196530D01*
X173409500Y-79403469D01*
X173449868Y-79606412D01*
X173449870Y-79606420D01*
X173529058Y-79797596D01*
X173644024Y-79969657D01*
X173790342Y-80115975D01*
X173790345Y-80115977D01*
X173962402Y-80230941D01*
X174153580Y-80310130D01*
X174356530Y-80350499D01*
X174356534Y-80350500D01*
X174356535Y-80350500D01*
X174563466Y-80350500D01*
X174563467Y-80350499D01*
X174766420Y-80310130D01*
X174957598Y-80230941D01*
X175129655Y-80115977D01*
X175275977Y-79969655D01*
X175390941Y-79797598D01*
X175470130Y-79606420D01*
X175510500Y-79403465D01*
X175510500Y-79196535D01*
X175470130Y-78993580D01*
X175390941Y-78802402D01*
X175275977Y-78630345D01*
X175275975Y-78630342D01*
X175129657Y-78484024D01*
X175043626Y-78426541D01*
X174957598Y-78369059D01*
X174957593Y-78369057D01*
X174852435Y-78325499D01*
X174792890Y-78300834D01*
X174738488Y-78256994D01*
X174716423Y-78190700D01*
X174733702Y-78123001D01*
X174784839Y-78075390D01*
X174802026Y-78068343D01*
X174978217Y-78011095D01*
X175167554Y-77914622D01*
X175221716Y-77875270D01*
X175221717Y-77875270D01*
X174589408Y-77242962D01*
X174652993Y-77225925D01*
X174767007Y-77160099D01*
X174860099Y-77067007D01*
X174925925Y-76952993D01*
X174942962Y-76889408D01*
X175612356Y-77558803D01*
X175645841Y-77620126D01*
X175644926Y-77634831D01*
X175647497Y-77634555D01*
X175656401Y-77717373D01*
X175656403Y-77717380D01*
X175706645Y-77852086D01*
X175706649Y-77852093D01*
X175792809Y-77967187D01*
X175792812Y-77967190D01*
X175907906Y-78053350D01*
X175907913Y-78053354D01*
X176042620Y-78103596D01*
X176042627Y-78103598D01*
X176102155Y-78109999D01*
X176102172Y-78110000D01*
X176504435Y-78110000D01*
X176571474Y-78129685D01*
X176617229Y-78182489D01*
X176627173Y-78251647D01*
X176598148Y-78315203D01*
X176551888Y-78348561D01*
X176502403Y-78369058D01*
X176330342Y-78484024D01*
X176184024Y-78630342D01*
X176069058Y-78802403D01*
X175989870Y-78993579D01*
X175989868Y-78993587D01*
X175949500Y-79196530D01*
X175949500Y-79403469D01*
X175989868Y-79606412D01*
X175989870Y-79606420D01*
X176069058Y-79797596D01*
X176184024Y-79969657D01*
X176330342Y-80115975D01*
X176330345Y-80115977D01*
X176502402Y-80230941D01*
X176693580Y-80310130D01*
X176896530Y-80350499D01*
X176896534Y-80350500D01*
X176896535Y-80350500D01*
X177103466Y-80350500D01*
X177103467Y-80350499D01*
X177306420Y-80310130D01*
X177497598Y-80230941D01*
X177669655Y-80115977D01*
X177815977Y-79969655D01*
X177930941Y-79797598D01*
X178010130Y-79606420D01*
X178012097Y-79596530D01*
X183524500Y-79596530D01*
X183524500Y-79803469D01*
X183564868Y-80006412D01*
X183564870Y-80006420D01*
X183616448Y-80130941D01*
X183644059Y-80197598D01*
X183666338Y-80230941D01*
X183759024Y-80369657D01*
X183905342Y-80515975D01*
X183905345Y-80515977D01*
X184077402Y-80630941D01*
X184268580Y-80710130D01*
X184471530Y-80750499D01*
X184471534Y-80750500D01*
X184471535Y-80750500D01*
X184928466Y-80750500D01*
X184928467Y-80750499D01*
X185131420Y-80710130D01*
X185322598Y-80630941D01*
X185494655Y-80515977D01*
X185640977Y-80369655D01*
X185755941Y-80197598D01*
X185835130Y-80006420D01*
X185875500Y-79803465D01*
X185875500Y-79596535D01*
X185875499Y-79596530D01*
X190699500Y-79596530D01*
X190699500Y-79803469D01*
X190739868Y-80006412D01*
X190739870Y-80006420D01*
X190791448Y-80130941D01*
X190819059Y-80197598D01*
X190841338Y-80230941D01*
X190934024Y-80369657D01*
X191080342Y-80515975D01*
X191080345Y-80515977D01*
X191252402Y-80630941D01*
X191443580Y-80710130D01*
X191646530Y-80750499D01*
X191646534Y-80750500D01*
X191646535Y-80750500D01*
X192103466Y-80750500D01*
X192103467Y-80750499D01*
X192306420Y-80710130D01*
X192497598Y-80630941D01*
X192669655Y-80515977D01*
X192815977Y-80369655D01*
X192930941Y-80197598D01*
X193010130Y-80006420D01*
X193050500Y-79803465D01*
X193050500Y-79596535D01*
X193010130Y-79393580D01*
X192930941Y-79202402D01*
X192815977Y-79030345D01*
X192815975Y-79030342D01*
X192669657Y-78884024D01*
X192547501Y-78802403D01*
X192497598Y-78769059D01*
X192306420Y-78689870D01*
X192306412Y-78689868D01*
X192103469Y-78649500D01*
X192103465Y-78649500D01*
X191646535Y-78649500D01*
X191646530Y-78649500D01*
X191443587Y-78689868D01*
X191443579Y-78689870D01*
X191252403Y-78769058D01*
X191080342Y-78884024D01*
X190934024Y-79030342D01*
X190819058Y-79202403D01*
X190739870Y-79393579D01*
X190739868Y-79393587D01*
X190699500Y-79596530D01*
X185875499Y-79596530D01*
X185835130Y-79393580D01*
X185755941Y-79202402D01*
X185640977Y-79030345D01*
X185640975Y-79030342D01*
X185494657Y-78884024D01*
X185372501Y-78802403D01*
X185322598Y-78769059D01*
X185131420Y-78689870D01*
X185131412Y-78689868D01*
X184928469Y-78649500D01*
X184928465Y-78649500D01*
X184471535Y-78649500D01*
X184471530Y-78649500D01*
X184268587Y-78689868D01*
X184268579Y-78689870D01*
X184077403Y-78769058D01*
X183905342Y-78884024D01*
X183759024Y-79030342D01*
X183644058Y-79202403D01*
X183564870Y-79393579D01*
X183564868Y-79393587D01*
X183524500Y-79596530D01*
X178012097Y-79596530D01*
X178050500Y-79403465D01*
X178050500Y-79196535D01*
X178010130Y-78993580D01*
X177930941Y-78802402D01*
X177815977Y-78630345D01*
X177815975Y-78630342D01*
X177669657Y-78484024D01*
X177583626Y-78426541D01*
X177497598Y-78369059D01*
X177497593Y-78369057D01*
X177448112Y-78348561D01*
X177393709Y-78304720D01*
X177371644Y-78238426D01*
X177388923Y-78170726D01*
X177440061Y-78123116D01*
X177495565Y-78110000D01*
X177897828Y-78110000D01*
X177897844Y-78109999D01*
X177957372Y-78103598D01*
X177957379Y-78103596D01*
X178092086Y-78053354D01*
X178092093Y-78053350D01*
X178207187Y-77967190D01*
X178207190Y-77967187D01*
X178293350Y-77852093D01*
X178293354Y-77852086D01*
X178343596Y-77717379D01*
X178343598Y-77717372D01*
X178349999Y-77657844D01*
X178350000Y-77657827D01*
X178350000Y-77096530D01*
X183524500Y-77096530D01*
X183524500Y-77303469D01*
X183564868Y-77506412D01*
X183564870Y-77506420D01*
X183619676Y-77638734D01*
X183644059Y-77697598D01*
X183680471Y-77752093D01*
X183759024Y-77869657D01*
X183905342Y-78015975D01*
X183905345Y-78015977D01*
X184077402Y-78130941D01*
X184268580Y-78210130D01*
X184410835Y-78238426D01*
X184471530Y-78250499D01*
X184471534Y-78250500D01*
X184471535Y-78250500D01*
X184928466Y-78250500D01*
X184928467Y-78250499D01*
X185131420Y-78210130D01*
X185322598Y-78130941D01*
X185494655Y-78015977D01*
X185640977Y-77869655D01*
X185755941Y-77697598D01*
X185835130Y-77506420D01*
X185875500Y-77303465D01*
X185875500Y-77096535D01*
X185875499Y-77096530D01*
X190699500Y-77096530D01*
X190699500Y-77303469D01*
X190739868Y-77506412D01*
X190739870Y-77506420D01*
X190794676Y-77638734D01*
X190819059Y-77697598D01*
X190855471Y-77752093D01*
X190934024Y-77869657D01*
X191080342Y-78015975D01*
X191080345Y-78015977D01*
X191252402Y-78130941D01*
X191443580Y-78210130D01*
X191585835Y-78238426D01*
X191646530Y-78250499D01*
X191646534Y-78250500D01*
X191646535Y-78250500D01*
X192103466Y-78250500D01*
X192103467Y-78250499D01*
X192306420Y-78210130D01*
X192497598Y-78130941D01*
X192669655Y-78015977D01*
X192815977Y-77869655D01*
X192930941Y-77697598D01*
X193010130Y-77506420D01*
X193050500Y-77303465D01*
X193050500Y-77096535D01*
X193010130Y-76893580D01*
X192930941Y-76702402D01*
X192815977Y-76530345D01*
X192815975Y-76530342D01*
X192669657Y-76384024D01*
X192535037Y-76294075D01*
X192497598Y-76269059D01*
X192490208Y-76265998D01*
X192306420Y-76189870D01*
X192306412Y-76189868D01*
X192103469Y-76149500D01*
X192103465Y-76149500D01*
X191646535Y-76149500D01*
X191646530Y-76149500D01*
X191443587Y-76189868D01*
X191443579Y-76189870D01*
X191252403Y-76269058D01*
X191080342Y-76384024D01*
X190934024Y-76530342D01*
X190819058Y-76702403D01*
X190739870Y-76893579D01*
X190739868Y-76893587D01*
X190699500Y-77096530D01*
X185875499Y-77096530D01*
X185835130Y-76893580D01*
X185755941Y-76702402D01*
X185640977Y-76530345D01*
X185640975Y-76530342D01*
X185494657Y-76384024D01*
X185360037Y-76294075D01*
X185322598Y-76269059D01*
X185315208Y-76265998D01*
X185131420Y-76189870D01*
X185131412Y-76189868D01*
X184928469Y-76149500D01*
X184928465Y-76149500D01*
X184471535Y-76149500D01*
X184471530Y-76149500D01*
X184268587Y-76189868D01*
X184268579Y-76189870D01*
X184077403Y-76269058D01*
X183905342Y-76384024D01*
X183759024Y-76530342D01*
X183644058Y-76702403D01*
X183564870Y-76893579D01*
X183564868Y-76893587D01*
X183524500Y-77096530D01*
X178350000Y-77096530D01*
X178350000Y-77010000D01*
X177433012Y-77010000D01*
X177465925Y-76952993D01*
X177500000Y-76825826D01*
X177500000Y-76694174D01*
X177465925Y-76567007D01*
X177433012Y-76510000D01*
X178350000Y-76510000D01*
X178350000Y-75862172D01*
X178349999Y-75862155D01*
X178343598Y-75802627D01*
X178343596Y-75802620D01*
X178293354Y-75667913D01*
X178293350Y-75667906D01*
X178207190Y-75552812D01*
X178207187Y-75552809D01*
X178092093Y-75466649D01*
X178092086Y-75466645D01*
X177957379Y-75416403D01*
X177957372Y-75416401D01*
X177897844Y-75410000D01*
X177250000Y-75410000D01*
X177250000Y-76326988D01*
X177192993Y-76294075D01*
X177065826Y-76260000D01*
X176934174Y-76260000D01*
X176807007Y-76294075D01*
X176750000Y-76326988D01*
X176750000Y-75410000D01*
X176102155Y-75410000D01*
X176042627Y-75416401D01*
X176042620Y-75416403D01*
X175907913Y-75466645D01*
X175907906Y-75466649D01*
X175792812Y-75552809D01*
X175792809Y-75552812D01*
X175706649Y-75667906D01*
X175706645Y-75667913D01*
X175656403Y-75802619D01*
X175656401Y-75802626D01*
X175647497Y-75885444D01*
X175644434Y-75885114D01*
X175645336Y-75902094D01*
X175612356Y-75961195D01*
X174942962Y-76630590D01*
X174925925Y-76567007D01*
X174860099Y-76452993D01*
X174767007Y-76359901D01*
X174652993Y-76294075D01*
X174589409Y-76277037D01*
X175221716Y-75644728D01*
X175167550Y-75605375D01*
X174978217Y-75508904D01*
X174776129Y-75443242D01*
X174566246Y-75410000D01*
X174353754Y-75410000D01*
X174143872Y-75443242D01*
X174143869Y-75443242D01*
X173941782Y-75508904D01*
X173752439Y-75605380D01*
X173698282Y-75644727D01*
X173698282Y-75644728D01*
X174330591Y-76277037D01*
X174267007Y-76294075D01*
X174152993Y-76359901D01*
X174059901Y-76452993D01*
X173994075Y-76567007D01*
X173977037Y-76630591D01*
X173344728Y-75998282D01*
X173344727Y-75998282D01*
X173305380Y-76052439D01*
X173208904Y-76241782D01*
X173143242Y-76443869D01*
X173143242Y-76443872D01*
X173110000Y-76653753D01*
X160613823Y-76653753D01*
X160609003Y-76635763D01*
X160552985Y-76538737D01*
X160473763Y-76459515D01*
X160376737Y-76403497D01*
X160268518Y-76374500D01*
X160156482Y-76374500D01*
X160048263Y-76403497D01*
X160048260Y-76403498D01*
X159951240Y-76459513D01*
X159951234Y-76459517D01*
X159872017Y-76538734D01*
X159872013Y-76538740D01*
X159815998Y-76635760D01*
X159815998Y-76635761D01*
X159815997Y-76635763D01*
X159787000Y-76743982D01*
X158545777Y-76743982D01*
X158550137Y-76716457D01*
X158550137Y-76716456D01*
X158550499Y-76714165D01*
X158550500Y-76714164D01*
X158550500Y-76485838D01*
X158535659Y-76392141D01*
X158544613Y-76322847D01*
X158589609Y-76269395D01*
X158656360Y-76248755D01*
X158723674Y-76267479D01*
X158745813Y-76285061D01*
X158801237Y-76340485D01*
X158898263Y-76396503D01*
X159006482Y-76425500D01*
X159006484Y-76425500D01*
X159118516Y-76425500D01*
X159118518Y-76425500D01*
X159226737Y-76396503D01*
X159323763Y-76340485D01*
X159402985Y-76261263D01*
X159459003Y-76164237D01*
X159488000Y-76056018D01*
X159488000Y-75943982D01*
X159459003Y-75835763D01*
X159402985Y-75738737D01*
X159323763Y-75659515D01*
X159296860Y-75643982D01*
X159787000Y-75643982D01*
X159787000Y-75756018D01*
X159815997Y-75864237D01*
X159872015Y-75961263D01*
X159951237Y-76040485D01*
X160048263Y-76096503D01*
X160156482Y-76125500D01*
X160156484Y-76125500D01*
X160268516Y-76125500D01*
X160268518Y-76125500D01*
X160376737Y-76096503D01*
X160473763Y-76040485D01*
X160552985Y-75961263D01*
X160609003Y-75864237D01*
X160638000Y-75756018D01*
X160638000Y-75643982D01*
X160609003Y-75535763D01*
X160552985Y-75438737D01*
X160473763Y-75359515D01*
X160376737Y-75303497D01*
X160268518Y-75274500D01*
X160156482Y-75274500D01*
X160048263Y-75303497D01*
X160048260Y-75303498D01*
X159951240Y-75359513D01*
X159951234Y-75359517D01*
X159872017Y-75438734D01*
X159872013Y-75438740D01*
X159815998Y-75535760D01*
X159815997Y-75535763D01*
X159787000Y-75643982D01*
X159296860Y-75643982D01*
X159259079Y-75622169D01*
X159226739Y-75603498D01*
X159226738Y-75603497D01*
X159226737Y-75603497D01*
X159118518Y-75574500D01*
X159006482Y-75574500D01*
X158898263Y-75603497D01*
X158898260Y-75603498D01*
X158801240Y-75659513D01*
X158801234Y-75659517D01*
X158722017Y-75738734D01*
X158722013Y-75738740D01*
X158665998Y-75835760D01*
X158665997Y-75835762D01*
X158665997Y-75835763D01*
X158658367Y-75864239D01*
X158636747Y-75944925D01*
X158600381Y-76004585D01*
X158537534Y-76035113D01*
X158468158Y-76026818D01*
X158414281Y-75982332D01*
X158406487Y-75969124D01*
X158340580Y-75839773D01*
X158284199Y-75762172D01*
X158206379Y-75655063D01*
X158044937Y-75493621D01*
X157860228Y-75359421D01*
X157828475Y-75343242D01*
X157656803Y-75255770D01*
X157439660Y-75185215D01*
X157214162Y-75149500D01*
X157214157Y-75149500D01*
X156985843Y-75149500D01*
X156985838Y-75149500D01*
X156760339Y-75185215D01*
X156543196Y-75255770D01*
X156339771Y-75359421D01*
X156155061Y-75493622D01*
X155993622Y-75655061D01*
X155859421Y-75839771D01*
X155755770Y-76043196D01*
X155685215Y-76260339D01*
X155649500Y-76485837D01*
X142170971Y-76485837D01*
X142165925Y-76467007D01*
X142133012Y-76410000D01*
X143050000Y-76410000D01*
X143050000Y-75762172D01*
X143049999Y-75762155D01*
X143043598Y-75702627D01*
X143043596Y-75702620D01*
X142993354Y-75567913D01*
X142993350Y-75567906D01*
X142907190Y-75452812D01*
X142907187Y-75452809D01*
X142792093Y-75366649D01*
X142792086Y-75366645D01*
X142657379Y-75316403D01*
X142657372Y-75316401D01*
X142597844Y-75310000D01*
X141950000Y-75310000D01*
X141950000Y-76226988D01*
X141892993Y-76194075D01*
X141765826Y-76160000D01*
X141634174Y-76160000D01*
X141507007Y-76194075D01*
X141450000Y-76226988D01*
X141450000Y-75310000D01*
X140802155Y-75310000D01*
X140742627Y-75316401D01*
X140742620Y-75316403D01*
X140607913Y-75366645D01*
X140607906Y-75366649D01*
X140492812Y-75452809D01*
X140492809Y-75452812D01*
X140406649Y-75567906D01*
X140406645Y-75567913D01*
X140356403Y-75702619D01*
X140356401Y-75702626D01*
X140347497Y-75785444D01*
X140344434Y-75785114D01*
X140345336Y-75802094D01*
X140312356Y-75861195D01*
X139642962Y-76530590D01*
X139625925Y-76467007D01*
X139560099Y-76352993D01*
X139467007Y-76259901D01*
X139352993Y-76194075D01*
X139289409Y-76177037D01*
X139921716Y-75544728D01*
X139867550Y-75505375D01*
X139678217Y-75408904D01*
X139476129Y-75343242D01*
X139266246Y-75310000D01*
X139053754Y-75310000D01*
X138843872Y-75343242D01*
X138843869Y-75343242D01*
X138641782Y-75408904D01*
X138452439Y-75505380D01*
X138398282Y-75544727D01*
X138398282Y-75544728D01*
X139030591Y-76177037D01*
X138967007Y-76194075D01*
X138852993Y-76259901D01*
X138759901Y-76352993D01*
X138694075Y-76467007D01*
X138677037Y-76530591D01*
X138044728Y-75898282D01*
X138044727Y-75898282D01*
X138005380Y-75952439D01*
X137908904Y-76141782D01*
X137843242Y-76343869D01*
X137843242Y-76343872D01*
X137810000Y-76553753D01*
X133280501Y-76553753D01*
X133261263Y-76534515D01*
X133164237Y-76478497D01*
X133056018Y-76449500D01*
X132943982Y-76449500D01*
X132835763Y-76478497D01*
X132835760Y-76478498D01*
X132738740Y-76534513D01*
X132738734Y-76534517D01*
X132659517Y-76613734D01*
X132659513Y-76613740D01*
X132603498Y-76710760D01*
X132603497Y-76710763D01*
X132574500Y-76818982D01*
X131398581Y-76818982D01*
X131425500Y-76718518D01*
X131425500Y-76606482D01*
X131396503Y-76498263D01*
X131340485Y-76401237D01*
X131261263Y-76322015D01*
X131164237Y-76265997D01*
X131056018Y-76237000D01*
X130943982Y-76237000D01*
X130835763Y-76265997D01*
X130835760Y-76265998D01*
X130738740Y-76322013D01*
X130738734Y-76322017D01*
X130659517Y-76401234D01*
X130659513Y-76401240D01*
X130603498Y-76498260D01*
X130603497Y-76498263D01*
X130574500Y-76606482D01*
X126625500Y-76606482D01*
X126625500Y-70502706D01*
X126625618Y-70497297D01*
X126632601Y-70337351D01*
X126643813Y-70080542D01*
X126644752Y-70069813D01*
X126668832Y-69886911D01*
X129274500Y-69886911D01*
X129274500Y-70113088D01*
X129274501Y-70113104D01*
X129304023Y-70337347D01*
X129362567Y-70555834D01*
X129449120Y-70764794D01*
X129449127Y-70764809D01*
X129562220Y-70960692D01*
X129699915Y-71140140D01*
X129699921Y-71140147D01*
X129859852Y-71300078D01*
X129859859Y-71300084D01*
X130039307Y-71437779D01*
X130235190Y-71550872D01*
X130235205Y-71550879D01*
X130325259Y-71588180D01*
X130444166Y-71637433D01*
X130662649Y-71695976D01*
X130886905Y-71725500D01*
X130886912Y-71725500D01*
X131113088Y-71725500D01*
X131113095Y-71725500D01*
X131337351Y-71695976D01*
X131555834Y-71637433D01*
X131764806Y-71550874D01*
X131960693Y-71437779D01*
X132140142Y-71300083D01*
X132300083Y-71140142D01*
X132437779Y-70960693D01*
X132550874Y-70764806D01*
X132637433Y-70555834D01*
X132695976Y-70337351D01*
X132725500Y-70113095D01*
X132725500Y-69886911D01*
X136774500Y-69886911D01*
X136774500Y-70113088D01*
X136774501Y-70113104D01*
X136804023Y-70337347D01*
X136862567Y-70555834D01*
X136949120Y-70764794D01*
X136949127Y-70764809D01*
X137062220Y-70960692D01*
X137199915Y-71140140D01*
X137199921Y-71140147D01*
X137359852Y-71300078D01*
X137359859Y-71300084D01*
X137539307Y-71437779D01*
X137735190Y-71550872D01*
X137735205Y-71550879D01*
X137825259Y-71588180D01*
X137944166Y-71637433D01*
X138162649Y-71695976D01*
X138386905Y-71725500D01*
X138386912Y-71725500D01*
X138613088Y-71725500D01*
X138613095Y-71725500D01*
X138837351Y-71695976D01*
X139055834Y-71637433D01*
X139264806Y-71550874D01*
X139460693Y-71437779D01*
X139640142Y-71300083D01*
X139800083Y-71140142D01*
X139937779Y-70960693D01*
X140050874Y-70764806D01*
X140137433Y-70555834D01*
X140195976Y-70337351D01*
X140225500Y-70113095D01*
X140225500Y-69886905D01*
X140195976Y-69662649D01*
X140189079Y-69636911D01*
X191024500Y-69636911D01*
X191024500Y-69863088D01*
X191024501Y-69863104D01*
X191054023Y-70087347D01*
X191112567Y-70305834D01*
X191199120Y-70514794D01*
X191199127Y-70514809D01*
X191312220Y-70710692D01*
X191449915Y-70890140D01*
X191449921Y-70890147D01*
X191609852Y-71050078D01*
X191609859Y-71050084D01*
X191789307Y-71187779D01*
X191985190Y-71300872D01*
X191985205Y-71300879D01*
X192075259Y-71338180D01*
X192194166Y-71387433D01*
X192412649Y-71445976D01*
X192636905Y-71475500D01*
X192636912Y-71475500D01*
X192863088Y-71475500D01*
X192863095Y-71475500D01*
X193087351Y-71445976D01*
X193305834Y-71387433D01*
X193514806Y-71300874D01*
X193710693Y-71187779D01*
X193890142Y-71050083D01*
X194050083Y-70890142D01*
X194187779Y-70710693D01*
X194300874Y-70514806D01*
X194387433Y-70305834D01*
X194445976Y-70087351D01*
X194475500Y-69863095D01*
X194475500Y-69636905D01*
X194445976Y-69412649D01*
X194387433Y-69194166D01*
X194325225Y-69043982D01*
X194300879Y-68985205D01*
X194300872Y-68985190D01*
X194187779Y-68789307D01*
X194050084Y-68609859D01*
X194050078Y-68609852D01*
X193890147Y-68449921D01*
X193890140Y-68449915D01*
X193710692Y-68312220D01*
X193514809Y-68199127D01*
X193514794Y-68199120D01*
X193305834Y-68112567D01*
X193137856Y-68067557D01*
X193087351Y-68054024D01*
X193087350Y-68054023D01*
X193087347Y-68054023D01*
X192863104Y-68024501D01*
X192863101Y-68024500D01*
X192863095Y-68024500D01*
X192636905Y-68024500D01*
X192636899Y-68024500D01*
X192636895Y-68024501D01*
X192412652Y-68054023D01*
X192194165Y-68112567D01*
X191985205Y-68199120D01*
X191985190Y-68199127D01*
X191789307Y-68312220D01*
X191609859Y-68449915D01*
X191609852Y-68449921D01*
X191449921Y-68609852D01*
X191449915Y-68609859D01*
X191312220Y-68789307D01*
X191199127Y-68985190D01*
X191199120Y-68985205D01*
X191112567Y-69194165D01*
X191054023Y-69412652D01*
X191024501Y-69636895D01*
X191024500Y-69636911D01*
X140189079Y-69636911D01*
X140137433Y-69444166D01*
X140050874Y-69235194D01*
X140005162Y-69156018D01*
X139971582Y-69097855D01*
X139940478Y-69043982D01*
X168987000Y-69043982D01*
X168987000Y-69156018D01*
X169015997Y-69264237D01*
X169072015Y-69361263D01*
X169151237Y-69440485D01*
X169248263Y-69496503D01*
X169356482Y-69525500D01*
X169356484Y-69525500D01*
X169468516Y-69525500D01*
X169468518Y-69525500D01*
X169576737Y-69496503D01*
X169673763Y-69440485D01*
X169752985Y-69361263D01*
X169809003Y-69264237D01*
X169838000Y-69156018D01*
X169838000Y-69043982D01*
X169809003Y-68935763D01*
X169752985Y-68838737D01*
X169673763Y-68759515D01*
X169576737Y-68703497D01*
X169468518Y-68674500D01*
X169356482Y-68674500D01*
X169248263Y-68703497D01*
X169248260Y-68703498D01*
X169151240Y-68759513D01*
X169151234Y-68759517D01*
X169072017Y-68838734D01*
X169072013Y-68838740D01*
X169015998Y-68935760D01*
X169015997Y-68935763D01*
X168987000Y-69043982D01*
X139940478Y-69043982D01*
X139937779Y-69039307D01*
X139800084Y-68859859D01*
X139800078Y-68859852D01*
X139640147Y-68699921D01*
X139640140Y-68699915D01*
X139460692Y-68562220D01*
X139264809Y-68449127D01*
X139264794Y-68449120D01*
X139055834Y-68362567D01*
X138867942Y-68312221D01*
X138837351Y-68304024D01*
X138837350Y-68304023D01*
X138837347Y-68304023D01*
X138613104Y-68274501D01*
X138613101Y-68274500D01*
X138613095Y-68274500D01*
X138386905Y-68274500D01*
X138386899Y-68274500D01*
X138386895Y-68274501D01*
X138162652Y-68304023D01*
X137944165Y-68362567D01*
X137735205Y-68449120D01*
X137735190Y-68449127D01*
X137539307Y-68562220D01*
X137359859Y-68699915D01*
X137359852Y-68699921D01*
X137199921Y-68859852D01*
X137199915Y-68859859D01*
X137062220Y-69039307D01*
X136949127Y-69235190D01*
X136949120Y-69235205D01*
X136862567Y-69444165D01*
X136804023Y-69662652D01*
X136774501Y-69886895D01*
X136774500Y-69886911D01*
X132725500Y-69886911D01*
X132725500Y-69886905D01*
X132695976Y-69662649D01*
X132637433Y-69444166D01*
X132550874Y-69235194D01*
X132437779Y-69039307D01*
X132300083Y-68859858D01*
X132300078Y-68859852D01*
X132140147Y-68699921D01*
X132140140Y-68699915D01*
X131960692Y-68562220D01*
X131764809Y-68449127D01*
X131764794Y-68449120D01*
X131555834Y-68362567D01*
X131367942Y-68312221D01*
X131337351Y-68304024D01*
X131337350Y-68304023D01*
X131337347Y-68304023D01*
X131113104Y-68274501D01*
X131113101Y-68274500D01*
X131113095Y-68274500D01*
X130886905Y-68274500D01*
X130886899Y-68274500D01*
X130886895Y-68274501D01*
X130662652Y-68304023D01*
X130444165Y-68362567D01*
X130235205Y-68449120D01*
X130235190Y-68449127D01*
X130039307Y-68562220D01*
X129859859Y-68699915D01*
X129859852Y-68699921D01*
X129699921Y-68859852D01*
X129699915Y-68859859D01*
X129562220Y-69039307D01*
X129449127Y-69235190D01*
X129449120Y-69235205D01*
X129362567Y-69444165D01*
X129304023Y-69662652D01*
X129274501Y-69886895D01*
X129274500Y-69886911D01*
X126668832Y-69886911D01*
X126698848Y-69658914D01*
X126700722Y-69648284D01*
X126790426Y-69243657D01*
X126793224Y-69233219D01*
X126917845Y-68837970D01*
X126921532Y-68827838D01*
X127080138Y-68444930D01*
X127084696Y-68435156D01*
X127276062Y-68067545D01*
X127281457Y-68058200D01*
X127504143Y-67708653D01*
X127510333Y-67699813D01*
X127762629Y-67371015D01*
X127769567Y-67362746D01*
X128049560Y-67057188D01*
X128057188Y-67049560D01*
X128362746Y-66769567D01*
X128371015Y-66762629D01*
X128699813Y-66510333D01*
X128708653Y-66504143D01*
X129058200Y-66281457D01*
X129067545Y-66276062D01*
X129435156Y-66084696D01*
X129444930Y-66080138D01*
X129827838Y-65921532D01*
X129837970Y-65917845D01*
X130233228Y-65793221D01*
X130243657Y-65790426D01*
X130648284Y-65700722D01*
X130658910Y-65698849D01*
X131069813Y-65644752D01*
X131080542Y-65643813D01*
X131497297Y-65625617D01*
X131502706Y-65625500D01*
X131528644Y-65625500D01*
X192221356Y-65625500D01*
X192247294Y-65625500D01*
X192252702Y-65625617D01*
G37*
%TD.AperFunction*%
%TD*%
M02*
