%TF.GenerationSoftware,KiCad,Pcbnew,9.0.7+dfsg-1*%
%TF.CreationDate,2026-03-28T18:55:22+01:00*%
%TF.ProjectId,BACKPACK,4241434b-5041-4434-9b2e-6b696361645f,rev?*%
%TF.SameCoordinates,Original*%
%TF.FileFunction,Copper,L4,Bot*%
%TF.FilePolarity,Positive*%
%FSLAX46Y46*%
G04 Gerber Fmt 4.6, Leading zero omitted, Abs format (unit mm)*
G04 Created by KiCad (PCBNEW 9.0.7+dfsg-1) date 2026-03-28 18:55:22*
%MOMM*%
%LPD*%
G01*
G04 APERTURE LIST*
G04 Aperture macros list*
%AMRoundRect*
0 Rectangle with rounded corners*
0 $1 Rounding radius*
0 $2 $3 $4 $5 $6 $7 $8 $9 X,Y pos of 4 corners*
0 Add a 4 corners polygon primitive as box body*
4,1,4,$2,$3,$4,$5,$6,$7,$8,$9,$2,$3,0*
0 Add four circle primitives for the rounded corners*
1,1,$1+$1,$2,$3*
1,1,$1+$1,$4,$5*
1,1,$1+$1,$6,$7*
1,1,$1+$1,$8,$9*
0 Add four rect primitives between the rounded corners*
20,1,$1+$1,$2,$3,$4,$5,0*
20,1,$1+$1,$4,$5,$6,$7,0*
20,1,$1+$1,$6,$7,$8,$9,0*
20,1,$1+$1,$8,$9,$2,$3,0*%
G04 Aperture macros list end*
%TA.AperFunction,SMDPad,CuDef*%
%ADD10R,4.064000X1.524000*%
%TD*%
%TA.AperFunction,ComponentPad*%
%ADD11RoundRect,0.250000X0.725000X-0.600000X0.725000X0.600000X-0.725000X0.600000X-0.725000X-0.600000X0*%
%TD*%
%TA.AperFunction,ComponentPad*%
%ADD12O,1.950000X1.700000*%
%TD*%
%TA.AperFunction,ComponentPad*%
%ADD13R,1.700000X1.700000*%
%TD*%
%TA.AperFunction,ComponentPad*%
%ADD14C,1.700000*%
%TD*%
%TA.AperFunction,ComponentPad*%
%ADD15C,2.500000*%
%TD*%
%TA.AperFunction,SMDPad,CuDef*%
%ADD16R,1.600000X0.900000*%
%TD*%
%TA.AperFunction,SMDPad,CuDef*%
%ADD17C,1.000000*%
%TD*%
%TA.AperFunction,ViaPad*%
%ADD18C,0.450000*%
%TD*%
%TA.AperFunction,Conductor*%
%ADD19C,0.125000*%
%TD*%
%TA.AperFunction,Conductor*%
%ADD20C,0.150000*%
%TD*%
G04 APERTURE END LIST*
D10*
%TO.P,J4,2,Ext*%
%TO.N,GND*%
X129084000Y-96260000D03*
X129084000Y-101340000D03*
%TD*%
D11*
%TO.P,J2,1,Pin_1*%
%TO.N,/CPU_SWDCLK*%
X191875000Y-82200000D03*
D12*
%TO.P,J2,2,Pin_2*%
%TO.N,/CPU_SWDIO*%
X191875000Y-79700000D03*
%TO.P,J2,3,Pin_3*%
%TO.N,GND*%
X191875000Y-77200000D03*
%TD*%
D13*
%TO.P,J5,1,Pin_1*%
%TO.N,+3V3*%
X176990000Y-99440000D03*
D14*
%TO.P,J5,2,Pin_2*%
X174450000Y-99440000D03*
%TO.P,J5,3,Pin_3*%
%TO.N,/PWM4*%
X176990000Y-96900000D03*
%TO.P,J5,4,Pin_4*%
%TO.N,/PWM1*%
X174450000Y-96900000D03*
%TO.P,J5,5,Pin_5*%
%TO.N,/PWM2*%
X176990000Y-94360000D03*
%TO.P,J5,6,Pin_6*%
%TO.N,/PWM3*%
X174450000Y-94360000D03*
%TO.P,J5,7,Pin_7*%
%TO.N,GND*%
X176990000Y-91820000D03*
%TO.P,J5,8,Pin_8*%
%TO.N,/GPIO20*%
X174450000Y-91820000D03*
%TO.P,J5,9,Pin_9*%
%TO.N,/RX_GPS*%
X176990000Y-89280000D03*
%TO.P,J5,10,Pin_10*%
%TO.N,/TX_GPS*%
X174450000Y-89280000D03*
%TO.P,J5,11,Pin_11*%
%TO.N,HIL_TX*%
X176990000Y-86740000D03*
%TO.P,J5,12,Pin_12*%
%TO.N,HIL_RX*%
X174450000Y-86740000D03*
%TO.P,J5,13,Pin_13*%
%TO.N,GND*%
X176990000Y-84200000D03*
%TO.P,J5,14,Pin_14*%
X174450000Y-84200000D03*
%TO.P,J5,15,Pin_15*%
%TO.N,/SDA_RADIO*%
X176990000Y-81660000D03*
%TO.P,J5,16,Pin_16*%
%TO.N,/SCL_RADIO*%
X174450000Y-81660000D03*
%TD*%
D11*
%TO.P,J3,1,Pin_1*%
%TO.N,/SWDIO*%
X184700000Y-82200000D03*
D12*
%TO.P,J3,2,Pin_2*%
%TO.N,/SWCLK*%
X184700000Y-79700000D03*
%TO.P,J3,3,Pin_3*%
%TO.N,GND*%
X184700000Y-77200000D03*
%TD*%
D15*
%TO.P,ANT1,1,1*%
%TO.N,Net-(U9-RF_IN)*%
X157100000Y-76600000D03*
%TD*%
D11*
%TO.P,J7,1,Pin_1*%
%TO.N,/UART1_RX_RADIO*%
X191900000Y-93400000D03*
D12*
%TO.P,J7,2,Pin_2*%
%TO.N,/UART1_TX_RADIO*%
X191900000Y-90900000D03*
%TO.P,J7,3,Pin_3*%
%TO.N,GND*%
X191900000Y-88400000D03*
%TD*%
D13*
%TO.P,J6,1,Pin_1*%
%TO.N,+3V3*%
X141690000Y-99340000D03*
D14*
%TO.P,J6,2,Pin_2*%
X139150000Y-99340000D03*
%TO.P,J6,3,Pin_3*%
%TO.N,/CPU_SWDCLK*%
X141690000Y-96800000D03*
%TO.P,J6,4,Pin_4*%
%TO.N,PPS*%
X139150000Y-96800000D03*
%TO.P,J6,5,Pin_5*%
%TO.N,/CPU_SWDIO*%
X141690000Y-94260000D03*
%TO.P,J6,6,Pin_6*%
%TO.N,/BOOTSEL*%
X139150000Y-94260000D03*
%TO.P,J6,7,Pin_7*%
%TO.N,/GPIO39*%
X141690000Y-91720000D03*
%TO.P,J6,8,Pin_8*%
%TO.N,/RESET*%
X139150000Y-91720000D03*
%TO.P,J6,9,Pin_9*%
%TO.N,/GPIO41*%
X141690000Y-89180000D03*
%TO.P,J6,10,Pin_10*%
%TO.N,/GPIO42*%
X139150000Y-89180000D03*
%TO.P,J6,11,Pin_11*%
%TO.N,/GPIO43*%
X141690000Y-86640000D03*
%TO.P,J6,12,Pin_12*%
%TO.N,/GPIO44*%
X139150000Y-86640000D03*
%TO.P,J6,13,Pin_13*%
%TO.N,/GPIO46*%
X141690000Y-84100000D03*
%TO.P,J6,14,Pin_14*%
%TO.N,/GPIO45*%
X139150000Y-84100000D03*
%TO.P,J6,15,Pin_15*%
%TO.N,GND*%
X141690000Y-81560000D03*
%TO.P,J6,16,Pin_16*%
X139150000Y-81560000D03*
%TD*%
D11*
%TO.P,J1,1,Pin_1*%
%TO.N,HIL_TX*%
X184700000Y-93400000D03*
D12*
%TO.P,J1,2,Pin_2*%
%TO.N,HIL_RX*%
X184700000Y-90900000D03*
%TO.P,J1,3,Pin_3*%
%TO.N,GND*%
X184700000Y-88400000D03*
%TD*%
D16*
%TO.P,U9,1,GND*%
%TO.N,GND*%
X169412500Y-69100000D03*
%TO.P,U9,2,UART-TX*%
%TO.N,/TX_GPS*%
X169412500Y-70200000D03*
%TO.P,U9,3,UART-RX*%
%TO.N,/RX_GPS*%
X169412500Y-71300000D03*
%TO.P,U9,4,PPS*%
%TO.N,PPS*%
X169412500Y-72400000D03*
%TO.P,U9,5,WAKEUP*%
%TO.N,unconnected-(U9-WAKEUP-Pad5)*%
X169412500Y-73500000D03*
%TO.P,U9,6,VBAT*%
%TO.N,Net-(BT1-+)*%
X169412500Y-74600000D03*
%TO.P,U9,7,RESERVED*%
%TO.N,unconnected-(U9-RESERVED-Pad7)*%
X169412500Y-75700000D03*
%TO.P,U9,8,VCC*%
%TO.N,+3V3*%
X169412500Y-76800000D03*
%TO.P,U9,9,~{RESET}*%
%TO.N,unconnected-(U9-~{RESET}-Pad9)*%
X169412500Y-77900000D03*
%TO.P,U9,10,GND_RF*%
%TO.N,GND*%
X160212500Y-77900000D03*
%TO.P,U9,11,RF_IN*%
%TO.N,Net-(U9-RF_IN)*%
X160212500Y-76800000D03*
%TO.P,U9,12,GND_RF__1*%
%TO.N,GND*%
X160212500Y-75700000D03*
%TO.P,U9,13,RESERVED__1*%
%TO.N,unconnected-(U9-RESERVED__1-Pad13)*%
X160212500Y-74600000D03*
%TO.P,U9,14,VCC_RF*%
%TO.N,unconnected-(U9-VCC_RF-Pad14)*%
X160212500Y-73500000D03*
%TO.P,U9,15,RESERVED__2*%
%TO.N,unconnected-(U9-RESERVED__2-Pad15)*%
X160212500Y-72400000D03*
%TO.P,U9,16,I2C_SDA*%
%TO.N,/SDA_RADIO*%
X160212500Y-71300000D03*
%TO.P,U9,17,I2C_SCL*%
%TO.N,/SCL_RADIO*%
X160212500Y-70200000D03*
%TO.P,U9,18,PRG*%
%TO.N,Net-(U9-PRG)*%
X160212500Y-69100000D03*
%TD*%
D17*
%TO.P,TP1,1,1*%
%TO.N,Net-(U9-PRG)*%
X157325000Y-69100000D03*
%TD*%
D18*
%TO.N,GND*%
X131100000Y-99800000D03*
X132100000Y-99800000D03*
X131100000Y-97800000D03*
X132100000Y-97800000D03*
X142859889Y-103983847D03*
X142040424Y-103382906D03*
X141220960Y-102781966D03*
X140401495Y-102181025D03*
X139582031Y-101580084D03*
X138762566Y-100979144D03*
X137943102Y-100378203D03*
X137123637Y-99777262D03*
X143679354Y-104584788D03*
X136304173Y-99176322D03*
X135940909Y-101390072D03*
X136760374Y-101991013D03*
X137579838Y-102591954D03*
X138399303Y-103192894D03*
X139218767Y-103793835D03*
X140038232Y-104394776D03*
X140857696Y-104995716D03*
X141677161Y-105596657D03*
X135121445Y-100789132D03*
X142496626Y-106197598D03*
X146475000Y-107500000D03*
X148350000Y-107500000D03*
X148350000Y-105500000D03*
X146475000Y-105500000D03*
X145491931Y-105395665D03*
X144533804Y-105082002D03*
X146494771Y-105500195D03*
X143663294Y-104573253D03*
X143409714Y-106761043D03*
X144381933Y-107166113D03*
X145405479Y-107414397D03*
X142512686Y-106209133D03*
X146455227Y-107499805D03*
X135339763Y-98581150D03*
X134311861Y-98152835D03*
X133229667Y-97890367D03*
X136288115Y-99164789D03*
X132119769Y-97800195D03*
X133162993Y-99912859D03*
X134197501Y-100251527D03*
X132080231Y-99799805D03*
X135137503Y-100800665D03*
X166770000Y-97022500D03*
X159062500Y-76000000D03*
X129100000Y-76900000D03*
X169412500Y-69100000D03*
X165220000Y-97032500D03*
X159062500Y-77750000D03*
X129084000Y-101340000D03*
X174050000Y-109487500D03*
X129109400Y-96691800D03*
X160212500Y-75700000D03*
X131000000Y-76662500D03*
X171050000Y-109487500D03*
X156249999Y-93600001D03*
X183750000Y-97657500D03*
X168050000Y-109487500D03*
X160212500Y-77900000D03*
X146709940Y-103864820D03*
X163150000Y-105500002D03*
%TO.N,Net-(BT1-+)*%
X172000000Y-95000000D03*
%TO.N,+3V3*%
X174606377Y-99795718D03*
X169412500Y-76800000D03*
X165220000Y-95307500D03*
X166770000Y-95297500D03*
X182160000Y-97620000D03*
%TO.N,/L_BLUE*%
X158820285Y-96990285D03*
X157710000Y-95870000D03*
%TO.N,Net-(U9-RF_IN)*%
X160212500Y-76800000D03*
%TO.N,/TX_GPS*%
X164860000Y-100400000D03*
X159270000Y-100400000D03*
%TO.N,/SDA_RADIO*%
X163587500Y-80312500D03*
X150600000Y-102800000D03*
%TO.N,PPS*%
X146135831Y-79235831D03*
%TO.N,/SCL_RADIO*%
X167600000Y-93400000D03*
X164800000Y-93400000D03*
X148350000Y-103500001D03*
%TO.N,/RX_GPS*%
X157680000Y-100900000D03*
X165360000Y-100900000D03*
%TO.N,unconnected-(U10-PA7{slash}SPI1_MOSI-Pad13)*%
X156249999Y-108900001D03*
%TO.N,/UART1_TX_RADIO*%
X160100000Y-101400000D03*
%TO.N,/UART1_RX_RADIO*%
X158790000Y-101900000D03*
%TO.N,/SWCLK*%
X165200000Y-102787500D03*
X158780000Y-103100000D03*
X167800000Y-100850000D03*
%TO.N,/SWDIO*%
X168660000Y-102630000D03*
X170950000Y-100600000D03*
X160670000Y-102500000D03*
%TO.N,HIL_TX*%
X179300000Y-88900000D03*
%TO.N,HIL_RX*%
X179300000Y-88100000D03*
%TO.N,/CPU_SWDCLK*%
X154600000Y-67600000D03*
%TO.N,/CPU_SWDIO*%
X155715000Y-67665000D03*
%TD*%
D19*
%TO.N,Net-(BT1-+)*%
X170900000Y-74600000D02*
X175700000Y-79400000D01*
X175700000Y-79400000D02*
X175700000Y-82400000D01*
X175200000Y-82900000D02*
X173400000Y-82900000D01*
X175700000Y-82400000D02*
X175200000Y-82900000D01*
X173400000Y-82900000D02*
X172000000Y-84300000D01*
X172000000Y-84300000D02*
X172000000Y-95000000D01*
X169412500Y-74600000D02*
X170900000Y-74600000D01*
%TO.N,/L_BLUE*%
X157710000Y-95880000D02*
X157710000Y-95870000D01*
X158820285Y-96990285D02*
X157710000Y-95880000D01*
%TO.N,Net-(U9-PRG)*%
X160212500Y-69100000D02*
X157325000Y-69100000D01*
D20*
%TO.N,/TX_GPS*%
X169412500Y-70200000D02*
X170362500Y-70200000D01*
X178700000Y-89600000D02*
X177800000Y-90500000D01*
X170362500Y-70200000D02*
X178700000Y-78537500D01*
X178700000Y-78537500D02*
X178700000Y-89600000D01*
X177800000Y-90500000D02*
X175670000Y-90500000D01*
X175670000Y-90500000D02*
X174450000Y-89280000D01*
D19*
X159270000Y-100400000D02*
X164860000Y-100400000D01*
%TO.N,/SDA_RADIO*%
X163587500Y-80312500D02*
X164500000Y-81225000D01*
X160212500Y-71300000D02*
X161137500Y-71300000D01*
X161137500Y-71300000D02*
X163562500Y-73725000D01*
X163562500Y-80287500D02*
X163587500Y-80312500D01*
X164500000Y-81225000D02*
X164500000Y-92000000D01*
X150600000Y-102800000D02*
X153700000Y-102800000D01*
X153700000Y-102800000D02*
X164500000Y-92000000D01*
X163562500Y-73725000D02*
X163562500Y-80287500D01*
%TO.N,PPS*%
X156400000Y-68000000D02*
X146135831Y-78264169D01*
X166500000Y-72400000D02*
X162100000Y-68000000D01*
X169412500Y-72400000D02*
X166500000Y-72400000D01*
X162100000Y-68000000D02*
X156400000Y-68000000D01*
X146135831Y-78264169D02*
X146135831Y-79235831D01*
%TO.N,/SCL_RADIO*%
X164062500Y-79687500D02*
X165000000Y-80625000D01*
X154015702Y-103500000D02*
X148350001Y-103500000D01*
X161137500Y-70200000D02*
X164062500Y-73125000D01*
X164115702Y-93400000D02*
X154015702Y-103500000D01*
X164062500Y-73125000D02*
X164062500Y-79687500D01*
X165000000Y-93200000D02*
X165000000Y-80625000D01*
X148350001Y-103500000D02*
X148350000Y-103500001D01*
X164800000Y-93400000D02*
X164115702Y-93400000D01*
X160212500Y-70200000D02*
X161137500Y-70200000D01*
X173415000Y-80625000D02*
X174450000Y-81660000D01*
X165000000Y-80625000D02*
X173415000Y-80625000D01*
X164800000Y-93400000D02*
X165000000Y-93200000D01*
D20*
%TO.N,/RX_GPS*%
X178300000Y-79237500D02*
X178300000Y-87970000D01*
X170362500Y-71300000D02*
X178300000Y-79237500D01*
X178300000Y-87970000D02*
X176990000Y-89280000D01*
X169412500Y-71300000D02*
X170362500Y-71300000D01*
D19*
X157680000Y-100900000D02*
X165360000Y-100900000D01*
%TO.N,/UART1_TX_RADIO*%
X160474878Y-101600000D02*
X181200000Y-101600000D01*
X160262500Y-101562500D02*
X160437378Y-101562500D01*
X181200000Y-101600000D02*
X191900000Y-90900000D01*
X160100000Y-101400000D02*
X160262500Y-101562500D01*
X160437378Y-101562500D02*
X160474878Y-101600000D01*
%TO.N,/UART1_RX_RADIO*%
X182330000Y-102100000D02*
X191030000Y-93400000D01*
X159500000Y-101900000D02*
X159519750Y-101880250D01*
X160446500Y-102032656D02*
X160467656Y-102011500D01*
X166922534Y-101974000D02*
X167048534Y-102100000D01*
X164638966Y-102100000D02*
X164764966Y-101974000D01*
X160467656Y-102011500D02*
X160872344Y-102011500D01*
X164764966Y-101974000D02*
X166922534Y-101974000D01*
X159889406Y-101880250D02*
X159897656Y-101888500D01*
X159519750Y-101880250D02*
X159889406Y-101880250D01*
X160302344Y-101888500D02*
X160446500Y-102032656D01*
X160872344Y-102011500D02*
X160960844Y-102100000D01*
X167048534Y-102100000D02*
X182330000Y-102100000D01*
X160960844Y-102100000D02*
X164638966Y-102100000D01*
X159897656Y-101888500D02*
X160302344Y-101888500D01*
X191030000Y-93400000D02*
X191900000Y-93400000D01*
X158790000Y-101900000D02*
X159500000Y-101900000D01*
%TO.N,/SWCLK*%
X158780000Y-103100000D02*
X164900000Y-103100000D01*
D20*
X168300000Y-101100000D02*
X181221288Y-101100000D01*
X167800000Y-100850000D02*
X168050000Y-100850000D01*
D19*
X164900000Y-103100000D02*
X165200000Y-102800000D01*
D20*
X181221288Y-101100000D02*
X186863500Y-95457788D01*
X168050000Y-100850000D02*
X168300000Y-101100000D01*
X186863500Y-81863500D02*
X184700000Y-79700000D01*
X186863500Y-95457788D02*
X186863500Y-81863500D01*
D19*
%TO.N,/SWDIO*%
X182362344Y-98108500D02*
X182648500Y-97822344D01*
X186525000Y-93925000D02*
X186525000Y-84025000D01*
X182648500Y-97801500D02*
X186525000Y-93925000D01*
X186525000Y-84025000D02*
X184700000Y-82200000D01*
X168660000Y-102630000D02*
X167117500Y-102630000D01*
X179688500Y-100761500D02*
X182341500Y-98108500D01*
X172861500Y-100761500D02*
X179688500Y-100761500D01*
X166787500Y-102300000D02*
X164900000Y-102300000D01*
X182341500Y-98108500D02*
X182362344Y-98108500D01*
X170950000Y-100600000D02*
X172700000Y-100600000D01*
X164700000Y-102500000D02*
X160670000Y-102500000D01*
X164900000Y-102300000D02*
X164700000Y-102500000D01*
X182648500Y-97822344D02*
X182648500Y-97801500D01*
X167117500Y-102630000D02*
X166787500Y-102300000D01*
X172700000Y-100600000D02*
X172861500Y-100761500D01*
%TO.N,HIL_TX*%
X183800000Y-93400000D02*
X184700000Y-93400000D01*
X179300000Y-88900000D02*
X183800000Y-93400000D01*
%TO.N,HIL_RX*%
X182100000Y-90900000D02*
X184700000Y-90900000D01*
X179300000Y-88100000D02*
X182100000Y-90900000D01*
%TO.N,/CPU_SWDCLK*%
X154600000Y-67600000D02*
X155400000Y-66800000D01*
X193100000Y-82200000D02*
X191875000Y-82200000D01*
X155400000Y-66800000D02*
X177675000Y-66800000D01*
X193350000Y-79075000D02*
X193350000Y-81950000D01*
X192825000Y-78550000D02*
X193350000Y-79075000D01*
X189425000Y-78550000D02*
X192825000Y-78550000D01*
X193350000Y-81950000D02*
X193100000Y-82200000D01*
X177675000Y-66800000D02*
X189425000Y-78550000D01*
%TO.N,/CPU_SWDIO*%
X178075000Y-67725000D02*
X190050000Y-79700000D01*
X190050000Y-79700000D02*
X191875000Y-79700000D01*
X155715000Y-67665000D02*
X155724000Y-67674000D01*
X162286034Y-67725000D02*
X178075000Y-67725000D01*
X162235034Y-67674000D02*
X162286034Y-67725000D01*
X155724000Y-67674000D02*
X162235034Y-67674000D01*
%TD*%
M02*
