%TF.GenerationSoftware,KiCad,Pcbnew,9.0.7+dfsg-1*%
%TF.CreationDate,2026-03-28T18:55:22+01:00*%
%TF.ProjectId,BACKPACK,4241434b-5041-4434-9b2e-6b696361645f,rev?*%
%TF.SameCoordinates,Original*%
%TF.FileFunction,Copper,L2,Inr*%
%TF.FilePolarity,Positive*%
%FSLAX46Y46*%
G04 Gerber Fmt 4.6, Leading zero omitted, Abs format (unit mm)*
G04 Created by KiCad (PCBNEW 9.0.7+dfsg-1) date 2026-03-28 18:55:22*
%MOMM*%
%LPD*%
G01*
G04 APERTURE LIST*
G04 Aperture macros list*
%AMRoundRect*
0 Rectangle with rounded corners*
0 $1 Rounding radius*
0 $2 $3 $4 $5 $6 $7 $8 $9 X,Y pos of 4 corners*
0 Add a 4 corners polygon primitive as box body*
4,1,4,$2,$3,$4,$5,$6,$7,$8,$9,$2,$3,0*
0 Add four circle primitives for the rounded corners*
1,1,$1+$1,$2,$3*
1,1,$1+$1,$4,$5*
1,1,$1+$1,$6,$7*
1,1,$1+$1,$8,$9*
0 Add four rect primitives between the rounded corners*
20,1,$1+$1,$2,$3,$4,$5,0*
20,1,$1+$1,$4,$5,$6,$7,0*
20,1,$1+$1,$6,$7,$8,$9,0*
20,1,$1+$1,$8,$9,$2,$3,0*%
G04 Aperture macros list end*
%TA.AperFunction,ComponentPad*%
%ADD10RoundRect,0.250000X0.725000X-0.600000X0.725000X0.600000X-0.725000X0.600000X-0.725000X-0.600000X0*%
%TD*%
%TA.AperFunction,ComponentPad*%
%ADD11O,1.950000X1.700000*%
%TD*%
%TA.AperFunction,ComponentPad*%
%ADD12R,1.700000X1.700000*%
%TD*%
%TA.AperFunction,ComponentPad*%
%ADD13C,1.700000*%
%TD*%
%TA.AperFunction,ComponentPad*%
%ADD14C,2.500000*%
%TD*%
%TA.AperFunction,ViaPad*%
%ADD15C,0.450000*%
%TD*%
G04 APERTURE END LIST*
D10*
%TO.N,/CPU_SWDCLK*%
%TO.C,J2*%
X191875000Y-82200000D03*
D11*
%TO.N,/CPU_SWDIO*%
X191875000Y-79700000D03*
%TO.N,GND*%
X191875000Y-77200000D03*
%TD*%
D12*
%TO.N,+3V3*%
%TO.C,J5*%
X176990000Y-99440000D03*
D13*
X174450000Y-99440000D03*
%TO.N,/PWM4*%
X176990000Y-96900000D03*
%TO.N,/PWM1*%
X174450000Y-96900000D03*
%TO.N,/PWM2*%
X176990000Y-94360000D03*
%TO.N,/PWM3*%
X174450000Y-94360000D03*
%TO.N,GND*%
X176990000Y-91820000D03*
%TO.N,/GPIO20*%
X174450000Y-91820000D03*
%TO.N,/RX_GPS*%
X176990000Y-89280000D03*
%TO.N,/TX_GPS*%
X174450000Y-89280000D03*
%TO.N,HIL_TX*%
X176990000Y-86740000D03*
%TO.N,HIL_RX*%
X174450000Y-86740000D03*
%TO.N,GND*%
X176990000Y-84200000D03*
X174450000Y-84200000D03*
%TO.N,/SDA_RADIO*%
X176990000Y-81660000D03*
%TO.N,/SCL_RADIO*%
X174450000Y-81660000D03*
%TD*%
D10*
%TO.N,/SWDIO*%
%TO.C,J3*%
X184700000Y-82200000D03*
D11*
%TO.N,/SWCLK*%
X184700000Y-79700000D03*
%TO.N,GND*%
X184700000Y-77200000D03*
%TD*%
D14*
%TO.N,Net-(U9-RF_IN)*%
%TO.C,ANT1*%
X157100000Y-76600000D03*
%TD*%
D10*
%TO.N,/UART1_RX_RADIO*%
%TO.C,J7*%
X191900000Y-93400000D03*
D11*
%TO.N,/UART1_TX_RADIO*%
X191900000Y-90900000D03*
%TO.N,GND*%
X191900000Y-88400000D03*
%TD*%
D12*
%TO.N,+3V3*%
%TO.C,J6*%
X141690000Y-99340000D03*
D13*
X139150000Y-99340000D03*
%TO.N,/CPU_SWDCLK*%
X141690000Y-96800000D03*
%TO.N,PPS*%
X139150000Y-96800000D03*
%TO.N,/CPU_SWDIO*%
X141690000Y-94260000D03*
%TO.N,/BOOTSEL*%
X139150000Y-94260000D03*
%TO.N,/GPIO39*%
X141690000Y-91720000D03*
%TO.N,/RESET*%
X139150000Y-91720000D03*
%TO.N,/GPIO41*%
X141690000Y-89180000D03*
%TO.N,/GPIO42*%
X139150000Y-89180000D03*
%TO.N,/GPIO43*%
X141690000Y-86640000D03*
%TO.N,/GPIO44*%
X139150000Y-86640000D03*
%TO.N,/GPIO46*%
X141690000Y-84100000D03*
%TO.N,/GPIO45*%
X139150000Y-84100000D03*
%TO.N,GND*%
X141690000Y-81560000D03*
X139150000Y-81560000D03*
%TD*%
D10*
%TO.N,HIL_TX*%
%TO.C,J1*%
X184700000Y-93400000D03*
D11*
%TO.N,HIL_RX*%
X184700000Y-90900000D03*
%TO.N,GND*%
X184700000Y-88400000D03*
%TD*%
D15*
%TO.N,GND*%
X131100000Y-99800000D03*
X132100000Y-99800000D03*
X131100000Y-97800000D03*
X132100000Y-97800000D03*
X142859889Y-103983847D03*
X142040424Y-103382906D03*
X141220960Y-102781966D03*
X140401495Y-102181025D03*
X139582031Y-101580084D03*
X138762566Y-100979144D03*
X137943102Y-100378203D03*
X137123637Y-99777262D03*
X143679354Y-104584788D03*
X136304173Y-99176322D03*
X135940909Y-101390072D03*
X136760374Y-101991013D03*
X137579838Y-102591954D03*
X138399303Y-103192894D03*
X139218767Y-103793835D03*
X140038232Y-104394776D03*
X140857696Y-104995716D03*
X141677161Y-105596657D03*
X135121445Y-100789132D03*
X142496626Y-106197598D03*
X146475000Y-107500000D03*
X148350000Y-107500000D03*
X148350000Y-105500000D03*
X146475000Y-105500000D03*
X145491931Y-105395665D03*
X144533804Y-105082002D03*
X146494771Y-105500195D03*
X143663294Y-104573253D03*
X143409714Y-106761043D03*
X144381933Y-107166113D03*
X145405479Y-107414397D03*
X142512686Y-106209133D03*
X146455227Y-107499805D03*
X135339763Y-98581150D03*
X134311861Y-98152835D03*
X133229667Y-97890367D03*
X136288115Y-99164789D03*
X132119769Y-97800195D03*
X133162993Y-99912859D03*
X134197501Y-100251527D03*
X132080231Y-99799805D03*
X135137503Y-100800665D03*
X166770000Y-97022500D03*
X159062500Y-76000000D03*
X129100000Y-76900000D03*
X169412500Y-69100000D03*
X165220000Y-97032500D03*
X159062500Y-77750000D03*
X129084000Y-101340000D03*
X174050000Y-109487500D03*
X129109400Y-96691800D03*
X160212500Y-75700000D03*
X131000000Y-76662500D03*
X171050000Y-109487500D03*
X156249999Y-93600001D03*
X183750000Y-97657500D03*
X168050000Y-109487500D03*
X160212500Y-77900000D03*
X146709940Y-103864820D03*
X163150000Y-105500002D03*
%TO.N,Net-(BT1-+)*%
X172000000Y-95000000D03*
%TO.N,+3V3*%
X174606377Y-99795718D03*
X169412500Y-76800000D03*
X165220000Y-95307500D03*
X166770000Y-95297500D03*
X182160000Y-97620000D03*
%TO.N,/L_BLUE*%
X158820285Y-96990285D03*
X157710000Y-95870000D03*
%TO.N,Net-(U9-RF_IN)*%
X160212500Y-76800000D03*
%TO.N,/TX_GPS*%
X164860000Y-100400000D03*
X159270000Y-100400000D03*
%TO.N,/SDA_RADIO*%
X163587500Y-80312500D03*
X150600000Y-102800000D03*
%TO.N,PPS*%
X146135831Y-79235831D03*
%TO.N,/SCL_RADIO*%
X167600000Y-93400000D03*
X164800000Y-93400000D03*
X148350000Y-103500001D03*
%TO.N,/RX_GPS*%
X157680000Y-100900000D03*
X165360000Y-100900000D03*
%TO.N,unconnected-(U10-PA7{slash}SPI1_MOSI-Pad13)*%
X156249999Y-108900001D03*
%TO.N,/UART1_TX_RADIO*%
X160100000Y-101400000D03*
%TO.N,/UART1_RX_RADIO*%
X158790000Y-101900000D03*
%TO.N,/SWCLK*%
X165200000Y-102787500D03*
X158780000Y-103100000D03*
X167800000Y-100850000D03*
%TO.N,/SWDIO*%
X168660000Y-102630000D03*
X170950000Y-100600000D03*
X160670000Y-102500000D03*
%TO.N,HIL_TX*%
X179300000Y-88900000D03*
%TO.N,HIL_RX*%
X179300000Y-88100000D03*
%TO.N,/CPU_SWDCLK*%
X154600000Y-67600000D03*
%TO.N,/CPU_SWDIO*%
X155715000Y-67665000D03*
%TD*%
%TA.AperFunction,Conductor*%
%TO.N,GND*%
G36*
X192252702Y-65625617D02*
G01*
X192669455Y-65643813D01*
X192680188Y-65644753D01*
X193091085Y-65698848D01*
X193101719Y-65700723D01*
X193506336Y-65790425D01*
X193516777Y-65793223D01*
X193912022Y-65917842D01*
X193922168Y-65921535D01*
X194305060Y-66080135D01*
X194314852Y-66084701D01*
X194331092Y-66093155D01*
X194682442Y-66276056D01*
X194691810Y-66281464D01*
X195041335Y-66504136D01*
X195050196Y-66510341D01*
X195378975Y-66762622D01*
X195387262Y-66769576D01*
X195692800Y-67049550D01*
X195700449Y-67057199D01*
X195980423Y-67362737D01*
X195987377Y-67371024D01*
X196239658Y-67699803D01*
X196245863Y-67708664D01*
X196468535Y-68058189D01*
X196473943Y-68067557D01*
X196665295Y-68435141D01*
X196669867Y-68444945D01*
X196828460Y-68827821D01*
X196832160Y-68837987D01*
X196956775Y-69233219D01*
X196959575Y-69243667D01*
X197049274Y-69648272D01*
X197051152Y-69658925D01*
X197105244Y-70069788D01*
X197106187Y-70080565D01*
X197124382Y-70497297D01*
X197124500Y-70502706D01*
X197124500Y-105497293D01*
X197124382Y-105502702D01*
X197106187Y-105919434D01*
X197105244Y-105930211D01*
X197051152Y-106341074D01*
X197049274Y-106351727D01*
X196959575Y-106756332D01*
X196956775Y-106766780D01*
X196832160Y-107162012D01*
X196828460Y-107172178D01*
X196669867Y-107555054D01*
X196665295Y-107564858D01*
X196473943Y-107932442D01*
X196468535Y-107941810D01*
X196245863Y-108291335D01*
X196239658Y-108300196D01*
X195987377Y-108628975D01*
X195980423Y-108637262D01*
X195700449Y-108942800D01*
X195692800Y-108950449D01*
X195387262Y-109230423D01*
X195378975Y-109237377D01*
X195050196Y-109489658D01*
X195041335Y-109495863D01*
X194691810Y-109718535D01*
X194682442Y-109723943D01*
X194314858Y-109915295D01*
X194305054Y-109919867D01*
X193922178Y-110078460D01*
X193912012Y-110082160D01*
X193516780Y-110206775D01*
X193506332Y-110209575D01*
X193101727Y-110299274D01*
X193091074Y-110301152D01*
X192680211Y-110355244D01*
X192669434Y-110356187D01*
X192252703Y-110374382D01*
X192247294Y-110374500D01*
X131502706Y-110374500D01*
X131497297Y-110374382D01*
X131080565Y-110356187D01*
X131069790Y-110355244D01*
X130976056Y-110342903D01*
X130658925Y-110301152D01*
X130648272Y-110299274D01*
X130243667Y-110209575D01*
X130233219Y-110206775D01*
X129837987Y-110082160D01*
X129827821Y-110078460D01*
X129444945Y-109919867D01*
X129435141Y-109915295D01*
X129067557Y-109723943D01*
X129058189Y-109718535D01*
X128708664Y-109495863D01*
X128699803Y-109489658D01*
X128371024Y-109237377D01*
X128362737Y-109230423D01*
X128057199Y-108950449D01*
X128049560Y-108942811D01*
X127959001Y-108843983D01*
X155824499Y-108843983D01*
X155824499Y-108956019D01*
X155853496Y-109064238D01*
X155909514Y-109161264D01*
X155988736Y-109240486D01*
X156085762Y-109296504D01*
X156193981Y-109325501D01*
X156193983Y-109325501D01*
X156306015Y-109325501D01*
X156306017Y-109325501D01*
X156414236Y-109296504D01*
X156511262Y-109240486D01*
X156590484Y-109161264D01*
X156646502Y-109064238D01*
X156675499Y-108956019D01*
X156675499Y-108843983D01*
X156646502Y-108735764D01*
X156590484Y-108638738D01*
X156511262Y-108559516D01*
X156414236Y-108503498D01*
X156306017Y-108474501D01*
X156193981Y-108474501D01*
X156085762Y-108503498D01*
X156085759Y-108503499D01*
X155988739Y-108559514D01*
X155988733Y-108559518D01*
X155909516Y-108638735D01*
X155909512Y-108638741D01*
X155853497Y-108735761D01*
X155853496Y-108735764D01*
X155824499Y-108843983D01*
X127959001Y-108843983D01*
X127770931Y-108638741D01*
X127769576Y-108637262D01*
X127762622Y-108628975D01*
X127510341Y-108300196D01*
X127504136Y-108291335D01*
X127281464Y-107941810D01*
X127276056Y-107932442D01*
X127084704Y-107564858D01*
X127080132Y-107555054D01*
X127031555Y-107437779D01*
X126921535Y-107172168D01*
X126917839Y-107162012D01*
X126910945Y-107140147D01*
X126793223Y-106766777D01*
X126790424Y-106756332D01*
X126745975Y-106555834D01*
X126700723Y-106351719D01*
X126698847Y-106341074D01*
X126698357Y-106337351D01*
X126644753Y-105930188D01*
X126643813Y-105919453D01*
X126642392Y-105886911D01*
X129274500Y-105886911D01*
X129274500Y-106113088D01*
X129274501Y-106113104D01*
X129304023Y-106337347D01*
X129362567Y-106555834D01*
X129449120Y-106764794D01*
X129449127Y-106764809D01*
X129562220Y-106960692D01*
X129699915Y-107140140D01*
X129699921Y-107140147D01*
X129859852Y-107300078D01*
X129859859Y-107300084D01*
X130039307Y-107437779D01*
X130235190Y-107550872D01*
X130235205Y-107550879D01*
X130268954Y-107564858D01*
X130444166Y-107637433D01*
X130662649Y-107695976D01*
X130886905Y-107725500D01*
X130886912Y-107725500D01*
X131113088Y-107725500D01*
X131113095Y-107725500D01*
X131337351Y-107695976D01*
X131555834Y-107637433D01*
X131764806Y-107550874D01*
X131960693Y-107437779D01*
X132140142Y-107300083D01*
X132300083Y-107140142D01*
X132437779Y-106960693D01*
X132550874Y-106764806D01*
X132637433Y-106555834D01*
X132695976Y-106337351D01*
X132725500Y-106113095D01*
X132725500Y-105886911D01*
X136274500Y-105886911D01*
X136274500Y-106113088D01*
X136274501Y-106113104D01*
X136304023Y-106337347D01*
X136362567Y-106555834D01*
X136449120Y-106764794D01*
X136449127Y-106764809D01*
X136562220Y-106960692D01*
X136699915Y-107140140D01*
X136699921Y-107140147D01*
X136859852Y-107300078D01*
X136859859Y-107300084D01*
X137039307Y-107437779D01*
X137235190Y-107550872D01*
X137235205Y-107550879D01*
X137268954Y-107564858D01*
X137444166Y-107637433D01*
X137662649Y-107695976D01*
X137886905Y-107725500D01*
X137886912Y-107725500D01*
X138113088Y-107725500D01*
X138113095Y-107725500D01*
X138337351Y-107695976D01*
X138555834Y-107637433D01*
X138764806Y-107550874D01*
X138960693Y-107437779D01*
X139140142Y-107300083D01*
X139300083Y-107140142D01*
X139437779Y-106960693D01*
X139550874Y-106764806D01*
X139637433Y-106555834D01*
X139695976Y-106337351D01*
X139725500Y-106113095D01*
X139725500Y-105886911D01*
X190274500Y-105886911D01*
X190274500Y-106113088D01*
X190274501Y-106113104D01*
X190304023Y-106337347D01*
X190362567Y-106555834D01*
X190449120Y-106764794D01*
X190449127Y-106764809D01*
X190562220Y-106960692D01*
X190699915Y-107140140D01*
X190699921Y-107140147D01*
X190859852Y-107300078D01*
X190859859Y-107300084D01*
X191039307Y-107437779D01*
X191235190Y-107550872D01*
X191235205Y-107550879D01*
X191268954Y-107564858D01*
X191444166Y-107637433D01*
X191662649Y-107695976D01*
X191886905Y-107725500D01*
X191886912Y-107725500D01*
X192113088Y-107725500D01*
X192113095Y-107725500D01*
X192337351Y-107695976D01*
X192555834Y-107637433D01*
X192764806Y-107550874D01*
X192960693Y-107437779D01*
X193140142Y-107300083D01*
X193300083Y-107140142D01*
X193437779Y-106960693D01*
X193550874Y-106764806D01*
X193637433Y-106555834D01*
X193695976Y-106337351D01*
X193725500Y-106113095D01*
X193725500Y-105886905D01*
X193695976Y-105662649D01*
X193637433Y-105444166D01*
X193550874Y-105235194D01*
X193437779Y-105039307D01*
X193300083Y-104859858D01*
X193300078Y-104859852D01*
X193140147Y-104699921D01*
X193140140Y-104699915D01*
X192960692Y-104562220D01*
X192764809Y-104449127D01*
X192764794Y-104449120D01*
X192555834Y-104362567D01*
X192337347Y-104304023D01*
X192113104Y-104274501D01*
X192113101Y-104274500D01*
X192113095Y-104274500D01*
X191886905Y-104274500D01*
X191886899Y-104274500D01*
X191886895Y-104274501D01*
X191662652Y-104304023D01*
X191444165Y-104362567D01*
X191235205Y-104449120D01*
X191235190Y-104449127D01*
X191039307Y-104562220D01*
X190859859Y-104699915D01*
X190859852Y-104699921D01*
X190699921Y-104859852D01*
X190699915Y-104859859D01*
X190562220Y-105039307D01*
X190449127Y-105235190D01*
X190449120Y-105235205D01*
X190362567Y-105444165D01*
X190304023Y-105662652D01*
X190274501Y-105886895D01*
X190274500Y-105886911D01*
X139725500Y-105886911D01*
X139725500Y-105886905D01*
X139695976Y-105662649D01*
X139637433Y-105444166D01*
X139550874Y-105235194D01*
X139437779Y-105039307D01*
X139300083Y-104859858D01*
X139300078Y-104859852D01*
X139140147Y-104699921D01*
X139140140Y-104699915D01*
X138960692Y-104562220D01*
X138764809Y-104449127D01*
X138764794Y-104449120D01*
X138555834Y-104362567D01*
X138337347Y-104304023D01*
X138113104Y-104274501D01*
X138113101Y-104274500D01*
X138113095Y-104274500D01*
X137886905Y-104274500D01*
X137886899Y-104274500D01*
X137886895Y-104274501D01*
X137662652Y-104304023D01*
X137444165Y-104362567D01*
X137235205Y-104449120D01*
X137235190Y-104449127D01*
X137039307Y-104562220D01*
X136859859Y-104699915D01*
X136859852Y-104699921D01*
X136699921Y-104859852D01*
X136699915Y-104859859D01*
X136562220Y-105039307D01*
X136449127Y-105235190D01*
X136449120Y-105235205D01*
X136362567Y-105444165D01*
X136304023Y-105662652D01*
X136274501Y-105886895D01*
X136274500Y-105886911D01*
X132725500Y-105886911D01*
X132725500Y-105886905D01*
X132695976Y-105662649D01*
X132637433Y-105444166D01*
X132550874Y-105235194D01*
X132437779Y-105039307D01*
X132300083Y-104859858D01*
X132300078Y-104859852D01*
X132140147Y-104699921D01*
X132140140Y-104699915D01*
X131960692Y-104562220D01*
X131764809Y-104449127D01*
X131764794Y-104449120D01*
X131555834Y-104362567D01*
X131337347Y-104304023D01*
X131113104Y-104274501D01*
X131113101Y-104274500D01*
X131113095Y-104274500D01*
X130886905Y-104274500D01*
X130886899Y-104274500D01*
X130886895Y-104274501D01*
X130662652Y-104304023D01*
X130444165Y-104362567D01*
X130235205Y-104449120D01*
X130235190Y-104449127D01*
X130039307Y-104562220D01*
X129859859Y-104699915D01*
X129859852Y-104699921D01*
X129699921Y-104859852D01*
X129699915Y-104859859D01*
X129562220Y-105039307D01*
X129449127Y-105235190D01*
X129449120Y-105235205D01*
X129362567Y-105444165D01*
X129304023Y-105662652D01*
X129274501Y-105886895D01*
X129274500Y-105886911D01*
X126642392Y-105886911D01*
X126625618Y-105502702D01*
X126625500Y-105497293D01*
X126625500Y-103443983D01*
X147924500Y-103443983D01*
X147924500Y-103556019D01*
X147953497Y-103664238D01*
X148009515Y-103761264D01*
X148088737Y-103840486D01*
X148185763Y-103896504D01*
X148293982Y-103925501D01*
X148293984Y-103925501D01*
X148406016Y-103925501D01*
X148406018Y-103925501D01*
X148514237Y-103896504D01*
X148611263Y-103840486D01*
X148690485Y-103761264D01*
X148746503Y-103664238D01*
X148775500Y-103556019D01*
X148775500Y-103443983D01*
X148746503Y-103335764D01*
X148690485Y-103238738D01*
X148611263Y-103159516D01*
X148514237Y-103103498D01*
X148406018Y-103074501D01*
X148293982Y-103074501D01*
X148185763Y-103103498D01*
X148185760Y-103103499D01*
X148088740Y-103159514D01*
X148088734Y-103159518D01*
X148009517Y-103238735D01*
X148009513Y-103238741D01*
X147953498Y-103335761D01*
X147953497Y-103335764D01*
X147924500Y-103443983D01*
X126625500Y-103443983D01*
X126625500Y-102743982D01*
X150174500Y-102743982D01*
X150174500Y-102856018D01*
X150200148Y-102951736D01*
X150203497Y-102964236D01*
X150203498Y-102964239D01*
X150207104Y-102970485D01*
X150259515Y-103061263D01*
X150338737Y-103140485D01*
X150435763Y-103196503D01*
X150543982Y-103225500D01*
X150543984Y-103225500D01*
X150656016Y-103225500D01*
X150656018Y-103225500D01*
X150764237Y-103196503D01*
X150861263Y-103140485D01*
X150940485Y-103061263D01*
X150950462Y-103043982D01*
X158354500Y-103043982D01*
X158354500Y-103156018D01*
X158383497Y-103264237D01*
X158439515Y-103361263D01*
X158518737Y-103440485D01*
X158615763Y-103496503D01*
X158723982Y-103525500D01*
X158723984Y-103525500D01*
X158836016Y-103525500D01*
X158836018Y-103525500D01*
X158944237Y-103496503D01*
X159041263Y-103440485D01*
X159120485Y-103361263D01*
X159176503Y-103264237D01*
X159205500Y-103156018D01*
X159205500Y-103043982D01*
X159176503Y-102935763D01*
X159120485Y-102838737D01*
X159041263Y-102759515D01*
X158944237Y-102703497D01*
X158836018Y-102674500D01*
X158723982Y-102674500D01*
X158615763Y-102703497D01*
X158615760Y-102703498D01*
X158518740Y-102759513D01*
X158518734Y-102759517D01*
X158439517Y-102838734D01*
X158439513Y-102838740D01*
X158383498Y-102935760D01*
X158383497Y-102935763D01*
X158354500Y-103043982D01*
X150950462Y-103043982D01*
X150996503Y-102964237D01*
X151025500Y-102856018D01*
X151025500Y-102743982D01*
X150996503Y-102635763D01*
X150940485Y-102538737D01*
X150861263Y-102459515D01*
X150834359Y-102443982D01*
X160244500Y-102443982D01*
X160244500Y-102556018D01*
X160273497Y-102664237D01*
X160329515Y-102761263D01*
X160408737Y-102840485D01*
X160505763Y-102896503D01*
X160613982Y-102925500D01*
X160613984Y-102925500D01*
X160726016Y-102925500D01*
X160726018Y-102925500D01*
X160834237Y-102896503D01*
X160931263Y-102840485D01*
X161010485Y-102761263D01*
X161027679Y-102731482D01*
X164774500Y-102731482D01*
X164774500Y-102843518D01*
X164803497Y-102951737D01*
X164859515Y-103048763D01*
X164938737Y-103127985D01*
X165035763Y-103184003D01*
X165143982Y-103213000D01*
X165143984Y-103213000D01*
X165256016Y-103213000D01*
X165256018Y-103213000D01*
X165364237Y-103184003D01*
X165461263Y-103127985D01*
X165540485Y-103048763D01*
X165596503Y-102951737D01*
X165625500Y-102843518D01*
X165625500Y-102731482D01*
X165596503Y-102623263D01*
X165568051Y-102573982D01*
X168234500Y-102573982D01*
X168234500Y-102686018D01*
X168263497Y-102794237D01*
X168319515Y-102891263D01*
X168398737Y-102970485D01*
X168495763Y-103026503D01*
X168603982Y-103055500D01*
X168603984Y-103055500D01*
X168716016Y-103055500D01*
X168716018Y-103055500D01*
X168824237Y-103026503D01*
X168921263Y-102970485D01*
X169000485Y-102891263D01*
X169056503Y-102794237D01*
X169085500Y-102686018D01*
X169085500Y-102573982D01*
X169056503Y-102465763D01*
X169000485Y-102368737D01*
X168921263Y-102289515D01*
X168836341Y-102240485D01*
X168824239Y-102233498D01*
X168824238Y-102233497D01*
X168824237Y-102233497D01*
X168716018Y-102204500D01*
X168603982Y-102204500D01*
X168495763Y-102233497D01*
X168495760Y-102233498D01*
X168398740Y-102289513D01*
X168398734Y-102289517D01*
X168319517Y-102368734D01*
X168319513Y-102368740D01*
X168263498Y-102465760D01*
X168263497Y-102465763D01*
X168234500Y-102573982D01*
X165568051Y-102573982D01*
X165540485Y-102526237D01*
X165461263Y-102447015D01*
X165364237Y-102390997D01*
X165256018Y-102362000D01*
X165143982Y-102362000D01*
X165035763Y-102390997D01*
X165035760Y-102390998D01*
X164938740Y-102447013D01*
X164938734Y-102447017D01*
X164859517Y-102526234D01*
X164859513Y-102526240D01*
X164803498Y-102623260D01*
X164803498Y-102623261D01*
X164803497Y-102623263D01*
X164774500Y-102731482D01*
X161027679Y-102731482D01*
X161066503Y-102664237D01*
X161095500Y-102556018D01*
X161095500Y-102443982D01*
X161066503Y-102335763D01*
X161010485Y-102238737D01*
X160931263Y-102159515D01*
X160834237Y-102103497D01*
X160726018Y-102074500D01*
X160613982Y-102074500D01*
X160505763Y-102103497D01*
X160505760Y-102103498D01*
X160408740Y-102159513D01*
X160408734Y-102159517D01*
X160329517Y-102238734D01*
X160329513Y-102238740D01*
X160273498Y-102335760D01*
X160273497Y-102335763D01*
X160244500Y-102443982D01*
X150834359Y-102443982D01*
X150764237Y-102403497D01*
X150656018Y-102374500D01*
X150543982Y-102374500D01*
X150435763Y-102403497D01*
X150435760Y-102403498D01*
X150338740Y-102459513D01*
X150338734Y-102459517D01*
X150259517Y-102538734D01*
X150259513Y-102538740D01*
X150203498Y-102635760D01*
X150203497Y-102635763D01*
X150174500Y-102743982D01*
X126625500Y-102743982D01*
X126625500Y-101843982D01*
X158364500Y-101843982D01*
X158364500Y-101956018D01*
X158393497Y-102064237D01*
X158449515Y-102161263D01*
X158528737Y-102240485D01*
X158625763Y-102296503D01*
X158733982Y-102325500D01*
X158733984Y-102325500D01*
X158846016Y-102325500D01*
X158846018Y-102325500D01*
X158954237Y-102296503D01*
X159051263Y-102240485D01*
X159130485Y-102161263D01*
X159186503Y-102064237D01*
X159215500Y-101956018D01*
X159215500Y-101843982D01*
X159186503Y-101735763D01*
X159130485Y-101638737D01*
X159051263Y-101559515D01*
X158954237Y-101503497D01*
X158846018Y-101474500D01*
X158733982Y-101474500D01*
X158625763Y-101503497D01*
X158625760Y-101503498D01*
X158528740Y-101559513D01*
X158528734Y-101559517D01*
X158449517Y-101638734D01*
X158449513Y-101638740D01*
X158393498Y-101735760D01*
X158393497Y-101735763D01*
X158364500Y-101843982D01*
X126625500Y-101843982D01*
X126625500Y-101343982D01*
X159674500Y-101343982D01*
X159674500Y-101456018D01*
X159703497Y-101564237D01*
X159759515Y-101661263D01*
X159838737Y-101740485D01*
X159935763Y-101796503D01*
X160043982Y-101825500D01*
X160043984Y-101825500D01*
X160156016Y-101825500D01*
X160156018Y-101825500D01*
X160264237Y-101796503D01*
X160361263Y-101740485D01*
X160440485Y-101661263D01*
X160496503Y-101564237D01*
X160525500Y-101456018D01*
X160525500Y-101343982D01*
X160496503Y-101235763D01*
X160440485Y-101138737D01*
X160361263Y-101059515D01*
X160282839Y-101014237D01*
X160264239Y-101003498D01*
X160264238Y-101003497D01*
X160264237Y-101003497D01*
X160156018Y-100974500D01*
X160043982Y-100974500D01*
X159935763Y-101003497D01*
X159935760Y-101003498D01*
X159838740Y-101059513D01*
X159838734Y-101059517D01*
X159759517Y-101138734D01*
X159759513Y-101138740D01*
X159703498Y-101235760D01*
X159703497Y-101235763D01*
X159674500Y-101343982D01*
X126625500Y-101343982D01*
X126625500Y-100843982D01*
X157254500Y-100843982D01*
X157254500Y-100956018D01*
X157283497Y-101064237D01*
X157339515Y-101161263D01*
X157418737Y-101240485D01*
X157515763Y-101296503D01*
X157623982Y-101325500D01*
X157623984Y-101325500D01*
X157736016Y-101325500D01*
X157736018Y-101325500D01*
X157844237Y-101296503D01*
X157941263Y-101240485D01*
X158020485Y-101161263D01*
X158076503Y-101064237D01*
X158105500Y-100956018D01*
X158105500Y-100843982D01*
X158076503Y-100735763D01*
X158020485Y-100638737D01*
X157941263Y-100559515D01*
X157854664Y-100509517D01*
X157844239Y-100503498D01*
X157844238Y-100503497D01*
X157844237Y-100503497D01*
X157736018Y-100474500D01*
X157623982Y-100474500D01*
X157515763Y-100503497D01*
X157515760Y-100503498D01*
X157418740Y-100559513D01*
X157418734Y-100559517D01*
X157339517Y-100638734D01*
X157339513Y-100638740D01*
X157283498Y-100735760D01*
X157283497Y-100735763D01*
X157254500Y-100843982D01*
X126625500Y-100843982D01*
X126625500Y-99236530D01*
X138099500Y-99236530D01*
X138099500Y-99443469D01*
X138139868Y-99646412D01*
X138139870Y-99646420D01*
X138219058Y-99837596D01*
X138334024Y-100009657D01*
X138480342Y-100155975D01*
X138480345Y-100155977D01*
X138652402Y-100270941D01*
X138843580Y-100350130D01*
X138988052Y-100378867D01*
X139046530Y-100390499D01*
X139046534Y-100390500D01*
X139046535Y-100390500D01*
X139253466Y-100390500D01*
X139253467Y-100390499D01*
X139456420Y-100350130D01*
X139647598Y-100270941D01*
X139819655Y-100155977D01*
X139965977Y-100009655D01*
X140080941Y-99837598D01*
X140160130Y-99646420D01*
X140200500Y-99443465D01*
X140200500Y-99236535D01*
X140160130Y-99033580D01*
X140080941Y-98842402D01*
X139965977Y-98670345D01*
X139965975Y-98670342D01*
X139819657Y-98524024D01*
X139739173Y-98470247D01*
X140639500Y-98470247D01*
X140639500Y-100209752D01*
X140651131Y-100268229D01*
X140651132Y-100268230D01*
X140695447Y-100334552D01*
X140761769Y-100378867D01*
X140761770Y-100378868D01*
X140820247Y-100390499D01*
X140820250Y-100390500D01*
X140820252Y-100390500D01*
X142559750Y-100390500D01*
X142559751Y-100390499D01*
X142574568Y-100387552D01*
X142618229Y-100378868D01*
X142618229Y-100378867D01*
X142618231Y-100378867D01*
X142670439Y-100343982D01*
X158844500Y-100343982D01*
X158844500Y-100456018D01*
X158873497Y-100564237D01*
X158929515Y-100661263D01*
X159008737Y-100740485D01*
X159105763Y-100796503D01*
X159213982Y-100825500D01*
X159213984Y-100825500D01*
X159326016Y-100825500D01*
X159326018Y-100825500D01*
X159434237Y-100796503D01*
X159531263Y-100740485D01*
X159610485Y-100661263D01*
X159666503Y-100564237D01*
X159695500Y-100456018D01*
X159695500Y-100343982D01*
X164434500Y-100343982D01*
X164434500Y-100456018D01*
X164463497Y-100564237D01*
X164519515Y-100661263D01*
X164598737Y-100740485D01*
X164695763Y-100796503D01*
X164803982Y-100825500D01*
X164803984Y-100825500D01*
X164810500Y-100825500D01*
X164877539Y-100845185D01*
X164923294Y-100897989D01*
X164934500Y-100949500D01*
X164934500Y-100956018D01*
X164963497Y-101064237D01*
X165019515Y-101161263D01*
X165098737Y-101240485D01*
X165195763Y-101296503D01*
X165303982Y-101325500D01*
X165303984Y-101325500D01*
X165416016Y-101325500D01*
X165416018Y-101325500D01*
X165524237Y-101296503D01*
X165621263Y-101240485D01*
X165700485Y-101161263D01*
X165756503Y-101064237D01*
X165785500Y-100956018D01*
X165785500Y-100843982D01*
X165772103Y-100793982D01*
X167374500Y-100793982D01*
X167374500Y-100906018D01*
X167403497Y-101014237D01*
X167459515Y-101111263D01*
X167538737Y-101190485D01*
X167635763Y-101246503D01*
X167743982Y-101275500D01*
X167743984Y-101275500D01*
X167856016Y-101275500D01*
X167856018Y-101275500D01*
X167964237Y-101246503D01*
X168061263Y-101190485D01*
X168140485Y-101111263D01*
X168196503Y-101014237D01*
X168225500Y-100906018D01*
X168225500Y-100793982D01*
X168196503Y-100685763D01*
X168140485Y-100588737D01*
X168095730Y-100543982D01*
X170524500Y-100543982D01*
X170524500Y-100656018D01*
X170553497Y-100764237D01*
X170609515Y-100861263D01*
X170688737Y-100940485D01*
X170785763Y-100996503D01*
X170893982Y-101025500D01*
X170893984Y-101025500D01*
X171006016Y-101025500D01*
X171006018Y-101025500D01*
X171114237Y-100996503D01*
X171211263Y-100940485D01*
X171290485Y-100861263D01*
X171346503Y-100764237D01*
X171375500Y-100656018D01*
X171375500Y-100543982D01*
X171346503Y-100435763D01*
X171290485Y-100338737D01*
X171211263Y-100259515D01*
X171114237Y-100203497D01*
X171006018Y-100174500D01*
X170893982Y-100174500D01*
X170785763Y-100203497D01*
X170785760Y-100203498D01*
X170688740Y-100259513D01*
X170688734Y-100259517D01*
X170609517Y-100338734D01*
X170609513Y-100338740D01*
X170553498Y-100435760D01*
X170553497Y-100435763D01*
X170524500Y-100543982D01*
X168095730Y-100543982D01*
X168061263Y-100509515D01*
X167996579Y-100472169D01*
X167964239Y-100453498D01*
X167964238Y-100453497D01*
X167964237Y-100453497D01*
X167856018Y-100424500D01*
X167743982Y-100424500D01*
X167635763Y-100453497D01*
X167635760Y-100453498D01*
X167538740Y-100509513D01*
X167538734Y-100509517D01*
X167459517Y-100588734D01*
X167459513Y-100588740D01*
X167403498Y-100685760D01*
X167403497Y-100685763D01*
X167374500Y-100793982D01*
X165772103Y-100793982D01*
X165756503Y-100735763D01*
X165700485Y-100638737D01*
X165621263Y-100559515D01*
X165534664Y-100509517D01*
X165524239Y-100503498D01*
X165524238Y-100503497D01*
X165524237Y-100503497D01*
X165416018Y-100474500D01*
X165409500Y-100474500D01*
X165342461Y-100454815D01*
X165296706Y-100402011D01*
X165285500Y-100350500D01*
X165285500Y-100343984D01*
X165285500Y-100343982D01*
X165256503Y-100235763D01*
X165200485Y-100138737D01*
X165121263Y-100059515D01*
X165056579Y-100022169D01*
X165024239Y-100003498D01*
X165024238Y-100003497D01*
X165024237Y-100003497D01*
X164916018Y-99974500D01*
X164803982Y-99974500D01*
X164695763Y-100003497D01*
X164695760Y-100003498D01*
X164598740Y-100059513D01*
X164598734Y-100059517D01*
X164519517Y-100138734D01*
X164519513Y-100138740D01*
X164463498Y-100235760D01*
X164463497Y-100235763D01*
X164434500Y-100343982D01*
X159695500Y-100343982D01*
X159666503Y-100235763D01*
X159610485Y-100138737D01*
X159531263Y-100059515D01*
X159466579Y-100022169D01*
X159434239Y-100003498D01*
X159434238Y-100003497D01*
X159434237Y-100003497D01*
X159326018Y-99974500D01*
X159213982Y-99974500D01*
X159105763Y-100003497D01*
X159105760Y-100003498D01*
X159008740Y-100059513D01*
X159008734Y-100059517D01*
X158929517Y-100138734D01*
X158929513Y-100138740D01*
X158873498Y-100235760D01*
X158873497Y-100235763D01*
X158844500Y-100343982D01*
X142670439Y-100343982D01*
X142684552Y-100334552D01*
X142728867Y-100268231D01*
X142728867Y-100268230D01*
X142728868Y-100268229D01*
X142740499Y-100209752D01*
X142740500Y-100209750D01*
X142740500Y-99336530D01*
X173399500Y-99336530D01*
X173399500Y-99543469D01*
X173439868Y-99746412D01*
X173439870Y-99746420D01*
X173519058Y-99937596D01*
X173634024Y-100109657D01*
X173780342Y-100255975D01*
X173780345Y-100255977D01*
X173952402Y-100370941D01*
X174143580Y-100450130D01*
X174346530Y-100490499D01*
X174346534Y-100490500D01*
X174346535Y-100490500D01*
X174553466Y-100490500D01*
X174553467Y-100490499D01*
X174756420Y-100450130D01*
X174947598Y-100370941D01*
X175119655Y-100255977D01*
X175265977Y-100109655D01*
X175380941Y-99937598D01*
X175460130Y-99746420D01*
X175500500Y-99543465D01*
X175500500Y-99336535D01*
X175460130Y-99133580D01*
X175380941Y-98942402D01*
X175265977Y-98770345D01*
X175265975Y-98770342D01*
X175119657Y-98624024D01*
X175039173Y-98570247D01*
X175939500Y-98570247D01*
X175939500Y-100309752D01*
X175951131Y-100368229D01*
X175951132Y-100368230D01*
X175995447Y-100434552D01*
X176061769Y-100478867D01*
X176061770Y-100478868D01*
X176120247Y-100490499D01*
X176120250Y-100490500D01*
X176120252Y-100490500D01*
X177859750Y-100490500D01*
X177859751Y-100490499D01*
X177874568Y-100487552D01*
X177918229Y-100478868D01*
X177918229Y-100478867D01*
X177918231Y-100478867D01*
X177984552Y-100434552D01*
X178028867Y-100368231D01*
X178028867Y-100368229D01*
X178028868Y-100368229D01*
X178040499Y-100309752D01*
X178040500Y-100309750D01*
X178040500Y-98570249D01*
X178040499Y-98570247D01*
X178028868Y-98511770D01*
X178028867Y-98511769D01*
X177984552Y-98445447D01*
X177918230Y-98401132D01*
X177918229Y-98401131D01*
X177859752Y-98389500D01*
X177859748Y-98389500D01*
X176120252Y-98389500D01*
X176120247Y-98389500D01*
X176061770Y-98401131D01*
X176061769Y-98401132D01*
X175995447Y-98445447D01*
X175951132Y-98511769D01*
X175951131Y-98511770D01*
X175939500Y-98570247D01*
X175039173Y-98570247D01*
X175033626Y-98566541D01*
X174947598Y-98509059D01*
X174756420Y-98429870D01*
X174756412Y-98429868D01*
X174553469Y-98389500D01*
X174553465Y-98389500D01*
X174346535Y-98389500D01*
X174346530Y-98389500D01*
X174143587Y-98429868D01*
X174143579Y-98429870D01*
X173952403Y-98509058D01*
X173780342Y-98624024D01*
X173634024Y-98770342D01*
X173519058Y-98942403D01*
X173439870Y-99133579D01*
X173439868Y-99133587D01*
X173399500Y-99336530D01*
X142740500Y-99336530D01*
X142740500Y-98470249D01*
X142740499Y-98470247D01*
X142728868Y-98411770D01*
X142728867Y-98411769D01*
X142684552Y-98345447D01*
X142618230Y-98301132D01*
X142618229Y-98301131D01*
X142559752Y-98289500D01*
X142559748Y-98289500D01*
X140820252Y-98289500D01*
X140820247Y-98289500D01*
X140761770Y-98301131D01*
X140761769Y-98301132D01*
X140695447Y-98345447D01*
X140651132Y-98411769D01*
X140651131Y-98411770D01*
X140639500Y-98470247D01*
X139739173Y-98470247D01*
X139651655Y-98411770D01*
X139647598Y-98409059D01*
X139628458Y-98401131D01*
X139456420Y-98329870D01*
X139456412Y-98329868D01*
X139253469Y-98289500D01*
X139253465Y-98289500D01*
X139046535Y-98289500D01*
X139046530Y-98289500D01*
X138843587Y-98329868D01*
X138843579Y-98329870D01*
X138652403Y-98409058D01*
X138480342Y-98524024D01*
X138334024Y-98670342D01*
X138219058Y-98842403D01*
X138139870Y-99033579D01*
X138139868Y-99033587D01*
X138099500Y-99236530D01*
X126625500Y-99236530D01*
X126625500Y-96696530D01*
X138099500Y-96696530D01*
X138099500Y-96903469D01*
X138139868Y-97106412D01*
X138139870Y-97106420D01*
X138211569Y-97279517D01*
X138219059Y-97297598D01*
X138276541Y-97383626D01*
X138334024Y-97469657D01*
X138480342Y-97615975D01*
X138480345Y-97615977D01*
X138652402Y-97730941D01*
X138843580Y-97810130D01*
X139046530Y-97850499D01*
X139046534Y-97850500D01*
X139046535Y-97850500D01*
X139253466Y-97850500D01*
X139253467Y-97850499D01*
X139456420Y-97810130D01*
X139647598Y-97730941D01*
X139819655Y-97615977D01*
X139965977Y-97469655D01*
X140080941Y-97297598D01*
X140160130Y-97106420D01*
X140200500Y-96903465D01*
X140200500Y-96696535D01*
X140200499Y-96696530D01*
X140639500Y-96696530D01*
X140639500Y-96903469D01*
X140679868Y-97106412D01*
X140679870Y-97106420D01*
X140751569Y-97279517D01*
X140759059Y-97297598D01*
X140816541Y-97383626D01*
X140874024Y-97469657D01*
X141020342Y-97615975D01*
X141020345Y-97615977D01*
X141192402Y-97730941D01*
X141383580Y-97810130D01*
X141586530Y-97850499D01*
X141586534Y-97850500D01*
X141586535Y-97850500D01*
X141793466Y-97850500D01*
X141793467Y-97850499D01*
X141996420Y-97810130D01*
X142187598Y-97730941D01*
X142359655Y-97615977D01*
X142505977Y-97469655D01*
X142620941Y-97297598D01*
X142700130Y-97106420D01*
X142734373Y-96934267D01*
X158394785Y-96934267D01*
X158394785Y-97046303D01*
X158423782Y-97154522D01*
X158479800Y-97251548D01*
X158559022Y-97330770D01*
X158656048Y-97386788D01*
X158764267Y-97415785D01*
X158764269Y-97415785D01*
X158876301Y-97415785D01*
X158876303Y-97415785D01*
X158984522Y-97386788D01*
X159081548Y-97330770D01*
X159160770Y-97251548D01*
X159216788Y-97154522D01*
X159245785Y-97046303D01*
X159245785Y-96934267D01*
X159216788Y-96826048D01*
X159199746Y-96796530D01*
X173399500Y-96796530D01*
X173399500Y-97003469D01*
X173439868Y-97206412D01*
X173439870Y-97206420D01*
X173491376Y-97330767D01*
X173519059Y-97397598D01*
X173531211Y-97415785D01*
X173634024Y-97569657D01*
X173780342Y-97715975D01*
X173780345Y-97715977D01*
X173952402Y-97830941D01*
X174143580Y-97910130D01*
X174346530Y-97950499D01*
X174346534Y-97950500D01*
X174346535Y-97950500D01*
X174553466Y-97950500D01*
X174553467Y-97950499D01*
X174756420Y-97910130D01*
X174947598Y-97830941D01*
X175119655Y-97715977D01*
X175265977Y-97569655D01*
X175380941Y-97397598D01*
X175460130Y-97206420D01*
X175500500Y-97003465D01*
X175500500Y-96796535D01*
X175500499Y-96796530D01*
X175939500Y-96796530D01*
X175939500Y-97003469D01*
X175979868Y-97206412D01*
X175979870Y-97206420D01*
X176031376Y-97330767D01*
X176059059Y-97397598D01*
X176071211Y-97415785D01*
X176174024Y-97569657D01*
X176320342Y-97715975D01*
X176320345Y-97715977D01*
X176492402Y-97830941D01*
X176683580Y-97910130D01*
X176886530Y-97950499D01*
X176886534Y-97950500D01*
X176886535Y-97950500D01*
X177093466Y-97950500D01*
X177093467Y-97950499D01*
X177296420Y-97910130D01*
X177487598Y-97830941D01*
X177659655Y-97715977D01*
X177805977Y-97569655D01*
X177809768Y-97563982D01*
X181734500Y-97563982D01*
X181734500Y-97676018D01*
X181763497Y-97784237D01*
X181819515Y-97881263D01*
X181898737Y-97960485D01*
X181995763Y-98016503D01*
X182103982Y-98045500D01*
X182103984Y-98045500D01*
X182216016Y-98045500D01*
X182216018Y-98045500D01*
X182324237Y-98016503D01*
X182421263Y-97960485D01*
X182500485Y-97881263D01*
X182556503Y-97784237D01*
X182585500Y-97676018D01*
X182585500Y-97563982D01*
X182556503Y-97455763D01*
X182500485Y-97358737D01*
X182421263Y-97279515D01*
X182324237Y-97223497D01*
X182216018Y-97194500D01*
X182103982Y-97194500D01*
X181995763Y-97223497D01*
X181995760Y-97223498D01*
X181898740Y-97279513D01*
X181898734Y-97279517D01*
X181819517Y-97358734D01*
X181819513Y-97358740D01*
X181763498Y-97455760D01*
X181763497Y-97455763D01*
X181734500Y-97563982D01*
X177809768Y-97563982D01*
X177872795Y-97469655D01*
X177920940Y-97397600D01*
X177920940Y-97397599D01*
X177920941Y-97397598D01*
X178000130Y-97206420D01*
X178040500Y-97003465D01*
X178040500Y-96796535D01*
X178000130Y-96593580D01*
X177920941Y-96402402D01*
X177805977Y-96230345D01*
X177805975Y-96230342D01*
X177659657Y-96084024D01*
X177573626Y-96026541D01*
X177487598Y-95969059D01*
X177383688Y-95926018D01*
X177296420Y-95889870D01*
X177296412Y-95889868D01*
X177093469Y-95849500D01*
X177093465Y-95849500D01*
X176886535Y-95849500D01*
X176886530Y-95849500D01*
X176683587Y-95889868D01*
X176683579Y-95889870D01*
X176492403Y-95969058D01*
X176320342Y-96084024D01*
X176174024Y-96230342D01*
X176059058Y-96402403D01*
X175979870Y-96593579D01*
X175979868Y-96593587D01*
X175939500Y-96796530D01*
X175500499Y-96796530D01*
X175460130Y-96593580D01*
X175380941Y-96402402D01*
X175265977Y-96230345D01*
X175265975Y-96230342D01*
X175119657Y-96084024D01*
X175033626Y-96026541D01*
X174947598Y-95969059D01*
X174843688Y-95926018D01*
X174756420Y-95889870D01*
X174756412Y-95889868D01*
X174553469Y-95849500D01*
X174553465Y-95849500D01*
X174346535Y-95849500D01*
X174346530Y-95849500D01*
X174143587Y-95889868D01*
X174143579Y-95889870D01*
X173952403Y-95969058D01*
X173780342Y-96084024D01*
X173634024Y-96230342D01*
X173519058Y-96402403D01*
X173439870Y-96593579D01*
X173439868Y-96593587D01*
X173399500Y-96796530D01*
X159199746Y-96796530D01*
X159160770Y-96729022D01*
X159081548Y-96649800D01*
X158984522Y-96593782D01*
X158876303Y-96564785D01*
X158764267Y-96564785D01*
X158656048Y-96593782D01*
X158656045Y-96593783D01*
X158559025Y-96649798D01*
X158559019Y-96649802D01*
X158479802Y-96729019D01*
X158479798Y-96729025D01*
X158423783Y-96826045D01*
X158423782Y-96826048D01*
X158394785Y-96934267D01*
X142734373Y-96934267D01*
X142740500Y-96903465D01*
X142740500Y-96696535D01*
X142700130Y-96493580D01*
X142620941Y-96302402D01*
X142505977Y-96130345D01*
X142505975Y-96130342D01*
X142359657Y-95984024D01*
X142247311Y-95908958D01*
X142247309Y-95908955D01*
X142187599Y-95869059D01*
X142054631Y-95813982D01*
X157284500Y-95813982D01*
X157284500Y-95926018D01*
X157313497Y-96034237D01*
X157369515Y-96131263D01*
X157448737Y-96210485D01*
X157545763Y-96266503D01*
X157653982Y-96295500D01*
X157653984Y-96295500D01*
X157766016Y-96295500D01*
X157766018Y-96295500D01*
X157874237Y-96266503D01*
X157971263Y-96210485D01*
X158050485Y-96131263D01*
X158106503Y-96034237D01*
X158135500Y-95926018D01*
X158135500Y-95813982D01*
X158106503Y-95705763D01*
X158050485Y-95608737D01*
X157971263Y-95529515D01*
X157874237Y-95473497D01*
X157766018Y-95444500D01*
X157653982Y-95444500D01*
X157545763Y-95473497D01*
X157545760Y-95473498D01*
X157448740Y-95529513D01*
X157448734Y-95529517D01*
X157369517Y-95608734D01*
X157369513Y-95608740D01*
X157313498Y-95705760D01*
X157313497Y-95705763D01*
X157284500Y-95813982D01*
X142054631Y-95813982D01*
X141996420Y-95789870D01*
X141996412Y-95789868D01*
X141793469Y-95749500D01*
X141793465Y-95749500D01*
X141586535Y-95749500D01*
X141586530Y-95749500D01*
X141383587Y-95789868D01*
X141383579Y-95789870D01*
X141192403Y-95869058D01*
X141020342Y-95984024D01*
X140874024Y-96130342D01*
X140759058Y-96302403D01*
X140679870Y-96493579D01*
X140679868Y-96493587D01*
X140639500Y-96696530D01*
X140200499Y-96696530D01*
X140160130Y-96493580D01*
X140080941Y-96302402D01*
X139965977Y-96130345D01*
X139965975Y-96130342D01*
X139819657Y-95984024D01*
X139678741Y-95889868D01*
X139647598Y-95869059D01*
X139456420Y-95789870D01*
X139456412Y-95789868D01*
X139253469Y-95749500D01*
X139253465Y-95749500D01*
X139046535Y-95749500D01*
X139046530Y-95749500D01*
X138843587Y-95789868D01*
X138843579Y-95789870D01*
X138652403Y-95869058D01*
X138480342Y-95984024D01*
X138334024Y-96130342D01*
X138219058Y-96302403D01*
X138139870Y-96493579D01*
X138139868Y-96493587D01*
X138099500Y-96696530D01*
X126625500Y-96696530D01*
X126625500Y-94156530D01*
X138099500Y-94156530D01*
X138099500Y-94363469D01*
X138139868Y-94566412D01*
X138139870Y-94566420D01*
X138219058Y-94757596D01*
X138334024Y-94929657D01*
X138480342Y-95075975D01*
X138480345Y-95075977D01*
X138652402Y-95190941D01*
X138843580Y-95270130D01*
X139046530Y-95310499D01*
X139046534Y-95310500D01*
X139046535Y-95310500D01*
X139253466Y-95310500D01*
X139253467Y-95310499D01*
X139456420Y-95270130D01*
X139647598Y-95190941D01*
X139819655Y-95075977D01*
X139965977Y-94929655D01*
X140080941Y-94757598D01*
X140160130Y-94566420D01*
X140200500Y-94363465D01*
X140200500Y-94156535D01*
X140200499Y-94156530D01*
X140639500Y-94156530D01*
X140639500Y-94363469D01*
X140679868Y-94566412D01*
X140679870Y-94566420D01*
X140759058Y-94757596D01*
X140874024Y-94929657D01*
X141020342Y-95075975D01*
X141020345Y-95075977D01*
X141192402Y-95190941D01*
X141383580Y-95270130D01*
X141586530Y-95310499D01*
X141586534Y-95310500D01*
X141586535Y-95310500D01*
X141793466Y-95310500D01*
X141793467Y-95310499D01*
X141996420Y-95270130D01*
X142041440Y-95251482D01*
X164794500Y-95251482D01*
X164794500Y-95363518D01*
X164823497Y-95471737D01*
X164879515Y-95568763D01*
X164958737Y-95647985D01*
X165055763Y-95704003D01*
X165163982Y-95733000D01*
X165163984Y-95733000D01*
X165276016Y-95733000D01*
X165276018Y-95733000D01*
X165384237Y-95704003D01*
X165481263Y-95647985D01*
X165560485Y-95568763D01*
X165616503Y-95471737D01*
X165645500Y-95363518D01*
X165645500Y-95251482D01*
X165642821Y-95241482D01*
X166344500Y-95241482D01*
X166344500Y-95353518D01*
X166368879Y-95444500D01*
X166373497Y-95461736D01*
X166373498Y-95461739D01*
X166379272Y-95471739D01*
X166429515Y-95558763D01*
X166508737Y-95637985D01*
X166605763Y-95694003D01*
X166713982Y-95723000D01*
X166713984Y-95723000D01*
X166826016Y-95723000D01*
X166826018Y-95723000D01*
X166934237Y-95694003D01*
X167031263Y-95637985D01*
X167110485Y-95558763D01*
X167166503Y-95461737D01*
X167195500Y-95353518D01*
X167195500Y-95241482D01*
X167166503Y-95133263D01*
X167110485Y-95036237D01*
X167031263Y-94957015D01*
X167008689Y-94943982D01*
X171574500Y-94943982D01*
X171574500Y-95056018D01*
X171603497Y-95164237D01*
X171659515Y-95261263D01*
X171738737Y-95340485D01*
X171835763Y-95396503D01*
X171943982Y-95425500D01*
X171943984Y-95425500D01*
X172056016Y-95425500D01*
X172056018Y-95425500D01*
X172164237Y-95396503D01*
X172261263Y-95340485D01*
X172340485Y-95261263D01*
X172396503Y-95164237D01*
X172425500Y-95056018D01*
X172425500Y-94943982D01*
X172396503Y-94835763D01*
X172340485Y-94738737D01*
X172261263Y-94659515D01*
X172164237Y-94603497D01*
X172056018Y-94574500D01*
X171943982Y-94574500D01*
X171835763Y-94603497D01*
X171835760Y-94603498D01*
X171738740Y-94659513D01*
X171738734Y-94659517D01*
X171659517Y-94738734D01*
X171659513Y-94738740D01*
X171603498Y-94835760D01*
X171603497Y-94835763D01*
X171574500Y-94943982D01*
X167008689Y-94943982D01*
X166934237Y-94900997D01*
X166826018Y-94872000D01*
X166713982Y-94872000D01*
X166605763Y-94900997D01*
X166605760Y-94900998D01*
X166508740Y-94957013D01*
X166508734Y-94957017D01*
X166429517Y-95036234D01*
X166429513Y-95036240D01*
X166373498Y-95133260D01*
X166373497Y-95133263D01*
X166344500Y-95241482D01*
X165642821Y-95241482D01*
X165616503Y-95143263D01*
X165560485Y-95046237D01*
X165481263Y-94967015D01*
X165384237Y-94910997D01*
X165276018Y-94882000D01*
X165163982Y-94882000D01*
X165055763Y-94910997D01*
X165055760Y-94910998D01*
X164958740Y-94967013D01*
X164958734Y-94967017D01*
X164879517Y-95046234D01*
X164879513Y-95046240D01*
X164823498Y-95143260D01*
X164823497Y-95143263D01*
X164794500Y-95251482D01*
X142041440Y-95251482D01*
X142187598Y-95190941D01*
X142263460Y-95140252D01*
X142263462Y-95140251D01*
X142311929Y-95107866D01*
X142359655Y-95075977D01*
X142505977Y-94929655D01*
X142620941Y-94757598D01*
X142700130Y-94566420D01*
X142740500Y-94363465D01*
X142740500Y-94256530D01*
X173399500Y-94256530D01*
X173399500Y-94463469D01*
X173439868Y-94666412D01*
X173439870Y-94666420D01*
X173510014Y-94835763D01*
X173519059Y-94857598D01*
X173567206Y-94929655D01*
X173634024Y-95029657D01*
X173780342Y-95175975D01*
X173780345Y-95175977D01*
X173952402Y-95290941D01*
X174143580Y-95370130D01*
X174346530Y-95410499D01*
X174346534Y-95410500D01*
X174346535Y-95410500D01*
X174553466Y-95410500D01*
X174553467Y-95410499D01*
X174756420Y-95370130D01*
X174947598Y-95290941D01*
X175119655Y-95175977D01*
X175265977Y-95029655D01*
X175380941Y-94857598D01*
X175460130Y-94666420D01*
X175500500Y-94463465D01*
X175500500Y-94256535D01*
X175460130Y-94053580D01*
X175380941Y-93862402D01*
X175265977Y-93690345D01*
X175265975Y-93690342D01*
X175119657Y-93544024D01*
X174969996Y-93444025D01*
X174947598Y-93429059D01*
X174947593Y-93429057D01*
X174756420Y-93349870D01*
X174756412Y-93349868D01*
X174553469Y-93309500D01*
X174553465Y-93309500D01*
X174346535Y-93309500D01*
X174346530Y-93309500D01*
X174143587Y-93349868D01*
X174143579Y-93349870D01*
X173952403Y-93429058D01*
X173780342Y-93544024D01*
X173634024Y-93690342D01*
X173519058Y-93862403D01*
X173439870Y-94053579D01*
X173439868Y-94053587D01*
X173399500Y-94256530D01*
X142740500Y-94256530D01*
X142740500Y-94156535D01*
X142700130Y-93953580D01*
X142620941Y-93762402D01*
X142505977Y-93590345D01*
X142505975Y-93590342D01*
X142359658Y-93444025D01*
X142359652Y-93444020D01*
X142352124Y-93438990D01*
X142352075Y-93438958D01*
X142235154Y-93360835D01*
X142209932Y-93343982D01*
X164374500Y-93343982D01*
X164374500Y-93456018D01*
X164403497Y-93564237D01*
X164459515Y-93661263D01*
X164538737Y-93740485D01*
X164635763Y-93796503D01*
X164743982Y-93825500D01*
X164743984Y-93825500D01*
X164856016Y-93825500D01*
X164856018Y-93825500D01*
X164964237Y-93796503D01*
X165061263Y-93740485D01*
X165140485Y-93661263D01*
X165196503Y-93564237D01*
X165225500Y-93456018D01*
X165225500Y-93343982D01*
X167174500Y-93343982D01*
X167174500Y-93456018D01*
X167203497Y-93564237D01*
X167259515Y-93661263D01*
X167338737Y-93740485D01*
X167435763Y-93796503D01*
X167543982Y-93825500D01*
X167543984Y-93825500D01*
X167656016Y-93825500D01*
X167656018Y-93825500D01*
X167764237Y-93796503D01*
X167861263Y-93740485D01*
X167940485Y-93661263D01*
X167996503Y-93564237D01*
X168025500Y-93456018D01*
X168025500Y-93343982D01*
X167996503Y-93235763D01*
X167940485Y-93138737D01*
X167861263Y-93059515D01*
X167764237Y-93003497D01*
X167656018Y-92974500D01*
X167543982Y-92974500D01*
X167435763Y-93003497D01*
X167435760Y-93003498D01*
X167338740Y-93059513D01*
X167338734Y-93059517D01*
X167259517Y-93138734D01*
X167259513Y-93138740D01*
X167203498Y-93235760D01*
X167203497Y-93235763D01*
X167174500Y-93343982D01*
X165225500Y-93343982D01*
X165196503Y-93235763D01*
X165140485Y-93138737D01*
X165061263Y-93059515D01*
X164964237Y-93003497D01*
X164856018Y-92974500D01*
X164743982Y-92974500D01*
X164635763Y-93003497D01*
X164635760Y-93003498D01*
X164538740Y-93059513D01*
X164538734Y-93059517D01*
X164459517Y-93138734D01*
X164459513Y-93138740D01*
X164403498Y-93235760D01*
X164403497Y-93235763D01*
X164374500Y-93343982D01*
X142209932Y-93343982D01*
X142187598Y-93329059D01*
X141996420Y-93249870D01*
X141996412Y-93249868D01*
X141793469Y-93209500D01*
X141793465Y-93209500D01*
X141586535Y-93209500D01*
X141586530Y-93209500D01*
X141383587Y-93249868D01*
X141383579Y-93249870D01*
X141192403Y-93329058D01*
X141020342Y-93444024D01*
X140874024Y-93590342D01*
X140759058Y-93762403D01*
X140679870Y-93953579D01*
X140679868Y-93953587D01*
X140639500Y-94156530D01*
X140200499Y-94156530D01*
X140160130Y-93953580D01*
X140080941Y-93762402D01*
X139965977Y-93590345D01*
X139965975Y-93590342D01*
X139819657Y-93444024D01*
X139669932Y-93343982D01*
X139647598Y-93329059D01*
X139456420Y-93249870D01*
X139456412Y-93249868D01*
X139253469Y-93209500D01*
X139253465Y-93209500D01*
X139046535Y-93209500D01*
X139046530Y-93209500D01*
X138843587Y-93249868D01*
X138843579Y-93249870D01*
X138652403Y-93329058D01*
X138480342Y-93444024D01*
X138334024Y-93590342D01*
X138219058Y-93762403D01*
X138139870Y-93953579D01*
X138139868Y-93953587D01*
X138099500Y-94156530D01*
X126625500Y-94156530D01*
X126625500Y-91616530D01*
X138099500Y-91616530D01*
X138099500Y-91823469D01*
X138139868Y-92026412D01*
X138139870Y-92026420D01*
X138219058Y-92217596D01*
X138334024Y-92389657D01*
X138480342Y-92535975D01*
X138480345Y-92535977D01*
X138652402Y-92650941D01*
X138843580Y-92730130D01*
X139046530Y-92770499D01*
X139046534Y-92770500D01*
X139046535Y-92770500D01*
X139253466Y-92770500D01*
X139253467Y-92770499D01*
X139456420Y-92730130D01*
X139647598Y-92650941D01*
X139819655Y-92535977D01*
X139965977Y-92389655D01*
X140080941Y-92217598D01*
X140160130Y-92026420D01*
X140200500Y-91823465D01*
X140200500Y-91616535D01*
X140200499Y-91616530D01*
X140639500Y-91616530D01*
X140639500Y-91823469D01*
X140679868Y-92026412D01*
X140679870Y-92026420D01*
X140759058Y-92217596D01*
X140874024Y-92389657D01*
X141020342Y-92535975D01*
X141020345Y-92535977D01*
X141192402Y-92650941D01*
X141383580Y-92730130D01*
X141586530Y-92770499D01*
X141586534Y-92770500D01*
X141586535Y-92770500D01*
X141793466Y-92770500D01*
X141793467Y-92770499D01*
X141996420Y-92730130D01*
X142187598Y-92650941D01*
X142359655Y-92535977D01*
X142505977Y-92389655D01*
X142620941Y-92217598D01*
X142700130Y-92026420D01*
X142740500Y-91823465D01*
X142740500Y-91716530D01*
X173399500Y-91716530D01*
X173399500Y-91923469D01*
X173439868Y-92126412D01*
X173439870Y-92126420D01*
X173505939Y-92285925D01*
X173519059Y-92317598D01*
X173542282Y-92352354D01*
X173634024Y-92489657D01*
X173780342Y-92635975D01*
X173780345Y-92635977D01*
X173952402Y-92750941D01*
X174143580Y-92830130D01*
X174346530Y-92870499D01*
X174346534Y-92870500D01*
X174346535Y-92870500D01*
X174553466Y-92870500D01*
X174553467Y-92870499D01*
X174756420Y-92830130D01*
X174947598Y-92750941D01*
X175119655Y-92635977D01*
X175265977Y-92489655D01*
X175380941Y-92317598D01*
X175449165Y-92152889D01*
X175493004Y-92098488D01*
X175559298Y-92076423D01*
X175626998Y-92093702D01*
X175674609Y-92144839D01*
X175681656Y-92162026D01*
X175738904Y-92338216D01*
X175835375Y-92527550D01*
X175874728Y-92581716D01*
X176507037Y-91949408D01*
X176524075Y-92012993D01*
X176589901Y-92127007D01*
X176682993Y-92220099D01*
X176797007Y-92285925D01*
X176860590Y-92302962D01*
X176228282Y-92935269D01*
X176228282Y-92935270D01*
X176282449Y-92974624D01*
X176471782Y-93071095D01*
X176647973Y-93128343D01*
X176705648Y-93167780D01*
X176732847Y-93232139D01*
X176720932Y-93300985D01*
X176673688Y-93352461D01*
X176657108Y-93360835D01*
X176492403Y-93429057D01*
X176320342Y-93544024D01*
X176174024Y-93690342D01*
X176059058Y-93862403D01*
X175979870Y-94053579D01*
X175979868Y-94053587D01*
X175939500Y-94256530D01*
X175939500Y-94463469D01*
X175979868Y-94666412D01*
X175979870Y-94666420D01*
X176050014Y-94835763D01*
X176059059Y-94857598D01*
X176107206Y-94929655D01*
X176174024Y-95029657D01*
X176320342Y-95175975D01*
X176320345Y-95175977D01*
X176492402Y-95290941D01*
X176683580Y-95370130D01*
X176886530Y-95410499D01*
X176886534Y-95410500D01*
X176886535Y-95410500D01*
X177093466Y-95410500D01*
X177093467Y-95410499D01*
X177296420Y-95370130D01*
X177487598Y-95290941D01*
X177659655Y-95175977D01*
X177805977Y-95029655D01*
X177920941Y-94857598D01*
X178000130Y-94666420D01*
X178040500Y-94463465D01*
X178040500Y-94256535D01*
X178000130Y-94053580D01*
X177920941Y-93862402D01*
X177805977Y-93690345D01*
X177805975Y-93690342D01*
X177659657Y-93544024D01*
X177509996Y-93444025D01*
X177487598Y-93429059D01*
X177487593Y-93429057D01*
X177425891Y-93403499D01*
X177322890Y-93360834D01*
X177268488Y-93316994D01*
X177246423Y-93250700D01*
X177263702Y-93183001D01*
X177314839Y-93135390D01*
X177332026Y-93128343D01*
X177508217Y-93071095D01*
X177697554Y-92974622D01*
X177751716Y-92935270D01*
X177751717Y-92935270D01*
X177646963Y-92830516D01*
X177562177Y-92745730D01*
X183524500Y-92745730D01*
X183524500Y-94054269D01*
X183527353Y-94084699D01*
X183527353Y-94084701D01*
X183572206Y-94212880D01*
X183572207Y-94212882D01*
X183652850Y-94322150D01*
X183762118Y-94402793D01*
X183804845Y-94417744D01*
X183890299Y-94447646D01*
X183920730Y-94450500D01*
X183920734Y-94450500D01*
X185479270Y-94450500D01*
X185509699Y-94447646D01*
X185509701Y-94447646D01*
X185573790Y-94425219D01*
X185637882Y-94402793D01*
X185747150Y-94322150D01*
X185827793Y-94212882D01*
X185850219Y-94148790D01*
X185872646Y-94084701D01*
X185872646Y-94084699D01*
X185875500Y-94054269D01*
X185875500Y-92745730D01*
X190724500Y-92745730D01*
X190724500Y-94054269D01*
X190727353Y-94084699D01*
X190727353Y-94084701D01*
X190772206Y-94212880D01*
X190772207Y-94212882D01*
X190852850Y-94322150D01*
X190962118Y-94402793D01*
X191004845Y-94417744D01*
X191090299Y-94447646D01*
X191120730Y-94450500D01*
X191120734Y-94450500D01*
X192679270Y-94450500D01*
X192709699Y-94447646D01*
X192709701Y-94447646D01*
X192773790Y-94425219D01*
X192837882Y-94402793D01*
X192947150Y-94322150D01*
X193027793Y-94212882D01*
X193050219Y-94148790D01*
X193072646Y-94084701D01*
X193072646Y-94084699D01*
X193075500Y-94054269D01*
X193075500Y-92745730D01*
X193072646Y-92715300D01*
X193072646Y-92715298D01*
X193027793Y-92587119D01*
X193027792Y-92587117D01*
X192990049Y-92535977D01*
X192947150Y-92477850D01*
X192837882Y-92397207D01*
X192837880Y-92397206D01*
X192709700Y-92352353D01*
X192679270Y-92349500D01*
X192679266Y-92349500D01*
X191120734Y-92349500D01*
X191120730Y-92349500D01*
X191090300Y-92352353D01*
X191090298Y-92352353D01*
X190962119Y-92397206D01*
X190962117Y-92397207D01*
X190852850Y-92477850D01*
X190772207Y-92587117D01*
X190772206Y-92587119D01*
X190727353Y-92715298D01*
X190727353Y-92715300D01*
X190724500Y-92745730D01*
X185875500Y-92745730D01*
X185872646Y-92715300D01*
X185872646Y-92715298D01*
X185827793Y-92587119D01*
X185827792Y-92587117D01*
X185790049Y-92535977D01*
X185747150Y-92477850D01*
X185637882Y-92397207D01*
X185637880Y-92397206D01*
X185509700Y-92352353D01*
X185479270Y-92349500D01*
X185479266Y-92349500D01*
X183920734Y-92349500D01*
X183920730Y-92349500D01*
X183890300Y-92352353D01*
X183890298Y-92352353D01*
X183762119Y-92397206D01*
X183762117Y-92397207D01*
X183652850Y-92477850D01*
X183572207Y-92587117D01*
X183572206Y-92587119D01*
X183527353Y-92715298D01*
X183527353Y-92715300D01*
X183524500Y-92745730D01*
X177562177Y-92745730D01*
X177119408Y-92302962D01*
X177182993Y-92285925D01*
X177297007Y-92220099D01*
X177390099Y-92127007D01*
X177455925Y-92012993D01*
X177472962Y-91949408D01*
X178105270Y-92581717D01*
X178105270Y-92581716D01*
X178144622Y-92527554D01*
X178241095Y-92338217D01*
X178306757Y-92136130D01*
X178306757Y-92136127D01*
X178340000Y-91926246D01*
X178340000Y-91713753D01*
X178306757Y-91503872D01*
X178306757Y-91503869D01*
X178241095Y-91301782D01*
X178144624Y-91112449D01*
X178105270Y-91058282D01*
X178105269Y-91058282D01*
X177472962Y-91690590D01*
X177455925Y-91627007D01*
X177390099Y-91512993D01*
X177297007Y-91419901D01*
X177182993Y-91354075D01*
X177119409Y-91337037D01*
X177751716Y-90704728D01*
X177697550Y-90665375D01*
X177508216Y-90568904D01*
X177332026Y-90511656D01*
X177274350Y-90472218D01*
X177247152Y-90407860D01*
X177259067Y-90339013D01*
X177306311Y-90287538D01*
X177322882Y-90279168D01*
X177487598Y-90210941D01*
X177659655Y-90095977D01*
X177805977Y-89949655D01*
X177920941Y-89777598D01*
X178000130Y-89586420D01*
X178040500Y-89383465D01*
X178040500Y-89176535D01*
X178000130Y-88973580D01*
X177920941Y-88782402D01*
X177805977Y-88610345D01*
X177805975Y-88610342D01*
X177659657Y-88464024D01*
X177573626Y-88406541D01*
X177487598Y-88349059D01*
X177296420Y-88269870D01*
X177296412Y-88269868D01*
X177093469Y-88229500D01*
X177093465Y-88229500D01*
X176886535Y-88229500D01*
X176886530Y-88229500D01*
X176683587Y-88269868D01*
X176683579Y-88269870D01*
X176492403Y-88349058D01*
X176320342Y-88464024D01*
X176174024Y-88610342D01*
X176059058Y-88782403D01*
X175979870Y-88973579D01*
X175979868Y-88973587D01*
X175939500Y-89176530D01*
X175939500Y-89383469D01*
X175979868Y-89586412D01*
X175979870Y-89586420D01*
X176059058Y-89777596D01*
X176174024Y-89949657D01*
X176320342Y-90095975D01*
X176492405Y-90210943D01*
X176595043Y-90253456D01*
X176657108Y-90279164D01*
X176711511Y-90323005D01*
X176733576Y-90389299D01*
X176716297Y-90456998D01*
X176665160Y-90504609D01*
X176647974Y-90511656D01*
X176471781Y-90568905D01*
X176282439Y-90665380D01*
X176228282Y-90704727D01*
X176228282Y-90704728D01*
X176860591Y-91337037D01*
X176797007Y-91354075D01*
X176682993Y-91419901D01*
X176589901Y-91512993D01*
X176524075Y-91627007D01*
X176507037Y-91690591D01*
X175874728Y-91058282D01*
X175874727Y-91058282D01*
X175835380Y-91112439D01*
X175738905Y-91301781D01*
X175681656Y-91477974D01*
X175642218Y-91535649D01*
X175577859Y-91562847D01*
X175509013Y-91550932D01*
X175457537Y-91503688D01*
X175449164Y-91487107D01*
X175380943Y-91322405D01*
X175265975Y-91150342D01*
X175119657Y-91004024D01*
X175033626Y-90946541D01*
X174947598Y-90889059D01*
X174756420Y-90809870D01*
X174756412Y-90809868D01*
X174553469Y-90769500D01*
X174553465Y-90769500D01*
X174346535Y-90769500D01*
X174346530Y-90769500D01*
X174143587Y-90809868D01*
X174143579Y-90809870D01*
X173952403Y-90889058D01*
X173780342Y-91004024D01*
X173634024Y-91150342D01*
X173519058Y-91322403D01*
X173439870Y-91513579D01*
X173439868Y-91513587D01*
X173399500Y-91716530D01*
X142740500Y-91716530D01*
X142740500Y-91616535D01*
X142700130Y-91413580D01*
X142620941Y-91222402D01*
X142505977Y-91050345D01*
X142505975Y-91050342D01*
X142359657Y-90904024D01*
X142218741Y-90809868D01*
X142187598Y-90789059D01*
X141996420Y-90709870D01*
X141996412Y-90709868D01*
X141793469Y-90669500D01*
X141793465Y-90669500D01*
X141586535Y-90669500D01*
X141586530Y-90669500D01*
X141383587Y-90709868D01*
X141383579Y-90709870D01*
X141192403Y-90789058D01*
X141020342Y-90904024D01*
X140874024Y-91050342D01*
X140759058Y-91222403D01*
X140679870Y-91413579D01*
X140679868Y-91413587D01*
X140639500Y-91616530D01*
X140200499Y-91616530D01*
X140160130Y-91413580D01*
X140080941Y-91222402D01*
X139965977Y-91050345D01*
X139965975Y-91050342D01*
X139819657Y-90904024D01*
X139678741Y-90809868D01*
X139647598Y-90789059D01*
X139456420Y-90709870D01*
X139456412Y-90709868D01*
X139253469Y-90669500D01*
X139253465Y-90669500D01*
X139046535Y-90669500D01*
X139046530Y-90669500D01*
X138843587Y-90709868D01*
X138843579Y-90709870D01*
X138652403Y-90789058D01*
X138480342Y-90904024D01*
X138334024Y-91050342D01*
X138219058Y-91222403D01*
X138139870Y-91413579D01*
X138139868Y-91413587D01*
X138099500Y-91616530D01*
X126625500Y-91616530D01*
X126625500Y-89076530D01*
X138099500Y-89076530D01*
X138099500Y-89283469D01*
X138139868Y-89486412D01*
X138139870Y-89486420D01*
X138168119Y-89554620D01*
X138219059Y-89677598D01*
X138254204Y-89730196D01*
X138334024Y-89849657D01*
X138480342Y-89995975D01*
X138480345Y-89995977D01*
X138652402Y-90110941D01*
X138843580Y-90190130D01*
X139045741Y-90230342D01*
X139046530Y-90230499D01*
X139046534Y-90230500D01*
X139046535Y-90230500D01*
X139253466Y-90230500D01*
X139253467Y-90230499D01*
X139456420Y-90190130D01*
X139647598Y-90110941D01*
X139819655Y-89995977D01*
X139965977Y-89849655D01*
X140080941Y-89677598D01*
X140160130Y-89486420D01*
X140200500Y-89283465D01*
X140200500Y-89076535D01*
X140200499Y-89076530D01*
X140639500Y-89076530D01*
X140639500Y-89283469D01*
X140679868Y-89486412D01*
X140679870Y-89486420D01*
X140708119Y-89554620D01*
X140759059Y-89677598D01*
X140794204Y-89730196D01*
X140874024Y-89849657D01*
X141020342Y-89995975D01*
X141020345Y-89995977D01*
X141192402Y-90110941D01*
X141383580Y-90190130D01*
X141585741Y-90230342D01*
X141586530Y-90230499D01*
X141586534Y-90230500D01*
X141586535Y-90230500D01*
X141793466Y-90230500D01*
X141793467Y-90230499D01*
X141996420Y-90190130D01*
X142187598Y-90110941D01*
X142359655Y-89995977D01*
X142505977Y-89849655D01*
X142620941Y-89677598D01*
X142700130Y-89486420D01*
X142740500Y-89283465D01*
X142740500Y-89176530D01*
X173399500Y-89176530D01*
X173399500Y-89383469D01*
X173439868Y-89586412D01*
X173439870Y-89586420D01*
X173519058Y-89777596D01*
X173634024Y-89949657D01*
X173780342Y-90095975D01*
X173780345Y-90095977D01*
X173952402Y-90210941D01*
X174143580Y-90290130D01*
X174308855Y-90323005D01*
X174346530Y-90330499D01*
X174346534Y-90330500D01*
X174346535Y-90330500D01*
X174553466Y-90330500D01*
X174553467Y-90330499D01*
X174756420Y-90290130D01*
X174947598Y-90210941D01*
X175119655Y-90095977D01*
X175265977Y-89949655D01*
X175380941Y-89777598D01*
X175460130Y-89586420D01*
X175500500Y-89383465D01*
X175500500Y-89176535D01*
X175460130Y-88973580D01*
X175380941Y-88782402D01*
X175265977Y-88610345D01*
X175265975Y-88610342D01*
X175119657Y-88464024D01*
X175033626Y-88406541D01*
X174947598Y-88349059D01*
X174756420Y-88269870D01*
X174756412Y-88269868D01*
X174553469Y-88229500D01*
X174553465Y-88229500D01*
X174346535Y-88229500D01*
X174346530Y-88229500D01*
X174143587Y-88269868D01*
X174143579Y-88269870D01*
X173952403Y-88349058D01*
X173780342Y-88464024D01*
X173634024Y-88610342D01*
X173519058Y-88782403D01*
X173439870Y-88973579D01*
X173439868Y-88973587D01*
X173399500Y-89176530D01*
X142740500Y-89176530D01*
X142740500Y-89076535D01*
X142700130Y-88873580D01*
X142620941Y-88682402D01*
X142505977Y-88510345D01*
X142505975Y-88510342D01*
X142359657Y-88364024D01*
X142218741Y-88269868D01*
X142187598Y-88249059D01*
X141996420Y-88169870D01*
X141996412Y-88169868D01*
X141934093Y-88157472D01*
X141793469Y-88129500D01*
X141793465Y-88129500D01*
X141586535Y-88129500D01*
X141586530Y-88129500D01*
X141383587Y-88169868D01*
X141383579Y-88169870D01*
X141192403Y-88249058D01*
X141020342Y-88364024D01*
X140874024Y-88510342D01*
X140759058Y-88682403D01*
X140679870Y-88873579D01*
X140679868Y-88873587D01*
X140639500Y-89076530D01*
X140200499Y-89076530D01*
X140160130Y-88873580D01*
X140080941Y-88682402D01*
X139965977Y-88510345D01*
X139965975Y-88510342D01*
X139819657Y-88364024D01*
X139678741Y-88269868D01*
X139647598Y-88249059D01*
X139456420Y-88169870D01*
X139456412Y-88169868D01*
X139253469Y-88129500D01*
X139253465Y-88129500D01*
X139046535Y-88129500D01*
X139046530Y-88129500D01*
X138843587Y-88169868D01*
X138843579Y-88169870D01*
X138652403Y-88249058D01*
X138480342Y-88364024D01*
X138334024Y-88510342D01*
X138219058Y-88682403D01*
X138139870Y-88873579D01*
X138139868Y-88873587D01*
X138099500Y-89076530D01*
X126625500Y-89076530D01*
X126625500Y-88043982D01*
X178874500Y-88043982D01*
X178874500Y-88156018D01*
X178903497Y-88264237D01*
X178959515Y-88361263D01*
X178959517Y-88361265D01*
X179010571Y-88412319D01*
X179044056Y-88473642D01*
X179039072Y-88543334D01*
X179010571Y-88587681D01*
X178959517Y-88638734D01*
X178959513Y-88638740D01*
X178903498Y-88735760D01*
X178903497Y-88735763D01*
X178874500Y-88843982D01*
X178874500Y-88956018D01*
X178903497Y-89064237D01*
X178959515Y-89161263D01*
X179038737Y-89240485D01*
X179135763Y-89296503D01*
X179243982Y-89325500D01*
X179243984Y-89325500D01*
X179356016Y-89325500D01*
X179356018Y-89325500D01*
X179464237Y-89296503D01*
X179561263Y-89240485D01*
X179640485Y-89161263D01*
X179696503Y-89064237D01*
X179725500Y-88956018D01*
X179725500Y-88843982D01*
X179696503Y-88735763D01*
X179696499Y-88735756D01*
X179666301Y-88683449D01*
X179666295Y-88683442D01*
X179640485Y-88638737D01*
X179584881Y-88583133D01*
X179580831Y-88578143D01*
X179569729Y-88551604D01*
X179555944Y-88526358D01*
X179556414Y-88519774D01*
X179553868Y-88513686D01*
X179558875Y-88485363D01*
X179560928Y-88456666D01*
X179565096Y-88450179D01*
X179566033Y-88444883D01*
X179574127Y-88436127D01*
X179589429Y-88412319D01*
X179640485Y-88361263D01*
X179696503Y-88264237D01*
X179725500Y-88156018D01*
X179725500Y-88150000D01*
X183247769Y-88150000D01*
X184295854Y-88150000D01*
X184257370Y-88216657D01*
X184225000Y-88337465D01*
X184225000Y-88462535D01*
X184257370Y-88583343D01*
X184295854Y-88650000D01*
X183247769Y-88650000D01*
X183258242Y-88716126D01*
X183258242Y-88716129D01*
X183323904Y-88918217D01*
X183420379Y-89107557D01*
X183545272Y-89279459D01*
X183545276Y-89279464D01*
X183695535Y-89429723D01*
X183695540Y-89429727D01*
X183867442Y-89554620D01*
X184056782Y-89651095D01*
X184178855Y-89690759D01*
X184236530Y-89730196D01*
X184263729Y-89794555D01*
X184251815Y-89863401D01*
X184204570Y-89914877D01*
X184187990Y-89923251D01*
X184077404Y-89969057D01*
X183905342Y-90084024D01*
X183759024Y-90230342D01*
X183644058Y-90402403D01*
X183564870Y-90593579D01*
X183564868Y-90593587D01*
X183524500Y-90796530D01*
X183524500Y-91003469D01*
X183546176Y-91112439D01*
X183564870Y-91206420D01*
X183644059Y-91397598D01*
X183697764Y-91477974D01*
X183759024Y-91569657D01*
X183905342Y-91715975D01*
X183905345Y-91715977D01*
X184077402Y-91830941D01*
X184268580Y-91910130D01*
X184471530Y-91950499D01*
X184471534Y-91950500D01*
X184471535Y-91950500D01*
X184928466Y-91950500D01*
X184928467Y-91950499D01*
X185131420Y-91910130D01*
X185322598Y-91830941D01*
X185494655Y-91715977D01*
X185640977Y-91569655D01*
X185755941Y-91397598D01*
X185835130Y-91206420D01*
X185875500Y-91003465D01*
X185875500Y-90796535D01*
X185835130Y-90593580D01*
X185755941Y-90402402D01*
X185640977Y-90230345D01*
X185640975Y-90230342D01*
X185494657Y-90084024D01*
X185322596Y-89969057D01*
X185212009Y-89923251D01*
X185157606Y-89879410D01*
X185135541Y-89813116D01*
X185152820Y-89745416D01*
X185203958Y-89697806D01*
X185221144Y-89690759D01*
X185343217Y-89651095D01*
X185532557Y-89554620D01*
X185704459Y-89429727D01*
X185704464Y-89429723D01*
X185854723Y-89279464D01*
X185854727Y-89279459D01*
X185979620Y-89107557D01*
X186076095Y-88918217D01*
X186141757Y-88716129D01*
X186141757Y-88716126D01*
X186152231Y-88650000D01*
X185104146Y-88650000D01*
X185142630Y-88583343D01*
X185175000Y-88462535D01*
X185175000Y-88337465D01*
X185142630Y-88216657D01*
X185104146Y-88150000D01*
X186152231Y-88150000D01*
X190447769Y-88150000D01*
X191495854Y-88150000D01*
X191457370Y-88216657D01*
X191425000Y-88337465D01*
X191425000Y-88462535D01*
X191457370Y-88583343D01*
X191495854Y-88650000D01*
X190447769Y-88650000D01*
X190458242Y-88716126D01*
X190458242Y-88716129D01*
X190523904Y-88918217D01*
X190620379Y-89107557D01*
X190745272Y-89279459D01*
X190745276Y-89279464D01*
X190895535Y-89429723D01*
X190895540Y-89429727D01*
X191067442Y-89554620D01*
X191256782Y-89651095D01*
X191378855Y-89690759D01*
X191436530Y-89730196D01*
X191463729Y-89794555D01*
X191451815Y-89863401D01*
X191404570Y-89914877D01*
X191387990Y-89923251D01*
X191277404Y-89969057D01*
X191105342Y-90084024D01*
X190959024Y-90230342D01*
X190844058Y-90402403D01*
X190764870Y-90593579D01*
X190764868Y-90593587D01*
X190724500Y-90796530D01*
X190724500Y-91003469D01*
X190746176Y-91112439D01*
X190764870Y-91206420D01*
X190844059Y-91397598D01*
X190897764Y-91477974D01*
X190959024Y-91569657D01*
X191105342Y-91715975D01*
X191105345Y-91715977D01*
X191277402Y-91830941D01*
X191468580Y-91910130D01*
X191671530Y-91950499D01*
X191671534Y-91950500D01*
X191671535Y-91950500D01*
X192128466Y-91950500D01*
X192128467Y-91950499D01*
X192331420Y-91910130D01*
X192522598Y-91830941D01*
X192694655Y-91715977D01*
X192840977Y-91569655D01*
X192955941Y-91397598D01*
X193035130Y-91206420D01*
X193075500Y-91003465D01*
X193075500Y-90796535D01*
X193035130Y-90593580D01*
X192955941Y-90402402D01*
X192840977Y-90230345D01*
X192840975Y-90230342D01*
X192694657Y-90084024D01*
X192522596Y-89969057D01*
X192412009Y-89923251D01*
X192357606Y-89879410D01*
X192335541Y-89813116D01*
X192352820Y-89745416D01*
X192403958Y-89697806D01*
X192421144Y-89690759D01*
X192543217Y-89651095D01*
X192732557Y-89554620D01*
X192904459Y-89429727D01*
X192904464Y-89429723D01*
X193054723Y-89279464D01*
X193054727Y-89279459D01*
X193179620Y-89107557D01*
X193276095Y-88918217D01*
X193341757Y-88716129D01*
X193341757Y-88716126D01*
X193352231Y-88650000D01*
X192304146Y-88650000D01*
X192342630Y-88583343D01*
X192375000Y-88462535D01*
X192375000Y-88337465D01*
X192342630Y-88216657D01*
X192304146Y-88150000D01*
X193352231Y-88150000D01*
X193341757Y-88083873D01*
X193341757Y-88083870D01*
X193276095Y-87881782D01*
X193179620Y-87692442D01*
X193054727Y-87520540D01*
X193054723Y-87520535D01*
X192904464Y-87370276D01*
X192904459Y-87370272D01*
X192732557Y-87245379D01*
X192543217Y-87148904D01*
X192341128Y-87083242D01*
X192150000Y-87052969D01*
X192150000Y-87995854D01*
X192083343Y-87957370D01*
X191962535Y-87925000D01*
X191837465Y-87925000D01*
X191716657Y-87957370D01*
X191650000Y-87995854D01*
X191650000Y-87052969D01*
X191458872Y-87083242D01*
X191458869Y-87083242D01*
X191256782Y-87148904D01*
X191067442Y-87245379D01*
X190895540Y-87370272D01*
X190895535Y-87370276D01*
X190745276Y-87520535D01*
X190745272Y-87520540D01*
X190620379Y-87692442D01*
X190523904Y-87881782D01*
X190458242Y-88083870D01*
X190458242Y-88083873D01*
X190447769Y-88150000D01*
X186152231Y-88150000D01*
X186141757Y-88083873D01*
X186141757Y-88083870D01*
X186076095Y-87881782D01*
X185979620Y-87692442D01*
X185854727Y-87520540D01*
X185854723Y-87520535D01*
X185704464Y-87370276D01*
X185704459Y-87370272D01*
X185532557Y-87245379D01*
X185343217Y-87148904D01*
X185141128Y-87083242D01*
X184950000Y-87052969D01*
X184950000Y-87995854D01*
X184883343Y-87957370D01*
X184762535Y-87925000D01*
X184637465Y-87925000D01*
X184516657Y-87957370D01*
X184450000Y-87995854D01*
X184450000Y-87052969D01*
X184258872Y-87083242D01*
X184258869Y-87083242D01*
X184056782Y-87148904D01*
X183867442Y-87245379D01*
X183695540Y-87370272D01*
X183695535Y-87370276D01*
X183545276Y-87520535D01*
X183545272Y-87520540D01*
X183420379Y-87692442D01*
X183323904Y-87881782D01*
X183258242Y-88083870D01*
X183258242Y-88083873D01*
X183247769Y-88150000D01*
X179725500Y-88150000D01*
X179725500Y-88043982D01*
X179696503Y-87935763D01*
X179640485Y-87838737D01*
X179561263Y-87759515D01*
X179464237Y-87703497D01*
X179356018Y-87674500D01*
X179243982Y-87674500D01*
X179135763Y-87703497D01*
X179135760Y-87703498D01*
X179038740Y-87759513D01*
X179038734Y-87759517D01*
X178959517Y-87838734D01*
X178959513Y-87838740D01*
X178903498Y-87935760D01*
X178903497Y-87935763D01*
X178874500Y-88043982D01*
X126625500Y-88043982D01*
X126625500Y-86536530D01*
X138099500Y-86536530D01*
X138099500Y-86743469D01*
X138139868Y-86946412D01*
X138139870Y-86946420D01*
X138219059Y-87137598D01*
X138276541Y-87223626D01*
X138334024Y-87309657D01*
X138480342Y-87455975D01*
X138480345Y-87455977D01*
X138652402Y-87570941D01*
X138843580Y-87650130D01*
X139046530Y-87690499D01*
X139046534Y-87690500D01*
X139046535Y-87690500D01*
X139253466Y-87690500D01*
X139253467Y-87690499D01*
X139456420Y-87650130D01*
X139647598Y-87570941D01*
X139819655Y-87455977D01*
X139965977Y-87309655D01*
X140080941Y-87137598D01*
X140160130Y-86946420D01*
X140200500Y-86743465D01*
X140200500Y-86536535D01*
X140200499Y-86536530D01*
X140639500Y-86536530D01*
X140639500Y-86743469D01*
X140679868Y-86946412D01*
X140679870Y-86946420D01*
X140759059Y-87137598D01*
X140816541Y-87223626D01*
X140874024Y-87309657D01*
X141020342Y-87455975D01*
X141020345Y-87455977D01*
X141192402Y-87570941D01*
X141383580Y-87650130D01*
X141586530Y-87690499D01*
X141586534Y-87690500D01*
X141586535Y-87690500D01*
X141793466Y-87690500D01*
X141793467Y-87690499D01*
X141996420Y-87650130D01*
X142187598Y-87570941D01*
X142359655Y-87455977D01*
X142505977Y-87309655D01*
X142620941Y-87137598D01*
X142700130Y-86946420D01*
X142740500Y-86743465D01*
X142740500Y-86536535D01*
X142700130Y-86333580D01*
X142620941Y-86142402D01*
X142505977Y-85970345D01*
X142505975Y-85970342D01*
X142359657Y-85824024D01*
X142218744Y-85729870D01*
X142187598Y-85709059D01*
X141996420Y-85629870D01*
X141996412Y-85629868D01*
X141793469Y-85589500D01*
X141793465Y-85589500D01*
X141586535Y-85589500D01*
X141586530Y-85589500D01*
X141383587Y-85629868D01*
X141383579Y-85629870D01*
X141192403Y-85709058D01*
X141020342Y-85824024D01*
X140874024Y-85970342D01*
X140759058Y-86142403D01*
X140679870Y-86333579D01*
X140679868Y-86333587D01*
X140639500Y-86536530D01*
X140200499Y-86536530D01*
X140160130Y-86333580D01*
X140080941Y-86142402D01*
X139965977Y-85970345D01*
X139965975Y-85970342D01*
X139819657Y-85824024D01*
X139678744Y-85729870D01*
X139647598Y-85709059D01*
X139456420Y-85629870D01*
X139456412Y-85629868D01*
X139253469Y-85589500D01*
X139253465Y-85589500D01*
X139046535Y-85589500D01*
X139046530Y-85589500D01*
X138843587Y-85629868D01*
X138843579Y-85629870D01*
X138652403Y-85709058D01*
X138480342Y-85824024D01*
X138334024Y-85970342D01*
X138219058Y-86142403D01*
X138139870Y-86333579D01*
X138139868Y-86333587D01*
X138099500Y-86536530D01*
X126625500Y-86536530D01*
X126625500Y-81453753D01*
X137800000Y-81453753D01*
X137800000Y-81666246D01*
X137833242Y-81876127D01*
X137833242Y-81876130D01*
X137898904Y-82078217D01*
X137995375Y-82267550D01*
X138034728Y-82321716D01*
X138667037Y-81689408D01*
X138684075Y-81752993D01*
X138749901Y-81867007D01*
X138842993Y-81960099D01*
X138957007Y-82025925D01*
X139020590Y-82042962D01*
X138388282Y-82675269D01*
X138388282Y-82675270D01*
X138442449Y-82714624D01*
X138631782Y-82811095D01*
X138807973Y-82868343D01*
X138865648Y-82907780D01*
X138892847Y-82972139D01*
X138880932Y-83040985D01*
X138833688Y-83092461D01*
X138817108Y-83100835D01*
X138652403Y-83169057D01*
X138480342Y-83284024D01*
X138334024Y-83430342D01*
X138219058Y-83602403D01*
X138139870Y-83793579D01*
X138139868Y-83793587D01*
X138099500Y-83996530D01*
X138099500Y-84203469D01*
X138139868Y-84406412D01*
X138139870Y-84406420D01*
X138219058Y-84597596D01*
X138334024Y-84769657D01*
X138480342Y-84915975D01*
X138480345Y-84915977D01*
X138652402Y-85030941D01*
X138843580Y-85110130D01*
X139046530Y-85150499D01*
X139046534Y-85150500D01*
X139046535Y-85150500D01*
X139253466Y-85150500D01*
X139253467Y-85150499D01*
X139456420Y-85110130D01*
X139647598Y-85030941D01*
X139819655Y-84915977D01*
X139965977Y-84769655D01*
X140080941Y-84597598D01*
X140160130Y-84406420D01*
X140200500Y-84203465D01*
X140200500Y-83996535D01*
X140160130Y-83793580D01*
X140080941Y-83602402D01*
X139965977Y-83430345D01*
X139965975Y-83430342D01*
X139819657Y-83284024D01*
X139698083Y-83202792D01*
X139647598Y-83169059D01*
X139647593Y-83169057D01*
X139534348Y-83122149D01*
X139482890Y-83100834D01*
X139428488Y-83056994D01*
X139406423Y-82990700D01*
X139423702Y-82923001D01*
X139474839Y-82875390D01*
X139492026Y-82868343D01*
X139668217Y-82811095D01*
X139857554Y-82714622D01*
X139911716Y-82675270D01*
X139911717Y-82675270D01*
X139279408Y-82042962D01*
X139342993Y-82025925D01*
X139457007Y-81960099D01*
X139550099Y-81867007D01*
X139615925Y-81752993D01*
X139632962Y-81689408D01*
X140265270Y-82321717D01*
X140265270Y-82321716D01*
X140304622Y-82267554D01*
X140309514Y-82257954D01*
X140357488Y-82207157D01*
X140425308Y-82190361D01*
X140491444Y-82212897D01*
X140530486Y-82257954D01*
X140535375Y-82267550D01*
X140574728Y-82321716D01*
X141207037Y-81689408D01*
X141224075Y-81752993D01*
X141289901Y-81867007D01*
X141382993Y-81960099D01*
X141497007Y-82025925D01*
X141560590Y-82042962D01*
X140928282Y-82675269D01*
X140928282Y-82675270D01*
X140982449Y-82714624D01*
X141171782Y-82811095D01*
X141347973Y-82868343D01*
X141405648Y-82907780D01*
X141432847Y-82972139D01*
X141420932Y-83040985D01*
X141373688Y-83092461D01*
X141357108Y-83100835D01*
X141192403Y-83169057D01*
X141020342Y-83284024D01*
X140874024Y-83430342D01*
X140759058Y-83602403D01*
X140679870Y-83793579D01*
X140679868Y-83793587D01*
X140639500Y-83996530D01*
X140639500Y-84203469D01*
X140679868Y-84406412D01*
X140679870Y-84406420D01*
X140759058Y-84597596D01*
X140874024Y-84769657D01*
X141020342Y-84915975D01*
X141020345Y-84915977D01*
X141192402Y-85030941D01*
X141383580Y-85110130D01*
X141586530Y-85150499D01*
X141586534Y-85150500D01*
X141586535Y-85150500D01*
X141793466Y-85150500D01*
X141793467Y-85150499D01*
X141996420Y-85110130D01*
X142187598Y-85030941D01*
X142359655Y-84915977D01*
X142505977Y-84769655D01*
X142620941Y-84597598D01*
X142700130Y-84406420D01*
X142740500Y-84203465D01*
X142740500Y-84093753D01*
X173100000Y-84093753D01*
X173100000Y-84306246D01*
X173133242Y-84516127D01*
X173133242Y-84516130D01*
X173198904Y-84718217D01*
X173295375Y-84907550D01*
X173334728Y-84961716D01*
X173967037Y-84329408D01*
X173984075Y-84392993D01*
X174049901Y-84507007D01*
X174142993Y-84600099D01*
X174257007Y-84665925D01*
X174320590Y-84682962D01*
X173688282Y-85315269D01*
X173688282Y-85315270D01*
X173742449Y-85354624D01*
X173931782Y-85451095D01*
X174107973Y-85508343D01*
X174165648Y-85547780D01*
X174192847Y-85612139D01*
X174180932Y-85680985D01*
X174133688Y-85732461D01*
X174117108Y-85740835D01*
X173952403Y-85809057D01*
X173780342Y-85924024D01*
X173634024Y-86070342D01*
X173519058Y-86242403D01*
X173439870Y-86433579D01*
X173439868Y-86433587D01*
X173399500Y-86636530D01*
X173399500Y-86843469D01*
X173439868Y-87046412D01*
X173439870Y-87046420D01*
X173519058Y-87237596D01*
X173634024Y-87409657D01*
X173780342Y-87555975D01*
X173780345Y-87555977D01*
X173952402Y-87670941D01*
X174143580Y-87750130D01*
X174346530Y-87790499D01*
X174346534Y-87790500D01*
X174346535Y-87790500D01*
X174553466Y-87790500D01*
X174553467Y-87790499D01*
X174756420Y-87750130D01*
X174947598Y-87670941D01*
X175119655Y-87555977D01*
X175265977Y-87409655D01*
X175380941Y-87237598D01*
X175460130Y-87046420D01*
X175500500Y-86843465D01*
X175500500Y-86636535D01*
X175460130Y-86433580D01*
X175380941Y-86242402D01*
X175265977Y-86070345D01*
X175265975Y-86070342D01*
X175119657Y-85924024D01*
X175033626Y-85866541D01*
X174947598Y-85809059D01*
X174947593Y-85809057D01*
X174885891Y-85783499D01*
X174782890Y-85740834D01*
X174728488Y-85696994D01*
X174706423Y-85630700D01*
X174723702Y-85563001D01*
X174774839Y-85515390D01*
X174792026Y-85508343D01*
X174968217Y-85451095D01*
X175157554Y-85354622D01*
X175211716Y-85315270D01*
X175211717Y-85315270D01*
X174579408Y-84682962D01*
X174642993Y-84665925D01*
X174757007Y-84600099D01*
X174850099Y-84507007D01*
X174915925Y-84392993D01*
X174932962Y-84329408D01*
X175565270Y-84961717D01*
X175565270Y-84961716D01*
X175604622Y-84907554D01*
X175609514Y-84897954D01*
X175657488Y-84847157D01*
X175725308Y-84830361D01*
X175791444Y-84852897D01*
X175830486Y-84897954D01*
X175835375Y-84907550D01*
X175874728Y-84961716D01*
X176507037Y-84329408D01*
X176524075Y-84392993D01*
X176589901Y-84507007D01*
X176682993Y-84600099D01*
X176797007Y-84665925D01*
X176860590Y-84682962D01*
X176228282Y-85315269D01*
X176228282Y-85315270D01*
X176282449Y-85354624D01*
X176471782Y-85451095D01*
X176647973Y-85508343D01*
X176705648Y-85547780D01*
X176732847Y-85612139D01*
X176720932Y-85680985D01*
X176673688Y-85732461D01*
X176657108Y-85740835D01*
X176492403Y-85809057D01*
X176320342Y-85924024D01*
X176174024Y-86070342D01*
X176059058Y-86242403D01*
X175979870Y-86433579D01*
X175979868Y-86433587D01*
X175939500Y-86636530D01*
X175939500Y-86843469D01*
X175979868Y-87046412D01*
X175979870Y-87046420D01*
X176059058Y-87237596D01*
X176174024Y-87409657D01*
X176320342Y-87555975D01*
X176320345Y-87555977D01*
X176492402Y-87670941D01*
X176683580Y-87750130D01*
X176886530Y-87790499D01*
X176886534Y-87790500D01*
X176886535Y-87790500D01*
X177093466Y-87790500D01*
X177093467Y-87790499D01*
X177296420Y-87750130D01*
X177487598Y-87670941D01*
X177659655Y-87555977D01*
X177805977Y-87409655D01*
X177920941Y-87237598D01*
X178000130Y-87046420D01*
X178040500Y-86843465D01*
X178040500Y-86636535D01*
X178000130Y-86433580D01*
X177920941Y-86242402D01*
X177805977Y-86070345D01*
X177805975Y-86070342D01*
X177659657Y-85924024D01*
X177573626Y-85866541D01*
X177487598Y-85809059D01*
X177487593Y-85809057D01*
X177425891Y-85783499D01*
X177322890Y-85740834D01*
X177268488Y-85696994D01*
X177246423Y-85630700D01*
X177263702Y-85563001D01*
X177314839Y-85515390D01*
X177332026Y-85508343D01*
X177508217Y-85451095D01*
X177697554Y-85354622D01*
X177751716Y-85315270D01*
X177751717Y-85315270D01*
X177119408Y-84682962D01*
X177182993Y-84665925D01*
X177297007Y-84600099D01*
X177390099Y-84507007D01*
X177455925Y-84392993D01*
X177472962Y-84329408D01*
X178105270Y-84961717D01*
X178105270Y-84961716D01*
X178144622Y-84907554D01*
X178241095Y-84718217D01*
X178306757Y-84516130D01*
X178306757Y-84516127D01*
X178340000Y-84306246D01*
X178340000Y-84093753D01*
X178306757Y-83883872D01*
X178306757Y-83883869D01*
X178241095Y-83681782D01*
X178144624Y-83492449D01*
X178105270Y-83438282D01*
X178105269Y-83438282D01*
X177472962Y-84070590D01*
X177455925Y-84007007D01*
X177390099Y-83892993D01*
X177297007Y-83799901D01*
X177182993Y-83734075D01*
X177119409Y-83717037D01*
X177751716Y-83084728D01*
X177697550Y-83045375D01*
X177508216Y-82948904D01*
X177332026Y-82891656D01*
X177274350Y-82852218D01*
X177247152Y-82787860D01*
X177259067Y-82719013D01*
X177306311Y-82667538D01*
X177322882Y-82659168D01*
X177487598Y-82590941D01*
X177659655Y-82475977D01*
X177805977Y-82329655D01*
X177920941Y-82157598D01*
X178000130Y-81966420D01*
X178040500Y-81763465D01*
X178040500Y-81556535D01*
X178040500Y-81556534D01*
X178040500Y-81556532D01*
X178038351Y-81545730D01*
X183524500Y-81545730D01*
X183524500Y-82854269D01*
X183527353Y-82884699D01*
X183527353Y-82884701D01*
X183557950Y-82972139D01*
X183572207Y-83012882D01*
X183652850Y-83122150D01*
X183762118Y-83202793D01*
X183804845Y-83217744D01*
X183890299Y-83247646D01*
X183920730Y-83250500D01*
X183920734Y-83250500D01*
X185479270Y-83250500D01*
X185509699Y-83247646D01*
X185509701Y-83247646D01*
X185573790Y-83225219D01*
X185637882Y-83202793D01*
X185747150Y-83122150D01*
X185827793Y-83012882D01*
X185870212Y-82891656D01*
X185872646Y-82884701D01*
X185872646Y-82884699D01*
X185875500Y-82854269D01*
X185875500Y-81545730D01*
X190699500Y-81545730D01*
X190699500Y-82854269D01*
X190702353Y-82884699D01*
X190702353Y-82884701D01*
X190732950Y-82972139D01*
X190747207Y-83012882D01*
X190827850Y-83122150D01*
X190937118Y-83202793D01*
X190979845Y-83217744D01*
X191065299Y-83247646D01*
X191095730Y-83250500D01*
X191095734Y-83250500D01*
X192654270Y-83250500D01*
X192684699Y-83247646D01*
X192684701Y-83247646D01*
X192748790Y-83225219D01*
X192812882Y-83202793D01*
X192922150Y-83122150D01*
X193002793Y-83012882D01*
X193045212Y-82891656D01*
X193047646Y-82884701D01*
X193047646Y-82884699D01*
X193050500Y-82854269D01*
X193050500Y-81545730D01*
X193047646Y-81515300D01*
X193047646Y-81515298D01*
X193002793Y-81387119D01*
X193002792Y-81387117D01*
X192978046Y-81353587D01*
X192922150Y-81277850D01*
X192812882Y-81197207D01*
X192812880Y-81197206D01*
X192684700Y-81152353D01*
X192654270Y-81149500D01*
X192654266Y-81149500D01*
X191095734Y-81149500D01*
X191095730Y-81149500D01*
X191065300Y-81152353D01*
X191065298Y-81152353D01*
X190937119Y-81197206D01*
X190937117Y-81197207D01*
X190827850Y-81277850D01*
X190747207Y-81387117D01*
X190747206Y-81387119D01*
X190702353Y-81515298D01*
X190702353Y-81515300D01*
X190699500Y-81545730D01*
X185875500Y-81545730D01*
X185872646Y-81515300D01*
X185872646Y-81515298D01*
X185827793Y-81387119D01*
X185827792Y-81387117D01*
X185803046Y-81353587D01*
X185747150Y-81277850D01*
X185637882Y-81197207D01*
X185637880Y-81197206D01*
X185509700Y-81152353D01*
X185479270Y-81149500D01*
X185479266Y-81149500D01*
X183920734Y-81149500D01*
X183920730Y-81149500D01*
X183890300Y-81152353D01*
X183890298Y-81152353D01*
X183762119Y-81197206D01*
X183762117Y-81197207D01*
X183652850Y-81277850D01*
X183572207Y-81387117D01*
X183572206Y-81387119D01*
X183527353Y-81515298D01*
X183527353Y-81515300D01*
X183524500Y-81545730D01*
X178038351Y-81545730D01*
X178006801Y-81387117D01*
X178000130Y-81353580D01*
X177920941Y-81162402D01*
X177805977Y-80990345D01*
X177805975Y-80990342D01*
X177659657Y-80844024D01*
X177500979Y-80738000D01*
X177487598Y-80729059D01*
X177441897Y-80710129D01*
X177296420Y-80649870D01*
X177296412Y-80649868D01*
X177093469Y-80609500D01*
X177093465Y-80609500D01*
X176886535Y-80609500D01*
X176886530Y-80609500D01*
X176683587Y-80649868D01*
X176683579Y-80649870D01*
X176492403Y-80729058D01*
X176320342Y-80844024D01*
X176174024Y-80990342D01*
X176059058Y-81162403D01*
X175979870Y-81353579D01*
X175979868Y-81353587D01*
X175939500Y-81556530D01*
X175939500Y-81763469D01*
X175979868Y-81966412D01*
X175979870Y-81966420D01*
X176059059Y-82157598D01*
X176092173Y-82207157D01*
X176174024Y-82329657D01*
X176320342Y-82475975D01*
X176492405Y-82590943D01*
X176595043Y-82633456D01*
X176657108Y-82659164D01*
X176711511Y-82703005D01*
X176733576Y-82769299D01*
X176716297Y-82836998D01*
X176665160Y-82884609D01*
X176647974Y-82891656D01*
X176471781Y-82948905D01*
X176282439Y-83045380D01*
X176228282Y-83084727D01*
X176228282Y-83084728D01*
X176860591Y-83717037D01*
X176797007Y-83734075D01*
X176682993Y-83799901D01*
X176589901Y-83892993D01*
X176524075Y-84007007D01*
X176507037Y-84070591D01*
X175874728Y-83438282D01*
X175874727Y-83438282D01*
X175835380Y-83492440D01*
X175830483Y-83502051D01*
X175782506Y-83552845D01*
X175714684Y-83569638D01*
X175648550Y-83547098D01*
X175609516Y-83502048D01*
X175604626Y-83492452D01*
X175565270Y-83438282D01*
X175565269Y-83438282D01*
X174932962Y-84070590D01*
X174915925Y-84007007D01*
X174850099Y-83892993D01*
X174757007Y-83799901D01*
X174642993Y-83734075D01*
X174579409Y-83717037D01*
X175211716Y-83084728D01*
X175157550Y-83045375D01*
X174968216Y-82948904D01*
X174792026Y-82891656D01*
X174734350Y-82852218D01*
X174707152Y-82787860D01*
X174719067Y-82719013D01*
X174766311Y-82667538D01*
X174782882Y-82659168D01*
X174947598Y-82590941D01*
X175119655Y-82475977D01*
X175265977Y-82329655D01*
X175380941Y-82157598D01*
X175460130Y-81966420D01*
X175500500Y-81763465D01*
X175500500Y-81556535D01*
X175500499Y-81556532D01*
X175500499Y-81556530D01*
X175492298Y-81515300D01*
X175460130Y-81353580D01*
X175380941Y-81162402D01*
X175265977Y-80990345D01*
X175265975Y-80990342D01*
X175119657Y-80844024D01*
X174960979Y-80738000D01*
X174947598Y-80729059D01*
X174901897Y-80710129D01*
X174756420Y-80649870D01*
X174756412Y-80649868D01*
X174553469Y-80609500D01*
X174553465Y-80609500D01*
X174346535Y-80609500D01*
X174346530Y-80609500D01*
X174143587Y-80649868D01*
X174143579Y-80649870D01*
X173952403Y-80729058D01*
X173780342Y-80844024D01*
X173634024Y-80990342D01*
X173519058Y-81162403D01*
X173439870Y-81353579D01*
X173439868Y-81353587D01*
X173399500Y-81556530D01*
X173399500Y-81763469D01*
X173439868Y-81966412D01*
X173439870Y-81966420D01*
X173519059Y-82157598D01*
X173552173Y-82207157D01*
X173634024Y-82329657D01*
X173780342Y-82475975D01*
X173952405Y-82590943D01*
X174055043Y-82633456D01*
X174117108Y-82659164D01*
X174171511Y-82703005D01*
X174193576Y-82769299D01*
X174176297Y-82836998D01*
X174125160Y-82884609D01*
X174107974Y-82891656D01*
X173931781Y-82948905D01*
X173742439Y-83045380D01*
X173688282Y-83084727D01*
X173688282Y-83084728D01*
X174320591Y-83717037D01*
X174257007Y-83734075D01*
X174142993Y-83799901D01*
X174049901Y-83892993D01*
X173984075Y-84007007D01*
X173967037Y-84070591D01*
X173334728Y-83438282D01*
X173334727Y-83438282D01*
X173295380Y-83492439D01*
X173198904Y-83681782D01*
X173133242Y-83883869D01*
X173133242Y-83883872D01*
X173100000Y-84093753D01*
X142740500Y-84093753D01*
X142740500Y-83996535D01*
X142700130Y-83793580D01*
X142620941Y-83602402D01*
X142505977Y-83430345D01*
X142505975Y-83430342D01*
X142359657Y-83284024D01*
X142238083Y-83202792D01*
X142187598Y-83169059D01*
X142187593Y-83169057D01*
X142074348Y-83122149D01*
X142022890Y-83100834D01*
X141968488Y-83056994D01*
X141946423Y-82990700D01*
X141963702Y-82923001D01*
X142014839Y-82875390D01*
X142032026Y-82868343D01*
X142208217Y-82811095D01*
X142397554Y-82714622D01*
X142451716Y-82675270D01*
X142451717Y-82675270D01*
X141819408Y-82042962D01*
X141882993Y-82025925D01*
X141997007Y-81960099D01*
X142090099Y-81867007D01*
X142155925Y-81752993D01*
X142172962Y-81689409D01*
X142805270Y-82321717D01*
X142805270Y-82321716D01*
X142844622Y-82267554D01*
X142941095Y-82078217D01*
X143006757Y-81876130D01*
X143006757Y-81876127D01*
X143040000Y-81666246D01*
X143040000Y-81453753D01*
X143006757Y-81243872D01*
X143006757Y-81243869D01*
X142941095Y-81041782D01*
X142844624Y-80852449D01*
X142805270Y-80798282D01*
X142805269Y-80798282D01*
X142172962Y-81430590D01*
X142155925Y-81367007D01*
X142090099Y-81252993D01*
X141997007Y-81159901D01*
X141882993Y-81094075D01*
X141819409Y-81077037D01*
X142451716Y-80444728D01*
X142397550Y-80405375D01*
X142306220Y-80358840D01*
X142208217Y-80308904D01*
X142046878Y-80256482D01*
X163162000Y-80256482D01*
X163162000Y-80368518D01*
X163190997Y-80476737D01*
X163247015Y-80573763D01*
X163326237Y-80652985D01*
X163423263Y-80709003D01*
X163531482Y-80738000D01*
X163531484Y-80738000D01*
X163643516Y-80738000D01*
X163643518Y-80738000D01*
X163751737Y-80709003D01*
X163848763Y-80652985D01*
X163927985Y-80573763D01*
X163984003Y-80476737D01*
X164013000Y-80368518D01*
X164013000Y-80256482D01*
X163984003Y-80148263D01*
X163927985Y-80051237D01*
X163848763Y-79972015D01*
X163751737Y-79915997D01*
X163643518Y-79887000D01*
X163531482Y-79887000D01*
X163423263Y-79915997D01*
X163423260Y-79915998D01*
X163326240Y-79972013D01*
X163326234Y-79972017D01*
X163247017Y-80051234D01*
X163247013Y-80051240D01*
X163190998Y-80148260D01*
X163190997Y-80148263D01*
X163162000Y-80256482D01*
X142046878Y-80256482D01*
X142006129Y-80243242D01*
X141796246Y-80210000D01*
X141583754Y-80210000D01*
X141373872Y-80243242D01*
X141373869Y-80243242D01*
X141171782Y-80308904D01*
X140982439Y-80405380D01*
X140928282Y-80444727D01*
X140928282Y-80444728D01*
X141560591Y-81077037D01*
X141497007Y-81094075D01*
X141382993Y-81159901D01*
X141289901Y-81252993D01*
X141224075Y-81367007D01*
X141207037Y-81430591D01*
X140574728Y-80798282D01*
X140574727Y-80798282D01*
X140535380Y-80852440D01*
X140530483Y-80862051D01*
X140482506Y-80912845D01*
X140414684Y-80929638D01*
X140348550Y-80907098D01*
X140309516Y-80862048D01*
X140304626Y-80852452D01*
X140265270Y-80798282D01*
X140265269Y-80798282D01*
X139632962Y-81430590D01*
X139615925Y-81367007D01*
X139550099Y-81252993D01*
X139457007Y-81159901D01*
X139342993Y-81094075D01*
X139279409Y-81077037D01*
X139911716Y-80444728D01*
X139857550Y-80405375D01*
X139668217Y-80308904D01*
X139466129Y-80243242D01*
X139256246Y-80210000D01*
X139043754Y-80210000D01*
X138833872Y-80243242D01*
X138833869Y-80243242D01*
X138631782Y-80308904D01*
X138442439Y-80405380D01*
X138388282Y-80444727D01*
X138388282Y-80444728D01*
X139020591Y-81077037D01*
X138957007Y-81094075D01*
X138842993Y-81159901D01*
X138749901Y-81252993D01*
X138684075Y-81367007D01*
X138667037Y-81430591D01*
X138034728Y-80798282D01*
X138034727Y-80798282D01*
X137995380Y-80852439D01*
X137898904Y-81041782D01*
X137833242Y-81243869D01*
X137833242Y-81243872D01*
X137800000Y-81453753D01*
X126625500Y-81453753D01*
X126625500Y-79179813D01*
X145710331Y-79179813D01*
X145710331Y-79291849D01*
X145739328Y-79400068D01*
X145795346Y-79497094D01*
X145874568Y-79576316D01*
X145971594Y-79632334D01*
X146079813Y-79661331D01*
X146079815Y-79661331D01*
X146191847Y-79661331D01*
X146191849Y-79661331D01*
X146300068Y-79632334D01*
X146397094Y-79576316D01*
X146476316Y-79497094D01*
X146532334Y-79400068D01*
X146561331Y-79291849D01*
X146561331Y-79179813D01*
X146532334Y-79071594D01*
X146476316Y-78974568D01*
X146397094Y-78895346D01*
X146300068Y-78839328D01*
X146191849Y-78810331D01*
X146079813Y-78810331D01*
X145971594Y-78839328D01*
X145971591Y-78839329D01*
X145874571Y-78895344D01*
X145874565Y-78895348D01*
X145795348Y-78974565D01*
X145795344Y-78974571D01*
X145739329Y-79071591D01*
X145739328Y-79071594D01*
X145710331Y-79179813D01*
X126625500Y-79179813D01*
X126625500Y-76485837D01*
X155649500Y-76485837D01*
X155649500Y-76714162D01*
X155685215Y-76939660D01*
X155755770Y-77156803D01*
X155809644Y-77262535D01*
X155859421Y-77360228D01*
X155993621Y-77544937D01*
X156155063Y-77706379D01*
X156339772Y-77840579D01*
X156435884Y-77889550D01*
X156543196Y-77944229D01*
X156543198Y-77944229D01*
X156543201Y-77944231D01*
X156659592Y-77982049D01*
X156760339Y-78014784D01*
X156985838Y-78050500D01*
X156985843Y-78050500D01*
X157214162Y-78050500D01*
X157439660Y-78014784D01*
X157656799Y-77944231D01*
X157860228Y-77840579D01*
X158044937Y-77706379D01*
X158206379Y-77544937D01*
X158340579Y-77360228D01*
X158340581Y-77360225D01*
X158342410Y-77356636D01*
X158444229Y-77156803D01*
X158444229Y-77156802D01*
X158444231Y-77156799D01*
X158514784Y-76939660D01*
X158523620Y-76883873D01*
X158545777Y-76743982D01*
X159787000Y-76743982D01*
X159787000Y-76856018D01*
X159815997Y-76964237D01*
X159872015Y-77061263D01*
X159951237Y-77140485D01*
X160048263Y-77196503D01*
X160156482Y-77225500D01*
X160156484Y-77225500D01*
X160268516Y-77225500D01*
X160268518Y-77225500D01*
X160376737Y-77196503D01*
X160473763Y-77140485D01*
X160552985Y-77061263D01*
X160609003Y-76964237D01*
X160638000Y-76856018D01*
X160638000Y-76743982D01*
X168987000Y-76743982D01*
X168987000Y-76856018D01*
X169015997Y-76964237D01*
X169072015Y-77061263D01*
X169151237Y-77140485D01*
X169248263Y-77196503D01*
X169356482Y-77225500D01*
X169356484Y-77225500D01*
X169468516Y-77225500D01*
X169468518Y-77225500D01*
X169576737Y-77196503D01*
X169673763Y-77140485D01*
X169752985Y-77061263D01*
X169809003Y-76964237D01*
X169812818Y-76950000D01*
X183247769Y-76950000D01*
X184295854Y-76950000D01*
X184257370Y-77016657D01*
X184225000Y-77137465D01*
X184225000Y-77262535D01*
X184257370Y-77383343D01*
X184295854Y-77450000D01*
X183247769Y-77450000D01*
X183258242Y-77516126D01*
X183258242Y-77516129D01*
X183323904Y-77718217D01*
X183420379Y-77907557D01*
X183545272Y-78079459D01*
X183545276Y-78079464D01*
X183695535Y-78229723D01*
X183695540Y-78229727D01*
X183867442Y-78354620D01*
X184056782Y-78451095D01*
X184178855Y-78490759D01*
X184236530Y-78530196D01*
X184263729Y-78594555D01*
X184251815Y-78663401D01*
X184204570Y-78714877D01*
X184187990Y-78723251D01*
X184077404Y-78769057D01*
X183905342Y-78884024D01*
X183759024Y-79030342D01*
X183644058Y-79202403D01*
X183564870Y-79393579D01*
X183564868Y-79393587D01*
X183524500Y-79596530D01*
X183524500Y-79803469D01*
X183564868Y-80006412D01*
X183564870Y-80006420D01*
X183644058Y-80197596D01*
X183759024Y-80369657D01*
X183905342Y-80515975D01*
X183905345Y-80515977D01*
X184077402Y-80630941D01*
X184268580Y-80710130D01*
X184408688Y-80737999D01*
X184471530Y-80750499D01*
X184471534Y-80750500D01*
X184471535Y-80750500D01*
X184928466Y-80750500D01*
X184928467Y-80750499D01*
X185131420Y-80710130D01*
X185322598Y-80630941D01*
X185494655Y-80515977D01*
X185640977Y-80369655D01*
X185755941Y-80197598D01*
X185835130Y-80006420D01*
X185875500Y-79803465D01*
X185875500Y-79596535D01*
X185835130Y-79393580D01*
X185755941Y-79202402D01*
X185640977Y-79030345D01*
X185640975Y-79030342D01*
X185494657Y-78884024D01*
X185322596Y-78769057D01*
X185212009Y-78723251D01*
X185157606Y-78679410D01*
X185135541Y-78613116D01*
X185152820Y-78545416D01*
X185203958Y-78497806D01*
X185221144Y-78490759D01*
X185343217Y-78451095D01*
X185532557Y-78354620D01*
X185704459Y-78229727D01*
X185704464Y-78229723D01*
X185854723Y-78079464D01*
X185854727Y-78079459D01*
X185979620Y-77907557D01*
X186076095Y-77718217D01*
X186141757Y-77516129D01*
X186141757Y-77516126D01*
X186152231Y-77450000D01*
X185104146Y-77450000D01*
X185142630Y-77383343D01*
X185175000Y-77262535D01*
X185175000Y-77137465D01*
X185142630Y-77016657D01*
X185104146Y-76950000D01*
X186152231Y-76950000D01*
X190422769Y-76950000D01*
X191470854Y-76950000D01*
X191432370Y-77016657D01*
X191400000Y-77137465D01*
X191400000Y-77262535D01*
X191432370Y-77383343D01*
X191470854Y-77450000D01*
X190422769Y-77450000D01*
X190433242Y-77516126D01*
X190433242Y-77516129D01*
X190498904Y-77718217D01*
X190595379Y-77907557D01*
X190720272Y-78079459D01*
X190720276Y-78079464D01*
X190870535Y-78229723D01*
X190870540Y-78229727D01*
X191042442Y-78354620D01*
X191231782Y-78451095D01*
X191353855Y-78490759D01*
X191411530Y-78530196D01*
X191438729Y-78594555D01*
X191426815Y-78663401D01*
X191379570Y-78714877D01*
X191362990Y-78723251D01*
X191252404Y-78769057D01*
X191080342Y-78884024D01*
X190934024Y-79030342D01*
X190819058Y-79202403D01*
X190739870Y-79393579D01*
X190739868Y-79393587D01*
X190699500Y-79596530D01*
X190699500Y-79803469D01*
X190739868Y-80006412D01*
X190739870Y-80006420D01*
X190819058Y-80197596D01*
X190934024Y-80369657D01*
X191080342Y-80515975D01*
X191080345Y-80515977D01*
X191252402Y-80630941D01*
X191443580Y-80710130D01*
X191583688Y-80737999D01*
X191646530Y-80750499D01*
X191646534Y-80750500D01*
X191646535Y-80750500D01*
X192103466Y-80750500D01*
X192103467Y-80750499D01*
X192306420Y-80710130D01*
X192497598Y-80630941D01*
X192669655Y-80515977D01*
X192815977Y-80369655D01*
X192930941Y-80197598D01*
X193010130Y-80006420D01*
X193050500Y-79803465D01*
X193050500Y-79596535D01*
X193010130Y-79393580D01*
X192930941Y-79202402D01*
X192815977Y-79030345D01*
X192815975Y-79030342D01*
X192669657Y-78884024D01*
X192497596Y-78769057D01*
X192387009Y-78723251D01*
X192332606Y-78679410D01*
X192310541Y-78613116D01*
X192327820Y-78545416D01*
X192378958Y-78497806D01*
X192396144Y-78490759D01*
X192518217Y-78451095D01*
X192707557Y-78354620D01*
X192879459Y-78229727D01*
X192879464Y-78229723D01*
X193029723Y-78079464D01*
X193029727Y-78079459D01*
X193154620Y-77907557D01*
X193251095Y-77718217D01*
X193316757Y-77516129D01*
X193316757Y-77516126D01*
X193327231Y-77450000D01*
X192279146Y-77450000D01*
X192317630Y-77383343D01*
X192350000Y-77262535D01*
X192350000Y-77137465D01*
X192317630Y-77016657D01*
X192279146Y-76950000D01*
X193327231Y-76950000D01*
X193316757Y-76883873D01*
X193316757Y-76883870D01*
X193251095Y-76681782D01*
X193154620Y-76492442D01*
X193029727Y-76320540D01*
X193029723Y-76320535D01*
X192879464Y-76170276D01*
X192879459Y-76170272D01*
X192707557Y-76045379D01*
X192518217Y-75948904D01*
X192316128Y-75883242D01*
X192125000Y-75852969D01*
X192125000Y-76795854D01*
X192058343Y-76757370D01*
X191937535Y-76725000D01*
X191812465Y-76725000D01*
X191691657Y-76757370D01*
X191625000Y-76795854D01*
X191625000Y-75852969D01*
X191433872Y-75883242D01*
X191433869Y-75883242D01*
X191231782Y-75948904D01*
X191042442Y-76045379D01*
X190870540Y-76170272D01*
X190870535Y-76170276D01*
X190720276Y-76320535D01*
X190720272Y-76320540D01*
X190595379Y-76492442D01*
X190498904Y-76681782D01*
X190433242Y-76883870D01*
X190433242Y-76883873D01*
X190422769Y-76950000D01*
X186152231Y-76950000D01*
X186141757Y-76883873D01*
X186141757Y-76883870D01*
X186076095Y-76681782D01*
X185979620Y-76492442D01*
X185854727Y-76320540D01*
X185854723Y-76320535D01*
X185704464Y-76170276D01*
X185704459Y-76170272D01*
X185532557Y-76045379D01*
X185343217Y-75948904D01*
X185141128Y-75883242D01*
X184950000Y-75852969D01*
X184950000Y-76795854D01*
X184883343Y-76757370D01*
X184762535Y-76725000D01*
X184637465Y-76725000D01*
X184516657Y-76757370D01*
X184450000Y-76795854D01*
X184450000Y-75852969D01*
X184258872Y-75883242D01*
X184258869Y-75883242D01*
X184056782Y-75948904D01*
X183867442Y-76045379D01*
X183695540Y-76170272D01*
X183695535Y-76170276D01*
X183545276Y-76320535D01*
X183545272Y-76320540D01*
X183420379Y-76492442D01*
X183323904Y-76681782D01*
X183258242Y-76883870D01*
X183258242Y-76883873D01*
X183247769Y-76950000D01*
X169812818Y-76950000D01*
X169838000Y-76856018D01*
X169838000Y-76743982D01*
X169809003Y-76635763D01*
X169752985Y-76538737D01*
X169673763Y-76459515D01*
X169576737Y-76403497D01*
X169468518Y-76374500D01*
X169356482Y-76374500D01*
X169248263Y-76403497D01*
X169248260Y-76403498D01*
X169151240Y-76459513D01*
X169151234Y-76459517D01*
X169072017Y-76538734D01*
X169072013Y-76538740D01*
X169015998Y-76635760D01*
X169015997Y-76635763D01*
X168987000Y-76743982D01*
X160638000Y-76743982D01*
X160609003Y-76635763D01*
X160552985Y-76538737D01*
X160473763Y-76459515D01*
X160376737Y-76403497D01*
X160268518Y-76374500D01*
X160156482Y-76374500D01*
X160048263Y-76403497D01*
X160048260Y-76403498D01*
X159951240Y-76459513D01*
X159951234Y-76459517D01*
X159872017Y-76538734D01*
X159872013Y-76538740D01*
X159815998Y-76635760D01*
X159815997Y-76635763D01*
X159787000Y-76743982D01*
X158545777Y-76743982D01*
X158550137Y-76716457D01*
X158550137Y-76716456D01*
X158550499Y-76714165D01*
X158550500Y-76714164D01*
X158550500Y-76485837D01*
X158514784Y-76260339D01*
X158482049Y-76159592D01*
X158444231Y-76043201D01*
X158444229Y-76043198D01*
X158444229Y-76043196D01*
X158340578Y-75839771D01*
X158206379Y-75655063D01*
X158044937Y-75493621D01*
X157860228Y-75359421D01*
X157656803Y-75255770D01*
X157439660Y-75185215D01*
X157214162Y-75149500D01*
X157214157Y-75149500D01*
X156985843Y-75149500D01*
X156985838Y-75149500D01*
X156760339Y-75185215D01*
X156543196Y-75255770D01*
X156339771Y-75359421D01*
X156155061Y-75493622D01*
X155993622Y-75655061D01*
X155859421Y-75839771D01*
X155755770Y-76043196D01*
X155685215Y-76260339D01*
X155649500Y-76485837D01*
X126625500Y-76485837D01*
X126625500Y-70502706D01*
X126625618Y-70497297D01*
X126632601Y-70337351D01*
X126643813Y-70080542D01*
X126644752Y-70069813D01*
X126668832Y-69886911D01*
X129274500Y-69886911D01*
X129274500Y-70113088D01*
X129274501Y-70113104D01*
X129304023Y-70337347D01*
X129362567Y-70555834D01*
X129449120Y-70764794D01*
X129449127Y-70764809D01*
X129562220Y-70960692D01*
X129699915Y-71140140D01*
X129699921Y-71140147D01*
X129859852Y-71300078D01*
X129859859Y-71300084D01*
X130039307Y-71437779D01*
X130235190Y-71550872D01*
X130235205Y-71550879D01*
X130325259Y-71588180D01*
X130444166Y-71637433D01*
X130662649Y-71695976D01*
X130886905Y-71725500D01*
X130886912Y-71725500D01*
X131113088Y-71725500D01*
X131113095Y-71725500D01*
X131337351Y-71695976D01*
X131555834Y-71637433D01*
X131764806Y-71550874D01*
X131960693Y-71437779D01*
X132140142Y-71300083D01*
X132300083Y-71140142D01*
X132437779Y-70960693D01*
X132550874Y-70764806D01*
X132637433Y-70555834D01*
X132695976Y-70337351D01*
X132725500Y-70113095D01*
X132725500Y-69886911D01*
X183274500Y-69886911D01*
X183274500Y-70113088D01*
X183274501Y-70113104D01*
X183304023Y-70337347D01*
X183362567Y-70555834D01*
X183449120Y-70764794D01*
X183449127Y-70764809D01*
X183562220Y-70960692D01*
X183699915Y-71140140D01*
X183699921Y-71140147D01*
X183859852Y-71300078D01*
X183859859Y-71300084D01*
X184039307Y-71437779D01*
X184235190Y-71550872D01*
X184235205Y-71550879D01*
X184325259Y-71588180D01*
X184444166Y-71637433D01*
X184662649Y-71695976D01*
X184886905Y-71725500D01*
X184886912Y-71725500D01*
X185113088Y-71725500D01*
X185113095Y-71725500D01*
X185337351Y-71695976D01*
X185555834Y-71637433D01*
X185764806Y-71550874D01*
X185960693Y-71437779D01*
X186140142Y-71300083D01*
X186300083Y-71140142D01*
X186437779Y-70960693D01*
X186550874Y-70764806D01*
X186637433Y-70555834D01*
X186695976Y-70337351D01*
X186725500Y-70113095D01*
X186725500Y-69886911D01*
X190274500Y-69886911D01*
X190274500Y-70113088D01*
X190274501Y-70113104D01*
X190304023Y-70337347D01*
X190362567Y-70555834D01*
X190449120Y-70764794D01*
X190449127Y-70764809D01*
X190562220Y-70960692D01*
X190699915Y-71140140D01*
X190699921Y-71140147D01*
X190859852Y-71300078D01*
X190859859Y-71300084D01*
X191039307Y-71437779D01*
X191235190Y-71550872D01*
X191235205Y-71550879D01*
X191325259Y-71588180D01*
X191444166Y-71637433D01*
X191662649Y-71695976D01*
X191886905Y-71725500D01*
X191886912Y-71725500D01*
X192113088Y-71725500D01*
X192113095Y-71725500D01*
X192337351Y-71695976D01*
X192555834Y-71637433D01*
X192764806Y-71550874D01*
X192960693Y-71437779D01*
X193140142Y-71300083D01*
X193300083Y-71140142D01*
X193437779Y-70960693D01*
X193550874Y-70764806D01*
X193637433Y-70555834D01*
X193695976Y-70337351D01*
X193725500Y-70113095D01*
X193725500Y-69886905D01*
X193695976Y-69662649D01*
X193637433Y-69444166D01*
X193550874Y-69235194D01*
X193437779Y-69039307D01*
X193300083Y-68859858D01*
X193300078Y-68859852D01*
X193140147Y-68699921D01*
X193140140Y-68699915D01*
X192960692Y-68562220D01*
X192764809Y-68449127D01*
X192764794Y-68449120D01*
X192555834Y-68362567D01*
X192337347Y-68304023D01*
X192113104Y-68274501D01*
X192113101Y-68274500D01*
X192113095Y-68274500D01*
X191886905Y-68274500D01*
X191886899Y-68274500D01*
X191886895Y-68274501D01*
X191662652Y-68304023D01*
X191444165Y-68362567D01*
X191235205Y-68449120D01*
X191235190Y-68449127D01*
X191039307Y-68562220D01*
X190859859Y-68699915D01*
X190859852Y-68699921D01*
X190699921Y-68859852D01*
X190699915Y-68859859D01*
X190562220Y-69039307D01*
X190449127Y-69235190D01*
X190449120Y-69235205D01*
X190362567Y-69444165D01*
X190304023Y-69662652D01*
X190274501Y-69886895D01*
X190274500Y-69886911D01*
X186725500Y-69886911D01*
X186725500Y-69886905D01*
X186695976Y-69662649D01*
X186637433Y-69444166D01*
X186550874Y-69235194D01*
X186437779Y-69039307D01*
X186300083Y-68859858D01*
X186300078Y-68859852D01*
X186140147Y-68699921D01*
X186140140Y-68699915D01*
X185960692Y-68562220D01*
X185764809Y-68449127D01*
X185764794Y-68449120D01*
X185555834Y-68362567D01*
X185337347Y-68304023D01*
X185113104Y-68274501D01*
X185113101Y-68274500D01*
X185113095Y-68274500D01*
X184886905Y-68274500D01*
X184886899Y-68274500D01*
X184886895Y-68274501D01*
X184662652Y-68304023D01*
X184444165Y-68362567D01*
X184235205Y-68449120D01*
X184235190Y-68449127D01*
X184039307Y-68562220D01*
X183859859Y-68699915D01*
X183859852Y-68699921D01*
X183699921Y-68859852D01*
X183699915Y-68859859D01*
X183562220Y-69039307D01*
X183449127Y-69235190D01*
X183449120Y-69235205D01*
X183362567Y-69444165D01*
X183304023Y-69662652D01*
X183274501Y-69886895D01*
X183274500Y-69886911D01*
X132725500Y-69886911D01*
X132725500Y-69886905D01*
X132695976Y-69662649D01*
X132637433Y-69444166D01*
X132550874Y-69235194D01*
X132437779Y-69039307D01*
X132300083Y-68859858D01*
X132300078Y-68859852D01*
X132140147Y-68699921D01*
X132140140Y-68699915D01*
X131960692Y-68562220D01*
X131764809Y-68449127D01*
X131764794Y-68449120D01*
X131555834Y-68362567D01*
X131337347Y-68304023D01*
X131113104Y-68274501D01*
X131113101Y-68274500D01*
X131113095Y-68274500D01*
X130886905Y-68274500D01*
X130886899Y-68274500D01*
X130886895Y-68274501D01*
X130662652Y-68304023D01*
X130444165Y-68362567D01*
X130235205Y-68449120D01*
X130235190Y-68449127D01*
X130039307Y-68562220D01*
X129859859Y-68699915D01*
X129859852Y-68699921D01*
X129699921Y-68859852D01*
X129699915Y-68859859D01*
X129562220Y-69039307D01*
X129449127Y-69235190D01*
X129449120Y-69235205D01*
X129362567Y-69444165D01*
X129304023Y-69662652D01*
X129274501Y-69886895D01*
X129274500Y-69886911D01*
X126668832Y-69886911D01*
X126698848Y-69658914D01*
X126700722Y-69648284D01*
X126790426Y-69243657D01*
X126793224Y-69233219D01*
X126855325Y-69036259D01*
X126917845Y-68837970D01*
X126921532Y-68827838D01*
X127080138Y-68444930D01*
X127084696Y-68435156D01*
X127276062Y-68067545D01*
X127281457Y-68058200D01*
X127504143Y-67708653D01*
X127510333Y-67699813D01*
X127629906Y-67543982D01*
X154174500Y-67543982D01*
X154174500Y-67656018D01*
X154203497Y-67764237D01*
X154259515Y-67861263D01*
X154338737Y-67940485D01*
X154435763Y-67996503D01*
X154543982Y-68025500D01*
X154543984Y-68025500D01*
X154656016Y-68025500D01*
X154656018Y-68025500D01*
X154764237Y-67996503D01*
X154861263Y-67940485D01*
X154940485Y-67861263D01*
X154996503Y-67764237D01*
X155025500Y-67656018D01*
X155025500Y-67608982D01*
X155289500Y-67608982D01*
X155289500Y-67721018D01*
X155318497Y-67829237D01*
X155374515Y-67926263D01*
X155453737Y-68005485D01*
X155550763Y-68061503D01*
X155658982Y-68090500D01*
X155658984Y-68090500D01*
X155771016Y-68090500D01*
X155771018Y-68090500D01*
X155879237Y-68061503D01*
X155976263Y-68005485D01*
X156055485Y-67926263D01*
X156111503Y-67829237D01*
X156140500Y-67721018D01*
X156140500Y-67608982D01*
X156111503Y-67500763D01*
X156055485Y-67403737D01*
X155976263Y-67324515D01*
X155879237Y-67268497D01*
X155771018Y-67239500D01*
X155658982Y-67239500D01*
X155550763Y-67268497D01*
X155550760Y-67268498D01*
X155453740Y-67324513D01*
X155453734Y-67324517D01*
X155374517Y-67403734D01*
X155374513Y-67403740D01*
X155318498Y-67500760D01*
X155318497Y-67500763D01*
X155289500Y-67608982D01*
X155025500Y-67608982D01*
X155025500Y-67543982D01*
X154996503Y-67435763D01*
X154940485Y-67338737D01*
X154861263Y-67259515D01*
X154764237Y-67203497D01*
X154656018Y-67174500D01*
X154543982Y-67174500D01*
X154435763Y-67203497D01*
X154435760Y-67203498D01*
X154338740Y-67259513D01*
X154338734Y-67259517D01*
X154259517Y-67338734D01*
X154259513Y-67338740D01*
X154203498Y-67435760D01*
X154203497Y-67435763D01*
X154174500Y-67543982D01*
X127629906Y-67543982D01*
X127762638Y-67371003D01*
X127769567Y-67362746D01*
X128049560Y-67057188D01*
X128057188Y-67049560D01*
X128362746Y-66769567D01*
X128371015Y-66762629D01*
X128699813Y-66510333D01*
X128708653Y-66504143D01*
X129058200Y-66281457D01*
X129067545Y-66276062D01*
X129435156Y-66084696D01*
X129444930Y-66080138D01*
X129827838Y-65921532D01*
X129837970Y-65917845D01*
X130233228Y-65793221D01*
X130243657Y-65790426D01*
X130648284Y-65700722D01*
X130658910Y-65698849D01*
X131069813Y-65644752D01*
X131080542Y-65643813D01*
X131497297Y-65625617D01*
X131502706Y-65625500D01*
X131528644Y-65625500D01*
X192221356Y-65625500D01*
X192247294Y-65625500D01*
X192252702Y-65625617D01*
G37*
%TD.AperFunction*%
%TD*%
M02*
