%TF.GenerationSoftware,KiCad,Pcbnew,9.0.7+dfsg-1*%
%TF.CreationDate,2026-03-28T18:55:22+01:00*%
%TF.ProjectId,BACKPACK,4241434b-5041-4434-9b2e-6b696361645f,rev?*%
%TF.SameCoordinates,Original*%
%TF.FileFunction,Legend,Bot*%
%TF.FilePolarity,Positive*%
%FSLAX46Y46*%
G04 Gerber Fmt 4.6, Leading zero omitted, Abs format (unit mm)*
G04 Created by KiCad (PCBNEW 9.0.7+dfsg-1) date 2026-03-28 18:55:22*
%MOMM*%
%LPD*%
G01*
G04 APERTURE LIST*
%ADD10C,0.083820*%
%ADD11C,0.200000*%
%ADD12C,0.150000*%
%ADD13C,0.000000*%
%ADD14C,0.127000*%
%ADD15C,0.120000*%
G04 APERTURE END LIST*
D10*
X145075000Y-100200000D02*
X175075000Y-100200000D01*
X175075000Y-100200000D02*
X175075000Y-107700000D01*
X145075000Y-107700000D02*
X145075000Y-100200000D01*
X175075000Y-107700000D02*
X145075000Y-107700000D01*
D11*
G36*
X172660926Y-82293891D02*
G01*
X169764435Y-82293891D01*
X169764435Y-81797066D01*
X169875546Y-81797066D01*
X169875546Y-81892304D01*
X169877467Y-81911813D01*
X169878842Y-81915133D01*
X169879097Y-81918717D01*
X169886103Y-81937025D01*
X169933722Y-82032263D01*
X169939007Y-82040659D01*
X169940018Y-82043099D01*
X169942271Y-82045845D01*
X169944165Y-82048853D01*
X169946159Y-82050582D01*
X169952454Y-82058253D01*
X170000073Y-82105871D01*
X170007739Y-82112163D01*
X170009472Y-82114161D01*
X170012480Y-82116054D01*
X170015226Y-82118308D01*
X170017666Y-82119318D01*
X170026063Y-82124604D01*
X170121300Y-82172223D01*
X170139609Y-82179229D01*
X170143192Y-82179483D01*
X170146513Y-82180859D01*
X170166022Y-82182780D01*
X170404117Y-82182780D01*
X170413990Y-82181807D01*
X170416624Y-82181995D01*
X170420087Y-82181207D01*
X170423626Y-82180859D01*
X170426068Y-82179847D01*
X170435740Y-82177648D01*
X170578596Y-82130029D01*
X170596497Y-82122038D01*
X170625973Y-82096473D01*
X170643422Y-82061574D01*
X170646189Y-82022654D01*
X170633850Y-81985638D01*
X170608285Y-81956162D01*
X170573386Y-81938712D01*
X170534466Y-81935946D01*
X170515351Y-81940293D01*
X170387890Y-81982780D01*
X170189629Y-81982780D01*
X170130019Y-81952975D01*
X170105351Y-81928306D01*
X170075546Y-81868696D01*
X170075546Y-81820673D01*
X170105351Y-81761063D01*
X170130019Y-81736394D01*
X170200926Y-81700941D01*
X170380751Y-81655985D01*
X170382188Y-81655471D01*
X170382911Y-81655420D01*
X170391035Y-81652311D01*
X170399212Y-81649390D01*
X170399792Y-81648959D01*
X170401219Y-81648414D01*
X170496457Y-81600795D01*
X170504853Y-81595509D01*
X170507293Y-81594499D01*
X170510039Y-81592245D01*
X170513047Y-81590352D01*
X170514776Y-81588357D01*
X170522447Y-81582063D01*
X170570065Y-81534444D01*
X170576357Y-81526777D01*
X170578355Y-81525045D01*
X170580248Y-81522036D01*
X170582502Y-81519291D01*
X170583512Y-81516850D01*
X170586973Y-81511352D01*
X170827927Y-81511352D01*
X170827927Y-81654209D01*
X170828262Y-81657611D01*
X170828045Y-81659070D01*
X170829124Y-81666367D01*
X170829848Y-81673718D01*
X170830412Y-81675081D01*
X170830913Y-81678463D01*
X170878532Y-81868938D01*
X170879045Y-81870375D01*
X170879097Y-81871098D01*
X170882205Y-81879222D01*
X170885127Y-81887399D01*
X170885557Y-81887979D01*
X170886103Y-81889406D01*
X170933722Y-81984644D01*
X170939007Y-81993040D01*
X170940018Y-81995480D01*
X170942271Y-81998226D01*
X170944165Y-82001234D01*
X170946159Y-82002963D01*
X170952454Y-82010634D01*
X171047692Y-82105872D01*
X171062846Y-82118308D01*
X171066164Y-82119682D01*
X171068880Y-82122038D01*
X171086780Y-82130029D01*
X171229637Y-82177648D01*
X171239309Y-82179847D01*
X171241751Y-82180859D01*
X171245288Y-82181207D01*
X171248752Y-82181995D01*
X171251386Y-82181807D01*
X171261260Y-82182780D01*
X171356498Y-82182780D01*
X171366371Y-82181807D01*
X171369005Y-82181995D01*
X171372468Y-82181207D01*
X171376007Y-82180859D01*
X171378449Y-82179847D01*
X171388121Y-82177648D01*
X171530977Y-82130029D01*
X171548878Y-82122038D01*
X171551593Y-82119682D01*
X171554912Y-82118308D01*
X171570066Y-82105872D01*
X171617684Y-82058253D01*
X171630121Y-82043100D01*
X171645052Y-82007051D01*
X171645052Y-81968033D01*
X171630121Y-81931985D01*
X171602531Y-81904395D01*
X171566483Y-81889464D01*
X171527465Y-81889464D01*
X171491416Y-81904395D01*
X171476263Y-81916832D01*
X171445336Y-81947758D01*
X171340271Y-81982780D01*
X171277486Y-81982780D01*
X171172422Y-81947758D01*
X171105350Y-81880686D01*
X171069897Y-81809780D01*
X171027927Y-81641899D01*
X171027927Y-81523662D01*
X171069897Y-81355780D01*
X171105350Y-81284874D01*
X171172422Y-81217802D01*
X171277488Y-81182780D01*
X171340271Y-81182780D01*
X171445335Y-81217802D01*
X171476263Y-81248729D01*
X171491416Y-81261166D01*
X171527465Y-81276097D01*
X171566483Y-81276097D01*
X171602531Y-81261166D01*
X171630121Y-81233576D01*
X171645052Y-81197528D01*
X171645052Y-81158510D01*
X171630121Y-81122461D01*
X171617684Y-81107308D01*
X171593157Y-81082780D01*
X171875546Y-81082780D01*
X171875546Y-82082780D01*
X171877467Y-82102289D01*
X171892399Y-82138337D01*
X171919989Y-82165927D01*
X171956037Y-82180859D01*
X171995055Y-82180859D01*
X172031103Y-82165927D01*
X172058693Y-82138337D01*
X172073625Y-82102289D01*
X172075546Y-82082780D01*
X172075546Y-81182780D01*
X172451736Y-81182780D01*
X172471245Y-81180859D01*
X172507293Y-81165927D01*
X172534883Y-81138337D01*
X172549815Y-81102289D01*
X172549815Y-81063271D01*
X172534883Y-81027223D01*
X172507293Y-80999633D01*
X172471245Y-80984701D01*
X172451736Y-80982780D01*
X171975546Y-80982780D01*
X171956037Y-80984701D01*
X171919989Y-80999633D01*
X171892399Y-81027223D01*
X171877467Y-81063271D01*
X171875546Y-81082780D01*
X171593157Y-81082780D01*
X171570066Y-81059689D01*
X171554912Y-81047253D01*
X171551593Y-81045878D01*
X171548879Y-81043524D01*
X171530979Y-81035532D01*
X171388121Y-80987912D01*
X171378448Y-80985712D01*
X171376007Y-80984701D01*
X171372469Y-80984352D01*
X171369006Y-80983565D01*
X171366371Y-80983752D01*
X171356498Y-80982780D01*
X171261260Y-80982780D01*
X171251386Y-80983752D01*
X171248752Y-80983565D01*
X171245288Y-80984352D01*
X171241751Y-80984701D01*
X171239309Y-80985712D01*
X171229637Y-80987912D01*
X171086780Y-81035532D01*
X171068879Y-81043524D01*
X171066164Y-81045878D01*
X171062846Y-81047253D01*
X171047692Y-81059689D01*
X170952454Y-81154927D01*
X170946159Y-81162597D01*
X170944165Y-81164327D01*
X170942271Y-81167334D01*
X170940018Y-81170081D01*
X170939007Y-81172520D01*
X170933722Y-81180917D01*
X170886103Y-81276155D01*
X170885557Y-81277581D01*
X170885127Y-81278162D01*
X170882205Y-81286338D01*
X170879097Y-81294463D01*
X170879045Y-81295185D01*
X170878532Y-81296623D01*
X170830913Y-81487098D01*
X170830412Y-81490479D01*
X170829848Y-81491843D01*
X170829124Y-81499193D01*
X170828045Y-81506491D01*
X170828262Y-81507949D01*
X170827927Y-81511352D01*
X170586973Y-81511352D01*
X170588798Y-81508454D01*
X170636417Y-81413217D01*
X170643423Y-81394908D01*
X170643677Y-81391324D01*
X170645053Y-81388004D01*
X170646974Y-81368495D01*
X170646974Y-81273257D01*
X170645053Y-81253748D01*
X170643677Y-81250427D01*
X170643423Y-81246844D01*
X170636417Y-81228535D01*
X170588798Y-81133298D01*
X170583512Y-81124901D01*
X170582502Y-81122461D01*
X170580248Y-81119715D01*
X170578355Y-81116707D01*
X170576357Y-81114974D01*
X170570065Y-81107308D01*
X170522447Y-81059689D01*
X170514780Y-81053397D01*
X170513049Y-81051401D01*
X170510038Y-81049506D01*
X170507293Y-81047253D01*
X170504853Y-81046242D01*
X170496458Y-81040958D01*
X170401220Y-80993338D01*
X170382912Y-80986331D01*
X170379326Y-80986076D01*
X170376007Y-80984701D01*
X170356498Y-80982780D01*
X170118403Y-80982780D01*
X170108529Y-80983752D01*
X170105895Y-80983565D01*
X170102431Y-80984352D01*
X170098894Y-80984701D01*
X170096452Y-80985712D01*
X170086780Y-80987912D01*
X169943923Y-81035532D01*
X169926022Y-81043524D01*
X169896546Y-81069089D01*
X169879097Y-81103988D01*
X169876331Y-81142908D01*
X169888670Y-81179924D01*
X169914235Y-81209400D01*
X169949134Y-81226849D01*
X169988054Y-81229615D01*
X170007169Y-81225268D01*
X170134631Y-81182780D01*
X170332892Y-81182780D01*
X170392498Y-81212583D01*
X170417169Y-81237254D01*
X170446974Y-81296864D01*
X170446974Y-81344888D01*
X170417169Y-81404497D01*
X170392500Y-81429165D01*
X170321593Y-81464619D01*
X170141768Y-81509576D01*
X170140329Y-81510089D01*
X170139609Y-81510141D01*
X170131484Y-81513249D01*
X170123308Y-81516171D01*
X170122728Y-81516600D01*
X170121300Y-81517147D01*
X170026063Y-81564766D01*
X170017666Y-81570051D01*
X170015226Y-81571062D01*
X170012480Y-81573315D01*
X170009472Y-81575209D01*
X170007739Y-81577206D01*
X170000073Y-81583499D01*
X169952454Y-81631117D01*
X169946159Y-81638787D01*
X169944165Y-81640517D01*
X169942271Y-81643524D01*
X169940018Y-81646271D01*
X169939007Y-81648710D01*
X169933722Y-81657107D01*
X169886103Y-81752345D01*
X169879097Y-81770653D01*
X169878842Y-81774236D01*
X169877467Y-81777557D01*
X169875546Y-81797066D01*
X169764435Y-81797066D01*
X169764435Y-80871669D01*
X172660926Y-80871669D01*
X172660926Y-82293891D01*
G37*
X143614434Y-93930400D02*
X143757291Y-93882780D01*
X143757291Y-93882780D02*
X143995386Y-93882780D01*
X143995386Y-93882780D02*
X144090624Y-93930400D01*
X144090624Y-93930400D02*
X144138243Y-93978019D01*
X144138243Y-93978019D02*
X144185862Y-94073257D01*
X144185862Y-94073257D02*
X144185862Y-94168495D01*
X144185862Y-94168495D02*
X144138243Y-94263733D01*
X144138243Y-94263733D02*
X144090624Y-94311352D01*
X144090624Y-94311352D02*
X143995386Y-94358971D01*
X143995386Y-94358971D02*
X143804910Y-94406590D01*
X143804910Y-94406590D02*
X143709672Y-94454209D01*
X143709672Y-94454209D02*
X143662053Y-94501828D01*
X143662053Y-94501828D02*
X143614434Y-94597066D01*
X143614434Y-94597066D02*
X143614434Y-94692304D01*
X143614434Y-94692304D02*
X143662053Y-94787542D01*
X143662053Y-94787542D02*
X143709672Y-94835161D01*
X143709672Y-94835161D02*
X143804910Y-94882780D01*
X143804910Y-94882780D02*
X144043005Y-94882780D01*
X144043005Y-94882780D02*
X144185862Y-94835161D01*
X144519196Y-94882780D02*
X144757291Y-93882780D01*
X144757291Y-93882780D02*
X144947767Y-94597066D01*
X144947767Y-94597066D02*
X145138243Y-93882780D01*
X145138243Y-93882780D02*
X145376339Y-94882780D01*
X145757291Y-93882780D02*
X145757291Y-94882780D01*
X145757291Y-94882780D02*
X145995386Y-94882780D01*
X145995386Y-94882780D02*
X146138243Y-94835161D01*
X146138243Y-94835161D02*
X146233481Y-94739923D01*
X146233481Y-94739923D02*
X146281100Y-94644685D01*
X146281100Y-94644685D02*
X146328719Y-94454209D01*
X146328719Y-94454209D02*
X146328719Y-94311352D01*
X146328719Y-94311352D02*
X146281100Y-94120876D01*
X146281100Y-94120876D02*
X146233481Y-94025638D01*
X146233481Y-94025638D02*
X146138243Y-93930400D01*
X146138243Y-93930400D02*
X145995386Y-93882780D01*
X145995386Y-93882780D02*
X145757291Y-93882780D01*
X146757291Y-93882780D02*
X146757291Y-94882780D01*
X147423957Y-94882780D02*
X147614433Y-94882780D01*
X147614433Y-94882780D02*
X147709671Y-94835161D01*
X147709671Y-94835161D02*
X147804909Y-94739923D01*
X147804909Y-94739923D02*
X147852528Y-94549447D01*
X147852528Y-94549447D02*
X147852528Y-94216114D01*
X147852528Y-94216114D02*
X147804909Y-94025638D01*
X147804909Y-94025638D02*
X147709671Y-93930400D01*
X147709671Y-93930400D02*
X147614433Y-93882780D01*
X147614433Y-93882780D02*
X147423957Y-93882780D01*
X147423957Y-93882780D02*
X147328719Y-93930400D01*
X147328719Y-93930400D02*
X147233481Y-94025638D01*
X147233481Y-94025638D02*
X147185862Y-94216114D01*
X147185862Y-94216114D02*
X147185862Y-94549447D01*
X147185862Y-94549447D02*
X147233481Y-94739923D01*
X147233481Y-94739923D02*
X147328719Y-94835161D01*
X147328719Y-94835161D02*
X147423957Y-94882780D01*
G36*
X147233769Y-91643538D02*
G01*
X147258438Y-91668206D01*
X147288243Y-91727816D01*
X147288243Y-91918697D01*
X147258438Y-91978306D01*
X147233769Y-92002974D01*
X147174160Y-92032780D01*
X147030898Y-92032780D01*
X146971288Y-92002975D01*
X146946620Y-91978306D01*
X146916815Y-91918696D01*
X146916815Y-91727816D01*
X146946620Y-91668206D01*
X146971288Y-91643537D01*
X147030898Y-91613733D01*
X147174160Y-91613733D01*
X147233769Y-91643538D01*
G37*
G36*
X147599354Y-92343891D02*
G01*
X145607625Y-92343891D01*
X145607625Y-91208510D01*
X145718736Y-91208510D01*
X145718736Y-91247528D01*
X145733668Y-91283576D01*
X145761258Y-91311166D01*
X145797306Y-91326098D01*
X145836324Y-91326098D01*
X145872372Y-91311166D01*
X145887526Y-91298730D01*
X145923670Y-91262584D01*
X145983278Y-91232780D01*
X146221780Y-91232780D01*
X146281386Y-91262583D01*
X146306057Y-91287254D01*
X146335862Y-91346864D01*
X146335862Y-91537745D01*
X146306057Y-91597354D01*
X146281388Y-91622022D01*
X146221779Y-91651828D01*
X146102529Y-91651828D01*
X146092211Y-91652843D01*
X146089587Y-91652669D01*
X146087779Y-91653280D01*
X146083020Y-91653749D01*
X146068014Y-91659964D01*
X146052626Y-91665169D01*
X146050086Y-91667390D01*
X146046972Y-91668681D01*
X146035487Y-91680165D01*
X146023262Y-91690863D01*
X146021766Y-91693886D01*
X146019382Y-91696271D01*
X146013165Y-91711277D01*
X146005965Y-91725838D01*
X146005740Y-91729203D01*
X146004450Y-91732319D01*
X146004450Y-91748567D01*
X146003370Y-91764770D01*
X146004450Y-91767963D01*
X146004450Y-91771337D01*
X146010665Y-91786342D01*
X146015870Y-91801731D01*
X146018651Y-91805621D01*
X146019382Y-91807385D01*
X146021241Y-91809244D01*
X146027271Y-91817678D01*
X146215485Y-92032780D01*
X145816815Y-92032780D01*
X145797306Y-92034701D01*
X145761258Y-92049633D01*
X145733668Y-92077223D01*
X145718736Y-92113271D01*
X145718736Y-92152289D01*
X145733668Y-92188337D01*
X145761258Y-92215927D01*
X145797306Y-92230859D01*
X145816815Y-92232780D01*
X146435862Y-92232780D01*
X146446179Y-92231764D01*
X146448804Y-92231939D01*
X146450611Y-92231327D01*
X146455371Y-92230859D01*
X146470374Y-92224644D01*
X146485766Y-92219439D01*
X146488305Y-92217216D01*
X146491419Y-92215927D01*
X146502896Y-92204449D01*
X146515130Y-92193745D01*
X146516625Y-92190720D01*
X146519009Y-92188337D01*
X146525223Y-92173335D01*
X146532426Y-92158770D01*
X146532650Y-92155404D01*
X146533941Y-92152289D01*
X146533941Y-92136040D01*
X146535021Y-92119838D01*
X146533941Y-92116644D01*
X146533941Y-92113271D01*
X146527725Y-92098265D01*
X146522521Y-92082877D01*
X146519739Y-92078986D01*
X146519009Y-92077223D01*
X146517149Y-92075363D01*
X146511120Y-92066930D01*
X146306497Y-91833075D01*
X146385345Y-91793652D01*
X146393741Y-91788366D01*
X146396181Y-91787356D01*
X146398927Y-91785102D01*
X146401935Y-91783209D01*
X146403664Y-91781214D01*
X146411335Y-91774920D01*
X146458953Y-91727301D01*
X146465245Y-91719634D01*
X146467243Y-91717902D01*
X146469136Y-91714893D01*
X146471390Y-91712148D01*
X146472400Y-91709707D01*
X146475861Y-91704209D01*
X146716815Y-91704209D01*
X146716815Y-91942304D01*
X146718736Y-91961813D01*
X146720111Y-91965133D01*
X146720366Y-91968717D01*
X146727372Y-91987025D01*
X146774991Y-92082263D01*
X146780276Y-92090659D01*
X146781287Y-92093099D01*
X146783540Y-92095845D01*
X146785434Y-92098853D01*
X146787428Y-92100582D01*
X146793723Y-92108253D01*
X146841342Y-92155871D01*
X146849008Y-92162163D01*
X146850741Y-92164161D01*
X146853749Y-92166054D01*
X146856495Y-92168308D01*
X146858935Y-92169318D01*
X146867332Y-92174604D01*
X146962569Y-92222223D01*
X146980878Y-92229229D01*
X146984461Y-92229483D01*
X146987782Y-92230859D01*
X147007291Y-92232780D01*
X147197767Y-92232780D01*
X147217276Y-92230859D01*
X147220596Y-92229483D01*
X147224180Y-92229229D01*
X147242488Y-92222223D01*
X147337726Y-92174604D01*
X147346122Y-92169318D01*
X147348562Y-92168308D01*
X147351308Y-92166054D01*
X147354316Y-92164161D01*
X147356045Y-92162166D01*
X147363716Y-92155872D01*
X147411334Y-92108253D01*
X147417626Y-92100586D01*
X147419624Y-92098854D01*
X147421517Y-92095845D01*
X147423771Y-92093100D01*
X147424781Y-92090659D01*
X147430067Y-92082263D01*
X147477686Y-91987026D01*
X147484692Y-91968717D01*
X147484946Y-91965133D01*
X147486322Y-91961813D01*
X147488243Y-91942304D01*
X147488243Y-91561352D01*
X147487907Y-91557949D01*
X147488125Y-91556491D01*
X147487045Y-91549193D01*
X147486322Y-91541843D01*
X147485757Y-91540479D01*
X147485257Y-91537098D01*
X147437638Y-91346622D01*
X147433531Y-91335127D01*
X147433052Y-91332704D01*
X147431881Y-91330507D01*
X147431043Y-91328162D01*
X147429571Y-91326175D01*
X147423829Y-91315406D01*
X147328591Y-91172549D01*
X147328547Y-91172495D01*
X147328533Y-91172461D01*
X147322388Y-91164975D01*
X147316171Y-91157382D01*
X147316139Y-91157360D01*
X147316096Y-91157308D01*
X147268478Y-91109689D01*
X147260811Y-91103397D01*
X147259080Y-91101401D01*
X147256069Y-91099506D01*
X147253324Y-91097253D01*
X147250884Y-91096242D01*
X147242489Y-91090958D01*
X147147251Y-91043338D01*
X147128943Y-91036331D01*
X147125357Y-91036076D01*
X147122038Y-91034701D01*
X147102529Y-91032780D01*
X146912053Y-91032780D01*
X146892544Y-91034701D01*
X146856496Y-91049633D01*
X146828906Y-91077223D01*
X146813974Y-91113271D01*
X146813974Y-91152289D01*
X146828906Y-91188337D01*
X146856496Y-91215927D01*
X146892544Y-91230859D01*
X146912053Y-91232780D01*
X147078923Y-91232780D01*
X147138529Y-91262583D01*
X147167673Y-91291727D01*
X147247811Y-91411934D01*
X147252101Y-91429096D01*
X147242488Y-91424290D01*
X147224180Y-91417284D01*
X147220596Y-91417029D01*
X147217276Y-91415654D01*
X147197767Y-91413733D01*
X147007291Y-91413733D01*
X146987782Y-91415654D01*
X146984461Y-91417029D01*
X146980878Y-91417284D01*
X146962569Y-91424290D01*
X146867332Y-91471909D01*
X146858935Y-91477194D01*
X146856495Y-91478205D01*
X146853749Y-91480458D01*
X146850741Y-91482352D01*
X146849008Y-91484349D01*
X146841342Y-91490642D01*
X146793723Y-91538260D01*
X146787428Y-91545930D01*
X146785434Y-91547660D01*
X146783540Y-91550667D01*
X146781287Y-91553414D01*
X146780276Y-91555853D01*
X146774991Y-91564250D01*
X146727372Y-91659488D01*
X146720366Y-91677796D01*
X146720111Y-91681379D01*
X146718736Y-91684700D01*
X146716815Y-91704209D01*
X146475861Y-91704209D01*
X146477686Y-91701311D01*
X146525305Y-91606074D01*
X146532311Y-91587765D01*
X146532565Y-91584181D01*
X146533941Y-91580861D01*
X146535862Y-91561352D01*
X146535862Y-91323257D01*
X146533941Y-91303748D01*
X146532565Y-91300427D01*
X146532311Y-91296844D01*
X146525305Y-91278535D01*
X146477686Y-91183298D01*
X146472400Y-91174901D01*
X146471390Y-91172461D01*
X146469136Y-91169715D01*
X146467243Y-91166707D01*
X146465245Y-91164974D01*
X146458953Y-91157308D01*
X146411335Y-91109689D01*
X146403668Y-91103397D01*
X146401937Y-91101401D01*
X146398926Y-91099506D01*
X146396181Y-91097253D01*
X146393741Y-91096242D01*
X146385346Y-91090958D01*
X146290108Y-91043338D01*
X146271800Y-91036331D01*
X146268214Y-91036076D01*
X146264895Y-91034701D01*
X146245386Y-91032780D01*
X145959672Y-91032780D01*
X145940163Y-91034701D01*
X145936842Y-91036076D01*
X145933259Y-91036331D01*
X145914950Y-91043338D01*
X145819712Y-91090958D01*
X145811319Y-91096241D01*
X145808876Y-91097253D01*
X145806126Y-91099509D01*
X145803122Y-91101401D01*
X145801392Y-91103395D01*
X145793723Y-91109690D01*
X145746104Y-91157308D01*
X145733668Y-91172462D01*
X145718736Y-91208510D01*
X145607625Y-91208510D01*
X145607625Y-90921669D01*
X147599354Y-90921669D01*
X147599354Y-92343891D01*
G37*
X143114434Y-96430400D02*
X143257291Y-96382780D01*
X143257291Y-96382780D02*
X143495386Y-96382780D01*
X143495386Y-96382780D02*
X143590624Y-96430400D01*
X143590624Y-96430400D02*
X143638243Y-96478019D01*
X143638243Y-96478019D02*
X143685862Y-96573257D01*
X143685862Y-96573257D02*
X143685862Y-96668495D01*
X143685862Y-96668495D02*
X143638243Y-96763733D01*
X143638243Y-96763733D02*
X143590624Y-96811352D01*
X143590624Y-96811352D02*
X143495386Y-96858971D01*
X143495386Y-96858971D02*
X143304910Y-96906590D01*
X143304910Y-96906590D02*
X143209672Y-96954209D01*
X143209672Y-96954209D02*
X143162053Y-97001828D01*
X143162053Y-97001828D02*
X143114434Y-97097066D01*
X143114434Y-97097066D02*
X143114434Y-97192304D01*
X143114434Y-97192304D02*
X143162053Y-97287542D01*
X143162053Y-97287542D02*
X143209672Y-97335161D01*
X143209672Y-97335161D02*
X143304910Y-97382780D01*
X143304910Y-97382780D02*
X143543005Y-97382780D01*
X143543005Y-97382780D02*
X143685862Y-97335161D01*
X144019196Y-97382780D02*
X144257291Y-96382780D01*
X144257291Y-96382780D02*
X144447767Y-97097066D01*
X144447767Y-97097066D02*
X144638243Y-96382780D01*
X144638243Y-96382780D02*
X144876339Y-97382780D01*
X145257291Y-96382780D02*
X145257291Y-97382780D01*
X145257291Y-97382780D02*
X145495386Y-97382780D01*
X145495386Y-97382780D02*
X145638243Y-97335161D01*
X145638243Y-97335161D02*
X145733481Y-97239923D01*
X145733481Y-97239923D02*
X145781100Y-97144685D01*
X145781100Y-97144685D02*
X145828719Y-96954209D01*
X145828719Y-96954209D02*
X145828719Y-96811352D01*
X145828719Y-96811352D02*
X145781100Y-96620876D01*
X145781100Y-96620876D02*
X145733481Y-96525638D01*
X145733481Y-96525638D02*
X145638243Y-96430400D01*
X145638243Y-96430400D02*
X145495386Y-96382780D01*
X145495386Y-96382780D02*
X145257291Y-96382780D01*
X146828719Y-96478019D02*
X146781100Y-96430400D01*
X146781100Y-96430400D02*
X146638243Y-96382780D01*
X146638243Y-96382780D02*
X146543005Y-96382780D01*
X146543005Y-96382780D02*
X146400148Y-96430400D01*
X146400148Y-96430400D02*
X146304910Y-96525638D01*
X146304910Y-96525638D02*
X146257291Y-96620876D01*
X146257291Y-96620876D02*
X146209672Y-96811352D01*
X146209672Y-96811352D02*
X146209672Y-96954209D01*
X146209672Y-96954209D02*
X146257291Y-97144685D01*
X146257291Y-97144685D02*
X146304910Y-97239923D01*
X146304910Y-97239923D02*
X146400148Y-97335161D01*
X146400148Y-97335161D02*
X146543005Y-97382780D01*
X146543005Y-97382780D02*
X146638243Y-97382780D01*
X146638243Y-97382780D02*
X146781100Y-97335161D01*
X146781100Y-97335161D02*
X146828719Y-97287542D01*
X147257291Y-96382780D02*
X147257291Y-97382780D01*
X147828719Y-96382780D02*
X147400148Y-96954209D01*
X147828719Y-97382780D02*
X147257291Y-96811352D01*
X145935862Y-82085161D02*
X145840624Y-82132780D01*
X145840624Y-82132780D02*
X145697767Y-82132780D01*
X145697767Y-82132780D02*
X145554910Y-82085161D01*
X145554910Y-82085161D02*
X145459672Y-81989923D01*
X145459672Y-81989923D02*
X145412053Y-81894685D01*
X145412053Y-81894685D02*
X145364434Y-81704209D01*
X145364434Y-81704209D02*
X145364434Y-81561352D01*
X145364434Y-81561352D02*
X145412053Y-81370876D01*
X145412053Y-81370876D02*
X145459672Y-81275638D01*
X145459672Y-81275638D02*
X145554910Y-81180400D01*
X145554910Y-81180400D02*
X145697767Y-81132780D01*
X145697767Y-81132780D02*
X145793005Y-81132780D01*
X145793005Y-81132780D02*
X145935862Y-81180400D01*
X145935862Y-81180400D02*
X145983481Y-81228019D01*
X145983481Y-81228019D02*
X145983481Y-81561352D01*
X145983481Y-81561352D02*
X145793005Y-81561352D01*
X146412053Y-81132780D02*
X146412053Y-82132780D01*
X146412053Y-82132780D02*
X146983481Y-81132780D01*
X146983481Y-81132780D02*
X146983481Y-82132780D01*
X147459672Y-81132780D02*
X147459672Y-82132780D01*
X147459672Y-82132780D02*
X147697767Y-82132780D01*
X147697767Y-82132780D02*
X147840624Y-82085161D01*
X147840624Y-82085161D02*
X147935862Y-81989923D01*
X147935862Y-81989923D02*
X147983481Y-81894685D01*
X147983481Y-81894685D02*
X148031100Y-81704209D01*
X148031100Y-81704209D02*
X148031100Y-81561352D01*
X148031100Y-81561352D02*
X147983481Y-81370876D01*
X147983481Y-81370876D02*
X147935862Y-81275638D01*
X147935862Y-81275638D02*
X147840624Y-81180400D01*
X147840624Y-81180400D02*
X147697767Y-81132780D01*
X147697767Y-81132780D02*
X147459672Y-81132780D01*
G36*
X137287910Y-87390726D02*
G01*
X135296966Y-87390726D01*
X135296966Y-86478621D01*
X135408077Y-86478621D01*
X135409213Y-86483616D01*
X135409213Y-86485623D01*
X135410224Y-86488065D01*
X135412424Y-86497737D01*
X135650519Y-87212022D01*
X135658510Y-87229923D01*
X135684075Y-87259399D01*
X135718974Y-87276848D01*
X135757894Y-87279615D01*
X135794910Y-87267276D01*
X135824386Y-87241711D01*
X135841836Y-87206812D01*
X135844602Y-87167892D01*
X135840255Y-87148777D01*
X135646034Y-86566114D01*
X135883482Y-86566114D01*
X135883482Y-86799447D01*
X135885403Y-86818956D01*
X135900335Y-86855004D01*
X135927925Y-86882594D01*
X135963973Y-86897526D01*
X136002991Y-86897526D01*
X136039039Y-86882594D01*
X136066629Y-86855004D01*
X136081561Y-86818956D01*
X136083482Y-86799447D01*
X136083482Y-86566114D01*
X136126339Y-86566114D01*
X136145848Y-86564193D01*
X136181896Y-86549261D01*
X136209486Y-86521671D01*
X136224418Y-86485623D01*
X136224418Y-86478621D01*
X136360458Y-86478621D01*
X136361594Y-86483616D01*
X136361594Y-86485623D01*
X136362605Y-86488065D01*
X136364805Y-86497737D01*
X136602900Y-87212022D01*
X136610891Y-87229923D01*
X136636456Y-87259399D01*
X136671355Y-87276848D01*
X136710275Y-87279615D01*
X136747291Y-87267276D01*
X136776767Y-87241711D01*
X136794217Y-87206812D01*
X136796983Y-87167892D01*
X136792636Y-87148777D01*
X136598415Y-86566114D01*
X136835863Y-86566114D01*
X136835863Y-86799447D01*
X136837784Y-86818956D01*
X136852716Y-86855004D01*
X136880306Y-86882594D01*
X136916354Y-86897526D01*
X136955372Y-86897526D01*
X136991420Y-86882594D01*
X137019010Y-86855004D01*
X137033942Y-86818956D01*
X137035863Y-86799447D01*
X137035863Y-86566114D01*
X137078720Y-86566114D01*
X137098229Y-86564193D01*
X137134277Y-86549261D01*
X137161867Y-86521671D01*
X137176799Y-86485623D01*
X137176799Y-86446605D01*
X137161867Y-86410557D01*
X137134277Y-86382967D01*
X137098229Y-86368035D01*
X137078720Y-86366114D01*
X137035863Y-86366114D01*
X137035863Y-86132780D01*
X137033942Y-86113271D01*
X137019010Y-86077223D01*
X136991420Y-86049633D01*
X136955372Y-86034701D01*
X136916354Y-86034701D01*
X136880306Y-86049633D01*
X136852716Y-86077223D01*
X136837784Y-86113271D01*
X136835863Y-86132780D01*
X136835863Y-86366114D01*
X136459673Y-86366114D01*
X136449799Y-86367086D01*
X136447166Y-86366899D01*
X136445264Y-86367532D01*
X136440164Y-86368035D01*
X136425359Y-86374167D01*
X136410150Y-86379237D01*
X136407434Y-86381592D01*
X136404116Y-86382967D01*
X136392785Y-86394297D01*
X136380674Y-86404802D01*
X136379066Y-86408016D01*
X136376526Y-86410557D01*
X136370391Y-86425365D01*
X136363224Y-86439701D01*
X136362969Y-86443284D01*
X136361594Y-86446605D01*
X136361594Y-86462636D01*
X136360458Y-86478621D01*
X136224418Y-86478621D01*
X136224418Y-86446605D01*
X136209486Y-86410557D01*
X136181896Y-86382967D01*
X136145848Y-86368035D01*
X136126339Y-86366114D01*
X136083482Y-86366114D01*
X136083482Y-86132780D01*
X136081561Y-86113271D01*
X136066629Y-86077223D01*
X136039039Y-86049633D01*
X136002991Y-86034701D01*
X135963973Y-86034701D01*
X135927925Y-86049633D01*
X135900335Y-86077223D01*
X135885403Y-86113271D01*
X135883482Y-86132780D01*
X135883482Y-86366114D01*
X135507292Y-86366114D01*
X135497418Y-86367086D01*
X135494785Y-86366899D01*
X135492883Y-86367532D01*
X135487783Y-86368035D01*
X135472978Y-86374167D01*
X135457769Y-86379237D01*
X135455053Y-86381592D01*
X135451735Y-86382967D01*
X135440404Y-86394297D01*
X135428293Y-86404802D01*
X135426685Y-86408016D01*
X135424145Y-86410557D01*
X135418010Y-86425365D01*
X135410843Y-86439701D01*
X135410588Y-86443284D01*
X135409213Y-86446605D01*
X135409213Y-86462636D01*
X135408077Y-86478621D01*
X135296966Y-86478621D01*
X135296966Y-85923590D01*
X137287910Y-85923590D01*
X137287910Y-87390726D01*
G37*
X179185862Y-92285161D02*
X179090624Y-92332780D01*
X179090624Y-92332780D02*
X178947767Y-92332780D01*
X178947767Y-92332780D02*
X178804910Y-92285161D01*
X178804910Y-92285161D02*
X178709672Y-92189923D01*
X178709672Y-92189923D02*
X178662053Y-92094685D01*
X178662053Y-92094685D02*
X178614434Y-91904209D01*
X178614434Y-91904209D02*
X178614434Y-91761352D01*
X178614434Y-91761352D02*
X178662053Y-91570876D01*
X178662053Y-91570876D02*
X178709672Y-91475638D01*
X178709672Y-91475638D02*
X178804910Y-91380400D01*
X178804910Y-91380400D02*
X178947767Y-91332780D01*
X178947767Y-91332780D02*
X179043005Y-91332780D01*
X179043005Y-91332780D02*
X179185862Y-91380400D01*
X179185862Y-91380400D02*
X179233481Y-91428019D01*
X179233481Y-91428019D02*
X179233481Y-91761352D01*
X179233481Y-91761352D02*
X179043005Y-91761352D01*
X179662053Y-91332780D02*
X179662053Y-92332780D01*
X179662053Y-92332780D02*
X180233481Y-91332780D01*
X180233481Y-91332780D02*
X180233481Y-92332780D01*
X180709672Y-91332780D02*
X180709672Y-92332780D01*
X180709672Y-92332780D02*
X180947767Y-92332780D01*
X180947767Y-92332780D02*
X181090624Y-92285161D01*
X181090624Y-92285161D02*
X181185862Y-92189923D01*
X181185862Y-92189923D02*
X181233481Y-92094685D01*
X181233481Y-92094685D02*
X181281100Y-91904209D01*
X181281100Y-91904209D02*
X181281100Y-91761352D01*
X181281100Y-91761352D02*
X181233481Y-91570876D01*
X181233481Y-91570876D02*
X181185862Y-91475638D01*
X181185862Y-91475638D02*
X181090624Y-91380400D01*
X181090624Y-91380400D02*
X180947767Y-91332780D01*
X180947767Y-91332780D02*
X180709672Y-91332780D01*
X134992689Y-99816204D02*
X135611736Y-99816204D01*
X135611736Y-99816204D02*
X135278403Y-99435252D01*
X135278403Y-99435252D02*
X135421260Y-99435252D01*
X135421260Y-99435252D02*
X135516498Y-99387633D01*
X135516498Y-99387633D02*
X135564117Y-99340014D01*
X135564117Y-99340014D02*
X135611736Y-99244776D01*
X135611736Y-99244776D02*
X135611736Y-99006681D01*
X135611736Y-99006681D02*
X135564117Y-98911443D01*
X135564117Y-98911443D02*
X135516498Y-98863824D01*
X135516498Y-98863824D02*
X135421260Y-98816204D01*
X135421260Y-98816204D02*
X135135546Y-98816204D01*
X135135546Y-98816204D02*
X135040308Y-98863824D01*
X135040308Y-98863824D02*
X134992689Y-98911443D01*
X135897451Y-99816204D02*
X136230784Y-98816204D01*
X136230784Y-98816204D02*
X136564117Y-99816204D01*
X136802213Y-99816204D02*
X137421260Y-99816204D01*
X137421260Y-99816204D02*
X137087927Y-99435252D01*
X137087927Y-99435252D02*
X137230784Y-99435252D01*
X137230784Y-99435252D02*
X137326022Y-99387633D01*
X137326022Y-99387633D02*
X137373641Y-99340014D01*
X137373641Y-99340014D02*
X137421260Y-99244776D01*
X137421260Y-99244776D02*
X137421260Y-99006681D01*
X137421260Y-99006681D02*
X137373641Y-98911443D01*
X137373641Y-98911443D02*
X137326022Y-98863824D01*
X137326022Y-98863824D02*
X137230784Y-98816204D01*
X137230784Y-98816204D02*
X136945070Y-98816204D01*
X136945070Y-98816204D02*
X136849832Y-98863824D01*
X136849832Y-98863824D02*
X136802213Y-98911443D01*
G36*
X137242212Y-89890726D02*
G01*
X135296966Y-89890726D01*
X135296966Y-88978621D01*
X135408077Y-88978621D01*
X135409213Y-88983616D01*
X135409213Y-88985623D01*
X135410224Y-88988065D01*
X135412424Y-88997737D01*
X135650519Y-89712022D01*
X135658510Y-89729923D01*
X135684075Y-89759399D01*
X135718974Y-89776848D01*
X135757894Y-89779615D01*
X135794910Y-89767276D01*
X135824386Y-89741711D01*
X135841836Y-89706812D01*
X135844602Y-89667892D01*
X135840255Y-89648777D01*
X135646034Y-89066114D01*
X135883482Y-89066114D01*
X135883482Y-89299447D01*
X135885403Y-89318956D01*
X135900335Y-89355004D01*
X135927925Y-89382594D01*
X135963973Y-89397526D01*
X136002991Y-89397526D01*
X136039039Y-89382594D01*
X136066629Y-89355004D01*
X136081561Y-89318956D01*
X136083482Y-89299447D01*
X136083482Y-89066114D01*
X136126339Y-89066114D01*
X136145848Y-89064193D01*
X136181896Y-89049261D01*
X136209486Y-89021671D01*
X136224418Y-88985623D01*
X136224418Y-88946605D01*
X136209486Y-88910557D01*
X136181896Y-88882967D01*
X136145848Y-88868035D01*
X136126339Y-88866114D01*
X136083482Y-88866114D01*
X136083482Y-88632780D01*
X136081561Y-88613271D01*
X136313975Y-88613271D01*
X136313975Y-88652289D01*
X136328907Y-88688337D01*
X136341343Y-88703491D01*
X136896079Y-89258228D01*
X136931101Y-89363292D01*
X136931101Y-89418697D01*
X136901296Y-89478306D01*
X136876627Y-89502974D01*
X136817018Y-89532780D01*
X136626137Y-89532780D01*
X136566527Y-89502975D01*
X136530384Y-89466831D01*
X136515230Y-89454395D01*
X136479182Y-89439463D01*
X136440164Y-89439463D01*
X136404116Y-89454395D01*
X136376526Y-89481985D01*
X136361594Y-89518033D01*
X136361594Y-89557051D01*
X136376526Y-89593099D01*
X136388962Y-89608253D01*
X136436581Y-89655871D01*
X136444247Y-89662163D01*
X136445980Y-89664161D01*
X136448988Y-89666054D01*
X136451734Y-89668308D01*
X136454174Y-89669318D01*
X136462571Y-89674604D01*
X136557808Y-89722223D01*
X136576117Y-89729229D01*
X136579700Y-89729483D01*
X136583021Y-89730859D01*
X136602530Y-89732780D01*
X136840625Y-89732780D01*
X136860134Y-89730859D01*
X136863454Y-89729483D01*
X136867038Y-89729229D01*
X136885346Y-89722223D01*
X136980584Y-89674604D01*
X136988980Y-89669318D01*
X136991420Y-89668308D01*
X136994166Y-89666054D01*
X136997174Y-89664161D01*
X136998903Y-89662166D01*
X137006574Y-89655872D01*
X137054192Y-89608253D01*
X137060484Y-89600586D01*
X137062482Y-89598854D01*
X137064375Y-89595845D01*
X137066629Y-89593100D01*
X137067639Y-89590659D01*
X137072925Y-89582263D01*
X137120544Y-89487026D01*
X137127550Y-89468717D01*
X137127804Y-89465133D01*
X137129180Y-89461813D01*
X137131101Y-89442304D01*
X137131101Y-89347066D01*
X137130128Y-89337192D01*
X137130316Y-89334558D01*
X137129528Y-89331094D01*
X137129180Y-89327557D01*
X137128168Y-89325115D01*
X137125969Y-89315443D01*
X137078350Y-89172586D01*
X137070359Y-89154686D01*
X137068003Y-89151970D01*
X137066629Y-89148652D01*
X137054193Y-89133498D01*
X136653476Y-88732780D01*
X137031101Y-88732780D01*
X137050610Y-88730859D01*
X137086658Y-88715927D01*
X137114248Y-88688337D01*
X137129180Y-88652289D01*
X137129180Y-88613271D01*
X137114248Y-88577223D01*
X137086658Y-88549633D01*
X137050610Y-88534701D01*
X137031101Y-88532780D01*
X136412054Y-88532780D01*
X136392545Y-88534701D01*
X136356497Y-88549633D01*
X136328907Y-88577223D01*
X136313975Y-88613271D01*
X136081561Y-88613271D01*
X136066629Y-88577223D01*
X136039039Y-88549633D01*
X136002991Y-88534701D01*
X135963973Y-88534701D01*
X135927925Y-88549633D01*
X135900335Y-88577223D01*
X135885403Y-88613271D01*
X135883482Y-88632780D01*
X135883482Y-88866114D01*
X135507292Y-88866114D01*
X135497418Y-88867086D01*
X135494785Y-88866899D01*
X135492883Y-88867532D01*
X135487783Y-88868035D01*
X135472978Y-88874167D01*
X135457769Y-88879237D01*
X135455053Y-88881592D01*
X135451735Y-88882967D01*
X135440404Y-88894297D01*
X135428293Y-88904802D01*
X135426685Y-88908016D01*
X135424145Y-88910557D01*
X135418010Y-88925365D01*
X135410843Y-88939701D01*
X135410588Y-88943284D01*
X135409213Y-88946605D01*
X135409213Y-88962636D01*
X135408077Y-88978621D01*
X135296966Y-88978621D01*
X135296966Y-88421669D01*
X137242212Y-88421669D01*
X137242212Y-89890726D01*
G37*
G36*
X171594879Y-93962583D02*
G01*
X171619550Y-93987254D01*
X171649355Y-94046864D01*
X171649355Y-94237745D01*
X171619550Y-94297354D01*
X171594881Y-94322022D01*
X171535272Y-94351828D01*
X171392010Y-94351828D01*
X171332400Y-94322023D01*
X171307732Y-94297354D01*
X171277927Y-94237744D01*
X171277927Y-94046864D01*
X171307732Y-93987254D01*
X171332401Y-93962584D01*
X171392009Y-93932780D01*
X171535273Y-93932780D01*
X171594879Y-93962583D01*
G37*
G36*
X171960466Y-95043891D02*
G01*
X169968737Y-95043891D01*
X169968737Y-93813271D01*
X170079848Y-93813271D01*
X170079848Y-93852289D01*
X170094780Y-93888337D01*
X170107216Y-93903491D01*
X170661952Y-94458228D01*
X170696974Y-94563292D01*
X170696974Y-94618697D01*
X170667169Y-94678306D01*
X170642500Y-94702974D01*
X170582891Y-94732780D01*
X170392010Y-94732780D01*
X170332400Y-94702975D01*
X170296257Y-94666831D01*
X170281103Y-94654395D01*
X170245055Y-94639463D01*
X170206037Y-94639463D01*
X170169989Y-94654395D01*
X170142399Y-94681985D01*
X170127467Y-94718033D01*
X170127467Y-94757051D01*
X170142399Y-94793099D01*
X170154835Y-94808253D01*
X170202454Y-94855871D01*
X170210120Y-94862163D01*
X170211853Y-94864161D01*
X170214861Y-94866054D01*
X170217607Y-94868308D01*
X170220047Y-94869318D01*
X170228444Y-94874604D01*
X170323681Y-94922223D01*
X170341990Y-94929229D01*
X170345573Y-94929483D01*
X170348894Y-94930859D01*
X170368403Y-94932780D01*
X170606498Y-94932780D01*
X170626007Y-94930859D01*
X170629327Y-94929483D01*
X170632911Y-94929229D01*
X170651219Y-94922223D01*
X170746457Y-94874604D01*
X170754853Y-94869318D01*
X170757293Y-94868308D01*
X170760039Y-94866054D01*
X170763047Y-94864161D01*
X170764776Y-94862166D01*
X170772447Y-94855872D01*
X170820065Y-94808253D01*
X170826357Y-94800586D01*
X170828355Y-94798854D01*
X170830248Y-94795845D01*
X170832502Y-94793100D01*
X170833512Y-94790659D01*
X170838798Y-94782263D01*
X170886417Y-94687026D01*
X170893423Y-94668717D01*
X170893677Y-94665133D01*
X170895053Y-94661813D01*
X170896974Y-94642304D01*
X170896974Y-94547066D01*
X170896001Y-94537192D01*
X170896189Y-94534558D01*
X170895401Y-94531094D01*
X170895053Y-94527557D01*
X170894041Y-94525115D01*
X170891842Y-94515443D01*
X170844223Y-94372586D01*
X170836232Y-94354686D01*
X170833876Y-94351970D01*
X170832502Y-94348652D01*
X170820066Y-94333498D01*
X170509826Y-94023257D01*
X171077927Y-94023257D01*
X171077927Y-94404209D01*
X171078262Y-94407611D01*
X171078045Y-94409070D01*
X171079124Y-94416367D01*
X171079848Y-94423718D01*
X171080412Y-94425081D01*
X171080913Y-94428463D01*
X171128532Y-94618938D01*
X171132638Y-94630433D01*
X171133118Y-94632857D01*
X171134289Y-94635053D01*
X171135127Y-94637399D01*
X171136598Y-94639385D01*
X171142341Y-94650155D01*
X171237579Y-94793012D01*
X171237623Y-94793066D01*
X171237637Y-94793099D01*
X171243817Y-94800630D01*
X171249999Y-94808179D01*
X171250028Y-94808198D01*
X171250073Y-94808253D01*
X171297692Y-94855871D01*
X171305358Y-94862163D01*
X171307091Y-94864161D01*
X171310099Y-94866054D01*
X171312845Y-94868308D01*
X171315285Y-94869318D01*
X171323682Y-94874604D01*
X171418919Y-94922223D01*
X171437228Y-94929229D01*
X171440811Y-94929483D01*
X171444132Y-94930859D01*
X171463641Y-94932780D01*
X171654117Y-94932780D01*
X171673626Y-94930859D01*
X171709674Y-94915927D01*
X171737264Y-94888337D01*
X171752196Y-94852289D01*
X171752196Y-94813271D01*
X171737264Y-94777223D01*
X171709674Y-94749633D01*
X171673626Y-94734701D01*
X171654117Y-94732780D01*
X171487248Y-94732780D01*
X171427638Y-94702975D01*
X171398495Y-94673831D01*
X171318359Y-94553627D01*
X171314068Y-94536464D01*
X171323681Y-94541271D01*
X171341990Y-94548277D01*
X171345573Y-94548531D01*
X171348894Y-94549907D01*
X171368403Y-94551828D01*
X171558879Y-94551828D01*
X171578388Y-94549907D01*
X171581708Y-94548531D01*
X171585292Y-94548277D01*
X171603600Y-94541271D01*
X171698838Y-94493652D01*
X171707234Y-94488366D01*
X171709674Y-94487356D01*
X171712420Y-94485102D01*
X171715428Y-94483209D01*
X171717157Y-94481214D01*
X171724828Y-94474920D01*
X171772446Y-94427301D01*
X171778738Y-94419634D01*
X171780736Y-94417902D01*
X171782629Y-94414893D01*
X171784883Y-94412148D01*
X171785893Y-94409707D01*
X171791179Y-94401311D01*
X171838798Y-94306074D01*
X171845804Y-94287765D01*
X171846058Y-94284181D01*
X171847434Y-94280861D01*
X171849355Y-94261352D01*
X171849355Y-94023257D01*
X171847434Y-94003748D01*
X171846058Y-94000427D01*
X171845804Y-93996844D01*
X171838798Y-93978535D01*
X171791179Y-93883298D01*
X171785893Y-93874901D01*
X171784883Y-93872461D01*
X171782629Y-93869715D01*
X171780736Y-93866707D01*
X171778738Y-93864974D01*
X171772446Y-93857308D01*
X171724828Y-93809689D01*
X171717161Y-93803397D01*
X171715430Y-93801401D01*
X171712419Y-93799506D01*
X171709674Y-93797253D01*
X171707234Y-93796242D01*
X171698839Y-93790958D01*
X171603601Y-93743338D01*
X171585293Y-93736331D01*
X171581707Y-93736076D01*
X171578388Y-93734701D01*
X171558879Y-93732780D01*
X171368403Y-93732780D01*
X171348894Y-93734701D01*
X171345573Y-93736076D01*
X171341990Y-93736331D01*
X171323681Y-93743338D01*
X171228443Y-93790958D01*
X171220050Y-93796241D01*
X171217607Y-93797253D01*
X171214857Y-93799509D01*
X171211853Y-93801401D01*
X171210123Y-93803395D01*
X171202454Y-93809690D01*
X171154835Y-93857308D01*
X171148540Y-93864978D01*
X171146546Y-93866708D01*
X171144652Y-93869715D01*
X171142399Y-93872462D01*
X171141388Y-93874901D01*
X171136103Y-93883298D01*
X171088484Y-93978536D01*
X171081478Y-93996844D01*
X171081223Y-94000427D01*
X171079848Y-94003748D01*
X171077927Y-94023257D01*
X170509826Y-94023257D01*
X170419349Y-93932780D01*
X170796974Y-93932780D01*
X170816483Y-93930859D01*
X170852531Y-93915927D01*
X170880121Y-93888337D01*
X170895053Y-93852289D01*
X170895053Y-93813271D01*
X170880121Y-93777223D01*
X170852531Y-93749633D01*
X170816483Y-93734701D01*
X170796974Y-93732780D01*
X170177927Y-93732780D01*
X170158418Y-93734701D01*
X170122370Y-93749633D01*
X170094780Y-93777223D01*
X170079848Y-93813271D01*
X169968737Y-93813271D01*
X169968737Y-93621669D01*
X171960466Y-93621669D01*
X171960466Y-95043891D01*
G37*
G36*
X147599354Y-87390726D02*
G01*
X145654108Y-87390726D01*
X145654108Y-86478621D01*
X145765219Y-86478621D01*
X145766355Y-86483616D01*
X145766355Y-86485623D01*
X145767366Y-86488065D01*
X145769566Y-86497737D01*
X146007661Y-87212022D01*
X146015652Y-87229923D01*
X146041217Y-87259399D01*
X146076116Y-87276848D01*
X146115036Y-87279615D01*
X146152052Y-87267276D01*
X146181528Y-87241711D01*
X146198978Y-87206812D01*
X146201744Y-87167892D01*
X146197397Y-87148777D01*
X146003176Y-86566114D01*
X146240624Y-86566114D01*
X146240624Y-86799447D01*
X146242545Y-86818956D01*
X146257477Y-86855004D01*
X146285067Y-86882594D01*
X146321115Y-86897526D01*
X146360133Y-86897526D01*
X146396181Y-86882594D01*
X146423771Y-86855004D01*
X146438703Y-86818956D01*
X146440624Y-86799447D01*
X146440624Y-86566114D01*
X146483481Y-86566114D01*
X146502990Y-86564193D01*
X146539038Y-86549261D01*
X146566628Y-86521671D01*
X146581560Y-86485623D01*
X146581560Y-86446605D01*
X146566628Y-86410557D01*
X146539038Y-86382967D01*
X146502990Y-86368035D01*
X146483481Y-86366114D01*
X146440624Y-86366114D01*
X146440624Y-86208510D01*
X146671117Y-86208510D01*
X146671117Y-86247528D01*
X146686049Y-86283576D01*
X146713639Y-86311166D01*
X146749687Y-86326098D01*
X146788705Y-86326098D01*
X146824753Y-86311166D01*
X146839907Y-86298730D01*
X146876051Y-86262584D01*
X146935659Y-86232780D01*
X147174161Y-86232780D01*
X147233767Y-86262583D01*
X147258438Y-86287254D01*
X147288243Y-86346864D01*
X147288243Y-86537745D01*
X147258438Y-86597354D01*
X147233769Y-86622022D01*
X147174160Y-86651828D01*
X147054910Y-86651828D01*
X147044592Y-86652843D01*
X147041968Y-86652669D01*
X147040160Y-86653280D01*
X147035401Y-86653749D01*
X147020395Y-86659964D01*
X147005007Y-86665169D01*
X147002467Y-86667390D01*
X146999353Y-86668681D01*
X146987868Y-86680165D01*
X146975643Y-86690863D01*
X146974147Y-86693886D01*
X146971763Y-86696271D01*
X146965546Y-86711277D01*
X146958346Y-86725838D01*
X146958121Y-86729203D01*
X146956831Y-86732319D01*
X146956831Y-86748567D01*
X146955751Y-86764770D01*
X146956831Y-86767963D01*
X146956831Y-86771337D01*
X146963046Y-86786342D01*
X146968251Y-86801731D01*
X146971032Y-86805621D01*
X146971763Y-86807385D01*
X146973622Y-86809244D01*
X146979652Y-86817678D01*
X147167866Y-87032780D01*
X146769196Y-87032780D01*
X146749687Y-87034701D01*
X146713639Y-87049633D01*
X146686049Y-87077223D01*
X146671117Y-87113271D01*
X146671117Y-87152289D01*
X146686049Y-87188337D01*
X146713639Y-87215927D01*
X146749687Y-87230859D01*
X146769196Y-87232780D01*
X147388243Y-87232780D01*
X147398560Y-87231764D01*
X147401185Y-87231939D01*
X147402992Y-87231327D01*
X147407752Y-87230859D01*
X147422755Y-87224644D01*
X147438147Y-87219439D01*
X147440686Y-87217216D01*
X147443800Y-87215927D01*
X147455277Y-87204449D01*
X147467511Y-87193745D01*
X147469006Y-87190720D01*
X147471390Y-87188337D01*
X147477604Y-87173335D01*
X147484807Y-87158770D01*
X147485031Y-87155404D01*
X147486322Y-87152289D01*
X147486322Y-87136040D01*
X147487402Y-87119838D01*
X147486322Y-87116644D01*
X147486322Y-87113271D01*
X147480106Y-87098265D01*
X147474902Y-87082877D01*
X147472120Y-87078986D01*
X147471390Y-87077223D01*
X147469530Y-87075363D01*
X147463501Y-87066930D01*
X147258878Y-86833075D01*
X147337726Y-86793652D01*
X147346122Y-86788366D01*
X147348562Y-86787356D01*
X147351308Y-86785102D01*
X147354316Y-86783209D01*
X147356045Y-86781214D01*
X147363716Y-86774920D01*
X147411334Y-86727301D01*
X147417626Y-86719634D01*
X147419624Y-86717902D01*
X147421517Y-86714893D01*
X147423771Y-86712148D01*
X147424781Y-86709707D01*
X147430067Y-86701311D01*
X147477686Y-86606074D01*
X147484692Y-86587765D01*
X147484946Y-86584181D01*
X147486322Y-86580861D01*
X147488243Y-86561352D01*
X147488243Y-86323257D01*
X147486322Y-86303748D01*
X147484946Y-86300427D01*
X147484692Y-86296844D01*
X147477686Y-86278535D01*
X147430067Y-86183298D01*
X147424781Y-86174901D01*
X147423771Y-86172461D01*
X147421517Y-86169715D01*
X147419624Y-86166707D01*
X147417626Y-86164974D01*
X147411334Y-86157308D01*
X147363716Y-86109689D01*
X147356049Y-86103397D01*
X147354318Y-86101401D01*
X147351307Y-86099506D01*
X147348562Y-86097253D01*
X147346122Y-86096242D01*
X147337727Y-86090958D01*
X147242489Y-86043338D01*
X147224181Y-86036331D01*
X147220595Y-86036076D01*
X147217276Y-86034701D01*
X147197767Y-86032780D01*
X146912053Y-86032780D01*
X146892544Y-86034701D01*
X146889223Y-86036076D01*
X146885640Y-86036331D01*
X146867331Y-86043338D01*
X146772093Y-86090958D01*
X146763700Y-86096241D01*
X146761257Y-86097253D01*
X146758507Y-86099509D01*
X146755503Y-86101401D01*
X146753773Y-86103395D01*
X146746104Y-86109690D01*
X146698485Y-86157308D01*
X146686049Y-86172462D01*
X146671117Y-86208510D01*
X146440624Y-86208510D01*
X146440624Y-86132780D01*
X146438703Y-86113271D01*
X146423771Y-86077223D01*
X146396181Y-86049633D01*
X146360133Y-86034701D01*
X146321115Y-86034701D01*
X146285067Y-86049633D01*
X146257477Y-86077223D01*
X146242545Y-86113271D01*
X146240624Y-86132780D01*
X146240624Y-86366114D01*
X145864434Y-86366114D01*
X145854560Y-86367086D01*
X145851927Y-86366899D01*
X145850025Y-86367532D01*
X145844925Y-86368035D01*
X145830120Y-86374167D01*
X145814911Y-86379237D01*
X145812195Y-86381592D01*
X145808877Y-86382967D01*
X145797546Y-86394297D01*
X145785435Y-86404802D01*
X145783827Y-86408016D01*
X145781287Y-86410557D01*
X145775152Y-86425365D01*
X145767985Y-86439701D01*
X145767730Y-86443284D01*
X145766355Y-86446605D01*
X145766355Y-86462636D01*
X145765219Y-86478621D01*
X145654108Y-86478621D01*
X145654108Y-85921669D01*
X147599354Y-85921669D01*
X147599354Y-87390726D01*
G37*
G36*
X180052478Y-81217802D02*
G01*
X180119551Y-81284875D01*
X180155003Y-81355780D01*
X180196974Y-81523661D01*
X180196974Y-81641899D01*
X180155003Y-81809780D01*
X180119551Y-81880686D01*
X180052478Y-81947758D01*
X179947414Y-81982780D01*
X179825546Y-81982780D01*
X179825546Y-81182780D01*
X179947414Y-81182780D01*
X180052478Y-81217802D01*
G37*
G36*
X180916022Y-81766552D02*
G01*
X180816670Y-81468495D01*
X181015375Y-81468495D01*
X180916022Y-81766552D01*
G37*
G36*
X181459681Y-82293891D02*
G01*
X178514435Y-82293891D01*
X178514435Y-81797066D01*
X178625546Y-81797066D01*
X178625546Y-81892304D01*
X178627467Y-81911813D01*
X178628842Y-81915133D01*
X178629097Y-81918717D01*
X178636103Y-81937025D01*
X178683722Y-82032263D01*
X178689007Y-82040659D01*
X178690018Y-82043099D01*
X178692271Y-82045845D01*
X178694165Y-82048853D01*
X178696159Y-82050582D01*
X178702454Y-82058253D01*
X178750073Y-82105871D01*
X178757739Y-82112163D01*
X178759472Y-82114161D01*
X178762480Y-82116054D01*
X178765226Y-82118308D01*
X178767666Y-82119318D01*
X178776063Y-82124604D01*
X178871300Y-82172223D01*
X178889609Y-82179229D01*
X178893192Y-82179483D01*
X178896513Y-82180859D01*
X178916022Y-82182780D01*
X179154117Y-82182780D01*
X179163990Y-82181807D01*
X179166624Y-82181995D01*
X179170087Y-82181207D01*
X179173626Y-82180859D01*
X179176068Y-82179847D01*
X179185740Y-82177648D01*
X179328596Y-82130029D01*
X179346497Y-82122038D01*
X179375973Y-82096473D01*
X179393422Y-82061574D01*
X179396189Y-82022654D01*
X179383850Y-81985638D01*
X179358285Y-81956162D01*
X179323386Y-81938712D01*
X179284466Y-81935946D01*
X179265351Y-81940293D01*
X179137890Y-81982780D01*
X178939629Y-81982780D01*
X178880019Y-81952975D01*
X178855351Y-81928306D01*
X178825546Y-81868696D01*
X178825546Y-81820673D01*
X178855351Y-81761063D01*
X178880019Y-81736394D01*
X178950926Y-81700941D01*
X179130751Y-81655985D01*
X179132188Y-81655471D01*
X179132911Y-81655420D01*
X179141035Y-81652311D01*
X179149212Y-81649390D01*
X179149792Y-81648959D01*
X179151219Y-81648414D01*
X179246457Y-81600795D01*
X179254853Y-81595509D01*
X179257293Y-81594499D01*
X179260039Y-81592245D01*
X179263047Y-81590352D01*
X179264776Y-81588357D01*
X179272447Y-81582063D01*
X179320065Y-81534444D01*
X179326357Y-81526777D01*
X179328355Y-81525045D01*
X179330248Y-81522036D01*
X179332502Y-81519291D01*
X179333512Y-81516850D01*
X179338798Y-81508454D01*
X179386417Y-81413217D01*
X179393423Y-81394908D01*
X179393677Y-81391324D01*
X179395053Y-81388004D01*
X179396974Y-81368495D01*
X179396974Y-81273257D01*
X179395053Y-81253748D01*
X179393677Y-81250427D01*
X179393423Y-81246844D01*
X179386417Y-81228535D01*
X179338798Y-81133298D01*
X179333512Y-81124901D01*
X179332502Y-81122461D01*
X179330248Y-81119715D01*
X179328355Y-81116707D01*
X179326357Y-81114974D01*
X179320065Y-81107308D01*
X179295538Y-81082780D01*
X179625546Y-81082780D01*
X179625546Y-82082780D01*
X179627467Y-82102289D01*
X179642399Y-82138337D01*
X179669989Y-82165927D01*
X179706037Y-82180859D01*
X179725546Y-82182780D01*
X179963641Y-82182780D01*
X179973514Y-82181807D01*
X179976148Y-82181995D01*
X179979611Y-82181207D01*
X179983150Y-82180859D01*
X179985592Y-82179847D01*
X179995264Y-82177648D01*
X180138120Y-82130029D01*
X180156021Y-82122038D01*
X180158736Y-82119682D01*
X180162055Y-82118308D01*
X180177209Y-82105872D01*
X180272447Y-82010634D01*
X180278738Y-82002967D01*
X180280736Y-82001235D01*
X180282631Y-81998223D01*
X180284883Y-81995480D01*
X180285892Y-81993042D01*
X180291179Y-81984644D01*
X180338798Y-81889407D01*
X180339344Y-81887978D01*
X180339774Y-81887399D01*
X180342695Y-81879222D01*
X180345804Y-81871098D01*
X180345855Y-81870377D01*
X180346369Y-81868939D01*
X180393988Y-81678463D01*
X180394488Y-81675081D01*
X180395053Y-81673718D01*
X180395776Y-81666367D01*
X180396856Y-81659070D01*
X180396638Y-81657611D01*
X180396974Y-81654209D01*
X180396974Y-81511352D01*
X180396638Y-81507949D01*
X180396856Y-81506491D01*
X180395776Y-81499193D01*
X180395053Y-81491843D01*
X180394488Y-81490479D01*
X180393988Y-81487098D01*
X180346369Y-81296622D01*
X180345855Y-81295183D01*
X180345804Y-81294463D01*
X180342695Y-81286338D01*
X180339774Y-81278162D01*
X180339344Y-81277582D01*
X180338798Y-81276154D01*
X180291179Y-81180917D01*
X180285892Y-81172518D01*
X180284883Y-81170081D01*
X180282631Y-81167337D01*
X180280736Y-81164326D01*
X180278738Y-81162593D01*
X180272447Y-81154927D01*
X180212807Y-81095287D01*
X180483474Y-81095287D01*
X180487821Y-81114403D01*
X180821154Y-82114402D01*
X180829145Y-82132303D01*
X180833828Y-82137702D01*
X180837023Y-82144092D01*
X180846494Y-82152307D01*
X180854710Y-82161779D01*
X180861098Y-82164973D01*
X180866499Y-82169657D01*
X180878400Y-82173624D01*
X180889609Y-82179228D01*
X180896733Y-82179734D01*
X180903515Y-82181995D01*
X180916024Y-82181105D01*
X180928529Y-82181995D01*
X180935307Y-82179735D01*
X180942435Y-82179229D01*
X180953651Y-82173620D01*
X180965545Y-82169656D01*
X180970942Y-82164975D01*
X180977334Y-82161779D01*
X180985552Y-82152303D01*
X180995021Y-82144091D01*
X180998214Y-82137704D01*
X181002899Y-82132303D01*
X181010890Y-82114403D01*
X181344223Y-81114403D01*
X181348570Y-81095288D01*
X181345804Y-81056368D01*
X181328354Y-81021469D01*
X181298878Y-80995904D01*
X181261862Y-80983565D01*
X181222942Y-80986332D01*
X181188043Y-81003781D01*
X181162478Y-81033257D01*
X181154487Y-81051158D01*
X181082041Y-81268495D01*
X180750003Y-81268495D01*
X180677557Y-81051157D01*
X180669566Y-81033257D01*
X180644001Y-81003781D01*
X180609102Y-80986331D01*
X180570182Y-80983565D01*
X180533166Y-80995903D01*
X180503690Y-81021468D01*
X180486240Y-81056367D01*
X180483474Y-81095287D01*
X180212807Y-81095287D01*
X180177209Y-81059689D01*
X180162055Y-81047253D01*
X180158736Y-81045878D01*
X180156022Y-81043524D01*
X180138122Y-81035532D01*
X179995264Y-80987912D01*
X179985591Y-80985712D01*
X179983150Y-80984701D01*
X179979612Y-80984352D01*
X179976149Y-80983565D01*
X179973514Y-80983752D01*
X179963641Y-80982780D01*
X179725546Y-80982780D01*
X179706037Y-80984701D01*
X179669989Y-80999633D01*
X179642399Y-81027223D01*
X179627467Y-81063271D01*
X179625546Y-81082780D01*
X179295538Y-81082780D01*
X179272447Y-81059689D01*
X179264780Y-81053397D01*
X179263049Y-81051401D01*
X179260038Y-81049506D01*
X179257293Y-81047253D01*
X179254853Y-81046242D01*
X179246458Y-81040958D01*
X179151220Y-80993338D01*
X179132912Y-80986331D01*
X179129326Y-80986076D01*
X179126007Y-80984701D01*
X179106498Y-80982780D01*
X178868403Y-80982780D01*
X178858529Y-80983752D01*
X178855895Y-80983565D01*
X178852431Y-80984352D01*
X178848894Y-80984701D01*
X178846452Y-80985712D01*
X178836780Y-80987912D01*
X178693923Y-81035532D01*
X178676022Y-81043524D01*
X178646546Y-81069089D01*
X178629097Y-81103988D01*
X178626331Y-81142908D01*
X178638670Y-81179924D01*
X178664235Y-81209400D01*
X178699134Y-81226849D01*
X178738054Y-81229615D01*
X178757169Y-81225268D01*
X178884631Y-81182780D01*
X179082892Y-81182780D01*
X179142498Y-81212583D01*
X179167169Y-81237254D01*
X179196974Y-81296864D01*
X179196974Y-81344888D01*
X179167169Y-81404497D01*
X179142500Y-81429165D01*
X179071593Y-81464619D01*
X178891768Y-81509576D01*
X178890329Y-81510089D01*
X178889609Y-81510141D01*
X178881484Y-81513249D01*
X178873308Y-81516171D01*
X178872728Y-81516600D01*
X178871300Y-81517147D01*
X178776063Y-81564766D01*
X178767666Y-81570051D01*
X178765226Y-81571062D01*
X178762480Y-81573315D01*
X178759472Y-81575209D01*
X178757739Y-81577206D01*
X178750073Y-81583499D01*
X178702454Y-81631117D01*
X178696159Y-81638787D01*
X178694165Y-81640517D01*
X178692271Y-81643524D01*
X178690018Y-81646271D01*
X178689007Y-81648710D01*
X178683722Y-81657107D01*
X178636103Y-81752345D01*
X178629097Y-81770653D01*
X178628842Y-81774236D01*
X178627467Y-81777557D01*
X178625546Y-81797066D01*
X178514435Y-81797066D01*
X178514435Y-80871669D01*
X181459681Y-80871669D01*
X181459681Y-82293891D01*
G37*
G36*
X172006164Y-97590726D02*
G01*
X169968737Y-97590726D01*
X169968737Y-96313271D01*
X170079848Y-96313271D01*
X170079848Y-96352289D01*
X170094780Y-96388337D01*
X170107216Y-96403491D01*
X170661952Y-96958228D01*
X170696974Y-97063292D01*
X170696974Y-97118697D01*
X170667169Y-97178306D01*
X170642500Y-97202974D01*
X170582891Y-97232780D01*
X170392010Y-97232780D01*
X170332400Y-97202975D01*
X170296257Y-97166831D01*
X170281103Y-97154395D01*
X170245055Y-97139463D01*
X170206037Y-97139463D01*
X170169989Y-97154395D01*
X170142399Y-97181985D01*
X170127467Y-97218033D01*
X170127467Y-97257051D01*
X170142399Y-97293099D01*
X170154835Y-97308253D01*
X170202454Y-97355871D01*
X170210120Y-97362163D01*
X170211853Y-97364161D01*
X170214861Y-97366054D01*
X170217607Y-97368308D01*
X170220047Y-97369318D01*
X170228444Y-97374604D01*
X170323681Y-97422223D01*
X170341990Y-97429229D01*
X170345573Y-97429483D01*
X170348894Y-97430859D01*
X170368403Y-97432780D01*
X170606498Y-97432780D01*
X170626007Y-97430859D01*
X170629327Y-97429483D01*
X170632911Y-97429229D01*
X170651219Y-97422223D01*
X170746457Y-97374604D01*
X170754853Y-97369318D01*
X170757293Y-97368308D01*
X170760039Y-97366054D01*
X170763047Y-97364161D01*
X170764776Y-97362166D01*
X170772447Y-97355872D01*
X170820065Y-97308253D01*
X170826357Y-97300586D01*
X170828355Y-97298854D01*
X170830248Y-97295845D01*
X170832502Y-97293100D01*
X170833512Y-97290659D01*
X170838798Y-97282263D01*
X170886417Y-97187026D01*
X170893423Y-97168717D01*
X170893677Y-97165133D01*
X170895053Y-97161813D01*
X170896974Y-97142304D01*
X170896974Y-97047066D01*
X170896001Y-97037192D01*
X170896189Y-97034558D01*
X170895401Y-97031094D01*
X170895053Y-97027557D01*
X170894041Y-97025115D01*
X170891842Y-97015443D01*
X170844223Y-96872586D01*
X170836232Y-96854686D01*
X170833876Y-96851970D01*
X170832502Y-96848652D01*
X170820066Y-96833498D01*
X170665189Y-96678621D01*
X171078712Y-96678621D01*
X171079848Y-96683616D01*
X171079848Y-96685623D01*
X171080859Y-96688065D01*
X171083059Y-96697737D01*
X171321154Y-97412022D01*
X171329145Y-97429923D01*
X171354710Y-97459399D01*
X171389609Y-97476848D01*
X171428529Y-97479615D01*
X171465545Y-97467276D01*
X171495021Y-97441711D01*
X171512471Y-97406812D01*
X171515237Y-97367892D01*
X171510890Y-97348777D01*
X171316669Y-96766114D01*
X171554117Y-96766114D01*
X171554117Y-96999447D01*
X171556038Y-97018956D01*
X171570970Y-97055004D01*
X171598560Y-97082594D01*
X171634608Y-97097526D01*
X171673626Y-97097526D01*
X171709674Y-97082594D01*
X171737264Y-97055004D01*
X171752196Y-97018956D01*
X171754117Y-96999447D01*
X171754117Y-96766114D01*
X171796974Y-96766114D01*
X171816483Y-96764193D01*
X171852531Y-96749261D01*
X171880121Y-96721671D01*
X171895053Y-96685623D01*
X171895053Y-96646605D01*
X171880121Y-96610557D01*
X171852531Y-96582967D01*
X171816483Y-96568035D01*
X171796974Y-96566114D01*
X171754117Y-96566114D01*
X171754117Y-96332780D01*
X171752196Y-96313271D01*
X171737264Y-96277223D01*
X171709674Y-96249633D01*
X171673626Y-96234701D01*
X171634608Y-96234701D01*
X171598560Y-96249633D01*
X171570970Y-96277223D01*
X171556038Y-96313271D01*
X171554117Y-96332780D01*
X171554117Y-96566114D01*
X171177927Y-96566114D01*
X171168053Y-96567086D01*
X171165420Y-96566899D01*
X171163518Y-96567532D01*
X171158418Y-96568035D01*
X171143613Y-96574167D01*
X171128404Y-96579237D01*
X171125688Y-96581592D01*
X171122370Y-96582967D01*
X171111039Y-96594297D01*
X171098928Y-96604802D01*
X171097320Y-96608016D01*
X171094780Y-96610557D01*
X171088645Y-96625365D01*
X171081478Y-96639701D01*
X171081223Y-96643284D01*
X171079848Y-96646605D01*
X171079848Y-96662636D01*
X171078712Y-96678621D01*
X170665189Y-96678621D01*
X170419349Y-96432780D01*
X170796974Y-96432780D01*
X170816483Y-96430859D01*
X170852531Y-96415927D01*
X170880121Y-96388337D01*
X170895053Y-96352289D01*
X170895053Y-96313271D01*
X170880121Y-96277223D01*
X170852531Y-96249633D01*
X170816483Y-96234701D01*
X170796974Y-96232780D01*
X170177927Y-96232780D01*
X170158418Y-96234701D01*
X170122370Y-96249633D01*
X170094780Y-96277223D01*
X170079848Y-96313271D01*
X169968737Y-96313271D01*
X169968737Y-96121669D01*
X172006164Y-96121669D01*
X172006164Y-97590726D01*
G37*
X179296974Y-84535161D02*
X179201736Y-84582780D01*
X179201736Y-84582780D02*
X179058879Y-84582780D01*
X179058879Y-84582780D02*
X178916022Y-84535161D01*
X178916022Y-84535161D02*
X178820784Y-84439923D01*
X178820784Y-84439923D02*
X178773165Y-84344685D01*
X178773165Y-84344685D02*
X178725546Y-84154209D01*
X178725546Y-84154209D02*
X178725546Y-84011352D01*
X178725546Y-84011352D02*
X178773165Y-83820876D01*
X178773165Y-83820876D02*
X178820784Y-83725638D01*
X178820784Y-83725638D02*
X178916022Y-83630400D01*
X178916022Y-83630400D02*
X179058879Y-83582780D01*
X179058879Y-83582780D02*
X179154117Y-83582780D01*
X179154117Y-83582780D02*
X179296974Y-83630400D01*
X179296974Y-83630400D02*
X179344593Y-83678019D01*
X179344593Y-83678019D02*
X179344593Y-84011352D01*
X179344593Y-84011352D02*
X179154117Y-84011352D01*
X179773165Y-83582780D02*
X179773165Y-84582780D01*
X179773165Y-84582780D02*
X180344593Y-83582780D01*
X180344593Y-83582780D02*
X180344593Y-84582780D01*
X180820784Y-83582780D02*
X180820784Y-84582780D01*
X180820784Y-84582780D02*
X181058879Y-84582780D01*
X181058879Y-84582780D02*
X181201736Y-84535161D01*
X181201736Y-84535161D02*
X181296974Y-84439923D01*
X181296974Y-84439923D02*
X181344593Y-84344685D01*
X181344593Y-84344685D02*
X181392212Y-84154209D01*
X181392212Y-84154209D02*
X181392212Y-84011352D01*
X181392212Y-84011352D02*
X181344593Y-83820876D01*
X181344593Y-83820876D02*
X181296974Y-83725638D01*
X181296974Y-83725638D02*
X181201736Y-83630400D01*
X181201736Y-83630400D02*
X181058879Y-83582780D01*
X181058879Y-83582780D02*
X180820784Y-83582780D01*
G36*
X180892500Y-87034014D02*
G01*
X180917169Y-87058682D01*
X180946974Y-87118292D01*
X180946974Y-87118697D01*
X180917169Y-87178306D01*
X180892500Y-87202974D01*
X180832891Y-87232780D01*
X180689629Y-87232780D01*
X180630019Y-87202975D01*
X180605351Y-87178306D01*
X180575546Y-87118696D01*
X180575546Y-87118292D01*
X180605351Y-87058682D01*
X180630019Y-87034013D01*
X180689629Y-87004209D01*
X180832891Y-87004209D01*
X180892500Y-87034014D01*
G37*
G36*
X180892498Y-86462583D02*
G01*
X180917169Y-86487254D01*
X180946974Y-86546864D01*
X180946974Y-86690126D01*
X180917169Y-86749735D01*
X180892500Y-86774403D01*
X180832891Y-86804209D01*
X180689629Y-86804209D01*
X180630019Y-86774404D01*
X180605351Y-86749735D01*
X180575546Y-86690125D01*
X180575546Y-86546864D01*
X180605351Y-86487254D01*
X180630020Y-86462584D01*
X180689628Y-86432780D01*
X180832892Y-86432780D01*
X180892498Y-86462583D01*
G37*
G36*
X181258085Y-87543891D02*
G01*
X180264435Y-87543891D01*
X180264435Y-86523257D01*
X180375546Y-86523257D01*
X180375546Y-86713733D01*
X180377467Y-86733242D01*
X180378842Y-86736562D01*
X180379097Y-86740146D01*
X180386103Y-86758454D01*
X180433722Y-86853692D01*
X180439007Y-86862088D01*
X180440018Y-86864528D01*
X180442271Y-86867274D01*
X180444165Y-86870282D01*
X180446159Y-86872011D01*
X180452454Y-86879682D01*
X180476981Y-86904209D01*
X180452454Y-86928736D01*
X180446159Y-86936406D01*
X180444165Y-86938136D01*
X180442271Y-86941143D01*
X180440018Y-86943890D01*
X180439007Y-86946329D01*
X180433722Y-86954726D01*
X180386103Y-87049964D01*
X180379097Y-87068272D01*
X180378842Y-87071855D01*
X180377467Y-87075176D01*
X180375546Y-87094685D01*
X180375546Y-87142304D01*
X180377467Y-87161813D01*
X180378842Y-87165133D01*
X180379097Y-87168717D01*
X180386103Y-87187025D01*
X180433722Y-87282263D01*
X180439007Y-87290659D01*
X180440018Y-87293099D01*
X180442271Y-87295845D01*
X180444165Y-87298853D01*
X180446159Y-87300582D01*
X180452454Y-87308253D01*
X180500073Y-87355871D01*
X180507739Y-87362163D01*
X180509472Y-87364161D01*
X180512480Y-87366054D01*
X180515226Y-87368308D01*
X180517666Y-87369318D01*
X180526063Y-87374604D01*
X180621300Y-87422223D01*
X180639609Y-87429229D01*
X180643192Y-87429483D01*
X180646513Y-87430859D01*
X180666022Y-87432780D01*
X180856498Y-87432780D01*
X180876007Y-87430859D01*
X180879327Y-87429483D01*
X180882911Y-87429229D01*
X180901219Y-87422223D01*
X180996457Y-87374604D01*
X181004853Y-87369318D01*
X181007293Y-87368308D01*
X181010039Y-87366054D01*
X181013047Y-87364161D01*
X181014776Y-87362166D01*
X181022447Y-87355872D01*
X181070065Y-87308253D01*
X181076357Y-87300586D01*
X181078355Y-87298854D01*
X181080248Y-87295845D01*
X181082502Y-87293100D01*
X181083512Y-87290659D01*
X181088798Y-87282263D01*
X181136417Y-87187026D01*
X181143423Y-87168717D01*
X181143677Y-87165133D01*
X181145053Y-87161813D01*
X181146974Y-87142304D01*
X181146974Y-87094685D01*
X181145053Y-87075176D01*
X181143677Y-87071855D01*
X181143423Y-87068272D01*
X181136417Y-87049963D01*
X181088798Y-86954726D01*
X181083512Y-86946329D01*
X181082502Y-86943889D01*
X181080248Y-86941143D01*
X181078355Y-86938135D01*
X181076357Y-86936402D01*
X181070065Y-86928736D01*
X181045538Y-86904209D01*
X181070065Y-86879682D01*
X181076357Y-86872015D01*
X181078355Y-86870283D01*
X181080248Y-86867274D01*
X181082502Y-86864529D01*
X181083512Y-86862088D01*
X181088798Y-86853692D01*
X181136417Y-86758455D01*
X181143423Y-86740146D01*
X181143677Y-86736562D01*
X181145053Y-86733242D01*
X181146974Y-86713733D01*
X181146974Y-86523257D01*
X181145053Y-86503748D01*
X181143677Y-86500427D01*
X181143423Y-86496844D01*
X181136417Y-86478535D01*
X181088798Y-86383298D01*
X181083512Y-86374901D01*
X181082502Y-86372461D01*
X181080248Y-86369715D01*
X181078355Y-86366707D01*
X181076357Y-86364974D01*
X181070065Y-86357308D01*
X181022447Y-86309689D01*
X181014780Y-86303397D01*
X181013049Y-86301401D01*
X181010038Y-86299506D01*
X181007293Y-86297253D01*
X181004853Y-86296242D01*
X180996458Y-86290958D01*
X180901220Y-86243338D01*
X180882912Y-86236331D01*
X180879326Y-86236076D01*
X180876007Y-86234701D01*
X180856498Y-86232780D01*
X180666022Y-86232780D01*
X180646513Y-86234701D01*
X180643192Y-86236076D01*
X180639609Y-86236331D01*
X180621300Y-86243338D01*
X180526062Y-86290958D01*
X180517669Y-86296241D01*
X180515226Y-86297253D01*
X180512476Y-86299509D01*
X180509472Y-86301401D01*
X180507742Y-86303395D01*
X180500073Y-86309690D01*
X180452454Y-86357308D01*
X180446159Y-86364978D01*
X180444165Y-86366708D01*
X180442271Y-86369715D01*
X180440018Y-86372462D01*
X180439007Y-86374901D01*
X180433722Y-86383298D01*
X180386103Y-86478536D01*
X180379097Y-86496844D01*
X180378842Y-86500427D01*
X180377467Y-86503748D01*
X180375546Y-86523257D01*
X180264435Y-86523257D01*
X180264435Y-86121669D01*
X181258085Y-86121669D01*
X181258085Y-87543891D01*
G37*
G36*
X181099354Y-95043891D02*
G01*
X179107625Y-95043891D01*
X179107625Y-93813271D01*
X179218736Y-93813271D01*
X179218736Y-93852289D01*
X179233668Y-93888337D01*
X179246104Y-93903491D01*
X179800840Y-94458228D01*
X179835862Y-94563292D01*
X179835862Y-94618697D01*
X179806057Y-94678306D01*
X179781388Y-94702974D01*
X179721779Y-94732780D01*
X179530898Y-94732780D01*
X179471288Y-94702975D01*
X179435145Y-94666831D01*
X179419991Y-94654395D01*
X179383943Y-94639463D01*
X179344925Y-94639463D01*
X179308877Y-94654395D01*
X179281287Y-94681985D01*
X179266355Y-94718033D01*
X179266355Y-94757051D01*
X179281287Y-94793099D01*
X179293723Y-94808253D01*
X179341342Y-94855871D01*
X179349008Y-94862163D01*
X179350741Y-94864161D01*
X179353749Y-94866054D01*
X179356495Y-94868308D01*
X179358935Y-94869318D01*
X179367332Y-94874604D01*
X179462569Y-94922223D01*
X179480878Y-94929229D01*
X179484461Y-94929483D01*
X179487782Y-94930859D01*
X179507291Y-94932780D01*
X179745386Y-94932780D01*
X179764895Y-94930859D01*
X179768215Y-94929483D01*
X179771799Y-94929229D01*
X179790107Y-94922223D01*
X179885345Y-94874604D01*
X179893741Y-94869318D01*
X179896181Y-94868308D01*
X179898927Y-94866054D01*
X179901935Y-94864161D01*
X179903664Y-94862166D01*
X179911335Y-94855872D01*
X179958953Y-94808253D01*
X179965245Y-94800586D01*
X179967243Y-94798854D01*
X179969136Y-94795845D01*
X179971390Y-94793100D01*
X179972400Y-94790659D01*
X179977686Y-94782263D01*
X180025305Y-94687026D01*
X180032311Y-94668717D01*
X180032565Y-94665133D01*
X180033941Y-94661813D01*
X180035862Y-94642304D01*
X180035862Y-94547066D01*
X180034889Y-94537192D01*
X180035077Y-94534558D01*
X180034289Y-94531094D01*
X180033941Y-94527557D01*
X180032929Y-94525115D01*
X180030730Y-94515443D01*
X179983111Y-94372586D01*
X179975120Y-94354686D01*
X179972764Y-94351970D01*
X179971390Y-94348652D01*
X179969983Y-94346937D01*
X180217282Y-94346937D01*
X180217311Y-94366540D01*
X180264930Y-94842730D01*
X180266355Y-94849838D01*
X180266355Y-94852289D01*
X180267306Y-94854586D01*
X180268783Y-94861951D01*
X180275692Y-94874831D01*
X180281287Y-94888337D01*
X180284847Y-94891897D01*
X180287228Y-94896335D01*
X180298540Y-94905590D01*
X180308877Y-94915927D01*
X180313529Y-94917854D01*
X180317426Y-94921042D01*
X180331415Y-94925262D01*
X180344925Y-94930859D01*
X180352402Y-94931595D01*
X180354781Y-94932313D01*
X180357217Y-94932069D01*
X180364434Y-94932780D01*
X180840624Y-94932780D01*
X180860133Y-94930859D01*
X180896181Y-94915927D01*
X180923771Y-94888337D01*
X180938703Y-94852289D01*
X180938703Y-94813271D01*
X180923771Y-94777223D01*
X180896181Y-94749633D01*
X180860133Y-94734701D01*
X180840624Y-94732780D01*
X180454933Y-94732780D01*
X180436505Y-94548507D01*
X180436842Y-94548531D01*
X180440163Y-94549907D01*
X180459672Y-94551828D01*
X180697767Y-94551828D01*
X180717276Y-94549907D01*
X180720596Y-94548531D01*
X180724180Y-94548277D01*
X180742488Y-94541271D01*
X180837726Y-94493652D01*
X180846122Y-94488366D01*
X180848562Y-94487356D01*
X180851308Y-94485102D01*
X180854316Y-94483209D01*
X180856045Y-94481214D01*
X180863716Y-94474920D01*
X180911334Y-94427301D01*
X180917626Y-94419634D01*
X180919624Y-94417902D01*
X180921517Y-94414893D01*
X180923771Y-94412148D01*
X180924781Y-94409707D01*
X180930067Y-94401311D01*
X180977686Y-94306074D01*
X180984692Y-94287765D01*
X180984946Y-94284181D01*
X180986322Y-94280861D01*
X180988243Y-94261352D01*
X180988243Y-94023257D01*
X180986322Y-94003748D01*
X180984946Y-94000427D01*
X180984692Y-93996844D01*
X180977686Y-93978535D01*
X180930067Y-93883298D01*
X180924781Y-93874901D01*
X180923771Y-93872461D01*
X180921517Y-93869715D01*
X180919624Y-93866707D01*
X180917626Y-93864974D01*
X180911334Y-93857308D01*
X180863716Y-93809689D01*
X180856049Y-93803397D01*
X180854318Y-93801401D01*
X180851307Y-93799506D01*
X180848562Y-93797253D01*
X180846122Y-93796242D01*
X180837727Y-93790958D01*
X180742489Y-93743338D01*
X180724181Y-93736331D01*
X180720595Y-93736076D01*
X180717276Y-93734701D01*
X180697767Y-93732780D01*
X180459672Y-93732780D01*
X180440163Y-93734701D01*
X180436842Y-93736076D01*
X180433259Y-93736331D01*
X180414950Y-93743338D01*
X180319712Y-93790958D01*
X180311319Y-93796241D01*
X180308876Y-93797253D01*
X180306126Y-93799509D01*
X180303122Y-93801401D01*
X180301392Y-93803395D01*
X180293723Y-93809690D01*
X180246104Y-93857308D01*
X180233668Y-93872462D01*
X180218736Y-93908510D01*
X180218736Y-93947528D01*
X180233668Y-93983576D01*
X180261258Y-94011166D01*
X180297306Y-94026098D01*
X180336324Y-94026098D01*
X180372372Y-94011166D01*
X180387526Y-93998730D01*
X180423670Y-93962584D01*
X180483278Y-93932780D01*
X180674161Y-93932780D01*
X180733767Y-93962583D01*
X180758438Y-93987254D01*
X180788243Y-94046864D01*
X180788243Y-94237745D01*
X180758438Y-94297354D01*
X180733769Y-94322022D01*
X180674160Y-94351828D01*
X180483279Y-94351828D01*
X180423669Y-94322023D01*
X180387526Y-94285879D01*
X180372372Y-94273443D01*
X180367719Y-94271515D01*
X180363823Y-94268328D01*
X180349833Y-94264107D01*
X180336324Y-94258511D01*
X180331287Y-94258511D01*
X180326468Y-94257057D01*
X180311927Y-94258511D01*
X180297306Y-94258511D01*
X180292653Y-94260438D01*
X180287644Y-94260939D01*
X180274763Y-94267848D01*
X180261258Y-94273443D01*
X180257697Y-94277003D01*
X180253260Y-94279384D01*
X180244004Y-94290696D01*
X180233668Y-94301033D01*
X180231740Y-94305685D01*
X180228553Y-94309582D01*
X180224332Y-94323571D01*
X180218736Y-94337081D01*
X180218736Y-94342118D01*
X180217282Y-94346937D01*
X179969983Y-94346937D01*
X179958954Y-94333498D01*
X179558237Y-93932780D01*
X179935862Y-93932780D01*
X179955371Y-93930859D01*
X179991419Y-93915927D01*
X180019009Y-93888337D01*
X180033941Y-93852289D01*
X180033941Y-93813271D01*
X180019009Y-93777223D01*
X179991419Y-93749633D01*
X179955371Y-93734701D01*
X179935862Y-93732780D01*
X179316815Y-93732780D01*
X179297306Y-93734701D01*
X179261258Y-93749633D01*
X179233668Y-93777223D01*
X179218736Y-93813271D01*
X179107625Y-93813271D01*
X179107625Y-93621669D01*
X181099354Y-93621669D01*
X181099354Y-95043891D01*
G37*
G36*
X147597433Y-89890726D02*
G01*
X145654108Y-89890726D01*
X145654108Y-88978621D01*
X145765219Y-88978621D01*
X145766355Y-88983616D01*
X145766355Y-88985623D01*
X145767366Y-88988065D01*
X145769566Y-88997737D01*
X146007661Y-89712022D01*
X146015652Y-89729923D01*
X146041217Y-89759399D01*
X146076116Y-89776848D01*
X146115036Y-89779615D01*
X146152052Y-89767276D01*
X146181528Y-89741711D01*
X146198978Y-89706812D01*
X146201744Y-89667892D01*
X146197397Y-89648777D01*
X146003176Y-89066114D01*
X146240624Y-89066114D01*
X146240624Y-89299447D01*
X146242545Y-89318956D01*
X146257477Y-89355004D01*
X146285067Y-89382594D01*
X146321115Y-89397526D01*
X146360133Y-89397526D01*
X146396181Y-89382594D01*
X146419202Y-89359573D01*
X146717600Y-89359573D01*
X146729939Y-89396589D01*
X146755503Y-89426066D01*
X146772094Y-89436509D01*
X146852816Y-89476870D01*
X146929580Y-89553634D01*
X147019324Y-89688250D01*
X147019368Y-89688304D01*
X147019382Y-89688337D01*
X147019455Y-89688410D01*
X147031744Y-89703417D01*
X147039972Y-89708927D01*
X147046972Y-89715927D01*
X147056023Y-89719676D01*
X147064164Y-89725128D01*
X147073871Y-89727069D01*
X147083020Y-89730859D01*
X147092820Y-89730859D01*
X147102425Y-89732780D01*
X147112137Y-89730859D01*
X147122038Y-89730859D01*
X147131087Y-89727110D01*
X147140701Y-89725209D01*
X147148942Y-89719714D01*
X147158086Y-89715927D01*
X147165011Y-89709001D01*
X147173166Y-89703565D01*
X147178676Y-89695336D01*
X147185676Y-89688337D01*
X147189425Y-89679285D01*
X147194877Y-89671145D01*
X147196818Y-89661437D01*
X147200608Y-89652289D01*
X147202508Y-89632986D01*
X147202529Y-89632885D01*
X147202522Y-89632850D01*
X147202529Y-89632780D01*
X147202529Y-88732780D01*
X147388243Y-88732780D01*
X147407752Y-88730859D01*
X147443800Y-88715927D01*
X147471390Y-88688337D01*
X147486322Y-88652289D01*
X147486322Y-88613271D01*
X147471390Y-88577223D01*
X147443800Y-88549633D01*
X147407752Y-88534701D01*
X147388243Y-88532780D01*
X146816815Y-88532780D01*
X146797306Y-88534701D01*
X146761258Y-88549633D01*
X146733668Y-88577223D01*
X146718736Y-88613271D01*
X146718736Y-88652289D01*
X146733668Y-88688337D01*
X146761258Y-88715927D01*
X146797306Y-88730859D01*
X146816815Y-88732780D01*
X147002529Y-88732780D01*
X147002529Y-89343739D01*
X146982764Y-89323974D01*
X146975093Y-89317679D01*
X146973364Y-89315685D01*
X146970356Y-89313791D01*
X146967610Y-89311538D01*
X146965170Y-89310527D01*
X146956774Y-89305242D01*
X146861536Y-89257623D01*
X146843228Y-89250617D01*
X146804308Y-89247851D01*
X146767292Y-89260190D01*
X146737815Y-89285754D01*
X146720366Y-89320653D01*
X146717600Y-89359573D01*
X146419202Y-89359573D01*
X146423771Y-89355004D01*
X146438703Y-89318956D01*
X146440624Y-89299447D01*
X146440624Y-89066114D01*
X146483481Y-89066114D01*
X146502990Y-89064193D01*
X146539038Y-89049261D01*
X146566628Y-89021671D01*
X146581560Y-88985623D01*
X146581560Y-88946605D01*
X146566628Y-88910557D01*
X146539038Y-88882967D01*
X146502990Y-88868035D01*
X146483481Y-88866114D01*
X146440624Y-88866114D01*
X146440624Y-88632780D01*
X146438703Y-88613271D01*
X146423771Y-88577223D01*
X146396181Y-88549633D01*
X146360133Y-88534701D01*
X146321115Y-88534701D01*
X146285067Y-88549633D01*
X146257477Y-88577223D01*
X146242545Y-88613271D01*
X146240624Y-88632780D01*
X146240624Y-88866114D01*
X145864434Y-88866114D01*
X145854560Y-88867086D01*
X145851927Y-88866899D01*
X145850025Y-88867532D01*
X145844925Y-88868035D01*
X145830120Y-88874167D01*
X145814911Y-88879237D01*
X145812195Y-88881592D01*
X145808877Y-88882967D01*
X145797546Y-88894297D01*
X145785435Y-88904802D01*
X145783827Y-88908016D01*
X145781287Y-88910557D01*
X145775152Y-88925365D01*
X145767985Y-88939701D01*
X145767730Y-88943284D01*
X145766355Y-88946605D01*
X145766355Y-88962636D01*
X145765219Y-88978621D01*
X145654108Y-88978621D01*
X145654108Y-88421669D01*
X147597433Y-88421669D01*
X147597433Y-89890726D01*
G37*
G36*
X147233767Y-83762583D02*
G01*
X147258438Y-83787254D01*
X147288243Y-83846864D01*
X147288243Y-84037745D01*
X147258438Y-84097354D01*
X147233769Y-84122022D01*
X147174160Y-84151828D01*
X147030898Y-84151828D01*
X146971288Y-84122023D01*
X146946620Y-84097354D01*
X146916815Y-84037744D01*
X146916815Y-83846864D01*
X146946620Y-83787254D01*
X146971289Y-83762584D01*
X147030897Y-83732780D01*
X147174161Y-83732780D01*
X147233767Y-83762583D01*
G37*
G36*
X147599354Y-84890726D02*
G01*
X145654108Y-84890726D01*
X145654108Y-83978621D01*
X145765219Y-83978621D01*
X145766355Y-83983616D01*
X145766355Y-83985623D01*
X145767366Y-83988065D01*
X145769566Y-83997737D01*
X146007661Y-84712022D01*
X146015652Y-84729923D01*
X146041217Y-84759399D01*
X146076116Y-84776848D01*
X146115036Y-84779615D01*
X146152052Y-84767276D01*
X146181528Y-84741711D01*
X146198978Y-84706812D01*
X146201744Y-84667892D01*
X146197397Y-84648777D01*
X146003176Y-84066114D01*
X146240624Y-84066114D01*
X146240624Y-84299447D01*
X146242545Y-84318956D01*
X146257477Y-84355004D01*
X146285067Y-84382594D01*
X146321115Y-84397526D01*
X146360133Y-84397526D01*
X146396181Y-84382594D01*
X146423771Y-84355004D01*
X146438703Y-84318956D01*
X146440624Y-84299447D01*
X146440624Y-84066114D01*
X146483481Y-84066114D01*
X146502990Y-84064193D01*
X146539038Y-84049261D01*
X146566628Y-84021671D01*
X146581560Y-83985623D01*
X146581560Y-83946605D01*
X146566628Y-83910557D01*
X146539038Y-83882967D01*
X146502990Y-83868035D01*
X146483481Y-83866114D01*
X146440624Y-83866114D01*
X146440624Y-83823257D01*
X146716815Y-83823257D01*
X146716815Y-84204209D01*
X146717150Y-84207611D01*
X146716933Y-84209070D01*
X146718012Y-84216367D01*
X146718736Y-84223718D01*
X146719300Y-84225081D01*
X146719801Y-84228463D01*
X146767420Y-84418938D01*
X146771526Y-84430433D01*
X146772006Y-84432857D01*
X146773177Y-84435053D01*
X146774015Y-84437399D01*
X146775486Y-84439385D01*
X146781229Y-84450155D01*
X146876467Y-84593012D01*
X146876511Y-84593066D01*
X146876525Y-84593099D01*
X146882705Y-84600630D01*
X146888887Y-84608179D01*
X146888916Y-84608198D01*
X146888961Y-84608253D01*
X146936580Y-84655871D01*
X146944246Y-84662163D01*
X146945979Y-84664161D01*
X146948987Y-84666054D01*
X146951733Y-84668308D01*
X146954173Y-84669318D01*
X146962570Y-84674604D01*
X147057807Y-84722223D01*
X147076116Y-84729229D01*
X147079699Y-84729483D01*
X147083020Y-84730859D01*
X147102529Y-84732780D01*
X147293005Y-84732780D01*
X147312514Y-84730859D01*
X147348562Y-84715927D01*
X147376152Y-84688337D01*
X147391084Y-84652289D01*
X147391084Y-84613271D01*
X147376152Y-84577223D01*
X147348562Y-84549633D01*
X147312514Y-84534701D01*
X147293005Y-84532780D01*
X147126136Y-84532780D01*
X147066526Y-84502975D01*
X147037383Y-84473831D01*
X146957247Y-84353627D01*
X146952956Y-84336464D01*
X146962569Y-84341271D01*
X146980878Y-84348277D01*
X146984461Y-84348531D01*
X146987782Y-84349907D01*
X147007291Y-84351828D01*
X147197767Y-84351828D01*
X147217276Y-84349907D01*
X147220596Y-84348531D01*
X147224180Y-84348277D01*
X147242488Y-84341271D01*
X147337726Y-84293652D01*
X147346122Y-84288366D01*
X147348562Y-84287356D01*
X147351308Y-84285102D01*
X147354316Y-84283209D01*
X147356045Y-84281214D01*
X147363716Y-84274920D01*
X147411334Y-84227301D01*
X147417626Y-84219634D01*
X147419624Y-84217902D01*
X147421517Y-84214893D01*
X147423771Y-84212148D01*
X147424781Y-84209707D01*
X147430067Y-84201311D01*
X147477686Y-84106074D01*
X147484692Y-84087765D01*
X147484946Y-84084181D01*
X147486322Y-84080861D01*
X147488243Y-84061352D01*
X147488243Y-83823257D01*
X147486322Y-83803748D01*
X147484946Y-83800427D01*
X147484692Y-83796844D01*
X147477686Y-83778535D01*
X147430067Y-83683298D01*
X147424781Y-83674901D01*
X147423771Y-83672461D01*
X147421517Y-83669715D01*
X147419624Y-83666707D01*
X147417626Y-83664974D01*
X147411334Y-83657308D01*
X147363716Y-83609689D01*
X147356049Y-83603397D01*
X147354318Y-83601401D01*
X147351307Y-83599506D01*
X147348562Y-83597253D01*
X147346122Y-83596242D01*
X147337727Y-83590958D01*
X147242489Y-83543338D01*
X147224181Y-83536331D01*
X147220595Y-83536076D01*
X147217276Y-83534701D01*
X147197767Y-83532780D01*
X147007291Y-83532780D01*
X146987782Y-83534701D01*
X146984461Y-83536076D01*
X146980878Y-83536331D01*
X146962569Y-83543338D01*
X146867331Y-83590958D01*
X146858938Y-83596241D01*
X146856495Y-83597253D01*
X146853745Y-83599509D01*
X146850741Y-83601401D01*
X146849011Y-83603395D01*
X146841342Y-83609690D01*
X146793723Y-83657308D01*
X146787428Y-83664978D01*
X146785434Y-83666708D01*
X146783540Y-83669715D01*
X146781287Y-83672462D01*
X146780276Y-83674901D01*
X146774991Y-83683298D01*
X146727372Y-83778536D01*
X146720366Y-83796844D01*
X146720111Y-83800427D01*
X146718736Y-83803748D01*
X146716815Y-83823257D01*
X146440624Y-83823257D01*
X146440624Y-83632780D01*
X146438703Y-83613271D01*
X146423771Y-83577223D01*
X146396181Y-83549633D01*
X146360133Y-83534701D01*
X146321115Y-83534701D01*
X146285067Y-83549633D01*
X146257477Y-83577223D01*
X146242545Y-83613271D01*
X146240624Y-83632780D01*
X146240624Y-83866114D01*
X145864434Y-83866114D01*
X145854560Y-83867086D01*
X145851927Y-83866899D01*
X145850025Y-83867532D01*
X145844925Y-83868035D01*
X145830120Y-83874167D01*
X145814911Y-83879237D01*
X145812195Y-83881592D01*
X145808877Y-83882967D01*
X145797546Y-83894297D01*
X145785435Y-83904802D01*
X145783827Y-83908016D01*
X145781287Y-83910557D01*
X145775152Y-83925365D01*
X145767985Y-83939701D01*
X145767730Y-83943284D01*
X145766355Y-83946605D01*
X145766355Y-83962636D01*
X145765219Y-83978621D01*
X145654108Y-83978621D01*
X145654108Y-83421669D01*
X147599354Y-83421669D01*
X147599354Y-84890726D01*
G37*
G36*
X137242212Y-84890726D02*
G01*
X135296966Y-84890726D01*
X135296966Y-83978621D01*
X135408077Y-83978621D01*
X135409213Y-83983616D01*
X135409213Y-83985623D01*
X135410224Y-83988065D01*
X135412424Y-83997737D01*
X135650519Y-84712022D01*
X135658510Y-84729923D01*
X135684075Y-84759399D01*
X135718974Y-84776848D01*
X135757894Y-84779615D01*
X135794910Y-84767276D01*
X135824386Y-84741711D01*
X135841836Y-84706812D01*
X135844602Y-84667892D01*
X135840255Y-84648777D01*
X135646034Y-84066114D01*
X135883482Y-84066114D01*
X135883482Y-84299447D01*
X135885403Y-84318956D01*
X135900335Y-84355004D01*
X135927925Y-84382594D01*
X135963973Y-84397526D01*
X136002991Y-84397526D01*
X136039039Y-84382594D01*
X136066629Y-84355004D01*
X136081561Y-84318956D01*
X136083482Y-84299447D01*
X136083482Y-84146937D01*
X136360140Y-84146937D01*
X136360169Y-84166540D01*
X136407788Y-84642730D01*
X136409213Y-84649838D01*
X136409213Y-84652289D01*
X136410164Y-84654586D01*
X136411641Y-84661951D01*
X136418550Y-84674831D01*
X136424145Y-84688337D01*
X136427705Y-84691897D01*
X136430086Y-84696335D01*
X136441398Y-84705590D01*
X136451735Y-84715927D01*
X136456387Y-84717854D01*
X136460284Y-84721042D01*
X136474273Y-84725262D01*
X136487783Y-84730859D01*
X136495260Y-84731595D01*
X136497639Y-84732313D01*
X136500075Y-84732069D01*
X136507292Y-84732780D01*
X136983482Y-84732780D01*
X137002991Y-84730859D01*
X137039039Y-84715927D01*
X137066629Y-84688337D01*
X137081561Y-84652289D01*
X137081561Y-84613271D01*
X137066629Y-84577223D01*
X137039039Y-84549633D01*
X137002991Y-84534701D01*
X136983482Y-84532780D01*
X136597791Y-84532780D01*
X136579363Y-84348507D01*
X136579700Y-84348531D01*
X136583021Y-84349907D01*
X136602530Y-84351828D01*
X136840625Y-84351828D01*
X136860134Y-84349907D01*
X136863454Y-84348531D01*
X136867038Y-84348277D01*
X136885346Y-84341271D01*
X136980584Y-84293652D01*
X136988980Y-84288366D01*
X136991420Y-84287356D01*
X136994166Y-84285102D01*
X136997174Y-84283209D01*
X136998903Y-84281214D01*
X137006574Y-84274920D01*
X137054192Y-84227301D01*
X137060484Y-84219634D01*
X137062482Y-84217902D01*
X137064375Y-84214893D01*
X137066629Y-84212148D01*
X137067639Y-84209707D01*
X137072925Y-84201311D01*
X137120544Y-84106074D01*
X137127550Y-84087765D01*
X137127804Y-84084181D01*
X137129180Y-84080861D01*
X137131101Y-84061352D01*
X137131101Y-83823257D01*
X137129180Y-83803748D01*
X137127804Y-83800427D01*
X137127550Y-83796844D01*
X137120544Y-83778535D01*
X137072925Y-83683298D01*
X137067639Y-83674901D01*
X137066629Y-83672461D01*
X137064375Y-83669715D01*
X137062482Y-83666707D01*
X137060484Y-83664974D01*
X137054192Y-83657308D01*
X137006574Y-83609689D01*
X136998907Y-83603397D01*
X136997176Y-83601401D01*
X136994165Y-83599506D01*
X136991420Y-83597253D01*
X136988980Y-83596242D01*
X136980585Y-83590958D01*
X136885347Y-83543338D01*
X136867039Y-83536331D01*
X136863453Y-83536076D01*
X136860134Y-83534701D01*
X136840625Y-83532780D01*
X136602530Y-83532780D01*
X136583021Y-83534701D01*
X136579700Y-83536076D01*
X136576117Y-83536331D01*
X136557808Y-83543338D01*
X136462570Y-83590958D01*
X136454177Y-83596241D01*
X136451734Y-83597253D01*
X136448984Y-83599509D01*
X136445980Y-83601401D01*
X136444250Y-83603395D01*
X136436581Y-83609690D01*
X136388962Y-83657308D01*
X136376526Y-83672462D01*
X136361594Y-83708510D01*
X136361594Y-83747528D01*
X136376526Y-83783576D01*
X136404116Y-83811166D01*
X136440164Y-83826098D01*
X136479182Y-83826098D01*
X136515230Y-83811166D01*
X136530384Y-83798730D01*
X136566528Y-83762584D01*
X136626136Y-83732780D01*
X136817019Y-83732780D01*
X136876625Y-83762583D01*
X136901296Y-83787254D01*
X136931101Y-83846864D01*
X136931101Y-84037745D01*
X136901296Y-84097354D01*
X136876627Y-84122022D01*
X136817018Y-84151828D01*
X136626137Y-84151828D01*
X136566527Y-84122023D01*
X136530384Y-84085879D01*
X136515230Y-84073443D01*
X136510577Y-84071515D01*
X136506681Y-84068328D01*
X136492691Y-84064107D01*
X136479182Y-84058511D01*
X136474145Y-84058511D01*
X136469326Y-84057057D01*
X136454785Y-84058511D01*
X136440164Y-84058511D01*
X136435511Y-84060438D01*
X136430502Y-84060939D01*
X136417621Y-84067848D01*
X136404116Y-84073443D01*
X136400555Y-84077003D01*
X136396118Y-84079384D01*
X136386862Y-84090696D01*
X136376526Y-84101033D01*
X136374598Y-84105685D01*
X136371411Y-84109582D01*
X136367190Y-84123571D01*
X136361594Y-84137081D01*
X136361594Y-84142118D01*
X136360140Y-84146937D01*
X136083482Y-84146937D01*
X136083482Y-84066114D01*
X136126339Y-84066114D01*
X136145848Y-84064193D01*
X136181896Y-84049261D01*
X136209486Y-84021671D01*
X136224418Y-83985623D01*
X136224418Y-83946605D01*
X136209486Y-83910557D01*
X136181896Y-83882967D01*
X136145848Y-83868035D01*
X136126339Y-83866114D01*
X136083482Y-83866114D01*
X136083482Y-83632780D01*
X136081561Y-83613271D01*
X136066629Y-83577223D01*
X136039039Y-83549633D01*
X136002991Y-83534701D01*
X135963973Y-83534701D01*
X135927925Y-83549633D01*
X135900335Y-83577223D01*
X135885403Y-83613271D01*
X135883482Y-83632780D01*
X135883482Y-83866114D01*
X135507292Y-83866114D01*
X135497418Y-83867086D01*
X135494785Y-83866899D01*
X135492883Y-83867532D01*
X135487783Y-83868035D01*
X135472978Y-83874167D01*
X135457769Y-83879237D01*
X135455053Y-83881592D01*
X135451735Y-83882967D01*
X135440404Y-83894297D01*
X135428293Y-83904802D01*
X135426685Y-83908016D01*
X135424145Y-83910557D01*
X135418010Y-83925365D01*
X135410843Y-83939701D01*
X135410588Y-83943284D01*
X135409213Y-83946605D01*
X135409213Y-83962636D01*
X135408077Y-83978621D01*
X135296966Y-83978621D01*
X135296966Y-83421669D01*
X137242212Y-83421669D01*
X137242212Y-84890726D01*
G37*
X178745281Y-99922329D02*
X179364328Y-99922329D01*
X179364328Y-99922329D02*
X179030995Y-99541377D01*
X179030995Y-99541377D02*
X179173852Y-99541377D01*
X179173852Y-99541377D02*
X179269090Y-99493758D01*
X179269090Y-99493758D02*
X179316709Y-99446139D01*
X179316709Y-99446139D02*
X179364328Y-99350901D01*
X179364328Y-99350901D02*
X179364328Y-99112806D01*
X179364328Y-99112806D02*
X179316709Y-99017568D01*
X179316709Y-99017568D02*
X179269090Y-98969949D01*
X179269090Y-98969949D02*
X179173852Y-98922329D01*
X179173852Y-98922329D02*
X178888138Y-98922329D01*
X178888138Y-98922329D02*
X178792900Y-98969949D01*
X178792900Y-98969949D02*
X178745281Y-99017568D01*
X179650043Y-99922329D02*
X179983376Y-98922329D01*
X179983376Y-98922329D02*
X180316709Y-99922329D01*
X180554805Y-99922329D02*
X181173852Y-99922329D01*
X181173852Y-99922329D02*
X180840519Y-99541377D01*
X180840519Y-99541377D02*
X180983376Y-99541377D01*
X180983376Y-99541377D02*
X181078614Y-99493758D01*
X181078614Y-99493758D02*
X181126233Y-99446139D01*
X181126233Y-99446139D02*
X181173852Y-99350901D01*
X181173852Y-99350901D02*
X181173852Y-99112806D01*
X181173852Y-99112806D02*
X181126233Y-99017568D01*
X181126233Y-99017568D02*
X181078614Y-98969949D01*
X181078614Y-98969949D02*
X180983376Y-98922329D01*
X180983376Y-98922329D02*
X180697662Y-98922329D01*
X180697662Y-98922329D02*
X180602424Y-98969949D01*
X180602424Y-98969949D02*
X180554805Y-99017568D01*
G36*
X181003547Y-97477491D02*
G01*
X178965890Y-97477491D01*
X178965890Y-96246871D01*
X179077001Y-96246871D01*
X179077001Y-96285889D01*
X179091933Y-96321937D01*
X179104369Y-96337091D01*
X179659105Y-96891828D01*
X179694127Y-96996892D01*
X179694127Y-97052297D01*
X179664322Y-97111906D01*
X179639653Y-97136574D01*
X179580044Y-97166380D01*
X179389163Y-97166380D01*
X179329553Y-97136575D01*
X179293410Y-97100431D01*
X179278256Y-97087995D01*
X179242208Y-97073063D01*
X179203190Y-97073063D01*
X179167142Y-97087995D01*
X179139552Y-97115585D01*
X179124620Y-97151633D01*
X179124620Y-97190651D01*
X179139552Y-97226699D01*
X179151988Y-97241853D01*
X179199607Y-97289471D01*
X179207273Y-97295763D01*
X179209006Y-97297761D01*
X179212014Y-97299654D01*
X179214760Y-97301908D01*
X179217200Y-97302918D01*
X179225597Y-97308204D01*
X179320834Y-97355823D01*
X179339143Y-97362829D01*
X179342726Y-97363083D01*
X179346047Y-97364459D01*
X179365556Y-97366380D01*
X179603651Y-97366380D01*
X179623160Y-97364459D01*
X179626480Y-97363083D01*
X179630064Y-97362829D01*
X179648372Y-97355823D01*
X179743610Y-97308204D01*
X179752006Y-97302918D01*
X179754446Y-97301908D01*
X179757192Y-97299654D01*
X179760200Y-97297761D01*
X179761929Y-97295766D01*
X179769600Y-97289472D01*
X179812200Y-97246871D01*
X180029382Y-97246871D01*
X180029382Y-97285889D01*
X180044314Y-97321937D01*
X180071904Y-97349527D01*
X180107952Y-97364459D01*
X180127461Y-97366380D01*
X180794127Y-97366380D01*
X180813636Y-97364459D01*
X180814211Y-97364220D01*
X180814830Y-97364213D01*
X180832167Y-97356782D01*
X180849684Y-97349527D01*
X180850123Y-97349087D01*
X180850694Y-97348843D01*
X180863894Y-97335316D01*
X180877274Y-97321937D01*
X180877511Y-97321362D01*
X180877945Y-97320919D01*
X180884952Y-97303399D01*
X180892206Y-97285889D01*
X180892206Y-97285266D01*
X180892436Y-97284691D01*
X180892206Y-97265799D01*
X180892206Y-97246871D01*
X180891968Y-97246297D01*
X180891961Y-97245676D01*
X180886041Y-97226988D01*
X180457471Y-96226988D01*
X180448020Y-96209813D01*
X180420095Y-96182562D01*
X180383868Y-96168071D01*
X180344852Y-96168546D01*
X180308989Y-96183916D01*
X180281738Y-96211841D01*
X180267247Y-96248068D01*
X180267722Y-96287084D01*
X180273641Y-96305772D01*
X180642473Y-97166380D01*
X180127461Y-97166380D01*
X180107952Y-97168301D01*
X180071904Y-97183233D01*
X180044314Y-97210823D01*
X180029382Y-97246871D01*
X179812200Y-97246871D01*
X179817218Y-97241853D01*
X179823510Y-97234186D01*
X179825508Y-97232454D01*
X179827401Y-97229445D01*
X179829655Y-97226700D01*
X179830665Y-97224259D01*
X179835951Y-97215863D01*
X179883570Y-97120626D01*
X179890576Y-97102317D01*
X179890830Y-97098733D01*
X179892206Y-97095413D01*
X179894127Y-97075904D01*
X179894127Y-96980666D01*
X179893154Y-96970792D01*
X179893342Y-96968158D01*
X179892554Y-96964694D01*
X179892206Y-96961157D01*
X179891194Y-96958715D01*
X179888995Y-96949043D01*
X179841376Y-96806186D01*
X179833385Y-96788286D01*
X179831029Y-96785570D01*
X179829655Y-96782252D01*
X179817219Y-96767098D01*
X179416502Y-96366380D01*
X179794127Y-96366380D01*
X179813636Y-96364459D01*
X179849684Y-96349527D01*
X179877274Y-96321937D01*
X179892206Y-96285889D01*
X179892206Y-96246871D01*
X179877274Y-96210823D01*
X179849684Y-96183233D01*
X179813636Y-96168301D01*
X179794127Y-96166380D01*
X179175080Y-96166380D01*
X179155571Y-96168301D01*
X179119523Y-96183233D01*
X179091933Y-96210823D01*
X179077001Y-96246871D01*
X178965890Y-96246871D01*
X178965890Y-96055269D01*
X181003547Y-96055269D01*
X181003547Y-97477491D01*
G37*
G36*
X170642500Y-86843538D02*
G01*
X170667169Y-86868206D01*
X170696974Y-86927816D01*
X170696974Y-87118697D01*
X170667169Y-87178306D01*
X170642500Y-87202974D01*
X170582891Y-87232780D01*
X170439629Y-87232780D01*
X170380019Y-87202975D01*
X170355351Y-87178306D01*
X170325546Y-87118696D01*
X170325546Y-86927816D01*
X170355351Y-86868206D01*
X170380019Y-86843537D01*
X170439629Y-86813733D01*
X170582891Y-86813733D01*
X170642500Y-86843538D01*
G37*
G36*
X171008085Y-87543891D02*
G01*
X170014435Y-87543891D01*
X170014435Y-86904209D01*
X170125546Y-86904209D01*
X170125546Y-87142304D01*
X170127467Y-87161813D01*
X170128842Y-87165133D01*
X170129097Y-87168717D01*
X170136103Y-87187025D01*
X170183722Y-87282263D01*
X170189007Y-87290659D01*
X170190018Y-87293099D01*
X170192271Y-87295845D01*
X170194165Y-87298853D01*
X170196159Y-87300582D01*
X170202454Y-87308253D01*
X170250073Y-87355871D01*
X170257739Y-87362163D01*
X170259472Y-87364161D01*
X170262480Y-87366054D01*
X170265226Y-87368308D01*
X170267666Y-87369318D01*
X170276063Y-87374604D01*
X170371300Y-87422223D01*
X170389609Y-87429229D01*
X170393192Y-87429483D01*
X170396513Y-87430859D01*
X170416022Y-87432780D01*
X170606498Y-87432780D01*
X170626007Y-87430859D01*
X170629327Y-87429483D01*
X170632911Y-87429229D01*
X170651219Y-87422223D01*
X170746457Y-87374604D01*
X170754853Y-87369318D01*
X170757293Y-87368308D01*
X170760039Y-87366054D01*
X170763047Y-87364161D01*
X170764776Y-87362166D01*
X170772447Y-87355872D01*
X170820065Y-87308253D01*
X170826357Y-87300586D01*
X170828355Y-87298854D01*
X170830248Y-87295845D01*
X170832502Y-87293100D01*
X170833512Y-87290659D01*
X170838798Y-87282263D01*
X170886417Y-87187026D01*
X170893423Y-87168717D01*
X170893677Y-87165133D01*
X170895053Y-87161813D01*
X170896974Y-87142304D01*
X170896974Y-86761352D01*
X170896638Y-86757949D01*
X170896856Y-86756491D01*
X170895776Y-86749193D01*
X170895053Y-86741843D01*
X170894488Y-86740479D01*
X170893988Y-86737098D01*
X170846369Y-86546622D01*
X170842262Y-86535127D01*
X170841783Y-86532704D01*
X170840612Y-86530507D01*
X170839774Y-86528162D01*
X170838302Y-86526175D01*
X170832560Y-86515406D01*
X170737322Y-86372549D01*
X170737278Y-86372495D01*
X170737264Y-86372461D01*
X170731119Y-86364975D01*
X170724902Y-86357382D01*
X170724870Y-86357360D01*
X170724827Y-86357308D01*
X170677209Y-86309689D01*
X170669542Y-86303397D01*
X170667811Y-86301401D01*
X170664800Y-86299506D01*
X170662055Y-86297253D01*
X170659615Y-86296242D01*
X170651220Y-86290958D01*
X170555982Y-86243338D01*
X170537674Y-86236331D01*
X170534088Y-86236076D01*
X170530769Y-86234701D01*
X170511260Y-86232780D01*
X170320784Y-86232780D01*
X170301275Y-86234701D01*
X170265227Y-86249633D01*
X170237637Y-86277223D01*
X170222705Y-86313271D01*
X170222705Y-86352289D01*
X170237637Y-86388337D01*
X170265227Y-86415927D01*
X170301275Y-86430859D01*
X170320784Y-86432780D01*
X170487654Y-86432780D01*
X170547260Y-86462583D01*
X170576404Y-86491727D01*
X170656542Y-86611934D01*
X170660832Y-86629096D01*
X170651219Y-86624290D01*
X170632911Y-86617284D01*
X170629327Y-86617029D01*
X170626007Y-86615654D01*
X170606498Y-86613733D01*
X170416022Y-86613733D01*
X170396513Y-86615654D01*
X170393192Y-86617029D01*
X170389609Y-86617284D01*
X170371300Y-86624290D01*
X170276063Y-86671909D01*
X170267666Y-86677194D01*
X170265226Y-86678205D01*
X170262480Y-86680458D01*
X170259472Y-86682352D01*
X170257739Y-86684349D01*
X170250073Y-86690642D01*
X170202454Y-86738260D01*
X170196159Y-86745930D01*
X170194165Y-86747660D01*
X170192271Y-86750667D01*
X170190018Y-86753414D01*
X170189007Y-86755853D01*
X170183722Y-86764250D01*
X170136103Y-86859488D01*
X170129097Y-86877796D01*
X170128842Y-86881379D01*
X170127467Y-86884700D01*
X170125546Y-86904209D01*
X170014435Y-86904209D01*
X170014435Y-86121669D01*
X171008085Y-86121669D01*
X171008085Y-87543891D01*
G37*
X170546974Y-84535161D02*
X170451736Y-84582780D01*
X170451736Y-84582780D02*
X170308879Y-84582780D01*
X170308879Y-84582780D02*
X170166022Y-84535161D01*
X170166022Y-84535161D02*
X170070784Y-84439923D01*
X170070784Y-84439923D02*
X170023165Y-84344685D01*
X170023165Y-84344685D02*
X169975546Y-84154209D01*
X169975546Y-84154209D02*
X169975546Y-84011352D01*
X169975546Y-84011352D02*
X170023165Y-83820876D01*
X170023165Y-83820876D02*
X170070784Y-83725638D01*
X170070784Y-83725638D02*
X170166022Y-83630400D01*
X170166022Y-83630400D02*
X170308879Y-83582780D01*
X170308879Y-83582780D02*
X170404117Y-83582780D01*
X170404117Y-83582780D02*
X170546974Y-83630400D01*
X170546974Y-83630400D02*
X170594593Y-83678019D01*
X170594593Y-83678019D02*
X170594593Y-84011352D01*
X170594593Y-84011352D02*
X170404117Y-84011352D01*
X171023165Y-83582780D02*
X171023165Y-84582780D01*
X171023165Y-84582780D02*
X171594593Y-83582780D01*
X171594593Y-83582780D02*
X171594593Y-84582780D01*
X172070784Y-83582780D02*
X172070784Y-84582780D01*
X172070784Y-84582780D02*
X172308879Y-84582780D01*
X172308879Y-84582780D02*
X172451736Y-84535161D01*
X172451736Y-84535161D02*
X172546974Y-84439923D01*
X172546974Y-84439923D02*
X172594593Y-84344685D01*
X172594593Y-84344685D02*
X172642212Y-84154209D01*
X172642212Y-84154209D02*
X172642212Y-84011352D01*
X172642212Y-84011352D02*
X172594593Y-83820876D01*
X172594593Y-83820876D02*
X172546974Y-83725638D01*
X172546974Y-83725638D02*
X172451736Y-83630400D01*
X172451736Y-83630400D02*
X172308879Y-83582780D01*
X172308879Y-83582780D02*
X172070784Y-83582780D01*
G36*
X172006394Y-90043891D02*
G01*
X170015220Y-90043891D01*
X170015220Y-89559573D01*
X170126331Y-89559573D01*
X170138670Y-89596589D01*
X170164234Y-89626066D01*
X170180825Y-89636509D01*
X170261547Y-89676870D01*
X170338311Y-89753634D01*
X170428055Y-89888250D01*
X170428099Y-89888304D01*
X170428113Y-89888337D01*
X170428186Y-89888410D01*
X170440475Y-89903417D01*
X170448703Y-89908927D01*
X170455703Y-89915927D01*
X170464754Y-89919676D01*
X170472895Y-89925128D01*
X170482602Y-89927069D01*
X170491751Y-89930859D01*
X170501551Y-89930859D01*
X170511156Y-89932780D01*
X170520868Y-89930859D01*
X170530769Y-89930859D01*
X170539818Y-89927110D01*
X170549432Y-89925209D01*
X170557673Y-89919714D01*
X170566817Y-89915927D01*
X170573742Y-89909001D01*
X170581897Y-89903565D01*
X170587407Y-89895336D01*
X170594407Y-89888337D01*
X170598156Y-89879285D01*
X170603608Y-89871145D01*
X170605549Y-89861437D01*
X170609339Y-89852289D01*
X170611239Y-89832986D01*
X170611260Y-89832885D01*
X170611253Y-89832850D01*
X170611260Y-89832780D01*
X170611260Y-89813271D01*
X171032229Y-89813271D01*
X171032229Y-89852289D01*
X171047161Y-89888337D01*
X171074751Y-89915927D01*
X171110799Y-89930859D01*
X171130308Y-89932780D01*
X171796974Y-89932780D01*
X171816483Y-89930859D01*
X171817058Y-89930620D01*
X171817677Y-89930613D01*
X171835014Y-89923182D01*
X171852531Y-89915927D01*
X171852970Y-89915487D01*
X171853541Y-89915243D01*
X171866741Y-89901716D01*
X171880121Y-89888337D01*
X171880358Y-89887762D01*
X171880792Y-89887319D01*
X171887799Y-89869799D01*
X171895053Y-89852289D01*
X171895053Y-89851666D01*
X171895283Y-89851091D01*
X171895053Y-89832199D01*
X171895053Y-89813271D01*
X171894815Y-89812697D01*
X171894808Y-89812076D01*
X171888888Y-89793388D01*
X171460318Y-88793388D01*
X171450867Y-88776213D01*
X171422942Y-88748962D01*
X171386715Y-88734471D01*
X171347699Y-88734946D01*
X171311836Y-88750316D01*
X171284585Y-88778241D01*
X171270094Y-88814468D01*
X171270569Y-88853484D01*
X171276488Y-88872172D01*
X171645320Y-89732780D01*
X171130308Y-89732780D01*
X171110799Y-89734701D01*
X171074751Y-89749633D01*
X171047161Y-89777223D01*
X171032229Y-89813271D01*
X170611260Y-89813271D01*
X170611260Y-88932780D01*
X170796974Y-88932780D01*
X170816483Y-88930859D01*
X170852531Y-88915927D01*
X170880121Y-88888337D01*
X170895053Y-88852289D01*
X170895053Y-88813271D01*
X170880121Y-88777223D01*
X170852531Y-88749633D01*
X170816483Y-88734701D01*
X170796974Y-88732780D01*
X170225546Y-88732780D01*
X170206037Y-88734701D01*
X170169989Y-88749633D01*
X170142399Y-88777223D01*
X170127467Y-88813271D01*
X170127467Y-88852289D01*
X170142399Y-88888337D01*
X170169989Y-88915927D01*
X170206037Y-88930859D01*
X170225546Y-88932780D01*
X170411260Y-88932780D01*
X170411260Y-89543739D01*
X170391495Y-89523974D01*
X170383824Y-89517679D01*
X170382095Y-89515685D01*
X170379087Y-89513791D01*
X170376341Y-89511538D01*
X170373901Y-89510527D01*
X170365505Y-89505242D01*
X170270267Y-89457623D01*
X170251959Y-89450617D01*
X170213039Y-89447851D01*
X170176023Y-89460190D01*
X170146546Y-89485754D01*
X170129097Y-89520653D01*
X170126331Y-89559573D01*
X170015220Y-89559573D01*
X170015220Y-88621669D01*
X172006394Y-88621669D01*
X172006394Y-90043891D01*
G37*
X171386272Y-100725564D02*
X171386272Y-100106517D01*
X171386272Y-100106517D02*
X171005320Y-100439850D01*
X171005320Y-100439850D02*
X171005320Y-100296993D01*
X171005320Y-100296993D02*
X170957701Y-100201755D01*
X170957701Y-100201755D02*
X170910082Y-100154136D01*
X170910082Y-100154136D02*
X170814844Y-100106517D01*
X170814844Y-100106517D02*
X170576749Y-100106517D01*
X170576749Y-100106517D02*
X170481511Y-100154136D01*
X170481511Y-100154136D02*
X170433892Y-100201755D01*
X170433892Y-100201755D02*
X170386272Y-100296993D01*
X170386272Y-100296993D02*
X170386272Y-100582707D01*
X170386272Y-100582707D02*
X170433892Y-100677945D01*
X170433892Y-100677945D02*
X170481511Y-100725564D01*
X171386272Y-99820802D02*
X170386272Y-99487469D01*
X170386272Y-99487469D02*
X171386272Y-99154136D01*
X171386272Y-98916040D02*
X171386272Y-98296993D01*
X171386272Y-98296993D02*
X171005320Y-98630326D01*
X171005320Y-98630326D02*
X171005320Y-98487469D01*
X171005320Y-98487469D02*
X170957701Y-98392231D01*
X170957701Y-98392231D02*
X170910082Y-98344612D01*
X170910082Y-98344612D02*
X170814844Y-98296993D01*
X170814844Y-98296993D02*
X170576749Y-98296993D01*
X170576749Y-98296993D02*
X170481511Y-98344612D01*
X170481511Y-98344612D02*
X170433892Y-98392231D01*
X170433892Y-98392231D02*
X170386272Y-98487469D01*
X170386272Y-98487469D02*
X170386272Y-98773183D01*
X170386272Y-98773183D02*
X170433892Y-98868421D01*
X170433892Y-98868421D02*
X170481511Y-98916040D01*
G36*
X171547260Y-91462583D02*
G01*
X171571931Y-91487254D01*
X171607384Y-91558161D01*
X171649355Y-91726042D01*
X171649355Y-91939518D01*
X171607384Y-92107399D01*
X171571931Y-92178306D01*
X171547262Y-92202974D01*
X171487653Y-92232780D01*
X171439629Y-92232780D01*
X171380019Y-92202975D01*
X171355351Y-92178306D01*
X171319897Y-92107399D01*
X171277927Y-91939518D01*
X171277927Y-91726043D01*
X171319897Y-91558161D01*
X171355351Y-91487254D01*
X171380020Y-91462584D01*
X171439628Y-91432780D01*
X171487654Y-91432780D01*
X171547260Y-91462583D01*
G37*
G36*
X171960466Y-92543891D02*
G01*
X169968737Y-92543891D01*
X169968737Y-91313271D01*
X170079848Y-91313271D01*
X170079848Y-91352289D01*
X170094780Y-91388337D01*
X170107216Y-91403491D01*
X170661952Y-91958228D01*
X170696974Y-92063292D01*
X170696974Y-92118697D01*
X170667169Y-92178306D01*
X170642500Y-92202974D01*
X170582891Y-92232780D01*
X170392010Y-92232780D01*
X170332400Y-92202975D01*
X170296257Y-92166831D01*
X170281103Y-92154395D01*
X170245055Y-92139463D01*
X170206037Y-92139463D01*
X170169989Y-92154395D01*
X170142399Y-92181985D01*
X170127467Y-92218033D01*
X170127467Y-92257051D01*
X170142399Y-92293099D01*
X170154835Y-92308253D01*
X170202454Y-92355871D01*
X170210120Y-92362163D01*
X170211853Y-92364161D01*
X170214861Y-92366054D01*
X170217607Y-92368308D01*
X170220047Y-92369318D01*
X170228444Y-92374604D01*
X170323681Y-92422223D01*
X170341990Y-92429229D01*
X170345573Y-92429483D01*
X170348894Y-92430859D01*
X170368403Y-92432780D01*
X170606498Y-92432780D01*
X170626007Y-92430859D01*
X170629327Y-92429483D01*
X170632911Y-92429229D01*
X170651219Y-92422223D01*
X170746457Y-92374604D01*
X170754853Y-92369318D01*
X170757293Y-92368308D01*
X170760039Y-92366054D01*
X170763047Y-92364161D01*
X170764776Y-92362166D01*
X170772447Y-92355872D01*
X170820065Y-92308253D01*
X170826357Y-92300586D01*
X170828355Y-92298854D01*
X170830248Y-92295845D01*
X170832502Y-92293100D01*
X170833512Y-92290659D01*
X170838798Y-92282263D01*
X170886417Y-92187026D01*
X170893423Y-92168717D01*
X170893677Y-92165133D01*
X170895053Y-92161813D01*
X170896974Y-92142304D01*
X170896974Y-92047066D01*
X170896001Y-92037192D01*
X170896189Y-92034558D01*
X170895401Y-92031094D01*
X170895053Y-92027557D01*
X170894041Y-92025115D01*
X170891842Y-92015443D01*
X170844223Y-91872586D01*
X170836232Y-91854686D01*
X170833876Y-91851970D01*
X170832502Y-91848652D01*
X170820066Y-91833498D01*
X170700301Y-91713733D01*
X171077927Y-91713733D01*
X171077927Y-91951828D01*
X171078262Y-91955230D01*
X171078045Y-91956689D01*
X171079124Y-91963986D01*
X171079848Y-91971337D01*
X171080412Y-91972700D01*
X171080913Y-91976082D01*
X171128532Y-92166557D01*
X171129045Y-92167994D01*
X171129097Y-92168717D01*
X171132205Y-92176841D01*
X171135127Y-92185018D01*
X171135557Y-92185598D01*
X171136103Y-92187025D01*
X171183722Y-92282263D01*
X171189007Y-92290659D01*
X171190018Y-92293099D01*
X171192271Y-92295845D01*
X171194165Y-92298853D01*
X171196159Y-92300582D01*
X171202454Y-92308253D01*
X171250073Y-92355871D01*
X171257739Y-92362163D01*
X171259472Y-92364161D01*
X171262480Y-92366054D01*
X171265226Y-92368308D01*
X171267666Y-92369318D01*
X171276063Y-92374604D01*
X171371300Y-92422223D01*
X171389609Y-92429229D01*
X171393192Y-92429483D01*
X171396513Y-92430859D01*
X171416022Y-92432780D01*
X171511260Y-92432780D01*
X171530769Y-92430859D01*
X171534089Y-92429483D01*
X171537673Y-92429229D01*
X171555981Y-92422223D01*
X171651219Y-92374604D01*
X171659615Y-92369318D01*
X171662055Y-92368308D01*
X171664801Y-92366054D01*
X171667809Y-92364161D01*
X171669538Y-92362166D01*
X171677209Y-92355872D01*
X171724827Y-92308253D01*
X171731119Y-92300586D01*
X171733117Y-92298854D01*
X171735010Y-92295845D01*
X171737264Y-92293100D01*
X171738274Y-92290659D01*
X171743560Y-92282263D01*
X171791179Y-92187026D01*
X171791725Y-92185597D01*
X171792155Y-92185018D01*
X171795076Y-92176841D01*
X171798185Y-92168717D01*
X171798236Y-92167996D01*
X171798750Y-92166558D01*
X171846369Y-91976082D01*
X171846869Y-91972700D01*
X171847434Y-91971337D01*
X171848157Y-91963986D01*
X171849237Y-91956689D01*
X171849019Y-91955230D01*
X171849355Y-91951828D01*
X171849355Y-91713733D01*
X171849019Y-91710330D01*
X171849237Y-91708872D01*
X171848157Y-91701574D01*
X171847434Y-91694224D01*
X171846869Y-91692860D01*
X171846369Y-91689479D01*
X171798750Y-91499003D01*
X171798236Y-91497564D01*
X171798185Y-91496844D01*
X171795076Y-91488719D01*
X171792155Y-91480543D01*
X171791725Y-91479963D01*
X171791179Y-91478535D01*
X171743560Y-91383298D01*
X171738274Y-91374901D01*
X171737264Y-91372461D01*
X171735010Y-91369715D01*
X171733117Y-91366707D01*
X171731119Y-91364974D01*
X171724827Y-91357308D01*
X171677209Y-91309689D01*
X171669542Y-91303397D01*
X171667811Y-91301401D01*
X171664800Y-91299506D01*
X171662055Y-91297253D01*
X171659615Y-91296242D01*
X171651220Y-91290958D01*
X171555982Y-91243338D01*
X171537674Y-91236331D01*
X171534088Y-91236076D01*
X171530769Y-91234701D01*
X171511260Y-91232780D01*
X171416022Y-91232780D01*
X171396513Y-91234701D01*
X171393192Y-91236076D01*
X171389609Y-91236331D01*
X171371300Y-91243338D01*
X171276062Y-91290958D01*
X171267669Y-91296241D01*
X171265226Y-91297253D01*
X171262476Y-91299509D01*
X171259472Y-91301401D01*
X171257742Y-91303395D01*
X171250073Y-91309690D01*
X171202454Y-91357308D01*
X171196159Y-91364978D01*
X171194165Y-91366708D01*
X171192271Y-91369715D01*
X171190018Y-91372462D01*
X171189007Y-91374901D01*
X171183722Y-91383298D01*
X171136103Y-91478536D01*
X171135557Y-91479962D01*
X171135127Y-91480543D01*
X171132205Y-91488719D01*
X171129097Y-91496844D01*
X171129045Y-91497566D01*
X171128532Y-91499004D01*
X171080913Y-91689479D01*
X171080412Y-91692860D01*
X171079848Y-91694224D01*
X171079124Y-91701574D01*
X171078045Y-91708872D01*
X171078262Y-91710330D01*
X171077927Y-91713733D01*
X170700301Y-91713733D01*
X170419349Y-91432780D01*
X170796974Y-91432780D01*
X170816483Y-91430859D01*
X170852531Y-91415927D01*
X170880121Y-91388337D01*
X170895053Y-91352289D01*
X170895053Y-91313271D01*
X170880121Y-91277223D01*
X170852531Y-91249633D01*
X170816483Y-91234701D01*
X170796974Y-91232780D01*
X170177927Y-91232780D01*
X170158418Y-91234701D01*
X170122370Y-91249633D01*
X170094780Y-91277223D01*
X170079848Y-91313271D01*
X169968737Y-91313271D01*
X169968737Y-91121669D01*
X171960466Y-91121669D01*
X171960466Y-92543891D01*
G37*
G36*
X180844879Y-88962583D02*
G01*
X180869550Y-88987254D01*
X180899355Y-89046864D01*
X180899355Y-89237745D01*
X180869550Y-89297354D01*
X180844881Y-89322022D01*
X180785272Y-89351828D01*
X180642010Y-89351828D01*
X180582400Y-89322023D01*
X180557732Y-89297354D01*
X180527927Y-89237744D01*
X180527927Y-89046864D01*
X180557732Y-88987254D01*
X180582401Y-88962584D01*
X180642009Y-88932780D01*
X180785273Y-88932780D01*
X180844879Y-88962583D01*
G37*
G36*
X181210466Y-90043891D02*
G01*
X179265220Y-90043891D01*
X179265220Y-89559573D01*
X179376331Y-89559573D01*
X179388670Y-89596589D01*
X179414234Y-89626066D01*
X179430825Y-89636509D01*
X179511547Y-89676870D01*
X179588311Y-89753634D01*
X179678055Y-89888250D01*
X179678099Y-89888304D01*
X179678113Y-89888337D01*
X179678186Y-89888410D01*
X179690475Y-89903417D01*
X179698703Y-89908927D01*
X179705703Y-89915927D01*
X179714754Y-89919676D01*
X179722895Y-89925128D01*
X179732602Y-89927069D01*
X179741751Y-89930859D01*
X179751551Y-89930859D01*
X179761156Y-89932780D01*
X179770868Y-89930859D01*
X179780769Y-89930859D01*
X179789818Y-89927110D01*
X179799432Y-89925209D01*
X179807673Y-89919714D01*
X179816817Y-89915927D01*
X179823742Y-89909001D01*
X179831897Y-89903565D01*
X179837407Y-89895336D01*
X179844407Y-89888337D01*
X179848156Y-89879285D01*
X179853608Y-89871145D01*
X179855549Y-89861437D01*
X179859339Y-89852289D01*
X179861239Y-89832986D01*
X179861260Y-89832885D01*
X179861253Y-89832850D01*
X179861260Y-89832780D01*
X179861260Y-89023257D01*
X180327927Y-89023257D01*
X180327927Y-89404209D01*
X180328262Y-89407611D01*
X180328045Y-89409070D01*
X180329124Y-89416367D01*
X180329848Y-89423718D01*
X180330412Y-89425081D01*
X180330913Y-89428463D01*
X180378532Y-89618938D01*
X180382638Y-89630433D01*
X180383118Y-89632857D01*
X180384289Y-89635053D01*
X180385127Y-89637399D01*
X180386598Y-89639385D01*
X180392341Y-89650155D01*
X180487579Y-89793012D01*
X180487623Y-89793066D01*
X180487637Y-89793099D01*
X180493817Y-89800630D01*
X180499999Y-89808179D01*
X180500028Y-89808198D01*
X180500073Y-89808253D01*
X180547692Y-89855871D01*
X180555358Y-89862163D01*
X180557091Y-89864161D01*
X180560099Y-89866054D01*
X180562845Y-89868308D01*
X180565285Y-89869318D01*
X180573682Y-89874604D01*
X180668919Y-89922223D01*
X180687228Y-89929229D01*
X180690811Y-89929483D01*
X180694132Y-89930859D01*
X180713641Y-89932780D01*
X180904117Y-89932780D01*
X180923626Y-89930859D01*
X180959674Y-89915927D01*
X180987264Y-89888337D01*
X181002196Y-89852289D01*
X181002196Y-89813271D01*
X180987264Y-89777223D01*
X180959674Y-89749633D01*
X180923626Y-89734701D01*
X180904117Y-89732780D01*
X180737248Y-89732780D01*
X180677638Y-89702975D01*
X180648495Y-89673831D01*
X180568359Y-89553627D01*
X180564068Y-89536464D01*
X180573681Y-89541271D01*
X180591990Y-89548277D01*
X180595573Y-89548531D01*
X180598894Y-89549907D01*
X180618403Y-89551828D01*
X180808879Y-89551828D01*
X180828388Y-89549907D01*
X180831708Y-89548531D01*
X180835292Y-89548277D01*
X180853600Y-89541271D01*
X180948838Y-89493652D01*
X180957234Y-89488366D01*
X180959674Y-89487356D01*
X180962420Y-89485102D01*
X180965428Y-89483209D01*
X180967157Y-89481214D01*
X180974828Y-89474920D01*
X181022446Y-89427301D01*
X181028738Y-89419634D01*
X181030736Y-89417902D01*
X181032629Y-89414893D01*
X181034883Y-89412148D01*
X181035893Y-89409707D01*
X181041179Y-89401311D01*
X181088798Y-89306074D01*
X181095804Y-89287765D01*
X181096058Y-89284181D01*
X181097434Y-89280861D01*
X181099355Y-89261352D01*
X181099355Y-89023257D01*
X181097434Y-89003748D01*
X181096058Y-89000427D01*
X181095804Y-88996844D01*
X181088798Y-88978535D01*
X181041179Y-88883298D01*
X181035893Y-88874901D01*
X181034883Y-88872461D01*
X181032629Y-88869715D01*
X181030736Y-88866707D01*
X181028738Y-88864974D01*
X181022446Y-88857308D01*
X180974828Y-88809689D01*
X180967161Y-88803397D01*
X180965430Y-88801401D01*
X180962419Y-88799506D01*
X180959674Y-88797253D01*
X180957234Y-88796242D01*
X180948839Y-88790958D01*
X180853601Y-88743338D01*
X180835293Y-88736331D01*
X180831707Y-88736076D01*
X180828388Y-88734701D01*
X180808879Y-88732780D01*
X180618403Y-88732780D01*
X180598894Y-88734701D01*
X180595573Y-88736076D01*
X180591990Y-88736331D01*
X180573681Y-88743338D01*
X180478443Y-88790958D01*
X180470050Y-88796241D01*
X180467607Y-88797253D01*
X180464857Y-88799509D01*
X180461853Y-88801401D01*
X180460123Y-88803395D01*
X180452454Y-88809690D01*
X180404835Y-88857308D01*
X180398540Y-88864978D01*
X180396546Y-88866708D01*
X180394652Y-88869715D01*
X180392399Y-88872462D01*
X180391388Y-88874901D01*
X180386103Y-88883298D01*
X180338484Y-88978536D01*
X180331478Y-88996844D01*
X180331223Y-89000427D01*
X180329848Y-89003748D01*
X180327927Y-89023257D01*
X179861260Y-89023257D01*
X179861260Y-88932780D01*
X180046974Y-88932780D01*
X180066483Y-88930859D01*
X180102531Y-88915927D01*
X180130121Y-88888337D01*
X180145053Y-88852289D01*
X180145053Y-88813271D01*
X180130121Y-88777223D01*
X180102531Y-88749633D01*
X180066483Y-88734701D01*
X180046974Y-88732780D01*
X179475546Y-88732780D01*
X179456037Y-88734701D01*
X179419989Y-88749633D01*
X179392399Y-88777223D01*
X179377467Y-88813271D01*
X179377467Y-88852289D01*
X179392399Y-88888337D01*
X179419989Y-88915927D01*
X179456037Y-88930859D01*
X179475546Y-88932780D01*
X179661260Y-88932780D01*
X179661260Y-89543739D01*
X179641495Y-89523974D01*
X179633824Y-89517679D01*
X179632095Y-89515685D01*
X179629087Y-89513791D01*
X179626341Y-89511538D01*
X179623901Y-89510527D01*
X179615505Y-89505242D01*
X179520267Y-89457623D01*
X179501959Y-89450617D01*
X179463039Y-89447851D01*
X179426023Y-89460190D01*
X179396546Y-89485754D01*
X179379097Y-89520653D01*
X179376331Y-89559573D01*
X179265220Y-89559573D01*
X179265220Y-88621669D01*
X181210466Y-88621669D01*
X181210466Y-90043891D01*
G37*
X145316815Y-99882780D02*
X145935862Y-99882780D01*
X145935862Y-99882780D02*
X145602529Y-99501828D01*
X145602529Y-99501828D02*
X145745386Y-99501828D01*
X145745386Y-99501828D02*
X145840624Y-99454209D01*
X145840624Y-99454209D02*
X145888243Y-99406590D01*
X145888243Y-99406590D02*
X145935862Y-99311352D01*
X145935862Y-99311352D02*
X145935862Y-99073257D01*
X145935862Y-99073257D02*
X145888243Y-98978019D01*
X145888243Y-98978019D02*
X145840624Y-98930400D01*
X145840624Y-98930400D02*
X145745386Y-98882780D01*
X145745386Y-98882780D02*
X145459672Y-98882780D01*
X145459672Y-98882780D02*
X145364434Y-98930400D01*
X145364434Y-98930400D02*
X145316815Y-98978019D01*
X146221577Y-99882780D02*
X146554910Y-98882780D01*
X146554910Y-98882780D02*
X146888243Y-99882780D01*
X147126339Y-99882780D02*
X147745386Y-99882780D01*
X147745386Y-99882780D02*
X147412053Y-99501828D01*
X147412053Y-99501828D02*
X147554910Y-99501828D01*
X147554910Y-99501828D02*
X147650148Y-99454209D01*
X147650148Y-99454209D02*
X147697767Y-99406590D01*
X147697767Y-99406590D02*
X147745386Y-99311352D01*
X147745386Y-99311352D02*
X147745386Y-99073257D01*
X147745386Y-99073257D02*
X147697767Y-98978019D01*
X147697767Y-98978019D02*
X147650148Y-98930400D01*
X147650148Y-98930400D02*
X147554910Y-98882780D01*
X147554910Y-98882780D02*
X147269196Y-98882780D01*
X147269196Y-98882780D02*
X147173958Y-98930400D01*
X147173958Y-98930400D02*
X147126339Y-98978019D01*
D12*
X167749404Y-66629819D02*
X167749404Y-67439342D01*
X167749404Y-67439342D02*
X167701785Y-67534580D01*
X167701785Y-67534580D02*
X167654166Y-67582200D01*
X167654166Y-67582200D02*
X167558928Y-67629819D01*
X167558928Y-67629819D02*
X167368452Y-67629819D01*
X167368452Y-67629819D02*
X167273214Y-67582200D01*
X167273214Y-67582200D02*
X167225595Y-67534580D01*
X167225595Y-67534580D02*
X167177976Y-67439342D01*
X167177976Y-67439342D02*
X167177976Y-66629819D01*
X166654166Y-67629819D02*
X166463690Y-67629819D01*
X166463690Y-67629819D02*
X166368452Y-67582200D01*
X166368452Y-67582200D02*
X166320833Y-67534580D01*
X166320833Y-67534580D02*
X166225595Y-67391723D01*
X166225595Y-67391723D02*
X166177976Y-67201247D01*
X166177976Y-67201247D02*
X166177976Y-66820295D01*
X166177976Y-66820295D02*
X166225595Y-66725057D01*
X166225595Y-66725057D02*
X166273214Y-66677438D01*
X166273214Y-66677438D02*
X166368452Y-66629819D01*
X166368452Y-66629819D02*
X166558928Y-66629819D01*
X166558928Y-66629819D02*
X166654166Y-66677438D01*
X166654166Y-66677438D02*
X166701785Y-66725057D01*
X166701785Y-66725057D02*
X166749404Y-66820295D01*
X166749404Y-66820295D02*
X166749404Y-67058390D01*
X166749404Y-67058390D02*
X166701785Y-67153628D01*
X166701785Y-67153628D02*
X166654166Y-67201247D01*
X166654166Y-67201247D02*
X166558928Y-67248866D01*
X166558928Y-67248866D02*
X166368452Y-67248866D01*
X166368452Y-67248866D02*
X166273214Y-67201247D01*
X166273214Y-67201247D02*
X166225595Y-67153628D01*
X166225595Y-67153628D02*
X166177976Y-67058390D01*
X158586904Y-67106819D02*
X158015476Y-67106819D01*
X158301190Y-68106819D02*
X158301190Y-67106819D01*
X157682142Y-68106819D02*
X157682142Y-67106819D01*
X157682142Y-67106819D02*
X157301190Y-67106819D01*
X157301190Y-67106819D02*
X157205952Y-67154438D01*
X157205952Y-67154438D02*
X157158333Y-67202057D01*
X157158333Y-67202057D02*
X157110714Y-67297295D01*
X157110714Y-67297295D02*
X157110714Y-67440152D01*
X157110714Y-67440152D02*
X157158333Y-67535390D01*
X157158333Y-67535390D02*
X157205952Y-67583009D01*
X157205952Y-67583009D02*
X157301190Y-67630628D01*
X157301190Y-67630628D02*
X157682142Y-67630628D01*
X156158333Y-68106819D02*
X156729761Y-68106819D01*
X156444047Y-68106819D02*
X156444047Y-67106819D01*
X156444047Y-67106819D02*
X156539285Y-67249676D01*
X156539285Y-67249676D02*
X156634523Y-67344914D01*
X156634523Y-67344914D02*
X156729761Y-67392533D01*
D13*
%TO.C,G\u002A\u002A\u002A*%
G36*
X165981569Y-88824999D02*
G01*
X165981569Y-90568029D01*
X165981569Y-96681568D01*
X158125001Y-96681568D01*
X150268432Y-96681568D01*
X150268432Y-88824999D01*
X150268432Y-81516274D01*
X151239609Y-81516274D01*
X151239609Y-82282058D01*
X151239609Y-83047842D01*
X153617746Y-85425881D01*
X155995883Y-87803921D01*
X155995883Y-89073762D01*
X155995883Y-90343604D01*
X156532268Y-90880404D01*
X157068652Y-91417204D01*
X157032345Y-91556598D01*
X157011828Y-91700936D01*
X157031447Y-91847967D01*
X157093973Y-91974191D01*
X157196989Y-92074954D01*
X157338080Y-92145602D01*
X157432539Y-92169199D01*
X157519832Y-92166999D01*
X157623544Y-92137836D01*
X157692763Y-92107230D01*
X157809026Y-92019782D01*
X157889731Y-91905393D01*
X157931569Y-91772333D01*
X157931234Y-91628871D01*
X157885415Y-91483277D01*
X157815864Y-91381434D01*
X157707388Y-91295023D01*
X157578343Y-91243748D01*
X157439997Y-91231865D01*
X157303618Y-91263627D01*
X157205813Y-91304493D01*
X156688005Y-90787125D01*
X156170197Y-90269758D01*
X156170197Y-89111853D01*
X156170197Y-87953949D01*
X156616820Y-88400055D01*
X157063442Y-88846161D01*
X157025923Y-88918714D01*
X157021750Y-88927374D01*
X156997310Y-89018463D01*
X156989735Y-89130501D01*
X156999058Y-89240898D01*
X157025313Y-89327061D01*
X157026766Y-89329812D01*
X157093644Y-89422932D01*
X157182392Y-89504977D01*
X157273730Y-89558023D01*
X157320701Y-89571619D01*
X157438822Y-89583455D01*
X157561035Y-89572849D01*
X157662544Y-89540892D01*
X157760310Y-89474156D01*
X157847609Y-89367770D01*
X157898405Y-89243008D01*
X157911998Y-89109136D01*
X157903350Y-89061568D01*
X158834707Y-89061568D01*
X158834707Y-91146899D01*
X158834707Y-93232231D01*
X159374588Y-93772531D01*
X159914469Y-94312831D01*
X159881813Y-94411779D01*
X159855193Y-94547890D01*
X159865744Y-94694192D01*
X159914827Y-94827061D01*
X159998862Y-94937196D01*
X160114267Y-95015300D01*
X160147325Y-95029070D01*
X160286810Y-95060400D01*
X160417004Y-95050403D01*
X160533703Y-95005459D01*
X160632704Y-94931951D01*
X160709801Y-94836259D01*
X160760791Y-94724764D01*
X160781469Y-94603846D01*
X160767630Y-94479888D01*
X160715071Y-94359269D01*
X160619587Y-94248370D01*
X160527571Y-94185171D01*
X160409914Y-94135655D01*
X160298201Y-94116805D01*
X160285139Y-94117932D01*
X160225749Y-94132210D01*
X160152657Y-94157666D01*
X160050187Y-94198666D01*
X159529604Y-93678526D01*
X159009020Y-93158385D01*
X159009020Y-91925768D01*
X159009020Y-90693151D01*
X159468092Y-91151719D01*
X159927163Y-91610287D01*
X159888772Y-91684527D01*
X159881947Y-91699064D01*
X159860800Y-91788558D01*
X159860249Y-91913747D01*
X159867274Y-91977647D01*
X159909480Y-92111709D01*
X159989859Y-92216155D01*
X160111892Y-92296273D01*
X160201997Y-92329722D01*
X160346206Y-92344461D01*
X160483963Y-92314189D01*
X160606533Y-92241377D01*
X160705178Y-92128496D01*
X160750256Y-92039411D01*
X160780067Y-91904691D01*
X160769188Y-91774288D01*
X160722845Y-91654590D01*
X160646264Y-91551983D01*
X160544669Y-91472855D01*
X160423286Y-91423592D01*
X160287341Y-91410582D01*
X160142060Y-91440211D01*
X160042452Y-91475884D01*
X159525736Y-90959978D01*
X159009020Y-90444071D01*
X159009020Y-89852427D01*
X159009020Y-89260783D01*
X159588208Y-89260783D01*
X160167396Y-89260783D01*
X160697221Y-89791039D01*
X161227046Y-90321294D01*
X161186179Y-90419102D01*
X161163086Y-90491035D01*
X161153917Y-90628412D01*
X161185685Y-90759409D01*
X161252839Y-90875732D01*
X161349825Y-90969088D01*
X161471091Y-91031183D01*
X161611083Y-91053725D01*
X161729560Y-91041886D01*
X161856051Y-90990920D01*
X161965470Y-90895898D01*
X162049251Y-90769650D01*
X162085367Y-90634412D01*
X162072194Y-90492333D01*
X162009707Y-90343751D01*
X161957037Y-90272710D01*
X161849537Y-90190186D01*
X161718332Y-90141876D01*
X161573589Y-90130968D01*
X161425478Y-90160648D01*
X161344308Y-90188944D01*
X160880228Y-89724864D01*
X160416147Y-89260783D01*
X161636478Y-89260783D01*
X162856808Y-89260783D01*
X163384645Y-89789950D01*
X163912483Y-90319117D01*
X163873739Y-90456572D01*
X163864605Y-90492669D01*
X163852974Y-90638810D01*
X163888133Y-90771250D01*
X163971395Y-90895898D01*
X164056983Y-90974940D01*
X164179161Y-91034719D01*
X164325781Y-91053725D01*
X164419648Y-91044417D01*
X164545781Y-90997541D01*
X164647678Y-90918360D01*
X164722669Y-90814978D01*
X164768088Y-90695499D01*
X164781266Y-90568029D01*
X164759535Y-90440670D01*
X164700227Y-90321529D01*
X164600674Y-90218708D01*
X164536334Y-90180520D01*
X164409577Y-90142049D01*
X164269845Y-90133927D01*
X164135108Y-90158481D01*
X164036152Y-90191139D01*
X163470966Y-89626353D01*
X162905780Y-89061568D01*
X160870243Y-89061568D01*
X158834707Y-89061568D01*
X157903350Y-89061568D01*
X157887688Y-88975419D01*
X157824777Y-88851122D01*
X157722566Y-88745510D01*
X157687011Y-88720045D01*
X157630689Y-88691776D01*
X157563905Y-88678742D01*
X157467091Y-88675587D01*
X157385111Y-88677873D01*
X157301464Y-88685140D01*
X157248094Y-88695660D01*
X157238793Y-88697650D01*
X157218301Y-88694256D01*
X157189489Y-88679578D01*
X157148981Y-88650640D01*
X157093401Y-88604466D01*
X157019370Y-88538078D01*
X156923511Y-88448500D01*
X156802449Y-88332755D01*
X156652805Y-88187866D01*
X156471203Y-88010856D01*
X156426276Y-87966872D01*
X156299246Y-87841771D01*
X156141693Y-87685816D01*
X155956774Y-87502158D01*
X155747643Y-87293953D01*
X155517456Y-87064354D01*
X155269370Y-86816515D01*
X155006540Y-86553591D01*
X154732123Y-86278734D01*
X154449273Y-85995100D01*
X154161146Y-85705841D01*
X153870899Y-85414113D01*
X153581688Y-85123068D01*
X151413922Y-82940156D01*
X151413922Y-82383871D01*
X151413922Y-81827586D01*
X153458420Y-83872084D01*
X155502918Y-85916582D01*
X155463028Y-85993720D01*
X155451139Y-86020013D01*
X155426416Y-86139512D01*
X155435135Y-86271406D01*
X155474664Y-86398758D01*
X155542372Y-86504630D01*
X155562538Y-86524897D01*
X155668919Y-86593932D01*
X155798794Y-86635167D01*
X155935592Y-86644941D01*
X156062743Y-86619591D01*
X156063281Y-86619387D01*
X156156002Y-86565159D01*
X156245456Y-86481251D01*
X156312938Y-86385190D01*
X156338802Y-86307172D01*
X156350158Y-86193395D01*
X156341201Y-86077565D01*
X156311987Y-85983064D01*
X156262046Y-85910356D01*
X156186694Y-85832717D01*
X156104517Y-85769346D01*
X156031629Y-85734528D01*
X156001637Y-85729847D01*
X155919874Y-85727571D01*
X155823386Y-85732647D01*
X155733654Y-85743612D01*
X155672158Y-85759003D01*
X155654212Y-85749743D01*
X155610755Y-85714388D01*
X155541124Y-85651977D01*
X155444450Y-85561664D01*
X155319859Y-85442597D01*
X155166482Y-85293929D01*
X154983446Y-85114811D01*
X154769881Y-84904393D01*
X154524915Y-84661826D01*
X154247677Y-84386262D01*
X153937296Y-84076851D01*
X153592901Y-83732744D01*
X151550997Y-81690587D01*
X152123726Y-81690587D01*
X152696454Y-81690587D01*
X155579742Y-84573956D01*
X158463031Y-87457325D01*
X158422113Y-87555255D01*
X158399016Y-87627173D01*
X158389810Y-87764598D01*
X158421550Y-87895631D01*
X158488685Y-88011979D01*
X158585666Y-88105351D01*
X158706943Y-88167455D01*
X158846966Y-88189999D01*
X158965443Y-88178161D01*
X159091934Y-88127194D01*
X159201352Y-88032173D01*
X159239634Y-87983437D01*
X159303196Y-87856880D01*
X159324317Y-87728613D01*
X159307491Y-87604755D01*
X159257214Y-87491426D01*
X159177979Y-87394747D01*
X159074282Y-87320836D01*
X158950618Y-87275816D01*
X158811480Y-87265804D01*
X158661364Y-87296921D01*
X158580197Y-87325216D01*
X158141020Y-86886039D01*
X157701843Y-86446862D01*
X158847468Y-86446862D01*
X159993093Y-86446862D01*
X160512736Y-86966948D01*
X161032379Y-87487033D01*
X160988904Y-87600873D01*
X160961007Y-87716411D01*
X160971661Y-87850673D01*
X161029531Y-87991211D01*
X161102771Y-88086714D01*
X161211894Y-88163871D01*
X161338107Y-88205844D01*
X161471389Y-88212321D01*
X161601723Y-88182989D01*
X161719089Y-88117536D01*
X161813471Y-88015649D01*
X161850431Y-87949448D01*
X161890713Y-87810769D01*
X161888216Y-87671348D01*
X161845262Y-87540586D01*
X161764171Y-87427882D01*
X161647266Y-87342638D01*
X161564876Y-87312714D01*
X161444698Y-87295195D01*
X161325451Y-87300481D01*
X161228444Y-87329253D01*
X161159361Y-87364977D01*
X160613570Y-86818763D01*
X160067778Y-86272548D01*
X158797517Y-86272548D01*
X157527256Y-86272548D01*
X155149217Y-83894411D01*
X152771177Y-81516274D01*
X152005393Y-81516274D01*
X151239609Y-81516274D01*
X150268432Y-81516274D01*
X150268432Y-80968431D01*
X158125001Y-80968431D01*
X165981569Y-80968431D01*
X165981569Y-87810769D01*
X165981569Y-88824999D01*
G37*
G36*
X174706709Y-71042586D02*
G01*
X174701808Y-71113538D01*
X174594667Y-71174498D01*
X174516807Y-71152171D01*
X174483786Y-71025836D01*
X174536729Y-70918210D01*
X174633442Y-70912102D01*
X174706709Y-71042586D01*
G37*
G36*
X173910070Y-70272184D02*
G01*
X173959667Y-70409950D01*
X173945670Y-70508613D01*
X173884876Y-70579849D01*
X173832817Y-70547664D01*
X173765802Y-70409950D01*
X173757397Y-70302491D01*
X173840594Y-70240050D01*
X173910070Y-70272184D01*
G37*
G36*
X174667882Y-70270995D02*
G01*
X174721667Y-70417029D01*
X174716994Y-70467846D01*
X174651158Y-70554914D01*
X174553330Y-70523276D01*
X174482626Y-70381673D01*
X174486733Y-70303741D01*
X174588459Y-70240050D01*
X174667882Y-70270995D01*
G37*
G36*
X175092061Y-71545832D02*
G01*
X175145001Y-71684197D01*
X175121429Y-71783275D01*
X175018001Y-71854097D01*
X174943940Y-71822563D01*
X174891001Y-71684197D01*
X174914573Y-71585120D01*
X175018001Y-71514298D01*
X175092061Y-71545832D01*
G37*
G36*
X175430728Y-71545832D02*
G01*
X175483667Y-71684197D01*
X175460096Y-71783275D01*
X175356667Y-71854097D01*
X175282607Y-71822563D01*
X175229667Y-71684197D01*
X175253239Y-71585120D01*
X175356667Y-71514298D01*
X175430728Y-71545832D01*
G37*
G36*
X175821339Y-71570872D02*
G01*
X175892042Y-71712474D01*
X175887935Y-71790406D01*
X175786209Y-71854097D01*
X175706786Y-71823153D01*
X175653001Y-71677118D01*
X175657675Y-71626302D01*
X175723510Y-71539233D01*
X175821339Y-71570872D01*
G37*
G36*
X176181968Y-71545489D02*
G01*
X176185533Y-71684197D01*
X176148816Y-71783659D01*
X176084602Y-71854097D01*
X176051749Y-71822395D01*
X176027953Y-71684197D01*
X176046950Y-71585282D01*
X176128884Y-71514298D01*
X176181968Y-71545489D01*
G37*
G36*
X176202878Y-70921744D02*
G01*
X176245667Y-71055436D01*
X176245613Y-71064139D01*
X176221452Y-71136169D01*
X176127554Y-71071660D01*
X176068883Y-71000229D01*
X176048738Y-70897026D01*
X176113911Y-70860756D01*
X176202878Y-70921744D01*
G37*
G36*
X176198153Y-70255186D02*
G01*
X176276285Y-70367475D01*
X176280272Y-70452839D01*
X176161001Y-70494900D01*
X176059637Y-70472633D01*
X176045716Y-70367475D01*
X176076589Y-70307423D01*
X176161001Y-70240050D01*
X176198153Y-70255186D01*
G37*
G36*
X174298334Y-70962124D02*
G01*
X174298334Y-70968974D01*
X174298334Y-71089548D01*
X174296141Y-71109632D01*
X174221159Y-71174498D01*
X174186380Y-71158382D01*
X174162965Y-71044738D01*
X174194927Y-70962518D01*
X174261886Y-70911092D01*
X174298334Y-70962124D01*
G37*
G36*
X174323068Y-70263400D02*
G01*
X174376317Y-70388712D01*
X174362639Y-70472124D01*
X174323734Y-70421575D01*
X174274339Y-70348313D01*
X174204715Y-70421575D01*
X174146893Y-70482945D01*
X174130297Y-70388712D01*
X174149298Y-70309446D01*
X174256001Y-70240050D01*
X174323068Y-70263400D01*
G37*
G36*
X175075930Y-70262872D02*
G01*
X175118429Y-70412139D01*
X175112462Y-70516228D01*
X175008411Y-70579849D01*
X174932123Y-70559112D01*
X174924276Y-70445477D01*
X174947171Y-70375903D01*
X174975667Y-70218944D01*
X174979690Y-70180647D01*
X175019243Y-70171579D01*
X175075930Y-70262872D01*
G37*
G36*
X175437998Y-70914310D02*
G01*
X175483667Y-71052087D01*
X175460749Y-71117083D01*
X175335501Y-71173197D01*
X175316520Y-71172923D01*
X175236499Y-71155381D01*
X175314334Y-71089548D01*
X175386035Y-71029349D01*
X175330504Y-71005899D01*
X175286957Y-70996340D01*
X175272854Y-70918263D01*
X175341780Y-70868403D01*
X175437998Y-70914310D01*
G37*
G36*
X175135179Y-70926728D02*
G01*
X175117568Y-71073563D01*
X175018001Y-71146182D01*
X174942510Y-71113412D01*
X174892297Y-70969203D01*
X174892497Y-70953618D01*
X174910691Y-70854248D01*
X174968389Y-70910742D01*
X174974435Y-70920162D01*
X175038256Y-70972971D01*
X175084271Y-70868267D01*
X175095492Y-70827776D01*
X175121500Y-70795948D01*
X175135179Y-70926728D01*
G37*
G36*
X175887142Y-71113538D02*
G01*
X175780001Y-71174498D01*
X175702141Y-71152171D01*
X175674670Y-71047074D01*
X175737667Y-71047074D01*
X175780001Y-71089548D01*
X175822334Y-71047074D01*
X175780001Y-71004599D01*
X175737667Y-71047074D01*
X175674670Y-71047074D01*
X175669119Y-71025836D01*
X175722062Y-70918210D01*
X175818776Y-70912102D01*
X175892042Y-71042586D01*
X175891732Y-71047074D01*
X175887142Y-71113538D01*
G37*
G36*
X173621541Y-70387160D02*
G01*
X173564556Y-70523216D01*
X173514788Y-70562758D01*
X173409372Y-70557943D01*
X173367001Y-70409950D01*
X173377106Y-70367475D01*
X173451667Y-70367475D01*
X173494001Y-70409950D01*
X173536334Y-70367475D01*
X173494001Y-70325000D01*
X173451667Y-70367475D01*
X173377106Y-70367475D01*
X173390573Y-70310872D01*
X173494001Y-70240050D01*
X173572575Y-70268577D01*
X173613413Y-70367475D01*
X173621541Y-70387160D01*
G37*
G36*
X175907541Y-70387160D02*
G01*
X175850556Y-70523216D01*
X175800788Y-70562758D01*
X175695372Y-70557943D01*
X175653001Y-70409950D01*
X175663106Y-70367475D01*
X175737667Y-70367475D01*
X175780001Y-70409950D01*
X175822334Y-70367475D01*
X175780001Y-70325000D01*
X175737667Y-70367475D01*
X175663106Y-70367475D01*
X175676573Y-70310872D01*
X175780001Y-70240050D01*
X175858575Y-70268577D01*
X175899413Y-70367475D01*
X175907541Y-70387160D01*
G37*
G36*
X175483667Y-70462826D02*
G01*
X175481158Y-70551144D01*
X175448681Y-70631405D01*
X175356667Y-70579849D01*
X175289399Y-70505950D01*
X175233840Y-70367475D01*
X175314334Y-70367475D01*
X175356667Y-70409950D01*
X175399001Y-70367475D01*
X175356667Y-70325000D01*
X175314334Y-70367475D01*
X175233840Y-70367475D01*
X175229667Y-70357073D01*
X175244301Y-70302705D01*
X175356667Y-70240050D01*
X175441258Y-70284250D01*
X175461023Y-70367475D01*
X175483667Y-70462826D01*
G37*
G36*
X180753213Y-66843523D02*
G01*
X180870216Y-66857832D01*
X180986418Y-66900347D01*
X181121866Y-66986434D01*
X181296603Y-67131459D01*
X181530674Y-67350788D01*
X181844125Y-67659790D01*
X182257001Y-68073829D01*
X183482477Y-69305602D01*
X184163556Y-69305602D01*
X184844635Y-69305602D01*
X185347334Y-69815301D01*
X185850033Y-70325000D01*
X185466358Y-70325000D01*
X185252100Y-70313148D01*
X185038216Y-70240420D01*
X184839334Y-70070150D01*
X184809066Y-70039251D01*
X184569601Y-69865557D01*
X184299653Y-69815301D01*
X184003320Y-69815301D01*
X184246667Y-70070150D01*
X184490015Y-70325000D01*
X184113567Y-70325000D01*
X183737118Y-70325000D01*
X182003001Y-68583528D01*
X180268883Y-66842057D01*
X180650204Y-66842057D01*
X180753213Y-66843523D01*
G37*
G36*
X180055667Y-70259133D02*
G01*
X180055667Y-71062523D01*
X180055637Y-71150631D01*
X180052766Y-71492597D01*
X180039830Y-71701641D01*
X180009283Y-71808516D01*
X179953578Y-71843974D01*
X179865167Y-71838768D01*
X179795044Y-71823281D01*
X179714379Y-71759007D01*
X179672039Y-71610705D01*
X179649641Y-71335443D01*
X179641054Y-71200281D01*
X179606834Y-70969953D01*
X179536394Y-70835100D01*
X179408297Y-70743107D01*
X179303506Y-70691661D01*
X179182568Y-70678519D01*
X179085323Y-70773299D01*
X178991811Y-70856805D01*
X178826626Y-70913604D01*
X178679760Y-70897302D01*
X178616334Y-70803680D01*
X178616358Y-70801700D01*
X178667366Y-70656043D01*
X178786824Y-70470244D01*
X178880156Y-70366674D01*
X179006839Y-70293330D01*
X179198235Y-70261599D01*
X179506491Y-70255954D01*
X180055667Y-70259133D01*
G37*
G36*
X186786668Y-71259448D02*
G01*
X187289367Y-71769147D01*
X186904609Y-71769147D01*
X186737815Y-71762504D01*
X186505058Y-71702343D01*
X186321001Y-71556773D01*
X186134307Y-71411710D01*
X185825817Y-71344398D01*
X185529484Y-71344398D01*
X185728334Y-71556773D01*
X185927185Y-71769147D01*
X185546185Y-71769147D01*
X185388479Y-71763107D01*
X185152479Y-71703330D01*
X184966334Y-71556773D01*
X184965173Y-71555536D01*
X184780529Y-71415812D01*
X184587446Y-71349905D01*
X184435350Y-71365147D01*
X184373667Y-71468867D01*
X184383210Y-71513512D01*
X184473317Y-71681422D01*
X184627667Y-71883593D01*
X184663909Y-71926198D01*
X184832511Y-72200687D01*
X184881667Y-72496006D01*
X184881667Y-72818161D01*
X184685711Y-72633453D01*
X184589776Y-72546882D01*
X184453683Y-72463217D01*
X184389663Y-72521831D01*
X184373667Y-72730177D01*
X184373668Y-72731466D01*
X184432626Y-73003534D01*
X184627667Y-73255769D01*
X184762018Y-73402818D01*
X184857638Y-73604594D01*
X184881667Y-73884890D01*
X184881667Y-74269849D01*
X184373667Y-73765468D01*
X183865667Y-73261088D01*
X183865667Y-72005418D01*
X183865667Y-70749749D01*
X185074818Y-70749749D01*
X186283968Y-70749749D01*
X186786668Y-71259448D01*
G37*
G36*
X181348462Y-70240108D02*
G01*
X181609916Y-70256862D01*
X181767520Y-70318801D01*
X181881070Y-70448265D01*
X181892041Y-70465458D01*
X181984462Y-70723168D01*
X181915562Y-70935458D01*
X181688016Y-71098794D01*
X181304501Y-71209641D01*
X181086973Y-71270046D01*
X180996653Y-71343790D01*
X181061396Y-71404269D01*
X181283334Y-71429348D01*
X181322287Y-71428561D01*
X181505259Y-71398537D01*
X181579667Y-71338490D01*
X181618661Y-71285581D01*
X181746845Y-71274513D01*
X181892706Y-71317637D01*
X181980494Y-71402801D01*
X181954704Y-71521292D01*
X181838959Y-71678888D01*
X181807257Y-71707030D01*
X181563356Y-71818970D01*
X181252340Y-71858854D01*
X180946594Y-71824444D01*
X180718501Y-71713506D01*
X180587401Y-71522840D01*
X180568906Y-71284174D01*
X180670707Y-71062364D01*
X180872506Y-70898433D01*
X181154006Y-70833398D01*
X181312543Y-70813451D01*
X181495001Y-70742040D01*
X181505978Y-70733739D01*
X181511974Y-70692415D01*
X181378864Y-70683287D01*
X181092834Y-70705084D01*
X180995455Y-70714079D01*
X180712366Y-70721878D01*
X180581078Y-70679382D01*
X180591365Y-70578201D01*
X180733001Y-70409950D01*
X180792262Y-70358619D01*
X181003464Y-70267149D01*
X181323716Y-70240050D01*
X181348462Y-70240108D01*
G37*
G36*
X177512341Y-69816198D02*
G01*
X177650031Y-69866015D01*
X177685001Y-70027676D01*
X177691067Y-70120029D01*
X177757474Y-70217193D01*
X177939001Y-70240050D01*
X178049455Y-70245122D01*
X178165663Y-70300647D01*
X178193001Y-70452425D01*
X178186935Y-70544778D01*
X178120528Y-70641942D01*
X177939001Y-70664799D01*
X177831090Y-70667816D01*
X177730689Y-70705007D01*
X177691613Y-70821604D01*
X177685001Y-71062836D01*
X177683289Y-71151554D01*
X177633676Y-71444966D01*
X177500909Y-71657485D01*
X177348264Y-71776934D01*
X177035242Y-71854097D01*
X176882273Y-71845846D01*
X176777405Y-71788010D01*
X176753667Y-71641722D01*
X176759733Y-71549369D01*
X176826141Y-71452205D01*
X177007667Y-71429348D01*
X177103492Y-71427187D01*
X177211791Y-71393475D01*
X177254304Y-71282140D01*
X177261667Y-71047074D01*
X177260232Y-70902857D01*
X177237832Y-70739864D01*
X177163856Y-70675881D01*
X177007667Y-70664799D01*
X176897213Y-70659728D01*
X176781005Y-70604203D01*
X176753667Y-70452425D01*
X176759733Y-70360071D01*
X176826141Y-70262908D01*
X177007667Y-70240050D01*
X177118122Y-70234978D01*
X177234330Y-70179454D01*
X177261667Y-70027676D01*
X177262561Y-69988538D01*
X177312212Y-69850387D01*
X177473334Y-69815301D01*
X177512341Y-69816198D01*
G37*
G36*
X180036852Y-67267785D02*
G01*
X180124846Y-67339827D01*
X180314266Y-67515192D01*
X180589272Y-67778574D01*
X180934022Y-68114667D01*
X181332676Y-68508167D01*
X181769393Y-68943769D01*
X181851637Y-69026212D01*
X182325081Y-69501549D01*
X182693815Y-69875332D01*
X182970923Y-70163635D01*
X183169495Y-70382530D01*
X183302616Y-70548090D01*
X183383373Y-70676390D01*
X183424854Y-70783503D01*
X183440145Y-70885501D01*
X183442334Y-70998458D01*
X183442334Y-71376185D01*
X183188334Y-71132023D01*
X182934334Y-70887862D01*
X182934334Y-71227661D01*
X182938730Y-71343691D01*
X183006655Y-71588994D01*
X183188334Y-71811622D01*
X183255564Y-71879985D01*
X183402144Y-72105995D01*
X183442334Y-72379689D01*
X183441210Y-72441651D01*
X183420358Y-72628414D01*
X183381497Y-72703595D01*
X183375807Y-72702397D01*
X183276264Y-72632063D01*
X183097357Y-72474763D01*
X182873497Y-72260511D01*
X182426334Y-71817426D01*
X182426334Y-71091352D01*
X182426334Y-70365277D01*
X181198667Y-69135702D01*
X181078657Y-69015410D01*
X180692475Y-68625449D01*
X180407917Y-68329789D01*
X180209598Y-68109016D01*
X180082133Y-67943713D01*
X180010136Y-67814464D01*
X179978220Y-67701854D01*
X179971001Y-67586467D01*
X179972052Y-67528220D01*
X179993444Y-67341917D01*
X180033726Y-67266806D01*
X180036852Y-67267785D01*
G37*
D14*
%TO.C,U9*%
X161512500Y-78550000D02*
X168112500Y-78550000D01*
X168012500Y-68450000D02*
X161612500Y-68450000D01*
D11*
X171162500Y-69050000D02*
G75*
G02*
X170962500Y-69050000I-100000J0D01*
G01*
X170962500Y-69050000D02*
G75*
G02*
X171162500Y-69050000I100000J0D01*
G01*
D15*
%TO.C,TP1*%
X158025000Y-69100000D02*
G75*
G02*
X156625000Y-69100000I-700000J0D01*
G01*
X156625000Y-69100000D02*
G75*
G02*
X158025000Y-69100000I700000J0D01*
G01*
%TD*%
M02*
