M48
; DRILL file {KiCad 9.0.0} date 2026-03-27T18:10:48+0100
; FORMAT={-:-/ absolute / inch / decimal}
; #@! TF.CreationDate,2026-03-27T18:10:48+01:00
; #@! TF.GenerationSoftware,Kicad,Pcbnew,9.0.0
; #@! TF.FileFunction,Plated,1,4,PTH
FMAT,2
INCH
; #@! TA.AperFunction,Plated,PTH,ViaDrill
T1C0.0098
; #@! TA.AperFunction,Plated,PTH,ComponentDrill
T2C0.0374
; #@! TA.AperFunction,Plated,PTH,ComponentDrill
T3C0.0394
; #@! TA.AperFunction,Plated,PTH,ComponentDrill
T4C0.0472
%
G90
G05
T1
X5.082Y-3.9898
X5.083Y-3.8068
X5.1575Y-3.0182
X5.1851Y-3.9488
X5.1853Y-3.8307
X5.2166Y-3.9488
X5.2169Y-3.8307
X5.2362Y-3.0266
X5.2481Y-3.9488
X5.2485Y-3.8307
X5.2796Y-3.9488
X5.2801Y-3.8307
X5.3111Y-3.9488
X5.3117Y-3.8307
X5.3426Y-3.9488
X5.3433Y-3.8307
X5.3741Y-3.9488
X5.3749Y-3.8307
X5.4056Y-3.9488
X5.4065Y-3.8307
X5.4371Y-3.9488
X5.4381Y-3.8307
X5.4686Y-3.9488
X5.4697Y-3.8307
X5.4919Y-3.9722
X5.5012Y-3.8313
X5.5153Y-3.9955
X5.5299Y-3.8436
X5.5386Y-4.0188
X5.5525Y-3.8657
X5.5619Y-4.0422
X5.5749Y-3.8881
X5.5853Y-4.0655
X5.5972Y-3.9104
X5.6086Y-4.0888
X5.6196Y-3.9327
X5.6319Y-4.1122
X5.6419Y-3.9551
X5.6553Y-4.1355
X5.6643Y-3.9774
X5.6786Y-4.1588
X5.6866Y-3.9998
X5.7019Y-4.1822
X5.7089Y-4.0221
X5.7253Y-4.2055
X5.7313Y-4.0445
X5.7486Y-4.2288
X5.7536Y-4.0668
X5.775Y-4.248
X5.776Y-4.0892
X5.8076Y-4.252
X5.8406Y-4.0748
X5.8406Y-4.252
X5.9291Y-4.0472
X6.1516Y-3.685
X6.1516Y-4.2874
X6.2079Y-3.9724
X6.2091Y-3.7744
X6.2512Y-4.0591
X6.2516Y-4.0118
X6.2528Y-3.8185
X6.2623Y-2.9921
X6.2623Y-3.061
X6.2705Y-3.9528
X6.3031Y-3.9921
X6.3076Y-2.9803
X6.3076Y-3.0236
X6.3076Y-3.0669
X6.3256Y-4.0354
X6.4232Y-4.1535
X6.4882Y-3.6772
X6.4906Y-3.9528
X6.5039Y-4.0468
X6.5047Y-3.7523
X6.5047Y-3.8202
X6.5102Y-3.9724
X6.5657Y-3.7519
X6.5657Y-3.8198
X6.5984Y-3.6772
X6.6063Y-3.9705
X6.6161Y-4.3105
X6.6402Y-4.0406
X6.6698Y-2.7205
X6.6698Y-3.0236
X6.7303Y-3.9508
X6.7343Y-4.3105
X6.7717Y-3.7402
X6.8524Y-4.3105
X6.8743Y-3.929
X7.1717Y-3.8433
X7.2343Y-3.8448
T2
X7.2717Y-3.0394
X7.2717Y-3.1378
X7.2717Y-3.2362
X7.2717Y-3.4803
X7.2717Y-3.5787
X7.2717Y-3.6772
X7.5541Y-3.0394
X7.5541Y-3.1378
X7.5541Y-3.2362
X7.5551Y-3.4803
X7.5551Y-3.5787
X7.5551Y-3.6772
T3
X5.4787Y-3.0181
X5.4787Y-3.1181
X5.4787Y-3.2181
X5.4787Y-3.3181
X5.4787Y-3.4181
X5.4787Y-3.5181
X5.4787Y-3.6181
X5.4787Y-3.7181
X5.5787Y-3.0181
X5.5787Y-3.1181
X5.5787Y-3.2181
X5.5787Y-3.3181
X5.5787Y-3.4181
X5.5787Y-3.5181
X5.5787Y-3.6181
X5.5787Y-3.7181
X6.8685Y-3.022
X6.8685Y-3.122
X6.8685Y-3.222
X6.8685Y-3.322
X6.8685Y-3.422
X6.8685Y-3.522
X6.8685Y-3.622
X6.8685Y-3.722
X6.9685Y-3.022
X6.9685Y-3.122
X6.9685Y-3.222
X6.9685Y-3.322
X6.9685Y-3.422
X6.9685Y-3.522
X6.9685Y-3.622
X6.9685Y-3.722
T4
X6.185Y-3.0157
M30
