%TF.GenerationSoftware,KiCad,Pcbnew,9.0.0*%
%TF.CreationDate,2026-03-27T18:10:49+01:00*%
%TF.ProjectId,BACKPACK,4241434b-5041-4434-9b2e-6b696361645f,rev?*%
%TF.SameCoordinates,Original*%
%TF.FileFunction,Copper,L4,Bot*%
%TF.FilePolarity,Positive*%
%FSLAX46Y46*%
G04 Gerber Fmt 4.6, Leading zero omitted, Abs format (unit mm)*
G04 Created by KiCad (PCBNEW 9.0.0) date 2026-03-27 18:10:49*
%MOMM*%
%LPD*%
G01*
G04 APERTURE LIST*
G04 Aperture macros list*
%AMRoundRect*
0 Rectangle with rounded corners*
0 $1 Rounding radius*
0 $2 $3 $4 $5 $6 $7 $8 $9 X,Y pos of 4 corners*
0 Add a 4 corners polygon primitive as box body*
4,1,4,$2,$3,$4,$5,$6,$7,$8,$9,$2,$3,0*
0 Add four circle primitives for the rounded corners*
1,1,$1+$1,$2,$3*
1,1,$1+$1,$4,$5*
1,1,$1+$1,$6,$7*
1,1,$1+$1,$8,$9*
0 Add four rect primitives between the rounded corners*
20,1,$1+$1,$2,$3,$4,$5,0*
20,1,$1+$1,$4,$5,$6,$7,0*
20,1,$1+$1,$6,$7,$8,$9,0*
20,1,$1+$1,$8,$9,$2,$3,0*%
G04 Aperture macros list end*
%TA.AperFunction,SMDPad,CuDef*%
%ADD10R,4.064000X1.524000*%
%TD*%
%TA.AperFunction,ComponentPad*%
%ADD11RoundRect,0.250000X0.725000X-0.600000X0.725000X0.600000X-0.725000X0.600000X-0.725000X-0.600000X0*%
%TD*%
%TA.AperFunction,ComponentPad*%
%ADD12O,1.950000X1.700000*%
%TD*%
%TA.AperFunction,ComponentPad*%
%ADD13C,2.500000*%
%TD*%
%TA.AperFunction,ComponentPad*%
%ADD14R,1.700000X1.700000*%
%TD*%
%TA.AperFunction,ComponentPad*%
%ADD15C,1.700000*%
%TD*%
%TA.AperFunction,SMDPad,CuDef*%
%ADD16R,1.600000X0.900000*%
%TD*%
%TA.AperFunction,SMDPad,CuDef*%
%ADD17C,1.000000*%
%TD*%
%TA.AperFunction,ViaPad*%
%ADD18C,0.450000*%
%TD*%
%TA.AperFunction,Conductor*%
%ADD19C,0.125000*%
%TD*%
%TA.AperFunction,Conductor*%
%ADD20C,0.150000*%
%TD*%
G04 APERTURE END LIST*
D10*
%TO.P,J4,2,Ext*%
%TO.N,GND*%
X129084000Y-96260000D03*
X129084000Y-101340000D03*
%TD*%
D11*
%TO.P,J2,1,Pin_1*%
%TO.N,/CPU_SWDCLK*%
X191875000Y-82200000D03*
D12*
%TO.P,J2,2,Pin_2*%
%TO.N,/CPU_SWDIO*%
X191875000Y-79700000D03*
%TO.P,J2,3,Pin_3*%
%TO.N,GND*%
X191875000Y-77200000D03*
%TD*%
D11*
%TO.P,J3,1,Pin_1*%
%TO.N,/SWDIO*%
X184700000Y-82200000D03*
D12*
%TO.P,J3,2,Pin_2*%
%TO.N,/SWCLK*%
X184700000Y-79700000D03*
%TO.P,J3,3,Pin_3*%
%TO.N,GND*%
X184700000Y-77200000D03*
%TD*%
D13*
%TO.P,ANT1,1,1*%
%TO.N,Net-(U9-RF_IN)*%
X157100000Y-76600000D03*
%TD*%
D11*
%TO.P,J7,1,Pin_1*%
%TO.N,/UART1_RX_RADIO*%
X191900000Y-93400000D03*
D12*
%TO.P,J7,2,Pin_2*%
%TO.N,/UART1_TX_RADIO*%
X191900000Y-90900000D03*
%TO.P,J7,3,Pin_3*%
%TO.N,GND*%
X191900000Y-88400000D03*
%TD*%
D11*
%TO.P,J1,1,Pin_1*%
%TO.N,HIL_TX*%
X184700000Y-93400000D03*
D12*
%TO.P,J1,2,Pin_2*%
%TO.N,HIL_RX*%
X184700000Y-90900000D03*
%TO.P,J1,3,Pin_3*%
%TO.N,GND*%
X184700000Y-88400000D03*
%TD*%
D14*
%TO.P,J5,1,Pin_1*%
%TO.N,+3V3*%
X177000000Y-76760000D03*
D15*
%TO.P,J5,2,Pin_2*%
X174460000Y-76760000D03*
%TO.P,J5,3,Pin_3*%
%TO.N,/PWM4*%
X177000000Y-79300000D03*
%TO.P,J5,4,Pin_4*%
%TO.N,/PWM1*%
X174460000Y-79300000D03*
%TO.P,J5,5,Pin_5*%
%TO.N,/PWM2*%
X177000000Y-81840000D03*
%TO.P,J5,6,Pin_6*%
%TO.N,/PWM3*%
X174460000Y-81840000D03*
%TO.P,J5,7,Pin_7*%
%TO.N,GND*%
X177000000Y-84380000D03*
%TO.P,J5,8,Pin_8*%
%TO.N,/GPIO20*%
X174460000Y-84380000D03*
%TO.P,J5,9,Pin_9*%
%TO.N,/RX_GPS*%
X177000000Y-86920000D03*
%TO.P,J5,10,Pin_10*%
%TO.N,/TX_GPS*%
X174460000Y-86920000D03*
%TO.P,J5,11,Pin_11*%
%TO.N,HIL_TX*%
X177000000Y-89460000D03*
%TO.P,J5,12,Pin_12*%
%TO.N,HIL_RX*%
X174460000Y-89460000D03*
%TO.P,J5,13,Pin_13*%
%TO.N,GND*%
X177000000Y-92000000D03*
%TO.P,J5,14,Pin_14*%
X174460000Y-92000000D03*
%TO.P,J5,15,Pin_15*%
%TO.N,/SDA_RADIO*%
X177000000Y-94540000D03*
%TO.P,J5,16,Pin_16*%
%TO.N,/SCL_RADIO*%
X174460000Y-94540000D03*
%TD*%
D16*
%TO.P,U9,1,GND*%
%TO.N,GND*%
X169412500Y-69100000D03*
%TO.P,U9,2,UART-TX*%
%TO.N,/TX_GPS*%
X169412500Y-70200000D03*
%TO.P,U9,3,UART-RX*%
%TO.N,/RX_GPS*%
X169412500Y-71300000D03*
%TO.P,U9,4,PPS*%
%TO.N,PPS*%
X169412500Y-72400000D03*
%TO.P,U9,5,WAKEUP*%
%TO.N,unconnected-(U9-WAKEUP-Pad5)*%
X169412500Y-73500000D03*
%TO.P,U9,6,VBAT*%
%TO.N,Net-(BT1-+)*%
X169412500Y-74600000D03*
%TO.P,U9,7,RESERVED*%
%TO.N,unconnected-(U9-RESERVED-Pad7)*%
X169412500Y-75700000D03*
%TO.P,U9,8,VCC*%
%TO.N,+3V3*%
X169412500Y-76800000D03*
%TO.P,U9,9,~{RESET}*%
%TO.N,unconnected-(U9-~{RESET}-Pad9)*%
X169412500Y-77900000D03*
%TO.P,U9,10,GND_RF*%
%TO.N,GND*%
X160212500Y-77900000D03*
%TO.P,U9,11,RF_IN*%
%TO.N,Net-(U9-RF_IN)*%
X160212500Y-76800000D03*
%TO.P,U9,12,GND_RF__1*%
%TO.N,GND*%
X160212500Y-75700000D03*
%TO.P,U9,13,RESERVED__1*%
%TO.N,unconnected-(U9-RESERVED__1-Pad13)*%
X160212500Y-74600000D03*
%TO.P,U9,14,VCC_RF*%
%TO.N,unconnected-(U9-VCC_RF-Pad14)*%
X160212500Y-73500000D03*
%TO.P,U9,15,RESERVED__2*%
%TO.N,unconnected-(U9-RESERVED__2-Pad15)*%
X160212500Y-72400000D03*
%TO.P,U9,16,I2C_SDA*%
%TO.N,/SDA_RADIO*%
X160212500Y-71300000D03*
%TO.P,U9,17,I2C_SCL*%
%TO.N,/SCL_RADIO*%
X160212500Y-70200000D03*
%TO.P,U9,18,PRG*%
%TO.N,Net-(U9-PRG)*%
X160212500Y-69100000D03*
%TD*%
D17*
%TO.P,TP1,1,1*%
%TO.N,Net-(U9-PRG)*%
X157325000Y-69100000D03*
%TD*%
D14*
%TO.P,J6,1,Pin_1*%
%TO.N,+3V3*%
X141700000Y-76660000D03*
D15*
%TO.P,J6,2,Pin_2*%
X139160000Y-76660000D03*
%TO.P,J6,3,Pin_3*%
%TO.N,/CPU_SWDCLK*%
X141700000Y-79200000D03*
%TO.P,J6,4,Pin_4*%
%TO.N,PPS*%
X139160000Y-79200000D03*
%TO.P,J6,5,Pin_5*%
%TO.N,/CPU_SWDIO*%
X141700000Y-81740000D03*
%TO.P,J6,6,Pin_6*%
%TO.N,/BOOTSEL*%
X139160000Y-81740000D03*
%TO.P,J6,7,Pin_7*%
%TO.N,/GPIO39*%
X141700000Y-84280000D03*
%TO.P,J6,8,Pin_8*%
%TO.N,/RESET*%
X139160000Y-84280000D03*
%TO.P,J6,9,Pin_9*%
%TO.N,/GPIO41*%
X141700000Y-86820000D03*
%TO.P,J6,10,Pin_10*%
%TO.N,/GPIO42*%
X139160000Y-86820000D03*
%TO.P,J6,11,Pin_11*%
%TO.N,/GPIO43*%
X141700000Y-89360000D03*
%TO.P,J6,12,Pin_12*%
%TO.N,/GPIO44*%
X139160000Y-89360000D03*
%TO.P,J6,13,Pin_13*%
%TO.N,/GPIO46*%
X141700000Y-91900000D03*
%TO.P,J6,14,Pin_14*%
%TO.N,/GPIO45*%
X139160000Y-91900000D03*
%TO.P,J6,15,Pin_15*%
%TO.N,GND*%
X141700000Y-94440000D03*
%TO.P,J6,16,Pin_16*%
X139160000Y-94440000D03*
%TD*%
D18*
%TO.N,GND*%
X146014515Y-107412035D03*
X174606377Y-99795718D03*
X166770000Y-97022500D03*
X137324238Y-97300000D03*
X139731646Y-97314470D03*
X159062500Y-76000000D03*
X141865828Y-103263348D03*
X143051167Y-104448687D03*
X169412500Y-69100000D03*
X144829176Y-106226696D03*
X165220000Y-97032500D03*
X140680488Y-102078008D03*
X145007171Y-102162051D03*
X142736812Y-99891692D03*
X159062500Y-77750000D03*
X129084000Y-101340000D03*
X174050000Y-109487500D03*
X143871991Y-101026871D03*
X134901352Y-100300000D03*
X135718851Y-97300000D03*
X131700450Y-100300000D03*
X129109400Y-96691800D03*
X160212500Y-75700000D03*
X137302029Y-100300000D03*
X134101127Y-100300000D03*
X140087819Y-101485339D03*
X145421845Y-106819365D03*
X147511838Y-108000000D03*
X142458497Y-103856017D03*
X142169222Y-99324102D03*
X143304401Y-100459281D03*
X131000000Y-76662500D03*
X138902480Y-100300000D03*
X171050000Y-109487500D03*
X148350000Y-108000000D03*
X136521545Y-97300000D03*
X146709940Y-103864820D03*
X138929624Y-97300000D03*
X134113465Y-97300000D03*
X131705386Y-97300000D03*
X134916158Y-97300000D03*
X140460138Y-97628134D03*
X145574760Y-102729640D03*
X133000000Y-76875000D03*
X156249999Y-93600001D03*
X133300901Y-100300000D03*
X143643836Y-105041356D03*
X141601632Y-98756512D03*
X144236506Y-105634026D03*
X138126931Y-97300000D03*
X144439581Y-101594461D03*
X136501803Y-100300000D03*
X139495149Y-100892669D03*
X183750000Y-97657500D03*
X141034042Y-98188922D03*
X146142350Y-103297230D03*
X168050000Y-109487500D03*
X160212500Y-77900000D03*
X135701578Y-100300000D03*
X138102254Y-100300000D03*
X133310772Y-97300000D03*
X163150000Y-105500002D03*
X141273158Y-102670678D03*
X146685926Y-107900247D03*
X132508079Y-97300000D03*
X132500676Y-100300000D03*
%TO.N,Net-(BT1-+)*%
X172000000Y-95000000D03*
%TO.N,+3V3*%
X169412500Y-76800000D03*
X165220000Y-95307500D03*
X166770000Y-95297500D03*
X182160000Y-97620000D03*
%TO.N,/L_BLUE*%
X158820285Y-96990285D03*
X157710000Y-95870000D03*
%TO.N,Net-(U9-RF_IN)*%
X160212500Y-76800000D03*
%TO.N,/TX_GPS*%
X164860000Y-100400000D03*
X159270000Y-100400000D03*
%TO.N,/SDA_RADIO*%
X150600000Y-102800000D03*
%TO.N,/SCL_RADIO*%
X167600000Y-93400000D03*
X164800000Y-93400000D03*
X148350000Y-103500001D03*
%TO.N,/RX_GPS*%
X157680000Y-100900000D03*
X165360000Y-100900000D03*
%TO.N,unconnected-(U10-PA7{slash}SPI1_MOSI-Pad13)*%
X156249999Y-108900001D03*
%TO.N,/UART1_TX_RADIO*%
X160100000Y-101400000D03*
%TO.N,/UART1_RX_RADIO*%
X158790000Y-101900000D03*
%TO.N,/SWCLK*%
X165200000Y-102787500D03*
X158780000Y-103100000D03*
X167800000Y-100850000D03*
%TO.N,/SWDIO*%
X168660000Y-102630000D03*
X170950000Y-100350000D03*
X160670000Y-102500000D03*
%TD*%
D19*
%TO.N,Net-(BT1-+)*%
X172000000Y-75700000D02*
X170900000Y-74600000D01*
X170900000Y-74600000D02*
X169412500Y-74600000D01*
X172000000Y-95000000D02*
X172000000Y-75700000D01*
%TO.N,/L_BLUE*%
X157710000Y-95880000D02*
X157710000Y-95870000D01*
X158820285Y-96990285D02*
X157710000Y-95880000D01*
%TO.N,Net-(U9-PRG)*%
X160212500Y-69100000D02*
X157325000Y-69100000D01*
D20*
%TO.N,/TX_GPS*%
X170362500Y-70200000D02*
X173334000Y-73171500D01*
X169412500Y-70200000D02*
X170362500Y-70200000D01*
X173334000Y-85794000D02*
X174460000Y-86920000D01*
X173334000Y-73171500D02*
X173334000Y-85794000D01*
D19*
X159270000Y-100400000D02*
X164860000Y-100400000D01*
%TO.N,/SDA_RADIO*%
X169000000Y-96500000D02*
X175040000Y-96500000D01*
X164500000Y-92000000D02*
X169000000Y-96500000D01*
X175040000Y-96500000D02*
X177000000Y-94540000D01*
X160212500Y-71300000D02*
X161137500Y-71300000D01*
X161137500Y-71300000D02*
X163562500Y-73725000D01*
X163562500Y-80287500D02*
X164500000Y-81225000D01*
X164500000Y-81225000D02*
X164500000Y-92000000D01*
X150600000Y-102800000D02*
X153700000Y-102800000D01*
X153700000Y-102800000D02*
X164500000Y-92000000D01*
X163562500Y-73725000D02*
X163562500Y-80287500D01*
%TO.N,PPS*%
X156400000Y-68000000D02*
X146135831Y-78264169D01*
X140400000Y-80440000D02*
X139160000Y-79200000D01*
X140400000Y-82400000D02*
X140400000Y-80440000D01*
X142371661Y-83000000D02*
X141000000Y-83000000D01*
X166500000Y-72400000D02*
X162100000Y-68000000D01*
X146135831Y-79235831D02*
X142371661Y-83000000D01*
X169412500Y-72400000D02*
X166500000Y-72400000D01*
X141000000Y-83000000D02*
X140400000Y-82400000D01*
X162100000Y-68000000D02*
X156400000Y-68000000D01*
X146135831Y-78264169D02*
X146135831Y-79235831D01*
%TO.N,/SCL_RADIO*%
X164062500Y-79687500D02*
X165000000Y-80625000D01*
X154015702Y-103500000D02*
X148350001Y-103500000D01*
X161137500Y-70200000D02*
X164062500Y-73125000D01*
X164115702Y-93400000D02*
X154015702Y-103500000D01*
X170200000Y-96000000D02*
X173000000Y-96000000D01*
X164062500Y-73125000D02*
X164062500Y-79687500D01*
X148350001Y-103500000D02*
X148350000Y-103500001D01*
X173000000Y-96000000D02*
X174460000Y-94540000D01*
X164800000Y-93400000D02*
X164115702Y-93400000D01*
X160212500Y-70200000D02*
X161137500Y-70200000D01*
X165000000Y-90800000D02*
X170200000Y-96000000D01*
X165000000Y-80625000D02*
X165000000Y-90800000D01*
D20*
%TO.N,/RX_GPS*%
X172983000Y-73920500D02*
X172983000Y-87155405D01*
X172983000Y-87155405D02*
X174077595Y-88250000D01*
X176521289Y-86920000D02*
X177000000Y-86920000D01*
X174077595Y-88250000D02*
X175191289Y-88250000D01*
X169412500Y-71300000D02*
X170362500Y-71300000D01*
D19*
X157680000Y-100900000D02*
X165360000Y-100900000D01*
D20*
X170362500Y-71300000D02*
X172983000Y-73920500D01*
X175191289Y-88250000D02*
X176521289Y-86920000D01*
D19*
%TO.N,/UART1_TX_RADIO*%
X160100000Y-101400000D02*
X181400000Y-101400000D01*
X181400000Y-101400000D02*
X191900000Y-90900000D01*
%TO.N,/UART1_RX_RADIO*%
X160302344Y-101888500D02*
X160310594Y-101880250D01*
X159519750Y-101880250D02*
X159889406Y-101880250D01*
X191030000Y-93400000D02*
X191900000Y-93400000D01*
X182549750Y-101880250D02*
X191030000Y-93400000D01*
X159897656Y-101888500D02*
X160302344Y-101888500D01*
X159500000Y-101900000D02*
X159519750Y-101880250D01*
X158790000Y-101900000D02*
X159500000Y-101900000D01*
X160310594Y-101880250D02*
X182549750Y-101880250D01*
X159889406Y-101880250D02*
X159897656Y-101888500D01*
D20*
%TO.N,/SWCLK*%
X183221288Y-99100000D02*
X186863500Y-95457788D01*
D19*
X158780000Y-103100000D02*
X164900000Y-103100000D01*
D20*
X167800000Y-100850000D02*
X168050000Y-100850000D01*
X186863500Y-81863500D02*
X184700000Y-79700000D01*
X181470288Y-100851000D02*
X183221288Y-99100000D01*
X168051000Y-100851000D02*
X181470288Y-100851000D01*
X186863500Y-95457788D02*
X186863500Y-81863500D01*
D19*
X164900000Y-103100000D02*
X165200000Y-102800000D01*
D20*
X168050000Y-100850000D02*
X168051000Y-100851000D01*
D19*
%TO.N,/SWDIO*%
X180100000Y-100350000D02*
X182341500Y-98108500D01*
X168660000Y-102630000D02*
X167117500Y-102630000D01*
X166787500Y-102300000D02*
X164900000Y-102300000D01*
X182341500Y-98108500D02*
X182362344Y-98108500D01*
X186525000Y-93925000D02*
X186525000Y-84025000D01*
X182648500Y-97822344D02*
X182648500Y-97801500D01*
X164700000Y-102500000D02*
X160670000Y-102500000D01*
X164900000Y-102300000D02*
X164700000Y-102500000D01*
X167117500Y-102630000D02*
X166787500Y-102300000D01*
X182648500Y-97801500D02*
X186525000Y-93925000D01*
X186525000Y-84025000D02*
X184700000Y-82200000D01*
X182362344Y-98108500D02*
X182648500Y-97822344D01*
X170950000Y-100350000D02*
X180100000Y-100350000D01*
%TO.N,HIL_TX*%
X180940000Y-93400000D02*
X184700000Y-93400000D01*
X177000000Y-89460000D02*
X180940000Y-93400000D01*
%TO.N,HIL_RX*%
X175620000Y-88300000D02*
X182100000Y-88300000D01*
X182100000Y-88300000D02*
X184700000Y-90900000D01*
X174460000Y-89460000D02*
X175620000Y-88300000D01*
%TO.N,/CPU_SWDCLK*%
X194500000Y-76200000D02*
X194500000Y-81300000D01*
X185100000Y-66800000D02*
X194500000Y-76200000D01*
X141700000Y-79200000D02*
X154100000Y-66800000D01*
X154100000Y-66800000D02*
X185100000Y-66800000D01*
X194500000Y-81300000D02*
X193600000Y-82200000D01*
X193600000Y-82200000D02*
X191875000Y-82200000D01*
%TO.N,/CPU_SWDIO*%
X141700000Y-81740000D02*
X156140000Y-67300000D01*
X179475000Y-67300000D02*
X191875000Y-79700000D01*
X156140000Y-67300000D02*
X179475000Y-67300000D01*
%TD*%
M02*
