<?xml version="1.0" encoding="UTF-8"?>
<svg xmlns="http://www.w3.org/2000/svg" xmlns:xlink="http://www.w3.org/1999/xlink" id="Ebene_1" data-name="Ebene 1" viewBox="0 0 2310.84 537.31">
  <defs>
    <style>
      .cls-1 {
        fill: url(#Unbenannter_Verlauf_343);
      }

      .cls-2 {
        fill: url(#Unbenannter_Verlauf_338);
      }

      .cls-3 {
        fill: url(#Unbenannter_Verlauf_356);
      }

      .cls-4 {
        fill: url(#Unbenannter_Verlauf_344);
      }

      .cls-5 {
        fill: url(#Unbenannter_Verlauf_341);
      }

      .cls-6 {
        fill: url(#Unbenannter_Verlauf_342);
      }

      .cls-7 {
        fill: url(#Unbenannter_Verlauf_353);
      }

      .cls-8 {
        fill: url(#Unbenannter_Verlauf_339);
      }

      .cls-9 {
        fill: url(#Unbenannter_Verlauf_358);
      }

      .cls-10 {
        fill: url(#Unbenannter_Verlauf_345);
      }

      .cls-11 {
        fill: url(#Unbenannter_Verlauf_357);
      }

      .cls-12 {
        fill: url(#Unbenannter_Verlauf_354);
      }

      .cls-13 {
        fill: url(#Unbenannter_Verlauf_355);
      }

      .cls-14 {
        fill: url(#Unbenannter_Verlauf_350);
      }

      .cls-15 {
        fill: url(#Unbenannter_Verlauf_352);
      }

      .cls-16 {
        fill: url(#Unbenannter_Verlauf_340);
      }

      .cls-17 {
        fill: url(#Unbenannter_Verlauf_337);
      }

      .cls-18 {
        fill: url(#Unbenannter_Verlauf_336);
      }

      .cls-19 {
        fill: url(#Unbenannter_Verlauf_351);
      }

      .cls-20 {
        fill: url(#Unbenannter_Verlauf_349);
      }
    </style>
    <linearGradient id="Unbenannter_Verlauf_336" data-name="Unbenannter Verlauf 336" x1="543.42" y1="662.72" x2="544.42" y2="662.72" gradientTransform="translate(-383875.86 -315771.17) rotate(90) scale(581.08 -581.08)" gradientUnits="userSpaceOnUse">
      <stop offset="0" stop-color="#ffa011"/>
      <stop offset="1" stop-color="#ff4011"/>
    </linearGradient>
    <linearGradient id="Unbenannter_Verlauf_337" data-name="Unbenannter Verlauf 337" x1="543.42" y1="663.04" x2="544.42" y2="663.04" gradientTransform="translate(-383875.86 -315771.17) rotate(90) scale(581.08 -581.08)" gradientUnits="userSpaceOnUse">
      <stop offset="0" stop-color="#ffa011"/>
      <stop offset="1" stop-color="#ff4011"/>
    </linearGradient>
    <linearGradient id="Unbenannter_Verlauf_338" data-name="Unbenannter Verlauf 338" x1="543.42" y1="663.33" x2="544.42" y2="663.33" gradientTransform="translate(-383875.86 -315771.17) rotate(90) scale(581.08 -581.08)" gradientUnits="userSpaceOnUse">
      <stop offset="0" stop-color="#ffa011"/>
      <stop offset="1" stop-color="#ff4011"/>
    </linearGradient>
    <linearGradient id="Unbenannter_Verlauf_339" data-name="Unbenannter Verlauf 339" x1="543.42" y1="663.3" x2="544.42" y2="663.3" gradientTransform="translate(-693580.68 -570142.72) rotate(90) scale(1048.04 -1048.04)" gradientUnits="userSpaceOnUse">
      <stop offset="0" stop-color="#ffa011"/>
      <stop offset="1" stop-color="#ff4011"/>
    </linearGradient>
    <linearGradient id="Unbenannter_Verlauf_340" data-name="Unbenannter Verlauf 340" x1="543.42" y1="663.51" x2="544.42" y2="663.51" gradientTransform="translate(-693580.68 -570142.72) rotate(90) scale(1048.04 -1048.04)" gradientUnits="userSpaceOnUse">
      <stop offset="0" stop-color="#ffa011"/>
      <stop offset="1" stop-color="#ff4011"/>
    </linearGradient>
    <linearGradient id="Unbenannter_Verlauf_341" data-name="Unbenannter Verlauf 341" x1="543.42" y1="663.67" x2="544.42" y2="663.67" gradientTransform="translate(-693580.68 -570142.72) rotate(90) scale(1048.04 -1048.04)" gradientUnits="userSpaceOnUse">
      <stop offset="0" stop-color="#ffa011"/>
      <stop offset="1" stop-color="#ff4011"/>
    </linearGradient>
    <linearGradient id="Unbenannter_Verlauf_342" data-name="Unbenannter Verlauf 342" x1="543.42" y1="663.44" x2="544.42" y2="663.44" gradientTransform="translate(-276021.82 -227748.05) rotate(90) scale(419.08 -419.08)" gradientUnits="userSpaceOnUse">
      <stop offset="0" stop-color="#ffa011"/>
      <stop offset="1" stop-color="#ff4011"/>
    </linearGradient>
    <linearGradient id="Unbenannter_Verlauf_343" data-name="Unbenannter Verlauf 343" x1="543.42" y1="664.56" x2="544.42" y2="664.56" gradientTransform="translate(-383875.86 -315771.17) rotate(90) scale(581.08 -581.08)" gradientUnits="userSpaceOnUse">
      <stop offset="0" stop-color="#ffa011"/>
      <stop offset="1" stop-color="#ff4011"/>
    </linearGradient>
    <linearGradient id="Unbenannter_Verlauf_344" data-name="Unbenannter Verlauf 344" x1="543.42" y1="663.99" x2="544.42" y2="663.99" gradientTransform="translate(-693580.68 -570142.72) rotate(90) scale(1048.04 -1048.04)" gradientUnits="userSpaceOnUse">
      <stop offset="0" stop-color="#ffa011"/>
      <stop offset="1" stop-color="#ff4011"/>
    </linearGradient>
    <linearGradient id="Unbenannter_Verlauf_345" data-name="Unbenannter Verlauf 345" x1="543.42" y1="663.97" x2="544.42" y2="663.97" gradientTransform="translate(-276021.82 -227748.05) rotate(90) scale(419.08 -419.08)" gradientUnits="userSpaceOnUse">
      <stop offset="0" stop-color="#ffa011"/>
      <stop offset="1" stop-color="#ff4011"/>
    </linearGradient>
    <linearGradient id="Unbenannter_Verlauf_349" data-name="Unbenannter Verlauf 349" x1="543.42" y1="663.2" x2="544.42" y2="663.2" gradientTransform="translate(-357263.69 -292818.91) rotate(90) scale(538.82 -538.82)" gradientUnits="userSpaceOnUse">
      <stop offset="0" stop-color="#ffa011"/>
      <stop offset="1" stop-color="#ff4011"/>
    </linearGradient>
    <linearGradient id="Unbenannter_Verlauf_350" data-name="Unbenannter Verlauf 350" x1="543.42" y1="663.52" x2="544.42" y2="663.52" gradientTransform="translate(-694896.14 -569820.32) rotate(90) scale(1048.04 -1048.04)" gradientUnits="userSpaceOnUse">
      <stop offset="0" stop-color="#ffa011"/>
      <stop offset="1" stop-color="#ff4011"/>
    </linearGradient>
    <linearGradient id="Unbenannter_Verlauf_351" data-name="Unbenannter Verlauf 351" x1="543.42" y1="663.59" x2="544.42" y2="663.59" gradientTransform="translate(-277355.99 -227686.16) rotate(90) scale(419.08 -419.08)" gradientUnits="userSpaceOnUse">
      <stop offset="0" stop-color="#ffa011"/>
      <stop offset="1" stop-color="#ff4011"/>
    </linearGradient>
    <linearGradient id="Unbenannter_Verlauf_352" data-name="Unbenannter Verlauf 352" x1="543.42" y1="663.39" x2="544.42" y2="663.39" gradientTransform="translate(-277355.99 -227686.16) rotate(90) scale(419.08 -419.08)" gradientUnits="userSpaceOnUse">
      <stop offset="0" stop-color="#ffa011"/>
      <stop offset="1" stop-color="#ff4011"/>
    </linearGradient>
    <linearGradient id="Unbenannter_Verlauf_353" data-name="Unbenannter Verlauf 353" x1="543.42" y1="663.58" x2="544.42" y2="663.58" gradientTransform="translate(-277355.99 -227686.16) rotate(90) scale(419.08 -419.08)" gradientUnits="userSpaceOnUse">
      <stop offset="0" stop-color="#ffa011"/>
      <stop offset="1" stop-color="#ff4011"/>
    </linearGradient>
    <linearGradient id="Unbenannter_Verlauf_354" data-name="Unbenannter Verlauf 354" x1="543.42" y1="663.57" x2="544.42" y2="663.57" gradientTransform="translate(-694896.14 -569820.32) rotate(90) scale(1048.04 -1048.04)" gradientUnits="userSpaceOnUse">
      <stop offset="0" stop-color="#ffa011"/>
      <stop offset="1" stop-color="#ff4011"/>
    </linearGradient>
    <linearGradient id="Unbenannter_Verlauf_355" data-name="Unbenannter Verlauf 355" x1="543.42" y1="663.57" x2="544.42" y2="663.57" gradientTransform="translate(-694896.14 -569820.32) rotate(90) scale(1048.04 -1048.04)" gradientUnits="userSpaceOnUse">
      <stop offset="0" stop-color="#ffa011"/>
      <stop offset="1" stop-color="#ff4011"/>
    </linearGradient>
    <linearGradient id="Unbenannter_Verlauf_356" data-name="Unbenannter Verlauf 356" x1="543.42" y1="663.19" x2="544.42" y2="663.19" gradientTransform="translate(-277355.99 -227686.16) rotate(90) scale(419.08 -419.08)" gradientUnits="userSpaceOnUse">
      <stop offset="0" stop-color="#ffa011"/>
      <stop offset="1" stop-color="#ff4011"/>
    </linearGradient>
    <linearGradient id="Unbenannter_Verlauf_357" data-name="Unbenannter Verlauf 357" x1="543.42" y1="663.36" x2="544.42" y2="663.36" gradientTransform="translate(-277355.99 -227686.16) rotate(90) scale(419.08 -419.08)" gradientUnits="userSpaceOnUse">
      <stop offset="0" stop-color="#ffa011"/>
      <stop offset="1" stop-color="#ff4011"/>
    </linearGradient>
    <linearGradient id="Unbenannter_Verlauf_358" data-name="Unbenannter Verlauf 358" x1="543.42" y1="663.44" x2="544.42" y2="663.44" gradientTransform="translate(-694896.14 -569820.32) rotate(90) scale(1048.04 -1048.04)" gradientUnits="userSpaceOnUse">
      <stop offset="0" stop-color="#ffa011"/>
      <stop offset="1" stop-color="#ff4011"/>
    </linearGradient>
  </defs>
  <g>
    <path class="cls-18" d="M1183.15,312.07l37.8-99.4,37.8,99.4h-75.6M1230.47,184.67h-19.04c-2.62,0-4.58.56-5.88,1.68-1.31,1.12-2.34,2.62-3.08,4.48l-69.44,181.16c-.19,1.12-.28,2.15-.28,3.08,0,1.5.56,2.8,1.68,3.92,1.12,1.12,2.42,1.68,3.92,1.68h14.28c2.24,0,3.92-.56,5.04-1.68s1.77-2.15,1.96-3.08l15.4-39.76h91.84l15.4,39.76c.37.93,1.07,1.96,2.1,3.08,1.02,1.12,2.66,1.68,4.9,1.68h14.28c1.49,0,2.8-.56,3.92-1.68,1.12-1.12,1.68-2.42,1.68-3.92,0-.93-.19-1.96-.56-3.08l-69.16-181.16c-.75-1.86-1.82-3.36-3.22-4.48-1.4-1.12-3.32-1.68-5.74-1.68"/>
    <path class="cls-17" d="M1412.27,184.67h-14.84c-2.05,0-3.64.61-4.76,1.82-1.12,1.21-1.68,2.76-1.68,4.62v183.12c0,1.87.56,3.41,1.68,4.62,1.12,1.22,2.71,1.82,4.76,1.82h14.84c1.87,0,3.41-.6,4.62-1.82,1.22-1.21,1.82-2.75,1.82-4.62v-183.12c0-1.86-.6-3.41-1.82-4.62-1.21-1.21-2.75-1.82-4.62-1.82"/>
    <path class="cls-2" d="M1523.63,325.51h-14.28c-1.68,0-3.13.61-4.34,1.82-1.22,1.21-1.82,2.57-1.82,4.06.37,8.96,3.5,17.41,9.38,25.34,5.88,7.93,14.32,14.38,25.34,19.32,6.59,2.95,14.11,5.03,22.57,6.21,5.68.81,11.78,1.21,18.31,1.21,15.12,0,28.23-2.2,39.34-6.58,10.38-4.11,18.61-9.92,24.67-17.45-7.72-4.49-15.3-9.15-22.76-14.01-1.6,2.08-3.54,3.98-5.83,5.7-7.56,5.7-19.37,8.54-35.42,8.54-10.46,0-19-1.44-25.62-4.34-6.63-2.89-11.76-6.53-15.4-10.92-3.64-4.38-5.93-8.82-6.86-13.3-.38-1.49-1.12-2.8-2.24-3.92-1.12-1.12-2.8-1.68-5.04-1.68M1510.73,250.47c1.09,3.93,2.63,7.48,4.64,10.64,4.38,6.91,11.06,12.69,20.02,17.36,1.08.56,2.19,1.12,3.33,1.67-9.7-9.51-19.06-19.43-28-29.67"/>
    <path class="cls-8" d="M1577.39,181.87h0c-14.56,0-26.93,2.33-37.1,7-10.18,4.67-17.97,10.97-23.38,18.9-5.42,7.93-8.12,16.94-8.12,27.02,0,5.78.65,11.01,1.94,15.68,8.94,10.24,18.3,20.15,28,29.67,8.38,4.03,18.55,7.76,30.54,11.21,13.06,3.73,23.7,7.19,31.92,10.36,8.21,3.17,14.32,6.77,18.34,10.78,4.01,4.01,6.02,9.29,6.02,15.82s-1.84,12.34-5.51,17.12c7.47,4.86,15.04,9.52,22.76,14.01.42-.52.83-1.05,1.23-1.59,6.16-8.31,9.24-18.34,9.24-30.1,0-10.64-2.29-19.37-6.86-26.18-4.58-6.81-11.62-12.5-21.14-17.08-9.52-4.57-21.75-8.91-36.68-13.02-12.32-3.55-22.31-6.9-29.96-10.08-7.66-3.17-13.26-6.86-16.8-11.06-3.55-4.2-5.32-9.47-5.32-15.82,0-9.89,3.78-17.17,11.34-21.84,7.56-4.66,17.4-7,29.54-7s21.65,2.62,29.12,7.84c7.46,5.23,11.76,11.67,12.88,19.32.74,2.06,1.82,3.46,3.22,4.2,1.4.75,2.75,1.12,4.06,1.12h14.84c2.05,0,3.54-.6,4.48-1.82.93-1.21,1.4-2.47,1.4-3.78-.19-5.6-1.78-11.34-4.76-17.22-2.99-5.88-7.38-11.38-13.16-16.52-5.79-5.13-13.02-9.24-21.7-12.32-8.68-3.08-18.81-4.62-30.38-4.62"/>
    <path class="cls-16" d="M1759.27,184.67h-14.84c-2.05,0-3.64.61-4.76,1.82-1.12,1.21-1.68,2.76-1.68,4.62v183.12c0,1.87.56,3.41,1.68,4.62,1.12,1.22,2.71,1.82,4.76,1.82h114.24c2.06,0,3.64-.6,4.76-1.82,1.12-1.21,1.68-2.75,1.68-4.62v-11.2c0-2.05-.56-3.69-1.68-4.9-1.12-1.21-2.7-1.82-4.76-1.82h-93.24v-165.2c0-1.86-.56-3.41-1.68-4.62-1.12-1.21-2.61-1.82-4.48-1.82"/>
    <path class="cls-5" d="M1947.07,340.14v34.1c0,1.87.56,3.41,1.68,4.62,1.12,1.22,2.7,1.82,4.76,1.82h44.55c-19.06-10.81-36.25-24.52-50.99-40.54"/>
    <path class="cls-6" d="M2069.15,184.67h-115.64c-2.06,0-3.64.61-4.76,1.82-1.12,1.21-1.68,2.85-1.68,4.9v148.74c14.74,16.01,31.93,29.72,50.99,40.54h73.33c2.05,0,3.64-.6,4.76-1.82,1.12-1.21,1.68-2.75,1.68-4.62v-10.92c0-2.05-.56-3.64-1.68-4.76-1.12-1.12-2.71-1.68-4.76-1.68h-97.44v-63.56h89.04c2.05,0,3.64-.61,4.76-1.82,1.12-1.21,1.68-2.75,1.68-4.62v-10.36c0-2.05-.56-3.68-1.68-4.9-1.12-1.21-2.71-1.82-4.76-1.82h-89.04v-61.32h95.2c2.05,0,3.64-.56,4.76-1.68,1.12-1.12,1.68-2.71,1.68-4.76v-10.64c0-2.05-.56-3.69-1.68-4.9-1.12-1.21-2.71-1.82-4.76-1.82"/>
    <path class="cls-1" d="M2276.24,313.67c-5.14,7.78-10.79,15.2-16.89,22.2l21.26,37.24c1.12,1.68,2.42,3.36,3.92,5.04,1.49,1.68,3.82,2.52,7,2.52h13.44c.21,0,.42,0,.62-.04,1.25-.13,2.39-.68,3.44-1.64,1.18-1.09,1.79-2.35,1.81-3.8v-.12c0-.93-.27-1.96-.83-3.08l-33.76-58.32M2306.92,242.98c-.39.46-.77.91-1.16,1.37-2.89,12.87-6.96,25.29-12.1,37.15.86-.93,1.68-1.9,2.48-2.9,7.18-9.05,10.78-20.76,10.78-35.14,0-.16,0-.32,0-.49"/>
    <path class="cls-4" d="M2306.83,239.33c-.34,1.69-.69,3.36-1.06,5.03.39-.46.77-.91,1.16-1.37,0-1.24-.04-2.46-.1-3.66"/>
    <path class="cls-10" d="M2191,278.19v-70h46.2c14.18,0,24.68,2.99,31.5,8.96,6.81,5.97,10.22,14.66,10.22,26.04s-3.46,20.3-10.36,26.18c-6.91,5.88-17.36,8.82-31.36,8.82h-46.2M2238.32,184.67h-68.32c-2.06,0-3.64.61-4.76,1.82-1.12,1.21-1.68,2.85-1.68,4.9v182.84c0,1.87.56,3.41,1.68,4.62,1.12,1.22,2.7,1.82,4.76,1.82h14.28c2.05,0,3.68-.6,4.9-1.82,1.21-1.21,1.82-2.75,1.82-4.62v-72.24h49l19.34,33.89c6.1-7.01,11.75-14.42,16.89-22.2l-9.36-16.16c10.96-3.16,19.88-8.49,26.78-16,5.14-11.86,9.21-24.28,12.1-37.15.38-1.67.73-3.34,1.06-5.03-.83-17.36-6.95-30.63-18.38-39.82-12.32-9.89-29.03-14.84-50.12-14.84"/>
  </g>
  <g>
    <path class="cls-20" d="M66.81,255.21c-3.48,2.48-6.83,5.1-10.05,7.82C27.26,288.05,3.95,328.96.25,368c-.17,1.84-.24,3.73-.25,5.66v.63c.02,6.53.68,13.39.25,19.71,2,8.36,3,16.89,5.28,25.22,18.86,68.74,86.76,113.32,156.16,116.82h4.23c-57.86-79.63-93.83-176.17-99.1-280.83"/>
    <path class="cls-14" d="M658.19,439.21v26.4s0,20.87,0,20.87l.92,2.08,42.07,47.92c4.81.11,9.6.25,14.36.38,8.15.24,16.23.45,24.26.45,21.98,0,43.6-1.64,65.14-9.02,13.03-4.48,32.09-13.08,43.93-20.07.82-.49,1.67.29,1.27-1.71l-26.19-26.79-14.05-14.37c-13.81,2.87-28.12,4.37-42.78,4.37-39.9,0-77.2-11.15-108.94-30.51M921.55,401.81c-19.15,20.86-42.45,37.83-68.62,49.59l11.3,10.75,15.55,14.78s.04,0,.06,0c1.8,0,10.47-12.3,12.12-14.63,8.82-12.39,16.63-25.42,22.43-39.09,2.95-6.97,5.38-14.1,7.16-21.41M579.21,352.98v53.5l1.42,2.58,45.55,44.94v-38.77c-19.29-17.54-35.29-38.64-46.97-62.25M566.19,0h-43.01c-55.52,4.01-110.61,30.94-150.69,68.86-13.5-1.84-26.98-2.94-40.48-2.94-10.7,0-21.41.69-32.13,2.25-14.2,2.06-28.09,5.56-41.44,10.38-65.7,23.68-118.22,79.09-129.34,150.31-22.09,3.64-43.89,13.2-62.28,26.35,5.27,104.66,41.25,201.2,99.1,280.84l170.12.32,321.14.62c.45-1.73-.72-1.99-1.49-3-2.09-2.72-6.34-6.48-8.98-9.02-35.14-33.74-70.26-67.74-105-101.99l-.72-50.28-5.28-6.71-54.99-58.01c-1.8-16.06,1.04-32.75-1.47-48.53l-50.06-50.96c-4.79.05-9.06.5-13.36.5-3.72,0-7.46-.33-11.58-1.54-33.51-9.82-36.88-59.51-3.72-72.63,5.32-2.11,10.61-3.07,15.68-3.07,25.26,0,45.15,24.05,37.46,51.22l61.01,59.05.72,50.28,31.3,32.7c.17-.69.31-1.33.44-1.94,1.24-6.1.21-8.16-2.12-10.06-1.49-1.22-3.53-2.37-5.84-4.49-20.64-18.92-14.82-47.68,3.7-60.73,4.5-3.17,9.74-5.41,15.54-6.36.87-9.77,2.4-19.34,4.56-28.67l-4.4-4.5c-2.56.6-5.09.93-7.56,1.02-.52.02-1.04.03-1.56.03-30.07,0-51.23-35.16-32.09-61.62,8.02-11.09,19.57-16.04,31.03-16.04,12.66,0,25.22,6.04,32.8,16.51,1.68,2.32,3.11,4.85,4.24,7.58,27.11-47.05,71.96-82.57,125.42-97.44-35.71-30.12-80.48-49.84-127.31-56.14-5.65-.76-11.97-.57-17.36-2.14"/>
    <path class="cls-19" d="M562.98,212.74c-2.16,9.34-3.7,18.91-4.56,28.67,2.03-.33,4.13-.51,6.29-.51,3.91,0,8.01.57,12.26,1.81,27.09,7.88,35.98,42.85,16.74,63.3-3.42,3.64-13.92,8.51-14.5,11.5v35.46c11.68,23.61,27.68,44.7,46.97,62.25v-16.23c0-.39-4.99-2.08-6.91-3.59-25.68-20.19-15.16-64.45,17.52-68.3,2.01-.24,3.97-.35,5.87-.35,38.83,0,55.09,47.5,21.83,71.06-2.19,1.56-5.86,1.66-6.32,4.68v36.71c31.76,19.36,69.05,30.51,108.95,30.51,14.66,0,28.97-1.5,42.78-4.37l-12.06-12.34-234.87-240.27M710.86,58.28c-53.46,14.87-98.32,50.4-125.42,97.44,2.39,5.76,3.47,12.4,2.74,19.77-.4,3.96-3.83,10.6-2.51,13.48l52.02,49.02c1.97-4.82-4.92-7.35-8.02-10.98-20.43-23.94-5.64-61.79,25.97-64.04,1.06-.08,2.11-.11,3.15-.11,35.21,0,53.42,42.87,26.4,67.65-1.98,1.81-7.17,4.03-7.82,6.18.15,14.19-1.29,29.03.75,42.86l41.57,41.44c.21.09.39.13.55.13,1.83,0,.93-5.12.44-6.13-.4-.83-11.22-8.53-13.92-12.08-15.11-19.89-7.56-52.13,16.97-59.86,4.98-1.57,9.73-2.29,14.18-2.29,38.43,0,55.23,53.45,16.24,73.95l.54,43.27,63.65,60.52,34.6,32.9c26.17-11.76,49.48-28.72,68.62-49.59,3.2-13.16,4.28-26.89,2.46-41.18-5.79-45.7-32.97-84.27-70-108.97-19.62-13.09-42-22.29-65.42-26.59-.21-25.86-3.73-51.06-12.68-75.32-12.84-34.79-34.51-64.81-61.75-88.63-1.09-.96-2.2-1.9-3.31-2.84"/>
    <path class="cls-15" d="M659.7,177.82c-1.53,0-3.12.14-4.79.42-27.92,4.8-24.42,47,4.1,47,1.72,0,3.52-.15,5.42-.48,27.48-4.68,22.21-46.94-4.73-46.94"/>
    <path class="cls-7" d="M738.07,255.78c-1.64,0-3.36.15-5.17.46-27.64,4.74-23.6,46.97,4.36,46.97,1.64,0,3.37-.15,5.17-.45,27.07-4.61,23.5-46.98-4.36-46.98"/>
    <path class="cls-12" d="M549.96,146.8c-1.6,0-3.27.14-5.03.44-27.63,4.73-23.59,46.97,4.35,46.97,1.64,0,3.36-.15,5.17-.45.76-.13,1.5-.29,2.21-.47,14.31-3.74,18.81-18.52,14.96-30.43h0c-2.84-8.82-10.26-16.06-21.66-16.06"/>
    <path class="cls-13" d="M557.61,257.09c-6.92,2.41-13.08,8.94-15.14,15.69-.55,1.82-.89,3.59-1.02,5.32v.07c-.11,1.57-.06,3.1.15,4.58v.04c1.43,10.52,10.37,18.37,20.33,20.02-2.84-13.76-4.34-28.03-4.34-42.64,0-1.03,0-2.06.02-3.09"/>
    <path class="cls-3" d="M564.77,255.99c-1.25,0-2.52.09-3.82.28-1.12.16-2.24.44-3.34.82-.01,1.03-.02,2.06-.02,3.09,0,14.61,1.5,28.87,4.34,42.64,1.28.21,2.58.32,3.88.32,6.66,0,13.4-2.88,18.38-9.64,12.16-16.48-.32-37.51-19.42-37.51"/>
    <path class="cls-11" d="M643.09,341.79c-1.66,0-3.39.14-5.18.45-7.55,1.27-16.22,9.96-17.5,17.5-2.73,16.04,9.12,29.17,22.99,29.17,4.3,0,8.79-1.26,13.1-4.08,20.12-13.17,10.5-43.04-13.41-43.04"/>
    <path class="cls-9" d="M416.09,146.88c-1.36,0-2.74.12-4.15.36-7.8,1.34-15.12,7.88-17.77,15.23-6.28,17.41,7.81,31.6,22.55,31.6,6.62,0,13.37-2.87,18.46-9.6,12.21-16.14-.63-37.59-19.09-37.59"/>
  </g>
</svg>
