%TF.GenerationSoftware,KiCad,Pcbnew,9.0.7-1.fc42*%
%TF.CreationDate,2026-03-14T11:55:07+01:00*%
%TF.ProjectId,BACKPACK,4241434b-5041-4434-9b2e-6b696361645f,rev?*%
%TF.SameCoordinates,Original*%
%TF.FileFunction,Copper,L3,Inr*%
%TF.FilePolarity,Positive*%
%FSLAX46Y46*%
G04 Gerber Fmt 4.6, Leading zero omitted, Abs format (unit mm)*
G04 Created by KiCad (PCBNEW 9.0.7-1.fc42) date 2026-03-14 11:55:07*
%MOMM*%
%LPD*%
G01*
G04 APERTURE LIST*
G04 Aperture macros list*
%AMRoundRect*
0 Rectangle with rounded corners*
0 $1 Rounding radius*
0 $2 $3 $4 $5 $6 $7 $8 $9 X,Y pos of 4 corners*
0 Add a 4 corners polygon primitive as box body*
4,1,4,$2,$3,$4,$5,$6,$7,$8,$9,$2,$3,0*
0 Add four circle primitives for the rounded corners*
1,1,$1+$1,$2,$3*
1,1,$1+$1,$4,$5*
1,1,$1+$1,$6,$7*
1,1,$1+$1,$8,$9*
0 Add four rect primitives between the rounded corners*
20,1,$1+$1,$2,$3,$4,$5,0*
20,1,$1+$1,$4,$5,$6,$7,0*
20,1,$1+$1,$6,$7,$8,$9,0*
20,1,$1+$1,$8,$9,$2,$3,0*%
G04 Aperture macros list end*
%TA.AperFunction,ComponentPad*%
%ADD10RoundRect,0.250000X0.725000X-0.600000X0.725000X0.600000X-0.725000X0.600000X-0.725000X-0.600000X0*%
%TD*%
%TA.AperFunction,ComponentPad*%
%ADD11O,1.950000X1.700000*%
%TD*%
%TA.AperFunction,ComponentPad*%
%ADD12C,2.500000*%
%TD*%
%TA.AperFunction,ComponentPad*%
%ADD13R,1.700000X1.700000*%
%TD*%
%TA.AperFunction,ComponentPad*%
%ADD14C,1.700000*%
%TD*%
%TA.AperFunction,ViaPad*%
%ADD15C,0.450000*%
%TD*%
G04 APERTURE END LIST*
D10*
%TO.N,/CPU_SWDCLK*%
%TO.C,J2*%
X191875000Y-82200000D03*
D11*
%TO.N,/CPU_SWDIO*%
X191875000Y-79700000D03*
%TO.N,GND*%
X191875000Y-77200000D03*
%TD*%
D10*
%TO.N,/SWDIO*%
%TO.C,J3*%
X184700000Y-82200000D03*
D11*
%TO.N,/SWCLK*%
X184700000Y-79700000D03*
%TO.N,GND*%
X184700000Y-77200000D03*
%TD*%
D12*
%TO.N,Net-(U9-RF_IN)*%
%TO.C,ANT1*%
X157100000Y-76600000D03*
%TD*%
D10*
%TO.N,/UART1_RX_RADIO*%
%TO.C,J7*%
X191900000Y-93400000D03*
D11*
%TO.N,/UART1_TX_RADIO*%
X191900000Y-90900000D03*
%TO.N,GND*%
X191900000Y-88400000D03*
%TD*%
D10*
%TO.N,HIL_TX*%
%TO.C,J1*%
X184700000Y-93400000D03*
D11*
%TO.N,HIL_RX*%
X184700000Y-90900000D03*
%TO.N,GND*%
X184700000Y-88400000D03*
%TD*%
D13*
%TO.N,+3V3*%
%TO.C,J5*%
X177000000Y-76760000D03*
D14*
X174460000Y-76760000D03*
%TO.N,/PWM4*%
X177000000Y-79300000D03*
%TO.N,/PWM1*%
X174460000Y-79300000D03*
%TO.N,/PWM2*%
X177000000Y-81840000D03*
%TO.N,/PWM3*%
X174460000Y-81840000D03*
%TO.N,GND*%
X177000000Y-84380000D03*
%TO.N,/GPIO20*%
X174460000Y-84380000D03*
%TO.N,/RX_GPS*%
X177000000Y-86920000D03*
%TO.N,/TX_GPS*%
X174460000Y-86920000D03*
%TO.N,HIL_TX*%
X177000000Y-89460000D03*
%TO.N,HIL_RX*%
X174460000Y-89460000D03*
%TO.N,GND*%
X177000000Y-92000000D03*
X174460000Y-92000000D03*
%TO.N,/SDA_RADIO*%
X177000000Y-94540000D03*
%TO.N,/SCL_RADIO*%
X174460000Y-94540000D03*
%TD*%
D13*
%TO.N,+3V3*%
%TO.C,J6*%
X141700000Y-76660000D03*
D14*
X139160000Y-76660000D03*
%TO.N,/CPU_SWDCLK*%
X141700000Y-79200000D03*
%TO.N,PPS*%
X139160000Y-79200000D03*
%TO.N,/CPU_SWDIO*%
X141700000Y-81740000D03*
%TO.N,/BOOTSEL*%
X139160000Y-81740000D03*
%TO.N,/GPIO39*%
X141700000Y-84280000D03*
%TO.N,/RESET*%
X139160000Y-84280000D03*
%TO.N,/GPIO41*%
X141700000Y-86820000D03*
%TO.N,/GPIO42*%
X139160000Y-86820000D03*
%TO.N,/GPIO43*%
X141700000Y-89360000D03*
%TO.N,/GPIO44*%
X139160000Y-89360000D03*
%TO.N,/GPIO46*%
X141700000Y-91900000D03*
%TO.N,/GPIO45*%
X139160000Y-91900000D03*
%TO.N,GND*%
X141700000Y-94440000D03*
X139160000Y-94440000D03*
%TD*%
D15*
%TO.N,GND*%
X146014515Y-107412035D03*
X174606377Y-99795718D03*
X137324238Y-97300000D03*
X139731646Y-97314470D03*
X159062500Y-76000000D03*
X141865828Y-103263348D03*
X143051167Y-104448687D03*
X169412500Y-69100000D03*
X144829176Y-106226696D03*
X140680488Y-102078008D03*
X145007171Y-102162051D03*
X142736812Y-99891692D03*
X159062500Y-77750000D03*
X129084000Y-101340000D03*
X165100000Y-97125000D03*
X174050000Y-109487500D03*
X143871991Y-101026871D03*
X134901352Y-100300000D03*
X135718851Y-97300000D03*
X131700450Y-100300000D03*
X129109400Y-96691800D03*
X160212500Y-75700000D03*
X137302029Y-100300000D03*
X134101127Y-100300000D03*
X140087819Y-101485339D03*
X145421845Y-106819365D03*
X147511838Y-108000000D03*
X142458497Y-103856017D03*
X142169222Y-99324102D03*
X143304401Y-100459281D03*
X131000000Y-76662500D03*
X138902480Y-100300000D03*
X171050000Y-109487500D03*
X148350000Y-108000000D03*
X136521545Y-97300000D03*
X146709940Y-103864820D03*
X138929624Y-97300000D03*
X134113465Y-97300000D03*
X131705386Y-97300000D03*
X134916158Y-97300000D03*
X140460138Y-97628134D03*
X145574760Y-102729640D03*
X133000000Y-76875000D03*
X156249999Y-93600001D03*
X133300901Y-100300000D03*
X143643836Y-105041356D03*
X182775000Y-97377500D03*
X181150000Y-97340000D03*
X141601632Y-98756512D03*
X144236506Y-105634026D03*
X138126931Y-97300000D03*
X144439581Y-101594461D03*
X136501803Y-100300000D03*
X139495149Y-100892669D03*
X141034042Y-98188922D03*
X146142350Y-103297230D03*
X168050000Y-109487500D03*
X160212500Y-77900000D03*
X135701578Y-100300000D03*
X138102254Y-100300000D03*
X133310772Y-97300000D03*
X163150000Y-105500002D03*
X141273158Y-102670678D03*
X163150000Y-96500002D03*
X146685926Y-107900247D03*
X132508079Y-97300000D03*
X132500676Y-100300000D03*
%TO.N,Net-(BT1-+)*%
X172000000Y-95000000D03*
%TO.N,+3V3*%
X169412500Y-76800000D03*
X165100000Y-95400000D03*
X177775000Y-97365000D03*
X179425000Y-97340000D03*
%TO.N,/L_BLUE*%
X158662500Y-95000000D03*
X154000000Y-95000000D03*
%TO.N,Net-(U9-RF_IN)*%
X160212500Y-76800000D03*
%TO.N,/TX_GPS*%
X160000000Y-100400000D03*
X172500000Y-97500000D03*
%TO.N,/SDA_RADIO*%
X150600000Y-102800000D03*
%TO.N,/SCL_RADIO*%
X167600000Y-93400000D03*
X164800000Y-93400000D03*
X148350000Y-103500001D03*
%TO.N,/RX_GPS*%
X159400000Y-100812500D03*
X172912500Y-98200000D03*
%TO.N,unconnected-(U10-PA7{slash}SPI1_MOSI-Pad13)*%
X156249999Y-108900001D03*
%TO.N,/UART1_TX_RADIO*%
X160100000Y-101400000D03*
%TO.N,/UART1_RX_RADIO*%
X159500000Y-101900000D03*
%TO.N,/SWCLK*%
X165200000Y-102787500D03*
X160200000Y-103100000D03*
%TO.N,/SWDIO*%
X166793750Y-102293750D03*
X160100000Y-102500000D03*
%TD*%
%TA.AperFunction,Conductor*%
%TO.N,+3V3*%
G36*
X192252702Y-65625617D02*
G01*
X192669455Y-65643813D01*
X192680188Y-65644753D01*
X193091085Y-65698848D01*
X193101719Y-65700723D01*
X193506336Y-65790425D01*
X193516777Y-65793223D01*
X193912022Y-65917842D01*
X193922168Y-65921535D01*
X194305060Y-66080135D01*
X194314852Y-66084701D01*
X194331092Y-66093155D01*
X194682442Y-66276056D01*
X194691810Y-66281464D01*
X195041335Y-66504136D01*
X195050196Y-66510341D01*
X195378975Y-66762622D01*
X195387262Y-66769576D01*
X195692800Y-67049550D01*
X195700449Y-67057199D01*
X195980423Y-67362737D01*
X195987377Y-67371024D01*
X196239658Y-67699803D01*
X196245863Y-67708664D01*
X196468535Y-68058189D01*
X196473943Y-68067557D01*
X196665295Y-68435141D01*
X196669867Y-68444945D01*
X196828460Y-68827821D01*
X196832160Y-68837987D01*
X196956775Y-69233219D01*
X196959575Y-69243667D01*
X197049274Y-69648272D01*
X197051152Y-69658925D01*
X197105244Y-70069788D01*
X197106187Y-70080565D01*
X197124382Y-70497297D01*
X197124500Y-70502706D01*
X197124500Y-105497293D01*
X197124382Y-105502702D01*
X197106187Y-105919434D01*
X197105244Y-105930211D01*
X197051152Y-106341074D01*
X197049274Y-106351727D01*
X196959575Y-106756332D01*
X196956775Y-106766780D01*
X196832160Y-107162012D01*
X196828460Y-107172178D01*
X196669867Y-107555054D01*
X196665295Y-107564858D01*
X196473943Y-107932442D01*
X196468535Y-107941810D01*
X196245863Y-108291335D01*
X196239658Y-108300196D01*
X195987377Y-108628975D01*
X195980423Y-108637262D01*
X195700449Y-108942800D01*
X195692800Y-108950449D01*
X195387262Y-109230423D01*
X195378975Y-109237377D01*
X195050196Y-109489658D01*
X195041335Y-109495863D01*
X194691810Y-109718535D01*
X194682442Y-109723943D01*
X194314858Y-109915295D01*
X194305054Y-109919867D01*
X193922178Y-110078460D01*
X193912012Y-110082160D01*
X193516780Y-110206775D01*
X193506332Y-110209575D01*
X193101727Y-110299274D01*
X193091074Y-110301152D01*
X192680211Y-110355244D01*
X192669434Y-110356187D01*
X192252703Y-110374382D01*
X192247294Y-110374500D01*
X131502706Y-110374500D01*
X131497297Y-110374382D01*
X131080565Y-110356187D01*
X131069790Y-110355244D01*
X130976056Y-110342903D01*
X130658925Y-110301152D01*
X130648272Y-110299274D01*
X130243667Y-110209575D01*
X130233219Y-110206775D01*
X129837987Y-110082160D01*
X129827821Y-110078460D01*
X129444945Y-109919867D01*
X129435141Y-109915295D01*
X129067557Y-109723943D01*
X129058189Y-109718534D01*
X128774510Y-109537810D01*
X128774508Y-109537810D01*
X128708664Y-109495863D01*
X128699803Y-109489658D01*
X128636855Y-109441356D01*
X167699500Y-109441356D01*
X167699500Y-109533644D01*
X167700616Y-109537810D01*
X167723387Y-109622790D01*
X167723388Y-109622793D01*
X167769526Y-109702705D01*
X167769529Y-109702709D01*
X167769531Y-109702712D01*
X167834788Y-109767969D01*
X167834791Y-109767970D01*
X167834794Y-109767973D01*
X167914706Y-109814111D01*
X167914707Y-109814111D01*
X167914712Y-109814114D01*
X168003856Y-109838000D01*
X168003858Y-109838000D01*
X168096142Y-109838000D01*
X168096144Y-109838000D01*
X168185288Y-109814114D01*
X168265212Y-109767969D01*
X168330469Y-109702712D01*
X168376614Y-109622788D01*
X168400500Y-109533644D01*
X168400500Y-109441356D01*
X170699500Y-109441356D01*
X170699500Y-109533644D01*
X170700616Y-109537810D01*
X170723387Y-109622790D01*
X170723388Y-109622793D01*
X170769526Y-109702705D01*
X170769529Y-109702709D01*
X170769531Y-109702712D01*
X170834788Y-109767969D01*
X170834791Y-109767970D01*
X170834794Y-109767973D01*
X170914706Y-109814111D01*
X170914707Y-109814111D01*
X170914712Y-109814114D01*
X171003856Y-109838000D01*
X171003858Y-109838000D01*
X171096142Y-109838000D01*
X171096144Y-109838000D01*
X171185288Y-109814114D01*
X171265212Y-109767969D01*
X171330469Y-109702712D01*
X171376614Y-109622788D01*
X171400500Y-109533644D01*
X171400500Y-109441356D01*
X173699500Y-109441356D01*
X173699500Y-109533644D01*
X173700616Y-109537810D01*
X173723387Y-109622790D01*
X173723388Y-109622793D01*
X173769526Y-109702705D01*
X173769529Y-109702709D01*
X173769531Y-109702712D01*
X173834788Y-109767969D01*
X173834791Y-109767970D01*
X173834794Y-109767973D01*
X173914706Y-109814111D01*
X173914707Y-109814111D01*
X173914712Y-109814114D01*
X174003856Y-109838000D01*
X174003858Y-109838000D01*
X174096142Y-109838000D01*
X174096144Y-109838000D01*
X174185288Y-109814114D01*
X174265212Y-109767969D01*
X174330469Y-109702712D01*
X174376614Y-109622788D01*
X174400500Y-109533644D01*
X174400500Y-109441356D01*
X174376614Y-109352212D01*
X174376611Y-109352206D01*
X174330473Y-109272294D01*
X174330470Y-109272291D01*
X174330469Y-109272288D01*
X174265212Y-109207031D01*
X174265209Y-109207029D01*
X174265205Y-109207026D01*
X174185293Y-109160888D01*
X174185290Y-109160887D01*
X174185289Y-109160886D01*
X174185288Y-109160886D01*
X174096144Y-109137000D01*
X174003856Y-109137000D01*
X173914712Y-109160886D01*
X173914711Y-109160886D01*
X173914709Y-109160887D01*
X173914706Y-109160888D01*
X173834794Y-109207026D01*
X173834785Y-109207033D01*
X173769533Y-109272285D01*
X173769526Y-109272294D01*
X173723388Y-109352206D01*
X173723387Y-109352209D01*
X173723386Y-109352211D01*
X173723386Y-109352212D01*
X173699500Y-109441356D01*
X171400500Y-109441356D01*
X171376614Y-109352212D01*
X171376611Y-109352206D01*
X171330473Y-109272294D01*
X171330470Y-109272291D01*
X171330469Y-109272288D01*
X171265212Y-109207031D01*
X171265209Y-109207029D01*
X171265205Y-109207026D01*
X171185293Y-109160888D01*
X171185290Y-109160887D01*
X171185289Y-109160886D01*
X171185288Y-109160886D01*
X171096144Y-109137000D01*
X171003856Y-109137000D01*
X170914712Y-109160886D01*
X170914711Y-109160886D01*
X170914709Y-109160887D01*
X170914706Y-109160888D01*
X170834794Y-109207026D01*
X170834785Y-109207033D01*
X170769533Y-109272285D01*
X170769526Y-109272294D01*
X170723388Y-109352206D01*
X170723387Y-109352209D01*
X170723386Y-109352211D01*
X170723386Y-109352212D01*
X170699500Y-109441356D01*
X168400500Y-109441356D01*
X168376614Y-109352212D01*
X168376611Y-109352206D01*
X168330473Y-109272294D01*
X168330470Y-109272291D01*
X168330469Y-109272288D01*
X168265212Y-109207031D01*
X168265209Y-109207029D01*
X168265205Y-109207026D01*
X168185293Y-109160888D01*
X168185290Y-109160887D01*
X168185289Y-109160886D01*
X168185288Y-109160886D01*
X168096144Y-109137000D01*
X168003856Y-109137000D01*
X167914712Y-109160886D01*
X167914711Y-109160886D01*
X167914709Y-109160887D01*
X167914706Y-109160888D01*
X167834794Y-109207026D01*
X167834785Y-109207033D01*
X167769533Y-109272285D01*
X167769526Y-109272294D01*
X167723388Y-109352206D01*
X167723387Y-109352209D01*
X167723386Y-109352211D01*
X167723386Y-109352212D01*
X167699500Y-109441356D01*
X128636855Y-109441356D01*
X128371024Y-109237377D01*
X128362737Y-109230423D01*
X128057199Y-108950449D01*
X128049548Y-108942798D01*
X128037364Y-108929501D01*
X128037363Y-108929500D01*
X127968049Y-108853857D01*
X155899499Y-108853857D01*
X155899499Y-108946145D01*
X155900652Y-108950449D01*
X155923386Y-109035291D01*
X155923387Y-109035294D01*
X155969525Y-109115206D01*
X155969528Y-109115210D01*
X155969530Y-109115213D01*
X156034787Y-109180470D01*
X156034790Y-109180471D01*
X156034793Y-109180474D01*
X156114705Y-109226612D01*
X156114706Y-109226612D01*
X156114711Y-109226615D01*
X156203855Y-109250501D01*
X156203857Y-109250501D01*
X156296141Y-109250501D01*
X156296143Y-109250501D01*
X156385287Y-109226615D01*
X156465211Y-109180470D01*
X156530468Y-109115213D01*
X156576613Y-109035289D01*
X156600499Y-108946145D01*
X156600499Y-108853857D01*
X156576613Y-108764713D01*
X156576610Y-108764707D01*
X156530472Y-108684795D01*
X156530469Y-108684792D01*
X156530468Y-108684789D01*
X156465211Y-108619532D01*
X156465208Y-108619530D01*
X156465204Y-108619527D01*
X156385292Y-108573389D01*
X156385289Y-108573388D01*
X156385288Y-108573387D01*
X156385287Y-108573387D01*
X156296143Y-108549501D01*
X156203855Y-108549501D01*
X156114711Y-108573387D01*
X156114710Y-108573387D01*
X156114708Y-108573388D01*
X156114705Y-108573389D01*
X156034793Y-108619527D01*
X156034784Y-108619534D01*
X155969532Y-108684786D01*
X155969525Y-108684795D01*
X155923387Y-108764707D01*
X155923386Y-108764710D01*
X155923385Y-108764712D01*
X155923385Y-108764713D01*
X155899499Y-108853857D01*
X127968049Y-108853857D01*
X127769576Y-108637262D01*
X127762622Y-108628975D01*
X127510341Y-108300196D01*
X127504136Y-108291335D01*
X127433666Y-108180720D01*
X127281463Y-107941809D01*
X127276056Y-107932442D01*
X127240798Y-107864712D01*
X127084701Y-107564852D01*
X127080132Y-107555054D01*
X127001778Y-107365891D01*
X126921535Y-107172168D01*
X126917839Y-107162012D01*
X126912783Y-107145977D01*
X126793223Y-106766777D01*
X126790424Y-106756332D01*
X126700723Y-106351719D01*
X126698847Y-106341074D01*
X126698357Y-106337351D01*
X126644753Y-105930188D01*
X126643813Y-105919453D01*
X126642392Y-105886911D01*
X129274500Y-105886911D01*
X129274500Y-106113088D01*
X129274501Y-106113104D01*
X129295530Y-106272839D01*
X129304024Y-106337351D01*
X129310625Y-106361986D01*
X129362567Y-106555834D01*
X129449120Y-106764794D01*
X129449127Y-106764809D01*
X129562220Y-106960692D01*
X129699915Y-107140140D01*
X129699921Y-107140147D01*
X129859852Y-107300078D01*
X129859859Y-107300084D01*
X130039307Y-107437779D01*
X130235190Y-107550872D01*
X130235205Y-107550879D01*
X130268954Y-107564858D01*
X130444166Y-107637433D01*
X130662649Y-107695976D01*
X130886905Y-107725500D01*
X130886912Y-107725500D01*
X131113088Y-107725500D01*
X131113095Y-107725500D01*
X131337351Y-107695976D01*
X131555834Y-107637433D01*
X131764806Y-107550874D01*
X131960693Y-107437779D01*
X132140142Y-107300083D01*
X132300083Y-107140142D01*
X132437779Y-106960693D01*
X132550874Y-106764806D01*
X132637433Y-106555834D01*
X132695976Y-106337351D01*
X132725500Y-106113095D01*
X132725500Y-105886905D01*
X132695976Y-105662649D01*
X132637433Y-105444166D01*
X132571420Y-105284796D01*
X132550879Y-105235205D01*
X132550872Y-105235190D01*
X132437779Y-105039307D01*
X132300084Y-104859859D01*
X132300078Y-104859852D01*
X132140147Y-104699921D01*
X132140140Y-104699915D01*
X131960692Y-104562220D01*
X131764809Y-104449127D01*
X131764794Y-104449120D01*
X131555834Y-104362567D01*
X131337347Y-104304023D01*
X131113104Y-104274501D01*
X131113101Y-104274500D01*
X131113095Y-104274500D01*
X130886905Y-104274500D01*
X130886899Y-104274500D01*
X130886895Y-104274501D01*
X130662652Y-104304023D01*
X130444165Y-104362567D01*
X130235205Y-104449120D01*
X130235190Y-104449127D01*
X130039307Y-104562220D01*
X129859859Y-104699915D01*
X129859852Y-104699921D01*
X129699921Y-104859852D01*
X129699915Y-104859859D01*
X129562220Y-105039307D01*
X129449127Y-105235190D01*
X129449120Y-105235205D01*
X129362567Y-105444165D01*
X129304023Y-105662652D01*
X129274501Y-105886895D01*
X129274500Y-105886911D01*
X126642392Y-105886911D01*
X126625618Y-105502702D01*
X126625500Y-105497293D01*
X126625500Y-101293856D01*
X128733500Y-101293856D01*
X128733500Y-101386144D01*
X128753761Y-101461760D01*
X128757387Y-101475290D01*
X128757388Y-101475293D01*
X128803526Y-101555205D01*
X128803529Y-101555209D01*
X128803531Y-101555212D01*
X128868788Y-101620469D01*
X128868791Y-101620470D01*
X128868794Y-101620473D01*
X128948706Y-101666611D01*
X128948707Y-101666611D01*
X128948712Y-101666614D01*
X129037856Y-101690500D01*
X129037858Y-101690500D01*
X129130142Y-101690500D01*
X129130144Y-101690500D01*
X129219288Y-101666614D01*
X129299212Y-101620469D01*
X129364469Y-101555212D01*
X129410614Y-101475288D01*
X129434500Y-101386144D01*
X129434500Y-101293856D01*
X129410614Y-101204712D01*
X129410611Y-101204706D01*
X129364473Y-101124794D01*
X129364470Y-101124791D01*
X129364469Y-101124788D01*
X129299212Y-101059531D01*
X129299209Y-101059529D01*
X129299205Y-101059526D01*
X129219293Y-101013388D01*
X129219290Y-101013387D01*
X129219289Y-101013386D01*
X129219288Y-101013386D01*
X129130144Y-100989500D01*
X129037856Y-100989500D01*
X128948712Y-101013386D01*
X128948711Y-101013386D01*
X128948709Y-101013387D01*
X128948706Y-101013388D01*
X128868794Y-101059526D01*
X128868785Y-101059533D01*
X128803533Y-101124785D01*
X128803526Y-101124794D01*
X128757388Y-101204706D01*
X128757387Y-101204709D01*
X128757386Y-101204711D01*
X128757386Y-101204712D01*
X128733500Y-101293856D01*
X126625500Y-101293856D01*
X126625500Y-100375023D01*
X126645185Y-100307984D01*
X126697989Y-100262229D01*
X126750006Y-100251024D01*
X131234749Y-100269403D01*
X131301705Y-100289362D01*
X131347244Y-100342353D01*
X131354011Y-100361302D01*
X131373101Y-100432544D01*
X131373837Y-100435290D01*
X131373838Y-100435293D01*
X131419976Y-100515205D01*
X131419979Y-100515209D01*
X131419981Y-100515212D01*
X131485238Y-100580469D01*
X131485241Y-100580470D01*
X131485244Y-100580473D01*
X131565156Y-100626611D01*
X131565157Y-100626611D01*
X131565162Y-100626614D01*
X131654306Y-100650500D01*
X131654308Y-100650500D01*
X131746592Y-100650500D01*
X131746594Y-100650500D01*
X131835738Y-100626614D01*
X131915662Y-100580469D01*
X131980919Y-100515212D01*
X131993176Y-100493981D01*
X132043743Y-100445767D01*
X132112350Y-100432543D01*
X132177214Y-100458511D01*
X132207948Y-100493980D01*
X132220207Y-100515212D01*
X132285464Y-100580469D01*
X132285467Y-100580470D01*
X132285470Y-100580473D01*
X132365382Y-100626611D01*
X132365383Y-100626611D01*
X132365388Y-100626614D01*
X132454532Y-100650500D01*
X132454534Y-100650500D01*
X132546818Y-100650500D01*
X132546820Y-100650500D01*
X132635964Y-100626614D01*
X132715888Y-100580469D01*
X132781145Y-100515212D01*
X132793401Y-100493983D01*
X132843966Y-100445768D01*
X132912573Y-100432544D01*
X132977438Y-100458511D01*
X133008174Y-100493982D01*
X133020427Y-100515205D01*
X133020430Y-100515209D01*
X133020432Y-100515212D01*
X133085689Y-100580469D01*
X133085692Y-100580470D01*
X133085695Y-100580473D01*
X133165607Y-100626611D01*
X133165608Y-100626611D01*
X133165613Y-100626614D01*
X133254757Y-100650500D01*
X133254759Y-100650500D01*
X133347043Y-100650500D01*
X133347045Y-100650500D01*
X133436189Y-100626614D01*
X133516113Y-100580469D01*
X133581370Y-100515212D01*
X133593627Y-100493981D01*
X133644194Y-100445767D01*
X133712801Y-100432543D01*
X133777665Y-100458511D01*
X133808399Y-100493980D01*
X133820658Y-100515212D01*
X133885915Y-100580469D01*
X133885918Y-100580470D01*
X133885921Y-100580473D01*
X133965833Y-100626611D01*
X133965834Y-100626611D01*
X133965839Y-100626614D01*
X134054983Y-100650500D01*
X134054985Y-100650500D01*
X134147269Y-100650500D01*
X134147271Y-100650500D01*
X134236415Y-100626614D01*
X134316339Y-100580469D01*
X134381596Y-100515212D01*
X134393852Y-100493983D01*
X134444417Y-100445768D01*
X134513024Y-100432544D01*
X134577889Y-100458511D01*
X134608625Y-100493982D01*
X134620878Y-100515205D01*
X134620881Y-100515209D01*
X134620883Y-100515212D01*
X134686140Y-100580469D01*
X134686143Y-100580470D01*
X134686146Y-100580473D01*
X134766058Y-100626611D01*
X134766059Y-100626611D01*
X134766064Y-100626614D01*
X134855208Y-100650500D01*
X134855210Y-100650500D01*
X134947494Y-100650500D01*
X134947496Y-100650500D01*
X135036640Y-100626614D01*
X135116564Y-100580469D01*
X135181821Y-100515212D01*
X135194078Y-100493981D01*
X135244645Y-100445767D01*
X135313252Y-100432543D01*
X135378116Y-100458511D01*
X135408850Y-100493980D01*
X135421109Y-100515212D01*
X135486366Y-100580469D01*
X135486369Y-100580470D01*
X135486372Y-100580473D01*
X135566284Y-100626611D01*
X135566285Y-100626611D01*
X135566290Y-100626614D01*
X135655434Y-100650500D01*
X135655436Y-100650500D01*
X135747720Y-100650500D01*
X135747722Y-100650500D01*
X135836866Y-100626614D01*
X135916790Y-100580469D01*
X135982047Y-100515212D01*
X135994303Y-100493983D01*
X136044868Y-100445768D01*
X136113475Y-100432544D01*
X136178340Y-100458511D01*
X136209076Y-100493982D01*
X136221329Y-100515205D01*
X136221332Y-100515209D01*
X136221334Y-100515212D01*
X136286591Y-100580469D01*
X136286594Y-100580470D01*
X136286597Y-100580473D01*
X136366509Y-100626611D01*
X136366510Y-100626611D01*
X136366515Y-100626614D01*
X136455659Y-100650500D01*
X136455661Y-100650500D01*
X136547945Y-100650500D01*
X136547947Y-100650500D01*
X136637091Y-100626614D01*
X136717015Y-100580469D01*
X136782272Y-100515212D01*
X136794529Y-100493981D01*
X136845096Y-100445767D01*
X136913703Y-100432543D01*
X136978567Y-100458511D01*
X137009301Y-100493980D01*
X137021560Y-100515212D01*
X137086817Y-100580469D01*
X137086820Y-100580470D01*
X137086823Y-100580473D01*
X137166735Y-100626611D01*
X137166736Y-100626611D01*
X137166741Y-100626614D01*
X137255885Y-100650500D01*
X137255887Y-100650500D01*
X137348171Y-100650500D01*
X137348173Y-100650500D01*
X137437317Y-100626614D01*
X137517241Y-100580469D01*
X137582498Y-100515212D01*
X137594754Y-100493983D01*
X137645319Y-100445768D01*
X137713926Y-100432544D01*
X137778791Y-100458511D01*
X137809527Y-100493982D01*
X137821780Y-100515205D01*
X137821783Y-100515209D01*
X137821785Y-100515212D01*
X137887042Y-100580469D01*
X137887045Y-100580470D01*
X137887048Y-100580473D01*
X137966960Y-100626611D01*
X137966961Y-100626611D01*
X137966966Y-100626614D01*
X138056110Y-100650500D01*
X138056112Y-100650500D01*
X138148396Y-100650500D01*
X138148398Y-100650500D01*
X138237542Y-100626614D01*
X138317466Y-100580469D01*
X138382723Y-100515212D01*
X138394980Y-100493981D01*
X138445547Y-100445767D01*
X138514154Y-100432543D01*
X138579018Y-100458511D01*
X138609752Y-100493980D01*
X138622011Y-100515212D01*
X138687268Y-100580469D01*
X138687271Y-100580470D01*
X138687274Y-100580473D01*
X138767186Y-100626611D01*
X138767187Y-100626611D01*
X138767192Y-100626614D01*
X138856336Y-100650500D01*
X138856338Y-100650500D01*
X138948621Y-100650500D01*
X138948624Y-100650500D01*
X138957774Y-100648048D01*
X138969984Y-100648338D01*
X138981447Y-100644107D01*
X139004264Y-100649152D01*
X139027620Y-100649707D01*
X139039418Y-100656925D01*
X139049669Y-100659192D01*
X139077851Y-100680439D01*
X139115253Y-100718097D01*
X139148528Y-100779534D01*
X139147048Y-100837570D01*
X139144649Y-100846520D01*
X139144649Y-100846525D01*
X139144649Y-100938813D01*
X139168469Y-101027712D01*
X139168536Y-101027959D01*
X139168537Y-101027962D01*
X139214675Y-101107874D01*
X139214678Y-101107878D01*
X139214680Y-101107881D01*
X139279937Y-101173138D01*
X139279940Y-101173139D01*
X139279943Y-101173142D01*
X139359855Y-101219280D01*
X139359856Y-101219280D01*
X139359861Y-101219283D01*
X139449005Y-101243169D01*
X139449007Y-101243169D01*
X139541290Y-101243169D01*
X139541293Y-101243169D01*
X139547259Y-101241570D01*
X139559470Y-101241860D01*
X139570934Y-101237629D01*
X139593749Y-101242674D01*
X139617106Y-101243229D01*
X139628905Y-101250448D01*
X139639156Y-101252715D01*
X139667333Y-101273958D01*
X139707067Y-101313965D01*
X139740342Y-101375402D01*
X139738864Y-101433428D01*
X139737319Y-101439193D01*
X139737319Y-101439195D01*
X139737319Y-101531483D01*
X139760911Y-101619531D01*
X139761206Y-101620629D01*
X139761207Y-101620632D01*
X139807345Y-101700544D01*
X139807348Y-101700548D01*
X139807350Y-101700551D01*
X139872607Y-101765808D01*
X139872610Y-101765809D01*
X139872613Y-101765812D01*
X139952525Y-101811950D01*
X139952526Y-101811950D01*
X139952531Y-101811953D01*
X140041675Y-101835839D01*
X140041677Y-101835839D01*
X140133961Y-101835839D01*
X140133963Y-101835839D01*
X140136743Y-101835094D01*
X140139180Y-101835151D01*
X140142020Y-101834778D01*
X140142078Y-101835220D01*
X140148954Y-101835384D01*
X140160417Y-101831153D01*
X140183234Y-101836198D01*
X140206591Y-101836753D01*
X140218389Y-101843971D01*
X140228639Y-101846238D01*
X140256821Y-101867485D01*
X140298878Y-101909830D01*
X140332153Y-101971268D01*
X140330814Y-102023772D01*
X140331049Y-102023803D01*
X140330757Y-102026015D01*
X140330674Y-102029302D01*
X140329988Y-102031860D01*
X140329988Y-102031864D01*
X140329988Y-102124152D01*
X140352507Y-102208195D01*
X140353875Y-102213298D01*
X140353876Y-102213301D01*
X140400014Y-102293213D01*
X140400017Y-102293217D01*
X140400019Y-102293220D01*
X140465276Y-102358477D01*
X140465279Y-102358478D01*
X140465282Y-102358481D01*
X140545194Y-102404619D01*
X140545195Y-102404619D01*
X140545200Y-102404622D01*
X140634344Y-102428508D01*
X140634346Y-102428508D01*
X140726631Y-102428508D01*
X140726632Y-102428508D01*
X140726632Y-102428507D01*
X140734689Y-102427447D01*
X140734870Y-102428822D01*
X140738437Y-102428906D01*
X140749902Y-102424675D01*
X140772714Y-102429719D01*
X140796071Y-102430273D01*
X140807871Y-102437493D01*
X140818124Y-102439760D01*
X140846306Y-102461008D01*
X140890692Y-102505698D01*
X140923967Y-102567135D01*
X140922713Y-102616345D01*
X140923719Y-102616478D01*
X140922658Y-102624532D01*
X140922658Y-102624534D01*
X140922658Y-102716822D01*
X140939712Y-102780469D01*
X140946545Y-102805968D01*
X140946546Y-102805971D01*
X140992684Y-102885883D01*
X140992687Y-102885887D01*
X140992689Y-102885890D01*
X141057946Y-102951147D01*
X141057949Y-102951148D01*
X141057952Y-102951151D01*
X141137864Y-102997289D01*
X141137865Y-102997289D01*
X141137870Y-102997292D01*
X141227014Y-103021178D01*
X141227016Y-103021178D01*
X141319301Y-103021178D01*
X141319302Y-103021178D01*
X141319302Y-103021177D01*
X141327359Y-103020117D01*
X141327662Y-103022424D01*
X141327920Y-103022430D01*
X141339389Y-103018198D01*
X141362199Y-103023241D01*
X141385552Y-103023794D01*
X141397355Y-103031015D01*
X141407611Y-103033283D01*
X141435792Y-103054530D01*
X141461554Y-103080469D01*
X141482505Y-103101563D01*
X141515780Y-103163000D01*
X141514612Y-103208909D01*
X141516389Y-103209143D01*
X141515328Y-103217204D01*
X141515328Y-103309492D01*
X141534347Y-103380473D01*
X141539215Y-103398638D01*
X141539216Y-103398641D01*
X141585354Y-103478553D01*
X141585357Y-103478557D01*
X141585359Y-103478560D01*
X141650616Y-103543817D01*
X141650619Y-103543818D01*
X141650622Y-103543821D01*
X141730534Y-103589959D01*
X141730535Y-103589959D01*
X141730540Y-103589962D01*
X141819684Y-103613848D01*
X141819686Y-103613848D01*
X141911972Y-103613848D01*
X141920031Y-103612787D01*
X141920307Y-103614884D01*
X141928875Y-103611722D01*
X141951689Y-103616766D01*
X141975047Y-103617321D01*
X141986846Y-103624540D01*
X141997097Y-103626807D01*
X142025279Y-103648055D01*
X142074318Y-103697430D01*
X142107593Y-103758867D01*
X142106516Y-103801482D01*
X142109058Y-103801817D01*
X142107997Y-103809871D01*
X142107997Y-103809873D01*
X142107997Y-103902161D01*
X142110355Y-103910963D01*
X142131884Y-103991307D01*
X142131885Y-103991310D01*
X142178023Y-104071222D01*
X142178026Y-104071226D01*
X142178028Y-104071229D01*
X142243285Y-104136486D01*
X142243288Y-104136487D01*
X142243291Y-104136490D01*
X142323203Y-104182628D01*
X142323204Y-104182628D01*
X142323209Y-104182631D01*
X142412353Y-104206517D01*
X142412355Y-104206517D01*
X142504633Y-104206517D01*
X142504641Y-104206517D01*
X142504648Y-104206514D01*
X142510333Y-104205766D01*
X142514321Y-104206387D01*
X142518105Y-104204991D01*
X142548551Y-104211722D01*
X142579369Y-104216526D01*
X142583518Y-104219454D01*
X142586327Y-104220075D01*
X142614510Y-104241322D01*
X142666417Y-104293584D01*
X142699692Y-104355021D01*
X142701377Y-104397145D01*
X142700667Y-104402540D01*
X142700667Y-104494830D01*
X142724554Y-104583977D01*
X142724555Y-104583980D01*
X142770693Y-104663892D01*
X142770696Y-104663896D01*
X142770698Y-104663899D01*
X142835955Y-104729156D01*
X142835958Y-104729157D01*
X142835961Y-104729160D01*
X142915873Y-104775298D01*
X142915874Y-104775298D01*
X142915879Y-104775301D01*
X143005023Y-104799187D01*
X143005025Y-104799187D01*
X143097310Y-104799187D01*
X143097311Y-104799187D01*
X143097311Y-104799186D01*
X143099444Y-104798906D01*
X143101247Y-104799187D01*
X143104350Y-104799187D01*
X143107211Y-104798131D01*
X143137662Y-104804863D01*
X143168480Y-104809668D01*
X143172627Y-104812594D01*
X143175433Y-104813215D01*
X143203615Y-104834462D01*
X143258613Y-104889836D01*
X143291889Y-104951273D01*
X143293323Y-104987085D01*
X143293336Y-104987085D01*
X143293336Y-104987420D01*
X143293575Y-104993391D01*
X143293336Y-104995207D01*
X143293336Y-104995212D01*
X143293336Y-105087500D01*
X143316350Y-105173390D01*
X143317223Y-105176646D01*
X143317224Y-105176649D01*
X143363362Y-105256561D01*
X143363365Y-105256565D01*
X143363367Y-105256568D01*
X143428624Y-105321825D01*
X143428627Y-105321826D01*
X143428630Y-105321829D01*
X143508542Y-105367967D01*
X143508543Y-105367967D01*
X143508548Y-105367970D01*
X143597692Y-105391856D01*
X143597694Y-105391856D01*
X143694722Y-105391856D01*
X143696315Y-105391268D01*
X143726768Y-105398001D01*
X143757572Y-105402801D01*
X143761724Y-105405731D01*
X143764537Y-105406353D01*
X143792719Y-105427601D01*
X143850813Y-105486093D01*
X143884088Y-105547530D01*
X143885376Y-105579755D01*
X143886006Y-105579755D01*
X143886006Y-105680169D01*
X143909893Y-105769316D01*
X143909894Y-105769319D01*
X143956032Y-105849231D01*
X143956035Y-105849235D01*
X143956037Y-105849238D01*
X144021294Y-105914495D01*
X144021297Y-105914496D01*
X144021300Y-105914499D01*
X144101212Y-105960637D01*
X144101213Y-105960637D01*
X144101218Y-105960640D01*
X144190362Y-105984526D01*
X144190364Y-105984526D01*
X144285102Y-105984526D01*
X144285419Y-105984409D01*
X144285948Y-105984526D01*
X144290778Y-105984526D01*
X144290778Y-105985593D01*
X144315868Y-105991141D01*
X144346681Y-105995943D01*
X144350831Y-105998871D01*
X144353641Y-105999493D01*
X144381823Y-106020740D01*
X144411689Y-106050810D01*
X144443010Y-106082346D01*
X144476286Y-106143782D01*
X144477432Y-106172425D01*
X144478676Y-106172425D01*
X144478676Y-106180552D01*
X144478676Y-106272840D01*
X144498399Y-106346448D01*
X144502563Y-106361986D01*
X144502564Y-106361989D01*
X144548702Y-106441901D01*
X144548705Y-106441905D01*
X144548707Y-106441908D01*
X144613964Y-106507165D01*
X144613967Y-106507166D01*
X144613970Y-106507169D01*
X144693882Y-106553307D01*
X144693883Y-106553307D01*
X144693888Y-106553310D01*
X144783032Y-106577196D01*
X144783034Y-106577196D01*
X144882883Y-106577196D01*
X144912518Y-106585898D01*
X144942681Y-106592567D01*
X144947434Y-106596150D01*
X144949922Y-106596881D01*
X144970863Y-106613814D01*
X145035325Y-106678717D01*
X145068600Y-106740154D01*
X145071345Y-106766099D01*
X145071345Y-106865508D01*
X145095232Y-106954655D01*
X145095233Y-106954658D01*
X145141371Y-107034570D01*
X145141374Y-107034574D01*
X145141376Y-107034577D01*
X145206633Y-107099834D01*
X145206636Y-107099835D01*
X145206639Y-107099838D01*
X145286551Y-107145976D01*
X145286552Y-107145976D01*
X145286557Y-107145979D01*
X145375701Y-107169865D01*
X145375703Y-107169865D01*
X145471520Y-107169865D01*
X145501149Y-107178565D01*
X145531318Y-107185236D01*
X145536071Y-107188819D01*
X145538559Y-107189550D01*
X145559500Y-107206483D01*
X145627995Y-107275447D01*
X145661270Y-107336884D01*
X145664015Y-107362829D01*
X145664015Y-107458178D01*
X145687902Y-107547325D01*
X145687903Y-107547328D01*
X145734041Y-107627240D01*
X145734044Y-107627244D01*
X145734046Y-107627247D01*
X145799303Y-107692504D01*
X145799306Y-107692505D01*
X145799309Y-107692508D01*
X145879221Y-107738646D01*
X145879222Y-107738646D01*
X145879227Y-107738649D01*
X145968371Y-107762535D01*
X145968373Y-107762535D01*
X146060657Y-107762535D01*
X146060659Y-107762535D01*
X146149803Y-107738649D01*
X146149810Y-107738644D01*
X146157317Y-107735537D01*
X146157850Y-107736824D01*
X146217322Y-107722394D01*
X146283350Y-107745244D01*
X146326542Y-107800164D01*
X146335426Y-107846254D01*
X146335426Y-107854103D01*
X146335426Y-107946391D01*
X146337426Y-107953856D01*
X146359313Y-108035537D01*
X146359314Y-108035540D01*
X146405452Y-108115452D01*
X146405455Y-108115456D01*
X146405457Y-108115459D01*
X146470714Y-108180716D01*
X146470717Y-108180717D01*
X146470720Y-108180720D01*
X146550632Y-108226858D01*
X146550633Y-108226858D01*
X146550638Y-108226861D01*
X146639782Y-108250747D01*
X146639784Y-108250747D01*
X146732068Y-108250747D01*
X146732070Y-108250747D01*
X146821214Y-108226861D01*
X146901138Y-108180716D01*
X146966395Y-108115459D01*
X146966399Y-108115451D01*
X146971343Y-108109010D01*
X146973746Y-108110854D01*
X147013872Y-108072595D01*
X147082480Y-108059373D01*
X147147344Y-108085341D01*
X147180257Y-108128769D01*
X147181159Y-108128249D01*
X147231364Y-108215205D01*
X147231367Y-108215209D01*
X147231369Y-108215212D01*
X147296626Y-108280469D01*
X147296629Y-108280470D01*
X147296632Y-108280473D01*
X147376544Y-108326611D01*
X147376545Y-108326611D01*
X147376550Y-108326614D01*
X147465694Y-108350500D01*
X147465696Y-108350500D01*
X147557980Y-108350500D01*
X147557982Y-108350500D01*
X147647126Y-108326614D01*
X147727050Y-108280469D01*
X147792307Y-108215212D01*
X147823532Y-108161128D01*
X147874100Y-108112914D01*
X147942707Y-108099692D01*
X148007572Y-108125660D01*
X148038304Y-108161127D01*
X148069531Y-108215212D01*
X148134788Y-108280469D01*
X148134791Y-108280470D01*
X148134794Y-108280473D01*
X148214706Y-108326611D01*
X148214707Y-108326611D01*
X148214712Y-108326614D01*
X148303856Y-108350500D01*
X148303858Y-108350500D01*
X148396142Y-108350500D01*
X148396144Y-108350500D01*
X148485288Y-108326614D01*
X148565212Y-108280469D01*
X148630469Y-108215212D01*
X148676614Y-108135288D01*
X148700500Y-108046144D01*
X148700500Y-107953856D01*
X148676614Y-107864712D01*
X148676613Y-107864711D01*
X148676613Y-107864709D01*
X148660038Y-107836002D01*
X148643564Y-107768102D01*
X148666415Y-107702074D01*
X148721336Y-107658883D01*
X148767424Y-107650000D01*
X149300000Y-107650000D01*
X149228038Y-105886911D01*
X183274500Y-105886911D01*
X183274500Y-106113088D01*
X183274501Y-106113104D01*
X183295530Y-106272839D01*
X183304024Y-106337351D01*
X183310625Y-106361986D01*
X183362567Y-106555834D01*
X183449120Y-106764794D01*
X183449127Y-106764809D01*
X183562220Y-106960692D01*
X183699915Y-107140140D01*
X183699921Y-107140147D01*
X183859852Y-107300078D01*
X183859859Y-107300084D01*
X184039307Y-107437779D01*
X184235190Y-107550872D01*
X184235205Y-107550879D01*
X184268954Y-107564858D01*
X184444166Y-107637433D01*
X184662649Y-107695976D01*
X184886905Y-107725500D01*
X184886912Y-107725500D01*
X185113088Y-107725500D01*
X185113095Y-107725500D01*
X185337351Y-107695976D01*
X185555834Y-107637433D01*
X185764806Y-107550874D01*
X185960693Y-107437779D01*
X186140142Y-107300083D01*
X186300083Y-107140142D01*
X186437779Y-106960693D01*
X186550874Y-106764806D01*
X186637433Y-106555834D01*
X186695976Y-106337351D01*
X186725500Y-106113095D01*
X186725500Y-105886911D01*
X190774500Y-105886911D01*
X190774500Y-106113088D01*
X190774501Y-106113104D01*
X190795530Y-106272839D01*
X190804024Y-106337351D01*
X190810625Y-106361986D01*
X190862567Y-106555834D01*
X190949120Y-106764794D01*
X190949127Y-106764809D01*
X191062220Y-106960692D01*
X191199915Y-107140140D01*
X191199921Y-107140147D01*
X191359852Y-107300078D01*
X191359859Y-107300084D01*
X191539307Y-107437779D01*
X191735190Y-107550872D01*
X191735205Y-107550879D01*
X191768954Y-107564858D01*
X191944166Y-107637433D01*
X192162649Y-107695976D01*
X192386905Y-107725500D01*
X192386912Y-107725500D01*
X192613088Y-107725500D01*
X192613095Y-107725500D01*
X192837351Y-107695976D01*
X193055834Y-107637433D01*
X193264806Y-107550874D01*
X193460693Y-107437779D01*
X193640142Y-107300083D01*
X193800083Y-107140142D01*
X193937779Y-106960693D01*
X194050874Y-106764806D01*
X194137433Y-106555834D01*
X194195976Y-106337351D01*
X194225500Y-106113095D01*
X194225500Y-105886905D01*
X194195976Y-105662649D01*
X194137433Y-105444166D01*
X194071420Y-105284796D01*
X194050879Y-105235205D01*
X194050872Y-105235190D01*
X193937779Y-105039307D01*
X193800084Y-104859859D01*
X193800078Y-104859852D01*
X193640147Y-104699921D01*
X193640140Y-104699915D01*
X193460692Y-104562220D01*
X193264809Y-104449127D01*
X193264794Y-104449120D01*
X193055834Y-104362567D01*
X192837347Y-104304023D01*
X192613104Y-104274501D01*
X192613101Y-104274500D01*
X192613095Y-104274500D01*
X192386905Y-104274500D01*
X192386899Y-104274500D01*
X192386895Y-104274501D01*
X192162652Y-104304023D01*
X191944165Y-104362567D01*
X191735205Y-104449120D01*
X191735190Y-104449127D01*
X191539307Y-104562220D01*
X191359859Y-104699915D01*
X191359852Y-104699921D01*
X191199921Y-104859852D01*
X191199915Y-104859859D01*
X191062220Y-105039307D01*
X190949127Y-105235190D01*
X190949120Y-105235205D01*
X190862567Y-105444165D01*
X190804023Y-105662652D01*
X190774501Y-105886895D01*
X190774500Y-105886911D01*
X186725500Y-105886911D01*
X186725500Y-105886905D01*
X186695976Y-105662649D01*
X186637433Y-105444166D01*
X186571420Y-105284796D01*
X186550879Y-105235205D01*
X186550872Y-105235190D01*
X186437779Y-105039307D01*
X186300084Y-104859859D01*
X186300078Y-104859852D01*
X186140147Y-104699921D01*
X186140140Y-104699915D01*
X185960692Y-104562220D01*
X185764809Y-104449127D01*
X185764794Y-104449120D01*
X185555834Y-104362567D01*
X185337347Y-104304023D01*
X185113104Y-104274501D01*
X185113101Y-104274500D01*
X185113095Y-104274500D01*
X184886905Y-104274500D01*
X184886899Y-104274500D01*
X184886895Y-104274501D01*
X184662652Y-104304023D01*
X184444165Y-104362567D01*
X184235205Y-104449120D01*
X184235190Y-104449127D01*
X184039307Y-104562220D01*
X183859859Y-104699915D01*
X183859852Y-104699921D01*
X183699921Y-104859852D01*
X183699915Y-104859859D01*
X183562220Y-105039307D01*
X183449127Y-105235190D01*
X183449120Y-105235205D01*
X183362567Y-105444165D01*
X183304023Y-105662652D01*
X183274501Y-105886895D01*
X183274500Y-105886911D01*
X149228038Y-105886911D01*
X149210362Y-105453858D01*
X162799500Y-105453858D01*
X162799500Y-105546146D01*
X162808505Y-105579755D01*
X162823387Y-105635292D01*
X162823388Y-105635295D01*
X162869526Y-105715207D01*
X162869529Y-105715211D01*
X162869531Y-105715214D01*
X162934788Y-105780471D01*
X162934791Y-105780472D01*
X162934794Y-105780475D01*
X163014706Y-105826613D01*
X163014707Y-105826613D01*
X163014712Y-105826616D01*
X163103856Y-105850502D01*
X163103858Y-105850502D01*
X163196142Y-105850502D01*
X163196144Y-105850502D01*
X163285288Y-105826616D01*
X163365212Y-105780471D01*
X163430469Y-105715214D01*
X163476614Y-105635290D01*
X163500500Y-105546146D01*
X163500500Y-105453858D01*
X163476614Y-105364714D01*
X163451850Y-105321822D01*
X163430473Y-105284796D01*
X163430470Y-105284793D01*
X163430469Y-105284790D01*
X163365212Y-105219533D01*
X163365209Y-105219531D01*
X163365205Y-105219528D01*
X163285293Y-105173390D01*
X163285290Y-105173389D01*
X163285289Y-105173388D01*
X163285288Y-105173388D01*
X163196144Y-105149502D01*
X163103856Y-105149502D01*
X163014712Y-105173388D01*
X163014711Y-105173388D01*
X163014709Y-105173389D01*
X163014706Y-105173390D01*
X162934794Y-105219528D01*
X162934785Y-105219535D01*
X162869533Y-105284787D01*
X162869526Y-105284796D01*
X162823388Y-105364708D01*
X162823387Y-105364711D01*
X162823386Y-105364713D01*
X162823386Y-105364714D01*
X162799500Y-105453858D01*
X149210362Y-105453858D01*
X149200000Y-105200000D01*
X147751362Y-105200000D01*
X147684323Y-105180315D01*
X147663681Y-105163681D01*
X146861994Y-104361994D01*
X146828509Y-104300671D01*
X146833493Y-104230979D01*
X146875365Y-104175046D01*
X146887676Y-104166926D01*
X146925152Y-104145289D01*
X146990409Y-104080032D01*
X147036554Y-104000108D01*
X147060440Y-103910964D01*
X147060440Y-103818676D01*
X147036554Y-103729532D01*
X147018020Y-103697430D01*
X146990413Y-103649614D01*
X146990410Y-103649611D01*
X146990409Y-103649608D01*
X146925152Y-103584351D01*
X146925149Y-103584349D01*
X146925145Y-103584346D01*
X146871057Y-103553117D01*
X146871054Y-103553117D01*
X146845228Y-103538206D01*
X146756084Y-103514320D01*
X146663796Y-103514320D01*
X146663791Y-103514320D01*
X146637732Y-103521303D01*
X146567882Y-103519639D01*
X146510021Y-103480476D01*
X146498623Y-103453857D01*
X147999500Y-103453857D01*
X147999500Y-103546145D01*
X148021113Y-103626807D01*
X148023387Y-103635291D01*
X148023388Y-103635294D01*
X148069526Y-103715206D01*
X148069529Y-103715210D01*
X148069531Y-103715213D01*
X148134788Y-103780470D01*
X148134791Y-103780471D01*
X148134794Y-103780474D01*
X148214706Y-103826612D01*
X148214707Y-103826612D01*
X148214712Y-103826615D01*
X148303856Y-103850501D01*
X148303858Y-103850501D01*
X148396142Y-103850501D01*
X148396144Y-103850501D01*
X148485288Y-103826615D01*
X148565212Y-103780470D01*
X148630469Y-103715213D01*
X148676614Y-103635289D01*
X148700500Y-103546145D01*
X148700500Y-103453857D01*
X148676614Y-103364713D01*
X148676611Y-103364707D01*
X148630473Y-103284795D01*
X148630470Y-103284792D01*
X148630469Y-103284789D01*
X148565212Y-103219532D01*
X148565209Y-103219530D01*
X148565205Y-103219527D01*
X148485293Y-103173389D01*
X148485290Y-103173388D01*
X148485289Y-103173387D01*
X148485288Y-103173387D01*
X148396144Y-103149501D01*
X148303856Y-103149501D01*
X148214712Y-103173387D01*
X148214711Y-103173387D01*
X148214709Y-103173388D01*
X148214706Y-103173389D01*
X148134794Y-103219527D01*
X148134785Y-103219534D01*
X148069533Y-103284786D01*
X148069526Y-103284795D01*
X148023388Y-103364707D01*
X148023387Y-103364710D01*
X148023386Y-103364712D01*
X148023386Y-103364713D01*
X147999500Y-103453857D01*
X146498623Y-103453857D01*
X146482518Y-103416247D01*
X146485866Y-103369435D01*
X146492850Y-103343374D01*
X146492850Y-103251086D01*
X146468964Y-103161942D01*
X146462358Y-103150500D01*
X146422823Y-103082024D01*
X146422820Y-103082021D01*
X146422819Y-103082018D01*
X146357562Y-103016761D01*
X146357559Y-103016759D01*
X146357555Y-103016756D01*
X146277643Y-102970618D01*
X146277640Y-102970617D01*
X146277639Y-102970616D01*
X146277638Y-102970616D01*
X146188494Y-102946730D01*
X146096206Y-102946730D01*
X146096201Y-102946730D01*
X146070142Y-102953713D01*
X146037615Y-102952938D01*
X146005072Y-102953472D01*
X146002875Y-102952110D01*
X146000292Y-102952049D01*
X145973342Y-102933808D01*
X145945683Y-102916667D01*
X145944571Y-102914334D01*
X145942431Y-102912886D01*
X145929622Y-102882974D01*
X145915619Y-102853596D01*
X145915771Y-102850626D01*
X145914928Y-102848657D01*
X145915040Y-102818307D01*
X145916098Y-102809973D01*
X145925260Y-102775784D01*
X145925260Y-102753856D01*
X150249500Y-102753856D01*
X150249500Y-102846144D01*
X150272989Y-102933808D01*
X150273387Y-102935290D01*
X150273388Y-102935293D01*
X150319526Y-103015205D01*
X150319529Y-103015209D01*
X150319531Y-103015212D01*
X150384788Y-103080469D01*
X150384791Y-103080470D01*
X150384794Y-103080473D01*
X150464706Y-103126611D01*
X150464707Y-103126611D01*
X150464712Y-103126614D01*
X150553856Y-103150500D01*
X150553858Y-103150500D01*
X150646142Y-103150500D01*
X150646144Y-103150500D01*
X150735288Y-103126614D01*
X150815212Y-103080469D01*
X150880469Y-103015212D01*
X150926614Y-102935288D01*
X150950500Y-102846144D01*
X150950500Y-102753856D01*
X150926614Y-102664712D01*
X150919397Y-102652212D01*
X150880473Y-102584794D01*
X150880470Y-102584791D01*
X150880469Y-102584788D01*
X150815212Y-102519531D01*
X150815209Y-102519529D01*
X150815205Y-102519526D01*
X150735293Y-102473388D01*
X150735290Y-102473387D01*
X150735289Y-102473386D01*
X150735288Y-102473386D01*
X150646144Y-102449500D01*
X150553856Y-102449500D01*
X150464712Y-102473386D01*
X150464711Y-102473386D01*
X150464709Y-102473387D01*
X150464706Y-102473388D01*
X150384794Y-102519526D01*
X150384785Y-102519533D01*
X150319533Y-102584785D01*
X150319526Y-102584794D01*
X150273388Y-102664706D01*
X150273387Y-102664709D01*
X150273386Y-102664711D01*
X150273386Y-102664712D01*
X150249500Y-102753856D01*
X145925260Y-102753856D01*
X145925260Y-102683496D01*
X145901374Y-102594352D01*
X145895856Y-102584794D01*
X145855233Y-102514434D01*
X145855230Y-102514431D01*
X145855229Y-102514428D01*
X145789972Y-102449171D01*
X145789969Y-102449169D01*
X145789965Y-102449166D01*
X145710053Y-102403028D01*
X145710050Y-102403027D01*
X145710049Y-102403026D01*
X145710048Y-102403026D01*
X145620904Y-102379140D01*
X145528616Y-102379140D01*
X145528614Y-102379140D01*
X145502554Y-102386123D01*
X145432704Y-102384460D01*
X145374842Y-102345296D01*
X145347339Y-102281068D01*
X145350687Y-102234257D01*
X145357671Y-102208195D01*
X145357671Y-102115907D01*
X145333785Y-102026763D01*
X145333782Y-102026757D01*
X145287644Y-101946845D01*
X145287641Y-101946842D01*
X145287640Y-101946839D01*
X145222383Y-101881582D01*
X145222380Y-101881580D01*
X145222376Y-101881577D01*
X145142464Y-101835439D01*
X145142461Y-101835438D01*
X145142460Y-101835437D01*
X145142459Y-101835437D01*
X145053315Y-101811551D01*
X144961027Y-101811551D01*
X144961022Y-101811551D01*
X144934963Y-101818534D01*
X144865113Y-101816870D01*
X144807252Y-101777707D01*
X144779749Y-101713478D01*
X144783097Y-101666666D01*
X144790081Y-101640605D01*
X144790081Y-101548317D01*
X144766195Y-101459173D01*
X144758672Y-101446143D01*
X144720054Y-101379255D01*
X144720051Y-101379252D01*
X144720050Y-101379249D01*
X144654793Y-101313992D01*
X144654790Y-101313990D01*
X144654786Y-101313987D01*
X144574874Y-101267849D01*
X144574871Y-101267848D01*
X144574870Y-101267847D01*
X144574869Y-101267847D01*
X144485725Y-101243961D01*
X144393437Y-101243961D01*
X144393432Y-101243961D01*
X144367373Y-101250944D01*
X144297523Y-101249280D01*
X144239662Y-101210117D01*
X144212159Y-101145888D01*
X144215507Y-101099076D01*
X144222491Y-101073015D01*
X144222491Y-100980727D01*
X144198605Y-100891583D01*
X144179587Y-100858644D01*
X144157410Y-100820232D01*
X144157409Y-100820231D01*
X144152460Y-100811659D01*
X144107157Y-100766356D01*
X159049500Y-100766356D01*
X159049500Y-100858644D01*
X159070981Y-100938813D01*
X159073387Y-100947790D01*
X159073388Y-100947793D01*
X159119526Y-101027705D01*
X159119529Y-101027709D01*
X159119531Y-101027712D01*
X159184788Y-101092969D01*
X159184791Y-101092970D01*
X159184794Y-101092973D01*
X159264706Y-101139111D01*
X159264707Y-101139111D01*
X159264712Y-101139114D01*
X159353856Y-101163000D01*
X159353858Y-101163000D01*
X159446142Y-101163000D01*
X159446144Y-101163000D01*
X159535288Y-101139114D01*
X159600433Y-101101501D01*
X159668328Y-101085029D01*
X159734356Y-101107880D01*
X159777548Y-101162800D01*
X159784909Y-101228260D01*
X159781316Y-101250977D01*
X159773386Y-101264712D01*
X159749500Y-101353856D01*
X159749500Y-101446144D01*
X159750096Y-101448368D01*
X159747978Y-101461760D01*
X159737021Y-101484884D01*
X159729815Y-101509428D01*
X159722313Y-101515927D01*
X159718062Y-101524902D01*
X159696341Y-101538432D01*
X159677011Y-101555183D01*
X159667185Y-101556595D01*
X159658758Y-101561846D01*
X159633174Y-101561486D01*
X159607853Y-101565127D01*
X159593407Y-101562164D01*
X159567469Y-101555214D01*
X159546144Y-101549500D01*
X159453856Y-101549500D01*
X159364712Y-101573386D01*
X159364711Y-101573386D01*
X159364709Y-101573387D01*
X159364706Y-101573388D01*
X159284794Y-101619526D01*
X159284785Y-101619533D01*
X159219533Y-101684785D01*
X159219526Y-101684794D01*
X159173388Y-101764706D01*
X159173387Y-101764709D01*
X159173386Y-101764711D01*
X159173386Y-101764712D01*
X159149500Y-101853856D01*
X159149500Y-101946144D01*
X159172467Y-102031860D01*
X159173387Y-102035290D01*
X159173388Y-102035293D01*
X159219526Y-102115205D01*
X159219529Y-102115209D01*
X159219531Y-102115212D01*
X159284788Y-102180469D01*
X159284791Y-102180470D01*
X159284794Y-102180473D01*
X159364706Y-102226611D01*
X159364707Y-102226611D01*
X159364712Y-102226614D01*
X159453856Y-102250500D01*
X159453858Y-102250500D01*
X159546140Y-102250500D01*
X159546144Y-102250500D01*
X159616481Y-102231653D01*
X159686326Y-102233316D01*
X159744189Y-102272478D01*
X159771694Y-102336706D01*
X159768346Y-102383521D01*
X159763119Y-102403028D01*
X159749500Y-102453856D01*
X159749500Y-102546144D01*
X159770504Y-102624534D01*
X159773387Y-102635290D01*
X159773388Y-102635293D01*
X159819526Y-102715205D01*
X159819533Y-102715214D01*
X159877716Y-102773397D01*
X159911201Y-102834720D01*
X159906217Y-102904412D01*
X159897423Y-102923077D01*
X159873386Y-102964709D01*
X159849500Y-103053856D01*
X159849500Y-103146144D01*
X159869164Y-103219532D01*
X159873387Y-103235290D01*
X159873388Y-103235293D01*
X159919526Y-103315205D01*
X159919529Y-103315209D01*
X159919531Y-103315212D01*
X159984788Y-103380469D01*
X159984791Y-103380470D01*
X159984794Y-103380473D01*
X160064706Y-103426611D01*
X160064707Y-103426611D01*
X160064712Y-103426614D01*
X160153856Y-103450500D01*
X160153858Y-103450500D01*
X160246142Y-103450500D01*
X160246144Y-103450500D01*
X160335288Y-103426614D01*
X160415212Y-103380469D01*
X160480469Y-103315212D01*
X160526614Y-103235288D01*
X160550500Y-103146144D01*
X160550500Y-103053856D01*
X160526614Y-102964712D01*
X160520264Y-102953713D01*
X160480473Y-102884794D01*
X160480470Y-102884791D01*
X160480469Y-102884788D01*
X160422283Y-102826602D01*
X160408940Y-102802166D01*
X160392785Y-102779482D01*
X160392424Y-102771920D01*
X160388798Y-102765279D01*
X160390509Y-102741356D01*
X164849500Y-102741356D01*
X164849500Y-102833644D01*
X164868462Y-102904412D01*
X164873387Y-102922790D01*
X164873388Y-102922793D01*
X164919526Y-103002705D01*
X164919529Y-103002709D01*
X164919531Y-103002712D01*
X164984788Y-103067969D01*
X164984791Y-103067970D01*
X164984794Y-103067973D01*
X165064706Y-103114111D01*
X165064707Y-103114111D01*
X165064712Y-103114114D01*
X165153856Y-103138000D01*
X165153858Y-103138000D01*
X165246142Y-103138000D01*
X165246144Y-103138000D01*
X165335288Y-103114114D01*
X165415212Y-103067969D01*
X165480469Y-103002712D01*
X165526614Y-102922788D01*
X165550500Y-102833644D01*
X165550500Y-102741356D01*
X165526614Y-102652212D01*
X165526611Y-102652206D01*
X165480473Y-102572294D01*
X165480470Y-102572291D01*
X165480469Y-102572288D01*
X165415212Y-102507031D01*
X165415209Y-102507029D01*
X165415205Y-102507026D01*
X165335293Y-102460888D01*
X165335290Y-102460887D01*
X165335289Y-102460886D01*
X165335288Y-102460886D01*
X165246144Y-102437000D01*
X165153856Y-102437000D01*
X165064712Y-102460886D01*
X165064711Y-102460886D01*
X165064709Y-102460887D01*
X165064706Y-102460888D01*
X164984794Y-102507026D01*
X164984785Y-102507033D01*
X164919533Y-102572285D01*
X164919526Y-102572294D01*
X164873388Y-102652206D01*
X164873387Y-102652209D01*
X164873386Y-102652211D01*
X164873386Y-102652212D01*
X164849500Y-102741356D01*
X160390509Y-102741356D01*
X160390784Y-102737507D01*
X160389458Y-102709691D01*
X160393494Y-102699608D01*
X160393782Y-102695587D01*
X160402575Y-102676925D01*
X160405861Y-102671233D01*
X160405864Y-102671227D01*
X160426613Y-102635290D01*
X160426614Y-102635288D01*
X160450500Y-102546144D01*
X160450500Y-102453856D01*
X160426614Y-102364712D01*
X160426611Y-102364706D01*
X160390108Y-102301482D01*
X160390107Y-102301481D01*
X160385333Y-102293213D01*
X160380469Y-102284788D01*
X160343287Y-102247606D01*
X166443250Y-102247606D01*
X166443250Y-102339894D01*
X166467078Y-102428822D01*
X166467137Y-102429040D01*
X166467138Y-102429043D01*
X166513276Y-102508955D01*
X166513279Y-102508959D01*
X166513281Y-102508962D01*
X166578538Y-102574219D01*
X166578541Y-102574220D01*
X166578544Y-102574223D01*
X166658456Y-102620361D01*
X166658457Y-102620361D01*
X166658462Y-102620364D01*
X166747606Y-102644250D01*
X166747608Y-102644250D01*
X166839892Y-102644250D01*
X166839894Y-102644250D01*
X166929038Y-102620364D01*
X167008962Y-102574219D01*
X167074219Y-102508962D01*
X167120364Y-102429038D01*
X167144250Y-102339894D01*
X167144250Y-102247606D01*
X167120364Y-102158462D01*
X167115190Y-102149500D01*
X167074223Y-102078544D01*
X167074220Y-102078541D01*
X167074219Y-102078538D01*
X167008962Y-102013281D01*
X167008959Y-102013279D01*
X167008955Y-102013276D01*
X166929043Y-101967138D01*
X166929040Y-101967137D01*
X166929039Y-101967136D01*
X166929038Y-101967136D01*
X166839894Y-101943250D01*
X166747606Y-101943250D01*
X166658462Y-101967136D01*
X166658461Y-101967136D01*
X166658459Y-101967137D01*
X166658456Y-101967138D01*
X166578544Y-102013276D01*
X166578535Y-102013283D01*
X166513283Y-102078535D01*
X166513276Y-102078544D01*
X166467138Y-102158456D01*
X166467137Y-102158459D01*
X166467136Y-102158461D01*
X166467136Y-102158462D01*
X166443250Y-102247606D01*
X160343287Y-102247606D01*
X160315212Y-102219531D01*
X160315209Y-102219529D01*
X160315205Y-102219526D01*
X160235293Y-102173388D01*
X160235290Y-102173387D01*
X160235289Y-102173386D01*
X160235288Y-102173386D01*
X160146144Y-102149500D01*
X160053856Y-102149500D01*
X159983521Y-102168346D01*
X159913671Y-102166683D01*
X159855809Y-102127520D01*
X159828305Y-102063291D01*
X159828323Y-102033697D01*
X159829376Y-102024978D01*
X159850500Y-101946144D01*
X159850500Y-101853856D01*
X159850190Y-101852702D01*
X159851395Y-101842736D01*
X159862361Y-101817214D01*
X159870185Y-101790571D01*
X159875960Y-101785566D01*
X159878979Y-101778542D01*
X159902003Y-101762999D01*
X159922989Y-101744816D01*
X159930553Y-101743728D01*
X159936890Y-101739451D01*
X159964658Y-101738824D01*
X159992147Y-101734872D01*
X160006571Y-101737830D01*
X160053856Y-101750500D01*
X160053860Y-101750500D01*
X160146142Y-101750500D01*
X160146144Y-101750500D01*
X160235288Y-101726614D01*
X160315212Y-101680469D01*
X160380469Y-101615212D01*
X160426614Y-101535288D01*
X160450500Y-101446144D01*
X160450500Y-101353856D01*
X160426614Y-101264712D01*
X160426611Y-101264706D01*
X160380473Y-101184794D01*
X160380470Y-101184791D01*
X160380469Y-101184788D01*
X160315212Y-101119531D01*
X160315209Y-101119529D01*
X160315205Y-101119526D01*
X160235293Y-101073388D01*
X160235290Y-101073387D01*
X160235289Y-101073386D01*
X160235288Y-101073386D01*
X160146144Y-101049500D01*
X160053856Y-101049500D01*
X159964711Y-101073386D01*
X159899569Y-101110997D01*
X159831669Y-101127470D01*
X159765642Y-101104618D01*
X159722451Y-101049697D01*
X159715809Y-100980144D01*
X159717354Y-100973201D01*
X159721574Y-100956516D01*
X159726614Y-100947788D01*
X159750500Y-100858644D01*
X159750500Y-100842167D01*
X159754286Y-100827201D01*
X159764517Y-100809872D01*
X159770185Y-100790571D01*
X159781915Y-100780406D01*
X159789810Y-100767036D01*
X159807784Y-100757990D01*
X159822989Y-100744816D01*
X159838355Y-100742606D01*
X159852223Y-100735628D01*
X159872230Y-100737735D01*
X159892147Y-100734872D01*
X159906571Y-100737830D01*
X159953856Y-100750500D01*
X159953860Y-100750500D01*
X160046142Y-100750500D01*
X160046144Y-100750500D01*
X160135288Y-100726614D01*
X160215212Y-100680469D01*
X160280469Y-100615212D01*
X160326614Y-100535288D01*
X160350500Y-100446144D01*
X160350500Y-100353856D01*
X160326614Y-100264712D01*
X160326611Y-100264706D01*
X160280473Y-100184794D01*
X160280470Y-100184791D01*
X160280469Y-100184788D01*
X160215212Y-100119531D01*
X160215209Y-100119529D01*
X160215205Y-100119526D01*
X160135293Y-100073388D01*
X160135290Y-100073387D01*
X160135289Y-100073386D01*
X160135288Y-100073386D01*
X160046144Y-100049500D01*
X159953856Y-100049500D01*
X159864712Y-100073386D01*
X159864711Y-100073386D01*
X159864709Y-100073387D01*
X159864706Y-100073388D01*
X159784794Y-100119526D01*
X159784785Y-100119533D01*
X159719533Y-100184785D01*
X159719526Y-100184794D01*
X159673388Y-100264706D01*
X159673387Y-100264709D01*
X159673386Y-100264711D01*
X159673386Y-100264712D01*
X159666839Y-100289147D01*
X159649500Y-100353856D01*
X159649500Y-100354889D01*
X159649253Y-100355727D01*
X159648439Y-100361916D01*
X159647473Y-100361788D01*
X159629815Y-100421928D01*
X159577011Y-100467683D01*
X159507853Y-100477627D01*
X159493407Y-100474664D01*
X159467353Y-100467683D01*
X159446144Y-100462000D01*
X159353856Y-100462000D01*
X159264712Y-100485886D01*
X159264711Y-100485886D01*
X159264709Y-100485887D01*
X159264706Y-100485888D01*
X159184794Y-100532026D01*
X159184785Y-100532033D01*
X159119533Y-100597285D01*
X159119526Y-100597294D01*
X159073388Y-100677206D01*
X159073387Y-100677209D01*
X159073386Y-100677211D01*
X159073386Y-100677212D01*
X159049500Y-100766356D01*
X144107157Y-100766356D01*
X144087203Y-100746402D01*
X144087200Y-100746400D01*
X144087196Y-100746397D01*
X144007284Y-100700259D01*
X144007281Y-100700258D01*
X144007280Y-100700257D01*
X144007279Y-100700257D01*
X143918135Y-100676371D01*
X143825847Y-100676371D01*
X143825842Y-100676371D01*
X143799783Y-100683354D01*
X143729933Y-100681690D01*
X143672072Y-100642527D01*
X143644569Y-100578298D01*
X143647917Y-100531486D01*
X143654901Y-100505425D01*
X143654901Y-100413137D01*
X143631015Y-100323993D01*
X143631012Y-100323987D01*
X143584874Y-100244075D01*
X143584871Y-100244072D01*
X143584870Y-100244069D01*
X143519613Y-100178812D01*
X143519610Y-100178810D01*
X143519606Y-100178807D01*
X143439694Y-100132669D01*
X143439691Y-100132668D01*
X143439690Y-100132667D01*
X143439689Y-100132667D01*
X143350545Y-100108781D01*
X143258257Y-100108781D01*
X143258255Y-100108781D01*
X143232195Y-100115764D01*
X143162345Y-100114101D01*
X143104483Y-100074937D01*
X143076980Y-100010709D01*
X143080328Y-99963898D01*
X143087312Y-99937836D01*
X143087312Y-99845548D01*
X143063426Y-99756404D01*
X143059483Y-99749574D01*
X174255877Y-99749574D01*
X174255877Y-99841862D01*
X174267787Y-99886312D01*
X174279764Y-99931008D01*
X174279765Y-99931011D01*
X174325903Y-100010923D01*
X174325906Y-100010927D01*
X174325908Y-100010930D01*
X174391165Y-100076187D01*
X174391168Y-100076188D01*
X174391171Y-100076191D01*
X174471083Y-100122329D01*
X174471084Y-100122329D01*
X174471089Y-100122332D01*
X174560233Y-100146218D01*
X174560235Y-100146218D01*
X174652519Y-100146218D01*
X174652521Y-100146218D01*
X174741665Y-100122332D01*
X174821589Y-100076187D01*
X174886846Y-100010930D01*
X174932991Y-99931006D01*
X174956877Y-99841862D01*
X174956877Y-99749574D01*
X174932991Y-99660430D01*
X174904578Y-99611218D01*
X174886850Y-99580512D01*
X174886847Y-99580509D01*
X174886846Y-99580506D01*
X174821589Y-99515249D01*
X174821586Y-99515247D01*
X174821582Y-99515244D01*
X174741670Y-99469106D01*
X174741667Y-99469105D01*
X174741666Y-99469104D01*
X174741665Y-99469104D01*
X174652521Y-99445218D01*
X174560233Y-99445218D01*
X174471089Y-99469104D01*
X174471088Y-99469104D01*
X174471086Y-99469105D01*
X174471083Y-99469106D01*
X174391171Y-99515244D01*
X174391162Y-99515251D01*
X174325910Y-99580503D01*
X174325903Y-99580512D01*
X174279765Y-99660424D01*
X174279764Y-99660427D01*
X174279763Y-99660429D01*
X174279763Y-99660430D01*
X174255877Y-99749574D01*
X143059483Y-99749574D01*
X143017285Y-99676486D01*
X143017282Y-99676483D01*
X143017281Y-99676480D01*
X142952024Y-99611223D01*
X142952021Y-99611221D01*
X142952017Y-99611218D01*
X142872105Y-99565080D01*
X142872102Y-99565079D01*
X142872101Y-99565078D01*
X142872100Y-99565078D01*
X142782956Y-99541192D01*
X142690668Y-99541192D01*
X142690663Y-99541192D01*
X142664604Y-99548175D01*
X142594754Y-99546511D01*
X142536893Y-99507348D01*
X142509390Y-99443119D01*
X142512738Y-99396307D01*
X142519722Y-99370246D01*
X142519722Y-99277958D01*
X142495836Y-99188814D01*
X142495833Y-99188808D01*
X142449695Y-99108896D01*
X142449692Y-99108893D01*
X142449691Y-99108890D01*
X142384434Y-99043633D01*
X142384431Y-99043631D01*
X142384427Y-99043628D01*
X142304515Y-98997490D01*
X142304512Y-98997489D01*
X142304511Y-98997488D01*
X142304510Y-98997488D01*
X142215366Y-98973602D01*
X142123078Y-98973602D01*
X142123073Y-98973602D01*
X142097014Y-98980585D01*
X142027164Y-98978921D01*
X141969303Y-98939758D01*
X141941800Y-98875529D01*
X141945148Y-98828717D01*
X141952132Y-98802656D01*
X141952132Y-98710368D01*
X141928246Y-98621224D01*
X141887413Y-98550500D01*
X141882105Y-98541306D01*
X141882102Y-98541303D01*
X141882101Y-98541300D01*
X141816844Y-98476043D01*
X141816841Y-98476041D01*
X141816837Y-98476038D01*
X141736925Y-98429900D01*
X141736922Y-98429899D01*
X141736921Y-98429898D01*
X141736920Y-98429898D01*
X141647776Y-98406012D01*
X141555488Y-98406012D01*
X141555483Y-98406012D01*
X141529424Y-98412995D01*
X141459574Y-98411331D01*
X141401713Y-98372168D01*
X141374210Y-98307939D01*
X141377558Y-98261127D01*
X141384542Y-98235066D01*
X141384542Y-98142778D01*
X141360656Y-98053634D01*
X141360653Y-98053628D01*
X141314515Y-97973716D01*
X141314512Y-97973713D01*
X141314511Y-97973710D01*
X141249254Y-97908453D01*
X141249251Y-97908451D01*
X141249247Y-97908448D01*
X141169335Y-97862310D01*
X141169332Y-97862309D01*
X141169331Y-97862308D01*
X141169330Y-97862308D01*
X141080186Y-97838422D01*
X140987898Y-97838422D01*
X140969522Y-97843346D01*
X140956997Y-97846702D01*
X140887147Y-97845039D01*
X140829285Y-97805876D01*
X140801781Y-97741647D01*
X140805129Y-97694835D01*
X140810638Y-97674278D01*
X140810638Y-97581990D01*
X140786752Y-97492846D01*
X140786749Y-97492840D01*
X140740611Y-97412928D01*
X140740608Y-97412925D01*
X140740607Y-97412922D01*
X140675350Y-97347665D01*
X140675347Y-97347663D01*
X140675343Y-97347660D01*
X140595431Y-97301522D01*
X140595428Y-97301521D01*
X140595427Y-97301520D01*
X140595426Y-97301520D01*
X140506282Y-97277634D01*
X140413994Y-97277634D01*
X140324848Y-97301520D01*
X140262315Y-97337625D01*
X140244227Y-97342012D01*
X140227994Y-97351109D01*
X140210980Y-97350078D01*
X140194414Y-97354098D01*
X140176825Y-97348010D01*
X140158252Y-97346886D01*
X140144497Y-97336821D01*
X140128387Y-97331246D01*
X140116881Y-97316615D01*
X140101865Y-97305628D01*
X140091177Y-97283930D01*
X140085197Y-97276325D01*
X140084613Y-97274838D01*
X140082146Y-97268438D01*
X140082146Y-97268326D01*
X140058260Y-97179182D01*
X140012115Y-97099258D01*
X139991713Y-97078856D01*
X164749500Y-97078856D01*
X164749500Y-97171144D01*
X164762465Y-97219531D01*
X164773387Y-97260290D01*
X164773388Y-97260293D01*
X164819526Y-97340205D01*
X164819529Y-97340209D01*
X164819531Y-97340212D01*
X164884788Y-97405469D01*
X164884791Y-97405470D01*
X164884794Y-97405473D01*
X164964706Y-97451611D01*
X164964707Y-97451611D01*
X164964712Y-97451614D01*
X165053856Y-97475500D01*
X165053858Y-97475500D01*
X165146142Y-97475500D01*
X165146144Y-97475500D01*
X165226921Y-97453856D01*
X172149500Y-97453856D01*
X172149500Y-97546144D01*
X172169416Y-97620473D01*
X172173387Y-97635290D01*
X172173388Y-97635293D01*
X172219526Y-97715205D01*
X172219529Y-97715209D01*
X172219531Y-97715212D01*
X172284788Y-97780469D01*
X172284791Y-97780470D01*
X172284794Y-97780473D01*
X172364706Y-97826611D01*
X172364707Y-97826611D01*
X172364712Y-97826614D01*
X172453856Y-97850500D01*
X172453858Y-97850500D01*
X172494787Y-97850500D01*
X172561826Y-97870185D01*
X172607581Y-97922989D01*
X172617525Y-97992147D01*
X172602174Y-98036501D01*
X172585886Y-98064711D01*
X172562000Y-98153856D01*
X172562000Y-98246143D01*
X172585887Y-98335290D01*
X172585888Y-98335293D01*
X172632026Y-98415205D01*
X172632029Y-98415209D01*
X172632031Y-98415212D01*
X172697288Y-98480469D01*
X172697291Y-98480470D01*
X172697294Y-98480473D01*
X172777206Y-98526611D01*
X172777207Y-98526611D01*
X172777212Y-98526614D01*
X172866356Y-98550500D01*
X172866358Y-98550500D01*
X172958642Y-98550500D01*
X172958644Y-98550500D01*
X173047788Y-98526614D01*
X173127712Y-98480469D01*
X173192969Y-98415212D01*
X173239114Y-98335288D01*
X173263000Y-98246144D01*
X173263000Y-98153856D01*
X173239114Y-98064712D01*
X173232718Y-98053634D01*
X173192973Y-97984794D01*
X173192970Y-97984791D01*
X173192969Y-97984788D01*
X173127712Y-97919531D01*
X173127709Y-97919529D01*
X173127705Y-97919526D01*
X173047793Y-97873388D01*
X173047790Y-97873387D01*
X173047789Y-97873386D01*
X173047788Y-97873386D01*
X172958644Y-97849500D01*
X172917713Y-97849500D01*
X172850674Y-97829815D01*
X172804919Y-97777011D01*
X172794975Y-97707853D01*
X172810326Y-97663499D01*
X172826614Y-97635288D01*
X172850500Y-97546144D01*
X172850500Y-97453856D01*
X172826614Y-97364712D01*
X172826613Y-97364711D01*
X172826613Y-97364709D01*
X172816810Y-97347731D01*
X172816809Y-97347729D01*
X172792501Y-97305628D01*
X172785704Y-97293856D01*
X180799500Y-97293856D01*
X180799500Y-97386144D01*
X180817643Y-97453856D01*
X180823387Y-97475290D01*
X180823388Y-97475293D01*
X180869526Y-97555205D01*
X180869529Y-97555209D01*
X180869531Y-97555212D01*
X180934788Y-97620469D01*
X180934791Y-97620470D01*
X180934794Y-97620473D01*
X181014706Y-97666611D01*
X181014707Y-97666611D01*
X181014712Y-97666614D01*
X181103856Y-97690500D01*
X181103858Y-97690500D01*
X181196142Y-97690500D01*
X181196144Y-97690500D01*
X181285288Y-97666614D01*
X181365212Y-97620469D01*
X181430469Y-97555212D01*
X181476614Y-97475288D01*
X181500500Y-97386144D01*
X181500500Y-97331356D01*
X182424500Y-97331356D01*
X182424500Y-97423644D01*
X182438394Y-97475499D01*
X182448387Y-97512790D01*
X182448388Y-97512793D01*
X182494526Y-97592705D01*
X182494529Y-97592709D01*
X182494531Y-97592712D01*
X182559788Y-97657969D01*
X182559791Y-97657970D01*
X182559794Y-97657973D01*
X182639706Y-97704111D01*
X182639707Y-97704111D01*
X182639712Y-97704114D01*
X182728856Y-97728000D01*
X182728858Y-97728000D01*
X182821142Y-97728000D01*
X182821144Y-97728000D01*
X182910288Y-97704114D01*
X182990212Y-97657969D01*
X183055469Y-97592712D01*
X183101614Y-97512788D01*
X183125500Y-97423644D01*
X183125500Y-97331356D01*
X183101614Y-97242212D01*
X183101611Y-97242206D01*
X183055473Y-97162294D01*
X183055470Y-97162291D01*
X183055469Y-97162288D01*
X182990212Y-97097031D01*
X182990209Y-97097029D01*
X182990205Y-97097026D01*
X182910293Y-97050888D01*
X182910290Y-97050887D01*
X182910289Y-97050886D01*
X182910288Y-97050886D01*
X182821144Y-97027000D01*
X182728856Y-97027000D01*
X182639712Y-97050886D01*
X182639711Y-97050886D01*
X182639709Y-97050887D01*
X182639706Y-97050888D01*
X182559794Y-97097026D01*
X182559785Y-97097033D01*
X182494533Y-97162285D01*
X182494526Y-97162294D01*
X182448388Y-97242206D01*
X182448387Y-97242209D01*
X182448386Y-97242211D01*
X182448386Y-97242212D01*
X182424500Y-97331356D01*
X181500500Y-97331356D01*
X181500500Y-97293856D01*
X181476614Y-97204712D01*
X181461874Y-97179182D01*
X181430473Y-97124794D01*
X181430470Y-97124791D01*
X181430469Y-97124788D01*
X181365212Y-97059531D01*
X181365209Y-97059529D01*
X181365205Y-97059526D01*
X181285293Y-97013388D01*
X181285290Y-97013387D01*
X181285289Y-97013386D01*
X181285288Y-97013386D01*
X181196144Y-96989500D01*
X181103856Y-96989500D01*
X181014712Y-97013386D01*
X181014711Y-97013386D01*
X181014709Y-97013387D01*
X181014706Y-97013388D01*
X180934794Y-97059526D01*
X180934785Y-97059533D01*
X180869533Y-97124785D01*
X180869526Y-97124794D01*
X180823388Y-97204706D01*
X180823387Y-97204709D01*
X180823386Y-97204711D01*
X180823386Y-97204712D01*
X180799500Y-97293856D01*
X172785704Y-97293856D01*
X172780469Y-97284788D01*
X172715212Y-97219531D01*
X172715209Y-97219529D01*
X172715205Y-97219526D01*
X172635293Y-97173388D01*
X172635290Y-97173387D01*
X172635289Y-97173386D01*
X172635288Y-97173386D01*
X172546144Y-97149500D01*
X172453856Y-97149500D01*
X172364712Y-97173386D01*
X172364711Y-97173386D01*
X172364709Y-97173387D01*
X172364706Y-97173388D01*
X172284794Y-97219526D01*
X172284785Y-97219533D01*
X172219533Y-97284785D01*
X172219526Y-97284794D01*
X172173388Y-97364706D01*
X172173387Y-97364709D01*
X172173386Y-97364711D01*
X172173386Y-97364712D01*
X172149500Y-97453856D01*
X165226921Y-97453856D01*
X165235288Y-97451614D01*
X165315212Y-97405469D01*
X165380469Y-97340212D01*
X165426614Y-97260288D01*
X165450500Y-97171144D01*
X165450500Y-97078856D01*
X165426614Y-96989712D01*
X165425543Y-96987857D01*
X165380473Y-96909794D01*
X165380470Y-96909791D01*
X165380469Y-96909788D01*
X165315212Y-96844531D01*
X165315209Y-96844529D01*
X165315205Y-96844526D01*
X165235293Y-96798388D01*
X165235290Y-96798387D01*
X165235289Y-96798386D01*
X165235288Y-96798386D01*
X165146144Y-96774500D01*
X165053856Y-96774500D01*
X164964712Y-96798386D01*
X164964711Y-96798386D01*
X164964709Y-96798387D01*
X164964706Y-96798388D01*
X164884794Y-96844526D01*
X164884785Y-96844533D01*
X164819533Y-96909785D01*
X164819526Y-96909794D01*
X164773388Y-96989706D01*
X164773387Y-96989709D01*
X164773386Y-96989711D01*
X164773386Y-96989712D01*
X164749500Y-97078856D01*
X139991713Y-97078856D01*
X139946858Y-97034001D01*
X139946855Y-97033999D01*
X139946851Y-97033996D01*
X139866939Y-96987858D01*
X139866936Y-96987857D01*
X139866935Y-96987856D01*
X139866934Y-96987856D01*
X139777790Y-96963970D01*
X139685502Y-96963970D01*
X139596358Y-96987856D01*
X139596357Y-96987856D01*
X139596355Y-96987857D01*
X139596352Y-96987858D01*
X139516440Y-97033996D01*
X139516431Y-97034003D01*
X139451179Y-97099255D01*
X139451173Y-97099264D01*
X139442197Y-97114810D01*
X139391629Y-97163024D01*
X139323022Y-97176245D01*
X139258158Y-97150276D01*
X139227426Y-97114808D01*
X139210096Y-97084794D01*
X139210093Y-97084788D01*
X139144836Y-97019531D01*
X139144833Y-97019529D01*
X139144829Y-97019526D01*
X139064917Y-96973388D01*
X139064914Y-96973387D01*
X139064913Y-96973386D01*
X139064912Y-96973386D01*
X138975768Y-96949500D01*
X138883480Y-96949500D01*
X138794336Y-96973386D01*
X138794335Y-96973386D01*
X138794333Y-96973387D01*
X138794330Y-96973388D01*
X138714418Y-97019526D01*
X138714409Y-97019533D01*
X138649157Y-97084785D01*
X138649150Y-97084794D01*
X138635662Y-97108156D01*
X138585094Y-97156370D01*
X138516486Y-97169591D01*
X138451622Y-97143621D01*
X138420891Y-97108156D01*
X138407400Y-97084788D01*
X138342143Y-97019531D01*
X138342140Y-97019529D01*
X138342136Y-97019526D01*
X138262224Y-96973388D01*
X138262221Y-96973387D01*
X138262220Y-96973386D01*
X138262219Y-96973386D01*
X138173075Y-96949500D01*
X138080787Y-96949500D01*
X137991643Y-96973386D01*
X137991642Y-96973386D01*
X137991640Y-96973387D01*
X137991637Y-96973388D01*
X137911725Y-97019526D01*
X137911716Y-97019533D01*
X137846464Y-97084785D01*
X137846457Y-97084794D01*
X137832969Y-97108156D01*
X137782401Y-97156370D01*
X137713793Y-97169591D01*
X137648929Y-97143621D01*
X137618198Y-97108156D01*
X137604707Y-97084788D01*
X137539450Y-97019531D01*
X137539447Y-97019529D01*
X137539443Y-97019526D01*
X137459531Y-96973388D01*
X137459528Y-96973387D01*
X137459527Y-96973386D01*
X137459526Y-96973386D01*
X137370382Y-96949500D01*
X137278094Y-96949500D01*
X137188950Y-96973386D01*
X137188949Y-96973386D01*
X137188947Y-96973387D01*
X137188944Y-96973388D01*
X137109032Y-97019526D01*
X137109023Y-97019533D01*
X137043771Y-97084785D01*
X137043764Y-97084794D01*
X137030276Y-97108156D01*
X136979708Y-97156370D01*
X136911100Y-97169591D01*
X136846236Y-97143621D01*
X136815505Y-97108156D01*
X136802014Y-97084788D01*
X136736757Y-97019531D01*
X136736754Y-97019529D01*
X136736750Y-97019526D01*
X136656838Y-96973388D01*
X136656835Y-96973387D01*
X136656834Y-96973386D01*
X136656833Y-96973386D01*
X136567689Y-96949500D01*
X136475401Y-96949500D01*
X136386257Y-96973386D01*
X136386256Y-96973386D01*
X136386254Y-96973387D01*
X136386251Y-96973388D01*
X136306339Y-97019526D01*
X136306330Y-97019533D01*
X136241078Y-97084785D01*
X136241074Y-97084791D01*
X136227584Y-97108156D01*
X136177016Y-97156371D01*
X136108409Y-97169592D01*
X136043545Y-97143623D01*
X136012812Y-97108156D01*
X136006390Y-97097033D01*
X135999320Y-97084788D01*
X135934063Y-97019531D01*
X135934060Y-97019529D01*
X135934056Y-97019526D01*
X135854144Y-96973388D01*
X135854141Y-96973387D01*
X135854140Y-96973386D01*
X135854139Y-96973386D01*
X135764995Y-96949500D01*
X135672707Y-96949500D01*
X135583563Y-96973386D01*
X135583562Y-96973386D01*
X135583560Y-96973387D01*
X135583557Y-96973388D01*
X135503645Y-97019526D01*
X135503636Y-97019533D01*
X135438384Y-97084785D01*
X135438377Y-97084794D01*
X135424889Y-97108156D01*
X135374321Y-97156370D01*
X135305713Y-97169591D01*
X135240849Y-97143621D01*
X135210118Y-97108156D01*
X135196627Y-97084788D01*
X135131370Y-97019531D01*
X135131367Y-97019529D01*
X135131363Y-97019526D01*
X135051451Y-96973388D01*
X135051448Y-96973387D01*
X135051447Y-96973386D01*
X135051446Y-96973386D01*
X134962302Y-96949500D01*
X134870014Y-96949500D01*
X134780870Y-96973386D01*
X134780869Y-96973386D01*
X134780867Y-96973387D01*
X134780864Y-96973388D01*
X134700952Y-97019526D01*
X134700943Y-97019533D01*
X134635691Y-97084785D01*
X134635684Y-97084794D01*
X134622196Y-97108156D01*
X134571628Y-97156370D01*
X134503020Y-97169591D01*
X134438156Y-97143621D01*
X134407425Y-97108156D01*
X134393934Y-97084788D01*
X134328677Y-97019531D01*
X134328674Y-97019529D01*
X134328670Y-97019526D01*
X134248758Y-96973388D01*
X134248755Y-96973387D01*
X134248754Y-96973386D01*
X134248753Y-96973386D01*
X134159609Y-96949500D01*
X134067321Y-96949500D01*
X133978177Y-96973386D01*
X133978176Y-96973386D01*
X133978174Y-96973387D01*
X133978171Y-96973388D01*
X133898259Y-97019526D01*
X133898250Y-97019533D01*
X133832998Y-97084785D01*
X133832991Y-97084794D01*
X133819503Y-97108156D01*
X133768935Y-97156370D01*
X133700327Y-97169591D01*
X133635463Y-97143621D01*
X133604732Y-97108156D01*
X133591241Y-97084788D01*
X133525984Y-97019531D01*
X133525981Y-97019529D01*
X133525977Y-97019526D01*
X133446065Y-96973388D01*
X133446062Y-96973387D01*
X133446061Y-96973386D01*
X133446060Y-96973386D01*
X133356916Y-96949500D01*
X133264628Y-96949500D01*
X133175484Y-96973386D01*
X133175483Y-96973386D01*
X133175481Y-96973387D01*
X133175478Y-96973388D01*
X133095566Y-97019526D01*
X133095557Y-97019533D01*
X133030305Y-97084785D01*
X133030298Y-97084794D01*
X133016810Y-97108156D01*
X132966242Y-97156370D01*
X132897634Y-97169591D01*
X132832770Y-97143621D01*
X132802039Y-97108156D01*
X132788548Y-97084788D01*
X132723291Y-97019531D01*
X132723288Y-97019529D01*
X132723284Y-97019526D01*
X132643372Y-96973388D01*
X132643369Y-96973387D01*
X132643368Y-96973386D01*
X132643367Y-96973386D01*
X132554223Y-96949500D01*
X132461935Y-96949500D01*
X132372791Y-96973386D01*
X132372790Y-96973386D01*
X132372788Y-96973387D01*
X132372785Y-96973388D01*
X132292873Y-97019526D01*
X132292864Y-97019533D01*
X132227612Y-97084785D01*
X132227605Y-97084794D01*
X132214117Y-97108156D01*
X132163549Y-97156370D01*
X132094941Y-97169591D01*
X132030077Y-97143621D01*
X131999346Y-97108156D01*
X131985855Y-97084788D01*
X131920598Y-97019531D01*
X131920595Y-97019529D01*
X131920591Y-97019526D01*
X131840679Y-96973388D01*
X131840676Y-96973387D01*
X131840675Y-96973386D01*
X131840674Y-96973386D01*
X131751530Y-96949500D01*
X131659242Y-96949500D01*
X131570098Y-96973386D01*
X131570097Y-96973386D01*
X131570095Y-96973387D01*
X131570092Y-96973388D01*
X131490180Y-97019526D01*
X131490171Y-97019533D01*
X131424919Y-97084785D01*
X131424912Y-97084794D01*
X131378774Y-97164706D01*
X131378773Y-97164709D01*
X131378772Y-97164711D01*
X131378772Y-97164712D01*
X131377049Y-97171142D01*
X131354886Y-97253856D01*
X131354886Y-97276000D01*
X131335201Y-97343039D01*
X131282397Y-97388794D01*
X131230886Y-97400000D01*
X126749500Y-97400000D01*
X126682461Y-97380315D01*
X126636706Y-97327511D01*
X126625500Y-97276000D01*
X126625500Y-96645656D01*
X128758900Y-96645656D01*
X128758900Y-96737944D01*
X128775095Y-96798386D01*
X128782787Y-96827090D01*
X128782788Y-96827093D01*
X128828926Y-96907005D01*
X128828929Y-96907009D01*
X128828931Y-96907012D01*
X128894188Y-96972269D01*
X128894191Y-96972270D01*
X128894194Y-96972273D01*
X128974106Y-97018411D01*
X128974107Y-97018411D01*
X128974112Y-97018414D01*
X129063256Y-97042300D01*
X129063258Y-97042300D01*
X129155542Y-97042300D01*
X129155544Y-97042300D01*
X129244688Y-97018414D01*
X129324612Y-96972269D01*
X129389869Y-96907012D01*
X129436014Y-96827088D01*
X129459900Y-96737944D01*
X129459900Y-96645656D01*
X129436014Y-96556512D01*
X129436011Y-96556506D01*
X129407851Y-96507732D01*
X129389873Y-96476594D01*
X129389870Y-96476591D01*
X129389869Y-96476588D01*
X129367139Y-96453858D01*
X162799500Y-96453858D01*
X162799500Y-96546145D01*
X162823387Y-96635292D01*
X162823388Y-96635295D01*
X162869526Y-96715207D01*
X162869529Y-96715211D01*
X162869531Y-96715214D01*
X162934788Y-96780471D01*
X162934791Y-96780472D01*
X162934794Y-96780475D01*
X163014706Y-96826613D01*
X163014707Y-96826613D01*
X163014712Y-96826616D01*
X163103856Y-96850502D01*
X163103858Y-96850502D01*
X163196142Y-96850502D01*
X163196144Y-96850502D01*
X163285288Y-96826616D01*
X163365212Y-96780471D01*
X163430469Y-96715214D01*
X163476614Y-96635290D01*
X163500500Y-96546146D01*
X163500500Y-96453858D01*
X163476614Y-96364714D01*
X163463096Y-96341300D01*
X163430473Y-96284796D01*
X163430470Y-96284793D01*
X163430469Y-96284790D01*
X163365212Y-96219533D01*
X163365209Y-96219531D01*
X163365205Y-96219528D01*
X163285293Y-96173390D01*
X163285290Y-96173389D01*
X163285289Y-96173388D01*
X163285288Y-96173388D01*
X163196144Y-96149502D01*
X163103856Y-96149502D01*
X163014712Y-96173388D01*
X163014711Y-96173388D01*
X163014709Y-96173389D01*
X163014706Y-96173390D01*
X162934794Y-96219528D01*
X162934785Y-96219535D01*
X162869533Y-96284787D01*
X162869526Y-96284796D01*
X162823388Y-96364708D01*
X162823387Y-96364711D01*
X162799500Y-96453858D01*
X129367139Y-96453858D01*
X129324612Y-96411331D01*
X129324609Y-96411329D01*
X129324605Y-96411326D01*
X129244693Y-96365188D01*
X129244690Y-96365187D01*
X129244689Y-96365186D01*
X129244688Y-96365186D01*
X129155544Y-96341300D01*
X129063256Y-96341300D01*
X128974112Y-96365186D01*
X128974111Y-96365186D01*
X128974109Y-96365187D01*
X128974106Y-96365188D01*
X128894194Y-96411326D01*
X128894185Y-96411333D01*
X128828933Y-96476585D01*
X128828926Y-96476594D01*
X128782788Y-96556506D01*
X128782787Y-96556509D01*
X128782786Y-96556511D01*
X128782786Y-96556512D01*
X128758900Y-96645656D01*
X126625500Y-96645656D01*
X126625500Y-94343917D01*
X138184500Y-94343917D01*
X138184500Y-94536082D01*
X138221986Y-94724535D01*
X138221989Y-94724547D01*
X138295520Y-94902068D01*
X138295521Y-94902070D01*
X138402279Y-95061844D01*
X138402282Y-95061848D01*
X138538151Y-95197717D01*
X138538155Y-95197720D01*
X138697927Y-95304477D01*
X138697928Y-95304477D01*
X138697929Y-95304478D01*
X138697931Y-95304479D01*
X138875452Y-95378010D01*
X138875457Y-95378012D01*
X139008506Y-95404477D01*
X139063917Y-95415499D01*
X139063920Y-95415500D01*
X139063922Y-95415500D01*
X139256080Y-95415500D01*
X139256081Y-95415499D01*
X139444543Y-95378012D01*
X139622073Y-95304477D01*
X139781845Y-95197720D01*
X139917720Y-95061845D01*
X140024477Y-94902073D01*
X140098012Y-94724543D01*
X140135500Y-94536078D01*
X140135500Y-94343922D01*
X140135500Y-94343919D01*
X140135499Y-94343917D01*
X140724500Y-94343917D01*
X140724500Y-94536082D01*
X140761986Y-94724535D01*
X140761989Y-94724547D01*
X140835520Y-94902068D01*
X140835521Y-94902070D01*
X140942279Y-95061844D01*
X140942282Y-95061848D01*
X141078151Y-95197717D01*
X141078155Y-95197720D01*
X141237927Y-95304477D01*
X141237928Y-95304477D01*
X141237929Y-95304478D01*
X141237931Y-95304479D01*
X141415452Y-95378010D01*
X141415457Y-95378012D01*
X141548506Y-95404477D01*
X141603917Y-95415499D01*
X141603920Y-95415500D01*
X141603922Y-95415500D01*
X141796080Y-95415500D01*
X141796081Y-95415499D01*
X141984543Y-95378012D01*
X142162073Y-95304477D01*
X142321845Y-95197720D01*
X142457720Y-95061845D01*
X142529876Y-94953856D01*
X153649500Y-94953856D01*
X153649500Y-95046143D01*
X153673387Y-95135290D01*
X153673388Y-95135293D01*
X153719526Y-95215205D01*
X153719529Y-95215209D01*
X153719531Y-95215212D01*
X153784788Y-95280469D01*
X153784791Y-95280470D01*
X153784794Y-95280473D01*
X153864706Y-95326611D01*
X153864707Y-95326611D01*
X153864712Y-95326614D01*
X153953856Y-95350500D01*
X153953858Y-95350500D01*
X154046142Y-95350500D01*
X154046144Y-95350500D01*
X154135288Y-95326614D01*
X154215212Y-95280469D01*
X154280469Y-95215212D01*
X154326614Y-95135288D01*
X154350500Y-95046144D01*
X154350500Y-94953856D01*
X158312000Y-94953856D01*
X158312000Y-95046143D01*
X158335887Y-95135290D01*
X158335888Y-95135293D01*
X158382026Y-95215205D01*
X158382029Y-95215209D01*
X158382031Y-95215212D01*
X158447288Y-95280469D01*
X158447291Y-95280470D01*
X158447294Y-95280473D01*
X158527206Y-95326611D01*
X158527207Y-95326611D01*
X158527212Y-95326614D01*
X158616356Y-95350500D01*
X158616358Y-95350500D01*
X158708642Y-95350500D01*
X158708644Y-95350500D01*
X158797788Y-95326614D01*
X158877712Y-95280469D01*
X158942969Y-95215212D01*
X158989114Y-95135288D01*
X159013000Y-95046144D01*
X159013000Y-94953856D01*
X171649500Y-94953856D01*
X171649500Y-95046143D01*
X171673387Y-95135290D01*
X171673388Y-95135293D01*
X171719526Y-95215205D01*
X171719529Y-95215209D01*
X171719531Y-95215212D01*
X171784788Y-95280469D01*
X171784791Y-95280470D01*
X171784794Y-95280473D01*
X171864706Y-95326611D01*
X171864707Y-95326611D01*
X171864712Y-95326614D01*
X171953856Y-95350500D01*
X171953858Y-95350500D01*
X172046142Y-95350500D01*
X172046144Y-95350500D01*
X172135288Y-95326614D01*
X172215212Y-95280469D01*
X172280469Y-95215212D01*
X172326614Y-95135288D01*
X172350500Y-95046144D01*
X172350500Y-94953856D01*
X172326614Y-94864712D01*
X172326611Y-94864706D01*
X172280473Y-94784794D01*
X172280470Y-94784791D01*
X172280469Y-94784788D01*
X172215212Y-94719531D01*
X172215209Y-94719529D01*
X172215205Y-94719526D01*
X172135293Y-94673388D01*
X172135290Y-94673387D01*
X172135289Y-94673386D01*
X172135288Y-94673386D01*
X172046144Y-94649500D01*
X171953856Y-94649500D01*
X171864712Y-94673386D01*
X171864711Y-94673386D01*
X171864709Y-94673387D01*
X171864706Y-94673388D01*
X171784794Y-94719526D01*
X171784785Y-94719533D01*
X171719533Y-94784785D01*
X171719526Y-94784794D01*
X171673388Y-94864706D01*
X171673387Y-94864709D01*
X171649500Y-94953856D01*
X159013000Y-94953856D01*
X158989114Y-94864712D01*
X158989111Y-94864706D01*
X158942973Y-94784794D01*
X158942970Y-94784791D01*
X158942969Y-94784788D01*
X158877712Y-94719531D01*
X158877709Y-94719529D01*
X158877705Y-94719526D01*
X158797793Y-94673388D01*
X158797790Y-94673387D01*
X158797789Y-94673386D01*
X158797788Y-94673386D01*
X158708644Y-94649500D01*
X158616356Y-94649500D01*
X158527212Y-94673386D01*
X158527211Y-94673386D01*
X158527209Y-94673387D01*
X158527206Y-94673388D01*
X158447294Y-94719526D01*
X158447285Y-94719533D01*
X158382033Y-94784785D01*
X158382026Y-94784794D01*
X158335888Y-94864706D01*
X158335887Y-94864709D01*
X158312000Y-94953856D01*
X154350500Y-94953856D01*
X154326614Y-94864712D01*
X154326611Y-94864706D01*
X154280473Y-94784794D01*
X154280470Y-94784791D01*
X154280469Y-94784788D01*
X154215212Y-94719531D01*
X154215209Y-94719529D01*
X154215205Y-94719526D01*
X154135293Y-94673388D01*
X154135290Y-94673387D01*
X154135289Y-94673386D01*
X154135288Y-94673386D01*
X154046144Y-94649500D01*
X153953856Y-94649500D01*
X153864712Y-94673386D01*
X153864711Y-94673386D01*
X153864709Y-94673387D01*
X153864706Y-94673388D01*
X153784794Y-94719526D01*
X153784785Y-94719533D01*
X153719533Y-94784785D01*
X153719526Y-94784794D01*
X153673388Y-94864706D01*
X153673387Y-94864709D01*
X153649500Y-94953856D01*
X142529876Y-94953856D01*
X142564477Y-94902073D01*
X142638012Y-94724543D01*
X142675500Y-94536078D01*
X142675500Y-94443917D01*
X173484500Y-94443917D01*
X173484500Y-94636082D01*
X173521986Y-94824535D01*
X173521989Y-94824547D01*
X173595520Y-95002068D01*
X173595521Y-95002070D01*
X173702279Y-95161844D01*
X173702282Y-95161848D01*
X173838151Y-95297717D01*
X173838155Y-95297720D01*
X173997927Y-95404477D01*
X173997928Y-95404477D01*
X173997929Y-95404478D01*
X173997931Y-95404479D01*
X174175452Y-95478010D01*
X174175457Y-95478012D01*
X174363917Y-95515499D01*
X174363920Y-95515500D01*
X174363922Y-95515500D01*
X174556080Y-95515500D01*
X174556081Y-95515499D01*
X174744543Y-95478012D01*
X174922073Y-95404477D01*
X175081845Y-95297720D01*
X175217720Y-95161845D01*
X175324477Y-95002073D01*
X175398012Y-94824543D01*
X175435500Y-94636078D01*
X175435500Y-94443922D01*
X175435500Y-94443919D01*
X175435499Y-94443917D01*
X176024500Y-94443917D01*
X176024500Y-94636082D01*
X176061986Y-94824535D01*
X176061989Y-94824547D01*
X176135520Y-95002068D01*
X176135521Y-95002070D01*
X176242279Y-95161844D01*
X176242282Y-95161848D01*
X176378151Y-95297717D01*
X176378155Y-95297720D01*
X176537927Y-95404477D01*
X176537928Y-95404477D01*
X176537929Y-95404478D01*
X176537931Y-95404479D01*
X176715452Y-95478010D01*
X176715457Y-95478012D01*
X176903917Y-95515499D01*
X176903920Y-95515500D01*
X176903922Y-95515500D01*
X177096080Y-95515500D01*
X177096081Y-95515499D01*
X177284543Y-95478012D01*
X177462073Y-95404477D01*
X177621845Y-95297720D01*
X177757720Y-95161845D01*
X177864477Y-95002073D01*
X177938012Y-94824543D01*
X177975500Y-94636078D01*
X177975500Y-94443922D01*
X177975500Y-94443919D01*
X177975499Y-94443917D01*
X177948827Y-94309827D01*
X177938012Y-94255457D01*
X177923827Y-94221211D01*
X177864479Y-94077931D01*
X177864478Y-94077929D01*
X177757720Y-93918155D01*
X177757717Y-93918151D01*
X177621848Y-93782282D01*
X177621844Y-93782279D01*
X177462070Y-93675521D01*
X177462068Y-93675520D01*
X177284547Y-93601989D01*
X177284535Y-93601986D01*
X177096081Y-93564500D01*
X177096078Y-93564500D01*
X176903922Y-93564500D01*
X176903919Y-93564500D01*
X176715464Y-93601986D01*
X176715452Y-93601989D01*
X176537931Y-93675520D01*
X176537929Y-93675521D01*
X176378155Y-93782279D01*
X176378151Y-93782282D01*
X176242282Y-93918151D01*
X176242279Y-93918155D01*
X176135521Y-94077929D01*
X176135520Y-94077931D01*
X176061989Y-94255452D01*
X176061986Y-94255464D01*
X176024500Y-94443917D01*
X175435499Y-94443917D01*
X175408827Y-94309827D01*
X175398012Y-94255457D01*
X175383827Y-94221211D01*
X175324479Y-94077931D01*
X175324478Y-94077929D01*
X175217720Y-93918155D01*
X175217717Y-93918151D01*
X175081848Y-93782282D01*
X175081844Y-93782279D01*
X174922070Y-93675521D01*
X174922068Y-93675520D01*
X174744547Y-93601989D01*
X174744535Y-93601986D01*
X174556081Y-93564500D01*
X174556078Y-93564500D01*
X174363922Y-93564500D01*
X174363919Y-93564500D01*
X174175464Y-93601986D01*
X174175452Y-93601989D01*
X173997931Y-93675520D01*
X173997929Y-93675521D01*
X173838155Y-93782279D01*
X173838151Y-93782282D01*
X173702282Y-93918151D01*
X173702279Y-93918155D01*
X173595521Y-94077929D01*
X173595520Y-94077931D01*
X173521989Y-94255452D01*
X173521986Y-94255464D01*
X173484500Y-94443917D01*
X142675500Y-94443917D01*
X142675500Y-94343922D01*
X142675500Y-94343919D01*
X142675499Y-94343917D01*
X142668718Y-94309826D01*
X142638012Y-94155457D01*
X142588381Y-94035636D01*
X142564479Y-93977931D01*
X142564478Y-93977929D01*
X142546150Y-93950500D01*
X142457720Y-93818155D01*
X142457717Y-93818151D01*
X142321848Y-93682282D01*
X142321844Y-93682279D01*
X142271787Y-93648832D01*
X142162070Y-93575521D01*
X142162068Y-93575520D01*
X142109768Y-93553857D01*
X155899499Y-93553857D01*
X155899499Y-93646145D01*
X155909181Y-93682280D01*
X155923386Y-93735291D01*
X155923387Y-93735294D01*
X155969525Y-93815206D01*
X155969528Y-93815210D01*
X155969530Y-93815213D01*
X156034787Y-93880470D01*
X156034790Y-93880471D01*
X156034793Y-93880474D01*
X156114705Y-93926612D01*
X156114706Y-93926612D01*
X156114711Y-93926615D01*
X156203855Y-93950501D01*
X156203857Y-93950501D01*
X156296141Y-93950501D01*
X156296143Y-93950501D01*
X156385287Y-93926615D01*
X156465211Y-93880470D01*
X156530468Y-93815213D01*
X156576613Y-93735289D01*
X156600499Y-93646145D01*
X156600499Y-93553857D01*
X156576613Y-93464713D01*
X156530468Y-93384789D01*
X156499535Y-93353856D01*
X164449500Y-93353856D01*
X164449500Y-93446144D01*
X164464463Y-93501988D01*
X164473387Y-93535290D01*
X164473388Y-93535293D01*
X164519526Y-93615205D01*
X164519529Y-93615209D01*
X164519531Y-93615212D01*
X164584788Y-93680469D01*
X164584791Y-93680470D01*
X164584794Y-93680473D01*
X164664706Y-93726611D01*
X164664707Y-93726611D01*
X164664712Y-93726614D01*
X164753856Y-93750500D01*
X164753858Y-93750500D01*
X164846142Y-93750500D01*
X164846144Y-93750500D01*
X164935288Y-93726614D01*
X165015212Y-93680469D01*
X165080469Y-93615212D01*
X165126614Y-93535288D01*
X165150500Y-93446144D01*
X165150500Y-93353856D01*
X167249500Y-93353856D01*
X167249500Y-93446144D01*
X167264463Y-93501988D01*
X167273387Y-93535290D01*
X167273388Y-93535293D01*
X167319526Y-93615205D01*
X167319529Y-93615209D01*
X167319531Y-93615212D01*
X167384788Y-93680469D01*
X167384791Y-93680470D01*
X167384794Y-93680473D01*
X167464706Y-93726611D01*
X167464707Y-93726611D01*
X167464712Y-93726614D01*
X167553856Y-93750500D01*
X167553858Y-93750500D01*
X167646142Y-93750500D01*
X167646144Y-93750500D01*
X167735288Y-93726614D01*
X167815212Y-93680469D01*
X167880469Y-93615212D01*
X167926614Y-93535288D01*
X167950500Y-93446144D01*
X167950500Y-93353856D01*
X167926614Y-93264712D01*
X167917832Y-93249501D01*
X167880473Y-93184794D01*
X167880470Y-93184791D01*
X167880469Y-93184788D01*
X167815212Y-93119531D01*
X167815209Y-93119529D01*
X167815205Y-93119526D01*
X167735293Y-93073388D01*
X167735290Y-93073387D01*
X167735289Y-93073386D01*
X167735288Y-93073386D01*
X167646144Y-93049500D01*
X167553856Y-93049500D01*
X167464712Y-93073386D01*
X167464711Y-93073386D01*
X167464709Y-93073387D01*
X167464706Y-93073388D01*
X167384794Y-93119526D01*
X167384785Y-93119533D01*
X167319533Y-93184785D01*
X167319526Y-93184794D01*
X167273388Y-93264706D01*
X167273387Y-93264709D01*
X167273386Y-93264711D01*
X167273386Y-93264712D01*
X167249500Y-93353856D01*
X165150500Y-93353856D01*
X165126614Y-93264712D01*
X165117832Y-93249501D01*
X165080473Y-93184794D01*
X165080470Y-93184791D01*
X165080469Y-93184788D01*
X165015212Y-93119531D01*
X165015209Y-93119529D01*
X165015205Y-93119526D01*
X164935293Y-93073388D01*
X164935290Y-93073387D01*
X164935289Y-93073386D01*
X164935288Y-93073386D01*
X164846144Y-93049500D01*
X164753856Y-93049500D01*
X164664712Y-93073386D01*
X164664711Y-93073386D01*
X164664709Y-93073387D01*
X164664706Y-93073388D01*
X164584794Y-93119526D01*
X164584785Y-93119533D01*
X164519533Y-93184785D01*
X164519526Y-93184794D01*
X164473388Y-93264706D01*
X164473387Y-93264709D01*
X164473386Y-93264711D01*
X164473386Y-93264712D01*
X164449500Y-93353856D01*
X156499535Y-93353856D01*
X156465211Y-93319532D01*
X156465208Y-93319530D01*
X156465204Y-93319527D01*
X156385292Y-93273389D01*
X156385289Y-93273388D01*
X156385288Y-93273387D01*
X156385287Y-93273387D01*
X156296143Y-93249501D01*
X156203855Y-93249501D01*
X156114711Y-93273387D01*
X156114710Y-93273387D01*
X156114708Y-93273388D01*
X156114705Y-93273389D01*
X156034793Y-93319527D01*
X156034784Y-93319534D01*
X155969532Y-93384786D01*
X155969525Y-93384795D01*
X155923387Y-93464707D01*
X155923386Y-93464710D01*
X155923385Y-93464712D01*
X155923385Y-93464713D01*
X155899499Y-93553857D01*
X142109768Y-93553857D01*
X141984547Y-93501989D01*
X141984535Y-93501986D01*
X141796081Y-93464500D01*
X141796078Y-93464500D01*
X141603922Y-93464500D01*
X141603919Y-93464500D01*
X141415464Y-93501986D01*
X141415452Y-93501989D01*
X141237931Y-93575520D01*
X141237929Y-93575521D01*
X141078155Y-93682279D01*
X141078151Y-93682282D01*
X140942282Y-93818151D01*
X140942279Y-93818155D01*
X140835521Y-93977929D01*
X140835520Y-93977931D01*
X140761989Y-94155452D01*
X140761986Y-94155464D01*
X140724500Y-94343917D01*
X140135499Y-94343917D01*
X140128718Y-94309826D01*
X140098012Y-94155457D01*
X140048381Y-94035636D01*
X140024479Y-93977931D01*
X140024478Y-93977929D01*
X140006150Y-93950500D01*
X139917720Y-93818155D01*
X139917717Y-93818151D01*
X139781848Y-93682282D01*
X139781844Y-93682279D01*
X139622070Y-93575521D01*
X139622068Y-93575520D01*
X139444547Y-93501989D01*
X139444535Y-93501986D01*
X139256081Y-93464500D01*
X139256078Y-93464500D01*
X139063922Y-93464500D01*
X139063919Y-93464500D01*
X138875464Y-93501986D01*
X138875452Y-93501989D01*
X138697931Y-93575520D01*
X138697929Y-93575521D01*
X138538155Y-93682279D01*
X138538151Y-93682282D01*
X138402282Y-93818151D01*
X138402279Y-93818155D01*
X138295521Y-93977929D01*
X138295520Y-93977931D01*
X138221989Y-94155452D01*
X138221986Y-94155464D01*
X138184500Y-94343917D01*
X126625500Y-94343917D01*
X126625500Y-91803917D01*
X138184500Y-91803917D01*
X138184500Y-91996082D01*
X138221986Y-92184535D01*
X138221989Y-92184547D01*
X138295520Y-92362068D01*
X138295521Y-92362070D01*
X138402279Y-92521844D01*
X138402282Y-92521848D01*
X138538151Y-92657717D01*
X138538155Y-92657720D01*
X138697927Y-92764477D01*
X138697928Y-92764477D01*
X138697929Y-92764478D01*
X138697931Y-92764479D01*
X138875452Y-92838010D01*
X138875457Y-92838012D01*
X139008506Y-92864477D01*
X139063917Y-92875499D01*
X139063920Y-92875500D01*
X139063922Y-92875500D01*
X139256080Y-92875500D01*
X139256081Y-92875499D01*
X139444543Y-92838012D01*
X139622073Y-92764477D01*
X139781845Y-92657720D01*
X139917720Y-92521845D01*
X140024477Y-92362073D01*
X140098012Y-92184543D01*
X140135500Y-91996078D01*
X140135500Y-91803922D01*
X140135500Y-91803919D01*
X140135499Y-91803917D01*
X140724500Y-91803917D01*
X140724500Y-91996082D01*
X140761986Y-92184535D01*
X140761989Y-92184547D01*
X140835520Y-92362068D01*
X140835521Y-92362070D01*
X140942279Y-92521844D01*
X140942282Y-92521848D01*
X141078151Y-92657717D01*
X141078155Y-92657720D01*
X141237927Y-92764477D01*
X141237928Y-92764477D01*
X141237929Y-92764478D01*
X141237931Y-92764479D01*
X141415452Y-92838010D01*
X141415457Y-92838012D01*
X141548506Y-92864477D01*
X141603917Y-92875499D01*
X141603920Y-92875500D01*
X141603922Y-92875500D01*
X141796080Y-92875500D01*
X141796081Y-92875499D01*
X141984543Y-92838012D01*
X142162073Y-92764477D01*
X142321845Y-92657720D01*
X142457720Y-92521845D01*
X142564477Y-92362073D01*
X142638012Y-92184543D01*
X142675500Y-91996078D01*
X142675500Y-91903917D01*
X173484500Y-91903917D01*
X173484500Y-92096082D01*
X173521986Y-92284535D01*
X173521989Y-92284547D01*
X173595520Y-92462068D01*
X173595521Y-92462070D01*
X173702279Y-92621844D01*
X173702282Y-92621848D01*
X173838151Y-92757717D01*
X173838155Y-92757720D01*
X173997927Y-92864477D01*
X173997928Y-92864477D01*
X173997929Y-92864478D01*
X173997931Y-92864479D01*
X174175452Y-92938010D01*
X174175457Y-92938012D01*
X174363917Y-92975499D01*
X174363920Y-92975500D01*
X174363922Y-92975500D01*
X174556080Y-92975500D01*
X174556081Y-92975499D01*
X174744543Y-92938012D01*
X174922073Y-92864477D01*
X175081845Y-92757720D01*
X175217720Y-92621845D01*
X175324477Y-92462073D01*
X175398012Y-92284543D01*
X175435500Y-92096078D01*
X175435500Y-91903922D01*
X175435500Y-91903919D01*
X175435499Y-91903917D01*
X176024500Y-91903917D01*
X176024500Y-92096082D01*
X176061986Y-92284535D01*
X176061989Y-92284547D01*
X176135520Y-92462068D01*
X176135521Y-92462070D01*
X176242279Y-92621844D01*
X176242282Y-92621848D01*
X176378151Y-92757717D01*
X176378155Y-92757720D01*
X176537927Y-92864477D01*
X176537928Y-92864477D01*
X176537929Y-92864478D01*
X176537931Y-92864479D01*
X176715452Y-92938010D01*
X176715457Y-92938012D01*
X176903917Y-92975499D01*
X176903920Y-92975500D01*
X176903922Y-92975500D01*
X177096080Y-92975500D01*
X177096081Y-92975499D01*
X177284543Y-92938012D01*
X177462073Y-92864477D01*
X177611902Y-92764364D01*
X183599500Y-92764364D01*
X183599500Y-94035636D01*
X183610134Y-94108625D01*
X183610134Y-94108626D01*
X183610135Y-94108628D01*
X183665172Y-94221210D01*
X183753789Y-94309827D01*
X183823527Y-94343919D01*
X183866375Y-94364866D01*
X183939364Y-94375500D01*
X183939370Y-94375500D01*
X185460630Y-94375500D01*
X185460636Y-94375500D01*
X185533625Y-94364866D01*
X185591118Y-94336759D01*
X185646210Y-94309827D01*
X185734827Y-94221210D01*
X185766974Y-94155452D01*
X185789866Y-94108625D01*
X185800500Y-94035636D01*
X185800500Y-92764364D01*
X190799500Y-92764364D01*
X190799500Y-94035636D01*
X190810134Y-94108625D01*
X190810134Y-94108626D01*
X190810135Y-94108628D01*
X190865172Y-94221210D01*
X190953789Y-94309827D01*
X191023527Y-94343919D01*
X191066375Y-94364866D01*
X191139364Y-94375500D01*
X191139370Y-94375500D01*
X192660630Y-94375500D01*
X192660636Y-94375500D01*
X192733625Y-94364866D01*
X192791118Y-94336759D01*
X192846210Y-94309827D01*
X192934827Y-94221210D01*
X192966974Y-94155452D01*
X192989866Y-94108625D01*
X193000500Y-94035636D01*
X193000500Y-92764364D01*
X192989866Y-92691375D01*
X192973412Y-92657717D01*
X192934827Y-92578789D01*
X192846210Y-92490172D01*
X192733628Y-92435135D01*
X192733626Y-92435134D01*
X192733625Y-92435134D01*
X192660636Y-92424500D01*
X191139364Y-92424500D01*
X191066375Y-92435134D01*
X191066373Y-92435134D01*
X191066371Y-92435135D01*
X190953789Y-92490172D01*
X190865172Y-92578789D01*
X190810135Y-92691371D01*
X190810134Y-92691373D01*
X190810134Y-92691375D01*
X190799500Y-92764364D01*
X185800500Y-92764364D01*
X185789866Y-92691375D01*
X185773412Y-92657717D01*
X185734827Y-92578789D01*
X185646210Y-92490172D01*
X185533628Y-92435135D01*
X185533626Y-92435134D01*
X185533625Y-92435134D01*
X185460636Y-92424500D01*
X183939364Y-92424500D01*
X183866375Y-92435134D01*
X183866373Y-92435134D01*
X183866371Y-92435135D01*
X183753789Y-92490172D01*
X183665172Y-92578789D01*
X183610135Y-92691371D01*
X183610134Y-92691373D01*
X183610134Y-92691375D01*
X183599500Y-92764364D01*
X177611902Y-92764364D01*
X177621845Y-92757720D01*
X177621848Y-92757717D01*
X177707370Y-92672196D01*
X177757717Y-92621848D01*
X177757720Y-92621845D01*
X177864477Y-92462073D01*
X177938012Y-92284543D01*
X177975500Y-92096078D01*
X177975500Y-91903922D01*
X177975500Y-91903919D01*
X177975499Y-91903917D01*
X177938012Y-91715457D01*
X177914097Y-91657720D01*
X177864479Y-91537931D01*
X177864478Y-91537929D01*
X177853730Y-91521844D01*
X177757720Y-91378155D01*
X177757717Y-91378151D01*
X177621848Y-91242282D01*
X177621844Y-91242279D01*
X177462070Y-91135521D01*
X177462068Y-91135520D01*
X177284547Y-91061989D01*
X177284535Y-91061986D01*
X177096081Y-91024500D01*
X177096078Y-91024500D01*
X176903922Y-91024500D01*
X176903919Y-91024500D01*
X176715464Y-91061986D01*
X176715452Y-91061989D01*
X176537931Y-91135520D01*
X176537929Y-91135521D01*
X176378155Y-91242279D01*
X176378151Y-91242282D01*
X176242282Y-91378151D01*
X176242279Y-91378155D01*
X176135521Y-91537929D01*
X176135520Y-91537931D01*
X176061989Y-91715452D01*
X176061986Y-91715464D01*
X176024500Y-91903917D01*
X175435499Y-91903917D01*
X175398012Y-91715457D01*
X175374097Y-91657720D01*
X175324479Y-91537931D01*
X175324478Y-91537929D01*
X175313730Y-91521844D01*
X175217720Y-91378155D01*
X175217717Y-91378151D01*
X175081848Y-91242282D01*
X175081844Y-91242279D01*
X174922070Y-91135521D01*
X174922068Y-91135520D01*
X174744547Y-91061989D01*
X174744535Y-91061986D01*
X174556081Y-91024500D01*
X174556078Y-91024500D01*
X174363922Y-91024500D01*
X174363919Y-91024500D01*
X174175464Y-91061986D01*
X174175452Y-91061989D01*
X173997931Y-91135520D01*
X173997929Y-91135521D01*
X173838155Y-91242279D01*
X173838151Y-91242282D01*
X173702282Y-91378151D01*
X173702279Y-91378155D01*
X173595521Y-91537929D01*
X173595520Y-91537931D01*
X173521989Y-91715452D01*
X173521986Y-91715464D01*
X173484500Y-91903917D01*
X142675500Y-91903917D01*
X142675500Y-91803922D01*
X142675500Y-91803919D01*
X142675499Y-91803917D01*
X142667654Y-91764477D01*
X142638012Y-91615457D01*
X142599237Y-91521845D01*
X142564479Y-91437931D01*
X142564478Y-91437929D01*
X142524535Y-91378151D01*
X142457720Y-91278155D01*
X142457717Y-91278151D01*
X142321848Y-91142282D01*
X142321844Y-91142279D01*
X142162070Y-91035521D01*
X142162068Y-91035520D01*
X141984547Y-90961989D01*
X141984535Y-90961986D01*
X141796081Y-90924500D01*
X141796078Y-90924500D01*
X141603922Y-90924500D01*
X141603919Y-90924500D01*
X141415464Y-90961986D01*
X141415452Y-90961989D01*
X141237931Y-91035520D01*
X141237929Y-91035521D01*
X141078155Y-91142279D01*
X141078151Y-91142282D01*
X140942282Y-91278151D01*
X140942279Y-91278155D01*
X140835521Y-91437929D01*
X140835520Y-91437931D01*
X140761989Y-91615452D01*
X140761986Y-91615464D01*
X140724500Y-91803917D01*
X140135499Y-91803917D01*
X140127654Y-91764477D01*
X140098012Y-91615457D01*
X140059237Y-91521845D01*
X140024479Y-91437931D01*
X140024478Y-91437929D01*
X139984535Y-91378151D01*
X139917720Y-91278155D01*
X139917717Y-91278151D01*
X139781848Y-91142282D01*
X139781844Y-91142279D01*
X139622070Y-91035521D01*
X139622068Y-91035520D01*
X139444547Y-90961989D01*
X139444535Y-90961986D01*
X139256081Y-90924500D01*
X139256078Y-90924500D01*
X139063922Y-90924500D01*
X139063919Y-90924500D01*
X138875464Y-90961986D01*
X138875452Y-90961989D01*
X138697931Y-91035520D01*
X138697929Y-91035521D01*
X138538155Y-91142279D01*
X138538151Y-91142282D01*
X138402282Y-91278151D01*
X138402279Y-91278155D01*
X138295521Y-91437929D01*
X138295520Y-91437931D01*
X138221989Y-91615452D01*
X138221986Y-91615464D01*
X138184500Y-91803917D01*
X126625500Y-91803917D01*
X126625500Y-90803917D01*
X183599500Y-90803917D01*
X183599500Y-90996082D01*
X183636986Y-91184535D01*
X183636989Y-91184547D01*
X183710520Y-91362068D01*
X183710521Y-91362070D01*
X183817279Y-91521844D01*
X183817282Y-91521848D01*
X183953151Y-91657717D01*
X183953155Y-91657720D01*
X184112927Y-91764477D01*
X184112928Y-91764477D01*
X184112929Y-91764478D01*
X184112931Y-91764479D01*
X184208156Y-91803922D01*
X184290457Y-91838012D01*
X184478917Y-91875499D01*
X184478920Y-91875500D01*
X184478922Y-91875500D01*
X184921080Y-91875500D01*
X184921081Y-91875499D01*
X185109543Y-91838012D01*
X185287073Y-91764477D01*
X185446845Y-91657720D01*
X185582720Y-91521845D01*
X185689477Y-91362073D01*
X185763012Y-91184543D01*
X185800500Y-90996078D01*
X185800500Y-90803922D01*
X185800500Y-90803919D01*
X185800499Y-90803917D01*
X190799500Y-90803917D01*
X190799500Y-90996082D01*
X190836986Y-91184535D01*
X190836989Y-91184547D01*
X190910520Y-91362068D01*
X190910521Y-91362070D01*
X191017279Y-91521844D01*
X191017282Y-91521848D01*
X191153151Y-91657717D01*
X191153155Y-91657720D01*
X191312927Y-91764477D01*
X191312928Y-91764477D01*
X191312929Y-91764478D01*
X191312931Y-91764479D01*
X191408156Y-91803922D01*
X191490457Y-91838012D01*
X191678917Y-91875499D01*
X191678920Y-91875500D01*
X191678922Y-91875500D01*
X192121080Y-91875500D01*
X192121081Y-91875499D01*
X192309543Y-91838012D01*
X192487073Y-91764477D01*
X192646845Y-91657720D01*
X192782720Y-91521845D01*
X192889477Y-91362073D01*
X192963012Y-91184543D01*
X193000500Y-90996078D01*
X193000500Y-90803922D01*
X193000500Y-90803919D01*
X193000499Y-90803917D01*
X192963013Y-90615464D01*
X192963012Y-90615457D01*
X192889477Y-90437927D01*
X192782720Y-90278155D01*
X192782717Y-90278151D01*
X192646848Y-90142282D01*
X192646844Y-90142279D01*
X192487070Y-90035521D01*
X192487068Y-90035520D01*
X192309547Y-89961989D01*
X192309535Y-89961986D01*
X192121081Y-89924500D01*
X192121078Y-89924500D01*
X191678922Y-89924500D01*
X191678919Y-89924500D01*
X191490464Y-89961986D01*
X191490452Y-89961989D01*
X191312931Y-90035520D01*
X191312929Y-90035521D01*
X191153155Y-90142279D01*
X191153151Y-90142282D01*
X191017282Y-90278151D01*
X191017279Y-90278155D01*
X190910521Y-90437929D01*
X190910520Y-90437931D01*
X190836989Y-90615452D01*
X190836986Y-90615464D01*
X190799500Y-90803917D01*
X185800499Y-90803917D01*
X185763013Y-90615464D01*
X185763012Y-90615457D01*
X185689477Y-90437927D01*
X185582720Y-90278155D01*
X185582717Y-90278151D01*
X185446848Y-90142282D01*
X185446844Y-90142279D01*
X185287070Y-90035521D01*
X185287068Y-90035520D01*
X185109547Y-89961989D01*
X185109535Y-89961986D01*
X184921081Y-89924500D01*
X184921078Y-89924500D01*
X184478922Y-89924500D01*
X184478919Y-89924500D01*
X184290464Y-89961986D01*
X184290452Y-89961989D01*
X184112931Y-90035520D01*
X184112929Y-90035521D01*
X183953155Y-90142279D01*
X183953151Y-90142282D01*
X183817282Y-90278151D01*
X183817279Y-90278155D01*
X183710521Y-90437929D01*
X183710520Y-90437931D01*
X183636989Y-90615452D01*
X183636986Y-90615464D01*
X183599500Y-90803917D01*
X126625500Y-90803917D01*
X126625500Y-89263917D01*
X138184500Y-89263917D01*
X138184500Y-89456082D01*
X138221986Y-89644535D01*
X138221989Y-89644547D01*
X138295520Y-89822068D01*
X138295521Y-89822070D01*
X138402279Y-89981844D01*
X138402282Y-89981848D01*
X138538151Y-90117717D01*
X138538155Y-90117720D01*
X138697927Y-90224477D01*
X138697928Y-90224477D01*
X138697929Y-90224478D01*
X138697931Y-90224479D01*
X138875452Y-90298010D01*
X138875457Y-90298012D01*
X139008506Y-90324477D01*
X139063917Y-90335499D01*
X139063920Y-90335500D01*
X139063922Y-90335500D01*
X139256080Y-90335500D01*
X139256081Y-90335499D01*
X139444543Y-90298012D01*
X139622073Y-90224477D01*
X139781845Y-90117720D01*
X139917720Y-89981845D01*
X140024477Y-89822073D01*
X140098012Y-89644543D01*
X140135500Y-89456078D01*
X140135500Y-89263922D01*
X140135500Y-89263919D01*
X140135499Y-89263917D01*
X140724500Y-89263917D01*
X140724500Y-89456082D01*
X140761986Y-89644535D01*
X140761989Y-89644547D01*
X140835520Y-89822068D01*
X140835521Y-89822070D01*
X140942279Y-89981844D01*
X140942282Y-89981848D01*
X141078151Y-90117717D01*
X141078155Y-90117720D01*
X141237927Y-90224477D01*
X141237928Y-90224477D01*
X141237929Y-90224478D01*
X141237931Y-90224479D01*
X141415452Y-90298010D01*
X141415457Y-90298012D01*
X141548506Y-90324477D01*
X141603917Y-90335499D01*
X141603920Y-90335500D01*
X141603922Y-90335500D01*
X141796080Y-90335500D01*
X141796081Y-90335499D01*
X141984543Y-90298012D01*
X142162073Y-90224477D01*
X142321845Y-90117720D01*
X142457720Y-89981845D01*
X142564477Y-89822073D01*
X142638012Y-89644543D01*
X142675500Y-89456078D01*
X142675500Y-89363917D01*
X173484500Y-89363917D01*
X173484500Y-89556082D01*
X173521986Y-89744535D01*
X173521989Y-89744547D01*
X173595520Y-89922068D01*
X173595521Y-89922070D01*
X173702279Y-90081844D01*
X173702282Y-90081848D01*
X173838151Y-90217717D01*
X173838155Y-90217720D01*
X173997927Y-90324477D01*
X173997928Y-90324477D01*
X173997929Y-90324478D01*
X173997931Y-90324479D01*
X174175452Y-90398010D01*
X174175457Y-90398012D01*
X174363917Y-90435499D01*
X174363920Y-90435500D01*
X174363922Y-90435500D01*
X174556080Y-90435500D01*
X174556081Y-90435499D01*
X174744543Y-90398012D01*
X174922073Y-90324477D01*
X175081845Y-90217720D01*
X175217720Y-90081845D01*
X175324477Y-89922073D01*
X175398012Y-89744543D01*
X175435500Y-89556078D01*
X175435500Y-89363922D01*
X175435500Y-89363919D01*
X175435499Y-89363917D01*
X176024500Y-89363917D01*
X176024500Y-89556082D01*
X176061986Y-89744535D01*
X176061989Y-89744547D01*
X176135520Y-89922068D01*
X176135521Y-89922070D01*
X176242279Y-90081844D01*
X176242282Y-90081848D01*
X176378151Y-90217717D01*
X176378155Y-90217720D01*
X176537927Y-90324477D01*
X176537928Y-90324477D01*
X176537929Y-90324478D01*
X176537931Y-90324479D01*
X176715452Y-90398010D01*
X176715457Y-90398012D01*
X176903917Y-90435499D01*
X176903920Y-90435500D01*
X176903922Y-90435500D01*
X177096080Y-90435500D01*
X177096081Y-90435499D01*
X177284543Y-90398012D01*
X177462073Y-90324477D01*
X177621845Y-90217720D01*
X177757720Y-90081845D01*
X177864477Y-89922073D01*
X177938012Y-89744543D01*
X177975500Y-89556078D01*
X177975500Y-89363922D01*
X177975500Y-89363919D01*
X177975499Y-89363917D01*
X177970346Y-89338010D01*
X177938012Y-89175457D01*
X177896589Y-89075452D01*
X177864479Y-88997931D01*
X177864478Y-88997929D01*
X177757720Y-88838155D01*
X177757717Y-88838151D01*
X177621848Y-88702282D01*
X177621844Y-88702279D01*
X177462070Y-88595521D01*
X177462068Y-88595520D01*
X177284547Y-88521989D01*
X177284535Y-88521986D01*
X177096081Y-88484500D01*
X177096078Y-88484500D01*
X176903922Y-88484500D01*
X176903919Y-88484500D01*
X176715464Y-88521986D01*
X176715452Y-88521989D01*
X176537931Y-88595520D01*
X176537929Y-88595521D01*
X176378155Y-88702279D01*
X176378151Y-88702282D01*
X176242282Y-88838151D01*
X176242279Y-88838155D01*
X176135521Y-88997929D01*
X176135520Y-88997931D01*
X176061989Y-89175452D01*
X176061986Y-89175464D01*
X176024500Y-89363917D01*
X175435499Y-89363917D01*
X175430346Y-89338010D01*
X175398012Y-89175457D01*
X175356589Y-89075452D01*
X175324479Y-88997931D01*
X175324478Y-88997929D01*
X175217720Y-88838155D01*
X175217717Y-88838151D01*
X175081848Y-88702282D01*
X175081844Y-88702279D01*
X174922070Y-88595521D01*
X174922068Y-88595520D01*
X174744547Y-88521989D01*
X174744535Y-88521986D01*
X174556081Y-88484500D01*
X174556078Y-88484500D01*
X174363922Y-88484500D01*
X174363919Y-88484500D01*
X174175464Y-88521986D01*
X174175452Y-88521989D01*
X173997931Y-88595520D01*
X173997929Y-88595521D01*
X173838155Y-88702279D01*
X173838151Y-88702282D01*
X173702282Y-88838151D01*
X173702279Y-88838155D01*
X173595521Y-88997929D01*
X173595520Y-88997931D01*
X173521989Y-89175452D01*
X173521986Y-89175464D01*
X173484500Y-89363917D01*
X142675500Y-89363917D01*
X142675500Y-89263922D01*
X142675500Y-89263919D01*
X142675499Y-89263917D01*
X142638012Y-89075457D01*
X142564477Y-88897927D01*
X142457720Y-88738155D01*
X142457717Y-88738151D01*
X142321848Y-88602282D01*
X142321844Y-88602279D01*
X142162070Y-88495521D01*
X142162068Y-88495520D01*
X141984547Y-88421989D01*
X141984535Y-88421986D01*
X141971771Y-88419447D01*
X141796081Y-88384500D01*
X141796078Y-88384500D01*
X141603922Y-88384500D01*
X141603919Y-88384500D01*
X141415464Y-88421986D01*
X141415452Y-88421989D01*
X141237931Y-88495520D01*
X141237929Y-88495521D01*
X141078155Y-88602279D01*
X141078151Y-88602282D01*
X140942282Y-88738151D01*
X140942279Y-88738155D01*
X140835521Y-88897929D01*
X140835520Y-88897931D01*
X140761989Y-89075452D01*
X140761986Y-89075464D01*
X140724500Y-89263917D01*
X140135499Y-89263917D01*
X140098012Y-89075457D01*
X140024477Y-88897927D01*
X139917720Y-88738155D01*
X139917717Y-88738151D01*
X139781848Y-88602282D01*
X139781844Y-88602279D01*
X139622070Y-88495521D01*
X139622068Y-88495520D01*
X139444547Y-88421989D01*
X139444535Y-88421986D01*
X139256081Y-88384500D01*
X139256078Y-88384500D01*
X139063922Y-88384500D01*
X139063919Y-88384500D01*
X138875464Y-88421986D01*
X138875452Y-88421989D01*
X138697931Y-88495520D01*
X138697929Y-88495521D01*
X138538155Y-88602279D01*
X138538151Y-88602282D01*
X138402282Y-88738151D01*
X138402279Y-88738155D01*
X138295521Y-88897929D01*
X138295520Y-88897931D01*
X138221989Y-89075452D01*
X138221986Y-89075464D01*
X138184500Y-89263917D01*
X126625500Y-89263917D01*
X126625500Y-88303917D01*
X183599500Y-88303917D01*
X183599500Y-88496082D01*
X183636986Y-88684535D01*
X183636989Y-88684547D01*
X183710520Y-88862068D01*
X183710521Y-88862070D01*
X183817279Y-89021844D01*
X183817282Y-89021848D01*
X183953151Y-89157717D01*
X183953155Y-89157720D01*
X184112927Y-89264477D01*
X184112928Y-89264477D01*
X184112929Y-89264478D01*
X184112931Y-89264479D01*
X184290452Y-89338010D01*
X184290457Y-89338012D01*
X184478917Y-89375499D01*
X184478920Y-89375500D01*
X184478922Y-89375500D01*
X184921080Y-89375500D01*
X184921081Y-89375499D01*
X185109543Y-89338012D01*
X185287073Y-89264477D01*
X185446845Y-89157720D01*
X185582720Y-89021845D01*
X185689477Y-88862073D01*
X185763012Y-88684543D01*
X185800500Y-88496078D01*
X185800500Y-88303922D01*
X185800500Y-88303919D01*
X185800499Y-88303917D01*
X190799500Y-88303917D01*
X190799500Y-88496082D01*
X190836986Y-88684535D01*
X190836989Y-88684547D01*
X190910520Y-88862068D01*
X190910521Y-88862070D01*
X191017279Y-89021844D01*
X191017282Y-89021848D01*
X191153151Y-89157717D01*
X191153155Y-89157720D01*
X191312927Y-89264477D01*
X191312928Y-89264477D01*
X191312929Y-89264478D01*
X191312931Y-89264479D01*
X191490452Y-89338010D01*
X191490457Y-89338012D01*
X191678917Y-89375499D01*
X191678920Y-89375500D01*
X191678922Y-89375500D01*
X192121080Y-89375500D01*
X192121081Y-89375499D01*
X192309543Y-89338012D01*
X192487073Y-89264477D01*
X192646845Y-89157720D01*
X192782720Y-89021845D01*
X192889477Y-88862073D01*
X192963012Y-88684543D01*
X193000500Y-88496078D01*
X193000500Y-88303922D01*
X193000500Y-88303919D01*
X193000499Y-88303917D01*
X192963013Y-88115464D01*
X192963012Y-88115457D01*
X192889477Y-87937927D01*
X192782720Y-87778155D01*
X192782717Y-87778151D01*
X192646848Y-87642282D01*
X192646844Y-87642279D01*
X192487070Y-87535521D01*
X192487068Y-87535520D01*
X192309547Y-87461989D01*
X192309535Y-87461986D01*
X192121081Y-87424500D01*
X192121078Y-87424500D01*
X191678922Y-87424500D01*
X191678919Y-87424500D01*
X191490464Y-87461986D01*
X191490452Y-87461989D01*
X191312931Y-87535520D01*
X191312929Y-87535521D01*
X191153155Y-87642279D01*
X191153151Y-87642282D01*
X191017282Y-87778151D01*
X191017279Y-87778155D01*
X190910521Y-87937929D01*
X190910520Y-87937931D01*
X190836989Y-88115452D01*
X190836986Y-88115464D01*
X190799500Y-88303917D01*
X185800499Y-88303917D01*
X185763013Y-88115464D01*
X185763012Y-88115457D01*
X185689477Y-87937927D01*
X185582720Y-87778155D01*
X185582717Y-87778151D01*
X185446848Y-87642282D01*
X185446844Y-87642279D01*
X185287070Y-87535521D01*
X185287068Y-87535520D01*
X185109547Y-87461989D01*
X185109535Y-87461986D01*
X184921081Y-87424500D01*
X184921078Y-87424500D01*
X184478922Y-87424500D01*
X184478919Y-87424500D01*
X184290464Y-87461986D01*
X184290452Y-87461989D01*
X184112931Y-87535520D01*
X184112929Y-87535521D01*
X183953155Y-87642279D01*
X183953151Y-87642282D01*
X183817282Y-87778151D01*
X183817279Y-87778155D01*
X183710521Y-87937929D01*
X183710520Y-87937931D01*
X183636989Y-88115452D01*
X183636986Y-88115464D01*
X183599500Y-88303917D01*
X126625500Y-88303917D01*
X126625500Y-86723917D01*
X138184500Y-86723917D01*
X138184500Y-86916082D01*
X138221986Y-87104535D01*
X138221989Y-87104547D01*
X138295520Y-87282068D01*
X138295521Y-87282070D01*
X138402279Y-87441844D01*
X138402282Y-87441848D01*
X138538151Y-87577717D01*
X138538155Y-87577720D01*
X138697927Y-87684477D01*
X138697928Y-87684477D01*
X138697929Y-87684478D01*
X138697931Y-87684479D01*
X138875452Y-87758010D01*
X138875457Y-87758012D01*
X139008506Y-87784477D01*
X139063917Y-87795499D01*
X139063920Y-87795500D01*
X139063922Y-87795500D01*
X139256080Y-87795500D01*
X139256081Y-87795499D01*
X139444543Y-87758012D01*
X139622073Y-87684477D01*
X139781845Y-87577720D01*
X139917720Y-87441845D01*
X140024477Y-87282073D01*
X140098012Y-87104543D01*
X140135500Y-86916078D01*
X140135500Y-86723922D01*
X140135500Y-86723919D01*
X140135499Y-86723917D01*
X140724500Y-86723917D01*
X140724500Y-86916082D01*
X140761986Y-87104535D01*
X140761989Y-87104547D01*
X140835520Y-87282068D01*
X140835521Y-87282070D01*
X140942279Y-87441844D01*
X140942282Y-87441848D01*
X141078151Y-87577717D01*
X141078155Y-87577720D01*
X141237927Y-87684477D01*
X141237928Y-87684477D01*
X141237929Y-87684478D01*
X141237931Y-87684479D01*
X141415452Y-87758010D01*
X141415457Y-87758012D01*
X141548506Y-87784477D01*
X141603917Y-87795499D01*
X141603920Y-87795500D01*
X141603922Y-87795500D01*
X141796080Y-87795500D01*
X141796081Y-87795499D01*
X141984543Y-87758012D01*
X142162073Y-87684477D01*
X142321845Y-87577720D01*
X142457720Y-87441845D01*
X142564477Y-87282073D01*
X142638012Y-87104543D01*
X142675500Y-86916078D01*
X142675500Y-86823917D01*
X173484500Y-86823917D01*
X173484500Y-87016082D01*
X173521986Y-87204535D01*
X173521989Y-87204547D01*
X173595520Y-87382068D01*
X173595521Y-87382070D01*
X173702279Y-87541844D01*
X173702282Y-87541848D01*
X173838151Y-87677717D01*
X173838155Y-87677720D01*
X173997927Y-87784477D01*
X173997928Y-87784477D01*
X173997929Y-87784478D01*
X173997931Y-87784479D01*
X174175452Y-87858010D01*
X174175457Y-87858012D01*
X174363917Y-87895499D01*
X174363920Y-87895500D01*
X174363922Y-87895500D01*
X174556080Y-87895500D01*
X174556081Y-87895499D01*
X174744543Y-87858012D01*
X174922073Y-87784477D01*
X175081845Y-87677720D01*
X175217720Y-87541845D01*
X175324477Y-87382073D01*
X175398012Y-87204543D01*
X175435500Y-87016078D01*
X175435500Y-86823922D01*
X175435500Y-86823919D01*
X175435499Y-86823917D01*
X176024500Y-86823917D01*
X176024500Y-87016082D01*
X176061986Y-87204535D01*
X176061989Y-87204547D01*
X176135520Y-87382068D01*
X176135521Y-87382070D01*
X176242279Y-87541844D01*
X176242282Y-87541848D01*
X176378151Y-87677717D01*
X176378155Y-87677720D01*
X176537927Y-87784477D01*
X176537928Y-87784477D01*
X176537929Y-87784478D01*
X176537931Y-87784479D01*
X176715452Y-87858010D01*
X176715457Y-87858012D01*
X176903917Y-87895499D01*
X176903920Y-87895500D01*
X176903922Y-87895500D01*
X177096080Y-87895500D01*
X177096081Y-87895499D01*
X177284543Y-87858012D01*
X177462073Y-87784477D01*
X177621845Y-87677720D01*
X177757720Y-87541845D01*
X177864477Y-87382073D01*
X177938012Y-87204543D01*
X177975500Y-87016078D01*
X177975500Y-86823922D01*
X177975500Y-86823919D01*
X177975499Y-86823917D01*
X177938013Y-86635464D01*
X177938012Y-86635457D01*
X177864477Y-86457927D01*
X177757720Y-86298155D01*
X177757717Y-86298151D01*
X177621848Y-86162282D01*
X177621844Y-86162279D01*
X177462070Y-86055521D01*
X177462068Y-86055520D01*
X177284547Y-85981989D01*
X177284535Y-85981986D01*
X177096081Y-85944500D01*
X177096078Y-85944500D01*
X176903922Y-85944500D01*
X176903919Y-85944500D01*
X176715464Y-85981986D01*
X176715452Y-85981989D01*
X176537931Y-86055520D01*
X176537929Y-86055521D01*
X176378155Y-86162279D01*
X176378151Y-86162282D01*
X176242282Y-86298151D01*
X176242279Y-86298155D01*
X176135521Y-86457929D01*
X176135520Y-86457931D01*
X176061989Y-86635452D01*
X176061986Y-86635464D01*
X176024500Y-86823917D01*
X175435499Y-86823917D01*
X175398013Y-86635464D01*
X175398012Y-86635457D01*
X175324477Y-86457927D01*
X175217720Y-86298155D01*
X175217717Y-86298151D01*
X175081848Y-86162282D01*
X175081844Y-86162279D01*
X174922070Y-86055521D01*
X174922068Y-86055520D01*
X174744547Y-85981989D01*
X174744535Y-85981986D01*
X174556081Y-85944500D01*
X174556078Y-85944500D01*
X174363922Y-85944500D01*
X174363919Y-85944500D01*
X174175464Y-85981986D01*
X174175452Y-85981989D01*
X173997931Y-86055520D01*
X173997929Y-86055521D01*
X173838155Y-86162279D01*
X173838151Y-86162282D01*
X173702282Y-86298151D01*
X173702279Y-86298155D01*
X173595521Y-86457929D01*
X173595520Y-86457931D01*
X173521989Y-86635452D01*
X173521986Y-86635464D01*
X173484500Y-86823917D01*
X142675500Y-86823917D01*
X142675500Y-86723922D01*
X142675500Y-86723919D01*
X142675499Y-86723917D01*
X142638012Y-86535457D01*
X142564477Y-86357927D01*
X142457720Y-86198155D01*
X142457717Y-86198151D01*
X142321848Y-86062282D01*
X142321844Y-86062279D01*
X142162070Y-85955521D01*
X142162068Y-85955520D01*
X141984547Y-85881989D01*
X141984535Y-85881986D01*
X141796081Y-85844500D01*
X141796078Y-85844500D01*
X141603922Y-85844500D01*
X141603919Y-85844500D01*
X141415464Y-85881986D01*
X141415452Y-85881989D01*
X141237931Y-85955520D01*
X141237929Y-85955521D01*
X141078155Y-86062279D01*
X141078151Y-86062282D01*
X140942282Y-86198151D01*
X140942279Y-86198155D01*
X140835521Y-86357929D01*
X140835520Y-86357931D01*
X140761989Y-86535452D01*
X140761986Y-86535464D01*
X140724500Y-86723917D01*
X140135499Y-86723917D01*
X140098012Y-86535457D01*
X140024477Y-86357927D01*
X139917720Y-86198155D01*
X139917717Y-86198151D01*
X139781848Y-86062282D01*
X139781844Y-86062279D01*
X139622070Y-85955521D01*
X139622068Y-85955520D01*
X139444547Y-85881989D01*
X139444535Y-85881986D01*
X139256081Y-85844500D01*
X139256078Y-85844500D01*
X139063922Y-85844500D01*
X139063919Y-85844500D01*
X138875464Y-85881986D01*
X138875452Y-85881989D01*
X138697931Y-85955520D01*
X138697929Y-85955521D01*
X138538155Y-86062279D01*
X138538151Y-86062282D01*
X138402282Y-86198151D01*
X138402279Y-86198155D01*
X138295521Y-86357929D01*
X138295520Y-86357931D01*
X138221989Y-86535452D01*
X138221986Y-86535464D01*
X138184500Y-86723917D01*
X126625500Y-86723917D01*
X126625500Y-84183917D01*
X138184500Y-84183917D01*
X138184500Y-84376082D01*
X138221986Y-84564535D01*
X138221989Y-84564547D01*
X138295520Y-84742068D01*
X138295521Y-84742070D01*
X138402279Y-84901844D01*
X138402282Y-84901848D01*
X138538151Y-85037717D01*
X138538155Y-85037720D01*
X138697927Y-85144477D01*
X138697928Y-85144477D01*
X138697929Y-85144478D01*
X138697931Y-85144479D01*
X138875452Y-85218010D01*
X138875457Y-85218012D01*
X139008506Y-85244477D01*
X139063917Y-85255499D01*
X139063920Y-85255500D01*
X139063922Y-85255500D01*
X139256080Y-85255500D01*
X139256081Y-85255499D01*
X139444543Y-85218012D01*
X139622073Y-85144477D01*
X139781845Y-85037720D01*
X139917720Y-84901845D01*
X140024477Y-84742073D01*
X140098012Y-84564543D01*
X140135500Y-84376078D01*
X140135500Y-84183922D01*
X140135500Y-84183919D01*
X140135499Y-84183917D01*
X140724500Y-84183917D01*
X140724500Y-84376082D01*
X140761986Y-84564535D01*
X140761989Y-84564547D01*
X140835520Y-84742068D01*
X140835521Y-84742070D01*
X140942279Y-84901844D01*
X140942282Y-84901848D01*
X141078151Y-85037717D01*
X141078155Y-85037720D01*
X141237927Y-85144477D01*
X141237928Y-85144477D01*
X141237929Y-85144478D01*
X141237931Y-85144479D01*
X141415452Y-85218010D01*
X141415457Y-85218012D01*
X141548506Y-85244477D01*
X141603917Y-85255499D01*
X141603920Y-85255500D01*
X141603922Y-85255500D01*
X141796080Y-85255500D01*
X141796081Y-85255499D01*
X141984543Y-85218012D01*
X142162073Y-85144477D01*
X142321845Y-85037720D01*
X142457720Y-84901845D01*
X142564477Y-84742073D01*
X142638012Y-84564543D01*
X142675500Y-84376078D01*
X142675500Y-84283917D01*
X173484500Y-84283917D01*
X173484500Y-84476082D01*
X173521986Y-84664535D01*
X173521989Y-84664547D01*
X173595520Y-84842068D01*
X173595521Y-84842070D01*
X173702279Y-85001844D01*
X173702282Y-85001848D01*
X173838151Y-85137717D01*
X173838155Y-85137720D01*
X173997927Y-85244477D01*
X173997928Y-85244477D01*
X173997929Y-85244478D01*
X173997931Y-85244479D01*
X174175452Y-85318010D01*
X174175457Y-85318012D01*
X174363917Y-85355499D01*
X174363920Y-85355500D01*
X174363922Y-85355500D01*
X174556080Y-85355500D01*
X174556081Y-85355499D01*
X174744543Y-85318012D01*
X174922073Y-85244477D01*
X175081845Y-85137720D01*
X175217720Y-85001845D01*
X175324477Y-84842073D01*
X175398012Y-84664543D01*
X175435500Y-84476078D01*
X175435500Y-84283922D01*
X175435500Y-84283919D01*
X175435499Y-84283917D01*
X176024500Y-84283917D01*
X176024500Y-84476082D01*
X176061986Y-84664535D01*
X176061989Y-84664547D01*
X176135520Y-84842068D01*
X176135521Y-84842070D01*
X176242279Y-85001844D01*
X176242282Y-85001848D01*
X176378151Y-85137717D01*
X176378155Y-85137720D01*
X176537927Y-85244477D01*
X176537928Y-85244477D01*
X176537929Y-85244478D01*
X176537931Y-85244479D01*
X176715452Y-85318010D01*
X176715457Y-85318012D01*
X176903917Y-85355499D01*
X176903920Y-85355500D01*
X176903922Y-85355500D01*
X177096080Y-85355500D01*
X177096081Y-85355499D01*
X177284543Y-85318012D01*
X177462073Y-85244477D01*
X177621845Y-85137720D01*
X177757720Y-85001845D01*
X177864477Y-84842073D01*
X177938012Y-84664543D01*
X177975500Y-84476078D01*
X177975500Y-84283922D01*
X177975500Y-84283919D01*
X177975499Y-84283917D01*
X177938013Y-84095464D01*
X177938012Y-84095457D01*
X177864477Y-83917927D01*
X177757720Y-83758155D01*
X177757717Y-83758151D01*
X177621848Y-83622282D01*
X177621844Y-83622279D01*
X177462070Y-83515521D01*
X177462068Y-83515520D01*
X177284547Y-83441989D01*
X177284535Y-83441986D01*
X177096081Y-83404500D01*
X177096078Y-83404500D01*
X176903922Y-83404500D01*
X176903919Y-83404500D01*
X176715464Y-83441986D01*
X176715452Y-83441989D01*
X176537931Y-83515520D01*
X176537929Y-83515521D01*
X176378155Y-83622279D01*
X176378151Y-83622282D01*
X176242282Y-83758151D01*
X176242279Y-83758155D01*
X176135521Y-83917929D01*
X176135520Y-83917931D01*
X176061989Y-84095452D01*
X176061986Y-84095464D01*
X176024500Y-84283917D01*
X175435499Y-84283917D01*
X175398013Y-84095464D01*
X175398012Y-84095457D01*
X175324477Y-83917927D01*
X175217720Y-83758155D01*
X175217717Y-83758151D01*
X175081848Y-83622282D01*
X175081844Y-83622279D01*
X174922070Y-83515521D01*
X174922068Y-83515520D01*
X174744547Y-83441989D01*
X174744535Y-83441986D01*
X174556081Y-83404500D01*
X174556078Y-83404500D01*
X174363922Y-83404500D01*
X174363919Y-83404500D01*
X174175464Y-83441986D01*
X174175452Y-83441989D01*
X173997931Y-83515520D01*
X173997929Y-83515521D01*
X173838155Y-83622279D01*
X173838151Y-83622282D01*
X173702282Y-83758151D01*
X173702279Y-83758155D01*
X173595521Y-83917929D01*
X173595520Y-83917931D01*
X173521989Y-84095452D01*
X173521986Y-84095464D01*
X173484500Y-84283917D01*
X142675500Y-84283917D01*
X142675500Y-84183922D01*
X142675500Y-84183919D01*
X142675499Y-84183917D01*
X142638012Y-83995457D01*
X142564477Y-83817927D01*
X142457720Y-83658155D01*
X142457717Y-83658151D01*
X142321848Y-83522282D01*
X142321844Y-83522279D01*
X142162070Y-83415521D01*
X142162068Y-83415520D01*
X141984547Y-83341989D01*
X141984535Y-83341986D01*
X141796081Y-83304500D01*
X141796078Y-83304500D01*
X141603922Y-83304500D01*
X141603919Y-83304500D01*
X141415464Y-83341986D01*
X141415452Y-83341989D01*
X141237931Y-83415520D01*
X141237929Y-83415521D01*
X141078155Y-83522279D01*
X141078151Y-83522282D01*
X140942282Y-83658151D01*
X140942279Y-83658155D01*
X140835521Y-83817929D01*
X140835520Y-83817931D01*
X140761989Y-83995452D01*
X140761986Y-83995464D01*
X140724500Y-84183917D01*
X140135499Y-84183917D01*
X140098012Y-83995457D01*
X140024477Y-83817927D01*
X139917720Y-83658155D01*
X139917717Y-83658151D01*
X139781848Y-83522282D01*
X139781844Y-83522279D01*
X139622070Y-83415521D01*
X139622068Y-83415520D01*
X139444547Y-83341989D01*
X139444535Y-83341986D01*
X139256081Y-83304500D01*
X139256078Y-83304500D01*
X139063922Y-83304500D01*
X139063919Y-83304500D01*
X138875464Y-83341986D01*
X138875452Y-83341989D01*
X138697931Y-83415520D01*
X138697929Y-83415521D01*
X138538155Y-83522279D01*
X138538151Y-83522282D01*
X138402282Y-83658151D01*
X138402279Y-83658155D01*
X138295521Y-83817929D01*
X138295520Y-83817931D01*
X138221989Y-83995452D01*
X138221986Y-83995464D01*
X138184500Y-84183917D01*
X126625500Y-84183917D01*
X126625500Y-81643917D01*
X138184500Y-81643917D01*
X138184500Y-81836082D01*
X138221986Y-82024535D01*
X138221989Y-82024547D01*
X138295520Y-82202068D01*
X138295521Y-82202070D01*
X138402279Y-82361844D01*
X138402282Y-82361848D01*
X138538151Y-82497717D01*
X138538155Y-82497720D01*
X138697927Y-82604477D01*
X138697928Y-82604477D01*
X138697929Y-82604478D01*
X138697931Y-82604479D01*
X138875452Y-82678010D01*
X138875457Y-82678012D01*
X139008506Y-82704477D01*
X139063917Y-82715499D01*
X139063920Y-82715500D01*
X139063922Y-82715500D01*
X139256080Y-82715500D01*
X139256081Y-82715499D01*
X139444543Y-82678012D01*
X139622073Y-82604477D01*
X139781845Y-82497720D01*
X139917720Y-82361845D01*
X140024477Y-82202073D01*
X140098012Y-82024543D01*
X140135500Y-81836078D01*
X140135500Y-81643922D01*
X140135500Y-81643919D01*
X140135499Y-81643917D01*
X140724500Y-81643917D01*
X140724500Y-81836082D01*
X140761986Y-82024535D01*
X140761989Y-82024547D01*
X140835520Y-82202068D01*
X140835521Y-82202070D01*
X140942279Y-82361844D01*
X140942282Y-82361848D01*
X141078151Y-82497717D01*
X141078155Y-82497720D01*
X141237927Y-82604477D01*
X141237928Y-82604477D01*
X141237929Y-82604478D01*
X141237931Y-82604479D01*
X141415452Y-82678010D01*
X141415457Y-82678012D01*
X141548506Y-82704477D01*
X141603917Y-82715499D01*
X141603920Y-82715500D01*
X141603922Y-82715500D01*
X141796080Y-82715500D01*
X141796081Y-82715499D01*
X141984543Y-82678012D01*
X142162073Y-82604477D01*
X142321845Y-82497720D01*
X142457720Y-82361845D01*
X142564477Y-82202073D01*
X142638012Y-82024543D01*
X142675500Y-81836078D01*
X142675500Y-81743917D01*
X173484500Y-81743917D01*
X173484500Y-81936082D01*
X173521986Y-82124535D01*
X173521989Y-82124547D01*
X173595520Y-82302068D01*
X173595521Y-82302070D01*
X173702279Y-82461844D01*
X173702282Y-82461848D01*
X173838151Y-82597717D01*
X173838155Y-82597720D01*
X173997927Y-82704477D01*
X173997928Y-82704477D01*
X173997929Y-82704478D01*
X173997931Y-82704479D01*
X174175452Y-82778010D01*
X174175457Y-82778012D01*
X174363917Y-82815499D01*
X174363920Y-82815500D01*
X174363922Y-82815500D01*
X174556080Y-82815500D01*
X174556081Y-82815499D01*
X174744543Y-82778012D01*
X174922073Y-82704477D01*
X175081845Y-82597720D01*
X175217720Y-82461845D01*
X175324477Y-82302073D01*
X175398012Y-82124543D01*
X175435500Y-81936078D01*
X175435500Y-81743922D01*
X175435500Y-81743919D01*
X175435499Y-81743917D01*
X176024500Y-81743917D01*
X176024500Y-81936082D01*
X176061986Y-82124535D01*
X176061989Y-82124547D01*
X176135520Y-82302068D01*
X176135521Y-82302070D01*
X176242279Y-82461844D01*
X176242282Y-82461848D01*
X176378151Y-82597717D01*
X176378155Y-82597720D01*
X176537927Y-82704477D01*
X176537928Y-82704477D01*
X176537929Y-82704478D01*
X176537931Y-82704479D01*
X176715452Y-82778010D01*
X176715457Y-82778012D01*
X176903917Y-82815499D01*
X176903920Y-82815500D01*
X176903922Y-82815500D01*
X177096080Y-82815500D01*
X177096081Y-82815499D01*
X177284543Y-82778012D01*
X177462073Y-82704477D01*
X177621845Y-82597720D01*
X177757720Y-82461845D01*
X177864477Y-82302073D01*
X177938012Y-82124543D01*
X177975500Y-81936078D01*
X177975500Y-81743922D01*
X177975500Y-81743919D01*
X177975499Y-81743917D01*
X177943704Y-81584068D01*
X177939784Y-81564364D01*
X183599500Y-81564364D01*
X183599500Y-82835636D01*
X183610134Y-82908625D01*
X183610134Y-82908626D01*
X183610135Y-82908628D01*
X183665172Y-83021210D01*
X183753789Y-83109827D01*
X183861572Y-83162518D01*
X183866375Y-83164866D01*
X183939364Y-83175500D01*
X183939370Y-83175500D01*
X185460630Y-83175500D01*
X185460636Y-83175500D01*
X185533625Y-83164866D01*
X185591118Y-83136759D01*
X185646210Y-83109827D01*
X185734827Y-83021210D01*
X185761759Y-82966118D01*
X185789866Y-82908625D01*
X185800500Y-82835636D01*
X185800500Y-81564364D01*
X190774500Y-81564364D01*
X190774500Y-82835636D01*
X190785134Y-82908625D01*
X190785134Y-82908626D01*
X190785135Y-82908628D01*
X190840172Y-83021210D01*
X190928789Y-83109827D01*
X191036572Y-83162518D01*
X191041375Y-83164866D01*
X191114364Y-83175500D01*
X191114370Y-83175500D01*
X192635630Y-83175500D01*
X192635636Y-83175500D01*
X192708625Y-83164866D01*
X192766118Y-83136759D01*
X192821210Y-83109827D01*
X192909827Y-83021210D01*
X192936759Y-82966118D01*
X192964866Y-82908625D01*
X192975500Y-82835636D01*
X192975500Y-81564364D01*
X192964866Y-81491375D01*
X192947307Y-81455457D01*
X192909827Y-81378789D01*
X192821210Y-81290172D01*
X192708628Y-81235135D01*
X192708626Y-81235134D01*
X192708625Y-81235134D01*
X192635636Y-81224500D01*
X191114364Y-81224500D01*
X191041375Y-81235134D01*
X191041373Y-81235134D01*
X191041371Y-81235135D01*
X190928789Y-81290172D01*
X190840172Y-81378789D01*
X190785135Y-81491371D01*
X190785134Y-81491373D01*
X190785134Y-81491375D01*
X190774500Y-81564364D01*
X185800500Y-81564364D01*
X185789866Y-81491375D01*
X185772307Y-81455457D01*
X185734827Y-81378789D01*
X185646210Y-81290172D01*
X185533628Y-81235135D01*
X185533626Y-81235134D01*
X185533625Y-81235134D01*
X185460636Y-81224500D01*
X183939364Y-81224500D01*
X183866375Y-81235134D01*
X183866373Y-81235134D01*
X183866371Y-81235135D01*
X183753789Y-81290172D01*
X183665172Y-81378789D01*
X183610135Y-81491371D01*
X183610134Y-81491373D01*
X183610134Y-81491375D01*
X183599500Y-81564364D01*
X177939784Y-81564364D01*
X177938013Y-81555461D01*
X177938010Y-81555452D01*
X177864479Y-81377931D01*
X177864478Y-81377929D01*
X177805840Y-81290172D01*
X177757720Y-81218155D01*
X177757717Y-81218151D01*
X177621848Y-81082282D01*
X177621844Y-81082279D01*
X177462070Y-80975521D01*
X177462068Y-80975520D01*
X177284547Y-80901989D01*
X177284535Y-80901986D01*
X177096081Y-80864500D01*
X177096078Y-80864500D01*
X176903922Y-80864500D01*
X176903919Y-80864500D01*
X176715464Y-80901986D01*
X176715452Y-80901989D01*
X176537931Y-80975520D01*
X176537929Y-80975521D01*
X176378155Y-81082279D01*
X176378151Y-81082282D01*
X176242282Y-81218151D01*
X176242279Y-81218155D01*
X176135521Y-81377929D01*
X176135520Y-81377931D01*
X176061989Y-81555452D01*
X176061986Y-81555464D01*
X176024500Y-81743917D01*
X175435499Y-81743917D01*
X175403703Y-81584068D01*
X175398012Y-81555457D01*
X175398010Y-81555452D01*
X175324479Y-81377931D01*
X175324478Y-81377929D01*
X175265840Y-81290172D01*
X175217720Y-81218155D01*
X175217717Y-81218151D01*
X175081848Y-81082282D01*
X175081844Y-81082279D01*
X174922070Y-80975521D01*
X174922068Y-80975520D01*
X174744547Y-80901989D01*
X174744535Y-80901986D01*
X174556081Y-80864500D01*
X174556078Y-80864500D01*
X174363922Y-80864500D01*
X174363919Y-80864500D01*
X174175464Y-80901986D01*
X174175452Y-80901989D01*
X173997931Y-80975520D01*
X173997929Y-80975521D01*
X173838155Y-81082279D01*
X173838151Y-81082282D01*
X173702282Y-81218151D01*
X173702279Y-81218155D01*
X173595521Y-81377929D01*
X173595520Y-81377931D01*
X173521989Y-81555452D01*
X173521986Y-81555464D01*
X173484500Y-81743917D01*
X142675500Y-81743917D01*
X142675500Y-81643922D01*
X142675500Y-81643919D01*
X142675499Y-81643917D01*
X142659675Y-81564364D01*
X142638012Y-81455457D01*
X142564477Y-81277927D01*
X142457720Y-81118155D01*
X142457717Y-81118151D01*
X142321848Y-80982282D01*
X142321844Y-80982279D01*
X142162070Y-80875521D01*
X142162068Y-80875520D01*
X141984547Y-80801989D01*
X141984535Y-80801986D01*
X141796081Y-80764500D01*
X141796078Y-80764500D01*
X141603922Y-80764500D01*
X141603919Y-80764500D01*
X141415464Y-80801986D01*
X141415452Y-80801989D01*
X141237931Y-80875520D01*
X141237929Y-80875521D01*
X141078155Y-80982279D01*
X141078151Y-80982282D01*
X140942282Y-81118151D01*
X140942279Y-81118155D01*
X140835521Y-81277929D01*
X140835520Y-81277931D01*
X140761989Y-81455452D01*
X140761986Y-81455464D01*
X140724500Y-81643917D01*
X140135499Y-81643917D01*
X140119675Y-81564364D01*
X140098012Y-81455457D01*
X140024477Y-81277927D01*
X139917720Y-81118155D01*
X139917717Y-81118151D01*
X139781848Y-80982282D01*
X139781844Y-80982279D01*
X139622070Y-80875521D01*
X139622068Y-80875520D01*
X139444547Y-80801989D01*
X139444535Y-80801986D01*
X139256081Y-80764500D01*
X139256078Y-80764500D01*
X139063922Y-80764500D01*
X139063919Y-80764500D01*
X138875464Y-80801986D01*
X138875452Y-80801989D01*
X138697931Y-80875520D01*
X138697929Y-80875521D01*
X138538155Y-80982279D01*
X138538151Y-80982282D01*
X138402282Y-81118151D01*
X138402279Y-81118155D01*
X138295521Y-81277929D01*
X138295520Y-81277931D01*
X138221989Y-81455452D01*
X138221986Y-81455464D01*
X138184500Y-81643917D01*
X126625500Y-81643917D01*
X126625500Y-76616356D01*
X130649500Y-76616356D01*
X130649500Y-76708644D01*
X130673386Y-76797788D01*
X130673387Y-76797790D01*
X130673388Y-76797793D01*
X130719526Y-76877705D01*
X130719529Y-76877709D01*
X130719531Y-76877712D01*
X130784788Y-76942969D01*
X130784791Y-76942970D01*
X130784794Y-76942973D01*
X130864706Y-76989111D01*
X130864707Y-76989111D01*
X130864712Y-76989114D01*
X130953856Y-77013000D01*
X130953858Y-77013000D01*
X131046142Y-77013000D01*
X131046144Y-77013000D01*
X131135288Y-76989114D01*
X131215212Y-76942969D01*
X131280469Y-76877712D01*
X131308677Y-76828856D01*
X132649500Y-76828856D01*
X132649500Y-76921144D01*
X132668034Y-76990315D01*
X132673387Y-77010290D01*
X132673388Y-77010293D01*
X132719526Y-77090205D01*
X132719529Y-77090209D01*
X132719531Y-77090212D01*
X132784788Y-77155469D01*
X132784791Y-77155470D01*
X132784794Y-77155473D01*
X132864706Y-77201611D01*
X132864707Y-77201611D01*
X132864712Y-77201614D01*
X132953856Y-77225500D01*
X132953858Y-77225500D01*
X133046142Y-77225500D01*
X133046144Y-77225500D01*
X133135288Y-77201614D01*
X133215212Y-77155469D01*
X133280469Y-77090212D01*
X133326614Y-77010288D01*
X133350500Y-76921144D01*
X133350500Y-76828856D01*
X133326614Y-76739712D01*
X133325585Y-76737929D01*
X133280473Y-76659794D01*
X133280470Y-76659791D01*
X133280469Y-76659788D01*
X133215212Y-76594531D01*
X133215209Y-76594529D01*
X133215205Y-76594526D01*
X133144585Y-76553753D01*
X137810000Y-76553753D01*
X137810000Y-76766246D01*
X137843242Y-76976127D01*
X137843242Y-76976130D01*
X137908904Y-77178217D01*
X138005375Y-77367550D01*
X138044728Y-77421716D01*
X138677037Y-76789408D01*
X138694075Y-76852993D01*
X138759901Y-76967007D01*
X138852993Y-77060099D01*
X138967007Y-77125925D01*
X139030590Y-77142962D01*
X138398282Y-77775269D01*
X138398282Y-77775270D01*
X138452449Y-77814624D01*
X138641782Y-77911095D01*
X138843869Y-77976757D01*
X138843874Y-77976758D01*
X138973927Y-77997356D01*
X139037062Y-78027285D01*
X139073994Y-78086596D01*
X139072996Y-78156459D01*
X139034387Y-78214692D01*
X138978722Y-78241446D01*
X138875462Y-78261986D01*
X138875452Y-78261989D01*
X138697931Y-78335520D01*
X138697929Y-78335521D01*
X138538155Y-78442279D01*
X138538151Y-78442282D01*
X138402282Y-78578151D01*
X138402279Y-78578155D01*
X138295521Y-78737929D01*
X138295520Y-78737931D01*
X138221989Y-78915452D01*
X138221986Y-78915464D01*
X138184500Y-79103917D01*
X138184500Y-79296082D01*
X138221986Y-79484535D01*
X138221989Y-79484547D01*
X138295520Y-79662068D01*
X138295521Y-79662070D01*
X138402279Y-79821844D01*
X138402282Y-79821848D01*
X138538151Y-79957717D01*
X138538155Y-79957720D01*
X138697927Y-80064477D01*
X138697928Y-80064477D01*
X138697929Y-80064478D01*
X138697931Y-80064479D01*
X138875452Y-80138010D01*
X138875457Y-80138012D01*
X139008506Y-80164477D01*
X139063917Y-80175499D01*
X139063920Y-80175500D01*
X139063922Y-80175500D01*
X139256080Y-80175500D01*
X139256081Y-80175499D01*
X139444543Y-80138012D01*
X139622073Y-80064477D01*
X139781845Y-79957720D01*
X139917720Y-79821845D01*
X140024477Y-79662073D01*
X140098012Y-79484543D01*
X140135500Y-79296078D01*
X140135500Y-79103922D01*
X140135500Y-79103919D01*
X140135499Y-79103917D01*
X140130374Y-79078151D01*
X140098012Y-78915457D01*
X140065898Y-78837927D01*
X140024479Y-78737931D01*
X140024478Y-78737929D01*
X139984535Y-78678151D01*
X139917720Y-78578155D01*
X139917717Y-78578151D01*
X139781848Y-78442282D01*
X139781844Y-78442279D01*
X139622070Y-78335521D01*
X139622068Y-78335520D01*
X139444547Y-78261989D01*
X139444537Y-78261986D01*
X139341277Y-78241446D01*
X139279366Y-78209061D01*
X139244792Y-78148345D01*
X139248533Y-78078575D01*
X139289399Y-78021904D01*
X139346072Y-77997356D01*
X139476126Y-77976758D01*
X139476130Y-77976757D01*
X139678217Y-77911095D01*
X139867554Y-77814622D01*
X139921716Y-77775270D01*
X139921717Y-77775270D01*
X139289408Y-77142962D01*
X139352993Y-77125925D01*
X139467007Y-77060099D01*
X139560099Y-76967007D01*
X139625925Y-76852993D01*
X139642962Y-76789408D01*
X140312356Y-77458803D01*
X140345841Y-77520126D01*
X140344926Y-77534831D01*
X140347497Y-77534555D01*
X140356401Y-77617373D01*
X140356403Y-77617380D01*
X140406645Y-77752086D01*
X140406649Y-77752093D01*
X140492809Y-77867187D01*
X140492812Y-77867190D01*
X140607906Y-77953350D01*
X140607913Y-77953354D01*
X140742620Y-78003596D01*
X140742627Y-78003598D01*
X140802155Y-78009999D01*
X140802172Y-78010000D01*
X141423292Y-78010000D01*
X141490331Y-78029685D01*
X141536086Y-78082489D01*
X141546030Y-78151647D01*
X141517005Y-78215203D01*
X141458227Y-78252977D01*
X141447484Y-78255617D01*
X141415462Y-78261986D01*
X141415452Y-78261989D01*
X141237931Y-78335520D01*
X141237929Y-78335521D01*
X141078155Y-78442279D01*
X141078151Y-78442282D01*
X140942282Y-78578151D01*
X140942279Y-78578155D01*
X140835521Y-78737929D01*
X140835520Y-78737931D01*
X140761989Y-78915452D01*
X140761986Y-78915464D01*
X140724500Y-79103917D01*
X140724500Y-79296082D01*
X140761986Y-79484535D01*
X140761989Y-79484547D01*
X140835520Y-79662068D01*
X140835521Y-79662070D01*
X140942279Y-79821844D01*
X140942282Y-79821848D01*
X141078151Y-79957717D01*
X141078155Y-79957720D01*
X141237927Y-80064477D01*
X141237928Y-80064477D01*
X141237929Y-80064478D01*
X141237931Y-80064479D01*
X141415452Y-80138010D01*
X141415457Y-80138012D01*
X141548506Y-80164477D01*
X141603917Y-80175499D01*
X141603920Y-80175500D01*
X141603922Y-80175500D01*
X141796080Y-80175500D01*
X141796081Y-80175499D01*
X141984543Y-80138012D01*
X142162073Y-80064477D01*
X142321845Y-79957720D01*
X142457720Y-79821845D01*
X142564477Y-79662073D01*
X142638012Y-79484543D01*
X142675500Y-79296078D01*
X142675500Y-79103922D01*
X142675500Y-79103919D01*
X142675499Y-79103917D01*
X142670374Y-79078151D01*
X142638012Y-78915457D01*
X142605898Y-78837927D01*
X142564479Y-78737931D01*
X142564478Y-78737929D01*
X142524535Y-78678151D01*
X142457720Y-78578155D01*
X142457717Y-78578151D01*
X142321848Y-78442282D01*
X142321844Y-78442279D01*
X142162070Y-78335521D01*
X142162068Y-78335520D01*
X141984547Y-78261989D01*
X141984537Y-78261986D01*
X141952516Y-78255617D01*
X141890605Y-78223232D01*
X141856031Y-78162516D01*
X141859771Y-78092747D01*
X141900638Y-78036075D01*
X141965656Y-78010493D01*
X141976708Y-78010000D01*
X142597828Y-78010000D01*
X142597844Y-78009999D01*
X142657372Y-78003598D01*
X142657379Y-78003596D01*
X142792086Y-77953354D01*
X142792093Y-77953350D01*
X142907187Y-77867190D01*
X142907190Y-77867187D01*
X142993350Y-77752093D01*
X142993354Y-77752086D01*
X143043596Y-77617379D01*
X143043598Y-77617372D01*
X143049999Y-77557844D01*
X143050000Y-77557827D01*
X143050000Y-76910000D01*
X142133012Y-76910000D01*
X142165925Y-76852993D01*
X142200000Y-76725826D01*
X142200000Y-76594174D01*
X142172554Y-76491746D01*
X155724500Y-76491746D01*
X155724500Y-76708254D01*
X155729482Y-76739706D01*
X155758370Y-76922098D01*
X155825272Y-77128006D01*
X155825273Y-77128009D01*
X155892527Y-77260000D01*
X155923567Y-77320919D01*
X156050828Y-77496078D01*
X156203922Y-77649172D01*
X156379081Y-77776433D01*
X156417762Y-77796142D01*
X156571990Y-77874726D01*
X156571993Y-77874727D01*
X156604513Y-77885293D01*
X156777903Y-77941630D01*
X156991746Y-77975500D01*
X156991747Y-77975500D01*
X157208253Y-77975500D01*
X157208254Y-77975500D01*
X157422097Y-77941630D01*
X157628009Y-77874726D01*
X157820919Y-77776433D01*
X157920812Y-77703856D01*
X158712000Y-77703856D01*
X158712000Y-77796144D01*
X158733201Y-77875269D01*
X158735887Y-77885290D01*
X158735888Y-77885293D01*
X158782026Y-77965205D01*
X158782029Y-77965209D01*
X158782031Y-77965212D01*
X158847288Y-78030469D01*
X158847291Y-78030470D01*
X158847294Y-78030473D01*
X158927206Y-78076611D01*
X158927207Y-78076611D01*
X158927212Y-78076614D01*
X159016356Y-78100500D01*
X159016358Y-78100500D01*
X159108642Y-78100500D01*
X159108644Y-78100500D01*
X159197788Y-78076614D01*
X159277712Y-78030469D01*
X159342969Y-77965212D01*
X159389114Y-77885288D01*
X159397536Y-77853856D01*
X159862000Y-77853856D01*
X159862000Y-77946144D01*
X159879242Y-78010493D01*
X159885887Y-78035290D01*
X159885888Y-78035293D01*
X159932026Y-78115205D01*
X159932029Y-78115209D01*
X159932031Y-78115212D01*
X159997288Y-78180469D01*
X159997291Y-78180470D01*
X159997294Y-78180473D01*
X160077206Y-78226611D01*
X160077207Y-78226611D01*
X160077212Y-78226614D01*
X160166356Y-78250500D01*
X160166358Y-78250500D01*
X160258642Y-78250500D01*
X160258644Y-78250500D01*
X160347788Y-78226614D01*
X160427712Y-78180469D01*
X160492969Y-78115212D01*
X160539114Y-78035288D01*
X160563000Y-77946144D01*
X160563000Y-77853856D01*
X160539114Y-77764712D01*
X160539111Y-77764706D01*
X160492973Y-77684794D01*
X160492970Y-77684791D01*
X160492969Y-77684788D01*
X160427712Y-77619531D01*
X160427709Y-77619529D01*
X160427705Y-77619526D01*
X160347793Y-77573388D01*
X160347790Y-77573387D01*
X160347789Y-77573386D01*
X160347788Y-77573386D01*
X160258644Y-77549500D01*
X160166356Y-77549500D01*
X160077212Y-77573386D01*
X160077211Y-77573386D01*
X160077209Y-77573387D01*
X160077206Y-77573388D01*
X159997294Y-77619526D01*
X159997285Y-77619533D01*
X159932033Y-77684785D01*
X159932026Y-77684794D01*
X159885888Y-77764706D01*
X159885887Y-77764709D01*
X159885886Y-77764711D01*
X159885886Y-77764712D01*
X159862000Y-77853856D01*
X159397536Y-77853856D01*
X159413000Y-77796144D01*
X159413000Y-77703856D01*
X159389114Y-77614712D01*
X159389111Y-77614706D01*
X159342973Y-77534794D01*
X159342970Y-77534791D01*
X159342969Y-77534788D01*
X159277712Y-77469531D01*
X159277709Y-77469529D01*
X159277705Y-77469526D01*
X159197793Y-77423388D01*
X159197790Y-77423387D01*
X159197789Y-77423386D01*
X159197788Y-77423386D01*
X159108644Y-77399500D01*
X159016356Y-77399500D01*
X158927212Y-77423386D01*
X158927211Y-77423386D01*
X158927209Y-77423387D01*
X158927206Y-77423388D01*
X158847294Y-77469526D01*
X158847285Y-77469533D01*
X158782033Y-77534785D01*
X158782026Y-77534794D01*
X158735888Y-77614706D01*
X158735887Y-77614709D01*
X158735886Y-77614711D01*
X158735886Y-77614712D01*
X158712000Y-77703856D01*
X157920812Y-77703856D01*
X157996078Y-77649172D01*
X158149172Y-77496078D01*
X158276433Y-77320919D01*
X158374726Y-77128009D01*
X158441630Y-76922097D01*
X158468277Y-76753856D01*
X159862000Y-76753856D01*
X159862000Y-76846144D01*
X159882351Y-76922097D01*
X159885887Y-76935290D01*
X159885888Y-76935293D01*
X159932026Y-77015205D01*
X159932029Y-77015209D01*
X159932031Y-77015212D01*
X159997288Y-77080469D01*
X159997291Y-77080470D01*
X159997294Y-77080473D01*
X160077206Y-77126611D01*
X160077207Y-77126611D01*
X160077212Y-77126614D01*
X160166356Y-77150500D01*
X160166358Y-77150500D01*
X160258642Y-77150500D01*
X160258644Y-77150500D01*
X160347788Y-77126614D01*
X160427712Y-77080469D01*
X160492969Y-77015212D01*
X160539114Y-76935288D01*
X160563000Y-76846144D01*
X160563000Y-76753856D01*
X160539114Y-76664712D01*
X160539111Y-76664706D01*
X160532787Y-76653753D01*
X173110000Y-76653753D01*
X173110000Y-76866246D01*
X173143242Y-77076127D01*
X173143242Y-77076130D01*
X173208904Y-77278217D01*
X173305375Y-77467550D01*
X173344728Y-77521716D01*
X173977037Y-76889408D01*
X173994075Y-76952993D01*
X174059901Y-77067007D01*
X174152993Y-77160099D01*
X174267007Y-77225925D01*
X174330590Y-77242962D01*
X173698282Y-77875269D01*
X173698282Y-77875270D01*
X173752449Y-77914624D01*
X173941782Y-78011095D01*
X174143869Y-78076757D01*
X174143874Y-78076758D01*
X174273927Y-78097356D01*
X174337062Y-78127285D01*
X174373994Y-78186596D01*
X174372996Y-78256459D01*
X174334387Y-78314692D01*
X174278722Y-78341446D01*
X174175462Y-78361986D01*
X174175452Y-78361989D01*
X173997931Y-78435520D01*
X173997929Y-78435521D01*
X173838155Y-78542279D01*
X173838151Y-78542282D01*
X173702282Y-78678151D01*
X173702279Y-78678155D01*
X173595521Y-78837929D01*
X173595520Y-78837931D01*
X173521989Y-79015452D01*
X173521986Y-79015464D01*
X173484500Y-79203917D01*
X173484500Y-79396082D01*
X173521986Y-79584535D01*
X173521989Y-79584547D01*
X173595520Y-79762068D01*
X173595521Y-79762070D01*
X173702279Y-79921844D01*
X173702282Y-79921848D01*
X173838151Y-80057717D01*
X173838155Y-80057720D01*
X173997927Y-80164477D01*
X173997928Y-80164477D01*
X173997929Y-80164478D01*
X173997931Y-80164479D01*
X174175452Y-80238010D01*
X174175457Y-80238012D01*
X174363917Y-80275499D01*
X174363920Y-80275500D01*
X174363922Y-80275500D01*
X174556080Y-80275500D01*
X174556081Y-80275499D01*
X174744543Y-80238012D01*
X174922073Y-80164477D01*
X175081845Y-80057720D01*
X175217720Y-79921845D01*
X175324477Y-79762073D01*
X175398012Y-79584543D01*
X175435500Y-79396078D01*
X175435500Y-79203922D01*
X175435500Y-79203919D01*
X175435499Y-79203917D01*
X175410483Y-79078155D01*
X175398012Y-79015457D01*
X175324477Y-78837927D01*
X175217720Y-78678155D01*
X175217717Y-78678151D01*
X175081848Y-78542282D01*
X175081844Y-78542279D01*
X174922070Y-78435521D01*
X174922068Y-78435520D01*
X174744547Y-78361989D01*
X174744537Y-78361986D01*
X174641277Y-78341446D01*
X174579366Y-78309061D01*
X174544792Y-78248345D01*
X174548533Y-78178575D01*
X174589399Y-78121904D01*
X174646072Y-78097356D01*
X174776126Y-78076758D01*
X174776130Y-78076757D01*
X174978217Y-78011095D01*
X175167554Y-77914622D01*
X175221716Y-77875270D01*
X175221717Y-77875270D01*
X174589408Y-77242962D01*
X174652993Y-77225925D01*
X174767007Y-77160099D01*
X174860099Y-77067007D01*
X174925925Y-76952993D01*
X174942962Y-76889408D01*
X175612356Y-77558803D01*
X175645841Y-77620126D01*
X175644926Y-77634831D01*
X175647497Y-77634555D01*
X175656401Y-77717373D01*
X175656403Y-77717380D01*
X175706645Y-77852086D01*
X175706649Y-77852093D01*
X175792809Y-77967187D01*
X175792812Y-77967190D01*
X175907906Y-78053350D01*
X175907913Y-78053354D01*
X176042620Y-78103596D01*
X176042627Y-78103598D01*
X176102155Y-78109999D01*
X176102172Y-78110000D01*
X176723292Y-78110000D01*
X176790331Y-78129685D01*
X176836086Y-78182489D01*
X176846030Y-78251647D01*
X176817005Y-78315203D01*
X176758227Y-78352977D01*
X176747484Y-78355617D01*
X176715462Y-78361986D01*
X176715452Y-78361989D01*
X176537931Y-78435520D01*
X176537929Y-78435521D01*
X176378155Y-78542279D01*
X176378151Y-78542282D01*
X176242282Y-78678151D01*
X176242279Y-78678155D01*
X176135521Y-78837929D01*
X176135520Y-78837931D01*
X176061989Y-79015452D01*
X176061986Y-79015464D01*
X176024500Y-79203917D01*
X176024500Y-79396082D01*
X176061986Y-79584535D01*
X176061989Y-79584547D01*
X176135520Y-79762068D01*
X176135521Y-79762070D01*
X176242279Y-79921844D01*
X176242282Y-79921848D01*
X176378151Y-80057717D01*
X176378155Y-80057720D01*
X176537927Y-80164477D01*
X176537928Y-80164477D01*
X176537929Y-80164478D01*
X176537931Y-80164479D01*
X176715452Y-80238010D01*
X176715457Y-80238012D01*
X176903917Y-80275499D01*
X176903920Y-80275500D01*
X176903922Y-80275500D01*
X177096080Y-80275500D01*
X177096081Y-80275499D01*
X177284543Y-80238012D01*
X177462073Y-80164477D01*
X177621845Y-80057720D01*
X177757720Y-79921845D01*
X177864477Y-79762073D01*
X177929987Y-79603917D01*
X183599500Y-79603917D01*
X183599500Y-79796082D01*
X183636986Y-79984535D01*
X183636989Y-79984547D01*
X183710520Y-80162068D01*
X183710521Y-80162070D01*
X183817279Y-80321844D01*
X183817282Y-80321848D01*
X183953151Y-80457717D01*
X183953155Y-80457720D01*
X184112927Y-80564477D01*
X184112928Y-80564477D01*
X184112929Y-80564478D01*
X184112931Y-80564479D01*
X184290452Y-80638010D01*
X184290457Y-80638012D01*
X184478917Y-80675499D01*
X184478920Y-80675500D01*
X184478922Y-80675500D01*
X184921080Y-80675500D01*
X184921081Y-80675499D01*
X185109543Y-80638012D01*
X185287073Y-80564477D01*
X185446845Y-80457720D01*
X185582720Y-80321845D01*
X185689477Y-80162073D01*
X185763012Y-79984543D01*
X185800500Y-79796078D01*
X185800500Y-79603922D01*
X185800500Y-79603919D01*
X185800499Y-79603917D01*
X190774500Y-79603917D01*
X190774500Y-79796082D01*
X190811986Y-79984535D01*
X190811989Y-79984547D01*
X190885520Y-80162068D01*
X190885521Y-80162070D01*
X190992279Y-80321844D01*
X190992282Y-80321848D01*
X191128151Y-80457717D01*
X191128155Y-80457720D01*
X191287927Y-80564477D01*
X191287928Y-80564477D01*
X191287929Y-80564478D01*
X191287931Y-80564479D01*
X191465452Y-80638010D01*
X191465457Y-80638012D01*
X191653917Y-80675499D01*
X191653920Y-80675500D01*
X191653922Y-80675500D01*
X192096080Y-80675500D01*
X192096081Y-80675499D01*
X192284543Y-80638012D01*
X192462073Y-80564477D01*
X192621845Y-80457720D01*
X192757720Y-80321845D01*
X192864477Y-80162073D01*
X192938012Y-79984543D01*
X192975500Y-79796078D01*
X192975500Y-79603922D01*
X192975500Y-79603919D01*
X192975499Y-79603917D01*
X192938013Y-79415464D01*
X192938012Y-79415457D01*
X192929985Y-79396078D01*
X192864479Y-79237931D01*
X192864478Y-79237929D01*
X192757720Y-79078155D01*
X192757717Y-79078151D01*
X192621848Y-78942282D01*
X192621844Y-78942279D01*
X192462070Y-78835521D01*
X192462068Y-78835520D01*
X192284547Y-78761989D01*
X192284535Y-78761986D01*
X192096081Y-78724500D01*
X192096078Y-78724500D01*
X191653922Y-78724500D01*
X191653919Y-78724500D01*
X191465464Y-78761986D01*
X191465452Y-78761989D01*
X191287931Y-78835520D01*
X191287929Y-78835521D01*
X191128155Y-78942279D01*
X191128151Y-78942282D01*
X190992282Y-79078151D01*
X190992279Y-79078155D01*
X190885521Y-79237929D01*
X190885520Y-79237931D01*
X190811989Y-79415452D01*
X190811986Y-79415464D01*
X190774500Y-79603917D01*
X185800499Y-79603917D01*
X185763013Y-79415464D01*
X185763012Y-79415457D01*
X185754985Y-79396078D01*
X185689479Y-79237931D01*
X185689478Y-79237929D01*
X185582720Y-79078155D01*
X185582717Y-79078151D01*
X185446848Y-78942282D01*
X185446844Y-78942279D01*
X185287070Y-78835521D01*
X185287068Y-78835520D01*
X185109547Y-78761989D01*
X185109535Y-78761986D01*
X184921081Y-78724500D01*
X184921078Y-78724500D01*
X184478922Y-78724500D01*
X184478919Y-78724500D01*
X184290464Y-78761986D01*
X184290452Y-78761989D01*
X184112931Y-78835520D01*
X184112929Y-78835521D01*
X183953155Y-78942279D01*
X183953151Y-78942282D01*
X183817282Y-79078151D01*
X183817279Y-79078155D01*
X183710521Y-79237929D01*
X183710520Y-79237931D01*
X183636989Y-79415452D01*
X183636986Y-79415464D01*
X183599500Y-79603917D01*
X177929987Y-79603917D01*
X177938012Y-79584543D01*
X177949289Y-79527847D01*
X177975500Y-79396080D01*
X177975500Y-79203919D01*
X177975499Y-79203917D01*
X177950483Y-79078155D01*
X177938012Y-79015457D01*
X177864477Y-78837927D01*
X177757720Y-78678155D01*
X177757717Y-78678151D01*
X177621848Y-78542282D01*
X177621844Y-78542279D01*
X177462070Y-78435521D01*
X177462068Y-78435520D01*
X177284547Y-78361989D01*
X177284537Y-78361986D01*
X177252516Y-78355617D01*
X177190605Y-78323232D01*
X177156031Y-78262516D01*
X177159771Y-78192747D01*
X177200638Y-78136075D01*
X177265656Y-78110493D01*
X177276708Y-78110000D01*
X177897828Y-78110000D01*
X177897844Y-78109999D01*
X177957372Y-78103598D01*
X177957379Y-78103596D01*
X178092086Y-78053354D01*
X178092093Y-78053350D01*
X178207187Y-77967190D01*
X178207190Y-77967187D01*
X178293350Y-77852093D01*
X178293354Y-77852086D01*
X178343596Y-77717379D01*
X178343598Y-77717372D01*
X178349999Y-77657844D01*
X178350000Y-77657827D01*
X178350000Y-77103917D01*
X183599500Y-77103917D01*
X183599500Y-77296082D01*
X183636986Y-77484535D01*
X183636989Y-77484547D01*
X183710520Y-77662068D01*
X183710521Y-77662070D01*
X183817279Y-77821844D01*
X183817282Y-77821848D01*
X183953151Y-77957717D01*
X183953155Y-77957720D01*
X184112927Y-78064477D01*
X184112928Y-78064477D01*
X184112929Y-78064478D01*
X184112931Y-78064479D01*
X184290452Y-78138010D01*
X184290457Y-78138012D01*
X184478917Y-78175499D01*
X184478920Y-78175500D01*
X184478922Y-78175500D01*
X184921080Y-78175500D01*
X184921081Y-78175499D01*
X185109543Y-78138012D01*
X185287073Y-78064477D01*
X185446845Y-77957720D01*
X185582720Y-77821845D01*
X185689477Y-77662073D01*
X185763012Y-77484543D01*
X185800500Y-77296078D01*
X185800500Y-77103922D01*
X185800500Y-77103919D01*
X185800499Y-77103917D01*
X190774500Y-77103917D01*
X190774500Y-77296082D01*
X190811986Y-77484535D01*
X190811989Y-77484547D01*
X190885520Y-77662068D01*
X190885521Y-77662070D01*
X190992279Y-77821844D01*
X190992282Y-77821848D01*
X191128151Y-77957717D01*
X191128155Y-77957720D01*
X191287927Y-78064477D01*
X191287928Y-78064477D01*
X191287929Y-78064478D01*
X191287931Y-78064479D01*
X191465452Y-78138010D01*
X191465457Y-78138012D01*
X191653917Y-78175499D01*
X191653920Y-78175500D01*
X191653922Y-78175500D01*
X192096080Y-78175500D01*
X192096081Y-78175499D01*
X192284543Y-78138012D01*
X192462073Y-78064477D01*
X192621845Y-77957720D01*
X192757720Y-77821845D01*
X192864477Y-77662073D01*
X192938012Y-77484543D01*
X192975500Y-77296078D01*
X192975500Y-77103922D01*
X192975500Y-77103919D01*
X192975499Y-77103917D01*
X192972773Y-77090212D01*
X192938012Y-76915457D01*
X192925811Y-76886000D01*
X192864479Y-76737931D01*
X192864478Y-76737929D01*
X192856803Y-76726443D01*
X192757720Y-76578155D01*
X192757717Y-76578151D01*
X192621848Y-76442282D01*
X192621844Y-76442279D01*
X192462070Y-76335521D01*
X192462068Y-76335520D01*
X192284547Y-76261989D01*
X192284535Y-76261986D01*
X192096081Y-76224500D01*
X192096078Y-76224500D01*
X191653922Y-76224500D01*
X191653919Y-76224500D01*
X191465464Y-76261986D01*
X191465452Y-76261989D01*
X191287931Y-76335520D01*
X191287929Y-76335521D01*
X191128155Y-76442279D01*
X191128151Y-76442282D01*
X190992282Y-76578151D01*
X190992279Y-76578155D01*
X190885521Y-76737929D01*
X190885520Y-76737931D01*
X190811989Y-76915452D01*
X190811986Y-76915464D01*
X190774500Y-77103917D01*
X185800499Y-77103917D01*
X185797773Y-77090212D01*
X185763012Y-76915457D01*
X185750811Y-76886000D01*
X185689479Y-76737931D01*
X185689478Y-76737929D01*
X185681803Y-76726443D01*
X185582720Y-76578155D01*
X185582717Y-76578151D01*
X185446848Y-76442282D01*
X185446844Y-76442279D01*
X185287070Y-76335521D01*
X185287068Y-76335520D01*
X185109547Y-76261989D01*
X185109535Y-76261986D01*
X184921081Y-76224500D01*
X184921078Y-76224500D01*
X184478922Y-76224500D01*
X184478919Y-76224500D01*
X184290464Y-76261986D01*
X184290452Y-76261989D01*
X184112931Y-76335520D01*
X184112929Y-76335521D01*
X183953155Y-76442279D01*
X183953151Y-76442282D01*
X183817282Y-76578151D01*
X183817279Y-76578155D01*
X183710521Y-76737929D01*
X183710520Y-76737931D01*
X183636989Y-76915452D01*
X183636986Y-76915464D01*
X183599500Y-77103917D01*
X178350000Y-77103917D01*
X178350000Y-77010000D01*
X177433012Y-77010000D01*
X177465925Y-76952993D01*
X177500000Y-76825826D01*
X177500000Y-76694174D01*
X177465925Y-76567007D01*
X177433012Y-76510000D01*
X178350000Y-76510000D01*
X178350000Y-75862172D01*
X178349999Y-75862155D01*
X178343598Y-75802627D01*
X178343596Y-75802620D01*
X178293354Y-75667913D01*
X178293350Y-75667906D01*
X178207190Y-75552812D01*
X178207187Y-75552809D01*
X178092093Y-75466649D01*
X178092086Y-75466645D01*
X177957379Y-75416403D01*
X177957372Y-75416401D01*
X177897844Y-75410000D01*
X177250000Y-75410000D01*
X177250000Y-76326988D01*
X177192993Y-76294075D01*
X177065826Y-76260000D01*
X176934174Y-76260000D01*
X176807007Y-76294075D01*
X176750000Y-76326988D01*
X176750000Y-75410000D01*
X176102155Y-75410000D01*
X176042627Y-75416401D01*
X176042620Y-75416403D01*
X175907913Y-75466645D01*
X175907906Y-75466649D01*
X175792812Y-75552809D01*
X175792809Y-75552812D01*
X175706649Y-75667906D01*
X175706645Y-75667913D01*
X175656403Y-75802619D01*
X175656401Y-75802626D01*
X175647497Y-75885444D01*
X175644434Y-75885114D01*
X175645336Y-75902094D01*
X175612356Y-75961195D01*
X174942962Y-76630590D01*
X174925925Y-76567007D01*
X174860099Y-76452993D01*
X174767007Y-76359901D01*
X174652993Y-76294075D01*
X174589409Y-76277037D01*
X175221716Y-75644728D01*
X175167550Y-75605375D01*
X174978217Y-75508904D01*
X174776129Y-75443242D01*
X174566246Y-75410000D01*
X174353754Y-75410000D01*
X174143872Y-75443242D01*
X174143869Y-75443242D01*
X173941782Y-75508904D01*
X173752439Y-75605380D01*
X173698282Y-75644727D01*
X173698282Y-75644728D01*
X174330591Y-76277037D01*
X174267007Y-76294075D01*
X174152993Y-76359901D01*
X174059901Y-76452993D01*
X173994075Y-76567007D01*
X173977037Y-76630591D01*
X173344728Y-75998282D01*
X173344727Y-75998282D01*
X173305380Y-76052439D01*
X173208904Y-76241782D01*
X173143242Y-76443869D01*
X173143242Y-76443872D01*
X173110000Y-76653753D01*
X160532787Y-76653753D01*
X160492973Y-76584794D01*
X160492970Y-76584791D01*
X160492969Y-76584788D01*
X160427712Y-76519531D01*
X160427709Y-76519529D01*
X160427705Y-76519526D01*
X160347793Y-76473388D01*
X160347790Y-76473387D01*
X160347789Y-76473386D01*
X160347788Y-76473386D01*
X160258644Y-76449500D01*
X160166356Y-76449500D01*
X160077212Y-76473386D01*
X160077211Y-76473386D01*
X160077209Y-76473387D01*
X160077206Y-76473388D01*
X159997294Y-76519526D01*
X159997285Y-76519533D01*
X159932033Y-76584785D01*
X159932026Y-76584794D01*
X159885888Y-76664706D01*
X159885887Y-76664709D01*
X159885886Y-76664711D01*
X159885886Y-76664712D01*
X159862000Y-76753856D01*
X158468277Y-76753856D01*
X158475500Y-76708254D01*
X158475500Y-76491746D01*
X158441630Y-76277903D01*
X158408178Y-76174947D01*
X158374727Y-76071993D01*
X158374726Y-76071990D01*
X158339076Y-76002024D01*
X158314533Y-75953856D01*
X158712000Y-75953856D01*
X158712000Y-76046144D01*
X158718926Y-76071993D01*
X158735887Y-76135290D01*
X158735888Y-76135293D01*
X158782026Y-76215205D01*
X158782029Y-76215209D01*
X158782031Y-76215212D01*
X158847288Y-76280469D01*
X158847291Y-76280470D01*
X158847294Y-76280473D01*
X158927206Y-76326611D01*
X158927207Y-76326611D01*
X158927212Y-76326614D01*
X159016356Y-76350500D01*
X159016358Y-76350500D01*
X159108642Y-76350500D01*
X159108644Y-76350500D01*
X159197788Y-76326614D01*
X159277712Y-76280469D01*
X159342969Y-76215212D01*
X159389114Y-76135288D01*
X159413000Y-76046144D01*
X159413000Y-75953856D01*
X159389114Y-75864712D01*
X159387638Y-75862155D01*
X159342973Y-75784794D01*
X159342970Y-75784791D01*
X159342969Y-75784788D01*
X159277712Y-75719531D01*
X159277709Y-75719529D01*
X159277705Y-75719526D01*
X159197793Y-75673388D01*
X159197790Y-75673387D01*
X159197789Y-75673386D01*
X159197788Y-75673386D01*
X159124901Y-75653856D01*
X159862000Y-75653856D01*
X159862000Y-75746144D01*
X159877134Y-75802626D01*
X159885887Y-75835290D01*
X159885888Y-75835293D01*
X159932026Y-75915205D01*
X159932029Y-75915209D01*
X159932031Y-75915212D01*
X159997288Y-75980469D01*
X159997291Y-75980470D01*
X159997294Y-75980473D01*
X160077206Y-76026611D01*
X160077207Y-76026611D01*
X160077212Y-76026614D01*
X160166356Y-76050500D01*
X160166358Y-76050500D01*
X160258642Y-76050500D01*
X160258644Y-76050500D01*
X160347788Y-76026614D01*
X160427712Y-75980469D01*
X160492969Y-75915212D01*
X160539114Y-75835288D01*
X160563000Y-75746144D01*
X160563000Y-75653856D01*
X160539114Y-75564712D01*
X160539111Y-75564706D01*
X160492973Y-75484794D01*
X160492970Y-75484791D01*
X160492969Y-75484788D01*
X160427712Y-75419531D01*
X160427709Y-75419529D01*
X160427705Y-75419526D01*
X160347793Y-75373388D01*
X160347790Y-75373387D01*
X160347789Y-75373386D01*
X160347788Y-75373386D01*
X160258644Y-75349500D01*
X160166356Y-75349500D01*
X160077212Y-75373386D01*
X160077211Y-75373386D01*
X160077209Y-75373387D01*
X160077206Y-75373388D01*
X159997294Y-75419526D01*
X159997285Y-75419533D01*
X159932033Y-75484785D01*
X159932026Y-75484794D01*
X159885888Y-75564706D01*
X159885887Y-75564709D01*
X159885886Y-75564711D01*
X159885886Y-75564712D01*
X159862000Y-75653856D01*
X159124901Y-75653856D01*
X159108644Y-75649500D01*
X159016356Y-75649500D01*
X158927212Y-75673386D01*
X158927211Y-75673386D01*
X158927209Y-75673387D01*
X158927206Y-75673388D01*
X158847294Y-75719526D01*
X158847285Y-75719533D01*
X158782033Y-75784785D01*
X158782026Y-75784794D01*
X158735888Y-75864706D01*
X158735887Y-75864709D01*
X158735886Y-75864711D01*
X158735886Y-75864712D01*
X158712000Y-75953856D01*
X158314533Y-75953856D01*
X158313811Y-75952439D01*
X158276433Y-75879081D01*
X158149172Y-75703922D01*
X157996078Y-75550828D01*
X157820919Y-75423567D01*
X157806855Y-75416401D01*
X157628009Y-75325273D01*
X157628006Y-75325272D01*
X157422098Y-75258370D01*
X157315175Y-75241435D01*
X157208254Y-75224500D01*
X156991746Y-75224500D01*
X156920465Y-75235790D01*
X156777901Y-75258370D01*
X156571993Y-75325272D01*
X156571990Y-75325273D01*
X156379080Y-75423567D01*
X156279145Y-75496174D01*
X156203922Y-75550828D01*
X156203920Y-75550830D01*
X156203919Y-75550830D01*
X156050830Y-75703919D01*
X156050830Y-75703920D01*
X156050828Y-75703922D01*
X156039486Y-75719533D01*
X155923567Y-75879080D01*
X155825273Y-76071990D01*
X155825272Y-76071993D01*
X155758370Y-76277901D01*
X155732335Y-76442279D01*
X155724500Y-76491746D01*
X142172554Y-76491746D01*
X142165925Y-76467007D01*
X142133012Y-76410000D01*
X143050000Y-76410000D01*
X143050000Y-75762172D01*
X143049999Y-75762155D01*
X143043598Y-75702627D01*
X143043596Y-75702620D01*
X142993354Y-75567913D01*
X142993350Y-75567906D01*
X142907190Y-75452812D01*
X142907187Y-75452809D01*
X142792093Y-75366649D01*
X142792086Y-75366645D01*
X142657379Y-75316403D01*
X142657372Y-75316401D01*
X142597844Y-75310000D01*
X141950000Y-75310000D01*
X141950000Y-76226988D01*
X141892993Y-76194075D01*
X141765826Y-76160000D01*
X141634174Y-76160000D01*
X141507007Y-76194075D01*
X141450000Y-76226988D01*
X141450000Y-75310000D01*
X140802155Y-75310000D01*
X140742627Y-75316401D01*
X140742620Y-75316403D01*
X140607913Y-75366645D01*
X140607906Y-75366649D01*
X140492812Y-75452809D01*
X140492809Y-75452812D01*
X140406649Y-75567906D01*
X140406645Y-75567913D01*
X140356403Y-75702619D01*
X140356401Y-75702626D01*
X140347497Y-75785444D01*
X140344434Y-75785114D01*
X140345336Y-75802094D01*
X140312356Y-75861195D01*
X139642962Y-76530590D01*
X139625925Y-76467007D01*
X139560099Y-76352993D01*
X139467007Y-76259901D01*
X139352993Y-76194075D01*
X139289409Y-76177037D01*
X139921716Y-75544728D01*
X139867550Y-75505375D01*
X139678217Y-75408904D01*
X139476129Y-75343242D01*
X139266246Y-75310000D01*
X139053754Y-75310000D01*
X138843872Y-75343242D01*
X138843869Y-75343242D01*
X138641782Y-75408904D01*
X138452439Y-75505380D01*
X138398282Y-75544727D01*
X138398282Y-75544728D01*
X139030591Y-76177037D01*
X138967007Y-76194075D01*
X138852993Y-76259901D01*
X138759901Y-76352993D01*
X138694075Y-76467007D01*
X138677037Y-76530591D01*
X138044728Y-75898282D01*
X138044727Y-75898282D01*
X138005380Y-75952439D01*
X137908904Y-76141782D01*
X137843242Y-76343869D01*
X137843242Y-76343872D01*
X137810000Y-76553753D01*
X133144585Y-76553753D01*
X133135293Y-76548388D01*
X133135290Y-76548387D01*
X133135289Y-76548386D01*
X133135288Y-76548386D01*
X133046144Y-76524500D01*
X132953856Y-76524500D01*
X132864712Y-76548386D01*
X132864711Y-76548386D01*
X132864709Y-76548387D01*
X132864706Y-76548388D01*
X132784794Y-76594526D01*
X132784785Y-76594533D01*
X132719533Y-76659785D01*
X132719526Y-76659794D01*
X132673388Y-76739706D01*
X132673387Y-76739709D01*
X132673386Y-76739711D01*
X132673386Y-76739712D01*
X132649500Y-76828856D01*
X131308677Y-76828856D01*
X131326614Y-76797788D01*
X131350500Y-76708644D01*
X131350500Y-76616356D01*
X131326614Y-76527212D01*
X131326611Y-76527206D01*
X131280473Y-76447294D01*
X131280470Y-76447291D01*
X131280469Y-76447288D01*
X131215212Y-76382031D01*
X131215209Y-76382029D01*
X131215205Y-76382026D01*
X131135293Y-76335888D01*
X131135290Y-76335887D01*
X131135289Y-76335886D01*
X131135288Y-76335886D01*
X131046144Y-76312000D01*
X130953856Y-76312000D01*
X130864712Y-76335886D01*
X130864711Y-76335886D01*
X130864709Y-76335887D01*
X130864706Y-76335888D01*
X130784794Y-76382026D01*
X130784785Y-76382033D01*
X130719533Y-76447285D01*
X130719526Y-76447294D01*
X130673388Y-76527206D01*
X130673387Y-76527209D01*
X130673386Y-76527211D01*
X130673386Y-76527212D01*
X130649500Y-76616356D01*
X126625500Y-76616356D01*
X126625500Y-70502706D01*
X126625618Y-70497297D01*
X126632601Y-70337351D01*
X126643813Y-70080542D01*
X126644752Y-70069813D01*
X126668832Y-69886911D01*
X129274500Y-69886911D01*
X129274500Y-70113088D01*
X129274501Y-70113104D01*
X129304023Y-70337347D01*
X129362567Y-70555834D01*
X129449120Y-70764794D01*
X129449127Y-70764809D01*
X129562220Y-70960692D01*
X129699915Y-71140140D01*
X129699921Y-71140147D01*
X129859852Y-71300078D01*
X129859859Y-71300084D01*
X130039307Y-71437779D01*
X130235190Y-71550872D01*
X130235205Y-71550879D01*
X130325259Y-71588180D01*
X130444166Y-71637433D01*
X130662649Y-71695976D01*
X130886905Y-71725500D01*
X130886912Y-71725500D01*
X131113088Y-71725500D01*
X131113095Y-71725500D01*
X131337351Y-71695976D01*
X131555834Y-71637433D01*
X131764806Y-71550874D01*
X131960693Y-71437779D01*
X132140142Y-71300083D01*
X132300083Y-71140142D01*
X132437779Y-70960693D01*
X132550874Y-70764806D01*
X132637433Y-70555834D01*
X132695976Y-70337351D01*
X132725500Y-70113095D01*
X132725500Y-69886911D01*
X136774500Y-69886911D01*
X136774500Y-70113088D01*
X136774501Y-70113104D01*
X136804023Y-70337347D01*
X136862567Y-70555834D01*
X136949120Y-70764794D01*
X136949127Y-70764809D01*
X137062220Y-70960692D01*
X137199915Y-71140140D01*
X137199921Y-71140147D01*
X137359852Y-71300078D01*
X137359859Y-71300084D01*
X137539307Y-71437779D01*
X137735190Y-71550872D01*
X137735205Y-71550879D01*
X137825259Y-71588180D01*
X137944166Y-71637433D01*
X138162649Y-71695976D01*
X138386905Y-71725500D01*
X138386912Y-71725500D01*
X138613088Y-71725500D01*
X138613095Y-71725500D01*
X138837351Y-71695976D01*
X139055834Y-71637433D01*
X139264806Y-71550874D01*
X139460693Y-71437779D01*
X139640142Y-71300083D01*
X139800083Y-71140142D01*
X139937779Y-70960693D01*
X140050874Y-70764806D01*
X140137433Y-70555834D01*
X140195976Y-70337351D01*
X140225500Y-70113095D01*
X140225500Y-69886905D01*
X140195976Y-69662649D01*
X140189079Y-69636911D01*
X191024500Y-69636911D01*
X191024500Y-69863088D01*
X191024501Y-69863104D01*
X191054023Y-70087347D01*
X191112567Y-70305834D01*
X191199120Y-70514794D01*
X191199127Y-70514809D01*
X191312220Y-70710692D01*
X191449915Y-70890140D01*
X191449921Y-70890147D01*
X191609852Y-71050078D01*
X191609859Y-71050084D01*
X191789307Y-71187779D01*
X191985190Y-71300872D01*
X191985205Y-71300879D01*
X192075259Y-71338180D01*
X192194166Y-71387433D01*
X192412649Y-71445976D01*
X192636905Y-71475500D01*
X192636912Y-71475500D01*
X192863088Y-71475500D01*
X192863095Y-71475500D01*
X193087351Y-71445976D01*
X193305834Y-71387433D01*
X193514806Y-71300874D01*
X193710693Y-71187779D01*
X193890142Y-71050083D01*
X194050083Y-70890142D01*
X194187779Y-70710693D01*
X194300874Y-70514806D01*
X194387433Y-70305834D01*
X194445976Y-70087351D01*
X194475500Y-69863095D01*
X194475500Y-69636905D01*
X194445976Y-69412649D01*
X194387433Y-69194166D01*
X194329315Y-69053856D01*
X194300879Y-68985205D01*
X194300872Y-68985190D01*
X194187779Y-68789307D01*
X194050084Y-68609859D01*
X194050078Y-68609852D01*
X193890147Y-68449921D01*
X193890140Y-68449915D01*
X193710692Y-68312220D01*
X193514809Y-68199127D01*
X193514794Y-68199120D01*
X193305834Y-68112567D01*
X193137856Y-68067557D01*
X193087351Y-68054024D01*
X193087350Y-68054023D01*
X193087347Y-68054023D01*
X192863104Y-68024501D01*
X192863101Y-68024500D01*
X192863095Y-68024500D01*
X192636905Y-68024500D01*
X192636899Y-68024500D01*
X192636895Y-68024501D01*
X192412652Y-68054023D01*
X192194165Y-68112567D01*
X191985205Y-68199120D01*
X191985190Y-68199127D01*
X191789307Y-68312220D01*
X191609859Y-68449915D01*
X191609852Y-68449921D01*
X191449921Y-68609852D01*
X191449915Y-68609859D01*
X191312220Y-68789307D01*
X191199127Y-68985190D01*
X191199120Y-68985205D01*
X191112567Y-69194165D01*
X191054023Y-69412652D01*
X191024501Y-69636895D01*
X191024500Y-69636911D01*
X140189079Y-69636911D01*
X140137433Y-69444166D01*
X140050874Y-69235194D01*
X140027187Y-69194166D01*
X139977284Y-69107730D01*
X139977283Y-69107729D01*
X139946179Y-69053856D01*
X169062000Y-69053856D01*
X169062000Y-69146144D01*
X169074867Y-69194166D01*
X169085887Y-69235290D01*
X169085888Y-69235293D01*
X169132026Y-69315205D01*
X169132029Y-69315209D01*
X169132031Y-69315212D01*
X169197288Y-69380469D01*
X169197291Y-69380470D01*
X169197294Y-69380473D01*
X169277206Y-69426611D01*
X169277207Y-69426611D01*
X169277212Y-69426614D01*
X169366356Y-69450500D01*
X169366358Y-69450500D01*
X169458642Y-69450500D01*
X169458644Y-69450500D01*
X169547788Y-69426614D01*
X169627712Y-69380469D01*
X169692969Y-69315212D01*
X169739114Y-69235288D01*
X169763000Y-69146144D01*
X169763000Y-69053856D01*
X169739114Y-68964712D01*
X169739111Y-68964706D01*
X169692973Y-68884794D01*
X169692970Y-68884791D01*
X169692969Y-68884788D01*
X169627712Y-68819531D01*
X169627709Y-68819529D01*
X169627705Y-68819526D01*
X169547793Y-68773388D01*
X169547790Y-68773387D01*
X169547789Y-68773386D01*
X169547788Y-68773386D01*
X169458644Y-68749500D01*
X169366356Y-68749500D01*
X169277212Y-68773386D01*
X169277211Y-68773386D01*
X169277209Y-68773387D01*
X169277206Y-68773388D01*
X169197294Y-68819526D01*
X169197285Y-68819533D01*
X169132033Y-68884785D01*
X169132026Y-68884794D01*
X169085888Y-68964706D01*
X169085887Y-68964709D01*
X169085886Y-68964711D01*
X169085886Y-68964712D01*
X169062000Y-69053856D01*
X139946179Y-69053856D01*
X139937779Y-69039307D01*
X139800084Y-68859859D01*
X139800078Y-68859852D01*
X139640147Y-68699921D01*
X139640140Y-68699915D01*
X139460692Y-68562220D01*
X139264809Y-68449127D01*
X139264794Y-68449120D01*
X139055834Y-68362567D01*
X138867942Y-68312221D01*
X138837351Y-68304024D01*
X138837350Y-68304023D01*
X138837347Y-68304023D01*
X138613104Y-68274501D01*
X138613101Y-68274500D01*
X138613095Y-68274500D01*
X138386905Y-68274500D01*
X138386899Y-68274500D01*
X138386895Y-68274501D01*
X138162652Y-68304023D01*
X137944165Y-68362567D01*
X137735205Y-68449120D01*
X137735190Y-68449127D01*
X137539307Y-68562220D01*
X137359859Y-68699915D01*
X137359852Y-68699921D01*
X137199921Y-68859852D01*
X137199915Y-68859859D01*
X137062220Y-69039307D01*
X136949127Y-69235190D01*
X136949120Y-69235205D01*
X136862567Y-69444165D01*
X136804023Y-69662652D01*
X136774501Y-69886895D01*
X136774500Y-69886911D01*
X132725500Y-69886911D01*
X132725500Y-69886905D01*
X132695976Y-69662649D01*
X132637433Y-69444166D01*
X132550874Y-69235194D01*
X132437779Y-69039307D01*
X132319217Y-68884794D01*
X132300084Y-68859859D01*
X132300078Y-68859852D01*
X132140147Y-68699921D01*
X132140140Y-68699915D01*
X131960692Y-68562220D01*
X131764809Y-68449127D01*
X131764794Y-68449120D01*
X131555834Y-68362567D01*
X131367942Y-68312221D01*
X131337351Y-68304024D01*
X131337350Y-68304023D01*
X131337347Y-68304023D01*
X131113104Y-68274501D01*
X131113101Y-68274500D01*
X131113095Y-68274500D01*
X130886905Y-68274500D01*
X130886899Y-68274500D01*
X130886895Y-68274501D01*
X130662652Y-68304023D01*
X130444165Y-68362567D01*
X130235205Y-68449120D01*
X130235190Y-68449127D01*
X130039307Y-68562220D01*
X129859859Y-68699915D01*
X129859852Y-68699921D01*
X129699921Y-68859852D01*
X129699915Y-68859859D01*
X129562220Y-69039307D01*
X129449127Y-69235190D01*
X129449120Y-69235205D01*
X129362567Y-69444165D01*
X129304023Y-69662652D01*
X129274501Y-69886895D01*
X129274500Y-69886911D01*
X126668832Y-69886911D01*
X126698848Y-69658914D01*
X126700722Y-69648284D01*
X126790426Y-69243657D01*
X126793224Y-69233219D01*
X126917845Y-68837970D01*
X126921532Y-68827838D01*
X127080138Y-68444930D01*
X127084696Y-68435156D01*
X127276062Y-68067545D01*
X127281457Y-68058200D01*
X127504143Y-67708653D01*
X127510333Y-67699813D01*
X127762629Y-67371015D01*
X127769567Y-67362746D01*
X128049560Y-67057188D01*
X128057188Y-67049560D01*
X128362746Y-66769567D01*
X128371015Y-66762629D01*
X128699813Y-66510333D01*
X128708653Y-66504143D01*
X129058200Y-66281457D01*
X129067545Y-66276062D01*
X129435156Y-66084696D01*
X129444930Y-66080138D01*
X129827838Y-65921532D01*
X129837970Y-65917845D01*
X130233228Y-65793221D01*
X130243657Y-65790426D01*
X130648284Y-65700722D01*
X130658910Y-65698849D01*
X131069813Y-65644752D01*
X131080542Y-65643813D01*
X131497297Y-65625617D01*
X131502706Y-65625500D01*
X131528644Y-65625500D01*
X192221356Y-65625500D01*
X192247294Y-65625500D01*
X192252702Y-65625617D01*
G37*
%TD.AperFunction*%
%TD*%
M02*
