%TF.GenerationSoftware,KiCad,Pcbnew,9.0.7-1.fc42*%
%TF.CreationDate,2026-03-14T11:55:07+01:00*%
%TF.ProjectId,BACKPACK,4241434b-5041-4434-9b2e-6b696361645f,rev?*%
%TF.SameCoordinates,Original*%
%TF.FileFunction,Soldermask,Top*%
%TF.FilePolarity,Negative*%
%FSLAX46Y46*%
G04 Gerber Fmt 4.6, Leading zero omitted, Abs format (unit mm)*
G04 Created by KiCad (PCBNEW 9.0.7-1.fc42) date 2026-03-14 11:55:07*
%MOMM*%
%LPD*%
G01*
G04 APERTURE LIST*
G04 Aperture macros list*
%AMRoundRect*
0 Rectangle with rounded corners*
0 $1 Rounding radius*
0 $2 $3 $4 $5 $6 $7 $8 $9 X,Y pos of 4 corners*
0 Add a 4 corners polygon primitive as box body*
4,1,4,$2,$3,$4,$5,$6,$7,$8,$9,$2,$3,0*
0 Add four circle primitives for the rounded corners*
1,1,$1+$1,$2,$3*
1,1,$1+$1,$4,$5*
1,1,$1+$1,$6,$7*
1,1,$1+$1,$8,$9*
0 Add four rect primitives between the rounded corners*
20,1,$1+$1,$2,$3,$4,$5,0*
20,1,$1+$1,$4,$5,$6,$7,0*
20,1,$1+$1,$6,$7,$8,$9,0*
20,1,$1+$1,$8,$9,$2,$3,0*%
%AMRotRect*
0 Rectangle, with rotation*
0 The origin of the aperture is its center*
0 $1 length*
0 $2 width*
0 $3 Rotation angle, in degrees counterclockwise*
0 Add horizontal line*
21,1,$1,$2,0,0,$3*%
G04 Aperture macros list end*
%ADD10C,0.000000*%
%ADD11RotRect,2.000000X0.800000X135.000000*%
%ADD12C,3.200000*%
%ADD13RoundRect,0.050800X1.016000X-0.508000X1.016000X0.508000X-1.016000X0.508000X-1.016000X-0.508000X0*%
%ADD14RoundRect,0.050800X2.032000X-0.762000X2.032000X0.762000X-2.032000X0.762000X-2.032000X-0.762000X0*%
%ADD15RoundRect,0.050800X1.143000X-1.143000X1.143000X1.143000X-1.143000X1.143000X-1.143000X-1.143000X0*%
%ADD16RoundRect,0.250000X0.725000X-0.600000X0.725000X0.600000X-0.725000X0.600000X-0.725000X-0.600000X0*%
%ADD17O,1.950000X1.700000*%
%ADD18RoundRect,0.180000X-0.420000X0.770000X-0.420000X-0.770000X0.420000X-0.770000X0.420000X0.770000X0*%
%ADD19R,1.803400X0.711200*%
%ADD20R,0.711200X1.803400*%
%ADD21C,2.500000*%
%ADD22RoundRect,0.237500X-0.250000X-0.237500X0.250000X-0.237500X0.250000X0.237500X-0.250000X0.237500X0*%
%ADD23RoundRect,0.218750X0.256250X-0.218750X0.256250X0.218750X-0.256250X0.218750X-0.256250X-0.218750X0*%
%ADD24RoundRect,0.237500X0.237500X-0.250000X0.237500X0.250000X-0.237500X0.250000X-0.237500X-0.250000X0*%
%ADD25RoundRect,0.237500X-0.300000X-0.237500X0.300000X-0.237500X0.300000X0.237500X-0.300000X0.237500X0*%
%ADD26RoundRect,0.237500X0.237500X-0.287500X0.237500X0.287500X-0.237500X0.287500X-0.237500X-0.287500X0*%
%ADD27RoundRect,0.237500X0.237500X-0.300000X0.237500X0.300000X-0.237500X0.300000X-0.237500X-0.300000X0*%
%ADD28R,0.500000X0.800000*%
%ADD29R,0.400000X0.800000*%
%ADD30R,1.700000X1.700000*%
%ADD31C,1.700000*%
G04 APERTURE END LIST*
D10*
%TO.C,J4*%
G36*
X130277800Y-97861800D02*
G01*
X127941000Y-97861800D01*
X127941000Y-96947400D01*
X130277800Y-96947400D01*
X130277800Y-97861800D01*
G37*
G36*
X130277800Y-100652600D02*
G01*
X127941000Y-100652600D01*
X127941000Y-99738200D01*
X130277800Y-99738200D01*
X130277800Y-100652600D01*
G37*
%TD*%
D11*
%TO.C,BT1*%
X173545717Y-100856378D03*
X174606377Y-99795718D03*
%TD*%
D12*
%TO.C,H4*%
X192500000Y-106000000D03*
%TD*%
%TO.C,H5*%
X185000000Y-106000000D03*
%TD*%
D13*
%TO.C,J4*%
X130100000Y-98800000D03*
D14*
X129084000Y-96260000D03*
X129084000Y-101340000D03*
D15*
X129109400Y-96691800D03*
X129109400Y-100908200D03*
%TD*%
D12*
%TO.C,H2*%
X192750000Y-69750000D03*
%TD*%
D16*
%TO.C,J2*%
X191875000Y-82200000D03*
D17*
X191875000Y-79700000D03*
X191875000Y-77200000D03*
%TD*%
D18*
%TO.C,SW2*%
X128950000Y-76875000D03*
X128950000Y-84625000D03*
%TD*%
D19*
%TO.C,U10*%
X148350000Y-95500002D03*
X148350000Y-96500000D03*
X148350000Y-97500000D03*
X148350000Y-98500001D03*
X148350000Y-99500001D03*
X148350000Y-100500002D03*
X148350000Y-101500000D03*
X148350000Y-102500001D03*
X148350000Y-103500001D03*
X148350000Y-104500002D03*
X148350000Y-105500002D03*
X148350000Y-106500000D03*
D20*
X156249999Y-108900001D03*
X157250000Y-108900001D03*
X158250000Y-108900001D03*
X159250001Y-108900001D03*
D19*
X163150000Y-106500000D03*
X163150000Y-105500002D03*
X163150000Y-104500002D03*
X163150000Y-99500001D03*
X163150000Y-98500001D03*
X163150000Y-97500000D03*
X163150000Y-96500002D03*
X163150000Y-95500002D03*
D20*
X159250001Y-93600001D03*
X158250000Y-93600001D03*
X157250000Y-93600001D03*
X156249999Y-93600001D03*
X155250001Y-93600001D03*
X154250000Y-93600001D03*
X153250000Y-93600001D03*
X152249999Y-93600001D03*
%TD*%
D12*
%TO.C,H6*%
X138500000Y-70000000D03*
%TD*%
D16*
%TO.C,J3*%
X184700000Y-82200000D03*
D17*
X184700000Y-79700000D03*
X184700000Y-77200000D03*
%TD*%
D21*
%TO.C,ANT1*%
X157100000Y-76600000D03*
%TD*%
D16*
%TO.C,J7*%
X191900000Y-93400000D03*
D17*
X191900000Y-90900000D03*
X191900000Y-88400000D03*
%TD*%
D22*
%TO.C,R39*%
X179375000Y-99200000D03*
X181200000Y-99200000D03*
%TD*%
D12*
%TO.C,H3*%
X131000000Y-106000000D03*
%TD*%
D23*
%TO.C,D10*%
X171050000Y-109487500D03*
X171050000Y-107912500D03*
%TD*%
D24*
%TO.C,R7*%
X131000000Y-76662500D03*
X131000000Y-74837500D03*
%TD*%
D25*
%TO.C,C40*%
X179425000Y-97340000D03*
X181150000Y-97340000D03*
%TD*%
D23*
%TO.C,D11*%
X168050000Y-109487500D03*
X168050000Y-107912500D03*
%TD*%
D26*
%TO.C,D8*%
X177775000Y-99115000D03*
X177775000Y-97365000D03*
%TD*%
D18*
%TO.C,SW1*%
X133000000Y-76875000D03*
X133000000Y-84625000D03*
%TD*%
D27*
%TO.C,C37*%
X182775000Y-99102500D03*
X182775000Y-97377500D03*
%TD*%
D23*
%TO.C,D9*%
X174050000Y-109487500D03*
X174050000Y-107912500D03*
%TD*%
D28*
%TO.C,RN1*%
X170600000Y-103900000D03*
D29*
X169800000Y-103900000D03*
X169000000Y-103900000D03*
D28*
X168200000Y-103900000D03*
X168200000Y-105700000D03*
D29*
X169000000Y-105700000D03*
X169800000Y-105700000D03*
D28*
X170600000Y-105700000D03*
%TD*%
D12*
%TO.C,H1*%
X131000000Y-70000000D03*
%TD*%
D16*
%TO.C,J1*%
X184700000Y-93400000D03*
D17*
X184700000Y-90900000D03*
X184700000Y-88400000D03*
%TD*%
D30*
%TO.C,J5*%
X177000000Y-76760000D03*
D31*
X174460000Y-76760000D03*
X177000000Y-79300000D03*
X174460000Y-79300000D03*
X177000000Y-81840000D03*
X174460000Y-81840000D03*
X177000000Y-84380000D03*
X174460000Y-84380000D03*
X177000000Y-86920000D03*
X174460000Y-86920000D03*
X177000000Y-89460000D03*
X174460000Y-89460000D03*
X177000000Y-92000000D03*
X174460000Y-92000000D03*
X177000000Y-94540000D03*
X174460000Y-94540000D03*
%TD*%
D30*
%TO.C,J6*%
X141700000Y-76660000D03*
D31*
X139160000Y-76660000D03*
X141700000Y-79200000D03*
X139160000Y-79200000D03*
X141700000Y-81740000D03*
X139160000Y-81740000D03*
X141700000Y-84280000D03*
X139160000Y-84280000D03*
X141700000Y-86820000D03*
X139160000Y-86820000D03*
X141700000Y-89360000D03*
X139160000Y-89360000D03*
X141700000Y-91900000D03*
X139160000Y-91900000D03*
X141700000Y-94440000D03*
X139160000Y-94440000D03*
%TD*%
M02*
