%TF.GenerationSoftware,KiCad,Pcbnew,9.0.7-1.fc42*%
%TF.CreationDate,2026-03-14T11:55:06+01:00*%
%TF.ProjectId,BACKPACK,4241434b-5041-4434-9b2e-6b696361645f,rev?*%
%TF.SameCoordinates,Original*%
%TF.FileFunction,Copper,L1,Top*%
%TF.FilePolarity,Positive*%
%FSLAX46Y46*%
G04 Gerber Fmt 4.6, Leading zero omitted, Abs format (unit mm)*
G04 Created by KiCad (PCBNEW 9.0.7-1.fc42) date 2026-03-14 11:55:06*
%MOMM*%
%LPD*%
G01*
G04 APERTURE LIST*
G04 Aperture macros list*
%AMRoundRect*
0 Rectangle with rounded corners*
0 $1 Rounding radius*
0 $2 $3 $4 $5 $6 $7 $8 $9 X,Y pos of 4 corners*
0 Add a 4 corners polygon primitive as box body*
4,1,4,$2,$3,$4,$5,$6,$7,$8,$9,$2,$3,0*
0 Add four circle primitives for the rounded corners*
1,1,$1+$1,$2,$3*
1,1,$1+$1,$4,$5*
1,1,$1+$1,$6,$7*
1,1,$1+$1,$8,$9*
0 Add four rect primitives between the rounded corners*
20,1,$1+$1,$2,$3,$4,$5,0*
20,1,$1+$1,$4,$5,$6,$7,0*
20,1,$1+$1,$6,$7,$8,$9,0*
20,1,$1+$1,$8,$9,$2,$3,0*%
%AMRotRect*
0 Rectangle, with rotation*
0 The origin of the aperture is its center*
0 $1 length*
0 $2 width*
0 $3 Rotation angle, in degrees counterclockwise*
0 Add horizontal line*
21,1,$1,$2,0,0,$3*%
G04 Aperture macros list end*
%TA.AperFunction,SMDPad,CuDef*%
%ADD10RotRect,2.000000X0.800000X135.000000*%
%TD*%
%TA.AperFunction,SMDPad,CuDef*%
%ADD11R,2.032000X1.016000*%
%TD*%
%TA.AperFunction,SMDPad,CuDef*%
%ADD12R,4.064000X1.524000*%
%TD*%
%TA.AperFunction,SMDPad,CuDef*%
%ADD13R,2.286000X2.286000*%
%TD*%
%TA.AperFunction,ComponentPad*%
%ADD14RoundRect,0.250000X0.725000X-0.600000X0.725000X0.600000X-0.725000X0.600000X-0.725000X-0.600000X0*%
%TD*%
%TA.AperFunction,ComponentPad*%
%ADD15O,1.950000X1.700000*%
%TD*%
%TA.AperFunction,SMDPad,CuDef*%
%ADD16RoundRect,0.180000X-0.420000X0.770000X-0.420000X-0.770000X0.420000X-0.770000X0.420000X0.770000X0*%
%TD*%
%TA.AperFunction,SMDPad,CuDef*%
%ADD17R,1.803400X0.711200*%
%TD*%
%TA.AperFunction,SMDPad,CuDef*%
%ADD18R,0.711200X1.803400*%
%TD*%
%TA.AperFunction,ComponentPad*%
%ADD19C,2.500000*%
%TD*%
%TA.AperFunction,SMDPad,CuDef*%
%ADD20RoundRect,0.237500X-0.250000X-0.237500X0.250000X-0.237500X0.250000X0.237500X-0.250000X0.237500X0*%
%TD*%
%TA.AperFunction,SMDPad,CuDef*%
%ADD21RoundRect,0.218750X0.256250X-0.218750X0.256250X0.218750X-0.256250X0.218750X-0.256250X-0.218750X0*%
%TD*%
%TA.AperFunction,SMDPad,CuDef*%
%ADD22RoundRect,0.237500X0.237500X-0.250000X0.237500X0.250000X-0.237500X0.250000X-0.237500X-0.250000X0*%
%TD*%
%TA.AperFunction,SMDPad,CuDef*%
%ADD23RoundRect,0.237500X-0.300000X-0.237500X0.300000X-0.237500X0.300000X0.237500X-0.300000X0.237500X0*%
%TD*%
%TA.AperFunction,SMDPad,CuDef*%
%ADD24RoundRect,0.237500X0.237500X-0.287500X0.237500X0.287500X-0.237500X0.287500X-0.237500X-0.287500X0*%
%TD*%
%TA.AperFunction,SMDPad,CuDef*%
%ADD25RoundRect,0.237500X0.237500X-0.300000X0.237500X0.300000X-0.237500X0.300000X-0.237500X-0.300000X0*%
%TD*%
%TA.AperFunction,SMDPad,CuDef*%
%ADD26R,0.500000X0.800000*%
%TD*%
%TA.AperFunction,SMDPad,CuDef*%
%ADD27R,0.400000X0.800000*%
%TD*%
%TA.AperFunction,ComponentPad*%
%ADD28R,1.700000X1.700000*%
%TD*%
%TA.AperFunction,ComponentPad*%
%ADD29C,1.700000*%
%TD*%
%TA.AperFunction,ViaPad*%
%ADD30C,0.450000*%
%TD*%
%TA.AperFunction,Conductor*%
%ADD31C,0.125000*%
%TD*%
%TA.AperFunction,Conductor*%
%ADD32C,0.224500*%
%TD*%
%TA.AperFunction,Conductor*%
%ADD33C,0.200000*%
%TD*%
G04 APERTURE END LIST*
D10*
%TO.P,BT1,1,+*%
%TO.N,Net-(BT1-+)*%
X173545717Y-100856378D03*
%TO.P,BT1,2,-*%
%TO.N,GND*%
X174606377Y-99795718D03*
%TD*%
D11*
%TO.P,J4,1,In*%
%TO.N,ANT*%
X130100000Y-98800000D03*
D12*
%TO.P,J4,2,Ext*%
%TO.N,GND*%
X129084000Y-96260000D03*
X129084000Y-101340000D03*
D13*
X129109400Y-96691800D03*
X129109400Y-100908200D03*
%TD*%
D14*
%TO.P,J2,1,Pin_1*%
%TO.N,/CPU_SWDCLK*%
X191875000Y-82200000D03*
D15*
%TO.P,J2,2,Pin_2*%
%TO.N,/CPU_SWDIO*%
X191875000Y-79700000D03*
%TO.P,J2,3,Pin_3*%
%TO.N,GND*%
X191875000Y-77200000D03*
%TD*%
D16*
%TO.P,SW2,1,1*%
%TO.N,Net-(R7-Pad2)*%
X128950000Y-76875000D03*
%TO.P,SW2,2,2*%
%TO.N,/RESET*%
X128950000Y-84625000D03*
%TD*%
D17*
%TO.P,U10,1,PA3/UART2_RX*%
%TO.N,/TX_GPS*%
X148350000Y-95500002D03*
%TO.P,U10,2,PA2/UART2_TX*%
%TO.N,/RX_GPS*%
X148350000Y-96500000D03*
%TO.P,U10,3,PA15/ADC5*%
%TO.N,unconnected-(U10-PA15{slash}ADC5-Pad3)*%
X148350000Y-97500000D03*
%TO.P,U10,4,PB6/UART1_TX*%
%TO.N,/UART1_TX_RADIO*%
X148350000Y-98500001D03*
%TO.P,U10,5,PB7/UART1_RX*%
%TO.N,/UART1_RX_RADIO*%
X148350000Y-99500001D03*
%TO.P,U10,6,PA1*%
%TO.N,unconnected-(U10-PA1-Pad6)*%
X148350000Y-100500002D03*
%TO.P,U10,7,PA13/SWDIO*%
%TO.N,/SWDIO*%
X148350000Y-101500000D03*
%TO.P,U10,8,PA14/SWCLK*%
%TO.N,/SWCLK*%
X148350000Y-102500001D03*
%TO.P,U10,9,PA12/I2C_SCL*%
%TO.N,/SCL_RADIO*%
X148350000Y-103500001D03*
%TO.P,U10,10,PA11/I2C_SDA*%
%TO.N,/SDA_RADIO*%
X148350000Y-104500002D03*
%TO.P,U10,11,GND*%
%TO.N,GND*%
X148350000Y-105500002D03*
%TO.P,U10,12,RF*%
%TO.N,ANT*%
X148350000Y-106500000D03*
D18*
%TO.P,U10,13,PA7/SPI1_MOSI*%
%TO.N,unconnected-(U10-PA7{slash}SPI1_MOSI-Pad13)*%
X156249999Y-108900001D03*
%TO.P,U10,14,PA6/SPI1_MISO*%
%TO.N,unconnected-(U10-PA6{slash}SPI1_MISO-Pad14)*%
X157250000Y-108900001D03*
%TO.P,U10,15,PA5/SPI1_CLK*%
%TO.N,unconnected-(U10-PA5{slash}SPI1_CLK-Pad15)*%
X158250000Y-108900001D03*
%TO.P,U10,16,PA4/SPI1_NSS*%
%TO.N,unconnected-(U10-PA4{slash}SPI1_NSS-Pad16)*%
X159250001Y-108900001D03*
D17*
%TO.P,U10,17,GND*%
%TO.N,GND*%
X163150000Y-106500000D03*
%TO.P,U10,18,GND*%
X163150000Y-105500002D03*
%TO.P,U10,19,PA8*%
%TO.N,unconnected-(U10-PA8-Pad19)*%
X163150000Y-104500002D03*
%TO.P,U10,20,PA9*%
%TO.N,unconnected-(U10-PA9-Pad20)*%
X163150000Y-99500001D03*
%TO.P,U10,21,BOOT0*%
%TO.N,unconnected-(U10-BOOT0-Pad21)*%
X163150000Y-98500001D03*
%TO.P,U10,22,RST*%
%TO.N,unconnected-(U10-RST-Pad22)*%
X163150000Y-97500000D03*
%TO.P,U10,23,GND*%
%TO.N,GND*%
X163150000Y-96500002D03*
%TO.P,U10,24,VDD*%
%TO.N,+3V3*%
X163150000Y-95500002D03*
D18*
%TO.P,U10,25,PA10/ADC4*%
%TO.N,unconnected-(U10-PA10{slash}ADC4-Pad25)*%
X159250001Y-93600001D03*
%TO.P,U10,26,PB2/AD3*%
%TO.N,/L_RED*%
X158250000Y-93600001D03*
%TO.P,U10,27,PB12*%
%TO.N,unconnected-(U10-PB12-Pad27)*%
X157250000Y-93600001D03*
%TO.P,U10,28,GND*%
%TO.N,GND*%
X156249999Y-93600001D03*
%TO.P,U10,29,PA0*%
%TO.N,unconnected-(U10-PA0-Pad29)*%
X155250001Y-93600001D03*
%TO.P,U10,30,PB5*%
%TO.N,unconnected-(U10-PB5-Pad30)*%
X154250000Y-93600001D03*
%TO.P,U10,31,PB4/ADC2*%
%TO.N,/L_BLUE*%
X153250000Y-93600001D03*
%TO.P,U10,32,PB3/ADC1*%
%TO.N,/L_GREEN*%
X152249999Y-93600001D03*
%TD*%
D14*
%TO.P,J3,1,Pin_1*%
%TO.N,/SWDIO*%
X184700000Y-82200000D03*
D15*
%TO.P,J3,2,Pin_2*%
%TO.N,/SWCLK*%
X184700000Y-79700000D03*
%TO.P,J3,3,Pin_3*%
%TO.N,GND*%
X184700000Y-77200000D03*
%TD*%
D19*
%TO.P,ANT1,1,1*%
%TO.N,Net-(U9-RF_IN)*%
X157100000Y-76600000D03*
%TD*%
D14*
%TO.P,J7,1,Pin_1*%
%TO.N,/UART1_RX_RADIO*%
X191900000Y-93400000D03*
D15*
%TO.P,J7,2,Pin_2*%
%TO.N,/UART1_TX_RADIO*%
X191900000Y-90900000D03*
%TO.P,J7,3,Pin_3*%
%TO.N,GND*%
X191900000Y-88400000D03*
%TD*%
D20*
%TO.P,R39,1*%
%TO.N,Net-(D8-K)*%
X179375000Y-99200000D03*
%TO.P,R39,2*%
%TO.N,Net-(BT1-+)*%
X181200000Y-99200000D03*
%TD*%
D21*
%TO.P,D10,1,K*%
%TO.N,GND*%
X171050000Y-109487500D03*
%TO.P,D10,2,A*%
%TO.N,Net-(D10-A)*%
X171050000Y-107912500D03*
%TD*%
D22*
%TO.P,R7,1*%
%TO.N,GND*%
X131000000Y-76662500D03*
%TO.P,R7,2*%
%TO.N,Net-(R7-Pad2)*%
X131000000Y-74837500D03*
%TD*%
D23*
%TO.P,C40,1*%
%TO.N,+3V3*%
X179425000Y-97340000D03*
%TO.P,C40,2*%
%TO.N,GND*%
X181150000Y-97340000D03*
%TD*%
D21*
%TO.P,D11,1,K*%
%TO.N,GND*%
X168050000Y-109487500D03*
%TO.P,D11,2,A*%
%TO.N,Net-(D11-A)*%
X168050000Y-107912500D03*
%TD*%
D24*
%TO.P,D8,1,K*%
%TO.N,Net-(D8-K)*%
X177775000Y-99115000D03*
%TO.P,D8,2,A*%
%TO.N,+3V3*%
X177775000Y-97365000D03*
%TD*%
D16*
%TO.P,SW1,1,1*%
%TO.N,GND*%
X133000000Y-76875000D03*
%TO.P,SW1,2,2*%
%TO.N,/BOOTSEL*%
X133000000Y-84625000D03*
%TD*%
D25*
%TO.P,C37,1*%
%TO.N,Net-(BT1-+)*%
X182775000Y-99102500D03*
%TO.P,C37,2*%
%TO.N,GND*%
X182775000Y-97377500D03*
%TD*%
D21*
%TO.P,D9,1,K*%
%TO.N,GND*%
X174050000Y-109487500D03*
%TO.P,D9,2,A*%
%TO.N,Net-(D9-A)*%
X174050000Y-107912500D03*
%TD*%
D26*
%TO.P,RN1,1,R1.1*%
%TO.N,/L_BLUE*%
X170600000Y-103900000D03*
D27*
%TO.P,RN1,2,R2.1*%
%TO.N,/L_GREEN*%
X169800000Y-103900000D03*
%TO.P,RN1,3,R3.1*%
%TO.N,/L_RED*%
X169000000Y-103900000D03*
D26*
%TO.P,RN1,4,R4.1*%
X168200000Y-103900000D03*
%TO.P,RN1,5,R4.2*%
%TO.N,Net-(D11-A)*%
X168200000Y-105700000D03*
D27*
%TO.P,RN1,6,R3.2*%
X169000000Y-105700000D03*
%TO.P,RN1,7,R2.2*%
%TO.N,Net-(D10-A)*%
X169800000Y-105700000D03*
D26*
%TO.P,RN1,8,R1.2*%
%TO.N,Net-(D9-A)*%
X170600000Y-105700000D03*
%TD*%
D14*
%TO.P,J1,1,Pin_1*%
%TO.N,HIL_TX*%
X184700000Y-93400000D03*
D15*
%TO.P,J1,2,Pin_2*%
%TO.N,HIL_RX*%
X184700000Y-90900000D03*
%TO.P,J1,3,Pin_3*%
%TO.N,GND*%
X184700000Y-88400000D03*
%TD*%
D28*
%TO.P,J5,1,Pin_1*%
%TO.N,+3V3*%
X177000000Y-76760000D03*
D29*
%TO.P,J5,2,Pin_2*%
X174460000Y-76760000D03*
%TO.P,J5,3,Pin_3*%
%TO.N,/PWM4*%
X177000000Y-79300000D03*
%TO.P,J5,4,Pin_4*%
%TO.N,/PWM1*%
X174460000Y-79300000D03*
%TO.P,J5,5,Pin_5*%
%TO.N,/PWM2*%
X177000000Y-81840000D03*
%TO.P,J5,6,Pin_6*%
%TO.N,/PWM3*%
X174460000Y-81840000D03*
%TO.P,J5,7,Pin_7*%
%TO.N,GND*%
X177000000Y-84380000D03*
%TO.P,J5,8,Pin_8*%
%TO.N,/GPIO20*%
X174460000Y-84380000D03*
%TO.P,J5,9,Pin_9*%
%TO.N,/RX_GPS*%
X177000000Y-86920000D03*
%TO.P,J5,10,Pin_10*%
%TO.N,/TX_GPS*%
X174460000Y-86920000D03*
%TO.P,J5,11,Pin_11*%
%TO.N,HIL_TX*%
X177000000Y-89460000D03*
%TO.P,J5,12,Pin_12*%
%TO.N,HIL_RX*%
X174460000Y-89460000D03*
%TO.P,J5,13,Pin_13*%
%TO.N,GND*%
X177000000Y-92000000D03*
%TO.P,J5,14,Pin_14*%
X174460000Y-92000000D03*
%TO.P,J5,15,Pin_15*%
%TO.N,/SDA_RADIO*%
X177000000Y-94540000D03*
%TO.P,J5,16,Pin_16*%
%TO.N,/SCL_RADIO*%
X174460000Y-94540000D03*
%TD*%
D28*
%TO.P,J6,1,Pin_1*%
%TO.N,+3V3*%
X141700000Y-76660000D03*
D29*
%TO.P,J6,2,Pin_2*%
X139160000Y-76660000D03*
%TO.P,J6,3,Pin_3*%
%TO.N,/CPU_SWDCLK*%
X141700000Y-79200000D03*
%TO.P,J6,4,Pin_4*%
%TO.N,PPS*%
X139160000Y-79200000D03*
%TO.P,J6,5,Pin_5*%
%TO.N,/CPU_SWDIO*%
X141700000Y-81740000D03*
%TO.P,J6,6,Pin_6*%
%TO.N,/BOOTSEL*%
X139160000Y-81740000D03*
%TO.P,J6,7,Pin_7*%
%TO.N,/GPIO39*%
X141700000Y-84280000D03*
%TO.P,J6,8,Pin_8*%
%TO.N,/RESET*%
X139160000Y-84280000D03*
%TO.P,J6,9,Pin_9*%
%TO.N,/GPIO41*%
X141700000Y-86820000D03*
%TO.P,J6,10,Pin_10*%
%TO.N,/GPIO42*%
X139160000Y-86820000D03*
%TO.P,J6,11,Pin_11*%
%TO.N,/GPIO43*%
X141700000Y-89360000D03*
%TO.P,J6,12,Pin_12*%
%TO.N,/GPIO44*%
X139160000Y-89360000D03*
%TO.P,J6,13,Pin_13*%
%TO.N,/GPIO46*%
X141700000Y-91900000D03*
%TO.P,J6,14,Pin_14*%
%TO.N,/GPIO45*%
X139160000Y-91900000D03*
%TO.P,J6,15,Pin_15*%
%TO.N,GND*%
X141700000Y-94440000D03*
%TO.P,J6,16,Pin_16*%
X139160000Y-94440000D03*
%TD*%
D30*
%TO.N,GND*%
X146014515Y-107412035D03*
X174606377Y-99795718D03*
X137324238Y-97300000D03*
X139731646Y-97314470D03*
X159062500Y-76000000D03*
X141865828Y-103263348D03*
X143051167Y-104448687D03*
X169412500Y-69100000D03*
X144829176Y-106226696D03*
X140680488Y-102078008D03*
X145007171Y-102162051D03*
X142736812Y-99891692D03*
X159062500Y-77750000D03*
X129084000Y-101340000D03*
X165100000Y-97125000D03*
X174050000Y-109487500D03*
X143871991Y-101026871D03*
X134901352Y-100300000D03*
X135718851Y-97300000D03*
X131700450Y-100300000D03*
X129109400Y-96691800D03*
X160212500Y-75700000D03*
X137302029Y-100300000D03*
X134101127Y-100300000D03*
X140087819Y-101485339D03*
X145421845Y-106819365D03*
X147511838Y-108000000D03*
X142458497Y-103856017D03*
X142169222Y-99324102D03*
X143304401Y-100459281D03*
X131000000Y-76662500D03*
X138902480Y-100300000D03*
X171050000Y-109487500D03*
X148350000Y-108000000D03*
X136521545Y-97300000D03*
X146709940Y-103864820D03*
X138929624Y-97300000D03*
X134113465Y-97300000D03*
X131705386Y-97300000D03*
X134916158Y-97300000D03*
X140460138Y-97628134D03*
X145574760Y-102729640D03*
X133000000Y-76875000D03*
X156249999Y-93600001D03*
X133300901Y-100300000D03*
X143643836Y-105041356D03*
X182775000Y-97377500D03*
X181150000Y-97340000D03*
X141601632Y-98756512D03*
X144236506Y-105634026D03*
X138126931Y-97300000D03*
X144439581Y-101594461D03*
X136501803Y-100300000D03*
X139495149Y-100892669D03*
X141034042Y-98188922D03*
X146142350Y-103297230D03*
X168050000Y-109487500D03*
X160212500Y-77900000D03*
X135701578Y-100300000D03*
X138102254Y-100300000D03*
X133310772Y-97300000D03*
X163150000Y-105500002D03*
X141273158Y-102670678D03*
X163150000Y-96500002D03*
X146685926Y-107900247D03*
X132508079Y-97300000D03*
X132500676Y-100300000D03*
%TO.N,Net-(BT1-+)*%
X172000000Y-95000000D03*
%TO.N,+3V3*%
X169412500Y-76800000D03*
X165100000Y-95400000D03*
X177775000Y-97365000D03*
X179425000Y-97340000D03*
%TO.N,/L_BLUE*%
X158662500Y-95000000D03*
X154000000Y-95000000D03*
%TO.N,Net-(U9-RF_IN)*%
X160212500Y-76800000D03*
%TO.N,/TX_GPS*%
X160000000Y-100400000D03*
X172500000Y-97500000D03*
%TO.N,/SDA_RADIO*%
X150600000Y-102800000D03*
%TO.N,/SCL_RADIO*%
X167600000Y-93400000D03*
X164800000Y-93400000D03*
X148350000Y-103500001D03*
%TO.N,/RX_GPS*%
X159400000Y-100812500D03*
X172912500Y-98200000D03*
%TO.N,unconnected-(U10-PA7{slash}SPI1_MOSI-Pad13)*%
X156249999Y-108900001D03*
%TO.N,/UART1_TX_RADIO*%
X160100000Y-101400000D03*
%TO.N,/UART1_RX_RADIO*%
X159500000Y-101900000D03*
%TO.N,/SWCLK*%
X165200000Y-102787500D03*
X160200000Y-103100000D03*
%TO.N,/SWDIO*%
X166793750Y-102293750D03*
X160100000Y-102500000D03*
%TD*%
D31*
%TO.N,GND*%
X148350000Y-105500002D02*
X147700002Y-105500002D01*
X163150000Y-106500000D02*
X163150000Y-105500002D01*
X146709940Y-104509940D02*
X146709940Y-103864820D01*
X147700002Y-105500002D02*
X146709940Y-104509940D01*
%TO.N,Net-(BT1-+)*%
X172000000Y-99310661D02*
X173545717Y-100856378D01*
X181200000Y-99200000D02*
X178960000Y-101440000D01*
X172000000Y-95000000D02*
X172000000Y-99310661D01*
X181200000Y-99200000D02*
X182677500Y-99200000D01*
X174129339Y-101440000D02*
X173545717Y-100856378D01*
X182677500Y-99200000D02*
X182775000Y-99102500D01*
X178960000Y-101440000D02*
X174129339Y-101440000D01*
%TO.N,+3V3*%
X164999998Y-95500002D02*
X165100000Y-95400000D01*
X163150000Y-95500002D02*
X164999998Y-95500002D01*
D32*
%TO.N,Net-(D8-K)*%
X177860000Y-99200000D02*
X177775000Y-99115000D01*
X179375000Y-99200000D02*
X177860000Y-99200000D01*
D31*
%TO.N,Net-(D9-A)*%
X170600000Y-105700000D02*
X170600000Y-106250000D01*
X172262500Y-107912500D02*
X174050000Y-107912500D01*
X170600000Y-106250000D02*
X172262500Y-107912500D01*
%TO.N,Net-(D10-A)*%
X169800000Y-105700000D02*
X169800000Y-106662500D01*
X169800000Y-106662500D02*
X171050000Y-107912500D01*
%TO.N,Net-(D11-A)*%
X168050000Y-107912500D02*
X168050000Y-105850000D01*
X169000000Y-105700000D02*
X169000000Y-106250000D01*
X168050000Y-105850000D02*
X168200000Y-105700000D01*
X169000000Y-106250000D02*
X168050000Y-107200000D01*
X168050000Y-107200000D02*
X168050000Y-107912500D01*
%TO.N,/L_RED*%
X168200000Y-103900000D02*
X165254968Y-103900000D01*
X165254968Y-103900000D02*
X158250000Y-96895032D01*
X158250000Y-96895032D02*
X158250000Y-93600001D01*
X169000000Y-103900000D02*
X168200000Y-103900000D01*
%TO.N,/L_BLUE*%
X154000000Y-95000000D02*
X153250000Y-94250000D01*
X164909936Y-103200000D02*
X170050000Y-103200000D01*
X170050000Y-103200000D02*
X170600000Y-103750000D01*
X153250000Y-94250000D02*
X153250000Y-93600001D01*
X158662500Y-96952564D02*
X164909936Y-103200000D01*
X170600000Y-103750000D02*
X170600000Y-103900000D01*
X158662500Y-95000000D02*
X158662500Y-96952564D01*
%TO.N,/L_GREEN*%
X165700000Y-104700000D02*
X169200000Y-104700000D01*
X169200000Y-104700000D02*
X169800000Y-104100000D01*
X152249999Y-94749999D02*
X154200000Y-96700000D01*
X154200000Y-96700000D02*
X157700000Y-96700000D01*
X152249999Y-93600001D02*
X152249999Y-94749999D01*
X157700000Y-96700000D02*
X165700000Y-104700000D01*
X169800000Y-104100000D02*
X169800000Y-103900000D01*
D32*
%TO.N,Net-(U9-RF_IN)*%
X157100000Y-76600000D02*
X157300000Y-76800000D01*
X157300000Y-76800000D02*
X160212500Y-76800000D01*
X157100000Y-76687500D02*
X157100000Y-76600000D01*
X157312500Y-76900000D02*
X157100000Y-76687500D01*
%TO.N,ANT*%
X141117592Y-100393792D02*
X146825628Y-106101828D01*
X137269836Y-98800000D02*
X130100000Y-98800000D01*
X147786900Y-106500000D02*
X148350000Y-106500000D01*
X141117592Y-100393792D02*
G75*
G03*
X137269836Y-98799989I-3847792J-3847808D01*
G01*
X146825628Y-106101828D02*
G75*
G03*
X147786900Y-106500013I961272J961228D01*
G01*
D31*
%TO.N,/TX_GPS*%
X173330000Y-86920000D02*
X174460000Y-86920000D01*
X172500000Y-97500000D02*
X172500000Y-87750000D01*
X172500000Y-87750000D02*
X173330000Y-86920000D01*
X152000002Y-95500002D02*
X148350000Y-95500002D01*
X156900000Y-100400000D02*
X152000002Y-95500002D01*
X160000000Y-100400000D02*
X156900000Y-100400000D01*
%TO.N,/SDA_RADIO*%
X150600000Y-102800000D02*
X150303898Y-103096102D01*
X150300000Y-103096102D02*
X148896100Y-104500002D01*
X150303898Y-103096102D02*
X150300000Y-103096102D01*
X148896100Y-104500002D02*
X148350000Y-104500002D01*
%TO.N,/SCL_RADIO*%
X164800000Y-93400000D02*
X167600000Y-93400000D01*
%TO.N,/RX_GPS*%
X152000000Y-96500000D02*
X148350000Y-96500000D01*
X175920000Y-88000000D02*
X177000000Y-86920000D01*
X159400000Y-100812500D02*
X156312500Y-100812500D01*
X172912500Y-89063169D02*
X173975669Y-88000000D01*
X156312500Y-100812500D02*
X152000000Y-96500000D01*
X173975669Y-88000000D02*
X175920000Y-88000000D01*
X172912500Y-98200000D02*
X172912500Y-89063169D01*
%TO.N,/UART1_TX_RADIO*%
X149100001Y-98500001D02*
X152000000Y-101400000D01*
X148350000Y-98500001D02*
X149100001Y-98500001D01*
X152000000Y-101400000D02*
X160100000Y-101400000D01*
%TO.N,/UART1_RX_RADIO*%
X148350000Y-99500001D02*
X149600001Y-99500001D01*
X152000000Y-101900000D02*
X159500000Y-101900000D01*
X149600001Y-99500001D02*
X152000000Y-101900000D01*
%TO.N,/SWCLK*%
X151000000Y-102300000D02*
X149900000Y-102300000D01*
X171100000Y-84700000D02*
X172458500Y-83341500D01*
X149699999Y-102500001D02*
X148350000Y-102500001D01*
X171100000Y-96900000D02*
X171100000Y-84700000D01*
X181058500Y-83341500D02*
X184700000Y-79700000D01*
X160200000Y-103100000D02*
X151800000Y-103100000D01*
X151800000Y-103100000D02*
X151000000Y-102300000D01*
X165212500Y-102787500D02*
X171100000Y-96900000D01*
X149900000Y-102300000D02*
X149699999Y-102500001D01*
X172458500Y-83341500D02*
X181058500Y-83341500D01*
%TO.N,/SWDIO*%
X151100000Y-101500000D02*
X148350000Y-101500000D01*
X152100000Y-102500000D02*
X151100000Y-101500000D01*
X171351000Y-97736500D02*
X171351000Y-88544032D01*
X160100000Y-102500000D02*
X152100000Y-102500000D01*
X174126371Y-85768661D02*
X181131339Y-85768661D01*
X166793750Y-102293750D02*
X171351000Y-97736500D01*
X181131339Y-85768661D02*
X184700000Y-82200000D01*
X171351000Y-88544032D02*
X174126371Y-85768661D01*
D33*
%TO.N,/BOOTSEL*%
X133000000Y-85000000D02*
X133250000Y-84750000D01*
X133000000Y-84625000D02*
X133000000Y-85000000D01*
X136150000Y-84750000D02*
X139160000Y-81740000D01*
X133250000Y-84750000D02*
X136150000Y-84750000D01*
%TO.N,/RESET*%
X128950000Y-85950000D02*
X128950000Y-84625000D01*
X129500000Y-86500000D02*
X128950000Y-85950000D01*
X136940000Y-86500000D02*
X129500000Y-86500000D01*
X139160000Y-84280000D02*
X136940000Y-86500000D01*
D31*
%TO.N,Net-(R7-Pad2)*%
X129412500Y-74837500D02*
X131000000Y-74837500D01*
X128950000Y-76875000D02*
X128950000Y-75300000D01*
X128950000Y-75300000D02*
X129412500Y-74837500D01*
%TD*%
M02*
