%TF.GenerationSoftware,KiCad,Pcbnew,9.0.7*%
%TF.CreationDate,2026-03-14T17:34:59+01:00*%
%TF.ProjectId,TABv1,54414276-312e-46b6-9963-61645f706362,rev?*%
%TF.SameCoordinates,Original*%
%TF.FileFunction,Legend,Top*%
%TF.FilePolarity,Positive*%
%FSLAX46Y46*%
G04 Gerber Fmt 4.6, Leading zero omitted, Abs format (unit mm)*
G04 Created by KiCad (PCBNEW 9.0.7) date 2026-03-14 17:34:59*
%MOMM*%
%LPD*%
G01*
G04 APERTURE LIST*
%ADD10C,0.150000*%
%ADD11C,0.254000*%
%ADD12C,0.200000*%
%ADD13C,0.100000*%
%ADD14C,0.120000*%
%ADD15C,0.152400*%
%ADD16C,0.000000*%
%ADD17C,0.350000*%
%ADD18C,0.400000*%
%ADD19C,0.508000*%
G04 APERTURE END LIST*
D10*
X116351207Y-74418819D02*
X116017874Y-73942628D01*
X115779779Y-74418819D02*
X115779779Y-73418819D01*
X115779779Y-73418819D02*
X116160731Y-73418819D01*
X116160731Y-73418819D02*
X116255969Y-73466438D01*
X116255969Y-73466438D02*
X116303588Y-73514057D01*
X116303588Y-73514057D02*
X116351207Y-73609295D01*
X116351207Y-73609295D02*
X116351207Y-73752152D01*
X116351207Y-73752152D02*
X116303588Y-73847390D01*
X116303588Y-73847390D02*
X116255969Y-73895009D01*
X116255969Y-73895009D02*
X116160731Y-73942628D01*
X116160731Y-73942628D02*
X115779779Y-73942628D01*
X116779779Y-74323580D02*
X116827398Y-74371200D01*
X116827398Y-74371200D02*
X116779779Y-74418819D01*
X116779779Y-74418819D02*
X116732160Y-74371200D01*
X116732160Y-74371200D02*
X116779779Y-74323580D01*
X116779779Y-74323580D02*
X116779779Y-74418819D01*
X117779778Y-73466438D02*
X117684540Y-73418819D01*
X117684540Y-73418819D02*
X117541683Y-73418819D01*
X117541683Y-73418819D02*
X117398826Y-73466438D01*
X117398826Y-73466438D02*
X117303588Y-73561676D01*
X117303588Y-73561676D02*
X117255969Y-73656914D01*
X117255969Y-73656914D02*
X117208350Y-73847390D01*
X117208350Y-73847390D02*
X117208350Y-73990247D01*
X117208350Y-73990247D02*
X117255969Y-74180723D01*
X117255969Y-74180723D02*
X117303588Y-74275961D01*
X117303588Y-74275961D02*
X117398826Y-74371200D01*
X117398826Y-74371200D02*
X117541683Y-74418819D01*
X117541683Y-74418819D02*
X117636921Y-74418819D01*
X117636921Y-74418819D02*
X117779778Y-74371200D01*
X117779778Y-74371200D02*
X117827397Y-74323580D01*
X117827397Y-74323580D02*
X117827397Y-73990247D01*
X117827397Y-73990247D02*
X117636921Y-73990247D01*
X118255969Y-74323580D02*
X118303588Y-74371200D01*
X118303588Y-74371200D02*
X118255969Y-74418819D01*
X118255969Y-74418819D02*
X118208350Y-74371200D01*
X118208350Y-74371200D02*
X118255969Y-74323580D01*
X118255969Y-74323580D02*
X118255969Y-74418819D01*
X119065492Y-73895009D02*
X119208349Y-73942628D01*
X119208349Y-73942628D02*
X119255968Y-73990247D01*
X119255968Y-73990247D02*
X119303587Y-74085485D01*
X119303587Y-74085485D02*
X119303587Y-74228342D01*
X119303587Y-74228342D02*
X119255968Y-74323580D01*
X119255968Y-74323580D02*
X119208349Y-74371200D01*
X119208349Y-74371200D02*
X119113111Y-74418819D01*
X119113111Y-74418819D02*
X118732159Y-74418819D01*
X118732159Y-74418819D02*
X118732159Y-73418819D01*
X118732159Y-73418819D02*
X119065492Y-73418819D01*
X119065492Y-73418819D02*
X119160730Y-73466438D01*
X119160730Y-73466438D02*
X119208349Y-73514057D01*
X119208349Y-73514057D02*
X119255968Y-73609295D01*
X119255968Y-73609295D02*
X119255968Y-73704533D01*
X119255968Y-73704533D02*
X119208349Y-73799771D01*
X119208349Y-73799771D02*
X119160730Y-73847390D01*
X119160730Y-73847390D02*
X119065492Y-73895009D01*
X119065492Y-73895009D02*
X118732159Y-73895009D01*
D11*
X142110237Y-44524318D02*
X142110237Y-43254318D01*
X143440714Y-44403365D02*
X143380238Y-44463842D01*
X143380238Y-44463842D02*
X143198809Y-44524318D01*
X143198809Y-44524318D02*
X143077857Y-44524318D01*
X143077857Y-44524318D02*
X142896428Y-44463842D01*
X142896428Y-44463842D02*
X142775476Y-44342889D01*
X142775476Y-44342889D02*
X142714999Y-44221937D01*
X142714999Y-44221937D02*
X142654523Y-43980032D01*
X142654523Y-43980032D02*
X142654523Y-43798603D01*
X142654523Y-43798603D02*
X142714999Y-43556699D01*
X142714999Y-43556699D02*
X142775476Y-43435746D01*
X142775476Y-43435746D02*
X142896428Y-43314794D01*
X142896428Y-43314794D02*
X143077857Y-43254318D01*
X143077857Y-43254318D02*
X143198809Y-43254318D01*
X143198809Y-43254318D02*
X143380238Y-43314794D01*
X143380238Y-43314794D02*
X143440714Y-43375270D01*
X144650238Y-44524318D02*
X143924523Y-44524318D01*
X144287380Y-44524318D02*
X144287380Y-43254318D01*
X144287380Y-43254318D02*
X144166428Y-43435746D01*
X144166428Y-43435746D02*
X144045476Y-43556699D01*
X144045476Y-43556699D02*
X143924523Y-43617175D01*
D10*
X130704819Y-51666666D02*
X130228628Y-51999999D01*
X130704819Y-52238094D02*
X129704819Y-52238094D01*
X129704819Y-52238094D02*
X129704819Y-51857142D01*
X129704819Y-51857142D02*
X129752438Y-51761904D01*
X129752438Y-51761904D02*
X129800057Y-51714285D01*
X129800057Y-51714285D02*
X129895295Y-51666666D01*
X129895295Y-51666666D02*
X130038152Y-51666666D01*
X130038152Y-51666666D02*
X130133390Y-51714285D01*
X130133390Y-51714285D02*
X130181009Y-51761904D01*
X130181009Y-51761904D02*
X130228628Y-51857142D01*
X130228628Y-51857142D02*
X130228628Y-52238094D01*
X130133390Y-51095237D02*
X130085771Y-51190475D01*
X130085771Y-51190475D02*
X130038152Y-51238094D01*
X130038152Y-51238094D02*
X129942914Y-51285713D01*
X129942914Y-51285713D02*
X129895295Y-51285713D01*
X129895295Y-51285713D02*
X129800057Y-51238094D01*
X129800057Y-51238094D02*
X129752438Y-51190475D01*
X129752438Y-51190475D02*
X129704819Y-51095237D01*
X129704819Y-51095237D02*
X129704819Y-50904761D01*
X129704819Y-50904761D02*
X129752438Y-50809523D01*
X129752438Y-50809523D02*
X129800057Y-50761904D01*
X129800057Y-50761904D02*
X129895295Y-50714285D01*
X129895295Y-50714285D02*
X129942914Y-50714285D01*
X129942914Y-50714285D02*
X130038152Y-50761904D01*
X130038152Y-50761904D02*
X130085771Y-50809523D01*
X130085771Y-50809523D02*
X130133390Y-50904761D01*
X130133390Y-50904761D02*
X130133390Y-51095237D01*
X130133390Y-51095237D02*
X130181009Y-51190475D01*
X130181009Y-51190475D02*
X130228628Y-51238094D01*
X130228628Y-51238094D02*
X130323866Y-51285713D01*
X130323866Y-51285713D02*
X130514342Y-51285713D01*
X130514342Y-51285713D02*
X130609580Y-51238094D01*
X130609580Y-51238094D02*
X130657200Y-51190475D01*
X130657200Y-51190475D02*
X130704819Y-51095237D01*
X130704819Y-51095237D02*
X130704819Y-50904761D01*
X130704819Y-50904761D02*
X130657200Y-50809523D01*
X130657200Y-50809523D02*
X130609580Y-50761904D01*
X130609580Y-50761904D02*
X130514342Y-50714285D01*
X130514342Y-50714285D02*
X130323866Y-50714285D01*
X130323866Y-50714285D02*
X130228628Y-50761904D01*
X130228628Y-50761904D02*
X130181009Y-50809523D01*
X130181009Y-50809523D02*
X130133390Y-50904761D01*
X122604819Y-72290476D02*
X122128628Y-72623809D01*
X122604819Y-72861904D02*
X121604819Y-72861904D01*
X121604819Y-72861904D02*
X121604819Y-72480952D01*
X121604819Y-72480952D02*
X121652438Y-72385714D01*
X121652438Y-72385714D02*
X121700057Y-72338095D01*
X121700057Y-72338095D02*
X121795295Y-72290476D01*
X121795295Y-72290476D02*
X121938152Y-72290476D01*
X121938152Y-72290476D02*
X122033390Y-72338095D01*
X122033390Y-72338095D02*
X122081009Y-72385714D01*
X122081009Y-72385714D02*
X122128628Y-72480952D01*
X122128628Y-72480952D02*
X122128628Y-72861904D01*
X122604819Y-71861904D02*
X121604819Y-71861904D01*
X121604819Y-71861904D02*
X122604819Y-71290476D01*
X122604819Y-71290476D02*
X121604819Y-71290476D01*
X122033390Y-70671428D02*
X121985771Y-70766666D01*
X121985771Y-70766666D02*
X121938152Y-70814285D01*
X121938152Y-70814285D02*
X121842914Y-70861904D01*
X121842914Y-70861904D02*
X121795295Y-70861904D01*
X121795295Y-70861904D02*
X121700057Y-70814285D01*
X121700057Y-70814285D02*
X121652438Y-70766666D01*
X121652438Y-70766666D02*
X121604819Y-70671428D01*
X121604819Y-70671428D02*
X121604819Y-70480952D01*
X121604819Y-70480952D02*
X121652438Y-70385714D01*
X121652438Y-70385714D02*
X121700057Y-70338095D01*
X121700057Y-70338095D02*
X121795295Y-70290476D01*
X121795295Y-70290476D02*
X121842914Y-70290476D01*
X121842914Y-70290476D02*
X121938152Y-70338095D01*
X121938152Y-70338095D02*
X121985771Y-70385714D01*
X121985771Y-70385714D02*
X122033390Y-70480952D01*
X122033390Y-70480952D02*
X122033390Y-70671428D01*
X122033390Y-70671428D02*
X122081009Y-70766666D01*
X122081009Y-70766666D02*
X122128628Y-70814285D01*
X122128628Y-70814285D02*
X122223866Y-70861904D01*
X122223866Y-70861904D02*
X122414342Y-70861904D01*
X122414342Y-70861904D02*
X122509580Y-70814285D01*
X122509580Y-70814285D02*
X122557200Y-70766666D01*
X122557200Y-70766666D02*
X122604819Y-70671428D01*
X122604819Y-70671428D02*
X122604819Y-70480952D01*
X122604819Y-70480952D02*
X122557200Y-70385714D01*
X122557200Y-70385714D02*
X122509580Y-70338095D01*
X122509580Y-70338095D02*
X122414342Y-70290476D01*
X122414342Y-70290476D02*
X122223866Y-70290476D01*
X122223866Y-70290476D02*
X122128628Y-70338095D01*
X122128628Y-70338095D02*
X122081009Y-70385714D01*
X122081009Y-70385714D02*
X122033390Y-70480952D01*
X98988095Y-74154819D02*
X98988095Y-74964342D01*
X98988095Y-74964342D02*
X99035714Y-75059580D01*
X99035714Y-75059580D02*
X99083333Y-75107200D01*
X99083333Y-75107200D02*
X99178571Y-75154819D01*
X99178571Y-75154819D02*
X99369047Y-75154819D01*
X99369047Y-75154819D02*
X99464285Y-75107200D01*
X99464285Y-75107200D02*
X99511904Y-75059580D01*
X99511904Y-75059580D02*
X99559523Y-74964342D01*
X99559523Y-74964342D02*
X99559523Y-74154819D01*
X99988095Y-74250057D02*
X100035714Y-74202438D01*
X100035714Y-74202438D02*
X100130952Y-74154819D01*
X100130952Y-74154819D02*
X100369047Y-74154819D01*
X100369047Y-74154819D02*
X100464285Y-74202438D01*
X100464285Y-74202438D02*
X100511904Y-74250057D01*
X100511904Y-74250057D02*
X100559523Y-74345295D01*
X100559523Y-74345295D02*
X100559523Y-74440533D01*
X100559523Y-74440533D02*
X100511904Y-74583390D01*
X100511904Y-74583390D02*
X99940476Y-75154819D01*
X99940476Y-75154819D02*
X100559523Y-75154819D01*
X111585544Y-38431905D02*
X111013124Y-37859485D01*
X111013124Y-37859485D02*
X110912109Y-37825813D01*
X110912109Y-37825813D02*
X110844765Y-37825813D01*
X110844765Y-37825813D02*
X110743750Y-37859485D01*
X110743750Y-37859485D02*
X110609063Y-37994172D01*
X110609063Y-37994172D02*
X110575391Y-38095187D01*
X110575391Y-38095187D02*
X110575391Y-38162531D01*
X110575391Y-38162531D02*
X110609063Y-38263546D01*
X110609063Y-38263546D02*
X111181483Y-38835966D01*
X110306017Y-39240027D02*
X109834613Y-38768622D01*
X110743750Y-39341042D02*
X110407032Y-38667607D01*
X110407032Y-38667607D02*
X109969300Y-39105340D01*
X110916816Y-37168399D02*
X110748458Y-37000040D01*
X110984160Y-36899025D02*
X110748458Y-37000040D01*
X110748458Y-37000040D02*
X110647442Y-37235742D01*
X110714786Y-36764338D02*
X110748458Y-37000040D01*
X110748458Y-37000040D02*
X110512755Y-36966368D01*
X110145815Y-36397396D02*
X110314173Y-36565755D01*
X110078471Y-36666770D02*
X110314173Y-36565755D01*
X110314173Y-36565755D02*
X110415189Y-36330053D01*
X110347845Y-36801457D02*
X110314173Y-36565755D01*
X110314173Y-36565755D02*
X110549876Y-36599427D01*
X92904761Y-65750057D02*
X92809523Y-65702438D01*
X92809523Y-65702438D02*
X92714285Y-65607200D01*
X92714285Y-65607200D02*
X92571428Y-65464342D01*
X92571428Y-65464342D02*
X92476190Y-65416723D01*
X92476190Y-65416723D02*
X92380952Y-65416723D01*
X92428571Y-65654819D02*
X92333333Y-65607200D01*
X92333333Y-65607200D02*
X92238095Y-65511961D01*
X92238095Y-65511961D02*
X92190476Y-65321485D01*
X92190476Y-65321485D02*
X92190476Y-64988152D01*
X92190476Y-64988152D02*
X92238095Y-64797676D01*
X92238095Y-64797676D02*
X92333333Y-64702438D01*
X92333333Y-64702438D02*
X92428571Y-64654819D01*
X92428571Y-64654819D02*
X92619047Y-64654819D01*
X92619047Y-64654819D02*
X92714285Y-64702438D01*
X92714285Y-64702438D02*
X92809523Y-64797676D01*
X92809523Y-64797676D02*
X92857142Y-64988152D01*
X92857142Y-64988152D02*
X92857142Y-65321485D01*
X92857142Y-65321485D02*
X92809523Y-65511961D01*
X92809523Y-65511961D02*
X92714285Y-65607200D01*
X92714285Y-65607200D02*
X92619047Y-65654819D01*
X92619047Y-65654819D02*
X92428571Y-65654819D01*
X93190476Y-64654819D02*
X93809523Y-64654819D01*
X93809523Y-64654819D02*
X93476190Y-65035771D01*
X93476190Y-65035771D02*
X93619047Y-65035771D01*
X93619047Y-65035771D02*
X93714285Y-65083390D01*
X93714285Y-65083390D02*
X93761904Y-65131009D01*
X93761904Y-65131009D02*
X93809523Y-65226247D01*
X93809523Y-65226247D02*
X93809523Y-65464342D01*
X93809523Y-65464342D02*
X93761904Y-65559580D01*
X93761904Y-65559580D02*
X93714285Y-65607200D01*
X93714285Y-65607200D02*
X93619047Y-65654819D01*
X93619047Y-65654819D02*
X93333333Y-65654819D01*
X93333333Y-65654819D02*
X93238095Y-65607200D01*
X93238095Y-65607200D02*
X93190476Y-65559580D01*
D12*
X105595238Y-42478742D02*
X105595238Y-42859695D01*
X105171905Y-42059695D02*
X105595238Y-42478742D01*
X105595238Y-42478742D02*
X106018572Y-42059695D01*
X107107143Y-42859695D02*
X106381428Y-42859695D01*
X106744285Y-42859695D02*
X106744285Y-42059695D01*
X106744285Y-42059695D02*
X106623333Y-42173980D01*
X106623333Y-42173980D02*
X106502381Y-42250171D01*
X106502381Y-42250171D02*
X106381428Y-42288266D01*
D10*
X86504819Y-66642857D02*
X86028628Y-66976190D01*
X86504819Y-67214285D02*
X85504819Y-67214285D01*
X85504819Y-67214285D02*
X85504819Y-66833333D01*
X85504819Y-66833333D02*
X85552438Y-66738095D01*
X85552438Y-66738095D02*
X85600057Y-66690476D01*
X85600057Y-66690476D02*
X85695295Y-66642857D01*
X85695295Y-66642857D02*
X85838152Y-66642857D01*
X85838152Y-66642857D02*
X85933390Y-66690476D01*
X85933390Y-66690476D02*
X85981009Y-66738095D01*
X85981009Y-66738095D02*
X86028628Y-66833333D01*
X86028628Y-66833333D02*
X86028628Y-67214285D01*
X86504819Y-65690476D02*
X86504819Y-66261904D01*
X86504819Y-65976190D02*
X85504819Y-65976190D01*
X85504819Y-65976190D02*
X85647676Y-66071428D01*
X85647676Y-66071428D02*
X85742914Y-66166666D01*
X85742914Y-66166666D02*
X85790533Y-66261904D01*
X85504819Y-65071428D02*
X85504819Y-64976190D01*
X85504819Y-64976190D02*
X85552438Y-64880952D01*
X85552438Y-64880952D02*
X85600057Y-64833333D01*
X85600057Y-64833333D02*
X85695295Y-64785714D01*
X85695295Y-64785714D02*
X85885771Y-64738095D01*
X85885771Y-64738095D02*
X86123866Y-64738095D01*
X86123866Y-64738095D02*
X86314342Y-64785714D01*
X86314342Y-64785714D02*
X86409580Y-64833333D01*
X86409580Y-64833333D02*
X86457200Y-64880952D01*
X86457200Y-64880952D02*
X86504819Y-64976190D01*
X86504819Y-64976190D02*
X86504819Y-65071428D01*
X86504819Y-65071428D02*
X86457200Y-65166666D01*
X86457200Y-65166666D02*
X86409580Y-65214285D01*
X86409580Y-65214285D02*
X86314342Y-65261904D01*
X86314342Y-65261904D02*
X86123866Y-65309523D01*
X86123866Y-65309523D02*
X85885771Y-65309523D01*
X85885771Y-65309523D02*
X85695295Y-65261904D01*
X85695295Y-65261904D02*
X85600057Y-65214285D01*
X85600057Y-65214285D02*
X85552438Y-65166666D01*
X85552438Y-65166666D02*
X85504819Y-65071428D01*
X118657142Y-35159580D02*
X118609523Y-35207200D01*
X118609523Y-35207200D02*
X118466666Y-35254819D01*
X118466666Y-35254819D02*
X118371428Y-35254819D01*
X118371428Y-35254819D02*
X118228571Y-35207200D01*
X118228571Y-35207200D02*
X118133333Y-35111961D01*
X118133333Y-35111961D02*
X118085714Y-35016723D01*
X118085714Y-35016723D02*
X118038095Y-34826247D01*
X118038095Y-34826247D02*
X118038095Y-34683390D01*
X118038095Y-34683390D02*
X118085714Y-34492914D01*
X118085714Y-34492914D02*
X118133333Y-34397676D01*
X118133333Y-34397676D02*
X118228571Y-34302438D01*
X118228571Y-34302438D02*
X118371428Y-34254819D01*
X118371428Y-34254819D02*
X118466666Y-34254819D01*
X118466666Y-34254819D02*
X118609523Y-34302438D01*
X118609523Y-34302438D02*
X118657142Y-34350057D01*
X119038095Y-34350057D02*
X119085714Y-34302438D01*
X119085714Y-34302438D02*
X119180952Y-34254819D01*
X119180952Y-34254819D02*
X119419047Y-34254819D01*
X119419047Y-34254819D02*
X119514285Y-34302438D01*
X119514285Y-34302438D02*
X119561904Y-34350057D01*
X119561904Y-34350057D02*
X119609523Y-34445295D01*
X119609523Y-34445295D02*
X119609523Y-34540533D01*
X119609523Y-34540533D02*
X119561904Y-34683390D01*
X119561904Y-34683390D02*
X118990476Y-35254819D01*
X118990476Y-35254819D02*
X119609523Y-35254819D01*
X119942857Y-34254819D02*
X120609523Y-34254819D01*
X120609523Y-34254819D02*
X120180952Y-35254819D01*
X80957142Y-48784819D02*
X80623809Y-48308628D01*
X80385714Y-48784819D02*
X80385714Y-47784819D01*
X80385714Y-47784819D02*
X80766666Y-47784819D01*
X80766666Y-47784819D02*
X80861904Y-47832438D01*
X80861904Y-47832438D02*
X80909523Y-47880057D01*
X80909523Y-47880057D02*
X80957142Y-47975295D01*
X80957142Y-47975295D02*
X80957142Y-48118152D01*
X80957142Y-48118152D02*
X80909523Y-48213390D01*
X80909523Y-48213390D02*
X80861904Y-48261009D01*
X80861904Y-48261009D02*
X80766666Y-48308628D01*
X80766666Y-48308628D02*
X80385714Y-48308628D01*
X81814285Y-48118152D02*
X81814285Y-48784819D01*
X81576190Y-47737200D02*
X81338095Y-48451485D01*
X81338095Y-48451485D02*
X81957142Y-48451485D01*
X82814285Y-47784819D02*
X82338095Y-47784819D01*
X82338095Y-47784819D02*
X82290476Y-48261009D01*
X82290476Y-48261009D02*
X82338095Y-48213390D01*
X82338095Y-48213390D02*
X82433333Y-48165771D01*
X82433333Y-48165771D02*
X82671428Y-48165771D01*
X82671428Y-48165771D02*
X82766666Y-48213390D01*
X82766666Y-48213390D02*
X82814285Y-48261009D01*
X82814285Y-48261009D02*
X82861904Y-48356247D01*
X82861904Y-48356247D02*
X82861904Y-48594342D01*
X82861904Y-48594342D02*
X82814285Y-48689580D01*
X82814285Y-48689580D02*
X82766666Y-48737200D01*
X82766666Y-48737200D02*
X82671428Y-48784819D01*
X82671428Y-48784819D02*
X82433333Y-48784819D01*
X82433333Y-48784819D02*
X82338095Y-48737200D01*
X82338095Y-48737200D02*
X82290476Y-48689580D01*
X113844642Y-34761104D02*
X113797023Y-34799200D01*
X113797023Y-34799200D02*
X113654166Y-34837295D01*
X113654166Y-34837295D02*
X113558928Y-34837295D01*
X113558928Y-34837295D02*
X113416071Y-34799200D01*
X113416071Y-34799200D02*
X113320833Y-34723009D01*
X113320833Y-34723009D02*
X113273214Y-34646819D01*
X113273214Y-34646819D02*
X113225595Y-34494438D01*
X113225595Y-34494438D02*
X113225595Y-34380152D01*
X113225595Y-34380152D02*
X113273214Y-34227771D01*
X113273214Y-34227771D02*
X113320833Y-34151580D01*
X113320833Y-34151580D02*
X113416071Y-34075390D01*
X113416071Y-34075390D02*
X113558928Y-34037295D01*
X113558928Y-34037295D02*
X113654166Y-34037295D01*
X113654166Y-34037295D02*
X113797023Y-34075390D01*
X113797023Y-34075390D02*
X113844642Y-34113485D01*
X114177976Y-34037295D02*
X114797023Y-34037295D01*
X114797023Y-34037295D02*
X114463690Y-34342057D01*
X114463690Y-34342057D02*
X114606547Y-34342057D01*
X114606547Y-34342057D02*
X114701785Y-34380152D01*
X114701785Y-34380152D02*
X114749404Y-34418247D01*
X114749404Y-34418247D02*
X114797023Y-34494438D01*
X114797023Y-34494438D02*
X114797023Y-34684914D01*
X114797023Y-34684914D02*
X114749404Y-34761104D01*
X114749404Y-34761104D02*
X114701785Y-34799200D01*
X114701785Y-34799200D02*
X114606547Y-34837295D01*
X114606547Y-34837295D02*
X114320833Y-34837295D01*
X114320833Y-34837295D02*
X114225595Y-34799200D01*
X114225595Y-34799200D02*
X114177976Y-34761104D01*
X115368452Y-34380152D02*
X115273214Y-34342057D01*
X115273214Y-34342057D02*
X115225595Y-34303961D01*
X115225595Y-34303961D02*
X115177976Y-34227771D01*
X115177976Y-34227771D02*
X115177976Y-34189676D01*
X115177976Y-34189676D02*
X115225595Y-34113485D01*
X115225595Y-34113485D02*
X115273214Y-34075390D01*
X115273214Y-34075390D02*
X115368452Y-34037295D01*
X115368452Y-34037295D02*
X115558928Y-34037295D01*
X115558928Y-34037295D02*
X115654166Y-34075390D01*
X115654166Y-34075390D02*
X115701785Y-34113485D01*
X115701785Y-34113485D02*
X115749404Y-34189676D01*
X115749404Y-34189676D02*
X115749404Y-34227771D01*
X115749404Y-34227771D02*
X115701785Y-34303961D01*
X115701785Y-34303961D02*
X115654166Y-34342057D01*
X115654166Y-34342057D02*
X115558928Y-34380152D01*
X115558928Y-34380152D02*
X115368452Y-34380152D01*
X115368452Y-34380152D02*
X115273214Y-34418247D01*
X115273214Y-34418247D02*
X115225595Y-34456342D01*
X115225595Y-34456342D02*
X115177976Y-34532533D01*
X115177976Y-34532533D02*
X115177976Y-34684914D01*
X115177976Y-34684914D02*
X115225595Y-34761104D01*
X115225595Y-34761104D02*
X115273214Y-34799200D01*
X115273214Y-34799200D02*
X115368452Y-34837295D01*
X115368452Y-34837295D02*
X115558928Y-34837295D01*
X115558928Y-34837295D02*
X115654166Y-34799200D01*
X115654166Y-34799200D02*
X115701785Y-34761104D01*
X115701785Y-34761104D02*
X115749404Y-34684914D01*
X115749404Y-34684914D02*
X115749404Y-34532533D01*
X115749404Y-34532533D02*
X115701785Y-34456342D01*
X115701785Y-34456342D02*
X115654166Y-34418247D01*
X115654166Y-34418247D02*
X115558928Y-34380152D01*
X101387080Y-41162857D02*
X101434700Y-41210476D01*
X101434700Y-41210476D02*
X101482319Y-41353333D01*
X101482319Y-41353333D02*
X101482319Y-41448571D01*
X101482319Y-41448571D02*
X101434700Y-41591428D01*
X101434700Y-41591428D02*
X101339461Y-41686666D01*
X101339461Y-41686666D02*
X101244223Y-41734285D01*
X101244223Y-41734285D02*
X101053747Y-41781904D01*
X101053747Y-41781904D02*
X100910890Y-41781904D01*
X100910890Y-41781904D02*
X100720414Y-41734285D01*
X100720414Y-41734285D02*
X100625176Y-41686666D01*
X100625176Y-41686666D02*
X100529938Y-41591428D01*
X100529938Y-41591428D02*
X100482319Y-41448571D01*
X100482319Y-41448571D02*
X100482319Y-41353333D01*
X100482319Y-41353333D02*
X100529938Y-41210476D01*
X100529938Y-41210476D02*
X100577557Y-41162857D01*
X100482319Y-40829523D02*
X100482319Y-40210476D01*
X100482319Y-40210476D02*
X100863271Y-40543809D01*
X100863271Y-40543809D02*
X100863271Y-40400952D01*
X100863271Y-40400952D02*
X100910890Y-40305714D01*
X100910890Y-40305714D02*
X100958509Y-40258095D01*
X100958509Y-40258095D02*
X101053747Y-40210476D01*
X101053747Y-40210476D02*
X101291842Y-40210476D01*
X101291842Y-40210476D02*
X101387080Y-40258095D01*
X101387080Y-40258095D02*
X101434700Y-40305714D01*
X101434700Y-40305714D02*
X101482319Y-40400952D01*
X101482319Y-40400952D02*
X101482319Y-40686666D01*
X101482319Y-40686666D02*
X101434700Y-40781904D01*
X101434700Y-40781904D02*
X101387080Y-40829523D01*
X100482319Y-39305714D02*
X100482319Y-39781904D01*
X100482319Y-39781904D02*
X100958509Y-39829523D01*
X100958509Y-39829523D02*
X100910890Y-39781904D01*
X100910890Y-39781904D02*
X100863271Y-39686666D01*
X100863271Y-39686666D02*
X100863271Y-39448571D01*
X100863271Y-39448571D02*
X100910890Y-39353333D01*
X100910890Y-39353333D02*
X100958509Y-39305714D01*
X100958509Y-39305714D02*
X101053747Y-39258095D01*
X101053747Y-39258095D02*
X101291842Y-39258095D01*
X101291842Y-39258095D02*
X101387080Y-39305714D01*
X101387080Y-39305714D02*
X101434700Y-39353333D01*
X101434700Y-39353333D02*
X101482319Y-39448571D01*
X101482319Y-39448571D02*
X101482319Y-39686666D01*
X101482319Y-39686666D02*
X101434700Y-39781904D01*
X101434700Y-39781904D02*
X101387080Y-39829523D01*
X111559580Y-45242857D02*
X111607200Y-45290476D01*
X111607200Y-45290476D02*
X111654819Y-45433333D01*
X111654819Y-45433333D02*
X111654819Y-45528571D01*
X111654819Y-45528571D02*
X111607200Y-45671428D01*
X111607200Y-45671428D02*
X111511961Y-45766666D01*
X111511961Y-45766666D02*
X111416723Y-45814285D01*
X111416723Y-45814285D02*
X111226247Y-45861904D01*
X111226247Y-45861904D02*
X111083390Y-45861904D01*
X111083390Y-45861904D02*
X110892914Y-45814285D01*
X110892914Y-45814285D02*
X110797676Y-45766666D01*
X110797676Y-45766666D02*
X110702438Y-45671428D01*
X110702438Y-45671428D02*
X110654819Y-45528571D01*
X110654819Y-45528571D02*
X110654819Y-45433333D01*
X110654819Y-45433333D02*
X110702438Y-45290476D01*
X110702438Y-45290476D02*
X110750057Y-45242857D01*
X111654819Y-44290476D02*
X111654819Y-44861904D01*
X111654819Y-44576190D02*
X110654819Y-44576190D01*
X110654819Y-44576190D02*
X110797676Y-44671428D01*
X110797676Y-44671428D02*
X110892914Y-44766666D01*
X110892914Y-44766666D02*
X110940533Y-44861904D01*
X110654819Y-43433333D02*
X110654819Y-43623809D01*
X110654819Y-43623809D02*
X110702438Y-43719047D01*
X110702438Y-43719047D02*
X110750057Y-43766666D01*
X110750057Y-43766666D02*
X110892914Y-43861904D01*
X110892914Y-43861904D02*
X111083390Y-43909523D01*
X111083390Y-43909523D02*
X111464342Y-43909523D01*
X111464342Y-43909523D02*
X111559580Y-43861904D01*
X111559580Y-43861904D02*
X111607200Y-43814285D01*
X111607200Y-43814285D02*
X111654819Y-43719047D01*
X111654819Y-43719047D02*
X111654819Y-43528571D01*
X111654819Y-43528571D02*
X111607200Y-43433333D01*
X111607200Y-43433333D02*
X111559580Y-43385714D01*
X111559580Y-43385714D02*
X111464342Y-43338095D01*
X111464342Y-43338095D02*
X111226247Y-43338095D01*
X111226247Y-43338095D02*
X111131009Y-43385714D01*
X111131009Y-43385714D02*
X111083390Y-43433333D01*
X111083390Y-43433333D02*
X111035771Y-43528571D01*
X111035771Y-43528571D02*
X111035771Y-43719047D01*
X111035771Y-43719047D02*
X111083390Y-43814285D01*
X111083390Y-43814285D02*
X111131009Y-43861904D01*
X111131009Y-43861904D02*
X111226247Y-43909523D01*
X129208333Y-64554819D02*
X128875000Y-64078628D01*
X128636905Y-64554819D02*
X128636905Y-63554819D01*
X128636905Y-63554819D02*
X129017857Y-63554819D01*
X129017857Y-63554819D02*
X129113095Y-63602438D01*
X129113095Y-63602438D02*
X129160714Y-63650057D01*
X129160714Y-63650057D02*
X129208333Y-63745295D01*
X129208333Y-63745295D02*
X129208333Y-63888152D01*
X129208333Y-63888152D02*
X129160714Y-63983390D01*
X129160714Y-63983390D02*
X129113095Y-64031009D01*
X129113095Y-64031009D02*
X129017857Y-64078628D01*
X129017857Y-64078628D02*
X128636905Y-64078628D01*
X129684524Y-64554819D02*
X129875000Y-64554819D01*
X129875000Y-64554819D02*
X129970238Y-64507200D01*
X129970238Y-64507200D02*
X130017857Y-64459580D01*
X130017857Y-64459580D02*
X130113095Y-64316723D01*
X130113095Y-64316723D02*
X130160714Y-64126247D01*
X130160714Y-64126247D02*
X130160714Y-63745295D01*
X130160714Y-63745295D02*
X130113095Y-63650057D01*
X130113095Y-63650057D02*
X130065476Y-63602438D01*
X130065476Y-63602438D02*
X129970238Y-63554819D01*
X129970238Y-63554819D02*
X129779762Y-63554819D01*
X129779762Y-63554819D02*
X129684524Y-63602438D01*
X129684524Y-63602438D02*
X129636905Y-63650057D01*
X129636905Y-63650057D02*
X129589286Y-63745295D01*
X129589286Y-63745295D02*
X129589286Y-63983390D01*
X129589286Y-63983390D02*
X129636905Y-64078628D01*
X129636905Y-64078628D02*
X129684524Y-64126247D01*
X129684524Y-64126247D02*
X129779762Y-64173866D01*
X129779762Y-64173866D02*
X129970238Y-64173866D01*
X129970238Y-64173866D02*
X130065476Y-64126247D01*
X130065476Y-64126247D02*
X130113095Y-64078628D01*
X130113095Y-64078628D02*
X130160714Y-63983390D01*
X80064795Y-58966666D02*
X79683842Y-59299999D01*
X80064795Y-59538094D02*
X79264795Y-59538094D01*
X79264795Y-59538094D02*
X79264795Y-59157142D01*
X79264795Y-59157142D02*
X79302890Y-59061904D01*
X79302890Y-59061904D02*
X79340985Y-59014285D01*
X79340985Y-59014285D02*
X79417176Y-58966666D01*
X79417176Y-58966666D02*
X79531461Y-58966666D01*
X79531461Y-58966666D02*
X79607652Y-59014285D01*
X79607652Y-59014285D02*
X79645747Y-59061904D01*
X79645747Y-59061904D02*
X79683842Y-59157142D01*
X79683842Y-59157142D02*
X79683842Y-59538094D01*
X80064795Y-58538094D02*
X79264795Y-58538094D01*
X79264795Y-58538094D02*
X80064795Y-57966666D01*
X80064795Y-57966666D02*
X79264795Y-57966666D01*
X80064795Y-56966666D02*
X80064795Y-57538094D01*
X80064795Y-57252380D02*
X79264795Y-57252380D01*
X79264795Y-57252380D02*
X79379080Y-57347618D01*
X79379080Y-57347618D02*
X79455271Y-57442856D01*
X79455271Y-57442856D02*
X79493366Y-57538094D01*
X79264795Y-56347618D02*
X79264795Y-56252380D01*
X79264795Y-56252380D02*
X79302890Y-56157142D01*
X79302890Y-56157142D02*
X79340985Y-56109523D01*
X79340985Y-56109523D02*
X79417176Y-56061904D01*
X79417176Y-56061904D02*
X79569557Y-56014285D01*
X79569557Y-56014285D02*
X79760033Y-56014285D01*
X79760033Y-56014285D02*
X79912414Y-56061904D01*
X79912414Y-56061904D02*
X79988604Y-56109523D01*
X79988604Y-56109523D02*
X80026700Y-56157142D01*
X80026700Y-56157142D02*
X80064795Y-56252380D01*
X80064795Y-56252380D02*
X80064795Y-56347618D01*
X80064795Y-56347618D02*
X80026700Y-56442856D01*
X80026700Y-56442856D02*
X79988604Y-56490475D01*
X79988604Y-56490475D02*
X79912414Y-56538094D01*
X79912414Y-56538094D02*
X79760033Y-56585713D01*
X79760033Y-56585713D02*
X79569557Y-56585713D01*
X79569557Y-56585713D02*
X79417176Y-56538094D01*
X79417176Y-56538094D02*
X79340985Y-56490475D01*
X79340985Y-56490475D02*
X79302890Y-56442856D01*
X79302890Y-56442856D02*
X79264795Y-56347618D01*
D13*
G36*
X93692434Y-51971136D02*
G01*
X93692434Y-52279963D01*
X92150041Y-52897757D01*
X92150041Y-52621091D01*
X92542508Y-52473067D01*
X92542508Y-52415206D01*
X92695648Y-52415206D01*
X93178333Y-52231792D01*
X93322040Y-52178565D01*
X93467944Y-52125620D01*
X93322040Y-52072393D01*
X93178333Y-52019447D01*
X92695648Y-51836033D01*
X92695648Y-52415206D01*
X92542508Y-52415206D01*
X92542508Y-51778031D01*
X92150041Y-51630008D01*
X92150041Y-51353342D01*
X93692434Y-51971136D01*
G37*
G36*
X92150041Y-53614982D02*
G01*
X92305287Y-53614982D01*
X92305287Y-53923809D01*
X93539294Y-53923809D01*
X93539294Y-53614982D01*
X93692434Y-53614982D01*
X93692434Y-54496662D01*
X93539294Y-54496662D01*
X93539294Y-54187695D01*
X92305287Y-54187695D01*
X92305287Y-54496662D01*
X92150041Y-54496662D01*
X92150041Y-53614982D01*
G37*
G36*
X92133279Y-55982794D02*
G01*
X92140607Y-55810615D01*
X92151040Y-55726330D01*
X92167809Y-55643211D01*
X92191187Y-55564005D01*
X92221390Y-55490413D01*
X92258244Y-55425095D01*
X92301166Y-55371320D01*
X92349282Y-55328827D01*
X92401824Y-55297308D01*
X92456987Y-55278022D01*
X92513107Y-55271608D01*
X92527762Y-55271608D01*
X92527762Y-55538724D01*
X92519427Y-55538724D01*
X92468168Y-55547896D01*
X92418677Y-55575660D01*
X92374733Y-55620088D01*
X92339909Y-55678602D01*
X92314457Y-55747846D01*
X92298968Y-55823395D01*
X92288526Y-55982794D01*
X92300067Y-56145142D01*
X92316937Y-56223128D01*
X92344122Y-56291621D01*
X92380663Y-56348892D01*
X92425913Y-56392878D01*
X92476630Y-56420701D01*
X92529869Y-56429954D01*
X92585159Y-56419235D01*
X92638954Y-56386558D01*
X92687707Y-56336862D01*
X92728163Y-56275611D01*
X92761707Y-56204889D01*
X92788980Y-56127587D01*
X92835142Y-55964958D01*
X92881304Y-55804155D01*
X92936991Y-55651357D01*
X93008340Y-55512883D01*
X93050363Y-55452893D01*
X93096451Y-55401936D01*
X93146438Y-55360585D01*
X93200315Y-55329469D01*
X93256693Y-55310208D01*
X93314713Y-55303769D01*
X93369208Y-55309316D01*
X93424897Y-55326239D01*
X93478597Y-55354607D01*
X93527662Y-55393931D01*
X93572138Y-55444426D01*
X93611651Y-55506563D01*
X93644784Y-55577152D01*
X93670361Y-55652901D01*
X93689015Y-55733369D01*
X93700860Y-55817075D01*
X93709287Y-55989254D01*
X93701868Y-56158063D01*
X93691109Y-56241918D01*
X93673566Y-56322237D01*
X93649212Y-56398131D01*
X93617971Y-56468575D01*
X93580392Y-56531102D01*
X93537187Y-56582893D01*
X93489200Y-56623459D01*
X93437445Y-56651989D01*
X93383587Y-56668971D01*
X93329459Y-56674600D01*
X93314713Y-56674600D01*
X93314713Y-56407484D01*
X93323139Y-56407484D01*
X93372568Y-56399491D01*
X93420683Y-56375323D01*
X93464067Y-56335795D01*
X93499360Y-56281931D01*
X93525830Y-56216947D01*
X93542408Y-56143598D01*
X93553948Y-55989254D01*
X93550827Y-55912070D01*
X93541309Y-55833086D01*
X93523696Y-55758459D01*
X93496246Y-55693067D01*
X93459729Y-55639450D01*
X93414364Y-55599815D01*
X93364441Y-55575575D01*
X93314713Y-55567655D01*
X93257815Y-55578502D01*
X93204528Y-55611050D01*
X93156398Y-55660336D01*
X93115319Y-55720453D01*
X93081066Y-55790239D01*
X93053403Y-55868476D01*
X93007241Y-56030965D01*
X92961079Y-56191909D01*
X92905484Y-56346392D01*
X92834134Y-56484725D01*
X92792112Y-56544716D01*
X92746024Y-56595673D01*
X92696028Y-56637099D01*
X92642159Y-56668140D01*
X92586127Y-56687452D01*
X92529869Y-56693840D01*
X92471816Y-56687780D01*
X92415471Y-56669684D01*
X92361695Y-56639586D01*
X92311607Y-56597358D01*
X92266539Y-56543519D01*
X92227618Y-56478265D01*
X92195547Y-56404777D01*
X92171015Y-56327012D01*
X92153255Y-56244853D01*
X92141706Y-56158063D01*
X92133279Y-55982794D01*
G37*
G36*
X92150041Y-57375534D02*
G01*
X93692434Y-57375534D01*
X93692434Y-57642650D01*
X92305287Y-57642650D01*
X92305287Y-58617582D01*
X92150041Y-58617582D01*
X92150041Y-57375534D01*
G37*
G36*
X92150041Y-59190014D02*
G01*
X93692434Y-59190014D01*
X93692434Y-60528544D01*
X93539294Y-60528544D01*
X93539294Y-59456990D01*
X93029315Y-59456990D01*
X93029315Y-60322660D01*
X92874068Y-60322660D01*
X92874068Y-59456990D01*
X92305287Y-59456990D01*
X92305287Y-60528544D01*
X92150041Y-60528544D01*
X92150041Y-59190014D01*
G37*
G36*
X93692434Y-61837723D02*
G01*
X93680894Y-62017907D01*
X93664818Y-62105090D01*
X93639952Y-62185170D01*
X93606829Y-62258102D01*
X93565489Y-62323503D01*
X93518109Y-62378458D01*
X93466845Y-62420126D01*
X93412176Y-62450219D01*
X93354555Y-62469982D01*
X93237043Y-62484447D01*
X93163651Y-62478460D01*
X93089124Y-62460292D01*
X93017418Y-62426520D01*
X92951646Y-62373500D01*
X92894166Y-62301765D01*
X92846774Y-62210871D01*
X92811511Y-62107532D01*
X92790079Y-61998666D01*
X92150041Y-62535989D01*
X92150041Y-62239942D01*
X92630064Y-61837723D01*
X92936991Y-61837723D01*
X92946425Y-61950215D01*
X92958744Y-62002951D01*
X92976833Y-62051612D01*
X93000124Y-62095048D01*
X93028216Y-62132084D01*
X93093337Y-62185170D01*
X93164686Y-62211011D01*
X93237043Y-62217471D01*
X93311598Y-62211011D01*
X93382948Y-62185170D01*
X93447978Y-62132084D01*
X93476069Y-62095048D01*
X93499360Y-62051612D01*
X93517520Y-62002942D01*
X93529860Y-61950215D01*
X93539294Y-61837723D01*
X93539294Y-61361492D01*
X92936991Y-61361492D01*
X92936991Y-61837723D01*
X92630064Y-61837723D01*
X92783759Y-61708940D01*
X92783759Y-61361492D01*
X92150041Y-61361492D01*
X92150041Y-61094376D01*
X93692434Y-61094376D01*
X93692434Y-61837723D01*
G37*
D10*
X100295833Y-65172080D02*
X100248214Y-65219700D01*
X100248214Y-65219700D02*
X100105357Y-65267319D01*
X100105357Y-65267319D02*
X100010119Y-65267319D01*
X100010119Y-65267319D02*
X99867262Y-65219700D01*
X99867262Y-65219700D02*
X99772024Y-65124461D01*
X99772024Y-65124461D02*
X99724405Y-65029223D01*
X99724405Y-65029223D02*
X99676786Y-64838747D01*
X99676786Y-64838747D02*
X99676786Y-64695890D01*
X99676786Y-64695890D02*
X99724405Y-64505414D01*
X99724405Y-64505414D02*
X99772024Y-64410176D01*
X99772024Y-64410176D02*
X99867262Y-64314938D01*
X99867262Y-64314938D02*
X100010119Y-64267319D01*
X100010119Y-64267319D02*
X100105357Y-64267319D01*
X100105357Y-64267319D02*
X100248214Y-64314938D01*
X100248214Y-64314938D02*
X100295833Y-64362557D01*
X100676786Y-64362557D02*
X100724405Y-64314938D01*
X100724405Y-64314938D02*
X100819643Y-64267319D01*
X100819643Y-64267319D02*
X101057738Y-64267319D01*
X101057738Y-64267319D02*
X101152976Y-64314938D01*
X101152976Y-64314938D02*
X101200595Y-64362557D01*
X101200595Y-64362557D02*
X101248214Y-64457795D01*
X101248214Y-64457795D02*
X101248214Y-64553033D01*
X101248214Y-64553033D02*
X101200595Y-64695890D01*
X101200595Y-64695890D02*
X100629167Y-65267319D01*
X100629167Y-65267319D02*
X101248214Y-65267319D01*
X136252295Y-62822857D02*
X135871342Y-63156190D01*
X136252295Y-63394285D02*
X135452295Y-63394285D01*
X135452295Y-63394285D02*
X135452295Y-63013333D01*
X135452295Y-63013333D02*
X135490390Y-62918095D01*
X135490390Y-62918095D02*
X135528485Y-62870476D01*
X135528485Y-62870476D02*
X135604676Y-62822857D01*
X135604676Y-62822857D02*
X135718961Y-62822857D01*
X135718961Y-62822857D02*
X135795152Y-62870476D01*
X135795152Y-62870476D02*
X135833247Y-62918095D01*
X135833247Y-62918095D02*
X135871342Y-63013333D01*
X135871342Y-63013333D02*
X135871342Y-63394285D01*
X136252295Y-61870476D02*
X136252295Y-62441904D01*
X136252295Y-62156190D02*
X135452295Y-62156190D01*
X135452295Y-62156190D02*
X135566580Y-62251428D01*
X135566580Y-62251428D02*
X135642771Y-62346666D01*
X135642771Y-62346666D02*
X135680866Y-62441904D01*
X136252295Y-61394285D02*
X136252295Y-61203809D01*
X136252295Y-61203809D02*
X136214200Y-61108571D01*
X136214200Y-61108571D02*
X136176104Y-61060952D01*
X136176104Y-61060952D02*
X136061819Y-60965714D01*
X136061819Y-60965714D02*
X135909438Y-60918095D01*
X135909438Y-60918095D02*
X135604676Y-60918095D01*
X135604676Y-60918095D02*
X135528485Y-60965714D01*
X135528485Y-60965714D02*
X135490390Y-61013333D01*
X135490390Y-61013333D02*
X135452295Y-61108571D01*
X135452295Y-61108571D02*
X135452295Y-61299047D01*
X135452295Y-61299047D02*
X135490390Y-61394285D01*
X135490390Y-61394285D02*
X135528485Y-61441904D01*
X135528485Y-61441904D02*
X135604676Y-61489523D01*
X135604676Y-61489523D02*
X135795152Y-61489523D01*
X135795152Y-61489523D02*
X135871342Y-61441904D01*
X135871342Y-61441904D02*
X135909438Y-61394285D01*
X135909438Y-61394285D02*
X135947533Y-61299047D01*
X135947533Y-61299047D02*
X135947533Y-61108571D01*
X135947533Y-61108571D02*
X135909438Y-61013333D01*
X135909438Y-61013333D02*
X135871342Y-60965714D01*
X135871342Y-60965714D02*
X135795152Y-60918095D01*
X136895057Y-58769238D02*
X136847438Y-58864476D01*
X136847438Y-58864476D02*
X136752200Y-58959714D01*
X136752200Y-58959714D02*
X136609342Y-59102571D01*
X136609342Y-59102571D02*
X136561723Y-59197809D01*
X136561723Y-59197809D02*
X136561723Y-59293047D01*
X136799819Y-59245428D02*
X136752200Y-59340666D01*
X136752200Y-59340666D02*
X136656961Y-59435904D01*
X136656961Y-59435904D02*
X136466485Y-59483523D01*
X136466485Y-59483523D02*
X136133152Y-59483523D01*
X136133152Y-59483523D02*
X135942676Y-59435904D01*
X135942676Y-59435904D02*
X135847438Y-59340666D01*
X135847438Y-59340666D02*
X135799819Y-59245428D01*
X135799819Y-59245428D02*
X135799819Y-59054952D01*
X135799819Y-59054952D02*
X135847438Y-58959714D01*
X135847438Y-58959714D02*
X135942676Y-58864476D01*
X135942676Y-58864476D02*
X136133152Y-58816857D01*
X136133152Y-58816857D02*
X136466485Y-58816857D01*
X136466485Y-58816857D02*
X136656961Y-58864476D01*
X136656961Y-58864476D02*
X136752200Y-58959714D01*
X136752200Y-58959714D02*
X136799819Y-59054952D01*
X136799819Y-59054952D02*
X136799819Y-59245428D01*
X135799819Y-57912095D02*
X135799819Y-58388285D01*
X135799819Y-58388285D02*
X136276009Y-58435904D01*
X136276009Y-58435904D02*
X136228390Y-58388285D01*
X136228390Y-58388285D02*
X136180771Y-58293047D01*
X136180771Y-58293047D02*
X136180771Y-58054952D01*
X136180771Y-58054952D02*
X136228390Y-57959714D01*
X136228390Y-57959714D02*
X136276009Y-57912095D01*
X136276009Y-57912095D02*
X136371247Y-57864476D01*
X136371247Y-57864476D02*
X136609342Y-57864476D01*
X136609342Y-57864476D02*
X136704580Y-57912095D01*
X136704580Y-57912095D02*
X136752200Y-57959714D01*
X136752200Y-57959714D02*
X136799819Y-58054952D01*
X136799819Y-58054952D02*
X136799819Y-58293047D01*
X136799819Y-58293047D02*
X136752200Y-58388285D01*
X136752200Y-58388285D02*
X136704580Y-58435904D01*
X111829819Y-72490476D02*
X111353628Y-72823809D01*
X111829819Y-73061904D02*
X110829819Y-73061904D01*
X110829819Y-73061904D02*
X110829819Y-72680952D01*
X110829819Y-72680952D02*
X110877438Y-72585714D01*
X110877438Y-72585714D02*
X110925057Y-72538095D01*
X110925057Y-72538095D02*
X111020295Y-72490476D01*
X111020295Y-72490476D02*
X111163152Y-72490476D01*
X111163152Y-72490476D02*
X111258390Y-72538095D01*
X111258390Y-72538095D02*
X111306009Y-72585714D01*
X111306009Y-72585714D02*
X111353628Y-72680952D01*
X111353628Y-72680952D02*
X111353628Y-73061904D01*
X111829819Y-72061904D02*
X110829819Y-72061904D01*
X110829819Y-72061904D02*
X111829819Y-71490476D01*
X111829819Y-71490476D02*
X110829819Y-71490476D01*
X110829819Y-70585714D02*
X110829819Y-70776190D01*
X110829819Y-70776190D02*
X110877438Y-70871428D01*
X110877438Y-70871428D02*
X110925057Y-70919047D01*
X110925057Y-70919047D02*
X111067914Y-71014285D01*
X111067914Y-71014285D02*
X111258390Y-71061904D01*
X111258390Y-71061904D02*
X111639342Y-71061904D01*
X111639342Y-71061904D02*
X111734580Y-71014285D01*
X111734580Y-71014285D02*
X111782200Y-70966666D01*
X111782200Y-70966666D02*
X111829819Y-70871428D01*
X111829819Y-70871428D02*
X111829819Y-70680952D01*
X111829819Y-70680952D02*
X111782200Y-70585714D01*
X111782200Y-70585714D02*
X111734580Y-70538095D01*
X111734580Y-70538095D02*
X111639342Y-70490476D01*
X111639342Y-70490476D02*
X111401247Y-70490476D01*
X111401247Y-70490476D02*
X111306009Y-70538095D01*
X111306009Y-70538095D02*
X111258390Y-70585714D01*
X111258390Y-70585714D02*
X111210771Y-70680952D01*
X111210771Y-70680952D02*
X111210771Y-70871428D01*
X111210771Y-70871428D02*
X111258390Y-70966666D01*
X111258390Y-70966666D02*
X111306009Y-71014285D01*
X111306009Y-71014285D02*
X111401247Y-71061904D01*
X148957142Y-63454819D02*
X148623809Y-62978628D01*
X148385714Y-63454819D02*
X148385714Y-62454819D01*
X148385714Y-62454819D02*
X148766666Y-62454819D01*
X148766666Y-62454819D02*
X148861904Y-62502438D01*
X148861904Y-62502438D02*
X148909523Y-62550057D01*
X148909523Y-62550057D02*
X148957142Y-62645295D01*
X148957142Y-62645295D02*
X148957142Y-62788152D01*
X148957142Y-62788152D02*
X148909523Y-62883390D01*
X148909523Y-62883390D02*
X148861904Y-62931009D01*
X148861904Y-62931009D02*
X148766666Y-62978628D01*
X148766666Y-62978628D02*
X148385714Y-62978628D01*
X149909523Y-63454819D02*
X149338095Y-63454819D01*
X149623809Y-63454819D02*
X149623809Y-62454819D01*
X149623809Y-62454819D02*
X149528571Y-62597676D01*
X149528571Y-62597676D02*
X149433333Y-62692914D01*
X149433333Y-62692914D02*
X149338095Y-62740533D01*
X150814285Y-62454819D02*
X150338095Y-62454819D01*
X150338095Y-62454819D02*
X150290476Y-62931009D01*
X150290476Y-62931009D02*
X150338095Y-62883390D01*
X150338095Y-62883390D02*
X150433333Y-62835771D01*
X150433333Y-62835771D02*
X150671428Y-62835771D01*
X150671428Y-62835771D02*
X150766666Y-62883390D01*
X150766666Y-62883390D02*
X150814285Y-62931009D01*
X150814285Y-62931009D02*
X150861904Y-63026247D01*
X150861904Y-63026247D02*
X150861904Y-63264342D01*
X150861904Y-63264342D02*
X150814285Y-63359580D01*
X150814285Y-63359580D02*
X150766666Y-63407200D01*
X150766666Y-63407200D02*
X150671428Y-63454819D01*
X150671428Y-63454819D02*
X150433333Y-63454819D01*
X150433333Y-63454819D02*
X150338095Y-63407200D01*
X150338095Y-63407200D02*
X150290476Y-63359580D01*
X143728571Y-68550057D02*
X143633333Y-68502438D01*
X143633333Y-68502438D02*
X143538095Y-68407200D01*
X143538095Y-68407200D02*
X143395238Y-68264342D01*
X143395238Y-68264342D02*
X143300000Y-68216723D01*
X143300000Y-68216723D02*
X143204762Y-68216723D01*
X143252381Y-68454819D02*
X143157143Y-68407200D01*
X143157143Y-68407200D02*
X143061905Y-68311961D01*
X143061905Y-68311961D02*
X143014286Y-68121485D01*
X143014286Y-68121485D02*
X143014286Y-67788152D01*
X143014286Y-67788152D02*
X143061905Y-67597676D01*
X143061905Y-67597676D02*
X143157143Y-67502438D01*
X143157143Y-67502438D02*
X143252381Y-67454819D01*
X143252381Y-67454819D02*
X143442857Y-67454819D01*
X143442857Y-67454819D02*
X143538095Y-67502438D01*
X143538095Y-67502438D02*
X143633333Y-67597676D01*
X143633333Y-67597676D02*
X143680952Y-67788152D01*
X143680952Y-67788152D02*
X143680952Y-68121485D01*
X143680952Y-68121485D02*
X143633333Y-68311961D01*
X143633333Y-68311961D02*
X143538095Y-68407200D01*
X143538095Y-68407200D02*
X143442857Y-68454819D01*
X143442857Y-68454819D02*
X143252381Y-68454819D01*
X144633333Y-68454819D02*
X144061905Y-68454819D01*
X144347619Y-68454819D02*
X144347619Y-67454819D01*
X144347619Y-67454819D02*
X144252381Y-67597676D01*
X144252381Y-67597676D02*
X144157143Y-67692914D01*
X144157143Y-67692914D02*
X144061905Y-67740533D01*
X145585714Y-68454819D02*
X145014286Y-68454819D01*
X145300000Y-68454819D02*
X145300000Y-67454819D01*
X145300000Y-67454819D02*
X145204762Y-67597676D01*
X145204762Y-67597676D02*
X145109524Y-67692914D01*
X145109524Y-67692914D02*
X145014286Y-67740533D01*
X94865833Y-63999580D02*
X94818214Y-64047200D01*
X94818214Y-64047200D02*
X94675357Y-64094819D01*
X94675357Y-64094819D02*
X94580119Y-64094819D01*
X94580119Y-64094819D02*
X94437262Y-64047200D01*
X94437262Y-64047200D02*
X94342024Y-63951961D01*
X94342024Y-63951961D02*
X94294405Y-63856723D01*
X94294405Y-63856723D02*
X94246786Y-63666247D01*
X94246786Y-63666247D02*
X94246786Y-63523390D01*
X94246786Y-63523390D02*
X94294405Y-63332914D01*
X94294405Y-63332914D02*
X94342024Y-63237676D01*
X94342024Y-63237676D02*
X94437262Y-63142438D01*
X94437262Y-63142438D02*
X94580119Y-63094819D01*
X94580119Y-63094819D02*
X94675357Y-63094819D01*
X94675357Y-63094819D02*
X94818214Y-63142438D01*
X94818214Y-63142438D02*
X94865833Y-63190057D01*
X95199167Y-63094819D02*
X95818214Y-63094819D01*
X95818214Y-63094819D02*
X95484881Y-63475771D01*
X95484881Y-63475771D02*
X95627738Y-63475771D01*
X95627738Y-63475771D02*
X95722976Y-63523390D01*
X95722976Y-63523390D02*
X95770595Y-63571009D01*
X95770595Y-63571009D02*
X95818214Y-63666247D01*
X95818214Y-63666247D02*
X95818214Y-63904342D01*
X95818214Y-63904342D02*
X95770595Y-63999580D01*
X95770595Y-63999580D02*
X95722976Y-64047200D01*
X95722976Y-64047200D02*
X95627738Y-64094819D01*
X95627738Y-64094819D02*
X95342024Y-64094819D01*
X95342024Y-64094819D02*
X95246786Y-64047200D01*
X95246786Y-64047200D02*
X95199167Y-63999580D01*
X142754819Y-53042857D02*
X142278628Y-53376190D01*
X142754819Y-53614285D02*
X141754819Y-53614285D01*
X141754819Y-53614285D02*
X141754819Y-53233333D01*
X141754819Y-53233333D02*
X141802438Y-53138095D01*
X141802438Y-53138095D02*
X141850057Y-53090476D01*
X141850057Y-53090476D02*
X141945295Y-53042857D01*
X141945295Y-53042857D02*
X142088152Y-53042857D01*
X142088152Y-53042857D02*
X142183390Y-53090476D01*
X142183390Y-53090476D02*
X142231009Y-53138095D01*
X142231009Y-53138095D02*
X142278628Y-53233333D01*
X142278628Y-53233333D02*
X142278628Y-53614285D01*
X141754819Y-52709523D02*
X141754819Y-52090476D01*
X141754819Y-52090476D02*
X142135771Y-52423809D01*
X142135771Y-52423809D02*
X142135771Y-52280952D01*
X142135771Y-52280952D02*
X142183390Y-52185714D01*
X142183390Y-52185714D02*
X142231009Y-52138095D01*
X142231009Y-52138095D02*
X142326247Y-52090476D01*
X142326247Y-52090476D02*
X142564342Y-52090476D01*
X142564342Y-52090476D02*
X142659580Y-52138095D01*
X142659580Y-52138095D02*
X142707200Y-52185714D01*
X142707200Y-52185714D02*
X142754819Y-52280952D01*
X142754819Y-52280952D02*
X142754819Y-52566666D01*
X142754819Y-52566666D02*
X142707200Y-52661904D01*
X142707200Y-52661904D02*
X142659580Y-52709523D01*
X141850057Y-51709523D02*
X141802438Y-51661904D01*
X141802438Y-51661904D02*
X141754819Y-51566666D01*
X141754819Y-51566666D02*
X141754819Y-51328571D01*
X141754819Y-51328571D02*
X141802438Y-51233333D01*
X141802438Y-51233333D02*
X141850057Y-51185714D01*
X141850057Y-51185714D02*
X141945295Y-51138095D01*
X141945295Y-51138095D02*
X142040533Y-51138095D01*
X142040533Y-51138095D02*
X142183390Y-51185714D01*
X142183390Y-51185714D02*
X142754819Y-51757142D01*
X142754819Y-51757142D02*
X142754819Y-51138095D01*
X100258333Y-66647080D02*
X100210714Y-66694700D01*
X100210714Y-66694700D02*
X100067857Y-66742319D01*
X100067857Y-66742319D02*
X99972619Y-66742319D01*
X99972619Y-66742319D02*
X99829762Y-66694700D01*
X99829762Y-66694700D02*
X99734524Y-66599461D01*
X99734524Y-66599461D02*
X99686905Y-66504223D01*
X99686905Y-66504223D02*
X99639286Y-66313747D01*
X99639286Y-66313747D02*
X99639286Y-66170890D01*
X99639286Y-66170890D02*
X99686905Y-65980414D01*
X99686905Y-65980414D02*
X99734524Y-65885176D01*
X99734524Y-65885176D02*
X99829762Y-65789938D01*
X99829762Y-65789938D02*
X99972619Y-65742319D01*
X99972619Y-65742319D02*
X100067857Y-65742319D01*
X100067857Y-65742319D02*
X100210714Y-65789938D01*
X100210714Y-65789938D02*
X100258333Y-65837557D01*
X101210714Y-66742319D02*
X100639286Y-66742319D01*
X100925000Y-66742319D02*
X100925000Y-65742319D01*
X100925000Y-65742319D02*
X100829762Y-65885176D01*
X100829762Y-65885176D02*
X100734524Y-65980414D01*
X100734524Y-65980414D02*
X100639286Y-66028033D01*
X135738095Y-49054819D02*
X135738095Y-49864342D01*
X135738095Y-49864342D02*
X135785714Y-49959580D01*
X135785714Y-49959580D02*
X135833333Y-50007200D01*
X135833333Y-50007200D02*
X135928571Y-50054819D01*
X135928571Y-50054819D02*
X136119047Y-50054819D01*
X136119047Y-50054819D02*
X136214285Y-50007200D01*
X136214285Y-50007200D02*
X136261904Y-49959580D01*
X136261904Y-49959580D02*
X136309523Y-49864342D01*
X136309523Y-49864342D02*
X136309523Y-49054819D01*
X136690476Y-49054819D02*
X137357142Y-49054819D01*
X137357142Y-49054819D02*
X136928571Y-50054819D01*
X132704761Y-56550057D02*
X132609523Y-56502438D01*
X132609523Y-56502438D02*
X132514285Y-56407200D01*
X132514285Y-56407200D02*
X132371428Y-56264342D01*
X132371428Y-56264342D02*
X132276190Y-56216723D01*
X132276190Y-56216723D02*
X132180952Y-56216723D01*
X132228571Y-56454819D02*
X132133333Y-56407200D01*
X132133333Y-56407200D02*
X132038095Y-56311961D01*
X132038095Y-56311961D02*
X131990476Y-56121485D01*
X131990476Y-56121485D02*
X131990476Y-55788152D01*
X131990476Y-55788152D02*
X132038095Y-55597676D01*
X132038095Y-55597676D02*
X132133333Y-55502438D01*
X132133333Y-55502438D02*
X132228571Y-55454819D01*
X132228571Y-55454819D02*
X132419047Y-55454819D01*
X132419047Y-55454819D02*
X132514285Y-55502438D01*
X132514285Y-55502438D02*
X132609523Y-55597676D01*
X132609523Y-55597676D02*
X132657142Y-55788152D01*
X132657142Y-55788152D02*
X132657142Y-56121485D01*
X132657142Y-56121485D02*
X132609523Y-56311961D01*
X132609523Y-56311961D02*
X132514285Y-56407200D01*
X132514285Y-56407200D02*
X132419047Y-56454819D01*
X132419047Y-56454819D02*
X132228571Y-56454819D01*
X133514285Y-55788152D02*
X133514285Y-56454819D01*
X133276190Y-55407200D02*
X133038095Y-56121485D01*
X133038095Y-56121485D02*
X133657142Y-56121485D01*
X135457142Y-66654819D02*
X135123809Y-66178628D01*
X134885714Y-66654819D02*
X134885714Y-65654819D01*
X134885714Y-65654819D02*
X135266666Y-65654819D01*
X135266666Y-65654819D02*
X135361904Y-65702438D01*
X135361904Y-65702438D02*
X135409523Y-65750057D01*
X135409523Y-65750057D02*
X135457142Y-65845295D01*
X135457142Y-65845295D02*
X135457142Y-65988152D01*
X135457142Y-65988152D02*
X135409523Y-66083390D01*
X135409523Y-66083390D02*
X135361904Y-66131009D01*
X135361904Y-66131009D02*
X135266666Y-66178628D01*
X135266666Y-66178628D02*
X134885714Y-66178628D01*
X135790476Y-65654819D02*
X136409523Y-65654819D01*
X136409523Y-65654819D02*
X136076190Y-66035771D01*
X136076190Y-66035771D02*
X136219047Y-66035771D01*
X136219047Y-66035771D02*
X136314285Y-66083390D01*
X136314285Y-66083390D02*
X136361904Y-66131009D01*
X136361904Y-66131009D02*
X136409523Y-66226247D01*
X136409523Y-66226247D02*
X136409523Y-66464342D01*
X136409523Y-66464342D02*
X136361904Y-66559580D01*
X136361904Y-66559580D02*
X136314285Y-66607200D01*
X136314285Y-66607200D02*
X136219047Y-66654819D01*
X136219047Y-66654819D02*
X135933333Y-66654819D01*
X135933333Y-66654819D02*
X135838095Y-66607200D01*
X135838095Y-66607200D02*
X135790476Y-66559580D01*
X137028571Y-65654819D02*
X137123809Y-65654819D01*
X137123809Y-65654819D02*
X137219047Y-65702438D01*
X137219047Y-65702438D02*
X137266666Y-65750057D01*
X137266666Y-65750057D02*
X137314285Y-65845295D01*
X137314285Y-65845295D02*
X137361904Y-66035771D01*
X137361904Y-66035771D02*
X137361904Y-66273866D01*
X137361904Y-66273866D02*
X137314285Y-66464342D01*
X137314285Y-66464342D02*
X137266666Y-66559580D01*
X137266666Y-66559580D02*
X137219047Y-66607200D01*
X137219047Y-66607200D02*
X137123809Y-66654819D01*
X137123809Y-66654819D02*
X137028571Y-66654819D01*
X137028571Y-66654819D02*
X136933333Y-66607200D01*
X136933333Y-66607200D02*
X136885714Y-66559580D01*
X136885714Y-66559580D02*
X136838095Y-66464342D01*
X136838095Y-66464342D02*
X136790476Y-66273866D01*
X136790476Y-66273866D02*
X136790476Y-66035771D01*
X136790476Y-66035771D02*
X136838095Y-65845295D01*
X136838095Y-65845295D02*
X136885714Y-65750057D01*
X136885714Y-65750057D02*
X136933333Y-65702438D01*
X136933333Y-65702438D02*
X137028571Y-65654819D01*
X149128571Y-76550057D02*
X149033333Y-76502438D01*
X149033333Y-76502438D02*
X148938095Y-76407200D01*
X148938095Y-76407200D02*
X148795238Y-76264342D01*
X148795238Y-76264342D02*
X148700000Y-76216723D01*
X148700000Y-76216723D02*
X148604762Y-76216723D01*
X148652381Y-76454819D02*
X148557143Y-76407200D01*
X148557143Y-76407200D02*
X148461905Y-76311961D01*
X148461905Y-76311961D02*
X148414286Y-76121485D01*
X148414286Y-76121485D02*
X148414286Y-75788152D01*
X148414286Y-75788152D02*
X148461905Y-75597676D01*
X148461905Y-75597676D02*
X148557143Y-75502438D01*
X148557143Y-75502438D02*
X148652381Y-75454819D01*
X148652381Y-75454819D02*
X148842857Y-75454819D01*
X148842857Y-75454819D02*
X148938095Y-75502438D01*
X148938095Y-75502438D02*
X149033333Y-75597676D01*
X149033333Y-75597676D02*
X149080952Y-75788152D01*
X149080952Y-75788152D02*
X149080952Y-76121485D01*
X149080952Y-76121485D02*
X149033333Y-76311961D01*
X149033333Y-76311961D02*
X148938095Y-76407200D01*
X148938095Y-76407200D02*
X148842857Y-76454819D01*
X148842857Y-76454819D02*
X148652381Y-76454819D01*
X150033333Y-76454819D02*
X149461905Y-76454819D01*
X149747619Y-76454819D02*
X149747619Y-75454819D01*
X149747619Y-75454819D02*
X149652381Y-75597676D01*
X149652381Y-75597676D02*
X149557143Y-75692914D01*
X149557143Y-75692914D02*
X149461905Y-75740533D01*
X150652381Y-75454819D02*
X150747619Y-75454819D01*
X150747619Y-75454819D02*
X150842857Y-75502438D01*
X150842857Y-75502438D02*
X150890476Y-75550057D01*
X150890476Y-75550057D02*
X150938095Y-75645295D01*
X150938095Y-75645295D02*
X150985714Y-75835771D01*
X150985714Y-75835771D02*
X150985714Y-76073866D01*
X150985714Y-76073866D02*
X150938095Y-76264342D01*
X150938095Y-76264342D02*
X150890476Y-76359580D01*
X150890476Y-76359580D02*
X150842857Y-76407200D01*
X150842857Y-76407200D02*
X150747619Y-76454819D01*
X150747619Y-76454819D02*
X150652381Y-76454819D01*
X150652381Y-76454819D02*
X150557143Y-76407200D01*
X150557143Y-76407200D02*
X150509524Y-76359580D01*
X150509524Y-76359580D02*
X150461905Y-76264342D01*
X150461905Y-76264342D02*
X150414286Y-76073866D01*
X150414286Y-76073866D02*
X150414286Y-75835771D01*
X150414286Y-75835771D02*
X150461905Y-75645295D01*
X150461905Y-75645295D02*
X150509524Y-75550057D01*
X150509524Y-75550057D02*
X150557143Y-75502438D01*
X150557143Y-75502438D02*
X150652381Y-75454819D01*
X113554819Y-68542857D02*
X113078628Y-68876190D01*
X113554819Y-69114285D02*
X112554819Y-69114285D01*
X112554819Y-69114285D02*
X112554819Y-68733333D01*
X112554819Y-68733333D02*
X112602438Y-68638095D01*
X112602438Y-68638095D02*
X112650057Y-68590476D01*
X112650057Y-68590476D02*
X112745295Y-68542857D01*
X112745295Y-68542857D02*
X112888152Y-68542857D01*
X112888152Y-68542857D02*
X112983390Y-68590476D01*
X112983390Y-68590476D02*
X113031009Y-68638095D01*
X113031009Y-68638095D02*
X113078628Y-68733333D01*
X113078628Y-68733333D02*
X113078628Y-69114285D01*
X112888152Y-67685714D02*
X113554819Y-67685714D01*
X112507200Y-67923809D02*
X113221485Y-68161904D01*
X113221485Y-68161904D02*
X113221485Y-67542857D01*
X112554819Y-66971428D02*
X112554819Y-66876190D01*
X112554819Y-66876190D02*
X112602438Y-66780952D01*
X112602438Y-66780952D02*
X112650057Y-66733333D01*
X112650057Y-66733333D02*
X112745295Y-66685714D01*
X112745295Y-66685714D02*
X112935771Y-66638095D01*
X112935771Y-66638095D02*
X113173866Y-66638095D01*
X113173866Y-66638095D02*
X113364342Y-66685714D01*
X113364342Y-66685714D02*
X113459580Y-66733333D01*
X113459580Y-66733333D02*
X113507200Y-66780952D01*
X113507200Y-66780952D02*
X113554819Y-66876190D01*
X113554819Y-66876190D02*
X113554819Y-66971428D01*
X113554819Y-66971428D02*
X113507200Y-67066666D01*
X113507200Y-67066666D02*
X113459580Y-67114285D01*
X113459580Y-67114285D02*
X113364342Y-67161904D01*
X113364342Y-67161904D02*
X113173866Y-67209523D01*
X113173866Y-67209523D02*
X112935771Y-67209523D01*
X112935771Y-67209523D02*
X112745295Y-67161904D01*
X112745295Y-67161904D02*
X112650057Y-67114285D01*
X112650057Y-67114285D02*
X112602438Y-67066666D01*
X112602438Y-67066666D02*
X112554819Y-66971428D01*
X143254819Y-76207857D02*
X142778628Y-76541190D01*
X143254819Y-76779285D02*
X142254819Y-76779285D01*
X142254819Y-76779285D02*
X142254819Y-76398333D01*
X142254819Y-76398333D02*
X142302438Y-76303095D01*
X142302438Y-76303095D02*
X142350057Y-76255476D01*
X142350057Y-76255476D02*
X142445295Y-76207857D01*
X142445295Y-76207857D02*
X142588152Y-76207857D01*
X142588152Y-76207857D02*
X142683390Y-76255476D01*
X142683390Y-76255476D02*
X142731009Y-76303095D01*
X142731009Y-76303095D02*
X142778628Y-76398333D01*
X142778628Y-76398333D02*
X142778628Y-76779285D01*
X143254819Y-75255476D02*
X143254819Y-75826904D01*
X143254819Y-75541190D02*
X142254819Y-75541190D01*
X142254819Y-75541190D02*
X142397676Y-75636428D01*
X142397676Y-75636428D02*
X142492914Y-75731666D01*
X142492914Y-75731666D02*
X142540533Y-75826904D01*
X142588152Y-74398333D02*
X143254819Y-74398333D01*
X142207200Y-74636428D02*
X142921485Y-74874523D01*
X142921485Y-74874523D02*
X142921485Y-74255476D01*
X150254819Y-44442857D02*
X149778628Y-44776190D01*
X150254819Y-45014285D02*
X149254819Y-45014285D01*
X149254819Y-45014285D02*
X149254819Y-44633333D01*
X149254819Y-44633333D02*
X149302438Y-44538095D01*
X149302438Y-44538095D02*
X149350057Y-44490476D01*
X149350057Y-44490476D02*
X149445295Y-44442857D01*
X149445295Y-44442857D02*
X149588152Y-44442857D01*
X149588152Y-44442857D02*
X149683390Y-44490476D01*
X149683390Y-44490476D02*
X149731009Y-44538095D01*
X149731009Y-44538095D02*
X149778628Y-44633333D01*
X149778628Y-44633333D02*
X149778628Y-45014285D01*
X149350057Y-44061904D02*
X149302438Y-44014285D01*
X149302438Y-44014285D02*
X149254819Y-43919047D01*
X149254819Y-43919047D02*
X149254819Y-43680952D01*
X149254819Y-43680952D02*
X149302438Y-43585714D01*
X149302438Y-43585714D02*
X149350057Y-43538095D01*
X149350057Y-43538095D02*
X149445295Y-43490476D01*
X149445295Y-43490476D02*
X149540533Y-43490476D01*
X149540533Y-43490476D02*
X149683390Y-43538095D01*
X149683390Y-43538095D02*
X150254819Y-44109523D01*
X150254819Y-44109523D02*
X150254819Y-43490476D01*
X149254819Y-43157142D02*
X149254819Y-42538095D01*
X149254819Y-42538095D02*
X149635771Y-42871428D01*
X149635771Y-42871428D02*
X149635771Y-42728571D01*
X149635771Y-42728571D02*
X149683390Y-42633333D01*
X149683390Y-42633333D02*
X149731009Y-42585714D01*
X149731009Y-42585714D02*
X149826247Y-42538095D01*
X149826247Y-42538095D02*
X150064342Y-42538095D01*
X150064342Y-42538095D02*
X150159580Y-42585714D01*
X150159580Y-42585714D02*
X150207200Y-42633333D01*
X150207200Y-42633333D02*
X150254819Y-42728571D01*
X150254819Y-42728571D02*
X150254819Y-43014285D01*
X150254819Y-43014285D02*
X150207200Y-43109523D01*
X150207200Y-43109523D02*
X150159580Y-43157142D01*
X90954819Y-66642857D02*
X90478628Y-66976190D01*
X90954819Y-67214285D02*
X89954819Y-67214285D01*
X89954819Y-67214285D02*
X89954819Y-66833333D01*
X89954819Y-66833333D02*
X90002438Y-66738095D01*
X90002438Y-66738095D02*
X90050057Y-66690476D01*
X90050057Y-66690476D02*
X90145295Y-66642857D01*
X90145295Y-66642857D02*
X90288152Y-66642857D01*
X90288152Y-66642857D02*
X90383390Y-66690476D01*
X90383390Y-66690476D02*
X90431009Y-66738095D01*
X90431009Y-66738095D02*
X90478628Y-66833333D01*
X90478628Y-66833333D02*
X90478628Y-67214285D01*
X90954819Y-65690476D02*
X90954819Y-66261904D01*
X90954819Y-65976190D02*
X89954819Y-65976190D01*
X89954819Y-65976190D02*
X90097676Y-66071428D01*
X90097676Y-66071428D02*
X90192914Y-66166666D01*
X90192914Y-66166666D02*
X90240533Y-66261904D01*
X90954819Y-64738095D02*
X90954819Y-65309523D01*
X90954819Y-65023809D02*
X89954819Y-65023809D01*
X89954819Y-65023809D02*
X90097676Y-65119047D01*
X90097676Y-65119047D02*
X90192914Y-65214285D01*
X90192914Y-65214285D02*
X90240533Y-65309523D01*
X81354819Y-52731666D02*
X80878628Y-53064999D01*
X81354819Y-53303094D02*
X80354819Y-53303094D01*
X80354819Y-53303094D02*
X80354819Y-52922142D01*
X80354819Y-52922142D02*
X80402438Y-52826904D01*
X80402438Y-52826904D02*
X80450057Y-52779285D01*
X80450057Y-52779285D02*
X80545295Y-52731666D01*
X80545295Y-52731666D02*
X80688152Y-52731666D01*
X80688152Y-52731666D02*
X80783390Y-52779285D01*
X80783390Y-52779285D02*
X80831009Y-52826904D01*
X80831009Y-52826904D02*
X80878628Y-52922142D01*
X80878628Y-52922142D02*
X80878628Y-53303094D01*
X80354819Y-51874523D02*
X80354819Y-52064999D01*
X80354819Y-52064999D02*
X80402438Y-52160237D01*
X80402438Y-52160237D02*
X80450057Y-52207856D01*
X80450057Y-52207856D02*
X80592914Y-52303094D01*
X80592914Y-52303094D02*
X80783390Y-52350713D01*
X80783390Y-52350713D02*
X81164342Y-52350713D01*
X81164342Y-52350713D02*
X81259580Y-52303094D01*
X81259580Y-52303094D02*
X81307200Y-52255475D01*
X81307200Y-52255475D02*
X81354819Y-52160237D01*
X81354819Y-52160237D02*
X81354819Y-51969761D01*
X81354819Y-51969761D02*
X81307200Y-51874523D01*
X81307200Y-51874523D02*
X81259580Y-51826904D01*
X81259580Y-51826904D02*
X81164342Y-51779285D01*
X81164342Y-51779285D02*
X80926247Y-51779285D01*
X80926247Y-51779285D02*
X80831009Y-51826904D01*
X80831009Y-51826904D02*
X80783390Y-51874523D01*
X80783390Y-51874523D02*
X80735771Y-51969761D01*
X80735771Y-51969761D02*
X80735771Y-52160237D01*
X80735771Y-52160237D02*
X80783390Y-52255475D01*
X80783390Y-52255475D02*
X80831009Y-52303094D01*
X80831009Y-52303094D02*
X80926247Y-52350713D01*
X112158095Y-61199819D02*
X112158095Y-62009342D01*
X112158095Y-62009342D02*
X112205714Y-62104580D01*
X112205714Y-62104580D02*
X112253333Y-62152200D01*
X112253333Y-62152200D02*
X112348571Y-62199819D01*
X112348571Y-62199819D02*
X112539047Y-62199819D01*
X112539047Y-62199819D02*
X112634285Y-62152200D01*
X112634285Y-62152200D02*
X112681904Y-62104580D01*
X112681904Y-62104580D02*
X112729523Y-62009342D01*
X112729523Y-62009342D02*
X112729523Y-61199819D01*
X113729523Y-62199819D02*
X113158095Y-62199819D01*
X113443809Y-62199819D02*
X113443809Y-61199819D01*
X113443809Y-61199819D02*
X113348571Y-61342676D01*
X113348571Y-61342676D02*
X113253333Y-61437914D01*
X113253333Y-61437914D02*
X113158095Y-61485533D01*
X74157142Y-46354819D02*
X73823809Y-45878628D01*
X73585714Y-46354819D02*
X73585714Y-45354819D01*
X73585714Y-45354819D02*
X73966666Y-45354819D01*
X73966666Y-45354819D02*
X74061904Y-45402438D01*
X74061904Y-45402438D02*
X74109523Y-45450057D01*
X74109523Y-45450057D02*
X74157142Y-45545295D01*
X74157142Y-45545295D02*
X74157142Y-45688152D01*
X74157142Y-45688152D02*
X74109523Y-45783390D01*
X74109523Y-45783390D02*
X74061904Y-45831009D01*
X74061904Y-45831009D02*
X73966666Y-45878628D01*
X73966666Y-45878628D02*
X73585714Y-45878628D01*
X75014285Y-45688152D02*
X75014285Y-46354819D01*
X74776190Y-45307200D02*
X74538095Y-46021485D01*
X74538095Y-46021485D02*
X75157142Y-46021485D01*
X75966666Y-45354819D02*
X75776190Y-45354819D01*
X75776190Y-45354819D02*
X75680952Y-45402438D01*
X75680952Y-45402438D02*
X75633333Y-45450057D01*
X75633333Y-45450057D02*
X75538095Y-45592914D01*
X75538095Y-45592914D02*
X75490476Y-45783390D01*
X75490476Y-45783390D02*
X75490476Y-46164342D01*
X75490476Y-46164342D02*
X75538095Y-46259580D01*
X75538095Y-46259580D02*
X75585714Y-46307200D01*
X75585714Y-46307200D02*
X75680952Y-46354819D01*
X75680952Y-46354819D02*
X75871428Y-46354819D01*
X75871428Y-46354819D02*
X75966666Y-46307200D01*
X75966666Y-46307200D02*
X76014285Y-46259580D01*
X76014285Y-46259580D02*
X76061904Y-46164342D01*
X76061904Y-46164342D02*
X76061904Y-45926247D01*
X76061904Y-45926247D02*
X76014285Y-45831009D01*
X76014285Y-45831009D02*
X75966666Y-45783390D01*
X75966666Y-45783390D02*
X75871428Y-45735771D01*
X75871428Y-45735771D02*
X75680952Y-45735771D01*
X75680952Y-45735771D02*
X75585714Y-45783390D01*
X75585714Y-45783390D02*
X75538095Y-45831009D01*
X75538095Y-45831009D02*
X75490476Y-45926247D01*
X107159580Y-77142857D02*
X107207200Y-77190476D01*
X107207200Y-77190476D02*
X107254819Y-77333333D01*
X107254819Y-77333333D02*
X107254819Y-77428571D01*
X107254819Y-77428571D02*
X107207200Y-77571428D01*
X107207200Y-77571428D02*
X107111961Y-77666666D01*
X107111961Y-77666666D02*
X107016723Y-77714285D01*
X107016723Y-77714285D02*
X106826247Y-77761904D01*
X106826247Y-77761904D02*
X106683390Y-77761904D01*
X106683390Y-77761904D02*
X106492914Y-77714285D01*
X106492914Y-77714285D02*
X106397676Y-77666666D01*
X106397676Y-77666666D02*
X106302438Y-77571428D01*
X106302438Y-77571428D02*
X106254819Y-77428571D01*
X106254819Y-77428571D02*
X106254819Y-77333333D01*
X106254819Y-77333333D02*
X106302438Y-77190476D01*
X106302438Y-77190476D02*
X106350057Y-77142857D01*
X106254819Y-76809523D02*
X106254819Y-76190476D01*
X106254819Y-76190476D02*
X106635771Y-76523809D01*
X106635771Y-76523809D02*
X106635771Y-76380952D01*
X106635771Y-76380952D02*
X106683390Y-76285714D01*
X106683390Y-76285714D02*
X106731009Y-76238095D01*
X106731009Y-76238095D02*
X106826247Y-76190476D01*
X106826247Y-76190476D02*
X107064342Y-76190476D01*
X107064342Y-76190476D02*
X107159580Y-76238095D01*
X107159580Y-76238095D02*
X107207200Y-76285714D01*
X107207200Y-76285714D02*
X107254819Y-76380952D01*
X107254819Y-76380952D02*
X107254819Y-76666666D01*
X107254819Y-76666666D02*
X107207200Y-76761904D01*
X107207200Y-76761904D02*
X107159580Y-76809523D01*
X106350057Y-75809523D02*
X106302438Y-75761904D01*
X106302438Y-75761904D02*
X106254819Y-75666666D01*
X106254819Y-75666666D02*
X106254819Y-75428571D01*
X106254819Y-75428571D02*
X106302438Y-75333333D01*
X106302438Y-75333333D02*
X106350057Y-75285714D01*
X106350057Y-75285714D02*
X106445295Y-75238095D01*
X106445295Y-75238095D02*
X106540533Y-75238095D01*
X106540533Y-75238095D02*
X106683390Y-75285714D01*
X106683390Y-75285714D02*
X107254819Y-75857142D01*
X107254819Y-75857142D02*
X107254819Y-75238095D01*
X148154819Y-70238857D02*
X147678628Y-70572190D01*
X148154819Y-70810285D02*
X147154819Y-70810285D01*
X147154819Y-70810285D02*
X147154819Y-70429333D01*
X147154819Y-70429333D02*
X147202438Y-70334095D01*
X147202438Y-70334095D02*
X147250057Y-70286476D01*
X147250057Y-70286476D02*
X147345295Y-70238857D01*
X147345295Y-70238857D02*
X147488152Y-70238857D01*
X147488152Y-70238857D02*
X147583390Y-70286476D01*
X147583390Y-70286476D02*
X147631009Y-70334095D01*
X147631009Y-70334095D02*
X147678628Y-70429333D01*
X147678628Y-70429333D02*
X147678628Y-70810285D01*
X147250057Y-69857904D02*
X147202438Y-69810285D01*
X147202438Y-69810285D02*
X147154819Y-69715047D01*
X147154819Y-69715047D02*
X147154819Y-69476952D01*
X147154819Y-69476952D02*
X147202438Y-69381714D01*
X147202438Y-69381714D02*
X147250057Y-69334095D01*
X147250057Y-69334095D02*
X147345295Y-69286476D01*
X147345295Y-69286476D02*
X147440533Y-69286476D01*
X147440533Y-69286476D02*
X147583390Y-69334095D01*
X147583390Y-69334095D02*
X148154819Y-69905523D01*
X148154819Y-69905523D02*
X148154819Y-69286476D01*
X147154819Y-68953142D02*
X147154819Y-68286476D01*
X147154819Y-68286476D02*
X148154819Y-68715047D01*
X124354819Y-68590476D02*
X123878628Y-68923809D01*
X124354819Y-69161904D02*
X123354819Y-69161904D01*
X123354819Y-69161904D02*
X123354819Y-68780952D01*
X123354819Y-68780952D02*
X123402438Y-68685714D01*
X123402438Y-68685714D02*
X123450057Y-68638095D01*
X123450057Y-68638095D02*
X123545295Y-68590476D01*
X123545295Y-68590476D02*
X123688152Y-68590476D01*
X123688152Y-68590476D02*
X123783390Y-68638095D01*
X123783390Y-68638095D02*
X123831009Y-68685714D01*
X123831009Y-68685714D02*
X123878628Y-68780952D01*
X123878628Y-68780952D02*
X123878628Y-69161904D01*
X124354819Y-68161904D02*
X123354819Y-68161904D01*
X123354819Y-68161904D02*
X124354819Y-67590476D01*
X124354819Y-67590476D02*
X123354819Y-67590476D01*
X124354819Y-67066666D02*
X124354819Y-66876190D01*
X124354819Y-66876190D02*
X124307200Y-66780952D01*
X124307200Y-66780952D02*
X124259580Y-66733333D01*
X124259580Y-66733333D02*
X124116723Y-66638095D01*
X124116723Y-66638095D02*
X123926247Y-66590476D01*
X123926247Y-66590476D02*
X123545295Y-66590476D01*
X123545295Y-66590476D02*
X123450057Y-66638095D01*
X123450057Y-66638095D02*
X123402438Y-66685714D01*
X123402438Y-66685714D02*
X123354819Y-66780952D01*
X123354819Y-66780952D02*
X123354819Y-66971428D01*
X123354819Y-66971428D02*
X123402438Y-67066666D01*
X123402438Y-67066666D02*
X123450057Y-67114285D01*
X123450057Y-67114285D02*
X123545295Y-67161904D01*
X123545295Y-67161904D02*
X123783390Y-67161904D01*
X123783390Y-67161904D02*
X123878628Y-67114285D01*
X123878628Y-67114285D02*
X123926247Y-67066666D01*
X123926247Y-67066666D02*
X123973866Y-66971428D01*
X123973866Y-66971428D02*
X123973866Y-66780952D01*
X123973866Y-66780952D02*
X123926247Y-66685714D01*
X123926247Y-66685714D02*
X123878628Y-66638095D01*
X123878628Y-66638095D02*
X123783390Y-66590476D01*
X100566666Y-67445180D02*
X101042856Y-67445180D01*
X101042856Y-67445180D02*
X101042856Y-68445180D01*
X99709523Y-67445180D02*
X100280951Y-67445180D01*
X99995237Y-67445180D02*
X99995237Y-68445180D01*
X99995237Y-68445180D02*
X100090475Y-68302323D01*
X100090475Y-68302323D02*
X100185713Y-68207085D01*
X100185713Y-68207085D02*
X100280951Y-68159466D01*
X139265819Y-41409857D02*
X138789628Y-41743190D01*
X139265819Y-41981285D02*
X138265819Y-41981285D01*
X138265819Y-41981285D02*
X138265819Y-41600333D01*
X138265819Y-41600333D02*
X138313438Y-41505095D01*
X138313438Y-41505095D02*
X138361057Y-41457476D01*
X138361057Y-41457476D02*
X138456295Y-41409857D01*
X138456295Y-41409857D02*
X138599152Y-41409857D01*
X138599152Y-41409857D02*
X138694390Y-41457476D01*
X138694390Y-41457476D02*
X138742009Y-41505095D01*
X138742009Y-41505095D02*
X138789628Y-41600333D01*
X138789628Y-41600333D02*
X138789628Y-41981285D01*
X138361057Y-41028904D02*
X138313438Y-40981285D01*
X138313438Y-40981285D02*
X138265819Y-40886047D01*
X138265819Y-40886047D02*
X138265819Y-40647952D01*
X138265819Y-40647952D02*
X138313438Y-40552714D01*
X138313438Y-40552714D02*
X138361057Y-40505095D01*
X138361057Y-40505095D02*
X138456295Y-40457476D01*
X138456295Y-40457476D02*
X138551533Y-40457476D01*
X138551533Y-40457476D02*
X138694390Y-40505095D01*
X138694390Y-40505095D02*
X139265819Y-41076523D01*
X139265819Y-41076523D02*
X139265819Y-40457476D01*
X138361057Y-40076523D02*
X138313438Y-40028904D01*
X138313438Y-40028904D02*
X138265819Y-39933666D01*
X138265819Y-39933666D02*
X138265819Y-39695571D01*
X138265819Y-39695571D02*
X138313438Y-39600333D01*
X138313438Y-39600333D02*
X138361057Y-39552714D01*
X138361057Y-39552714D02*
X138456295Y-39505095D01*
X138456295Y-39505095D02*
X138551533Y-39505095D01*
X138551533Y-39505095D02*
X138694390Y-39552714D01*
X138694390Y-39552714D02*
X139265819Y-40124142D01*
X139265819Y-40124142D02*
X139265819Y-39505095D01*
X129044642Y-62954819D02*
X128711309Y-62478628D01*
X128473214Y-62954819D02*
X128473214Y-61954819D01*
X128473214Y-61954819D02*
X128854166Y-61954819D01*
X128854166Y-61954819D02*
X128949404Y-62002438D01*
X128949404Y-62002438D02*
X128997023Y-62050057D01*
X128997023Y-62050057D02*
X129044642Y-62145295D01*
X129044642Y-62145295D02*
X129044642Y-62288152D01*
X129044642Y-62288152D02*
X128997023Y-62383390D01*
X128997023Y-62383390D02*
X128949404Y-62431009D01*
X128949404Y-62431009D02*
X128854166Y-62478628D01*
X128854166Y-62478628D02*
X128473214Y-62478628D01*
X129425595Y-62050057D02*
X129473214Y-62002438D01*
X129473214Y-62002438D02*
X129568452Y-61954819D01*
X129568452Y-61954819D02*
X129806547Y-61954819D01*
X129806547Y-61954819D02*
X129901785Y-62002438D01*
X129901785Y-62002438D02*
X129949404Y-62050057D01*
X129949404Y-62050057D02*
X129997023Y-62145295D01*
X129997023Y-62145295D02*
X129997023Y-62240533D01*
X129997023Y-62240533D02*
X129949404Y-62383390D01*
X129949404Y-62383390D02*
X129377976Y-62954819D01*
X129377976Y-62954819D02*
X129997023Y-62954819D01*
X130854166Y-61954819D02*
X130663690Y-61954819D01*
X130663690Y-61954819D02*
X130568452Y-62002438D01*
X130568452Y-62002438D02*
X130520833Y-62050057D01*
X130520833Y-62050057D02*
X130425595Y-62192914D01*
X130425595Y-62192914D02*
X130377976Y-62383390D01*
X130377976Y-62383390D02*
X130377976Y-62764342D01*
X130377976Y-62764342D02*
X130425595Y-62859580D01*
X130425595Y-62859580D02*
X130473214Y-62907200D01*
X130473214Y-62907200D02*
X130568452Y-62954819D01*
X130568452Y-62954819D02*
X130758928Y-62954819D01*
X130758928Y-62954819D02*
X130854166Y-62907200D01*
X130854166Y-62907200D02*
X130901785Y-62859580D01*
X130901785Y-62859580D02*
X130949404Y-62764342D01*
X130949404Y-62764342D02*
X130949404Y-62526247D01*
X130949404Y-62526247D02*
X130901785Y-62431009D01*
X130901785Y-62431009D02*
X130854166Y-62383390D01*
X130854166Y-62383390D02*
X130758928Y-62335771D01*
X130758928Y-62335771D02*
X130568452Y-62335771D01*
X130568452Y-62335771D02*
X130473214Y-62383390D01*
X130473214Y-62383390D02*
X130425595Y-62431009D01*
X130425595Y-62431009D02*
X130377976Y-62526247D01*
D13*
X149261905Y-49957419D02*
X149261905Y-48957419D01*
X149261905Y-48957419D02*
X149500000Y-48957419D01*
X149500000Y-48957419D02*
X149642857Y-49005038D01*
X149642857Y-49005038D02*
X149738095Y-49100276D01*
X149738095Y-49100276D02*
X149785714Y-49195514D01*
X149785714Y-49195514D02*
X149833333Y-49385990D01*
X149833333Y-49385990D02*
X149833333Y-49528847D01*
X149833333Y-49528847D02*
X149785714Y-49719323D01*
X149785714Y-49719323D02*
X149738095Y-49814561D01*
X149738095Y-49814561D02*
X149642857Y-49909800D01*
X149642857Y-49909800D02*
X149500000Y-49957419D01*
X149500000Y-49957419D02*
X149261905Y-49957419D01*
X150214286Y-49052657D02*
X150261905Y-49005038D01*
X150261905Y-49005038D02*
X150357143Y-48957419D01*
X150357143Y-48957419D02*
X150595238Y-48957419D01*
X150595238Y-48957419D02*
X150690476Y-49005038D01*
X150690476Y-49005038D02*
X150738095Y-49052657D01*
X150738095Y-49052657D02*
X150785714Y-49147895D01*
X150785714Y-49147895D02*
X150785714Y-49243133D01*
X150785714Y-49243133D02*
X150738095Y-49385990D01*
X150738095Y-49385990D02*
X150166667Y-49957419D01*
X150166667Y-49957419D02*
X150785714Y-49957419D01*
D10*
X137759580Y-44842857D02*
X137807200Y-44890476D01*
X137807200Y-44890476D02*
X137854819Y-45033333D01*
X137854819Y-45033333D02*
X137854819Y-45128571D01*
X137854819Y-45128571D02*
X137807200Y-45271428D01*
X137807200Y-45271428D02*
X137711961Y-45366666D01*
X137711961Y-45366666D02*
X137616723Y-45414285D01*
X137616723Y-45414285D02*
X137426247Y-45461904D01*
X137426247Y-45461904D02*
X137283390Y-45461904D01*
X137283390Y-45461904D02*
X137092914Y-45414285D01*
X137092914Y-45414285D02*
X136997676Y-45366666D01*
X136997676Y-45366666D02*
X136902438Y-45271428D01*
X136902438Y-45271428D02*
X136854819Y-45128571D01*
X136854819Y-45128571D02*
X136854819Y-45033333D01*
X136854819Y-45033333D02*
X136902438Y-44890476D01*
X136902438Y-44890476D02*
X136950057Y-44842857D01*
X137854819Y-43890476D02*
X137854819Y-44461904D01*
X137854819Y-44176190D02*
X136854819Y-44176190D01*
X136854819Y-44176190D02*
X136997676Y-44271428D01*
X136997676Y-44271428D02*
X137092914Y-44366666D01*
X137092914Y-44366666D02*
X137140533Y-44461904D01*
X137283390Y-43319047D02*
X137235771Y-43414285D01*
X137235771Y-43414285D02*
X137188152Y-43461904D01*
X137188152Y-43461904D02*
X137092914Y-43509523D01*
X137092914Y-43509523D02*
X137045295Y-43509523D01*
X137045295Y-43509523D02*
X136950057Y-43461904D01*
X136950057Y-43461904D02*
X136902438Y-43414285D01*
X136902438Y-43414285D02*
X136854819Y-43319047D01*
X136854819Y-43319047D02*
X136854819Y-43128571D01*
X136854819Y-43128571D02*
X136902438Y-43033333D01*
X136902438Y-43033333D02*
X136950057Y-42985714D01*
X136950057Y-42985714D02*
X137045295Y-42938095D01*
X137045295Y-42938095D02*
X137092914Y-42938095D01*
X137092914Y-42938095D02*
X137188152Y-42985714D01*
X137188152Y-42985714D02*
X137235771Y-43033333D01*
X137235771Y-43033333D02*
X137283390Y-43128571D01*
X137283390Y-43128571D02*
X137283390Y-43319047D01*
X137283390Y-43319047D02*
X137331009Y-43414285D01*
X137331009Y-43414285D02*
X137378628Y-43461904D01*
X137378628Y-43461904D02*
X137473866Y-43509523D01*
X137473866Y-43509523D02*
X137664342Y-43509523D01*
X137664342Y-43509523D02*
X137759580Y-43461904D01*
X137759580Y-43461904D02*
X137807200Y-43414285D01*
X137807200Y-43414285D02*
X137854819Y-43319047D01*
X137854819Y-43319047D02*
X137854819Y-43128571D01*
X137854819Y-43128571D02*
X137807200Y-43033333D01*
X137807200Y-43033333D02*
X137759580Y-42985714D01*
X137759580Y-42985714D02*
X137664342Y-42938095D01*
X137664342Y-42938095D02*
X137473866Y-42938095D01*
X137473866Y-42938095D02*
X137378628Y-42985714D01*
X137378628Y-42985714D02*
X137331009Y-43033333D01*
X137331009Y-43033333D02*
X137283390Y-43128571D01*
X113211905Y-39204819D02*
X113211905Y-40014342D01*
X113211905Y-40014342D02*
X113259524Y-40109580D01*
X113259524Y-40109580D02*
X113307143Y-40157200D01*
X113307143Y-40157200D02*
X113402381Y-40204819D01*
X113402381Y-40204819D02*
X113592857Y-40204819D01*
X113592857Y-40204819D02*
X113688095Y-40157200D01*
X113688095Y-40157200D02*
X113735714Y-40109580D01*
X113735714Y-40109580D02*
X113783333Y-40014342D01*
X113783333Y-40014342D02*
X113783333Y-39204819D01*
X114783333Y-40204819D02*
X114211905Y-40204819D01*
X114497619Y-40204819D02*
X114497619Y-39204819D01*
X114497619Y-39204819D02*
X114402381Y-39347676D01*
X114402381Y-39347676D02*
X114307143Y-39442914D01*
X114307143Y-39442914D02*
X114211905Y-39490533D01*
X115735714Y-40204819D02*
X115164286Y-40204819D01*
X115450000Y-40204819D02*
X115450000Y-39204819D01*
X115450000Y-39204819D02*
X115354762Y-39347676D01*
X115354762Y-39347676D02*
X115259524Y-39442914D01*
X115259524Y-39442914D02*
X115164286Y-39490533D01*
X95794642Y-34759580D02*
X95747023Y-34807200D01*
X95747023Y-34807200D02*
X95604166Y-34854819D01*
X95604166Y-34854819D02*
X95508928Y-34854819D01*
X95508928Y-34854819D02*
X95366071Y-34807200D01*
X95366071Y-34807200D02*
X95270833Y-34711961D01*
X95270833Y-34711961D02*
X95223214Y-34616723D01*
X95223214Y-34616723D02*
X95175595Y-34426247D01*
X95175595Y-34426247D02*
X95175595Y-34283390D01*
X95175595Y-34283390D02*
X95223214Y-34092914D01*
X95223214Y-34092914D02*
X95270833Y-33997676D01*
X95270833Y-33997676D02*
X95366071Y-33902438D01*
X95366071Y-33902438D02*
X95508928Y-33854819D01*
X95508928Y-33854819D02*
X95604166Y-33854819D01*
X95604166Y-33854819D02*
X95747023Y-33902438D01*
X95747023Y-33902438D02*
X95794642Y-33950057D01*
X96127976Y-33854819D02*
X96747023Y-33854819D01*
X96747023Y-33854819D02*
X96413690Y-34235771D01*
X96413690Y-34235771D02*
X96556547Y-34235771D01*
X96556547Y-34235771D02*
X96651785Y-34283390D01*
X96651785Y-34283390D02*
X96699404Y-34331009D01*
X96699404Y-34331009D02*
X96747023Y-34426247D01*
X96747023Y-34426247D02*
X96747023Y-34664342D01*
X96747023Y-34664342D02*
X96699404Y-34759580D01*
X96699404Y-34759580D02*
X96651785Y-34807200D01*
X96651785Y-34807200D02*
X96556547Y-34854819D01*
X96556547Y-34854819D02*
X96270833Y-34854819D01*
X96270833Y-34854819D02*
X96175595Y-34807200D01*
X96175595Y-34807200D02*
X96127976Y-34759580D01*
X97604166Y-34188152D02*
X97604166Y-34854819D01*
X97366071Y-33807200D02*
X97127976Y-34521485D01*
X97127976Y-34521485D02*
X97747023Y-34521485D01*
X100333333Y-70154819D02*
X100000000Y-69678628D01*
X99761905Y-70154819D02*
X99761905Y-69154819D01*
X99761905Y-69154819D02*
X100142857Y-69154819D01*
X100142857Y-69154819D02*
X100238095Y-69202438D01*
X100238095Y-69202438D02*
X100285714Y-69250057D01*
X100285714Y-69250057D02*
X100333333Y-69345295D01*
X100333333Y-69345295D02*
X100333333Y-69488152D01*
X100333333Y-69488152D02*
X100285714Y-69583390D01*
X100285714Y-69583390D02*
X100238095Y-69631009D01*
X100238095Y-69631009D02*
X100142857Y-69678628D01*
X100142857Y-69678628D02*
X99761905Y-69678628D01*
X100666667Y-69154819D02*
X101285714Y-69154819D01*
X101285714Y-69154819D02*
X100952381Y-69535771D01*
X100952381Y-69535771D02*
X101095238Y-69535771D01*
X101095238Y-69535771D02*
X101190476Y-69583390D01*
X101190476Y-69583390D02*
X101238095Y-69631009D01*
X101238095Y-69631009D02*
X101285714Y-69726247D01*
X101285714Y-69726247D02*
X101285714Y-69964342D01*
X101285714Y-69964342D02*
X101238095Y-70059580D01*
X101238095Y-70059580D02*
X101190476Y-70107200D01*
X101190476Y-70107200D02*
X101095238Y-70154819D01*
X101095238Y-70154819D02*
X100809524Y-70154819D01*
X100809524Y-70154819D02*
X100714286Y-70107200D01*
X100714286Y-70107200D02*
X100666667Y-70059580D01*
X99397080Y-41152857D02*
X99444700Y-41200476D01*
X99444700Y-41200476D02*
X99492319Y-41343333D01*
X99492319Y-41343333D02*
X99492319Y-41438571D01*
X99492319Y-41438571D02*
X99444700Y-41581428D01*
X99444700Y-41581428D02*
X99349461Y-41676666D01*
X99349461Y-41676666D02*
X99254223Y-41724285D01*
X99254223Y-41724285D02*
X99063747Y-41771904D01*
X99063747Y-41771904D02*
X98920890Y-41771904D01*
X98920890Y-41771904D02*
X98730414Y-41724285D01*
X98730414Y-41724285D02*
X98635176Y-41676666D01*
X98635176Y-41676666D02*
X98539938Y-41581428D01*
X98539938Y-41581428D02*
X98492319Y-41438571D01*
X98492319Y-41438571D02*
X98492319Y-41343333D01*
X98492319Y-41343333D02*
X98539938Y-41200476D01*
X98539938Y-41200476D02*
X98587557Y-41152857D01*
X98492319Y-40819523D02*
X98492319Y-40200476D01*
X98492319Y-40200476D02*
X98873271Y-40533809D01*
X98873271Y-40533809D02*
X98873271Y-40390952D01*
X98873271Y-40390952D02*
X98920890Y-40295714D01*
X98920890Y-40295714D02*
X98968509Y-40248095D01*
X98968509Y-40248095D02*
X99063747Y-40200476D01*
X99063747Y-40200476D02*
X99301842Y-40200476D01*
X99301842Y-40200476D02*
X99397080Y-40248095D01*
X99397080Y-40248095D02*
X99444700Y-40295714D01*
X99444700Y-40295714D02*
X99492319Y-40390952D01*
X99492319Y-40390952D02*
X99492319Y-40676666D01*
X99492319Y-40676666D02*
X99444700Y-40771904D01*
X99444700Y-40771904D02*
X99397080Y-40819523D01*
X98492319Y-39343333D02*
X98492319Y-39533809D01*
X98492319Y-39533809D02*
X98539938Y-39629047D01*
X98539938Y-39629047D02*
X98587557Y-39676666D01*
X98587557Y-39676666D02*
X98730414Y-39771904D01*
X98730414Y-39771904D02*
X98920890Y-39819523D01*
X98920890Y-39819523D02*
X99301842Y-39819523D01*
X99301842Y-39819523D02*
X99397080Y-39771904D01*
X99397080Y-39771904D02*
X99444700Y-39724285D01*
X99444700Y-39724285D02*
X99492319Y-39629047D01*
X99492319Y-39629047D02*
X99492319Y-39438571D01*
X99492319Y-39438571D02*
X99444700Y-39343333D01*
X99444700Y-39343333D02*
X99397080Y-39295714D01*
X99397080Y-39295714D02*
X99301842Y-39248095D01*
X99301842Y-39248095D02*
X99063747Y-39248095D01*
X99063747Y-39248095D02*
X98968509Y-39295714D01*
X98968509Y-39295714D02*
X98920890Y-39343333D01*
X98920890Y-39343333D02*
X98873271Y-39438571D01*
X98873271Y-39438571D02*
X98873271Y-39629047D01*
X98873271Y-39629047D02*
X98920890Y-39724285D01*
X98920890Y-39724285D02*
X98968509Y-39771904D01*
X98968509Y-39771904D02*
X99063747Y-39819523D01*
X135457142Y-68254819D02*
X135123809Y-67778628D01*
X134885714Y-68254819D02*
X134885714Y-67254819D01*
X134885714Y-67254819D02*
X135266666Y-67254819D01*
X135266666Y-67254819D02*
X135361904Y-67302438D01*
X135361904Y-67302438D02*
X135409523Y-67350057D01*
X135409523Y-67350057D02*
X135457142Y-67445295D01*
X135457142Y-67445295D02*
X135457142Y-67588152D01*
X135457142Y-67588152D02*
X135409523Y-67683390D01*
X135409523Y-67683390D02*
X135361904Y-67731009D01*
X135361904Y-67731009D02*
X135266666Y-67778628D01*
X135266666Y-67778628D02*
X134885714Y-67778628D01*
X135790476Y-67254819D02*
X136409523Y-67254819D01*
X136409523Y-67254819D02*
X136076190Y-67635771D01*
X136076190Y-67635771D02*
X136219047Y-67635771D01*
X136219047Y-67635771D02*
X136314285Y-67683390D01*
X136314285Y-67683390D02*
X136361904Y-67731009D01*
X136361904Y-67731009D02*
X136409523Y-67826247D01*
X136409523Y-67826247D02*
X136409523Y-68064342D01*
X136409523Y-68064342D02*
X136361904Y-68159580D01*
X136361904Y-68159580D02*
X136314285Y-68207200D01*
X136314285Y-68207200D02*
X136219047Y-68254819D01*
X136219047Y-68254819D02*
X135933333Y-68254819D01*
X135933333Y-68254819D02*
X135838095Y-68207200D01*
X135838095Y-68207200D02*
X135790476Y-68159580D01*
X137361904Y-68254819D02*
X136790476Y-68254819D01*
X137076190Y-68254819D02*
X137076190Y-67254819D01*
X137076190Y-67254819D02*
X136980952Y-67397676D01*
X136980952Y-67397676D02*
X136885714Y-67492914D01*
X136885714Y-67492914D02*
X136790476Y-67540533D01*
X106833333Y-48162295D02*
X106500000Y-47781342D01*
X106261905Y-48162295D02*
X106261905Y-47362295D01*
X106261905Y-47362295D02*
X106642857Y-47362295D01*
X106642857Y-47362295D02*
X106738095Y-47400390D01*
X106738095Y-47400390D02*
X106785714Y-47438485D01*
X106785714Y-47438485D02*
X106833333Y-47514676D01*
X106833333Y-47514676D02*
X106833333Y-47628961D01*
X106833333Y-47628961D02*
X106785714Y-47705152D01*
X106785714Y-47705152D02*
X106738095Y-47743247D01*
X106738095Y-47743247D02*
X106642857Y-47781342D01*
X106642857Y-47781342D02*
X106261905Y-47781342D01*
X107690476Y-47628961D02*
X107690476Y-48162295D01*
X107452381Y-47324200D02*
X107214286Y-47895628D01*
X107214286Y-47895628D02*
X107833333Y-47895628D01*
X104847737Y-35656875D02*
X104841003Y-35717484D01*
X104841003Y-35717484D02*
X104766925Y-35845437D01*
X104766925Y-35845437D02*
X104699582Y-35912780D01*
X104699582Y-35912780D02*
X104571629Y-35986858D01*
X104571629Y-35986858D02*
X104450411Y-36000327D01*
X104450411Y-36000327D02*
X104362864Y-35980124D01*
X104362864Y-35980124D02*
X104221443Y-35906046D01*
X104221443Y-35906046D02*
X104140631Y-35825234D01*
X104140631Y-35825234D02*
X104066553Y-35683812D01*
X104066553Y-35683812D02*
X104046350Y-35596266D01*
X104046350Y-35596266D02*
X104059818Y-35475047D01*
X104059818Y-35475047D02*
X104133896Y-35347095D01*
X104133896Y-35347095D02*
X104201240Y-35279751D01*
X104201240Y-35279751D02*
X104329192Y-35205673D01*
X104329192Y-35205673D02*
X104389802Y-35198939D01*
X104571629Y-34909362D02*
X105009362Y-34471629D01*
X105009362Y-34471629D02*
X104989159Y-34922831D01*
X104989159Y-34922831D02*
X105090174Y-34821815D01*
X105090174Y-34821815D02*
X105184455Y-34781409D01*
X105184455Y-34781409D02*
X105245064Y-34774675D01*
X105245064Y-34774675D02*
X105332611Y-34794878D01*
X105332611Y-34794878D02*
X105467298Y-34929565D01*
X105467298Y-34929565D02*
X105487501Y-35017112D01*
X105487501Y-35017112D02*
X105480766Y-35077721D01*
X105480766Y-35077721D02*
X105440360Y-35172002D01*
X105440360Y-35172002D02*
X105238330Y-35374032D01*
X105238330Y-35374032D02*
X105144049Y-35414438D01*
X105144049Y-35414438D02*
X105083440Y-35421173D01*
X105447095Y-34033896D02*
X105514438Y-33966553D01*
X105514438Y-33966553D02*
X105608719Y-33926147D01*
X105608719Y-33926147D02*
X105669328Y-33919412D01*
X105669328Y-33919412D02*
X105756875Y-33939615D01*
X105756875Y-33939615D02*
X105898296Y-34013693D01*
X105898296Y-34013693D02*
X106032983Y-34148380D01*
X106032983Y-34148380D02*
X106107061Y-34289802D01*
X106107061Y-34289802D02*
X106127264Y-34377348D01*
X106127264Y-34377348D02*
X106120530Y-34437957D01*
X106120530Y-34437957D02*
X106080124Y-34532238D01*
X106080124Y-34532238D02*
X106012780Y-34599582D01*
X106012780Y-34599582D02*
X105918499Y-34639988D01*
X105918499Y-34639988D02*
X105857890Y-34646722D01*
X105857890Y-34646722D02*
X105770343Y-34626519D01*
X105770343Y-34626519D02*
X105628922Y-34552441D01*
X105628922Y-34552441D02*
X105494235Y-34417754D01*
X105494235Y-34417754D02*
X105420157Y-34276333D01*
X105420157Y-34276333D02*
X105399954Y-34188786D01*
X105399954Y-34188786D02*
X105406689Y-34128177D01*
X105406689Y-34128177D02*
X105447095Y-34033896D01*
X101586104Y-45242857D02*
X101624200Y-45290476D01*
X101624200Y-45290476D02*
X101662295Y-45433333D01*
X101662295Y-45433333D02*
X101662295Y-45528571D01*
X101662295Y-45528571D02*
X101624200Y-45671428D01*
X101624200Y-45671428D02*
X101548009Y-45766666D01*
X101548009Y-45766666D02*
X101471819Y-45814285D01*
X101471819Y-45814285D02*
X101319438Y-45861904D01*
X101319438Y-45861904D02*
X101205152Y-45861904D01*
X101205152Y-45861904D02*
X101052771Y-45814285D01*
X101052771Y-45814285D02*
X100976580Y-45766666D01*
X100976580Y-45766666D02*
X100900390Y-45671428D01*
X100900390Y-45671428D02*
X100862295Y-45528571D01*
X100862295Y-45528571D02*
X100862295Y-45433333D01*
X100862295Y-45433333D02*
X100900390Y-45290476D01*
X100900390Y-45290476D02*
X100938485Y-45242857D01*
X101662295Y-44290476D02*
X101662295Y-44861904D01*
X101662295Y-44576190D02*
X100862295Y-44576190D01*
X100862295Y-44576190D02*
X100976580Y-44671428D01*
X100976580Y-44671428D02*
X101052771Y-44766666D01*
X101052771Y-44766666D02*
X101090866Y-44861904D01*
X100862295Y-43957142D02*
X100862295Y-43290476D01*
X100862295Y-43290476D02*
X101662295Y-43719047D01*
X115054819Y-68590476D02*
X114578628Y-68923809D01*
X115054819Y-69161904D02*
X114054819Y-69161904D01*
X114054819Y-69161904D02*
X114054819Y-68780952D01*
X114054819Y-68780952D02*
X114102438Y-68685714D01*
X114102438Y-68685714D02*
X114150057Y-68638095D01*
X114150057Y-68638095D02*
X114245295Y-68590476D01*
X114245295Y-68590476D02*
X114388152Y-68590476D01*
X114388152Y-68590476D02*
X114483390Y-68638095D01*
X114483390Y-68638095D02*
X114531009Y-68685714D01*
X114531009Y-68685714D02*
X114578628Y-68780952D01*
X114578628Y-68780952D02*
X114578628Y-69161904D01*
X115054819Y-68161904D02*
X114054819Y-68161904D01*
X114054819Y-68161904D02*
X115054819Y-67590476D01*
X115054819Y-67590476D02*
X114054819Y-67590476D01*
X114054819Y-67209523D02*
X114054819Y-66542857D01*
X114054819Y-66542857D02*
X115054819Y-66971428D01*
D13*
X149261905Y-46557419D02*
X149261905Y-45557419D01*
X149261905Y-45557419D02*
X149500000Y-45557419D01*
X149500000Y-45557419D02*
X149642857Y-45605038D01*
X149642857Y-45605038D02*
X149738095Y-45700276D01*
X149738095Y-45700276D02*
X149785714Y-45795514D01*
X149785714Y-45795514D02*
X149833333Y-45985990D01*
X149833333Y-45985990D02*
X149833333Y-46128847D01*
X149833333Y-46128847D02*
X149785714Y-46319323D01*
X149785714Y-46319323D02*
X149738095Y-46414561D01*
X149738095Y-46414561D02*
X149642857Y-46509800D01*
X149642857Y-46509800D02*
X149500000Y-46557419D01*
X149500000Y-46557419D02*
X149261905Y-46557419D01*
X150785714Y-46557419D02*
X150214286Y-46557419D01*
X150500000Y-46557419D02*
X150500000Y-45557419D01*
X150500000Y-45557419D02*
X150404762Y-45700276D01*
X150404762Y-45700276D02*
X150309524Y-45795514D01*
X150309524Y-45795514D02*
X150214286Y-45843133D01*
D10*
X94800833Y-65634819D02*
X94467500Y-65158628D01*
X94229405Y-65634819D02*
X94229405Y-64634819D01*
X94229405Y-64634819D02*
X94610357Y-64634819D01*
X94610357Y-64634819D02*
X94705595Y-64682438D01*
X94705595Y-64682438D02*
X94753214Y-64730057D01*
X94753214Y-64730057D02*
X94800833Y-64825295D01*
X94800833Y-64825295D02*
X94800833Y-64968152D01*
X94800833Y-64968152D02*
X94753214Y-65063390D01*
X94753214Y-65063390D02*
X94705595Y-65111009D01*
X94705595Y-65111009D02*
X94610357Y-65158628D01*
X94610357Y-65158628D02*
X94229405Y-65158628D01*
X95753214Y-65634819D02*
X95181786Y-65634819D01*
X95467500Y-65634819D02*
X95467500Y-64634819D01*
X95467500Y-64634819D02*
X95372262Y-64777676D01*
X95372262Y-64777676D02*
X95277024Y-64872914D01*
X95277024Y-64872914D02*
X95181786Y-64920533D01*
X123211904Y-40495180D02*
X123211904Y-39685657D01*
X123211904Y-39685657D02*
X123164285Y-39590419D01*
X123164285Y-39590419D02*
X123116666Y-39542800D01*
X123116666Y-39542800D02*
X123021428Y-39495180D01*
X123021428Y-39495180D02*
X122830952Y-39495180D01*
X122830952Y-39495180D02*
X122735714Y-39542800D01*
X122735714Y-39542800D02*
X122688095Y-39590419D01*
X122688095Y-39590419D02*
X122640476Y-39685657D01*
X122640476Y-39685657D02*
X122640476Y-40495180D01*
X121688095Y-40495180D02*
X122164285Y-40495180D01*
X122164285Y-40495180D02*
X122211904Y-40018990D01*
X122211904Y-40018990D02*
X122164285Y-40066609D01*
X122164285Y-40066609D02*
X122069047Y-40114228D01*
X122069047Y-40114228D02*
X121830952Y-40114228D01*
X121830952Y-40114228D02*
X121735714Y-40066609D01*
X121735714Y-40066609D02*
X121688095Y-40018990D01*
X121688095Y-40018990D02*
X121640476Y-39923752D01*
X121640476Y-39923752D02*
X121640476Y-39685657D01*
X121640476Y-39685657D02*
X121688095Y-39590419D01*
X121688095Y-39590419D02*
X121735714Y-39542800D01*
X121735714Y-39542800D02*
X121830952Y-39495180D01*
X121830952Y-39495180D02*
X122069047Y-39495180D01*
X122069047Y-39495180D02*
X122164285Y-39542800D01*
X122164285Y-39542800D02*
X122211904Y-39590419D01*
X124938400Y-37854819D02*
X124938400Y-38092914D01*
X124700305Y-37997676D02*
X124938400Y-38092914D01*
X124938400Y-38092914D02*
X125176495Y-37997676D01*
X124795543Y-38283390D02*
X124938400Y-38092914D01*
X124938400Y-38092914D02*
X125081257Y-38283390D01*
X124938399Y-38945180D02*
X124938399Y-38707085D01*
X125176494Y-38802323D02*
X124938399Y-38707085D01*
X124938399Y-38707085D02*
X124700304Y-38802323D01*
X125081256Y-38516609D02*
X124938399Y-38707085D01*
X124938399Y-38707085D02*
X124795542Y-38516609D01*
X148957142Y-65054819D02*
X148623809Y-64578628D01*
X148385714Y-65054819D02*
X148385714Y-64054819D01*
X148385714Y-64054819D02*
X148766666Y-64054819D01*
X148766666Y-64054819D02*
X148861904Y-64102438D01*
X148861904Y-64102438D02*
X148909523Y-64150057D01*
X148909523Y-64150057D02*
X148957142Y-64245295D01*
X148957142Y-64245295D02*
X148957142Y-64388152D01*
X148957142Y-64388152D02*
X148909523Y-64483390D01*
X148909523Y-64483390D02*
X148861904Y-64531009D01*
X148861904Y-64531009D02*
X148766666Y-64578628D01*
X148766666Y-64578628D02*
X148385714Y-64578628D01*
X149909523Y-65054819D02*
X149338095Y-65054819D01*
X149623809Y-65054819D02*
X149623809Y-64054819D01*
X149623809Y-64054819D02*
X149528571Y-64197676D01*
X149528571Y-64197676D02*
X149433333Y-64292914D01*
X149433333Y-64292914D02*
X149338095Y-64340533D01*
X150766666Y-64054819D02*
X150576190Y-64054819D01*
X150576190Y-64054819D02*
X150480952Y-64102438D01*
X150480952Y-64102438D02*
X150433333Y-64150057D01*
X150433333Y-64150057D02*
X150338095Y-64292914D01*
X150338095Y-64292914D02*
X150290476Y-64483390D01*
X150290476Y-64483390D02*
X150290476Y-64864342D01*
X150290476Y-64864342D02*
X150338095Y-64959580D01*
X150338095Y-64959580D02*
X150385714Y-65007200D01*
X150385714Y-65007200D02*
X150480952Y-65054819D01*
X150480952Y-65054819D02*
X150671428Y-65054819D01*
X150671428Y-65054819D02*
X150766666Y-65007200D01*
X150766666Y-65007200D02*
X150814285Y-64959580D01*
X150814285Y-64959580D02*
X150861904Y-64864342D01*
X150861904Y-64864342D02*
X150861904Y-64626247D01*
X150861904Y-64626247D02*
X150814285Y-64531009D01*
X150814285Y-64531009D02*
X150766666Y-64483390D01*
X150766666Y-64483390D02*
X150671428Y-64435771D01*
X150671428Y-64435771D02*
X150480952Y-64435771D01*
X150480952Y-64435771D02*
X150385714Y-64483390D01*
X150385714Y-64483390D02*
X150338095Y-64531009D01*
X150338095Y-64531009D02*
X150290476Y-64626247D01*
X145004761Y-52950057D02*
X144909523Y-52902438D01*
X144909523Y-52902438D02*
X144814285Y-52807200D01*
X144814285Y-52807200D02*
X144671428Y-52664342D01*
X144671428Y-52664342D02*
X144576190Y-52616723D01*
X144576190Y-52616723D02*
X144480952Y-52616723D01*
X144528571Y-52854819D02*
X144433333Y-52807200D01*
X144433333Y-52807200D02*
X144338095Y-52711961D01*
X144338095Y-52711961D02*
X144290476Y-52521485D01*
X144290476Y-52521485D02*
X144290476Y-52188152D01*
X144290476Y-52188152D02*
X144338095Y-51997676D01*
X144338095Y-51997676D02*
X144433333Y-51902438D01*
X144433333Y-51902438D02*
X144528571Y-51854819D01*
X144528571Y-51854819D02*
X144719047Y-51854819D01*
X144719047Y-51854819D02*
X144814285Y-51902438D01*
X144814285Y-51902438D02*
X144909523Y-51997676D01*
X144909523Y-51997676D02*
X144957142Y-52188152D01*
X144957142Y-52188152D02*
X144957142Y-52521485D01*
X144957142Y-52521485D02*
X144909523Y-52711961D01*
X144909523Y-52711961D02*
X144814285Y-52807200D01*
X144814285Y-52807200D02*
X144719047Y-52854819D01*
X144719047Y-52854819D02*
X144528571Y-52854819D01*
X145338095Y-51950057D02*
X145385714Y-51902438D01*
X145385714Y-51902438D02*
X145480952Y-51854819D01*
X145480952Y-51854819D02*
X145719047Y-51854819D01*
X145719047Y-51854819D02*
X145814285Y-51902438D01*
X145814285Y-51902438D02*
X145861904Y-51950057D01*
X145861904Y-51950057D02*
X145909523Y-52045295D01*
X145909523Y-52045295D02*
X145909523Y-52140533D01*
X145909523Y-52140533D02*
X145861904Y-52283390D01*
X145861904Y-52283390D02*
X145290476Y-52854819D01*
X145290476Y-52854819D02*
X145909523Y-52854819D01*
X140859580Y-50742857D02*
X140907200Y-50790476D01*
X140907200Y-50790476D02*
X140954819Y-50933333D01*
X140954819Y-50933333D02*
X140954819Y-51028571D01*
X140954819Y-51028571D02*
X140907200Y-51171428D01*
X140907200Y-51171428D02*
X140811961Y-51266666D01*
X140811961Y-51266666D02*
X140716723Y-51314285D01*
X140716723Y-51314285D02*
X140526247Y-51361904D01*
X140526247Y-51361904D02*
X140383390Y-51361904D01*
X140383390Y-51361904D02*
X140192914Y-51314285D01*
X140192914Y-51314285D02*
X140097676Y-51266666D01*
X140097676Y-51266666D02*
X140002438Y-51171428D01*
X140002438Y-51171428D02*
X139954819Y-51028571D01*
X139954819Y-51028571D02*
X139954819Y-50933333D01*
X139954819Y-50933333D02*
X140002438Y-50790476D01*
X140002438Y-50790476D02*
X140050057Y-50742857D01*
X140050057Y-50361904D02*
X140002438Y-50314285D01*
X140002438Y-50314285D02*
X139954819Y-50219047D01*
X139954819Y-50219047D02*
X139954819Y-49980952D01*
X139954819Y-49980952D02*
X140002438Y-49885714D01*
X140002438Y-49885714D02*
X140050057Y-49838095D01*
X140050057Y-49838095D02*
X140145295Y-49790476D01*
X140145295Y-49790476D02*
X140240533Y-49790476D01*
X140240533Y-49790476D02*
X140383390Y-49838095D01*
X140383390Y-49838095D02*
X140954819Y-50409523D01*
X140954819Y-50409523D02*
X140954819Y-49790476D01*
X140954819Y-48838095D02*
X140954819Y-49409523D01*
X140954819Y-49123809D02*
X139954819Y-49123809D01*
X139954819Y-49123809D02*
X140097676Y-49219047D01*
X140097676Y-49219047D02*
X140192914Y-49314285D01*
X140192914Y-49314285D02*
X140240533Y-49409523D01*
X141604761Y-72500057D02*
X141509523Y-72452438D01*
X141509523Y-72452438D02*
X141414285Y-72357200D01*
X141414285Y-72357200D02*
X141271428Y-72214342D01*
X141271428Y-72214342D02*
X141176190Y-72166723D01*
X141176190Y-72166723D02*
X141080952Y-72166723D01*
X141128571Y-72404819D02*
X141033333Y-72357200D01*
X141033333Y-72357200D02*
X140938095Y-72261961D01*
X140938095Y-72261961D02*
X140890476Y-72071485D01*
X140890476Y-72071485D02*
X140890476Y-71738152D01*
X140890476Y-71738152D02*
X140938095Y-71547676D01*
X140938095Y-71547676D02*
X141033333Y-71452438D01*
X141033333Y-71452438D02*
X141128571Y-71404819D01*
X141128571Y-71404819D02*
X141319047Y-71404819D01*
X141319047Y-71404819D02*
X141414285Y-71452438D01*
X141414285Y-71452438D02*
X141509523Y-71547676D01*
X141509523Y-71547676D02*
X141557142Y-71738152D01*
X141557142Y-71738152D02*
X141557142Y-72071485D01*
X141557142Y-72071485D02*
X141509523Y-72261961D01*
X141509523Y-72261961D02*
X141414285Y-72357200D01*
X141414285Y-72357200D02*
X141319047Y-72404819D01*
X141319047Y-72404819D02*
X141128571Y-72404819D01*
X142414285Y-71404819D02*
X142223809Y-71404819D01*
X142223809Y-71404819D02*
X142128571Y-71452438D01*
X142128571Y-71452438D02*
X142080952Y-71500057D01*
X142080952Y-71500057D02*
X141985714Y-71642914D01*
X141985714Y-71642914D02*
X141938095Y-71833390D01*
X141938095Y-71833390D02*
X141938095Y-72214342D01*
X141938095Y-72214342D02*
X141985714Y-72309580D01*
X141985714Y-72309580D02*
X142033333Y-72357200D01*
X142033333Y-72357200D02*
X142128571Y-72404819D01*
X142128571Y-72404819D02*
X142319047Y-72404819D01*
X142319047Y-72404819D02*
X142414285Y-72357200D01*
X142414285Y-72357200D02*
X142461904Y-72309580D01*
X142461904Y-72309580D02*
X142509523Y-72214342D01*
X142509523Y-72214342D02*
X142509523Y-71976247D01*
X142509523Y-71976247D02*
X142461904Y-71881009D01*
X142461904Y-71881009D02*
X142414285Y-71833390D01*
X142414285Y-71833390D02*
X142319047Y-71785771D01*
X142319047Y-71785771D02*
X142128571Y-71785771D01*
X142128571Y-71785771D02*
X142033333Y-71833390D01*
X142033333Y-71833390D02*
X141985714Y-71881009D01*
X141985714Y-71881009D02*
X141938095Y-71976247D01*
X134654819Y-62842857D02*
X134178628Y-63176190D01*
X134654819Y-63414285D02*
X133654819Y-63414285D01*
X133654819Y-63414285D02*
X133654819Y-63033333D01*
X133654819Y-63033333D02*
X133702438Y-62938095D01*
X133702438Y-62938095D02*
X133750057Y-62890476D01*
X133750057Y-62890476D02*
X133845295Y-62842857D01*
X133845295Y-62842857D02*
X133988152Y-62842857D01*
X133988152Y-62842857D02*
X134083390Y-62890476D01*
X134083390Y-62890476D02*
X134131009Y-62938095D01*
X134131009Y-62938095D02*
X134178628Y-63033333D01*
X134178628Y-63033333D02*
X134178628Y-63414285D01*
X134654819Y-61890476D02*
X134654819Y-62461904D01*
X134654819Y-62176190D02*
X133654819Y-62176190D01*
X133654819Y-62176190D02*
X133797676Y-62271428D01*
X133797676Y-62271428D02*
X133892914Y-62366666D01*
X133892914Y-62366666D02*
X133940533Y-62461904D01*
X134083390Y-61319047D02*
X134035771Y-61414285D01*
X134035771Y-61414285D02*
X133988152Y-61461904D01*
X133988152Y-61461904D02*
X133892914Y-61509523D01*
X133892914Y-61509523D02*
X133845295Y-61509523D01*
X133845295Y-61509523D02*
X133750057Y-61461904D01*
X133750057Y-61461904D02*
X133702438Y-61414285D01*
X133702438Y-61414285D02*
X133654819Y-61319047D01*
X133654819Y-61319047D02*
X133654819Y-61128571D01*
X133654819Y-61128571D02*
X133702438Y-61033333D01*
X133702438Y-61033333D02*
X133750057Y-60985714D01*
X133750057Y-60985714D02*
X133845295Y-60938095D01*
X133845295Y-60938095D02*
X133892914Y-60938095D01*
X133892914Y-60938095D02*
X133988152Y-60985714D01*
X133988152Y-60985714D02*
X134035771Y-61033333D01*
X134035771Y-61033333D02*
X134083390Y-61128571D01*
X134083390Y-61128571D02*
X134083390Y-61319047D01*
X134083390Y-61319047D02*
X134131009Y-61414285D01*
X134131009Y-61414285D02*
X134178628Y-61461904D01*
X134178628Y-61461904D02*
X134273866Y-61509523D01*
X134273866Y-61509523D02*
X134464342Y-61509523D01*
X134464342Y-61509523D02*
X134559580Y-61461904D01*
X134559580Y-61461904D02*
X134607200Y-61414285D01*
X134607200Y-61414285D02*
X134654819Y-61319047D01*
X134654819Y-61319047D02*
X134654819Y-61128571D01*
X134654819Y-61128571D02*
X134607200Y-61033333D01*
X134607200Y-61033333D02*
X134559580Y-60985714D01*
X134559580Y-60985714D02*
X134464342Y-60938095D01*
X134464342Y-60938095D02*
X134273866Y-60938095D01*
X134273866Y-60938095D02*
X134178628Y-60985714D01*
X134178628Y-60985714D02*
X134131009Y-61033333D01*
X134131009Y-61033333D02*
X134083390Y-61128571D01*
X140954819Y-56742857D02*
X140478628Y-57076190D01*
X140954819Y-57314285D02*
X139954819Y-57314285D01*
X139954819Y-57314285D02*
X139954819Y-56933333D01*
X139954819Y-56933333D02*
X140002438Y-56838095D01*
X140002438Y-56838095D02*
X140050057Y-56790476D01*
X140050057Y-56790476D02*
X140145295Y-56742857D01*
X140145295Y-56742857D02*
X140288152Y-56742857D01*
X140288152Y-56742857D02*
X140383390Y-56790476D01*
X140383390Y-56790476D02*
X140431009Y-56838095D01*
X140431009Y-56838095D02*
X140478628Y-56933333D01*
X140478628Y-56933333D02*
X140478628Y-57314285D01*
X140954819Y-55790476D02*
X140954819Y-56361904D01*
X140954819Y-56076190D02*
X139954819Y-56076190D01*
X139954819Y-56076190D02*
X140097676Y-56171428D01*
X140097676Y-56171428D02*
X140192914Y-56266666D01*
X140192914Y-56266666D02*
X140240533Y-56361904D01*
X139954819Y-55457142D02*
X139954819Y-54838095D01*
X139954819Y-54838095D02*
X140335771Y-55171428D01*
X140335771Y-55171428D02*
X140335771Y-55028571D01*
X140335771Y-55028571D02*
X140383390Y-54933333D01*
X140383390Y-54933333D02*
X140431009Y-54885714D01*
X140431009Y-54885714D02*
X140526247Y-54838095D01*
X140526247Y-54838095D02*
X140764342Y-54838095D01*
X140764342Y-54838095D02*
X140859580Y-54885714D01*
X140859580Y-54885714D02*
X140907200Y-54933333D01*
X140907200Y-54933333D02*
X140954819Y-55028571D01*
X140954819Y-55028571D02*
X140954819Y-55314285D01*
X140954819Y-55314285D02*
X140907200Y-55409523D01*
X140907200Y-55409523D02*
X140859580Y-55457142D01*
X131050057Y-45360238D02*
X131002438Y-45455476D01*
X131002438Y-45455476D02*
X130907200Y-45550714D01*
X130907200Y-45550714D02*
X130764342Y-45693571D01*
X130764342Y-45693571D02*
X130716723Y-45788809D01*
X130716723Y-45788809D02*
X130716723Y-45884047D01*
X130954819Y-45836428D02*
X130907200Y-45931666D01*
X130907200Y-45931666D02*
X130811961Y-46026904D01*
X130811961Y-46026904D02*
X130621485Y-46074523D01*
X130621485Y-46074523D02*
X130288152Y-46074523D01*
X130288152Y-46074523D02*
X130097676Y-46026904D01*
X130097676Y-46026904D02*
X130002438Y-45931666D01*
X130002438Y-45931666D02*
X129954819Y-45836428D01*
X129954819Y-45836428D02*
X129954819Y-45645952D01*
X129954819Y-45645952D02*
X130002438Y-45550714D01*
X130002438Y-45550714D02*
X130097676Y-45455476D01*
X130097676Y-45455476D02*
X130288152Y-45407857D01*
X130288152Y-45407857D02*
X130621485Y-45407857D01*
X130621485Y-45407857D02*
X130811961Y-45455476D01*
X130811961Y-45455476D02*
X130907200Y-45550714D01*
X130907200Y-45550714D02*
X130954819Y-45645952D01*
X130954819Y-45645952D02*
X130954819Y-45836428D01*
X130954819Y-44455476D02*
X130954819Y-45026904D01*
X130954819Y-44741190D02*
X129954819Y-44741190D01*
X129954819Y-44741190D02*
X130097676Y-44836428D01*
X130097676Y-44836428D02*
X130192914Y-44931666D01*
X130192914Y-44931666D02*
X130240533Y-45026904D01*
X96533333Y-70154819D02*
X96200000Y-69678628D01*
X95961905Y-70154819D02*
X95961905Y-69154819D01*
X95961905Y-69154819D02*
X96342857Y-69154819D01*
X96342857Y-69154819D02*
X96438095Y-69202438D01*
X96438095Y-69202438D02*
X96485714Y-69250057D01*
X96485714Y-69250057D02*
X96533333Y-69345295D01*
X96533333Y-69345295D02*
X96533333Y-69488152D01*
X96533333Y-69488152D02*
X96485714Y-69583390D01*
X96485714Y-69583390D02*
X96438095Y-69631009D01*
X96438095Y-69631009D02*
X96342857Y-69678628D01*
X96342857Y-69678628D02*
X95961905Y-69678628D01*
X96914286Y-69250057D02*
X96961905Y-69202438D01*
X96961905Y-69202438D02*
X97057143Y-69154819D01*
X97057143Y-69154819D02*
X97295238Y-69154819D01*
X97295238Y-69154819D02*
X97390476Y-69202438D01*
X97390476Y-69202438D02*
X97438095Y-69250057D01*
X97438095Y-69250057D02*
X97485714Y-69345295D01*
X97485714Y-69345295D02*
X97485714Y-69440533D01*
X97485714Y-69440533D02*
X97438095Y-69583390D01*
X97438095Y-69583390D02*
X96866667Y-70154819D01*
X96866667Y-70154819D02*
X97485714Y-70154819D01*
X93575595Y-37454819D02*
X93575595Y-38264342D01*
X93575595Y-38264342D02*
X93623214Y-38359580D01*
X93623214Y-38359580D02*
X93670833Y-38407200D01*
X93670833Y-38407200D02*
X93766071Y-38454819D01*
X93766071Y-38454819D02*
X93956547Y-38454819D01*
X93956547Y-38454819D02*
X94051785Y-38407200D01*
X94051785Y-38407200D02*
X94099404Y-38359580D01*
X94099404Y-38359580D02*
X94147023Y-38264342D01*
X94147023Y-38264342D02*
X94147023Y-37454819D01*
X94766071Y-37883390D02*
X94670833Y-37835771D01*
X94670833Y-37835771D02*
X94623214Y-37788152D01*
X94623214Y-37788152D02*
X94575595Y-37692914D01*
X94575595Y-37692914D02*
X94575595Y-37645295D01*
X94575595Y-37645295D02*
X94623214Y-37550057D01*
X94623214Y-37550057D02*
X94670833Y-37502438D01*
X94670833Y-37502438D02*
X94766071Y-37454819D01*
X94766071Y-37454819D02*
X94956547Y-37454819D01*
X94956547Y-37454819D02*
X95051785Y-37502438D01*
X95051785Y-37502438D02*
X95099404Y-37550057D01*
X95099404Y-37550057D02*
X95147023Y-37645295D01*
X95147023Y-37645295D02*
X95147023Y-37692914D01*
X95147023Y-37692914D02*
X95099404Y-37788152D01*
X95099404Y-37788152D02*
X95051785Y-37835771D01*
X95051785Y-37835771D02*
X94956547Y-37883390D01*
X94956547Y-37883390D02*
X94766071Y-37883390D01*
X94766071Y-37883390D02*
X94670833Y-37931009D01*
X94670833Y-37931009D02*
X94623214Y-37978628D01*
X94623214Y-37978628D02*
X94575595Y-38073866D01*
X94575595Y-38073866D02*
X94575595Y-38264342D01*
X94575595Y-38264342D02*
X94623214Y-38359580D01*
X94623214Y-38359580D02*
X94670833Y-38407200D01*
X94670833Y-38407200D02*
X94766071Y-38454819D01*
X94766071Y-38454819D02*
X94956547Y-38454819D01*
X94956547Y-38454819D02*
X95051785Y-38407200D01*
X95051785Y-38407200D02*
X95099404Y-38359580D01*
X95099404Y-38359580D02*
X95147023Y-38264342D01*
X95147023Y-38264342D02*
X95147023Y-38073866D01*
X95147023Y-38073866D02*
X95099404Y-37978628D01*
X95099404Y-37978628D02*
X95051785Y-37931009D01*
X95051785Y-37931009D02*
X94956547Y-37883390D01*
X93459580Y-72766666D02*
X93507200Y-72814285D01*
X93507200Y-72814285D02*
X93554819Y-72957142D01*
X93554819Y-72957142D02*
X93554819Y-73052380D01*
X93554819Y-73052380D02*
X93507200Y-73195237D01*
X93507200Y-73195237D02*
X93411961Y-73290475D01*
X93411961Y-73290475D02*
X93316723Y-73338094D01*
X93316723Y-73338094D02*
X93126247Y-73385713D01*
X93126247Y-73385713D02*
X92983390Y-73385713D01*
X92983390Y-73385713D02*
X92792914Y-73338094D01*
X92792914Y-73338094D02*
X92697676Y-73290475D01*
X92697676Y-73290475D02*
X92602438Y-73195237D01*
X92602438Y-73195237D02*
X92554819Y-73052380D01*
X92554819Y-73052380D02*
X92554819Y-72957142D01*
X92554819Y-72957142D02*
X92602438Y-72814285D01*
X92602438Y-72814285D02*
X92650057Y-72766666D01*
X92888152Y-71909523D02*
X93554819Y-71909523D01*
X92507200Y-72147618D02*
X93221485Y-72385713D01*
X93221485Y-72385713D02*
X93221485Y-71766666D01*
X148754819Y-50942857D02*
X148278628Y-51276190D01*
X148754819Y-51514285D02*
X147754819Y-51514285D01*
X147754819Y-51514285D02*
X147754819Y-51133333D01*
X147754819Y-51133333D02*
X147802438Y-51038095D01*
X147802438Y-51038095D02*
X147850057Y-50990476D01*
X147850057Y-50990476D02*
X147945295Y-50942857D01*
X147945295Y-50942857D02*
X148088152Y-50942857D01*
X148088152Y-50942857D02*
X148183390Y-50990476D01*
X148183390Y-50990476D02*
X148231009Y-51038095D01*
X148231009Y-51038095D02*
X148278628Y-51133333D01*
X148278628Y-51133333D02*
X148278628Y-51514285D01*
X147850057Y-50561904D02*
X147802438Y-50514285D01*
X147802438Y-50514285D02*
X147754819Y-50419047D01*
X147754819Y-50419047D02*
X147754819Y-50180952D01*
X147754819Y-50180952D02*
X147802438Y-50085714D01*
X147802438Y-50085714D02*
X147850057Y-50038095D01*
X147850057Y-50038095D02*
X147945295Y-49990476D01*
X147945295Y-49990476D02*
X148040533Y-49990476D01*
X148040533Y-49990476D02*
X148183390Y-50038095D01*
X148183390Y-50038095D02*
X148754819Y-50609523D01*
X148754819Y-50609523D02*
X148754819Y-49990476D01*
X147754819Y-49371428D02*
X147754819Y-49276190D01*
X147754819Y-49276190D02*
X147802438Y-49180952D01*
X147802438Y-49180952D02*
X147850057Y-49133333D01*
X147850057Y-49133333D02*
X147945295Y-49085714D01*
X147945295Y-49085714D02*
X148135771Y-49038095D01*
X148135771Y-49038095D02*
X148373866Y-49038095D01*
X148373866Y-49038095D02*
X148564342Y-49085714D01*
X148564342Y-49085714D02*
X148659580Y-49133333D01*
X148659580Y-49133333D02*
X148707200Y-49180952D01*
X148707200Y-49180952D02*
X148754819Y-49276190D01*
X148754819Y-49276190D02*
X148754819Y-49371428D01*
X148754819Y-49371428D02*
X148707200Y-49466666D01*
X148707200Y-49466666D02*
X148659580Y-49514285D01*
X148659580Y-49514285D02*
X148564342Y-49561904D01*
X148564342Y-49561904D02*
X148373866Y-49609523D01*
X148373866Y-49609523D02*
X148135771Y-49609523D01*
X148135771Y-49609523D02*
X147945295Y-49561904D01*
X147945295Y-49561904D02*
X147850057Y-49514285D01*
X147850057Y-49514285D02*
X147802438Y-49466666D01*
X147802438Y-49466666D02*
X147754819Y-49371428D01*
X149454819Y-73642857D02*
X148978628Y-73976190D01*
X149454819Y-74214285D02*
X148454819Y-74214285D01*
X148454819Y-74214285D02*
X148454819Y-73833333D01*
X148454819Y-73833333D02*
X148502438Y-73738095D01*
X148502438Y-73738095D02*
X148550057Y-73690476D01*
X148550057Y-73690476D02*
X148645295Y-73642857D01*
X148645295Y-73642857D02*
X148788152Y-73642857D01*
X148788152Y-73642857D02*
X148883390Y-73690476D01*
X148883390Y-73690476D02*
X148931009Y-73738095D01*
X148931009Y-73738095D02*
X148978628Y-73833333D01*
X148978628Y-73833333D02*
X148978628Y-74214285D01*
X149454819Y-72690476D02*
X149454819Y-73261904D01*
X149454819Y-72976190D02*
X148454819Y-72976190D01*
X148454819Y-72976190D02*
X148597676Y-73071428D01*
X148597676Y-73071428D02*
X148692914Y-73166666D01*
X148692914Y-73166666D02*
X148740533Y-73261904D01*
X148550057Y-72309523D02*
X148502438Y-72261904D01*
X148502438Y-72261904D02*
X148454819Y-72166666D01*
X148454819Y-72166666D02*
X148454819Y-71928571D01*
X148454819Y-71928571D02*
X148502438Y-71833333D01*
X148502438Y-71833333D02*
X148550057Y-71785714D01*
X148550057Y-71785714D02*
X148645295Y-71738095D01*
X148645295Y-71738095D02*
X148740533Y-71738095D01*
X148740533Y-71738095D02*
X148883390Y-71785714D01*
X148883390Y-71785714D02*
X149454819Y-72357142D01*
X149454819Y-72357142D02*
X149454819Y-71738095D01*
X144383333Y-48704819D02*
X143907143Y-48704819D01*
X143907143Y-48704819D02*
X143907143Y-47704819D01*
X144669048Y-47800057D02*
X144716667Y-47752438D01*
X144716667Y-47752438D02*
X144811905Y-47704819D01*
X144811905Y-47704819D02*
X145050000Y-47704819D01*
X145050000Y-47704819D02*
X145145238Y-47752438D01*
X145145238Y-47752438D02*
X145192857Y-47800057D01*
X145192857Y-47800057D02*
X145240476Y-47895295D01*
X145240476Y-47895295D02*
X145240476Y-47990533D01*
X145240476Y-47990533D02*
X145192857Y-48133390D01*
X145192857Y-48133390D02*
X144621429Y-48704819D01*
X144621429Y-48704819D02*
X145240476Y-48704819D01*
X148607142Y-35704819D02*
X148273809Y-35228628D01*
X148035714Y-35704819D02*
X148035714Y-34704819D01*
X148035714Y-34704819D02*
X148416666Y-34704819D01*
X148416666Y-34704819D02*
X148511904Y-34752438D01*
X148511904Y-34752438D02*
X148559523Y-34800057D01*
X148559523Y-34800057D02*
X148607142Y-34895295D01*
X148607142Y-34895295D02*
X148607142Y-35038152D01*
X148607142Y-35038152D02*
X148559523Y-35133390D01*
X148559523Y-35133390D02*
X148511904Y-35181009D01*
X148511904Y-35181009D02*
X148416666Y-35228628D01*
X148416666Y-35228628D02*
X148035714Y-35228628D01*
X149464285Y-35038152D02*
X149464285Y-35704819D01*
X149226190Y-34657200D02*
X148988095Y-35371485D01*
X148988095Y-35371485D02*
X149607142Y-35371485D01*
X149940476Y-34800057D02*
X149988095Y-34752438D01*
X149988095Y-34752438D02*
X150083333Y-34704819D01*
X150083333Y-34704819D02*
X150321428Y-34704819D01*
X150321428Y-34704819D02*
X150416666Y-34752438D01*
X150416666Y-34752438D02*
X150464285Y-34800057D01*
X150464285Y-34800057D02*
X150511904Y-34895295D01*
X150511904Y-34895295D02*
X150511904Y-34990533D01*
X150511904Y-34990533D02*
X150464285Y-35133390D01*
X150464285Y-35133390D02*
X149892857Y-35704819D01*
X149892857Y-35704819D02*
X150511904Y-35704819D01*
X149450057Y-59271428D02*
X149402438Y-59366666D01*
X149402438Y-59366666D02*
X149307200Y-59461904D01*
X149307200Y-59461904D02*
X149164342Y-59604761D01*
X149164342Y-59604761D02*
X149116723Y-59699999D01*
X149116723Y-59699999D02*
X149116723Y-59795237D01*
X149354819Y-59747618D02*
X149307200Y-59842856D01*
X149307200Y-59842856D02*
X149211961Y-59938094D01*
X149211961Y-59938094D02*
X149021485Y-59985713D01*
X149021485Y-59985713D02*
X148688152Y-59985713D01*
X148688152Y-59985713D02*
X148497676Y-59938094D01*
X148497676Y-59938094D02*
X148402438Y-59842856D01*
X148402438Y-59842856D02*
X148354819Y-59747618D01*
X148354819Y-59747618D02*
X148354819Y-59557142D01*
X148354819Y-59557142D02*
X148402438Y-59461904D01*
X148402438Y-59461904D02*
X148497676Y-59366666D01*
X148497676Y-59366666D02*
X148688152Y-59319047D01*
X148688152Y-59319047D02*
X149021485Y-59319047D01*
X149021485Y-59319047D02*
X149211961Y-59366666D01*
X149211961Y-59366666D02*
X149307200Y-59461904D01*
X149307200Y-59461904D02*
X149354819Y-59557142D01*
X149354819Y-59557142D02*
X149354819Y-59747618D01*
X149354819Y-58366666D02*
X149354819Y-58938094D01*
X149354819Y-58652380D02*
X148354819Y-58652380D01*
X148354819Y-58652380D02*
X148497676Y-58747618D01*
X148497676Y-58747618D02*
X148592914Y-58842856D01*
X148592914Y-58842856D02*
X148640533Y-58938094D01*
X148450057Y-57985713D02*
X148402438Y-57938094D01*
X148402438Y-57938094D02*
X148354819Y-57842856D01*
X148354819Y-57842856D02*
X148354819Y-57604761D01*
X148354819Y-57604761D02*
X148402438Y-57509523D01*
X148402438Y-57509523D02*
X148450057Y-57461904D01*
X148450057Y-57461904D02*
X148545295Y-57414285D01*
X148545295Y-57414285D02*
X148640533Y-57414285D01*
X148640533Y-57414285D02*
X148783390Y-57461904D01*
X148783390Y-57461904D02*
X149354819Y-58033332D01*
X149354819Y-58033332D02*
X149354819Y-57414285D01*
X139359580Y-50742857D02*
X139407200Y-50790476D01*
X139407200Y-50790476D02*
X139454819Y-50933333D01*
X139454819Y-50933333D02*
X139454819Y-51028571D01*
X139454819Y-51028571D02*
X139407200Y-51171428D01*
X139407200Y-51171428D02*
X139311961Y-51266666D01*
X139311961Y-51266666D02*
X139216723Y-51314285D01*
X139216723Y-51314285D02*
X139026247Y-51361904D01*
X139026247Y-51361904D02*
X138883390Y-51361904D01*
X138883390Y-51361904D02*
X138692914Y-51314285D01*
X138692914Y-51314285D02*
X138597676Y-51266666D01*
X138597676Y-51266666D02*
X138502438Y-51171428D01*
X138502438Y-51171428D02*
X138454819Y-51028571D01*
X138454819Y-51028571D02*
X138454819Y-50933333D01*
X138454819Y-50933333D02*
X138502438Y-50790476D01*
X138502438Y-50790476D02*
X138550057Y-50742857D01*
X138550057Y-50361904D02*
X138502438Y-50314285D01*
X138502438Y-50314285D02*
X138454819Y-50219047D01*
X138454819Y-50219047D02*
X138454819Y-49980952D01*
X138454819Y-49980952D02*
X138502438Y-49885714D01*
X138502438Y-49885714D02*
X138550057Y-49838095D01*
X138550057Y-49838095D02*
X138645295Y-49790476D01*
X138645295Y-49790476D02*
X138740533Y-49790476D01*
X138740533Y-49790476D02*
X138883390Y-49838095D01*
X138883390Y-49838095D02*
X139454819Y-50409523D01*
X139454819Y-50409523D02*
X139454819Y-49790476D01*
X138550057Y-49409523D02*
X138502438Y-49361904D01*
X138502438Y-49361904D02*
X138454819Y-49266666D01*
X138454819Y-49266666D02*
X138454819Y-49028571D01*
X138454819Y-49028571D02*
X138502438Y-48933333D01*
X138502438Y-48933333D02*
X138550057Y-48885714D01*
X138550057Y-48885714D02*
X138645295Y-48838095D01*
X138645295Y-48838095D02*
X138740533Y-48838095D01*
X138740533Y-48838095D02*
X138883390Y-48885714D01*
X138883390Y-48885714D02*
X139454819Y-49457142D01*
X139454819Y-49457142D02*
X139454819Y-48838095D01*
X102747737Y-37756875D02*
X102741003Y-37817484D01*
X102741003Y-37817484D02*
X102666925Y-37945437D01*
X102666925Y-37945437D02*
X102599582Y-38012780D01*
X102599582Y-38012780D02*
X102471629Y-38086858D01*
X102471629Y-38086858D02*
X102350411Y-38100327D01*
X102350411Y-38100327D02*
X102262864Y-38080124D01*
X102262864Y-38080124D02*
X102121443Y-38006046D01*
X102121443Y-38006046D02*
X102040631Y-37925234D01*
X102040631Y-37925234D02*
X101966553Y-37783812D01*
X101966553Y-37783812D02*
X101946350Y-37696266D01*
X101946350Y-37696266D02*
X101959818Y-37575047D01*
X101959818Y-37575047D02*
X102033896Y-37447095D01*
X102033896Y-37447095D02*
X102101240Y-37379751D01*
X102101240Y-37379751D02*
X102229192Y-37305673D01*
X102229192Y-37305673D02*
X102289802Y-37298939D01*
X102559176Y-37029565D02*
X102565910Y-36968956D01*
X102565910Y-36968956D02*
X102606316Y-36874675D01*
X102606316Y-36874675D02*
X102774675Y-36706316D01*
X102774675Y-36706316D02*
X102868956Y-36665910D01*
X102868956Y-36665910D02*
X102929565Y-36659176D01*
X102929565Y-36659176D02*
X103017111Y-36679379D01*
X103017111Y-36679379D02*
X103070986Y-36733254D01*
X103070986Y-36733254D02*
X103118127Y-36847738D01*
X103118127Y-36847738D02*
X103037315Y-37575047D01*
X103037315Y-37575047D02*
X103475047Y-37137315D01*
X103811765Y-36800597D02*
X103946452Y-36665910D01*
X103946452Y-36665910D02*
X103986858Y-36571629D01*
X103986858Y-36571629D02*
X103993592Y-36511020D01*
X103993592Y-36511020D02*
X103980124Y-36362864D01*
X103980124Y-36362864D02*
X103906046Y-36221443D01*
X103906046Y-36221443D02*
X103690547Y-36005944D01*
X103690547Y-36005944D02*
X103603000Y-35985741D01*
X103603000Y-35985741D02*
X103542391Y-35992475D01*
X103542391Y-35992475D02*
X103448110Y-36032881D01*
X103448110Y-36032881D02*
X103313423Y-36167568D01*
X103313423Y-36167568D02*
X103273017Y-36261849D01*
X103273017Y-36261849D02*
X103266282Y-36322458D01*
X103266282Y-36322458D02*
X103286485Y-36410005D01*
X103286485Y-36410005D02*
X103421173Y-36544692D01*
X103421173Y-36544692D02*
X103508719Y-36564895D01*
X103508719Y-36564895D02*
X103569328Y-36558160D01*
X103569328Y-36558160D02*
X103663609Y-36517754D01*
X103663609Y-36517754D02*
X103798296Y-36383067D01*
X103798296Y-36383067D02*
X103838702Y-36288786D01*
X103838702Y-36288786D02*
X103845437Y-36228177D01*
X103845437Y-36228177D02*
X103825234Y-36140631D01*
X148607142Y-37204819D02*
X148273809Y-36728628D01*
X148035714Y-37204819D02*
X148035714Y-36204819D01*
X148035714Y-36204819D02*
X148416666Y-36204819D01*
X148416666Y-36204819D02*
X148511904Y-36252438D01*
X148511904Y-36252438D02*
X148559523Y-36300057D01*
X148559523Y-36300057D02*
X148607142Y-36395295D01*
X148607142Y-36395295D02*
X148607142Y-36538152D01*
X148607142Y-36538152D02*
X148559523Y-36633390D01*
X148559523Y-36633390D02*
X148511904Y-36681009D01*
X148511904Y-36681009D02*
X148416666Y-36728628D01*
X148416666Y-36728628D02*
X148035714Y-36728628D01*
X149464285Y-36538152D02*
X149464285Y-37204819D01*
X149226190Y-36157200D02*
X148988095Y-36871485D01*
X148988095Y-36871485D02*
X149607142Y-36871485D01*
X150511904Y-37204819D02*
X149940476Y-37204819D01*
X150226190Y-37204819D02*
X150226190Y-36204819D01*
X150226190Y-36204819D02*
X150130952Y-36347676D01*
X150130952Y-36347676D02*
X150035714Y-36442914D01*
X150035714Y-36442914D02*
X149940476Y-36490533D01*
X143857142Y-40979580D02*
X143809523Y-41027200D01*
X143809523Y-41027200D02*
X143666666Y-41074819D01*
X143666666Y-41074819D02*
X143571428Y-41074819D01*
X143571428Y-41074819D02*
X143428571Y-41027200D01*
X143428571Y-41027200D02*
X143333333Y-40931961D01*
X143333333Y-40931961D02*
X143285714Y-40836723D01*
X143285714Y-40836723D02*
X143238095Y-40646247D01*
X143238095Y-40646247D02*
X143238095Y-40503390D01*
X143238095Y-40503390D02*
X143285714Y-40312914D01*
X143285714Y-40312914D02*
X143333333Y-40217676D01*
X143333333Y-40217676D02*
X143428571Y-40122438D01*
X143428571Y-40122438D02*
X143571428Y-40074819D01*
X143571428Y-40074819D02*
X143666666Y-40074819D01*
X143666666Y-40074819D02*
X143809523Y-40122438D01*
X143809523Y-40122438D02*
X143857142Y-40170057D01*
X144238095Y-40170057D02*
X144285714Y-40122438D01*
X144285714Y-40122438D02*
X144380952Y-40074819D01*
X144380952Y-40074819D02*
X144619047Y-40074819D01*
X144619047Y-40074819D02*
X144714285Y-40122438D01*
X144714285Y-40122438D02*
X144761904Y-40170057D01*
X144761904Y-40170057D02*
X144809523Y-40265295D01*
X144809523Y-40265295D02*
X144809523Y-40360533D01*
X144809523Y-40360533D02*
X144761904Y-40503390D01*
X144761904Y-40503390D02*
X144190476Y-41074819D01*
X144190476Y-41074819D02*
X144809523Y-41074819D01*
X145428571Y-40074819D02*
X145523809Y-40074819D01*
X145523809Y-40074819D02*
X145619047Y-40122438D01*
X145619047Y-40122438D02*
X145666666Y-40170057D01*
X145666666Y-40170057D02*
X145714285Y-40265295D01*
X145714285Y-40265295D02*
X145761904Y-40455771D01*
X145761904Y-40455771D02*
X145761904Y-40693866D01*
X145761904Y-40693866D02*
X145714285Y-40884342D01*
X145714285Y-40884342D02*
X145666666Y-40979580D01*
X145666666Y-40979580D02*
X145619047Y-41027200D01*
X145619047Y-41027200D02*
X145523809Y-41074819D01*
X145523809Y-41074819D02*
X145428571Y-41074819D01*
X145428571Y-41074819D02*
X145333333Y-41027200D01*
X145333333Y-41027200D02*
X145285714Y-40979580D01*
X145285714Y-40979580D02*
X145238095Y-40884342D01*
X145238095Y-40884342D02*
X145190476Y-40693866D01*
X145190476Y-40693866D02*
X145190476Y-40455771D01*
X145190476Y-40455771D02*
X145238095Y-40265295D01*
X145238095Y-40265295D02*
X145285714Y-40170057D01*
X145285714Y-40170057D02*
X145333333Y-40122438D01*
X145333333Y-40122438D02*
X145428571Y-40074819D01*
X142854819Y-59042857D02*
X142378628Y-59376190D01*
X142854819Y-59614285D02*
X141854819Y-59614285D01*
X141854819Y-59614285D02*
X141854819Y-59233333D01*
X141854819Y-59233333D02*
X141902438Y-59138095D01*
X141902438Y-59138095D02*
X141950057Y-59090476D01*
X141950057Y-59090476D02*
X142045295Y-59042857D01*
X142045295Y-59042857D02*
X142188152Y-59042857D01*
X142188152Y-59042857D02*
X142283390Y-59090476D01*
X142283390Y-59090476D02*
X142331009Y-59138095D01*
X142331009Y-59138095D02*
X142378628Y-59233333D01*
X142378628Y-59233333D02*
X142378628Y-59614285D01*
X141854819Y-58709523D02*
X141854819Y-58090476D01*
X141854819Y-58090476D02*
X142235771Y-58423809D01*
X142235771Y-58423809D02*
X142235771Y-58280952D01*
X142235771Y-58280952D02*
X142283390Y-58185714D01*
X142283390Y-58185714D02*
X142331009Y-58138095D01*
X142331009Y-58138095D02*
X142426247Y-58090476D01*
X142426247Y-58090476D02*
X142664342Y-58090476D01*
X142664342Y-58090476D02*
X142759580Y-58138095D01*
X142759580Y-58138095D02*
X142807200Y-58185714D01*
X142807200Y-58185714D02*
X142854819Y-58280952D01*
X142854819Y-58280952D02*
X142854819Y-58566666D01*
X142854819Y-58566666D02*
X142807200Y-58661904D01*
X142807200Y-58661904D02*
X142759580Y-58709523D01*
X141854819Y-57757142D02*
X141854819Y-57138095D01*
X141854819Y-57138095D02*
X142235771Y-57471428D01*
X142235771Y-57471428D02*
X142235771Y-57328571D01*
X142235771Y-57328571D02*
X142283390Y-57233333D01*
X142283390Y-57233333D02*
X142331009Y-57185714D01*
X142331009Y-57185714D02*
X142426247Y-57138095D01*
X142426247Y-57138095D02*
X142664342Y-57138095D01*
X142664342Y-57138095D02*
X142759580Y-57185714D01*
X142759580Y-57185714D02*
X142807200Y-57233333D01*
X142807200Y-57233333D02*
X142854819Y-57328571D01*
X142854819Y-57328571D02*
X142854819Y-57614285D01*
X142854819Y-57614285D02*
X142807200Y-57709523D01*
X142807200Y-57709523D02*
X142759580Y-57757142D01*
X139757142Y-70054819D02*
X139423809Y-69578628D01*
X139185714Y-70054819D02*
X139185714Y-69054819D01*
X139185714Y-69054819D02*
X139566666Y-69054819D01*
X139566666Y-69054819D02*
X139661904Y-69102438D01*
X139661904Y-69102438D02*
X139709523Y-69150057D01*
X139709523Y-69150057D02*
X139757142Y-69245295D01*
X139757142Y-69245295D02*
X139757142Y-69388152D01*
X139757142Y-69388152D02*
X139709523Y-69483390D01*
X139709523Y-69483390D02*
X139661904Y-69531009D01*
X139661904Y-69531009D02*
X139566666Y-69578628D01*
X139566666Y-69578628D02*
X139185714Y-69578628D01*
X140138095Y-69150057D02*
X140185714Y-69102438D01*
X140185714Y-69102438D02*
X140280952Y-69054819D01*
X140280952Y-69054819D02*
X140519047Y-69054819D01*
X140519047Y-69054819D02*
X140614285Y-69102438D01*
X140614285Y-69102438D02*
X140661904Y-69150057D01*
X140661904Y-69150057D02*
X140709523Y-69245295D01*
X140709523Y-69245295D02*
X140709523Y-69340533D01*
X140709523Y-69340533D02*
X140661904Y-69483390D01*
X140661904Y-69483390D02*
X140090476Y-70054819D01*
X140090476Y-70054819D02*
X140709523Y-70054819D01*
X141280952Y-69483390D02*
X141185714Y-69435771D01*
X141185714Y-69435771D02*
X141138095Y-69388152D01*
X141138095Y-69388152D02*
X141090476Y-69292914D01*
X141090476Y-69292914D02*
X141090476Y-69245295D01*
X141090476Y-69245295D02*
X141138095Y-69150057D01*
X141138095Y-69150057D02*
X141185714Y-69102438D01*
X141185714Y-69102438D02*
X141280952Y-69054819D01*
X141280952Y-69054819D02*
X141471428Y-69054819D01*
X141471428Y-69054819D02*
X141566666Y-69102438D01*
X141566666Y-69102438D02*
X141614285Y-69150057D01*
X141614285Y-69150057D02*
X141661904Y-69245295D01*
X141661904Y-69245295D02*
X141661904Y-69292914D01*
X141661904Y-69292914D02*
X141614285Y-69388152D01*
X141614285Y-69388152D02*
X141566666Y-69435771D01*
X141566666Y-69435771D02*
X141471428Y-69483390D01*
X141471428Y-69483390D02*
X141280952Y-69483390D01*
X141280952Y-69483390D02*
X141185714Y-69531009D01*
X141185714Y-69531009D02*
X141138095Y-69578628D01*
X141138095Y-69578628D02*
X141090476Y-69673866D01*
X141090476Y-69673866D02*
X141090476Y-69864342D01*
X141090476Y-69864342D02*
X141138095Y-69959580D01*
X141138095Y-69959580D02*
X141185714Y-70007200D01*
X141185714Y-70007200D02*
X141280952Y-70054819D01*
X141280952Y-70054819D02*
X141471428Y-70054819D01*
X141471428Y-70054819D02*
X141566666Y-70007200D01*
X141566666Y-70007200D02*
X141614285Y-69959580D01*
X141614285Y-69959580D02*
X141661904Y-69864342D01*
X141661904Y-69864342D02*
X141661904Y-69673866D01*
X141661904Y-69673866D02*
X141614285Y-69578628D01*
X141614285Y-69578628D02*
X141566666Y-69531009D01*
X141566666Y-69531009D02*
X141471428Y-69483390D01*
X118309582Y-38267257D02*
X118357202Y-38314876D01*
X118357202Y-38314876D02*
X118404821Y-38457733D01*
X118404821Y-38457733D02*
X118404821Y-38552971D01*
X118404821Y-38552971D02*
X118357202Y-38695828D01*
X118357202Y-38695828D02*
X118261963Y-38791066D01*
X118261963Y-38791066D02*
X118166725Y-38838685D01*
X118166725Y-38838685D02*
X117976249Y-38886304D01*
X117976249Y-38886304D02*
X117833392Y-38886304D01*
X117833392Y-38886304D02*
X117642916Y-38838685D01*
X117642916Y-38838685D02*
X117547678Y-38791066D01*
X117547678Y-38791066D02*
X117452440Y-38695828D01*
X117452440Y-38695828D02*
X117404821Y-38552971D01*
X117404821Y-38552971D02*
X117404821Y-38457733D01*
X117404821Y-38457733D02*
X117452440Y-38314876D01*
X117452440Y-38314876D02*
X117500059Y-38267257D01*
X117500059Y-37886304D02*
X117452440Y-37838685D01*
X117452440Y-37838685D02*
X117404821Y-37743447D01*
X117404821Y-37743447D02*
X117404821Y-37505352D01*
X117404821Y-37505352D02*
X117452440Y-37410114D01*
X117452440Y-37410114D02*
X117500059Y-37362495D01*
X117500059Y-37362495D02*
X117595297Y-37314876D01*
X117595297Y-37314876D02*
X117690535Y-37314876D01*
X117690535Y-37314876D02*
X117833392Y-37362495D01*
X117833392Y-37362495D02*
X118404821Y-37933923D01*
X118404821Y-37933923D02*
X118404821Y-37314876D01*
X117833392Y-36743447D02*
X117785773Y-36838685D01*
X117785773Y-36838685D02*
X117738154Y-36886304D01*
X117738154Y-36886304D02*
X117642916Y-36933923D01*
X117642916Y-36933923D02*
X117595297Y-36933923D01*
X117595297Y-36933923D02*
X117500059Y-36886304D01*
X117500059Y-36886304D02*
X117452440Y-36838685D01*
X117452440Y-36838685D02*
X117404821Y-36743447D01*
X117404821Y-36743447D02*
X117404821Y-36552971D01*
X117404821Y-36552971D02*
X117452440Y-36457733D01*
X117452440Y-36457733D02*
X117500059Y-36410114D01*
X117500059Y-36410114D02*
X117595297Y-36362495D01*
X117595297Y-36362495D02*
X117642916Y-36362495D01*
X117642916Y-36362495D02*
X117738154Y-36410114D01*
X117738154Y-36410114D02*
X117785773Y-36457733D01*
X117785773Y-36457733D02*
X117833392Y-36552971D01*
X117833392Y-36552971D02*
X117833392Y-36743447D01*
X117833392Y-36743447D02*
X117881011Y-36838685D01*
X117881011Y-36838685D02*
X117928630Y-36886304D01*
X117928630Y-36886304D02*
X118023868Y-36933923D01*
X118023868Y-36933923D02*
X118214344Y-36933923D01*
X118214344Y-36933923D02*
X118309582Y-36886304D01*
X118309582Y-36886304D02*
X118357202Y-36838685D01*
X118357202Y-36838685D02*
X118404821Y-36743447D01*
X118404821Y-36743447D02*
X118404821Y-36552971D01*
X118404821Y-36552971D02*
X118357202Y-36457733D01*
X118357202Y-36457733D02*
X118309582Y-36410114D01*
X118309582Y-36410114D02*
X118214344Y-36362495D01*
X118214344Y-36362495D02*
X118023868Y-36362495D01*
X118023868Y-36362495D02*
X117928630Y-36410114D01*
X117928630Y-36410114D02*
X117881011Y-36457733D01*
X117881011Y-36457733D02*
X117833392Y-36552971D01*
X82884819Y-52751666D02*
X82408628Y-53084999D01*
X82884819Y-53323094D02*
X81884819Y-53323094D01*
X81884819Y-53323094D02*
X81884819Y-52942142D01*
X81884819Y-52942142D02*
X81932438Y-52846904D01*
X81932438Y-52846904D02*
X81980057Y-52799285D01*
X81980057Y-52799285D02*
X82075295Y-52751666D01*
X82075295Y-52751666D02*
X82218152Y-52751666D01*
X82218152Y-52751666D02*
X82313390Y-52799285D01*
X82313390Y-52799285D02*
X82361009Y-52846904D01*
X82361009Y-52846904D02*
X82408628Y-52942142D01*
X82408628Y-52942142D02*
X82408628Y-53323094D01*
X81884819Y-51846904D02*
X81884819Y-52323094D01*
X81884819Y-52323094D02*
X82361009Y-52370713D01*
X82361009Y-52370713D02*
X82313390Y-52323094D01*
X82313390Y-52323094D02*
X82265771Y-52227856D01*
X82265771Y-52227856D02*
X82265771Y-51989761D01*
X82265771Y-51989761D02*
X82313390Y-51894523D01*
X82313390Y-51894523D02*
X82361009Y-51846904D01*
X82361009Y-51846904D02*
X82456247Y-51799285D01*
X82456247Y-51799285D02*
X82694342Y-51799285D01*
X82694342Y-51799285D02*
X82789580Y-51846904D01*
X82789580Y-51846904D02*
X82837200Y-51894523D01*
X82837200Y-51894523D02*
X82884819Y-51989761D01*
X82884819Y-51989761D02*
X82884819Y-52227856D01*
X82884819Y-52227856D02*
X82837200Y-52323094D01*
X82837200Y-52323094D02*
X82789580Y-52370713D01*
X140916819Y-41282857D02*
X140440628Y-41616190D01*
X140916819Y-41854285D02*
X139916819Y-41854285D01*
X139916819Y-41854285D02*
X139916819Y-41473333D01*
X139916819Y-41473333D02*
X139964438Y-41378095D01*
X139964438Y-41378095D02*
X140012057Y-41330476D01*
X140012057Y-41330476D02*
X140107295Y-41282857D01*
X140107295Y-41282857D02*
X140250152Y-41282857D01*
X140250152Y-41282857D02*
X140345390Y-41330476D01*
X140345390Y-41330476D02*
X140393009Y-41378095D01*
X140393009Y-41378095D02*
X140440628Y-41473333D01*
X140440628Y-41473333D02*
X140440628Y-41854285D01*
X140012057Y-40901904D02*
X139964438Y-40854285D01*
X139964438Y-40854285D02*
X139916819Y-40759047D01*
X139916819Y-40759047D02*
X139916819Y-40520952D01*
X139916819Y-40520952D02*
X139964438Y-40425714D01*
X139964438Y-40425714D02*
X140012057Y-40378095D01*
X140012057Y-40378095D02*
X140107295Y-40330476D01*
X140107295Y-40330476D02*
X140202533Y-40330476D01*
X140202533Y-40330476D02*
X140345390Y-40378095D01*
X140345390Y-40378095D02*
X140916819Y-40949523D01*
X140916819Y-40949523D02*
X140916819Y-40330476D01*
X140916819Y-39378095D02*
X140916819Y-39949523D01*
X140916819Y-39663809D02*
X139916819Y-39663809D01*
X139916819Y-39663809D02*
X140059676Y-39759047D01*
X140059676Y-39759047D02*
X140154914Y-39854285D01*
X140154914Y-39854285D02*
X140202533Y-39949523D01*
X111459580Y-77142857D02*
X111507200Y-77190476D01*
X111507200Y-77190476D02*
X111554819Y-77333333D01*
X111554819Y-77333333D02*
X111554819Y-77428571D01*
X111554819Y-77428571D02*
X111507200Y-77571428D01*
X111507200Y-77571428D02*
X111411961Y-77666666D01*
X111411961Y-77666666D02*
X111316723Y-77714285D01*
X111316723Y-77714285D02*
X111126247Y-77761904D01*
X111126247Y-77761904D02*
X110983390Y-77761904D01*
X110983390Y-77761904D02*
X110792914Y-77714285D01*
X110792914Y-77714285D02*
X110697676Y-77666666D01*
X110697676Y-77666666D02*
X110602438Y-77571428D01*
X110602438Y-77571428D02*
X110554819Y-77428571D01*
X110554819Y-77428571D02*
X110554819Y-77333333D01*
X110554819Y-77333333D02*
X110602438Y-77190476D01*
X110602438Y-77190476D02*
X110650057Y-77142857D01*
X110554819Y-76809523D02*
X110554819Y-76190476D01*
X110554819Y-76190476D02*
X110935771Y-76523809D01*
X110935771Y-76523809D02*
X110935771Y-76380952D01*
X110935771Y-76380952D02*
X110983390Y-76285714D01*
X110983390Y-76285714D02*
X111031009Y-76238095D01*
X111031009Y-76238095D02*
X111126247Y-76190476D01*
X111126247Y-76190476D02*
X111364342Y-76190476D01*
X111364342Y-76190476D02*
X111459580Y-76238095D01*
X111459580Y-76238095D02*
X111507200Y-76285714D01*
X111507200Y-76285714D02*
X111554819Y-76380952D01*
X111554819Y-76380952D02*
X111554819Y-76666666D01*
X111554819Y-76666666D02*
X111507200Y-76761904D01*
X111507200Y-76761904D02*
X111459580Y-76809523D01*
X111554819Y-75238095D02*
X111554819Y-75809523D01*
X111554819Y-75523809D02*
X110554819Y-75523809D01*
X110554819Y-75523809D02*
X110697676Y-75619047D01*
X110697676Y-75619047D02*
X110792914Y-75714285D01*
X110792914Y-75714285D02*
X110840533Y-75809523D01*
X95557142Y-41959580D02*
X95509523Y-42007200D01*
X95509523Y-42007200D02*
X95366666Y-42054819D01*
X95366666Y-42054819D02*
X95271428Y-42054819D01*
X95271428Y-42054819D02*
X95128571Y-42007200D01*
X95128571Y-42007200D02*
X95033333Y-41911961D01*
X95033333Y-41911961D02*
X94985714Y-41816723D01*
X94985714Y-41816723D02*
X94938095Y-41626247D01*
X94938095Y-41626247D02*
X94938095Y-41483390D01*
X94938095Y-41483390D02*
X94985714Y-41292914D01*
X94985714Y-41292914D02*
X95033333Y-41197676D01*
X95033333Y-41197676D02*
X95128571Y-41102438D01*
X95128571Y-41102438D02*
X95271428Y-41054819D01*
X95271428Y-41054819D02*
X95366666Y-41054819D01*
X95366666Y-41054819D02*
X95509523Y-41102438D01*
X95509523Y-41102438D02*
X95557142Y-41150057D01*
X95890476Y-41054819D02*
X96509523Y-41054819D01*
X96509523Y-41054819D02*
X96176190Y-41435771D01*
X96176190Y-41435771D02*
X96319047Y-41435771D01*
X96319047Y-41435771D02*
X96414285Y-41483390D01*
X96414285Y-41483390D02*
X96461904Y-41531009D01*
X96461904Y-41531009D02*
X96509523Y-41626247D01*
X96509523Y-41626247D02*
X96509523Y-41864342D01*
X96509523Y-41864342D02*
X96461904Y-41959580D01*
X96461904Y-41959580D02*
X96414285Y-42007200D01*
X96414285Y-42007200D02*
X96319047Y-42054819D01*
X96319047Y-42054819D02*
X96033333Y-42054819D01*
X96033333Y-42054819D02*
X95938095Y-42007200D01*
X95938095Y-42007200D02*
X95890476Y-41959580D01*
X96842857Y-41054819D02*
X97461904Y-41054819D01*
X97461904Y-41054819D02*
X97128571Y-41435771D01*
X97128571Y-41435771D02*
X97271428Y-41435771D01*
X97271428Y-41435771D02*
X97366666Y-41483390D01*
X97366666Y-41483390D02*
X97414285Y-41531009D01*
X97414285Y-41531009D02*
X97461904Y-41626247D01*
X97461904Y-41626247D02*
X97461904Y-41864342D01*
X97461904Y-41864342D02*
X97414285Y-41959580D01*
X97414285Y-41959580D02*
X97366666Y-42007200D01*
X97366666Y-42007200D02*
X97271428Y-42054819D01*
X97271428Y-42054819D02*
X96985714Y-42054819D01*
X96985714Y-42054819D02*
X96890476Y-42007200D01*
X96890476Y-42007200D02*
X96842857Y-41959580D01*
X145557142Y-61654819D02*
X145223809Y-61178628D01*
X144985714Y-61654819D02*
X144985714Y-60654819D01*
X144985714Y-60654819D02*
X145366666Y-60654819D01*
X145366666Y-60654819D02*
X145461904Y-60702438D01*
X145461904Y-60702438D02*
X145509523Y-60750057D01*
X145509523Y-60750057D02*
X145557142Y-60845295D01*
X145557142Y-60845295D02*
X145557142Y-60988152D01*
X145557142Y-60988152D02*
X145509523Y-61083390D01*
X145509523Y-61083390D02*
X145461904Y-61131009D01*
X145461904Y-61131009D02*
X145366666Y-61178628D01*
X145366666Y-61178628D02*
X144985714Y-61178628D01*
X145890476Y-60654819D02*
X146509523Y-60654819D01*
X146509523Y-60654819D02*
X146176190Y-61035771D01*
X146176190Y-61035771D02*
X146319047Y-61035771D01*
X146319047Y-61035771D02*
X146414285Y-61083390D01*
X146414285Y-61083390D02*
X146461904Y-61131009D01*
X146461904Y-61131009D02*
X146509523Y-61226247D01*
X146509523Y-61226247D02*
X146509523Y-61464342D01*
X146509523Y-61464342D02*
X146461904Y-61559580D01*
X146461904Y-61559580D02*
X146414285Y-61607200D01*
X146414285Y-61607200D02*
X146319047Y-61654819D01*
X146319047Y-61654819D02*
X146033333Y-61654819D01*
X146033333Y-61654819D02*
X145938095Y-61607200D01*
X145938095Y-61607200D02*
X145890476Y-61559580D01*
X147366666Y-60988152D02*
X147366666Y-61654819D01*
X147128571Y-60607200D02*
X146890476Y-61321485D01*
X146890476Y-61321485D02*
X147509523Y-61321485D01*
X140204761Y-65350057D02*
X140109523Y-65302438D01*
X140109523Y-65302438D02*
X140014285Y-65207200D01*
X140014285Y-65207200D02*
X139871428Y-65064342D01*
X139871428Y-65064342D02*
X139776190Y-65016723D01*
X139776190Y-65016723D02*
X139680952Y-65016723D01*
X139728571Y-65254819D02*
X139633333Y-65207200D01*
X139633333Y-65207200D02*
X139538095Y-65111961D01*
X139538095Y-65111961D02*
X139490476Y-64921485D01*
X139490476Y-64921485D02*
X139490476Y-64588152D01*
X139490476Y-64588152D02*
X139538095Y-64397676D01*
X139538095Y-64397676D02*
X139633333Y-64302438D01*
X139633333Y-64302438D02*
X139728571Y-64254819D01*
X139728571Y-64254819D02*
X139919047Y-64254819D01*
X139919047Y-64254819D02*
X140014285Y-64302438D01*
X140014285Y-64302438D02*
X140109523Y-64397676D01*
X140109523Y-64397676D02*
X140157142Y-64588152D01*
X140157142Y-64588152D02*
X140157142Y-64921485D01*
X140157142Y-64921485D02*
X140109523Y-65111961D01*
X140109523Y-65111961D02*
X140014285Y-65207200D01*
X140014285Y-65207200D02*
X139919047Y-65254819D01*
X139919047Y-65254819D02*
X139728571Y-65254819D01*
X140490476Y-64254819D02*
X141157142Y-64254819D01*
X141157142Y-64254819D02*
X140728571Y-65254819D01*
X134779580Y-47942857D02*
X134827200Y-47990476D01*
X134827200Y-47990476D02*
X134874819Y-48133333D01*
X134874819Y-48133333D02*
X134874819Y-48228571D01*
X134874819Y-48228571D02*
X134827200Y-48371428D01*
X134827200Y-48371428D02*
X134731961Y-48466666D01*
X134731961Y-48466666D02*
X134636723Y-48514285D01*
X134636723Y-48514285D02*
X134446247Y-48561904D01*
X134446247Y-48561904D02*
X134303390Y-48561904D01*
X134303390Y-48561904D02*
X134112914Y-48514285D01*
X134112914Y-48514285D02*
X134017676Y-48466666D01*
X134017676Y-48466666D02*
X133922438Y-48371428D01*
X133922438Y-48371428D02*
X133874819Y-48228571D01*
X133874819Y-48228571D02*
X133874819Y-48133333D01*
X133874819Y-48133333D02*
X133922438Y-47990476D01*
X133922438Y-47990476D02*
X133970057Y-47942857D01*
X134874819Y-46990476D02*
X134874819Y-47561904D01*
X134874819Y-47276190D02*
X133874819Y-47276190D01*
X133874819Y-47276190D02*
X134017676Y-47371428D01*
X134017676Y-47371428D02*
X134112914Y-47466666D01*
X134112914Y-47466666D02*
X134160533Y-47561904D01*
X134874819Y-46514285D02*
X134874819Y-46323809D01*
X134874819Y-46323809D02*
X134827200Y-46228571D01*
X134827200Y-46228571D02*
X134779580Y-46180952D01*
X134779580Y-46180952D02*
X134636723Y-46085714D01*
X134636723Y-46085714D02*
X134446247Y-46038095D01*
X134446247Y-46038095D02*
X134065295Y-46038095D01*
X134065295Y-46038095D02*
X133970057Y-46085714D01*
X133970057Y-46085714D02*
X133922438Y-46133333D01*
X133922438Y-46133333D02*
X133874819Y-46228571D01*
X133874819Y-46228571D02*
X133874819Y-46419047D01*
X133874819Y-46419047D02*
X133922438Y-46514285D01*
X133922438Y-46514285D02*
X133970057Y-46561904D01*
X133970057Y-46561904D02*
X134065295Y-46609523D01*
X134065295Y-46609523D02*
X134303390Y-46609523D01*
X134303390Y-46609523D02*
X134398628Y-46561904D01*
X134398628Y-46561904D02*
X134446247Y-46514285D01*
X134446247Y-46514285D02*
X134493866Y-46419047D01*
X134493866Y-46419047D02*
X134493866Y-46228571D01*
X134493866Y-46228571D02*
X134446247Y-46133333D01*
X134446247Y-46133333D02*
X134398628Y-46085714D01*
X134398628Y-46085714D02*
X134303390Y-46038095D01*
X147654819Y-52542857D02*
X147178628Y-52876190D01*
X147654819Y-53114285D02*
X146654819Y-53114285D01*
X146654819Y-53114285D02*
X146654819Y-52733333D01*
X146654819Y-52733333D02*
X146702438Y-52638095D01*
X146702438Y-52638095D02*
X146750057Y-52590476D01*
X146750057Y-52590476D02*
X146845295Y-52542857D01*
X146845295Y-52542857D02*
X146988152Y-52542857D01*
X146988152Y-52542857D02*
X147083390Y-52590476D01*
X147083390Y-52590476D02*
X147131009Y-52638095D01*
X147131009Y-52638095D02*
X147178628Y-52733333D01*
X147178628Y-52733333D02*
X147178628Y-53114285D01*
X147654819Y-51590476D02*
X147654819Y-52161904D01*
X147654819Y-51876190D02*
X146654819Y-51876190D01*
X146654819Y-51876190D02*
X146797676Y-51971428D01*
X146797676Y-51971428D02*
X146892914Y-52066666D01*
X146892914Y-52066666D02*
X146940533Y-52161904D01*
X146654819Y-51257142D02*
X146654819Y-50590476D01*
X146654819Y-50590476D02*
X147654819Y-51019047D01*
X143054819Y-63242857D02*
X142578628Y-63576190D01*
X143054819Y-63814285D02*
X142054819Y-63814285D01*
X142054819Y-63814285D02*
X142054819Y-63433333D01*
X142054819Y-63433333D02*
X142102438Y-63338095D01*
X142102438Y-63338095D02*
X142150057Y-63290476D01*
X142150057Y-63290476D02*
X142245295Y-63242857D01*
X142245295Y-63242857D02*
X142388152Y-63242857D01*
X142388152Y-63242857D02*
X142483390Y-63290476D01*
X142483390Y-63290476D02*
X142531009Y-63338095D01*
X142531009Y-63338095D02*
X142578628Y-63433333D01*
X142578628Y-63433333D02*
X142578628Y-63814285D01*
X142150057Y-62861904D02*
X142102438Y-62814285D01*
X142102438Y-62814285D02*
X142054819Y-62719047D01*
X142054819Y-62719047D02*
X142054819Y-62480952D01*
X142054819Y-62480952D02*
X142102438Y-62385714D01*
X142102438Y-62385714D02*
X142150057Y-62338095D01*
X142150057Y-62338095D02*
X142245295Y-62290476D01*
X142245295Y-62290476D02*
X142340533Y-62290476D01*
X142340533Y-62290476D02*
X142483390Y-62338095D01*
X142483390Y-62338095D02*
X143054819Y-62909523D01*
X143054819Y-62909523D02*
X143054819Y-62290476D01*
X143054819Y-61814285D02*
X143054819Y-61623809D01*
X143054819Y-61623809D02*
X143007200Y-61528571D01*
X143007200Y-61528571D02*
X142959580Y-61480952D01*
X142959580Y-61480952D02*
X142816723Y-61385714D01*
X142816723Y-61385714D02*
X142626247Y-61338095D01*
X142626247Y-61338095D02*
X142245295Y-61338095D01*
X142245295Y-61338095D02*
X142150057Y-61385714D01*
X142150057Y-61385714D02*
X142102438Y-61433333D01*
X142102438Y-61433333D02*
X142054819Y-61528571D01*
X142054819Y-61528571D02*
X142054819Y-61719047D01*
X142054819Y-61719047D02*
X142102438Y-61814285D01*
X142102438Y-61814285D02*
X142150057Y-61861904D01*
X142150057Y-61861904D02*
X142245295Y-61909523D01*
X142245295Y-61909523D02*
X142483390Y-61909523D01*
X142483390Y-61909523D02*
X142578628Y-61861904D01*
X142578628Y-61861904D02*
X142626247Y-61814285D01*
X142626247Y-61814285D02*
X142673866Y-61719047D01*
X142673866Y-61719047D02*
X142673866Y-61528571D01*
X142673866Y-61528571D02*
X142626247Y-61433333D01*
X142626247Y-61433333D02*
X142578628Y-61385714D01*
X142578628Y-61385714D02*
X142483390Y-61338095D01*
D13*
%TO.C,IC1*%
X143000000Y-45062000D02*
X143275000Y-45062000D01*
X143000000Y-45349000D02*
X143000000Y-45062000D01*
X143750000Y-47562000D02*
X143000000Y-47562000D01*
D12*
X145200000Y-44112000D02*
X145200000Y-44112000D01*
X145400000Y-44112000D02*
X145400000Y-44112000D01*
D13*
X145500000Y-45062000D02*
X146000000Y-45062000D01*
X146000000Y-45062000D02*
X146000000Y-45312000D01*
X146000000Y-47562000D02*
X145250000Y-47562000D01*
D12*
X145200000Y-44112000D02*
G75*
G02*
X145400000Y-44112000I100000J0D01*
G01*
X145400000Y-44112000D02*
G75*
G02*
X145200000Y-44112000I-100000J0D01*
G01*
D14*
%TO.C,R8*%
X130977500Y-51245276D02*
X130977500Y-51754724D01*
X132022500Y-51245276D02*
X132022500Y-51754724D01*
%TO.C,RN8*%
X124000000Y-69920000D02*
X125000000Y-69920000D01*
X124000000Y-73280000D02*
X125000000Y-73280000D01*
%TO.C,U2*%
X96840000Y-72040000D02*
X96840000Y-72310000D01*
X96840000Y-77560000D02*
X96840000Y-77290000D01*
X99600000Y-72040000D02*
X96840000Y-72040000D01*
X99600000Y-72040000D02*
X102360000Y-72040000D01*
X99600000Y-77560000D02*
X96840000Y-77560000D01*
X99600000Y-77560000D02*
X102360000Y-77560000D01*
X102360000Y-72040000D02*
X102360000Y-72310000D01*
X102360000Y-77560000D02*
X102360000Y-77290000D01*
X103365000Y-77620000D02*
X102885000Y-77620000D01*
X103125000Y-77290000D01*
X103365000Y-77620000D01*
G36*
X103365000Y-77620000D02*
G01*
X102885000Y-77620000D01*
X103125000Y-77290000D01*
X103365000Y-77620000D01*
G37*
D15*
%TO.C,U4*%
X106451494Y-37508770D02*
X105980660Y-37979605D01*
X107920395Y-39919340D02*
X108391230Y-39448506D01*
X108279605Y-35680660D02*
X107808770Y-36151494D01*
X109748506Y-38091230D02*
X110219340Y-37620395D01*
D16*
G36*
X106956679Y-39566282D02*
G01*
X106777074Y-39745887D01*
X106507666Y-39476479D01*
X106687271Y-39296874D01*
X106956679Y-39566282D01*
G37*
D14*
%TO.C,Q3*%
X92240000Y-66040000D02*
X93760000Y-66040000D01*
X92240000Y-66090000D02*
X92240000Y-66040000D01*
X92240000Y-67990000D02*
X92240000Y-67210000D01*
X92240000Y-69160000D02*
X92240000Y-69110000D01*
X93760000Y-66040000D02*
X93760000Y-67040000D01*
X93760000Y-68160000D02*
X93760000Y-69160000D01*
X93760000Y-69160000D02*
X92240000Y-69160000D01*
X91940000Y-67550000D02*
X91460000Y-67550000D01*
X91700000Y-67220000D01*
X91940000Y-67550000D01*
G36*
X91940000Y-67550000D02*
G01*
X91460000Y-67550000D01*
X91700000Y-67220000D01*
X91940000Y-67550000D01*
G37*
D13*
%TO.C,Y1*%
X105050000Y-46400000D02*
X105050000Y-46400000D01*
X105050000Y-46500000D02*
X105050000Y-46500000D01*
D12*
X106000000Y-43350000D02*
X106400000Y-43350000D01*
X106000000Y-45850000D02*
X106400000Y-45850000D01*
D13*
X105050000Y-46400000D02*
G75*
G02*
X105050000Y-46500000I0J-50000D01*
G01*
X105050000Y-46500000D02*
G75*
G02*
X105050000Y-46400000I0J50000D01*
G01*
D14*
%TO.C,R10*%
X86977500Y-65745276D02*
X86977500Y-66254724D01*
X88022500Y-65745276D02*
X88022500Y-66254724D01*
%TO.C,J9*%
X151540000Y-44580000D02*
X152920000Y-44580000D01*
X151540000Y-45960000D02*
X151540000Y-44580000D01*
X151540000Y-47230000D02*
X151540000Y-52420000D01*
X151540000Y-47230000D02*
X154190000Y-47230000D01*
X151540000Y-52420000D02*
X156840000Y-52420000D01*
X154190000Y-44580000D02*
X156840000Y-44580000D01*
X154190000Y-47230000D02*
X154190000Y-44580000D01*
X156840000Y-44580000D02*
X156840000Y-52420000D01*
%TO.C,C27*%
X122378732Y-34234300D02*
X122671266Y-34234300D01*
X122378732Y-35254300D02*
X122671266Y-35254300D01*
%TO.C,R45*%
X81854724Y-46377500D02*
X81345276Y-46377500D01*
X81854724Y-47422500D02*
X81345276Y-47422500D01*
%TO.C,C38*%
X114341233Y-35265000D02*
X114633767Y-35265000D01*
X114341233Y-36285000D02*
X114633767Y-36285000D01*
%TO.C,C35*%
X100527500Y-37203733D02*
X100527500Y-37496267D01*
X101547500Y-37203733D02*
X101547500Y-37496267D01*
%TO.C,C16*%
X109290000Y-44683767D02*
X109290000Y-44391233D01*
X110310000Y-44683767D02*
X110310000Y-44391233D01*
%TO.C,R9*%
X126432776Y-63577500D02*
X126942224Y-63577500D01*
X126432776Y-64622500D02*
X126942224Y-64622500D01*
%TO.C,RN10*%
X76752500Y-56120000D02*
X77752500Y-56120000D01*
X76752500Y-59480000D02*
X77752500Y-59480000D01*
D16*
%TO.C,G\u002A\u002A\u002A*%
G36*
X92503507Y-46549995D02*
G01*
X92461731Y-46591771D01*
X92419954Y-46549995D01*
X92461731Y-46508218D01*
X92503507Y-46549995D01*
G37*
G36*
X92057847Y-47472422D02*
G01*
X92070667Y-47615291D01*
X91987656Y-47772512D01*
X91878006Y-47803284D01*
X91735188Y-47741861D01*
X91674697Y-47607348D01*
X91720794Y-47485888D01*
X91845940Y-47436114D01*
X91938375Y-47427297D01*
X92057847Y-47472422D01*
G37*
G36*
X92976926Y-48475053D02*
G01*
X92989746Y-48617922D01*
X92906734Y-48775144D01*
X92797085Y-48805916D01*
X92654267Y-48744492D01*
X92593776Y-48609980D01*
X92639873Y-48488519D01*
X92765019Y-48438746D01*
X92857454Y-48429929D01*
X92976926Y-48475053D01*
G37*
G36*
X93603892Y-47608603D02*
G01*
X93765946Y-47689850D01*
X93798573Y-47803284D01*
X93744886Y-47941284D01*
X93625093Y-47976586D01*
X93501095Y-47913908D01*
X93436786Y-47775709D01*
X93443280Y-47632454D01*
X93551869Y-47602737D01*
X93603892Y-47608603D01*
G37*
G36*
X93938102Y-46438866D02*
G01*
X94100157Y-46520113D01*
X94132783Y-46633547D01*
X94079096Y-46771547D01*
X93959304Y-46806849D01*
X93835306Y-46744171D01*
X93770997Y-46605972D01*
X93777491Y-46462717D01*
X93886080Y-46433000D01*
X93938102Y-46438866D01*
G37*
G36*
X92937981Y-46658613D02*
G01*
X92991600Y-46800818D01*
X92935125Y-46937927D01*
X92803783Y-46996911D01*
X92776265Y-46993862D01*
X92642985Y-46907631D01*
X92604207Y-46766041D01*
X92672728Y-46642913D01*
X92711830Y-46622200D01*
X92875096Y-46621237D01*
X92937981Y-46658613D01*
G37*
G36*
X94049254Y-45034757D02*
G01*
X94107717Y-45071113D01*
X94162554Y-45216888D01*
X94094607Y-45355598D01*
X93937669Y-45421797D01*
X93926524Y-45422034D01*
X93796223Y-45360966D01*
X93754422Y-45225379D01*
X93808227Y-45086698D01*
X93887741Y-45032331D01*
X94049254Y-45034757D01*
G37*
G36*
X92239317Y-47039740D02*
G01*
X92515029Y-47124854D01*
X92547578Y-47144050D01*
X92747279Y-47225928D01*
X92899737Y-47223805D01*
X92886875Y-47263442D01*
X92769714Y-47404746D01*
X92562816Y-47631924D01*
X92280742Y-47929184D01*
X91938055Y-48280735D01*
X91752544Y-48467907D01*
X91372874Y-48846545D01*
X91032134Y-49181712D01*
X90748032Y-49456370D01*
X90538274Y-49653482D01*
X90420568Y-49756008D01*
X90402668Y-49766771D01*
X90333208Y-49691848D01*
X90253842Y-49498468D01*
X90177481Y-49233714D01*
X90117039Y-48944669D01*
X90085426Y-48678415D01*
X90083526Y-48603038D01*
X90102322Y-48347622D01*
X90180055Y-48178631D01*
X90356514Y-48016484D01*
X90389414Y-47991278D01*
X90729144Y-47815537D01*
X91099091Y-47755870D01*
X91445769Y-47815316D01*
X91634907Y-47920531D01*
X91876997Y-48031774D01*
X92101217Y-47995873D01*
X92260124Y-47831468D01*
X92305887Y-47589706D01*
X92210725Y-47365393D01*
X92076929Y-47255475D01*
X91896862Y-47210034D01*
X91713892Y-47231457D01*
X91597123Y-47306569D01*
X91584428Y-47349375D01*
X91510711Y-47399890D01*
X91328372Y-47426217D01*
X91277429Y-47427297D01*
X90970431Y-47427297D01*
X91166665Y-47218416D01*
X91309518Y-47095496D01*
X91479369Y-47032282D01*
X91735752Y-47010642D01*
X91852590Y-47009534D01*
X92239317Y-47039740D01*
G37*
G36*
X92252554Y-40941830D02*
G01*
X92645119Y-41148079D01*
X92982029Y-41481833D01*
X93188947Y-41830945D01*
X93312875Y-42061338D01*
X93429120Y-42212439D01*
X93488090Y-42247034D01*
X93679538Y-42297576D01*
X93937990Y-42427068D01*
X94206568Y-42602309D01*
X94428395Y-42790101D01*
X94441180Y-42803363D01*
X94759919Y-43257400D01*
X94953093Y-43799175D01*
X95008251Y-44302012D01*
X95023540Y-44623296D01*
X95074289Y-44826234D01*
X95169465Y-44955503D01*
X95338465Y-45178179D01*
X95501878Y-45512261D01*
X95637229Y-45902904D01*
X95722047Y-46295263D01*
X95723827Y-46308376D01*
X95724018Y-46810909D01*
X95614458Y-47354026D01*
X95412921Y-47870323D01*
X95232556Y-48171485D01*
X94878113Y-48557051D01*
X94447753Y-48857657D01*
X93991039Y-49041970D01*
X93799213Y-49077631D01*
X93581969Y-49110799D01*
X93443199Y-49175420D01*
X93335119Y-49311287D01*
X93209948Y-49558192D01*
X93202006Y-49574966D01*
X92917916Y-50014001D01*
X92545498Y-50342624D01*
X92114732Y-50536228D01*
X92001009Y-50560721D01*
X91754486Y-50575651D01*
X91499685Y-50521936D01*
X91200192Y-50400387D01*
X90990654Y-50304307D01*
X90859850Y-50225457D01*
X90813877Y-50138858D01*
X90858832Y-50019528D01*
X91000813Y-49842488D01*
X91245916Y-49582756D01*
X91451707Y-49369896D01*
X91776892Y-49062751D01*
X92042334Y-48888803D01*
X92274413Y-48838044D01*
X92499504Y-48900465D01*
X92575583Y-48943468D01*
X92788053Y-49000334D01*
X93013330Y-48956681D01*
X93179634Y-48832376D01*
X93212764Y-48767101D01*
X93210463Y-48529539D01*
X93079121Y-48323454D01*
X92877659Y-48213121D01*
X92740511Y-48150336D01*
X92717897Y-48086806D01*
X92846415Y-48020893D01*
X93065627Y-48026865D01*
X93317356Y-48100711D01*
X93385438Y-48132846D01*
X93652499Y-48199035D01*
X93874637Y-48106661D01*
X93995666Y-47947586D01*
X94029610Y-47740004D01*
X93949022Y-47543899D01*
X93793168Y-47401955D01*
X93601316Y-47356851D01*
X93485998Y-47393601D01*
X93465052Y-47381740D01*
X93543001Y-47277248D01*
X93580948Y-47234464D01*
X93731037Y-47100615D01*
X93841712Y-47055274D01*
X93853242Y-47059279D01*
X94025750Y-47086709D01*
X94187906Y-46991185D01*
X94307298Y-46815394D01*
X94351514Y-46602024D01*
X94317843Y-46447392D01*
X94162856Y-46263349D01*
X93955079Y-46203877D01*
X93745403Y-46262497D01*
X93584718Y-46432730D01*
X93541387Y-46546257D01*
X93437417Y-46765383D01*
X93337330Y-46885747D01*
X93227042Y-46976475D01*
X93207199Y-46943895D01*
X93227240Y-46857845D01*
X93203852Y-46663443D01*
X93071635Y-46488982D01*
X92884301Y-46386242D01*
X92739428Y-46387567D01*
X92618252Y-46403562D01*
X92623304Y-46350065D01*
X92739714Y-46285058D01*
X92940326Y-46257566D01*
X92943111Y-46257561D01*
X93213962Y-46190935D01*
X93481703Y-45990095D01*
X93714542Y-45801913D01*
X93957405Y-45660035D01*
X94020156Y-45634997D01*
X94267802Y-45493507D01*
X94368668Y-45299215D01*
X94314966Y-45078460D01*
X94220134Y-44958697D01*
X93995995Y-44819233D01*
X93784133Y-44838429D01*
X93611165Y-45008458D01*
X93544222Y-45157473D01*
X93389754Y-45467676D01*
X93174108Y-45708458D01*
X92934892Y-45845478D01*
X92773503Y-45861254D01*
X92605432Y-45870306D01*
X92432684Y-45966232D01*
X92215004Y-46168386D01*
X91985100Y-46379144D01*
X91792004Y-46482140D01*
X91590324Y-46508218D01*
X91437937Y-46523660D01*
X91289546Y-46584420D01*
X91112794Y-46712151D01*
X90875324Y-46928505D01*
X90688202Y-47111884D01*
X90080481Y-47715549D01*
X90089033Y-45085733D01*
X90093050Y-44427490D01*
X90100359Y-43813464D01*
X90110418Y-43266209D01*
X90122680Y-42808274D01*
X90136601Y-42462212D01*
X90151637Y-42250574D01*
X90158608Y-42205258D01*
X90348777Y-41712731D01*
X90636528Y-41328780D01*
X90996320Y-41056560D01*
X91402615Y-40899225D01*
X91829873Y-40859930D01*
X92252554Y-40941830D01*
G37*
D14*
%TO.C,C2*%
X102946267Y-64277500D02*
X102653733Y-64277500D01*
X102946267Y-65297500D02*
X102653733Y-65297500D01*
%TO.C,R19*%
X135377500Y-59454724D02*
X135377500Y-58945276D01*
X136422500Y-59454724D02*
X136422500Y-58945276D01*
%TO.C,Q5*%
X137185000Y-57914000D02*
X138185000Y-57914000D01*
X137185000Y-59434000D02*
X137185000Y-57914000D01*
X137235000Y-59434000D02*
X137185000Y-59434000D01*
X139135000Y-59434000D02*
X138355000Y-59434000D01*
X139305000Y-57914000D02*
X140305000Y-57914000D01*
X140305000Y-57914000D02*
X140305000Y-59434000D01*
X140305000Y-59434000D02*
X140255000Y-59434000D01*
X138695000Y-60214000D02*
X138365000Y-59974000D01*
X138695000Y-59734000D01*
X138695000Y-60214000D01*
G36*
X138695000Y-60214000D02*
G01*
X138365000Y-59974000D01*
X138695000Y-59734000D01*
X138695000Y-60214000D01*
G37*
%TO.C,RN6*%
X113200000Y-70120000D02*
X114200000Y-70120000D01*
X113200000Y-73480000D02*
X114200000Y-73480000D01*
%TO.C,R15*%
X146049276Y-62469500D02*
X146558724Y-62469500D01*
X146049276Y-63514500D02*
X146558724Y-63514500D01*
D10*
%TO.C,Q11*%
X145558000Y-65518000D02*
X147558000Y-65518000D01*
X145558000Y-65558000D02*
X145558000Y-65518000D01*
X145558000Y-67618000D02*
X145558000Y-67568000D01*
X147558000Y-65558000D02*
X147558000Y-65518000D01*
X147558000Y-67618000D02*
X145558000Y-67618000D01*
X147558000Y-67618000D02*
X147558000Y-67568000D01*
X147938000Y-67668000D02*
G75*
G02*
X147778000Y-67668000I-80000J0D01*
G01*
X147778000Y-67668000D02*
G75*
G02*
X147938000Y-67668000I80000J0D01*
G01*
D14*
%TO.C,C3*%
X97653733Y-63190000D02*
X97946267Y-63190000D01*
X97653733Y-64210000D02*
X97946267Y-64210000D01*
%TO.C,R32*%
X141717500Y-55753724D02*
X141717500Y-55244276D01*
X142762500Y-55753724D02*
X142762500Y-55244276D01*
%TO.C,C1*%
X102933767Y-65790000D02*
X102641233Y-65790000D01*
X102933767Y-66810000D02*
X102641233Y-66810000D01*
%TO.C,U7*%
X134440000Y-50440000D02*
X138560000Y-50440000D01*
X134440000Y-50535000D02*
X134440000Y-50440000D01*
X134440000Y-55560000D02*
X134440000Y-55465000D01*
X138560000Y-50440000D02*
X138560000Y-50535000D01*
X138560000Y-55465000D02*
X138560000Y-55560000D01*
X138560000Y-55560000D02*
X134440000Y-55560000D01*
X133900000Y-50530000D02*
X133660000Y-50200000D01*
X134140000Y-50200000D01*
X133900000Y-50530000D01*
G36*
X133900000Y-50530000D02*
G01*
X133660000Y-50200000D01*
X134140000Y-50200000D01*
X133900000Y-50530000D01*
G37*
D10*
%TO.C,Q4*%
X129920000Y-53460000D02*
X131680000Y-53460000D01*
X129920000Y-55460000D02*
X129920000Y-54540000D01*
X129920000Y-56540000D02*
X131680000Y-56540000D01*
X131680000Y-53460000D02*
X131680000Y-54510000D01*
X131680000Y-56540000D02*
X131680000Y-55490000D01*
D14*
%TO.C,R30*%
X138937276Y-65644500D02*
X139446724Y-65644500D01*
X138937276Y-66689500D02*
X139446724Y-66689500D01*
D10*
%TO.C,Q10*%
X145542000Y-75008000D02*
X147542000Y-75008000D01*
X145542000Y-75048000D02*
X145542000Y-75008000D01*
X145542000Y-77108000D02*
X145542000Y-77058000D01*
X147542000Y-75048000D02*
X147542000Y-75008000D01*
X147542000Y-77108000D02*
X145542000Y-77108000D01*
X147542000Y-77108000D02*
X147542000Y-77058000D01*
X147922000Y-77158000D02*
G75*
G02*
X147762000Y-77158000I-80000J0D01*
G01*
X147762000Y-77158000D02*
G75*
G02*
X147922000Y-77158000I80000J0D01*
G01*
D14*
%TO.C,R40*%
X111077500Y-68154724D02*
X111077500Y-67645276D01*
X112122500Y-68154724D02*
X112122500Y-67645276D01*
%TO.C,J10*%
X156620000Y-44580000D02*
X158000000Y-44580000D01*
X156620000Y-45960000D02*
X156620000Y-44580000D01*
X156620000Y-47230000D02*
X156620000Y-52420000D01*
X156620000Y-47230000D02*
X159270000Y-47230000D01*
X156620000Y-52420000D02*
X161920000Y-52420000D01*
X159270000Y-44580000D02*
X161920000Y-44580000D01*
X159270000Y-47230000D02*
X159270000Y-44580000D01*
X161920000Y-44580000D02*
X161920000Y-52420000D01*
%TO.C,R14*%
X143622500Y-75310276D02*
X143622500Y-75819724D01*
X144667500Y-75310276D02*
X144667500Y-75819724D01*
%TO.C,R23*%
X147777500Y-44104724D02*
X147777500Y-43595276D01*
X148822500Y-44104724D02*
X148822500Y-43595276D01*
%TO.C,R11*%
X88477500Y-66254724D02*
X88477500Y-65745276D01*
X89522500Y-66254724D02*
X89522500Y-65745276D01*
%TO.C,R6*%
X80377500Y-50242224D02*
X80377500Y-49732776D01*
X81422500Y-50242224D02*
X81422500Y-49732776D01*
%TO.C,U1*%
X100690000Y-52265000D02*
X100690000Y-53215000D01*
X100690000Y-62485000D02*
X100690000Y-61535000D01*
X101640000Y-52265000D02*
X100690000Y-52265000D01*
X101640000Y-62485000D02*
X100690000Y-62485000D01*
X109960000Y-52265000D02*
X110910000Y-52265000D01*
X109960000Y-62485000D02*
X110610000Y-62485000D01*
X110910000Y-52265000D02*
X110910000Y-53215000D01*
X110910000Y-61535000D02*
X110910000Y-62245000D01*
X111150000Y-62815000D02*
X110670000Y-62815000D01*
X110910000Y-62485000D01*
X111150000Y-62815000D01*
G36*
X111150000Y-62815000D02*
G01*
X110670000Y-62815000D01*
X110910000Y-62485000D01*
X111150000Y-62815000D01*
G37*
%TO.C,R46*%
X75054724Y-46677500D02*
X74545276Y-46677500D01*
X75054724Y-47722500D02*
X74545276Y-47722500D01*
%TO.C,C32*%
X107590000Y-76353733D02*
X107590000Y-76646267D01*
X108610000Y-76353733D02*
X108610000Y-76646267D01*
%TO.C,R27*%
X145908500Y-69341276D02*
X145908500Y-69850724D01*
X146953500Y-69341276D02*
X146953500Y-69850724D01*
%TO.C,RN9*%
X115320000Y-68400000D02*
X115320000Y-67400000D01*
X118680000Y-68400000D02*
X118680000Y-67400000D01*
%TO.C,L1*%
D17*
X105025000Y-69300000D02*
G75*
G02*
X104675000Y-69300000I-175000J0D01*
G01*
X104675000Y-69300000D02*
G75*
G02*
X105025000Y-69300000I175000J0D01*
G01*
D14*
%TO.C,R22*%
X138227500Y-43595276D02*
X138227500Y-44104724D01*
X139272500Y-43595276D02*
X139272500Y-44104724D01*
%TO.C,R26*%
X126445276Y-61977500D02*
X126954724Y-61977500D01*
X126445276Y-63022500D02*
X126954724Y-63022500D01*
D13*
%TO.C,D2*%
X149250000Y-47850000D02*
X149250000Y-48750000D01*
X149250000Y-48750000D02*
X149750000Y-48750000D01*
X149750000Y-47850000D02*
X149250000Y-47850000D01*
D14*
%TO.C,J11*%
X148530000Y-54320000D02*
X163270000Y-54320000D01*
X148530000Y-77060000D02*
X148530000Y-54320000D01*
X163270000Y-54320000D02*
X163270000Y-74200000D01*
X163270000Y-74800000D02*
X163270000Y-77060000D01*
X163270000Y-77060000D02*
X148530000Y-77060000D01*
X163880000Y-74940000D02*
X163270000Y-74500000D01*
X163880000Y-74060000D01*
X163880000Y-74940000D01*
G36*
X163880000Y-74940000D02*
G01*
X163270000Y-74500000D01*
X163880000Y-74060000D01*
X163880000Y-74940000D01*
G37*
%TO.C,C18*%
X136890000Y-47446267D02*
X136890000Y-47153733D01*
X137910000Y-47446267D02*
X137910000Y-47153733D01*
%TO.C,U11*%
X113280000Y-37115000D02*
X113280000Y-36920000D01*
X113290000Y-38910000D02*
X113290000Y-38485000D01*
X113465000Y-38910000D02*
X113290000Y-38910000D01*
X115335000Y-36690000D02*
X115510000Y-36690000D01*
X115335000Y-38910000D02*
X115510000Y-38910000D01*
X115510000Y-36690000D02*
X115510000Y-37115000D01*
X115510000Y-38910000D02*
X115510000Y-38485000D01*
X113280000Y-36680000D02*
X113140000Y-36490000D01*
X113420000Y-36490000D01*
X113280000Y-36680000D01*
G36*
X113280000Y-36680000D02*
G01*
X113140000Y-36490000D01*
X113420000Y-36490000D01*
X113280000Y-36680000D01*
G37*
%TO.C,C34*%
X96646267Y-35290000D02*
X96353733Y-35290000D01*
X96646267Y-36310000D02*
X96353733Y-36310000D01*
%TO.C,R3*%
X100754724Y-70577500D02*
X100245276Y-70577500D01*
X100754724Y-71622500D02*
X100245276Y-71622500D01*
%TO.C,C36*%
X98527500Y-37496267D02*
X98527500Y-37203733D01*
X99547500Y-37496267D02*
X99547500Y-37203733D01*
%TO.C,R31*%
X139064276Y-67295500D02*
X139573724Y-67295500D01*
X139064276Y-68340500D02*
X139573724Y-68340500D01*
%TO.C,R4*%
X104954724Y-47277500D02*
X104445276Y-47277500D01*
X104954724Y-48322500D02*
X104445276Y-48322500D01*
%TO.C,C30*%
X105935949Y-35142802D02*
X106142802Y-34935949D01*
X106657198Y-35864051D02*
X106864051Y-35657198D01*
%TO.C,C17*%
X102090000Y-44453733D02*
X102090000Y-44746267D01*
X103110000Y-44453733D02*
X103110000Y-44746267D01*
%TO.C,RN7*%
X119720000Y-68400000D02*
X119720000Y-67400000D01*
X123080000Y-68400000D02*
X123080000Y-67400000D01*
D13*
%TO.C,D1*%
X149268500Y-46750000D02*
X149268500Y-47650000D01*
X149268500Y-47650000D02*
X149768500Y-47650000D01*
X149768500Y-46750000D02*
X149268500Y-46750000D01*
D14*
%TO.C,R1*%
X98054724Y-64677500D02*
X97545276Y-64677500D01*
X98054724Y-65722500D02*
X97545276Y-65722500D01*
D15*
%TO.C,U5*%
X120874400Y-38771600D02*
X121540261Y-38771600D01*
X121540261Y-36028400D02*
X120874400Y-36028400D01*
X123459739Y-38771600D02*
X124125600Y-38771600D01*
X124125600Y-36028400D02*
X123459739Y-36028400D01*
D16*
G36*
X120442600Y-37840500D02*
G01*
X120188600Y-37840500D01*
X120188600Y-37459499D01*
X120442600Y-37459499D01*
X120442600Y-37840500D01*
G37*
D14*
%TO.C,R16*%
X146535224Y-64120500D02*
X146025776Y-64120500D01*
X146535224Y-65165500D02*
X146025776Y-65165500D01*
%TO.C,Q2*%
X143159000Y-54436500D02*
X144159000Y-54436500D01*
X143159000Y-55956500D02*
X143159000Y-54436500D01*
X143209000Y-55956500D02*
X143159000Y-55956500D01*
X145109000Y-55956500D02*
X144329000Y-55956500D01*
X145279000Y-54436500D02*
X146279000Y-54436500D01*
X146279000Y-54436500D02*
X146279000Y-55956500D01*
X146279000Y-55956500D02*
X146229000Y-55956500D01*
X144669000Y-56736500D02*
X144339000Y-56496500D01*
X144669000Y-56256500D01*
X144669000Y-56736500D01*
G36*
X144669000Y-56736500D02*
G01*
X144339000Y-56496500D01*
X144669000Y-56256500D01*
X144669000Y-56736500D01*
G37*
%TO.C,C21*%
X139990000Y-47153733D02*
X139990000Y-47446267D01*
X141010000Y-47153733D02*
X141010000Y-47446267D01*
%TO.C,Q6*%
X143893000Y-70449000D02*
X145413000Y-70449000D01*
X143893000Y-70499000D02*
X143893000Y-70449000D01*
X143893000Y-72399000D02*
X143893000Y-71619000D01*
X143893000Y-73569000D02*
X143893000Y-73519000D01*
X145413000Y-70449000D02*
X145413000Y-71449000D01*
X145413000Y-72569000D02*
X145413000Y-73569000D01*
X145413000Y-73569000D02*
X143893000Y-73569000D01*
X143593000Y-71959000D02*
X143113000Y-71959000D01*
X143353000Y-71629000D01*
X143593000Y-71959000D01*
G36*
X143593000Y-71959000D02*
G01*
X143113000Y-71959000D01*
X143353000Y-71629000D01*
X143593000Y-71959000D01*
G37*
%TO.C,R18*%
X133677500Y-59454724D02*
X133677500Y-58945276D01*
X134722500Y-59454724D02*
X134722500Y-58945276D01*
%TO.C,R13*%
X140727500Y-59454724D02*
X140727500Y-58945276D01*
X141772500Y-59454724D02*
X141772500Y-58945276D01*
D10*
%TO.C,Q1*%
X127100000Y-37825000D02*
X127100000Y-44075000D01*
X127100000Y-44075000D02*
X133850000Y-44075000D01*
X127810000Y-44075000D02*
X127810000Y-44625000D01*
X127810000Y-44625000D02*
X128550000Y-44625000D01*
X128550000Y-44075000D02*
X128540000Y-44075000D01*
X128550000Y-44625000D02*
X128550000Y-44075000D01*
X132360000Y-44075000D02*
X132360000Y-44625000D01*
X132360000Y-44625000D02*
X133100000Y-44625000D01*
X133100000Y-44075000D02*
X133090000Y-44075000D01*
X133100000Y-44625000D02*
X133100000Y-44075000D01*
X133850000Y-37825000D02*
X133850000Y-44075000D01*
D18*
X127150000Y-44585000D02*
G75*
G02*
X127149749Y-44574986I-200000J-3D01*
G01*
D14*
%TO.C,R2*%
X96420276Y-70577500D02*
X96929724Y-70577500D01*
X96420276Y-71622500D02*
X96929724Y-71622500D01*
%TO.C,U8*%
X95437500Y-36750000D02*
X95437500Y-36750000D01*
X95437500Y-37250000D02*
X95437500Y-36950000D01*
X95437500Y-38450000D02*
X95437500Y-38450000D01*
X95437500Y-38950000D02*
X95437500Y-38450000D01*
X95937500Y-36750000D02*
X95637500Y-36750000D01*
X95937500Y-38950000D02*
X95437500Y-38950000D01*
X97137500Y-36750000D02*
X97637500Y-36750000D01*
X97137500Y-38950000D02*
X97137500Y-38950000D01*
X97637500Y-36750000D02*
X97637500Y-37250000D01*
X97637500Y-37250000D02*
X97637500Y-37250000D01*
X97637500Y-38450000D02*
X97637500Y-38950000D01*
X97637500Y-38950000D02*
X97137500Y-38950000D01*
X95437500Y-36750000D02*
X95077500Y-36750000D01*
X95437500Y-36390000D01*
X95437500Y-36750000D01*
G36*
X95437500Y-36750000D02*
G01*
X95077500Y-36750000D01*
X95437500Y-36390000D01*
X95437500Y-36750000D01*
G37*
%TO.C,C4*%
X92490000Y-75846267D02*
X92490000Y-75553733D01*
X93510000Y-75846267D02*
X93510000Y-75553733D01*
%TO.C,R20*%
X147777500Y-46945276D02*
X147777500Y-47454724D01*
X148822500Y-46945276D02*
X148822500Y-47454724D01*
%TO.C,R12*%
X146797500Y-72770276D02*
X146797500Y-73279724D01*
X147842500Y-72770276D02*
X147842500Y-73279724D01*
%TO.C,L2*%
X144288748Y-49190000D02*
X144811252Y-49190000D01*
X144288748Y-51410000D02*
X144811252Y-51410000D01*
%TO.C,R42*%
X145795276Y-34727500D02*
X146304724Y-34727500D01*
X145795276Y-35772500D02*
X146304724Y-35772500D01*
D10*
%TO.C,Q12*%
X145909000Y-59674000D02*
X145909000Y-57674000D01*
X145949000Y-57674000D02*
X145909000Y-57674000D01*
X145949000Y-59674000D02*
X145909000Y-59674000D01*
X148009000Y-57674000D02*
X147959000Y-57674000D01*
X148009000Y-57674000D02*
X148009000Y-59674000D01*
X148009000Y-59674000D02*
X147959000Y-59674000D01*
X148139000Y-57374000D02*
G75*
G02*
X147979000Y-57374000I-80000J0D01*
G01*
X147979000Y-57374000D02*
G75*
G02*
X148139000Y-57374000I80000J0D01*
G01*
D14*
%TO.C,C22*%
X138440000Y-47446267D02*
X138440000Y-47153733D01*
X139460000Y-47446267D02*
X139460000Y-47153733D01*
%TO.C,C29*%
X103742802Y-37335949D02*
X103535949Y-37542802D01*
X104464051Y-38057198D02*
X104257198Y-38264051D01*
%TO.C,R41*%
X146304724Y-36277500D02*
X145795276Y-36277500D01*
X146304724Y-37322500D02*
X145795276Y-37322500D01*
%TO.C,C20*%
X144353733Y-41540000D02*
X144646267Y-41540000D01*
X144353733Y-42560000D02*
X144646267Y-42560000D01*
%TO.C,R33*%
X142987500Y-59182724D02*
X142987500Y-58673276D01*
X144032500Y-59182724D02*
X144032500Y-58673276D01*
%TO.C,R28*%
X143764724Y-68946500D02*
X143255276Y-68946500D01*
X143764724Y-69991500D02*
X143255276Y-69991500D01*
%TO.C,C28*%
X118890001Y-37726967D02*
X118890001Y-37434433D01*
X119910001Y-37726967D02*
X119910001Y-37434433D01*
%TO.C,R5*%
X81877500Y-50242224D02*
X81877500Y-49732776D01*
X82922500Y-50242224D02*
X82922500Y-49732776D01*
%TO.C,R21*%
X139977500Y-44104724D02*
X139977500Y-43595276D01*
X141022500Y-44104724D02*
X141022500Y-43595276D01*
%TO.C,C31*%
X109090000Y-76646267D02*
X109090000Y-76353733D01*
X110110000Y-76646267D02*
X110110000Y-76353733D01*
%TO.C,C33*%
X96053733Y-39590000D02*
X96346267Y-39590000D01*
X96053733Y-40610000D02*
X96346267Y-40610000D01*
%TO.C,R34*%
X144511500Y-58673276D02*
X144511500Y-59182724D01*
X145556500Y-58673276D02*
X145556500Y-59182724D01*
%TO.C,Q7*%
X141254000Y-65153000D02*
X142254000Y-65153000D01*
X141254000Y-66673000D02*
X141254000Y-65153000D01*
X141304000Y-66673000D02*
X141254000Y-66673000D01*
X143204000Y-66673000D02*
X142424000Y-66673000D01*
X143374000Y-65153000D02*
X144374000Y-65153000D01*
X144374000Y-65153000D02*
X144374000Y-66673000D01*
X144374000Y-66673000D02*
X144324000Y-66673000D01*
X142764000Y-67453000D02*
X142434000Y-67213000D01*
X142764000Y-66973000D01*
X142764000Y-67453000D01*
G36*
X142764000Y-67453000D02*
G01*
X142434000Y-67213000D01*
X142764000Y-66973000D01*
X142764000Y-67453000D01*
G37*
%TO.C,C19*%
X135340000Y-47446267D02*
X135340000Y-47153733D01*
X136360000Y-47446267D02*
X136360000Y-47153733D01*
%TO.C,R17*%
X146670500Y-54863276D02*
X146670500Y-55372724D01*
X147715500Y-54863276D02*
X147715500Y-55372724D01*
%TO.C,R29*%
X140701500Y-62865724D02*
X140701500Y-62356276D01*
X141746500Y-62865724D02*
X141746500Y-62356276D01*
D19*
%TO.C,J8*%
X151645452Y-43134900D02*
G75*
G02*
X150883452Y-43134900I-381000J0D01*
G01*
X150883452Y-43134900D02*
G75*
G02*
X151645452Y-43134900I381000J0D01*
G01*
%TD*%
M02*
