%TF.GenerationSoftware,KiCad,Pcbnew,9.0.7+dfsg-1*%
%TF.CreationDate,2026-03-28T18:53:48+01:00*%
%TF.ProjectId,TABv1,54414276-312e-46b6-9963-61645f706362,2.2*%
%TF.SameCoordinates,Original*%
%TF.FileFunction,Copper,L1,Top*%
%TF.FilePolarity,Positive*%
%FSLAX46Y46*%
G04 Gerber Fmt 4.6, Leading zero omitted, Abs format (unit mm)*
G04 Created by KiCad (PCBNEW 9.0.7+dfsg-1) date 2026-03-28 18:53:48*
%MOMM*%
%LPD*%
G01*
G04 APERTURE LIST*
G04 Aperture macros list*
%AMRoundRect*
0 Rectangle with rounded corners*
0 $1 Rounding radius*
0 $2 $3 $4 $5 $6 $7 $8 $9 X,Y pos of 4 corners*
0 Add a 4 corners polygon primitive as box body*
4,1,4,$2,$3,$4,$5,$6,$7,$8,$9,$2,$3,0*
0 Add four circle primitives for the rounded corners*
1,1,$1+$1,$2,$3*
1,1,$1+$1,$4,$5*
1,1,$1+$1,$6,$7*
1,1,$1+$1,$8,$9*
0 Add four rect primitives between the rounded corners*
20,1,$1+$1,$2,$3,$4,$5,0*
20,1,$1+$1,$4,$5,$6,$7,0*
20,1,$1+$1,$6,$7,$8,$9,0*
20,1,$1+$1,$8,$9,$2,$3,0*%
%AMRotRect*
0 Rectangle, with rotation*
0 The origin of the aperture is its center*
0 $1 length*
0 $2 width*
0 $3 Rotation angle, in degrees counterclockwise*
0 Add horizontal line*
21,1,$1,$2,0,0,$3*%
G04 Aperture macros list end*
%TA.AperFunction,SMDPad,CuDef*%
%ADD10R,0.250000X0.600000*%
%TD*%
%TA.AperFunction,SMDPad,CuDef*%
%ADD11R,0.600000X0.250000*%
%TD*%
%TA.AperFunction,SMDPad,CuDef*%
%ADD12R,0.250000X0.250000*%
%TD*%
%TA.AperFunction,SMDPad,CuDef*%
%ADD13R,0.250000X1.350000*%
%TD*%
%TA.AperFunction,SMDPad,CuDef*%
%ADD14R,0.250000X1.700000*%
%TD*%
%TA.AperFunction,SMDPad,CuDef*%
%ADD15RoundRect,0.237500X-0.237500X0.250000X-0.237500X-0.250000X0.237500X-0.250000X0.237500X0.250000X0*%
%TD*%
%TA.AperFunction,SMDPad,CuDef*%
%ADD16R,0.800000X0.500000*%
%TD*%
%TA.AperFunction,SMDPad,CuDef*%
%ADD17R,0.800000X0.400000*%
%TD*%
%TA.AperFunction,SMDPad,CuDef*%
%ADD18RoundRect,0.162500X0.650000X0.162500X-0.650000X0.162500X-0.650000X-0.162500X0.650000X-0.162500X0*%
%TD*%
%TA.AperFunction,SMDPad,CuDef*%
%ADD19RotRect,0.254000X0.787400X315.000000*%
%TD*%
%TA.AperFunction,SMDPad,CuDef*%
%ADD20RotRect,0.254000X0.787400X225.000000*%
%TD*%
%TA.AperFunction,SMDPad,CuDef*%
%ADD21RoundRect,0.150000X-0.587500X-0.150000X0.587500X-0.150000X0.587500X0.150000X-0.587500X0.150000X0*%
%TD*%
%TA.AperFunction,SMDPad,CuDef*%
%ADD22R,1.300000X1.050000*%
%TD*%
%TA.AperFunction,ComponentPad*%
%ADD23C,1.700000*%
%TD*%
%TA.AperFunction,ComponentPad*%
%ADD24R,1.700000X1.700000*%
%TD*%
%TA.AperFunction,SMDPad,CuDef*%
%ADD25RoundRect,0.237500X-0.300000X-0.237500X0.300000X-0.237500X0.300000X0.237500X-0.300000X0.237500X0*%
%TD*%
%TA.AperFunction,SMDPad,CuDef*%
%ADD26RoundRect,0.237500X-0.237500X0.300000X-0.237500X-0.300000X0.237500X-0.300000X0.237500X0.300000X0*%
%TD*%
%TA.AperFunction,SMDPad,CuDef*%
%ADD27RoundRect,0.237500X0.237500X-0.300000X0.237500X0.300000X-0.237500X0.300000X-0.237500X-0.300000X0*%
%TD*%
%TA.AperFunction,SMDPad,CuDef*%
%ADD28RoundRect,0.237500X-0.250000X-0.237500X0.250000X-0.237500X0.250000X0.237500X-0.250000X0.237500X0*%
%TD*%
%TA.AperFunction,SMDPad,CuDef*%
%ADD29RoundRect,0.237500X0.300000X0.237500X-0.300000X0.237500X-0.300000X-0.237500X0.300000X-0.237500X0*%
%TD*%
%TA.AperFunction,SMDPad,CuDef*%
%ADD30RoundRect,0.237500X0.237500X-0.250000X0.237500X0.250000X-0.237500X0.250000X-0.237500X-0.250000X0*%
%TD*%
%TA.AperFunction,SMDPad,CuDef*%
%ADD31RoundRect,0.150000X0.150000X-0.587500X0.150000X0.587500X-0.150000X0.587500X-0.150000X-0.587500X0*%
%TD*%
%TA.AperFunction,SMDPad,CuDef*%
%ADD32R,0.500000X0.350000*%
%TD*%
%TA.AperFunction,SMDPad,CuDef*%
%ADD33R,1.000000X0.950000*%
%TD*%
%TA.AperFunction,SMDPad,CuDef*%
%ADD34R,0.850000X0.300000*%
%TD*%
%TA.AperFunction,SMDPad,CuDef*%
%ADD35RoundRect,0.150000X-0.825000X-0.150000X0.825000X-0.150000X0.825000X0.150000X-0.825000X0.150000X0*%
%TD*%
%TA.AperFunction,SMDPad,CuDef*%
%ADD36R,1.070000X0.600000*%
%TD*%
%TA.AperFunction,SMDPad,CuDef*%
%ADD37RoundRect,0.050000X0.350000X0.050000X-0.350000X0.050000X-0.350000X-0.050000X0.350000X-0.050000X0*%
%TD*%
%TA.AperFunction,SMDPad,CuDef*%
%ADD38RoundRect,0.050000X0.050000X0.350000X-0.050000X0.350000X-0.050000X-0.350000X0.050000X-0.350000X0*%
%TD*%
%TA.AperFunction,HeatsinkPad*%
%ADD39R,3.400000X3.400000*%
%TD*%
%TA.AperFunction,SMDPad,CuDef*%
%ADD40RoundRect,0.237500X0.250000X0.237500X-0.250000X0.237500X-0.250000X-0.237500X0.250000X-0.237500X0*%
%TD*%
%TA.AperFunction,SMDPad,CuDef*%
%ADD41R,0.500000X0.800000*%
%TD*%
%TA.AperFunction,SMDPad,CuDef*%
%ADD42R,0.400000X0.800000*%
%TD*%
%TA.AperFunction,SMDPad,CuDef*%
%ADD43R,1.016000X1.803400*%
%TD*%
%TA.AperFunction,SMDPad,CuDef*%
%ADD44R,0.385000X0.690000*%
%TD*%
%TA.AperFunction,SMDPad,CuDef*%
%ADD45R,1.035000X0.690000*%
%TD*%
%TA.AperFunction,ComponentPad*%
%ADD46R,2.300000X1.500000*%
%TD*%
%TA.AperFunction,ComponentPad*%
%ADD47RoundRect,0.250001X0.899999X-0.499999X0.899999X0.499999X-0.899999X0.499999X-0.899999X-0.499999X0*%
%TD*%
%TA.AperFunction,ComponentPad*%
%ADD48O,2.300000X1.500000*%
%TD*%
%TA.AperFunction,SMDPad,CuDef*%
%ADD49RoundRect,0.087500X-0.125000X-0.087500X0.125000X-0.087500X0.125000X0.087500X-0.125000X0.087500X0*%
%TD*%
%TA.AperFunction,SMDPad,CuDef*%
%ADD50RoundRect,0.087500X-0.087500X-0.125000X0.087500X-0.125000X0.087500X0.125000X-0.087500X0.125000X0*%
%TD*%
%TA.AperFunction,SMDPad,CuDef*%
%ADD51RoundRect,0.237500X-0.044194X-0.380070X0.380070X0.044194X0.044194X0.380070X-0.380070X-0.044194X0*%
%TD*%
%TA.AperFunction,SMDPad,CuDef*%
%ADD52R,0.787400X0.254000*%
%TD*%
%TA.AperFunction,SMDPad,CuDef*%
%ADD53R,0.254000X0.787400*%
%TD*%
%TA.AperFunction,SMDPad,CuDef*%
%ADD54R,1.350000X2.800000*%
%TD*%
%TA.AperFunction,SMDPad,CuDef*%
%ADD55R,1.500000X2.800000*%
%TD*%
%TA.AperFunction,SMDPad,CuDef*%
%ADD56R,6.000000X6.500000*%
%TD*%
%TA.AperFunction,SMDPad,CuDef*%
%ADD57R,0.375000X0.350000*%
%TD*%
%TA.AperFunction,SMDPad,CuDef*%
%ADD58R,0.350000X0.375000*%
%TD*%
%TA.AperFunction,SMDPad,CuDef*%
%ADD59RoundRect,0.250000X-0.375000X-0.850000X0.375000X-0.850000X0.375000X0.850000X-0.375000X0.850000X0*%
%TD*%
%TA.AperFunction,SMDPad,CuDef*%
%ADD60R,0.350000X0.500000*%
%TD*%
%TA.AperFunction,SMDPad,CuDef*%
%ADD61R,0.950000X1.000000*%
%TD*%
%TA.AperFunction,SMDPad,CuDef*%
%ADD62R,0.300000X0.850000*%
%TD*%
%TA.AperFunction,SMDPad,CuDef*%
%ADD63RoundRect,0.237500X0.044194X0.380070X-0.380070X-0.044194X-0.044194X-0.380070X0.380070X0.044194X0*%
%TD*%
%TA.AperFunction,SMDPad,CuDef*%
%ADD64R,2.000000X2.000000*%
%TD*%
%TA.AperFunction,ComponentPad*%
%ADD65O,2.400000X0.900000*%
%TD*%
%TA.AperFunction,ComponentPad*%
%ADD66O,1.700000X0.900000*%
%TD*%
%TA.AperFunction,ComponentPad*%
%ADD67C,0.650000*%
%TD*%
%TA.AperFunction,ComponentPad*%
%ADD68C,1.752600*%
%TD*%
%TA.AperFunction,ViaPad*%
%ADD69C,0.450000*%
%TD*%
%TA.AperFunction,Conductor*%
%ADD70C,0.150000*%
%TD*%
%TA.AperFunction,Conductor*%
%ADD71C,0.500000*%
%TD*%
%TA.AperFunction,Conductor*%
%ADD72C,0.250000*%
%TD*%
G04 APERTURE END LIST*
D10*
%TO.P,IC1,1,PS/SYNC*%
%TO.N,SYNC*%
X145250000Y-45349000D03*
%TO.P,IC1,2,PG*%
%TO.N,PG*%
X144750000Y-45349000D03*
%TO.P,IC1,3,VAUX*%
%TO.N,Net-(IC1-VAUX)*%
X144250000Y-45349000D03*
%TO.P,IC1,4,GND*%
%TO.N,GND*%
X143750000Y-45349000D03*
D11*
%TO.P,IC1,5,FB*%
%TO.N,Net-(IC1-FB)*%
X143100000Y-45775000D03*
%TO.P,IC1,6,FB2*%
%TO.N,GND*%
X143100000Y-46275000D03*
%TO.P,IC1,7,VOUT_1*%
%TO.N,+3V3*%
X143100000Y-46775000D03*
D12*
X143275000Y-47025000D03*
D11*
%TO.P,IC1,8,VOUT_2*%
X143100000Y-47275000D03*
D13*
%TO.P,IC1,9,L2*%
%TO.N,Net-(IC1-L2)*%
X144000000Y-47275000D03*
D14*
%TO.P,IC1,10,PGND*%
%TO.N,GND*%
X144500000Y-47100000D03*
D13*
%TO.P,IC1,11,L1*%
%TO.N,Net-(IC1-L1)*%
X145000000Y-47275000D03*
D11*
%TO.P,IC1,12,VIN_1*%
%TO.N,Net-(D1-K)*%
X145900000Y-47275000D03*
%TO.P,IC1,13,VIN_2*%
X145900000Y-46775000D03*
D12*
X145725000Y-47025000D03*
D11*
%TO.P,IC1,14,EN*%
%TO.N,SYNC*%
X145900000Y-46275000D03*
%TO.P,IC1,15,VSEL*%
%TO.N,GND*%
X145900000Y-45775000D03*
%TD*%
D15*
%TO.P,R8,1*%
%TO.N,Net-(R8-Pad1)*%
X131500000Y-50587500D03*
%TO.P,R8,2*%
%TO.N,Net-(Q4-Pad1)*%
X131500000Y-52412500D03*
%TD*%
D16*
%TO.P,RN8,1,R1.1*%
%TO.N,+3V3*%
X125400000Y-72800000D03*
D17*
%TO.P,RN8,2,R2.1*%
X125400000Y-72000000D03*
%TO.P,RN8,3,R3.1*%
X125400000Y-71200000D03*
D16*
%TO.P,RN8,4,R4.1*%
X125400000Y-70400000D03*
%TO.P,RN8,5,R4.2*%
%TO.N,/microSD/_DAT1*%
X123600000Y-70400000D03*
D17*
%TO.P,RN8,6,R3.2*%
%TO.N,/microSD/_DAT0*%
X123600000Y-71200000D03*
%TO.P,RN8,7,R2.2*%
%TO.N,/microSD/_CLK*%
X123600000Y-72000000D03*
D16*
%TO.P,RN8,8,R1.2*%
%TO.N,unconnected-(RN8-R1.2-Pad8)*%
X123600000Y-72800000D03*
%TD*%
D18*
%TO.P,U2,1,~{CS}*%
%TO.N,/SS*%
X103187500Y-76705000D03*
%TO.P,U2,2,DO/IO_{1}*%
%TO.N,/SD1*%
X103187500Y-75435000D03*
%TO.P,U2,3,~{WP}/IO_{2}*%
%TO.N,/SD2*%
X103187500Y-74165000D03*
%TO.P,U2,4,GND*%
%TO.N,GND*%
X103187500Y-72895000D03*
%TO.P,U2,5,DI/IO_{0}*%
%TO.N,/SD0*%
X96012500Y-72895000D03*
%TO.P,U2,6,CLK*%
%TO.N,/SCLK*%
X96012500Y-74165000D03*
%TO.P,U2,7,~{HOLD}/~{RESET}/IO_{3}*%
%TO.N,/SD3*%
X96012500Y-75435000D03*
%TO.P,U2,8,VCC*%
%TO.N,+3V3*%
X96012500Y-76705000D03*
%TD*%
D19*
%TO.P,U4,1,1*%
%TO.N,/SPI1.RX*%
X109627139Y-37333522D03*
%TO.P,U4,2,SDX*%
%TO.N,unconnected-(U4-SDX-Pad2)*%
X109273585Y-36979968D03*
%TO.P,U4,3,3*%
%TO.N,unconnected-(U4-Pad3)*%
X108920032Y-36626415D03*
%TO.P,U4,4,4*%
%TO.N,/IMU45_INT1*%
X108566478Y-36272861D03*
D20*
%TO.P,U4,5,5*%
%TO.N,+3V3*%
X107636349Y-36629244D03*
%TO.P,U4,6,6*%
%TO.N,GND*%
X107282797Y-36982797D03*
%TO.P,U4,7,7*%
X106929244Y-37336349D03*
D19*
%TO.P,U4,8,8*%
%TO.N,+3V3*%
X106572861Y-38266478D03*
%TO.P,U4,9,9*%
%TO.N,/IMU45_INT2*%
X106926415Y-38620032D03*
%TO.P,U4,10,10*%
%TO.N,unconnected-(U4-Pad10)*%
X107279968Y-38973585D03*
%TO.P,U4,11,11*%
%TO.N,unconnected-(U4-Pad11)*%
X107633522Y-39327139D03*
D20*
%TO.P,U4,12,12*%
%TO.N,/IMU45_CS*%
X108563651Y-38970756D03*
%TO.P,U4,13,13*%
%TO.N,/SPI1.CK*%
X108917203Y-38617203D03*
%TO.P,U4,14,14*%
%TO.N,/SPI1.TX*%
X109270756Y-38263651D03*
%TD*%
D21*
%TO.P,Q3,1,G*%
%TO.N,Net-(Q3-G)*%
X92062500Y-66650000D03*
%TO.P,Q3,2,S*%
%TO.N,GND*%
X92062500Y-68550000D03*
%TO.P,Q3,3,D*%
%TO.N,Net-(Q3-D)*%
X93937500Y-67600000D03*
%TD*%
D22*
%TO.P,Y1,1,1*%
%TO.N,Net-(C17-Pad2)*%
X105050000Y-45475000D03*
%TO.P,Y1,2,2*%
%TO.N,GND*%
X107350000Y-45475000D03*
%TO.P,Y1,3,3*%
%TO.N,/XIN*%
X107350000Y-43725000D03*
%TO.P,Y1,4,4*%
%TO.N,GND*%
X105050000Y-43725000D03*
%TD*%
D15*
%TO.P,R10,1*%
%TO.N,/BUZZ*%
X87500000Y-65087500D03*
%TO.P,R10,2*%
%TO.N,Net-(Q3-G)*%
X87500000Y-66912500D03*
%TD*%
D23*
%TO.P,J9,1,Pin_1*%
%TO.N,/PWM4*%
X152920000Y-45960000D03*
%TO.P,J9,2,Pin_2*%
%TO.N,/PWM3*%
X155460000Y-45960000D03*
%TO.P,J9,3,Pin_3*%
%TO.N,+BATT*%
X152920000Y-48500000D03*
%TO.P,J9,4,Pin_4*%
X155460000Y-48500000D03*
D24*
%TO.P,J9,5,Pin_5*%
%TO.N,GND*%
X152920000Y-51040000D03*
%TO.P,J9,6,Pin_6*%
X155460000Y-51040000D03*
%TD*%
D25*
%TO.P,C27,1*%
%TO.N,GND*%
X121662499Y-34744300D03*
%TO.P,C27,2*%
%TO.N,+3V3*%
X123387499Y-34744300D03*
%TD*%
D15*
%TO.P,R45,1*%
%TO.N,Net-(USB1-CC1)*%
X81175000Y-49975000D03*
%TO.P,R45,2*%
%TO.N,GND*%
X81175000Y-51800000D03*
%TD*%
D25*
%TO.P,C38,1*%
%TO.N,+3V3*%
X113625000Y-35775000D03*
%TO.P,C38,2*%
%TO.N,GND*%
X115350000Y-35775000D03*
%TD*%
D26*
%TO.P,C35,1*%
%TO.N,+3V3*%
X101037500Y-36487500D03*
%TO.P,C35,2*%
%TO.N,GND*%
X101037500Y-38212500D03*
%TD*%
D27*
%TO.P,C16,1*%
%TO.N,GND*%
X109800000Y-45400000D03*
%TO.P,C16,2*%
%TO.N,/XIN*%
X109800000Y-43675000D03*
%TD*%
D28*
%TO.P,R9,1*%
%TO.N,/SDA_RADIO*%
X125775000Y-64100000D03*
%TO.P,R9,2*%
%TO.N,+3V3*%
X127600000Y-64100000D03*
%TD*%
D16*
%TO.P,RN10,1,R1.1*%
%TO.N,/L_BLUE*%
X78152500Y-59000000D03*
D17*
%TO.P,RN10,2,R2.1*%
%TO.N,/L_GREEN*%
X78152500Y-58200000D03*
%TO.P,RN10,3,R3.1*%
%TO.N,/L_RED*%
X78152500Y-57400000D03*
D16*
%TO.P,RN10,4,R4.1*%
X78152500Y-56600000D03*
%TO.P,RN10,5,R4.2*%
%TO.N,Net-(D7-A)*%
X76352500Y-56600000D03*
D17*
%TO.P,RN10,6,R3.2*%
X76352500Y-57400000D03*
%TO.P,RN10,7,R2.2*%
%TO.N,Net-(D6-A)*%
X76352500Y-58200000D03*
D16*
%TO.P,RN10,8,R1.2*%
%TO.N,Net-(D5-A)*%
X76352500Y-59000000D03*
%TD*%
D29*
%TO.P,C2,1*%
%TO.N,+3V3*%
X103662500Y-64787500D03*
%TO.P,C2,2*%
%TO.N,GND*%
X101937500Y-64787500D03*
%TD*%
D30*
%TO.P,R19,1*%
%TO.N,GND*%
X135900000Y-60112500D03*
%TO.P,R19,2*%
%TO.N,Net-(Q5-G)*%
X135900000Y-58287500D03*
%TD*%
D31*
%TO.P,Q5,1,G*%
%TO.N,Net-(Q5-G)*%
X137795000Y-59611500D03*
%TO.P,Q5,2,S*%
%TO.N,GND*%
X139695000Y-59611500D03*
%TO.P,Q5,3,D*%
%TO.N,/Pyro/PYRO_LOW*%
X138745000Y-57736500D03*
%TD*%
D16*
%TO.P,RN6,1,R1.1*%
%TO.N,unconnected-(RN6-R1.1-Pad1)*%
X114600000Y-73000000D03*
D17*
%TO.P,RN6,2,R2.1*%
%TO.N,/microSD/_CMD*%
X114600000Y-72200000D03*
%TO.P,RN6,3,R3.1*%
%TO.N,/microSD/_DAT3*%
X114600000Y-71400000D03*
D16*
%TO.P,RN6,4,R4.1*%
%TO.N,/microSD/_DAT2*%
X114600000Y-70600000D03*
%TO.P,RN6,5,R4.2*%
%TO.N,+3V3*%
X112800000Y-70600000D03*
D17*
%TO.P,RN6,6,R3.2*%
X112800000Y-71400000D03*
%TO.P,RN6,7,R2.2*%
X112800000Y-72200000D03*
D16*
%TO.P,RN6,8,R1.2*%
X112800000Y-73000000D03*
%TD*%
D28*
%TO.P,R15,1*%
%TO.N,Net-(Q7-D)*%
X145391500Y-62992000D03*
%TO.P,R15,2*%
%TO.N,Net-(Q11-G)*%
X147216500Y-62992000D03*
%TD*%
D32*
%TO.P,Q11,1,D*%
%TO.N,/Pyro/PYRO2*%
X147558000Y-67218000D03*
%TO.P,Q11,2,D*%
X147558000Y-66568000D03*
%TO.P,Q11,3,G*%
%TO.N,Net-(Q11-G)*%
X147558000Y-65918000D03*
%TO.P,Q11,4,S*%
%TO.N,/Pyro/PYRO_HIGH*%
X145558000Y-65918000D03*
%TO.P,Q11,5,D*%
%TO.N,/Pyro/PYRO2*%
X145558000Y-66568000D03*
%TO.P,Q11,6,D*%
X145558000Y-67218000D03*
D33*
%TO.P,Q11,7,D*%
X146578000Y-66858000D03*
D34*
%TO.P,Q11,8,S*%
%TO.N,/Pyro/PYRO_HIGH*%
X146558000Y-65878000D03*
%TD*%
D25*
%TO.P,C3,1*%
%TO.N,GND*%
X96937500Y-63700000D03*
%TO.P,C3,2*%
%TO.N,/AVDD*%
X98662500Y-63700000D03*
%TD*%
D30*
%TO.P,R32,1*%
%TO.N,/PYRO_FIRE_3*%
X142240000Y-56411500D03*
%TO.P,R32,2*%
%TO.N,Net-(Q2-G)*%
X142240000Y-54586500D03*
%TD*%
D29*
%TO.P,C1,1*%
%TO.N,+1V1*%
X103650000Y-66300000D03*
%TO.P,C1,2*%
%TO.N,GND*%
X101925000Y-66300000D03*
%TD*%
D35*
%TO.P,U7,1*%
%TO.N,Net-(R8-Pad1)*%
X134025000Y-51095000D03*
%TO.P,U7,2*%
%TO.N,Net-(Q4-Pad1)*%
X134025000Y-52365000D03*
%TO.P,U7,3*%
X134025000Y-53635000D03*
%TO.P,U7,4*%
%TO.N,+BATT*%
X134025000Y-54905000D03*
%TO.P,U7,5*%
%TO.N,N/C*%
X138975000Y-54905000D03*
%TO.P,U7,6*%
%TO.N,Net-(Q4-Pad1)*%
X138975000Y-53635000D03*
%TO.P,U7,7*%
X138975000Y-52365000D03*
%TO.P,U7,8*%
%TO.N,N/C*%
X138975000Y-51095000D03*
%TD*%
D36*
%TO.P,Q4,1,1*%
%TO.N,Net-(Q4-Pad1)*%
X129560000Y-54050000D03*
%TO.P,Q4,2,2*%
%TO.N,Net-(Q1-B)*%
X129560000Y-55950000D03*
%TO.P,Q4,3,3*%
%TO.N,+BATT*%
X132040000Y-55000000D03*
%TD*%
D28*
%TO.P,R30,1*%
%TO.N,/PYRO_FIRE_2*%
X138279500Y-66167000D03*
%TO.P,R30,2*%
%TO.N,Net-(Q7-G)*%
X140104500Y-66167000D03*
%TD*%
D32*
%TO.P,Q10,1,D*%
%TO.N,/Pyro/PYRO1*%
X147542000Y-76708000D03*
%TO.P,Q10,2,D*%
X147542000Y-76058000D03*
%TO.P,Q10,3,G*%
%TO.N,Net-(Q10-G)*%
X147542000Y-75408000D03*
%TO.P,Q10,4,S*%
%TO.N,/Pyro/PYRO_HIGH*%
X145542000Y-75408000D03*
%TO.P,Q10,5,D*%
%TO.N,/Pyro/PYRO1*%
X145542000Y-76058000D03*
%TO.P,Q10,6,D*%
X145542000Y-76708000D03*
D33*
%TO.P,Q10,7,D*%
X146562000Y-76348000D03*
D34*
%TO.P,Q10,8,S*%
%TO.N,/Pyro/PYRO_HIGH*%
X146542000Y-75368000D03*
%TD*%
D30*
%TO.P,R40,1*%
%TO.N,GND*%
X111600000Y-68812500D03*
%TO.P,R40,2*%
%TO.N,/SD_detect*%
X111600000Y-66987500D03*
%TD*%
D23*
%TO.P,J10,1,Pin_1*%
%TO.N,/PWM2*%
X158000000Y-45960000D03*
%TO.P,J10,2,Pin_2*%
%TO.N,/PWM1*%
X160540000Y-45960000D03*
%TO.P,J10,3,Pin_3*%
%TO.N,+BATT*%
X158000000Y-48500000D03*
%TO.P,J10,4,Pin_4*%
X160540000Y-48500000D03*
D24*
%TO.P,J10,5,Pin_5*%
%TO.N,GND*%
X158000000Y-51040000D03*
%TO.P,J10,6,Pin_6*%
X160540000Y-51040000D03*
%TD*%
D15*
%TO.P,R14,1*%
%TO.N,Net-(Q10-G)*%
X144145000Y-74652500D03*
%TO.P,R14,2*%
%TO.N,/Pyro/PYRO_HIGH*%
X144145000Y-76477500D03*
%TD*%
%TO.P,R23,1*%
%TO.N,+3V3*%
X148225000Y-42512500D03*
%TO.P,R23,2*%
%TO.N,PG*%
X148225000Y-44337500D03*
%TD*%
D30*
%TO.P,R11,1*%
%TO.N,GND*%
X89000000Y-66912500D03*
%TO.P,R11,2*%
%TO.N,/BUZZ*%
X89000000Y-65087500D03*
%TD*%
D15*
%TO.P,R6,1*%
%TO.N,Net-(U1-USB_DM)*%
X105225000Y-66850000D03*
%TO.P,R6,2*%
%TO.N,D-*%
X105225000Y-68675000D03*
%TD*%
D37*
%TO.P,U1,1,GPIO4*%
%TO.N,/SD_DAT0*%
X110750000Y-61175000D03*
%TO.P,U1,2,GPIO5*%
%TO.N,/SD_DAT1*%
X110750000Y-60775000D03*
%TO.P,U1,3,GPIO6*%
%TO.N,/SD_DAT2*%
X110750000Y-60375000D03*
%TO.P,U1,4,GPIO7*%
%TO.N,/SD_DAT3*%
X110750000Y-59975000D03*
%TO.P,U1,5,IOVDD*%
%TO.N,+3V3*%
X110750000Y-59575000D03*
%TO.P,U1,6,GPIO8*%
%TO.N,HIL_TX*%
X110750000Y-59175000D03*
%TO.P,U1,7,GPIO9*%
%TO.N,HIL_RX*%
X110750000Y-58775000D03*
%TO.P,U1,8,GPIO10*%
%TO.N,/SD_detect*%
X110750000Y-58375000D03*
%TO.P,U1,9,GPIO11*%
%TO.N,/IMU45_CS*%
X110750000Y-57975000D03*
%TO.P,U1,10,DVDD*%
%TO.N,+1V1*%
X110750000Y-57575000D03*
%TO.P,U1,11,GPIO12*%
%TO.N,/SPI1.RX*%
X110750000Y-57175000D03*
%TO.P,U1,12,GPIO13*%
%TO.N,/MAG_CS*%
X110750000Y-56775000D03*
%TO.P,U1,13,GPIO14*%
%TO.N,/SPI1.CK*%
X110750000Y-56375000D03*
%TO.P,U1,14,GPIO15*%
%TO.N,/SPI1.TX*%
X110750000Y-55975000D03*
%TO.P,U1,15,IOVDD*%
%TO.N,+3V3*%
X110750000Y-55575000D03*
%TO.P,U1,16,GPIO16*%
%TO.N,/RX_GPS*%
X110750000Y-55175000D03*
%TO.P,U1,17,GPIO17*%
%TO.N,/TX_GPS*%
X110750000Y-54775000D03*
%TO.P,U1,18,GPIO18*%
%TO.N,/IMU45_INT1*%
X110750000Y-54375000D03*
%TO.P,U1,19,GPIO19*%
%TO.N,/IMU45_INT2*%
X110750000Y-53975000D03*
%TO.P,U1,20,GPIO20*%
%TO.N,/GPIO20*%
X110750000Y-53575000D03*
D38*
%TO.P,U1,21,GPIO21*%
%TO.N,/IMU_CS*%
X109600000Y-52425000D03*
%TO.P,U1,22,GPIO22*%
%TO.N,/IMU_INT1*%
X109200000Y-52425000D03*
%TO.P,U1,23,GPIO23*%
%TO.N,/IMU_INT2*%
X108800000Y-52425000D03*
%TO.P,U1,24,IOVDD*%
%TO.N,+3V3*%
X108400000Y-52425000D03*
%TO.P,U1,25,GPIO24*%
%TO.N,/PWM1*%
X108000000Y-52425000D03*
%TO.P,U1,26,GPIO25*%
%TO.N,/PWM2*%
X107600000Y-52425000D03*
%TO.P,U1,27,GPIO26*%
%TO.N,/PWM3*%
X107200000Y-52425000D03*
%TO.P,U1,28,GPIO27*%
%TO.N,/PWM4*%
X106800000Y-52425000D03*
%TO.P,U1,29,IOVDD*%
%TO.N,+3V3*%
X106400000Y-52425000D03*
%TO.P,U1,30,XIN*%
%TO.N,/XIN*%
X106000000Y-52425000D03*
%TO.P,U1,31,XOUT*%
%TO.N,/XOUT*%
X105600000Y-52425000D03*
%TO.P,U1,32,DVDD*%
%TO.N,+1V1*%
X105200000Y-52425000D03*
%TO.P,U1,33,SWCLK*%
%TO.N,/SWDCLK*%
X104800000Y-52425000D03*
%TO.P,U1,34,SWDIO*%
%TO.N,/SWDIO*%
X104400000Y-52425000D03*
%TO.P,U1,35,RUN*%
%TO.N,/RESET*%
X104000000Y-52425000D03*
%TO.P,U1,36,GPIO28*%
%TO.N,/BARO_INT*%
X103600000Y-52425000D03*
%TO.P,U1,37,GPIO29*%
%TO.N,/BARO_CS*%
X103200000Y-52425000D03*
%TO.P,U1,38,GPIO30*%
%TO.N,/L_RED*%
X102800000Y-52425000D03*
%TO.P,U1,39,GPIO31*%
%TO.N,/L_GREEN*%
X102400000Y-52425000D03*
%TO.P,U1,40,GPIO32*%
%TO.N,/L_BLUE*%
X102000000Y-52425000D03*
D37*
%TO.P,U1,41,IOVDD*%
%TO.N,+3V3*%
X100850000Y-53575000D03*
%TO.P,U1,42,GPIO33*%
%TO.N,/BUZZ*%
X100850000Y-53975000D03*
%TO.P,U1,43,GPIO34*%
%TO.N,PPS*%
X100850000Y-54375000D03*
%TO.P,U1,44,GPIO35*%
%TO.N,/PYRO_ENABLE*%
X100850000Y-54775000D03*
%TO.P,U1,45,GPIO36*%
%TO.N,/PYRO_FIRE_1*%
X100850000Y-55175000D03*
%TO.P,U1,46,GPIO37*%
%TO.N,/PYRO_FIRE_2*%
X100850000Y-55575000D03*
%TO.P,U1,47,GPIO38*%
%TO.N,/PYRO_FIRE_3*%
X100850000Y-55975000D03*
%TO.P,U1,48,GPIO39*%
%TO.N,/GPIO39*%
X100850000Y-56375000D03*
%TO.P,U1,49,GPIO40_ADC0*%
%TO.N,/PYRO_SENSE*%
X100850000Y-56775000D03*
%TO.P,U1,50,IOVDD*%
%TO.N,+3V3*%
X100850000Y-57175000D03*
%TO.P,U1,51,DVDD*%
%TO.N,+1V1*%
X100850000Y-57575000D03*
%TO.P,U1,52,GPIO41_ADC1*%
%TO.N,/GPIO41*%
X100850000Y-57975000D03*
%TO.P,U1,53,GPIO42_ADC2*%
%TO.N,/GPIO42*%
X100850000Y-58375000D03*
%TO.P,U1,54,GPIO43_ADC3*%
%TO.N,/GPIO43*%
X100850000Y-58775000D03*
%TO.P,U1,55,GPIO44_ADC4*%
%TO.N,/GPIO44*%
X100850000Y-59175000D03*
%TO.P,U1,56,GPIO45_ADC5*%
%TO.N,/GPIO45*%
X100850000Y-59575000D03*
%TO.P,U1,57,GPIO46_ADC6*%
%TO.N,/GPIO46*%
X100850000Y-59975000D03*
%TO.P,U1,58,GPIO47_ADC7*%
%TO.N,/BATT_SENSE*%
X100850000Y-60375000D03*
%TO.P,U1,59,ADC_AVDD*%
%TO.N,+3V3*%
X100850000Y-60775000D03*
%TO.P,U1,60,IOVDD*%
X100850000Y-61175000D03*
D38*
%TO.P,U1,61,VREG_AVDD*%
%TO.N,/AVDD*%
X102000000Y-62325000D03*
%TO.P,U1,62,VREG_PGND*%
%TO.N,GND*%
X102400000Y-62325000D03*
%TO.P,U1,63,VREG_LX*%
%TO.N,/LX*%
X102800000Y-62325000D03*
%TO.P,U1,64,VREG_VIN*%
%TO.N,+3V3*%
X103200000Y-62325000D03*
%TO.P,U1,65,VREG_FB*%
%TO.N,+1V1*%
X103600000Y-62325000D03*
%TO.P,U1,66,USB_DM*%
%TO.N,Net-(U1-USB_DM)*%
X104000000Y-62325000D03*
%TO.P,U1,67,USB_DP*%
%TO.N,Net-(U1-USB_DP)*%
X104400000Y-62325000D03*
%TO.P,U1,68,USB_OTP_VDD*%
%TO.N,+3V3*%
X104800000Y-62325000D03*
%TO.P,U1,69,QSPI_IOVDD*%
X105200000Y-62325000D03*
%TO.P,U1,70,QSPI_SD3*%
%TO.N,/SD3*%
X105600000Y-62325000D03*
%TO.P,U1,71,QSPI_SCLK*%
%TO.N,/SCLK*%
X106000000Y-62325000D03*
%TO.P,U1,72,QSPI_SD0*%
%TO.N,/SD0*%
X106400000Y-62325000D03*
%TO.P,U1,73,QSPI_SD2*%
%TO.N,/SD2*%
X106800000Y-62325000D03*
%TO.P,U1,74,QSPI_SD1*%
%TO.N,/SD1*%
X107200000Y-62325000D03*
%TO.P,U1,75,QSPI_SS*%
%TO.N,/SS*%
X107600000Y-62325000D03*
%TO.P,U1,76,IOVDD*%
%TO.N,+3V3*%
X108000000Y-62325000D03*
%TO.P,U1,77,GPIO0*%
%TO.N,/SDA_RADIO*%
X108400000Y-62325000D03*
%TO.P,U1,78,GPIO1*%
%TO.N,/SCL_RADIO*%
X108800000Y-62325000D03*
%TO.P,U1,79,GPIO2*%
%TO.N,/SD_CLK*%
X109200000Y-62325000D03*
%TO.P,U1,80,GPIO3*%
%TO.N,/SD_CMD*%
X109600000Y-62325000D03*
D39*
%TO.P,U1,81,GND*%
%TO.N,GND*%
X105800000Y-57375000D03*
%TD*%
D40*
%TO.P,R46,1*%
%TO.N,Net-(USB1-CC2)*%
X75712500Y-47200000D03*
%TO.P,R46,2*%
%TO.N,GND*%
X73887500Y-47200000D03*
%TD*%
D26*
%TO.P,C32,1*%
%TO.N,GND*%
X108100000Y-75637500D03*
%TO.P,C32,2*%
%TO.N,+3V3*%
X108100000Y-77362500D03*
%TD*%
D15*
%TO.P,R27,1*%
%TO.N,/PYRO_FIRE_1*%
X146431000Y-68683500D03*
%TO.P,R27,2*%
%TO.N,Net-(Q6-G)*%
X146431000Y-70508500D03*
%TD*%
D41*
%TO.P,RN9,1,R1.1*%
%TO.N,/SD_CMD*%
X118200000Y-67000000D03*
D42*
%TO.P,RN9,2,R2.1*%
%TO.N,/SD_DAT3*%
X117400000Y-67000000D03*
%TO.P,RN9,3,R3.1*%
%TO.N,/SD_DAT2*%
X116600000Y-67000000D03*
D41*
%TO.P,RN9,4,R4.1*%
%TO.N,unconnected-(RN9-R4.1-Pad4)*%
X115800000Y-67000000D03*
%TO.P,RN9,5,R4.2*%
%TO.N,unconnected-(RN9-R4.2-Pad5)*%
X115800000Y-68800000D03*
D42*
%TO.P,RN9,6,R3.2*%
%TO.N,/microSD/_DAT2*%
X116600000Y-68800000D03*
%TO.P,RN9,7,R2.2*%
%TO.N,/microSD/_DAT3*%
X117400000Y-68800000D03*
D41*
%TO.P,RN9,8,R1.2*%
%TO.N,/microSD/_CMD*%
X118200000Y-68800000D03*
%TD*%
D43*
%TO.P,L1,1,1*%
%TO.N,+1V1*%
X103650100Y-68300000D03*
%TO.P,L1,2,2*%
%TO.N,/LX*%
X102049900Y-68300000D03*
%TD*%
D15*
%TO.P,R22,1*%
%TO.N,GND*%
X138750000Y-42937500D03*
%TO.P,R22,2*%
%TO.N,Net-(IC1-FB)*%
X138750000Y-44762500D03*
%TD*%
D28*
%TO.P,R26,1*%
%TO.N,/SCL_RADIO*%
X125787500Y-62500000D03*
%TO.P,R26,2*%
%TO.N,+3V3*%
X127612500Y-62500000D03*
%TD*%
D44*
%TO.P,D2,1,K*%
%TO.N,Net-(D1-K)*%
X149531500Y-48300000D03*
D45*
%TO.P,D2,2,A*%
%TO.N,+BATT*%
X150443500Y-48300000D03*
%TD*%
D46*
%TO.P,J11,1,Pin_1*%
%TO.N,/Pyro/PYRO1*%
X152800000Y-74500000D03*
D47*
X157800000Y-74500000D03*
D48*
%TO.P,J11,2,Pin_2*%
%TO.N,/Pyro/PYRO_LOW*%
X152800000Y-71000000D03*
X157800000Y-71000000D03*
%TO.P,J11,3,Pin_3*%
%TO.N,/Pyro/PYRO2*%
X152800000Y-67500000D03*
X157800000Y-67500000D03*
%TO.P,J11,4,Pin_4*%
%TO.N,/Pyro/PYRO_LOW*%
X152800000Y-64000000D03*
X157800000Y-64000000D03*
%TO.P,J11,5,Pin_5*%
%TO.N,/Pyro/PYRO3*%
X152800000Y-60500000D03*
X157800000Y-60500000D03*
%TO.P,J11,6,Pin_6*%
%TO.N,/Pyro/PYRO_LOW*%
X152800000Y-57000000D03*
X157800000Y-57000000D03*
%TD*%
D27*
%TO.P,C18,1*%
%TO.N,+3V3*%
X137400000Y-48162500D03*
%TO.P,C18,2*%
%TO.N,GND*%
X137400000Y-46437500D03*
%TD*%
D49*
%TO.P,U11,1,Vdd_IO*%
%TO.N,+3V3*%
X113637500Y-37550000D03*
%TO.P,U11,2,SCL*%
%TO.N,/SPI1.CK*%
X113637500Y-38050000D03*
D50*
%TO.P,U11,3,GND*%
%TO.N,GND*%
X113900000Y-38562500D03*
%TO.P,U11,4,SDA*%
%TO.N,/SPI1.TX*%
X114400000Y-38562500D03*
%TO.P,U11,5,SA0*%
%TO.N,/SPI1.RX*%
X114900000Y-38562500D03*
D49*
%TO.P,U11,6,~{CS}*%
%TO.N,/BARO_CS*%
X115162500Y-38050000D03*
%TO.P,U11,7,INT_DRDY*%
%TO.N,/BARO_INT*%
X115162500Y-37550000D03*
D50*
%TO.P,U11,8,GND_IO*%
%TO.N,GND*%
X114900000Y-37037500D03*
%TO.P,U11,9,GND*%
X114400000Y-37037500D03*
%TO.P,U11,10,VDD*%
%TO.N,+3V3*%
X113900000Y-37037500D03*
%TD*%
D29*
%TO.P,C34,1*%
%TO.N,+3V3*%
X97362500Y-35800000D03*
%TO.P,C34,2*%
%TO.N,GND*%
X95637500Y-35800000D03*
%TD*%
D15*
%TO.P,R3,1*%
%TO.N,+3V3*%
X106625000Y-74837500D03*
%TO.P,R3,2*%
%TO.N,/SS*%
X106625000Y-76662500D03*
%TD*%
D27*
%TO.P,C36,1*%
%TO.N,GND*%
X99037500Y-38212500D03*
%TO.P,C36,2*%
%TO.N,+3V3*%
X99037500Y-36487500D03*
%TD*%
D28*
%TO.P,R31,1*%
%TO.N,GND*%
X138406500Y-67818000D03*
%TO.P,R31,2*%
%TO.N,Net-(Q7-G)*%
X140231500Y-67818000D03*
%TD*%
D40*
%TO.P,R4,1*%
%TO.N,/XOUT*%
X105612500Y-47800000D03*
%TO.P,R4,2*%
%TO.N,Net-(C17-Pad2)*%
X103787500Y-47800000D03*
%TD*%
D51*
%TO.P,C30,1*%
%TO.N,GND*%
X105790120Y-36009880D03*
%TO.P,C30,2*%
%TO.N,+3V3*%
X107009880Y-34790120D03*
%TD*%
D26*
%TO.P,C17,1*%
%TO.N,GND*%
X102600000Y-43737500D03*
%TO.P,C17,2*%
%TO.N,Net-(C17-Pad2)*%
X102600000Y-45462500D03*
%TD*%
D41*
%TO.P,RN7,1,R1.1*%
%TO.N,unconnected-(RN7-R1.1-Pad1)*%
X122600000Y-67000000D03*
D42*
%TO.P,RN7,2,R2.1*%
%TO.N,/SD_DAT1*%
X121800000Y-67000000D03*
%TO.P,RN7,3,R3.1*%
%TO.N,/SD_DAT0*%
X121000000Y-67000000D03*
D41*
%TO.P,RN7,4,R4.1*%
%TO.N,/SD_CLK*%
X120200000Y-67000000D03*
%TO.P,RN7,5,R4.2*%
%TO.N,/microSD/_CLK*%
X120200000Y-68800000D03*
D42*
%TO.P,RN7,6,R3.2*%
%TO.N,/microSD/_DAT0*%
X121000000Y-68800000D03*
%TO.P,RN7,7,R2.2*%
%TO.N,/microSD/_DAT1*%
X121800000Y-68800000D03*
D41*
%TO.P,RN7,8,R1.2*%
%TO.N,unconnected-(RN7-R1.2-Pad8)*%
X122600000Y-68800000D03*
%TD*%
D44*
%TO.P,D1,1,K*%
%TO.N,Net-(D1-K)*%
X149550000Y-47200000D03*
D45*
%TO.P,D1,2,A*%
%TO.N,VUSB*%
X150462000Y-47200000D03*
%TD*%
D40*
%TO.P,R1,1*%
%TO.N,/AVDD*%
X98712500Y-65200000D03*
%TO.P,R1,2*%
%TO.N,+3V3*%
X96887500Y-65200000D03*
%TD*%
D52*
%TO.P,U5,1,1*%
%TO.N,/SPI1.RX*%
X123909700Y-38150001D03*
%TO.P,U5,2,SDX*%
%TO.N,unconnected-(U5-SDX-Pad2)*%
X123909700Y-37650000D03*
%TO.P,U5,3,3*%
%TO.N,unconnected-(U5-Pad3)*%
X123909700Y-37150000D03*
%TO.P,U5,4,4*%
%TO.N,/IMU_INT1*%
X123909700Y-36649999D03*
D53*
%TO.P,U5,5,5*%
%TO.N,+3V3*%
X122999999Y-36244300D03*
%TO.P,U5,6,6*%
%TO.N,GND*%
X122500000Y-36244300D03*
%TO.P,U5,7,7*%
X122000001Y-36244300D03*
D52*
%TO.P,U5,8,8*%
%TO.N,+3V3*%
X121090300Y-36649999D03*
%TO.P,U5,9,9*%
%TO.N,/IMU_INT2*%
X121090300Y-37150000D03*
%TO.P,U5,10,10*%
%TO.N,unconnected-(U5-Pad10)*%
X121090300Y-37650000D03*
%TO.P,U5,11,11*%
%TO.N,unconnected-(U5-Pad11)*%
X121090300Y-38150001D03*
D53*
%TO.P,U5,12,12*%
%TO.N,/IMU_CS*%
X122000001Y-38555700D03*
%TO.P,U5,13,13*%
%TO.N,/SPI1.CK*%
X122500000Y-38555700D03*
%TO.P,U5,14,14*%
%TO.N,/SPI1.TX*%
X122999999Y-38555700D03*
%TD*%
D40*
%TO.P,R16,1*%
%TO.N,Net-(Q11-G)*%
X147193000Y-64643000D03*
%TO.P,R16,2*%
%TO.N,/Pyro/PYRO_HIGH*%
X145368000Y-64643000D03*
%TD*%
D31*
%TO.P,Q2,1,G*%
%TO.N,Net-(Q2-G)*%
X143769000Y-56134000D03*
%TO.P,Q2,2,S*%
%TO.N,GND*%
X145669000Y-56134000D03*
%TO.P,Q2,3,D*%
%TO.N,Net-(Q2-D)*%
X144719000Y-54259000D03*
%TD*%
D26*
%TO.P,C21,1*%
%TO.N,GND*%
X140500000Y-46437500D03*
%TO.P,C21,2*%
%TO.N,+3V3*%
X140500000Y-48162500D03*
%TD*%
D21*
%TO.P,Q6,1,G*%
%TO.N,Net-(Q6-G)*%
X143715500Y-71059000D03*
%TO.P,Q6,2,S*%
%TO.N,GND*%
X143715500Y-72959000D03*
%TO.P,Q6,3,D*%
%TO.N,Net-(Q6-D)*%
X145590500Y-72009000D03*
%TD*%
D30*
%TO.P,R18,1*%
%TO.N,/PYRO_ENABLE*%
X134200000Y-60112500D03*
%TO.P,R18,2*%
%TO.N,Net-(Q5-G)*%
X134200000Y-58287500D03*
%TD*%
%TO.P,R13,1*%
%TO.N,/PYRO_SENSE*%
X141250000Y-60112500D03*
%TO.P,R13,2*%
%TO.N,/Pyro/PYRO_LOW*%
X141250000Y-58287500D03*
%TD*%
D54*
%TO.P,Q1,1,B*%
%TO.N,Net-(Q1-B)*%
X128160000Y-46205000D03*
D55*
%TO.P,Q1,3,E*%
%TO.N,/Pyro/PYRO_HIGH*%
X132740000Y-46205000D03*
D56*
%TO.P,Q1,4,C*%
%TO.N,+BATT*%
X130470000Y-39245000D03*
%TD*%
D15*
%TO.P,R2,1*%
%TO.N,BOOTSEL*%
X91350000Y-74812500D03*
%TO.P,R2,2*%
%TO.N,/SS*%
X91350000Y-76637500D03*
%TD*%
D57*
%TO.P,U8,1,SCL/SPC*%
%TO.N,/SPI1.CK*%
X95775000Y-37100000D03*
%TO.P,U8,2,NC*%
%TO.N,unconnected-(U8-NC-Pad2)*%
X95775000Y-37600000D03*
%TO.P,U8,3,~{CS}*%
%TO.N,/MAG_CS*%
X95775000Y-38100000D03*
%TO.P,U8,4,SDA/SDI/SDO*%
%TO.N,/SPI1.TX*%
X95775000Y-38600000D03*
D58*
%TO.P,U8,5,C1*%
%TO.N,Net-(U8-C1)*%
X96287500Y-38612500D03*
%TO.P,U8,6,GND*%
%TO.N,GND*%
X96787500Y-38612500D03*
D57*
%TO.P,U8,7,DRDY*%
%TO.N,/SPI1.RX*%
X97300000Y-38600000D03*
%TO.P,U8,8,GND*%
%TO.N,GND*%
X97300000Y-38100000D03*
%TO.P,U8,9,Vdd*%
%TO.N,+3V3*%
X97300000Y-37600000D03*
%TO.P,U8,10,Vdd_IO*%
X97300000Y-37100000D03*
D58*
%TO.P,U8,11,NC*%
%TO.N,unconnected-(U8-NC-Pad11)*%
X96787500Y-37087500D03*
%TO.P,U8,12,NC*%
%TO.N,unconnected-(U8-NC-Pad12)*%
X96287500Y-37087500D03*
%TD*%
D27*
%TO.P,C4,1*%
%TO.N,+3V3*%
X93000000Y-76562500D03*
%TO.P,C4,2*%
%TO.N,GND*%
X93000000Y-74837500D03*
%TD*%
D15*
%TO.P,R20,1*%
%TO.N,SYNC*%
X148300000Y-46287500D03*
%TO.P,R20,2*%
%TO.N,Net-(D1-K)*%
X148300000Y-48112500D03*
%TD*%
%TO.P,R12,1*%
%TO.N,Net-(Q6-D)*%
X147320000Y-72112500D03*
%TO.P,R12,2*%
%TO.N,Net-(Q10-G)*%
X147320000Y-73937500D03*
%TD*%
D59*
%TO.P,L2,1,1*%
%TO.N,Net-(IC1-L2)*%
X143475000Y-50300000D03*
%TO.P,L2,2,2*%
%TO.N,Net-(IC1-L1)*%
X145625000Y-50300000D03*
%TD*%
D28*
%TO.P,R42,1*%
%TO.N,/BATT_SENSE*%
X145137500Y-35250000D03*
%TO.P,R42,2*%
%TO.N,+BATT*%
X146962500Y-35250000D03*
%TD*%
D60*
%TO.P,Q12,1,D*%
%TO.N,/Pyro/PYRO3*%
X147609000Y-57674000D03*
%TO.P,Q12,2,D*%
X146959000Y-57674000D03*
%TO.P,Q12,3,G*%
%TO.N,Net-(Q12-G)*%
X146309000Y-57674000D03*
%TO.P,Q12,4,S*%
%TO.N,/Pyro/PYRO_HIGH*%
X146309000Y-59674000D03*
%TO.P,Q12,5,D*%
%TO.N,/Pyro/PYRO3*%
X146959000Y-59674000D03*
%TO.P,Q12,6,D*%
X147609000Y-59674000D03*
D61*
%TO.P,Q12,7,D*%
X147249000Y-58654000D03*
D62*
%TO.P,Q12,8,S*%
%TO.N,/Pyro/PYRO_HIGH*%
X146269000Y-58674000D03*
%TD*%
D27*
%TO.P,C22,1*%
%TO.N,+3V3*%
X138950000Y-48162500D03*
%TO.P,C22,2*%
%TO.N,GND*%
X138950000Y-46437500D03*
%TD*%
D63*
%TO.P,C29,1*%
%TO.N,GND*%
X104609880Y-37190120D03*
%TO.P,C29,2*%
%TO.N,+3V3*%
X103390120Y-38409880D03*
%TD*%
D40*
%TO.P,R41,1*%
%TO.N,GND*%
X146962500Y-36800000D03*
%TO.P,R41,2*%
%TO.N,/BATT_SENSE*%
X145137500Y-36800000D03*
%TD*%
D25*
%TO.P,C20,1*%
%TO.N,GND*%
X143637500Y-42050000D03*
%TO.P,C20,2*%
%TO.N,Net-(IC1-VAUX)*%
X145362500Y-42050000D03*
%TD*%
D30*
%TO.P,R33,1*%
%TO.N,GND*%
X143510000Y-59840500D03*
%TO.P,R33,2*%
%TO.N,Net-(Q2-G)*%
X143510000Y-58015500D03*
%TD*%
D64*
%TO.P,TP2,1,1*%
%TO.N,VUSB*%
X92875000Y-35950000D03*
%TD*%
D15*
%TO.P,R28,1*%
%TO.N,GND*%
X141950000Y-68687500D03*
%TO.P,R28,2*%
%TO.N,Net-(Q6-G)*%
X141950000Y-70512500D03*
%TD*%
D27*
%TO.P,C28,1*%
%TO.N,GND*%
X119400001Y-38443200D03*
%TO.P,C28,2*%
%TO.N,+3V3*%
X119400001Y-36718200D03*
%TD*%
D15*
%TO.P,R5,1*%
%TO.N,Net-(U1-USB_DP)*%
X106800000Y-66850000D03*
%TO.P,R5,2*%
%TO.N,D+*%
X106800000Y-68675000D03*
%TD*%
D30*
%TO.P,R21,1*%
%TO.N,Net-(IC1-FB)*%
X140500000Y-44762500D03*
%TO.P,R21,2*%
%TO.N,+3V3*%
X140500000Y-42937500D03*
%TD*%
D27*
%TO.P,C31,1*%
%TO.N,+3V3*%
X109600000Y-77362500D03*
%TO.P,C31,2*%
%TO.N,GND*%
X109600000Y-75637500D03*
%TD*%
D25*
%TO.P,C33,1*%
%TO.N,Net-(U8-C1)*%
X95337500Y-40100000D03*
%TO.P,C33,2*%
%TO.N,GND*%
X97062500Y-40100000D03*
%TD*%
D15*
%TO.P,R34,1*%
%TO.N,Net-(Q12-G)*%
X145034000Y-58015500D03*
%TO.P,R34,2*%
%TO.N,/Pyro/PYRO_HIGH*%
X145034000Y-59840500D03*
%TD*%
D31*
%TO.P,Q7,1,G*%
%TO.N,Net-(Q7-G)*%
X141864000Y-66850500D03*
%TO.P,Q7,2,S*%
%TO.N,GND*%
X143764000Y-66850500D03*
%TO.P,Q7,3,D*%
%TO.N,Net-(Q7-D)*%
X142814000Y-64975500D03*
%TD*%
D27*
%TO.P,C19,1*%
%TO.N,+3V3*%
X135850000Y-48162500D03*
%TO.P,C19,2*%
%TO.N,GND*%
X135850000Y-46437500D03*
%TD*%
D15*
%TO.P,R17,1*%
%TO.N,Net-(Q2-D)*%
X147193000Y-54205500D03*
%TO.P,R17,2*%
%TO.N,Net-(Q12-G)*%
X147193000Y-56030500D03*
%TD*%
D30*
%TO.P,R29,1*%
%TO.N,GND*%
X141224000Y-63523500D03*
%TO.P,R29,2*%
%TO.N,/PYRO_SENSE*%
X141224000Y-61698500D03*
%TD*%
D24*
%TO.P,J6,1,Pin_1*%
%TO.N,+3V3*%
X87700000Y-44660000D03*
D23*
%TO.P,J6,2,Pin_2*%
X85160000Y-44660000D03*
%TO.P,J6,3,Pin_3*%
%TO.N,/SWDCLK*%
X87700000Y-47200000D03*
%TO.P,J6,4,Pin_4*%
%TO.N,PPS*%
X85160000Y-47200000D03*
%TO.P,J6,5,Pin_5*%
%TO.N,/SWDIO*%
X87700000Y-49740000D03*
%TO.P,J6,6,Pin_6*%
%TO.N,BOOTSEL*%
X85160000Y-49740000D03*
%TO.P,J6,7,Pin_7*%
%TO.N,/GPIO39*%
X87700000Y-52280000D03*
%TO.P,J6,8,Pin_8*%
%TO.N,/RESET*%
X85160000Y-52280000D03*
%TO.P,J6,9,Pin_9*%
%TO.N,/GPIO41*%
X87700000Y-54820000D03*
%TO.P,J6,10,Pin_10*%
%TO.N,/GPIO42*%
X85160000Y-54820000D03*
%TO.P,J6,11,Pin_11*%
%TO.N,/GPIO43*%
X87700000Y-57360000D03*
%TO.P,J6,12,Pin_12*%
%TO.N,/GPIO44*%
X85160000Y-57360000D03*
%TO.P,J6,13,Pin_13*%
%TO.N,/GPIO46*%
X87700000Y-59900000D03*
%TO.P,J6,14,Pin_14*%
%TO.N,/GPIO45*%
X85160000Y-59900000D03*
%TO.P,J6,15,Pin_15*%
%TO.N,GND*%
X87700000Y-62440000D03*
%TO.P,J6,16,Pin_16*%
X85160000Y-62440000D03*
%TD*%
D24*
%TO.P,J5,1,Pin_1*%
%TO.N,+3V3*%
X123000000Y-44760000D03*
D23*
%TO.P,J5,2,Pin_2*%
X120460000Y-44760000D03*
%TO.P,J5,3,Pin_3*%
%TO.N,/PWM4*%
X123000000Y-47300000D03*
%TO.P,J5,4,Pin_4*%
%TO.N,/PWM1*%
X120460000Y-47300000D03*
%TO.P,J5,5,Pin_5*%
%TO.N,/PWM2*%
X123000000Y-49840000D03*
%TO.P,J5,6,Pin_6*%
%TO.N,/PWM3*%
X120460000Y-49840000D03*
%TO.P,J5,7,Pin_7*%
%TO.N,GND*%
X123000000Y-52380000D03*
%TO.P,J5,8,Pin_8*%
%TO.N,/GPIO20*%
X120460000Y-52380000D03*
%TO.P,J5,9,Pin_9*%
%TO.N,/RX_GPS*%
X123000000Y-54920000D03*
%TO.P,J5,10,Pin_10*%
%TO.N,/TX_GPS*%
X120460000Y-54920000D03*
%TO.P,J5,11,Pin_11*%
%TO.N,HIL_TX*%
X123000000Y-57460000D03*
%TO.P,J5,12,Pin_12*%
%TO.N,HIL_RX*%
X120460000Y-57460000D03*
%TO.P,J5,13,Pin_13*%
%TO.N,GND*%
X123000000Y-60000000D03*
%TO.P,J5,14,Pin_14*%
X120460000Y-60000000D03*
%TO.P,J5,15,Pin_15*%
%TO.N,/SDA_RADIO*%
X123000000Y-62540000D03*
%TO.P,J5,16,Pin_16*%
%TO.N,/SCL_RADIO*%
X120460000Y-62540000D03*
%TD*%
D65*
%TO.P,USB1,17,EH*%
%TO.N,GND*%
X78175000Y-43755000D03*
D66*
%TO.P,USB1,18,EH*%
X74795000Y-43755000D03*
%TO.P,USB1,19,EH*%
X74795000Y-52395000D03*
D65*
%TO.P,USB1,20,EH*%
X78175000Y-52395000D03*
D67*
%TO.P,USB1,A1,GND*%
X79155000Y-51045000D03*
%TO.P,USB1,A4,VBUS*%
%TO.N,VUSB*%
X79155000Y-50195000D03*
%TO.P,USB1,A5,CC1*%
%TO.N,Net-(USB1-CC1)*%
X79155000Y-49345000D03*
%TO.P,USB1,A6,DP1*%
%TO.N,D+*%
X79155000Y-48495000D03*
%TO.P,USB1,A7,DN1*%
%TO.N,D-*%
X79155000Y-47645000D03*
%TO.P,USB1,A8,SBU1*%
%TO.N,unconnected-(USB1-SBU1-PadA8)*%
X79155000Y-46795000D03*
%TO.P,USB1,A9,VBUS*%
%TO.N,VUSB*%
X79155000Y-45945000D03*
%TO.P,USB1,A12,GND*%
%TO.N,GND*%
X79155000Y-45095000D03*
%TO.P,USB1,B1,GND*%
X77805000Y-45095000D03*
%TO.P,USB1,B4,VBUS*%
%TO.N,VUSB*%
X77805000Y-45945000D03*
%TO.P,USB1,B5,CC2*%
%TO.N,Net-(USB1-CC2)*%
X77805000Y-46795000D03*
%TO.P,USB1,B6,DP2*%
%TO.N,D+*%
X77805000Y-47645000D03*
%TO.P,USB1,B7,DN2*%
%TO.N,D-*%
X77805000Y-48495000D03*
%TO.P,USB1,B8,SBU2*%
%TO.N,unconnected-(USB1-SBU2-PadB8)*%
X77805000Y-49345000D03*
%TO.P,USB1,B9,VBUS*%
%TO.N,VUSB*%
X77805000Y-50195000D03*
%TO.P,USB1,B12,GND*%
%TO.N,GND*%
X77805000Y-51045000D03*
%TD*%
D68*
%TO.P,J8,1,1*%
%TO.N,unconnected-(J8-Pad1)*%
X151264452Y-40651100D03*
%TO.P,J8,2,2*%
%TO.N,unconnected-(J8-Pad2)*%
X151264452Y-38151100D03*
%TO.P,J8,3,3*%
%TO.N,+BATT*%
X153764452Y-40651100D03*
%TO.P,J8,4,4*%
%TO.N,GND*%
X153764452Y-38151100D03*
%TD*%
D69*
%TO.N,+1V1*%
X105150000Y-49575000D03*
X97711801Y-57573199D03*
X114412500Y-57600000D03*
%TO.N,VUSB*%
X95337500Y-34662500D03*
X150462000Y-47200000D03*
%TO.N,+BATT*%
X151800000Y-42300000D03*
%TO.N,/microSD/_CLK*%
X120200000Y-70275000D03*
%TO.N,/microSD/_DAT1*%
X122562500Y-70362500D03*
%TO.N,/microSD/_DAT0*%
X121000000Y-69925000D03*
%TO.N,/SD_detect*%
X116593538Y-63481462D03*
X113075000Y-65275000D03*
%TO.N,/PWM3*%
X113825000Y-45171318D03*
X125950000Y-49025000D03*
%TO.N,/PWM1*%
X118068801Y-47305199D03*
X124975000Y-48375000D03*
X113900027Y-46425000D03*
%TO.N,/PWM4*%
X113930699Y-44580699D03*
X126175000Y-47300000D03*
%TO.N,/PWM2*%
X113881493Y-45768655D03*
X126000000Y-49850000D03*
%TO.N,/SCL_RADIO*%
X109676000Y-64687396D03*
%TO.N,/SDA_RADIO*%
X110696649Y-64925000D03*
%TO.N,HIL_RX*%
X112400000Y-58825000D03*
%TO.N,/Pyro/PYRO_LOW*%
X140925000Y-56475000D03*
%TO.N,/Pyro/PYRO_HIGH*%
X146325000Y-65300000D03*
X140875000Y-52850000D03*
X145650000Y-58825000D03*
X140875000Y-54375000D03*
X140875000Y-53600000D03*
X145775000Y-74275000D03*
%TO.N,/PYRO_SENSE*%
X115475000Y-61300000D03*
X98946012Y-56867593D03*
%TO.N,/PYRO_ENABLE*%
X99050000Y-54578814D03*
X114575000Y-60475000D03*
%TO.N,/PYRO_FIRE_1*%
X97837500Y-55712500D03*
X123625000Y-66101000D03*
%TO.N,/PYRO_FIRE_2*%
X98425000Y-55479814D03*
X117375000Y-63600000D03*
%TO.N,/PYRO_FIRE_3*%
X98775783Y-55966593D03*
X117130699Y-60744301D03*
%TO.N,/SD_DAT2*%
X116750000Y-64700000D03*
X116633059Y-66000000D03*
%TO.N,/SD_DAT3*%
X117400000Y-66025000D03*
X117400000Y-64675000D03*
%TO.N,/microSD/_CMD*%
X118200000Y-69975000D03*
%TO.N,/RESET*%
X83575000Y-64575000D03*
%TO.N,/IMU_INT2*%
X112125000Y-47250000D03*
X118961395Y-40900000D03*
%TO.N,/IMU45_INT2*%
X107125000Y-40575000D03*
X112269301Y-53474000D03*
%TO.N,/SPI1.RX*%
X114900000Y-39475000D03*
X112481801Y-37493199D03*
%TO.N,Net-(D5-A)*%
X73412500Y-59700000D03*
%TO.N,/IMU_CS*%
X113275000Y-48400000D03*
X121775000Y-40900000D03*
%TO.N,/SPI1.CK*%
X110536354Y-40236354D03*
X112075000Y-56325000D03*
X111837500Y-38787500D03*
X111675000Y-42350000D03*
X122350707Y-39825706D03*
%TO.N,/MAG_CS*%
X112625962Y-44009021D03*
X112625000Y-56725000D03*
X93549000Y-39650000D03*
X94650000Y-38150000D03*
%TO.N,/IMU45_INT1*%
X112050000Y-54375000D03*
X109356801Y-35481801D03*
%TO.N,Net-(D6-A)*%
X73412500Y-57950000D03*
%TO.N,/IMU_INT1*%
X115425000Y-41700000D03*
X113074000Y-47175000D03*
%TO.N,/BARO_INT*%
X102825000Y-50150000D03*
X111742705Y-35329603D03*
%TO.N,/SPI1.TX*%
X122975000Y-39825000D03*
X114375000Y-40875000D03*
%TO.N,Net-(D7-A)*%
X73412500Y-56200000D03*
%TO.N,/BARO_CS*%
X111025000Y-35825000D03*
X102950000Y-50900000D03*
%TO.N,/IMU45_CS*%
X113175000Y-58025000D03*
X108550000Y-40475000D03*
%TO.N,Net-(Q3-D)*%
X95275000Y-69000000D03*
%TO.N,/BUZZ*%
X92350000Y-60450000D03*
X98800000Y-53675000D03*
%TO.N,/L_RED*%
X90225000Y-53175000D03*
X79450000Y-56600000D03*
%TO.N,/L_GREEN*%
X90250000Y-53800000D03*
X80125000Y-57400000D03*
%TO.N,/L_BLUE*%
X90925000Y-54000000D03*
X79825000Y-58925000D03*
%TO.N,+3V3*%
X93000000Y-76575000D03*
X140500000Y-42937500D03*
X113500000Y-59825000D03*
X124625000Y-35251000D03*
X101037500Y-36487500D03*
X111700000Y-36075000D03*
X140500000Y-48162500D03*
X113600000Y-55325000D03*
X106625000Y-74837500D03*
X138950000Y-48162500D03*
X119675000Y-75050000D03*
X108000000Y-63575000D03*
X88250000Y-69100000D03*
X118845000Y-64460000D03*
X111050000Y-76850000D03*
X148225000Y-42512500D03*
X104850000Y-35400000D03*
X103390120Y-38409880D03*
X119400001Y-36718200D03*
X108440120Y-51209880D03*
X111425000Y-70200000D03*
X98625000Y-61900000D03*
X105150000Y-63587249D03*
X96887500Y-65200000D03*
X98950000Y-52950000D03*
X127612500Y-62500000D03*
X137400000Y-48162500D03*
X107500000Y-48775000D03*
X103662500Y-64787500D03*
X126875000Y-69375000D03*
X135850000Y-48162500D03*
X127600000Y-64100000D03*
X97700000Y-56925000D03*
%TO.N,/RX_GPS*%
X114025000Y-54650000D03*
%TO.N,/TX_GPS*%
X114125000Y-54050000D03*
%TO.N,PPS*%
X89625000Y-51675000D03*
%TO.N,HIL_TX*%
X113200000Y-59100000D03*
%TO.N,/GPIO20*%
X113925000Y-49600000D03*
%TO.N,/BATT_SENSE*%
X143525000Y-38250000D03*
X99318301Y-60620304D03*
%TO.N,GND*%
X137400000Y-46437500D03*
X116137500Y-57600000D03*
X74987500Y-56200000D03*
X105050000Y-58225000D03*
X135850000Y-46437500D03*
X146962500Y-36800000D03*
X125150000Y-76500000D03*
X138950000Y-46437500D03*
X94737500Y-57575000D03*
X135900000Y-60112500D03*
X142300000Y-72600000D03*
X94937500Y-56100000D03*
X108252000Y-67375000D03*
X138406500Y-67818000D03*
X101925000Y-66300000D03*
X119400001Y-38443200D03*
X74987500Y-59700000D03*
X73850000Y-70712500D03*
X126225000Y-67000000D03*
X107350000Y-45475000D03*
X143510000Y-59840500D03*
X102600000Y-43737500D03*
X95837500Y-53600000D03*
X140500000Y-46437500D03*
X111600000Y-68812500D03*
X143637500Y-42050000D03*
X146725000Y-45300000D03*
X74987500Y-57950000D03*
X139175000Y-61575000D03*
X112490000Y-76985000D03*
X107500000Y-47037500D03*
X120400000Y-35251000D03*
X89000000Y-66912500D03*
X93000000Y-74837500D03*
X109659880Y-49990120D03*
X106600000Y-58225000D03*
X112575000Y-39751000D03*
X101037500Y-38212500D03*
X95737500Y-61900000D03*
X110950000Y-75175000D03*
X105050000Y-43725000D03*
X121870000Y-77000000D03*
X141950000Y-68687500D03*
X104750000Y-72600000D03*
X105800000Y-57375000D03*
X104609880Y-37190120D03*
X104850000Y-56300000D03*
X90475000Y-68925000D03*
X73875000Y-62500000D03*
X109800000Y-45400000D03*
X144500000Y-48575000D03*
X115562500Y-55600000D03*
X115350000Y-35775000D03*
X97062500Y-40100000D03*
X138750000Y-42937500D03*
X73887500Y-47200000D03*
X101937500Y-64787500D03*
X116237500Y-59575000D03*
X106400000Y-56225000D03*
X96937500Y-63700000D03*
X141224000Y-63523500D03*
X95637500Y-35800000D03*
X112925000Y-68300000D03*
%TO.N,/microSD/_DAT2*%
X115700000Y-70625000D03*
%TO.N,/microSD/_DAT3*%
X117375000Y-69850000D03*
%TO.N,BOOTSEL*%
X83126000Y-60925000D03*
X81625000Y-62500000D03*
%TD*%
D70*
%TO.N,+1V1*%
X114387500Y-57575000D02*
X110750000Y-57575000D01*
X99250000Y-57675000D02*
X99350000Y-57575000D01*
X110750000Y-57575000D02*
X108050000Y-57575000D01*
X103650100Y-68300000D02*
X103650100Y-66300100D01*
X103600000Y-60000000D02*
X103950000Y-59650000D01*
X105200000Y-52425000D02*
X105200000Y-55100000D01*
X105200000Y-49725000D02*
X105200000Y-52425000D01*
X99350000Y-57575000D02*
X100850000Y-57575000D01*
X104426000Y-64351000D02*
X104426000Y-65524000D01*
X103650100Y-66300100D02*
X103650000Y-66300000D01*
X114412500Y-57600000D02*
X114387500Y-57575000D01*
X105150000Y-49575000D02*
X105150000Y-49675000D01*
X105150000Y-49675000D02*
X105200000Y-49725000D01*
X104426000Y-65524000D02*
X103650000Y-66300000D01*
X103600000Y-62325000D02*
X103600000Y-63525000D01*
X100850000Y-57575000D02*
X103350000Y-57575000D01*
X97813602Y-57675000D02*
X99250000Y-57675000D01*
X103600000Y-63525000D02*
X104426000Y-64351000D01*
X97711801Y-57573199D02*
X97813602Y-57675000D01*
X103600000Y-62325000D02*
X103600000Y-60000000D01*
%TO.N,/LX*%
X102800000Y-62325000D02*
X102800000Y-67150320D01*
X102049900Y-67900420D02*
X102049900Y-68300000D01*
X102800000Y-67150320D02*
X102049900Y-67900420D01*
%TO.N,/AVDD*%
X102000000Y-62900000D02*
X101200000Y-63700000D01*
X98662500Y-65150000D02*
X98712500Y-65200000D01*
X102000000Y-62325000D02*
X102000000Y-62900000D01*
X101200000Y-63700000D02*
X98662500Y-63700000D01*
X98662500Y-63700000D02*
X98662500Y-65150000D01*
%TO.N,/XIN*%
X107350000Y-43725000D02*
X109750000Y-43725000D01*
X106000000Y-49175311D02*
X106000000Y-52425000D01*
X108625000Y-46550311D02*
X106000000Y-49175311D01*
X107350000Y-43725000D02*
X108325000Y-43725000D01*
X108625000Y-44025000D02*
X108625000Y-46550311D01*
X109750000Y-43725000D02*
X109800000Y-43675000D01*
X108325000Y-43725000D02*
X108625000Y-44025000D01*
%TO.N,Net-(C17-Pad2)*%
X105037500Y-45462500D02*
X105050000Y-45475000D01*
X102600000Y-45462500D02*
X102600000Y-46612500D01*
X102600000Y-45462500D02*
X105037500Y-45462500D01*
X102600000Y-46612500D02*
X103787500Y-47800000D01*
%TO.N,Net-(IC1-VAUX)*%
X144250000Y-44125000D02*
X145362500Y-43012500D01*
X144250000Y-45349000D02*
X144250000Y-44125000D01*
X145362500Y-43012500D02*
X145362500Y-42050000D01*
%TO.N,Net-(U8-C1)*%
X96287500Y-38612500D02*
X96287500Y-39187500D01*
X95375000Y-40100000D02*
X95337500Y-40100000D01*
X96287500Y-39187500D02*
X95375000Y-40100000D01*
%TO.N,VUSB*%
X92875000Y-35950000D02*
X94050000Y-35950000D01*
X94050000Y-35950000D02*
X95337500Y-34662500D01*
%TO.N,Net-(D1-K)*%
X146950000Y-47275000D02*
X147787500Y-48112500D01*
X145900000Y-46775000D02*
X146450000Y-46775000D01*
X148487500Y-48300000D02*
X149531500Y-48300000D01*
X145900000Y-47275000D02*
X146950000Y-47275000D01*
X149531500Y-47218500D02*
X149550000Y-47200000D01*
X148300000Y-48112500D02*
X148487500Y-48300000D01*
X147787500Y-48112500D02*
X148300000Y-48112500D01*
X149531500Y-48300000D02*
X149531500Y-47218500D01*
X146450000Y-46775000D02*
X146950000Y-47275000D01*
D71*
%TO.N,+BATT*%
X134025000Y-56150000D02*
X134025000Y-54905000D01*
D70*
X149125000Y-35900000D02*
X149125000Y-40525000D01*
D71*
X132475000Y-57700000D02*
X134025000Y-56150000D01*
D70*
X132040000Y-55000000D02*
X133930000Y-55000000D01*
D71*
X148035000Y-40410000D02*
X143510000Y-40410000D01*
X132805000Y-41580000D02*
X130470000Y-39245000D01*
X153764452Y-40651100D02*
X153764452Y-42510548D01*
X153764452Y-42510548D02*
X152875000Y-43400000D01*
D70*
X150443500Y-48300000D02*
X152720000Y-48300000D01*
X152720000Y-48300000D02*
X152920000Y-48500000D01*
X133930000Y-55000000D02*
X134025000Y-54905000D01*
X151750000Y-42350000D02*
X151800000Y-42300000D01*
X149125000Y-40525000D02*
X150950000Y-42350000D01*
D71*
X143510000Y-40410000D02*
X142340000Y-41580000D01*
X142340000Y-41580000D02*
X132805000Y-41580000D01*
X128175000Y-57700000D02*
X132475000Y-57700000D01*
X126800000Y-56325000D02*
X128175000Y-57700000D01*
X130470000Y-39245000D02*
X126800000Y-42915000D01*
D70*
X148475000Y-35250000D02*
X149125000Y-35900000D01*
D71*
X152875000Y-43400000D02*
X151025000Y-43400000D01*
X126800000Y-42915000D02*
X126800000Y-56325000D01*
X151025000Y-43400000D02*
X148035000Y-40410000D01*
D70*
X150950000Y-42350000D02*
X151750000Y-42350000D01*
X146962500Y-35250000D02*
X148475000Y-35250000D01*
%TO.N,PG*%
X148112500Y-44225000D02*
X148225000Y-44337500D01*
X144750000Y-44750000D02*
X145275000Y-44225000D01*
X145275000Y-44225000D02*
X148112500Y-44225000D01*
X144750000Y-45349000D02*
X144750000Y-44750000D01*
%TO.N,Net-(IC1-L1)*%
X145625000Y-48875000D02*
X145625000Y-50300000D01*
X145000000Y-47275000D02*
X145000000Y-48250000D01*
X145000000Y-48250000D02*
X145625000Y-48875000D01*
%TO.N,Net-(IC1-L2)*%
X144000000Y-48275000D02*
X143475000Y-48800000D01*
X144000000Y-47275000D02*
X144000000Y-48275000D01*
X143475000Y-48800000D02*
X143475000Y-50300000D01*
%TO.N,SYNC*%
X146387500Y-46287500D02*
X147500000Y-46287500D01*
X146850000Y-44600000D02*
X145525000Y-44600000D01*
X148300000Y-46050000D02*
X146850000Y-44600000D01*
X145525000Y-44600000D02*
X145250000Y-44875000D01*
X145900000Y-46275000D02*
X146375000Y-46275000D01*
X148300000Y-46287500D02*
X148300000Y-46050000D01*
X147500000Y-46287500D02*
X148300000Y-46287500D01*
X146375000Y-46275000D02*
X146387500Y-46287500D01*
X145250000Y-44875000D02*
X145250000Y-45349000D01*
%TO.N,Net-(IC1-FB)*%
X141162500Y-44762500D02*
X140500000Y-44762500D01*
X138750000Y-44762500D02*
X140500000Y-44762500D01*
X142175000Y-45775000D02*
X141162500Y-44762500D01*
X143100000Y-45775000D02*
X142175000Y-45775000D01*
%TO.N,D+*%
X78920000Y-48495000D02*
X79155000Y-48495000D01*
D72*
X82126000Y-49705720D02*
X80695280Y-48275000D01*
X80695280Y-48275000D02*
X79375000Y-48275000D01*
D70*
X79155000Y-48495000D02*
X79160000Y-48500000D01*
D72*
X82126000Y-65801000D02*
X82126000Y-49705720D01*
X106200000Y-69928180D02*
X104953180Y-71175000D01*
D70*
X78070000Y-47645000D02*
X78920000Y-48495000D01*
D72*
X106550000Y-68675000D02*
X106200000Y-69025000D01*
X106800000Y-68675000D02*
X106550000Y-68675000D01*
X79375000Y-48275000D02*
X79155000Y-48495000D01*
X104953180Y-71175000D02*
X87500000Y-71175000D01*
D70*
X77805000Y-47645000D02*
X78070000Y-47645000D01*
D72*
X87500000Y-71175000D02*
X82126000Y-65801000D01*
X106200000Y-69025000D02*
X106200000Y-69928180D01*
D70*
X78945000Y-48495000D02*
X79155000Y-48495000D01*
D72*
%TO.N,D-*%
X105225000Y-68675000D02*
X105425000Y-68675000D01*
X80861380Y-47874000D02*
X79384000Y-47874000D01*
X104787080Y-70774000D02*
X87666100Y-70774000D01*
X79384000Y-47874000D02*
X79155000Y-47645000D01*
X105425000Y-68675000D02*
X105799000Y-69049000D01*
X87666100Y-70774000D02*
X82527000Y-65634900D01*
X82527000Y-65634900D02*
X82527000Y-49539620D01*
X105799000Y-69049000D02*
X105799000Y-69762080D01*
X105799000Y-69762080D02*
X104787080Y-70774000D01*
X82527000Y-49539620D02*
X80861380Y-47874000D01*
D70*
%TO.N,Net-(USB1-CC1)*%
X80545000Y-49345000D02*
X81175000Y-49975000D01*
X79155000Y-49345000D02*
X80545000Y-49345000D01*
%TO.N,Net-(USB1-CC2)*%
X75712500Y-47200000D02*
X76225000Y-47200000D01*
X76630000Y-46795000D02*
X77805000Y-46795000D01*
X76225000Y-47200000D02*
X76630000Y-46795000D01*
%TO.N,/microSD/_CLK*%
X121925000Y-72000000D02*
X123600000Y-72000000D01*
X120200000Y-70275000D02*
X120200000Y-68800000D01*
X120200000Y-70275000D02*
X121925000Y-72000000D01*
%TO.N,/microSD/_DAT1*%
X122562500Y-70362500D02*
X122600000Y-70400000D01*
X121800000Y-69600000D02*
X122562500Y-70362500D01*
X122600000Y-70400000D02*
X123600000Y-70400000D01*
X121800000Y-68800000D02*
X121800000Y-69600000D01*
%TO.N,/microSD/_DAT0*%
X121000000Y-69900000D02*
X122300000Y-71200000D01*
X121000000Y-68800000D02*
X121000000Y-69900000D01*
X122300000Y-71200000D02*
X123600000Y-71200000D01*
%TO.N,/SD_detect*%
X112975000Y-58500000D02*
X112850000Y-58375000D01*
X114000000Y-60625000D02*
X114000000Y-59175000D01*
X111575000Y-66962500D02*
X111600000Y-66987500D01*
X113325000Y-58500000D02*
X112975000Y-58500000D01*
X112850000Y-58375000D02*
X110750000Y-58375000D01*
X111575000Y-66775000D02*
X111575000Y-66962500D01*
X116593538Y-63218538D02*
X114000000Y-60625000D01*
X114000000Y-59175000D02*
X113325000Y-58500000D01*
X116593538Y-63481462D02*
X116593538Y-63218538D01*
X113075000Y-65275000D02*
X111575000Y-66775000D01*
%TO.N,/GPIO42*%
X86375000Y-56050000D02*
X86375000Y-56035000D01*
X88225000Y-56050000D02*
X86375000Y-56050000D01*
X99550678Y-58375000D02*
X99475678Y-58450000D01*
X90625000Y-58450000D02*
X88225000Y-56050000D01*
X99475678Y-58450000D02*
X90625000Y-58450000D01*
X100850000Y-58375000D02*
X99550678Y-58375000D01*
X86375000Y-56035000D02*
X85160000Y-54820000D01*
%TO.N,/PWM3*%
X112254360Y-45171318D02*
X113825000Y-45171318D01*
X123975000Y-49025000D02*
X123675000Y-48725000D01*
X121575000Y-48725000D02*
X120460000Y-49840000D01*
X123675000Y-48725000D02*
X121575000Y-48725000D01*
X107200000Y-52425000D02*
X107200000Y-50225678D01*
X112250339Y-45175339D02*
X112254360Y-45171318D01*
X107200000Y-50225678D02*
X112250339Y-45175339D01*
X125950000Y-49025000D02*
X123975000Y-49025000D01*
%TO.N,/PWM1*%
X118068801Y-47305199D02*
X118194801Y-47305199D01*
X118200000Y-47300000D02*
X120460000Y-47300000D01*
X121585000Y-48425000D02*
X120460000Y-47300000D01*
X118194801Y-47305199D02*
X118200000Y-47300000D01*
X107989120Y-52414120D02*
X108000000Y-52425000D01*
X124975000Y-48375000D02*
X124925000Y-48425000D01*
X107989120Y-50385880D02*
X107989120Y-52414120D01*
X113900027Y-46425000D02*
X111950000Y-46425000D01*
X124925000Y-48425000D02*
X121585000Y-48425000D01*
X111950000Y-46425000D02*
X107989120Y-50385880D01*
%TO.N,/PWM4*%
X106800000Y-50200000D02*
X108700000Y-48300000D01*
X123000000Y-47300000D02*
X126175000Y-47300000D01*
X112419301Y-44580699D02*
X113930699Y-44580699D01*
X108700000Y-48300000D02*
X112419301Y-44580699D01*
X106800000Y-52425000D02*
X106800000Y-50200000D01*
%TO.N,/PWM2*%
X123000000Y-49840000D02*
X125990000Y-49840000D01*
X112200000Y-45700000D02*
X113812838Y-45700000D01*
X113812838Y-45700000D02*
X113881493Y-45768655D01*
X107600000Y-52425000D02*
X107600000Y-50300000D01*
X107600000Y-50300000D02*
X112200000Y-45700000D01*
X125990000Y-49840000D02*
X126000000Y-49850000D01*
%TO.N,/SCL_RADIO*%
X124587500Y-61300000D02*
X125787500Y-62500000D01*
X120460000Y-62540000D02*
X121700000Y-61300000D01*
X109676000Y-64687396D02*
X109423794Y-64687396D01*
X121700000Y-61300000D02*
X124587500Y-61300000D01*
X109423794Y-64687396D02*
X108800000Y-64063602D01*
X108800000Y-64063602D02*
X108800000Y-62325000D01*
%TO.N,/SDA_RADIO*%
X108451000Y-64351000D02*
X108451000Y-62376000D01*
X108451000Y-62376000D02*
X108400000Y-62325000D01*
X123000000Y-62540000D02*
X124560000Y-64100000D01*
X110696649Y-64925000D02*
X110171649Y-65450000D01*
X124560000Y-64100000D02*
X125775000Y-64100000D01*
X110171649Y-65450000D02*
X109550000Y-65450000D01*
X109550000Y-65450000D02*
X108451000Y-64351000D01*
%TO.N,HIL_RX*%
X112350000Y-58775000D02*
X110750000Y-58775000D01*
X112400000Y-58825000D02*
X112350000Y-58775000D01*
%TO.N,/GPIO44*%
X89150000Y-59175000D02*
X88425000Y-58450000D01*
X86250000Y-58450000D02*
X85160000Y-57360000D01*
X100850000Y-59175000D02*
X89150000Y-59175000D01*
X88425000Y-58450000D02*
X86250000Y-58450000D01*
%TO.N,/GPIO41*%
X100850000Y-57975000D02*
X99525000Y-57975000D01*
X99399000Y-58101000D02*
X90981000Y-58101000D01*
X90981000Y-58101000D02*
X87700000Y-54820000D01*
X99525000Y-57975000D02*
X99399000Y-58101000D01*
%TO.N,/GPIO43*%
X89175678Y-58775000D02*
X87760678Y-57360000D01*
X100850000Y-58775000D02*
X89175678Y-58775000D01*
X87760678Y-57360000D02*
X87700000Y-57360000D01*
D71*
%TO.N,/Pyro/PYRO_LOW*%
X139100000Y-56425000D02*
X140900000Y-56425000D01*
X141250000Y-56775000D02*
X141250000Y-58287500D01*
X140900000Y-56425000D02*
X141250000Y-56775000D01*
X138745000Y-57736500D02*
X138745000Y-56780000D01*
X138745000Y-56780000D02*
X139100000Y-56425000D01*
D70*
%TO.N,/Pyro/PYRO3*%
X146959000Y-57674000D02*
X146959000Y-58364000D01*
X146959000Y-58364000D02*
X147249000Y-58654000D01*
X146959000Y-59674000D02*
X146959000Y-58944000D01*
X147609000Y-59014000D02*
X147249000Y-58654000D01*
D71*
X152800000Y-60500000D02*
X151450000Y-60500000D01*
X152800000Y-60500000D02*
X157800000Y-60500000D01*
D70*
X146959000Y-58944000D02*
X147249000Y-58654000D01*
X147609000Y-59674000D02*
X147609000Y-59014000D01*
X147609000Y-57674000D02*
X147609000Y-58294000D01*
D71*
X149604000Y-58654000D02*
X147249000Y-58654000D01*
X151450000Y-60500000D02*
X149604000Y-58654000D01*
D70*
X147609000Y-58294000D02*
X147249000Y-58654000D01*
%TO.N,/Pyro/PYRO2*%
X147558000Y-66568000D02*
X146868000Y-66568000D01*
X145558000Y-67218000D02*
X146218000Y-67218000D01*
D71*
X152800000Y-67500000D02*
X148825000Y-67500000D01*
X148825000Y-67500000D02*
X148375000Y-67950000D01*
X148375000Y-67950000D02*
X147100000Y-67950000D01*
D70*
X146868000Y-66568000D02*
X146578000Y-66858000D01*
D71*
X146575000Y-66861000D02*
X146578000Y-66858000D01*
D70*
X146938000Y-67218000D02*
X146578000Y-66858000D01*
X146288000Y-66568000D02*
X146578000Y-66858000D01*
X145558000Y-66568000D02*
X146288000Y-66568000D01*
D71*
X152800000Y-67500000D02*
X157800000Y-67500000D01*
X147100000Y-67950000D02*
X146575000Y-67425000D01*
X146575000Y-67425000D02*
X146575000Y-66861000D01*
D70*
X146218000Y-67218000D02*
X146578000Y-66858000D01*
X147558000Y-67218000D02*
X146938000Y-67218000D01*
%TO.N,/Pyro/PYRO1*%
X145542000Y-76058000D02*
X146272000Y-76058000D01*
X146922000Y-76708000D02*
X146562000Y-76348000D01*
D71*
X152800000Y-74500000D02*
X151950000Y-74500000D01*
D70*
X147542000Y-76058000D02*
X146852000Y-76058000D01*
X146272000Y-76058000D02*
X146562000Y-76348000D01*
X146202000Y-76708000D02*
X146562000Y-76348000D01*
D71*
X152800000Y-74500000D02*
X157800000Y-74500000D01*
X147200000Y-77750000D02*
X146562000Y-77112000D01*
D70*
X145542000Y-76708000D02*
X146202000Y-76708000D01*
X147542000Y-76708000D02*
X146922000Y-76708000D01*
D71*
X151950000Y-74500000D02*
X148700000Y-77750000D01*
X148700000Y-77750000D02*
X147200000Y-77750000D01*
X146562000Y-77112000D02*
X146562000Y-76348000D01*
D70*
X146852000Y-76058000D02*
X146562000Y-76348000D01*
%TO.N,Net-(Q1-B)*%
X128825000Y-55950000D02*
X129560000Y-55950000D01*
X128160000Y-55285000D02*
X128825000Y-55950000D01*
X128160000Y-46205000D02*
X128160000Y-55285000D01*
%TO.N,/Pyro/PYRO_HIGH*%
X144145000Y-76330000D02*
X144145000Y-76477500D01*
X146309000Y-58714000D02*
X146269000Y-58674000D01*
D71*
X146558000Y-65533000D02*
X146325000Y-65300000D01*
D70*
X145558000Y-65918000D02*
X146518000Y-65918000D01*
X145668000Y-64643000D02*
X146325000Y-65300000D01*
X146518000Y-65918000D02*
X146558000Y-65878000D01*
D71*
X145801000Y-58674000D02*
X145650000Y-58825000D01*
X140075000Y-49975000D02*
X134625000Y-49975000D01*
D70*
X145542000Y-75408000D02*
X146502000Y-75408000D01*
X145368000Y-64643000D02*
X145668000Y-64643000D01*
D71*
X140875000Y-53600000D02*
X140875000Y-54375000D01*
D70*
X145067000Y-75408000D02*
X144145000Y-76330000D01*
D71*
X146542000Y-75042000D02*
X145775000Y-74275000D01*
X140875000Y-50775000D02*
X140075000Y-49975000D01*
X140875000Y-52850000D02*
X140875000Y-50775000D01*
X146269000Y-58674000D02*
X145801000Y-58674000D01*
X134625000Y-49975000D02*
X132740000Y-48090000D01*
X132740000Y-48090000D02*
X132740000Y-46205000D01*
X146558000Y-65878000D02*
X146558000Y-65533000D01*
D70*
X145034000Y-59840500D02*
X145034000Y-59441000D01*
D71*
X146542000Y-75368000D02*
X146542000Y-75042000D01*
D70*
X145542000Y-75408000D02*
X145067000Y-75408000D01*
X145034000Y-59441000D02*
X145650000Y-58825000D01*
X146309000Y-59674000D02*
X146309000Y-58714000D01*
X146502000Y-75408000D02*
X146542000Y-75368000D01*
D71*
X140875000Y-52850000D02*
X140875000Y-53600000D01*
D70*
%TO.N,Net-(Q5-G)*%
X137586500Y-59611500D02*
X136262500Y-58287500D01*
X137795000Y-59611500D02*
X137586500Y-59611500D01*
X134200000Y-58287500D02*
X135900000Y-58287500D01*
X136262500Y-58287500D02*
X135900000Y-58287500D01*
%TO.N,Net-(Q6-D)*%
X147216500Y-72009000D02*
X147320000Y-72112500D01*
X145590500Y-72009000D02*
X147216500Y-72009000D01*
%TO.N,Net-(Q6-G)*%
X141950000Y-70512500D02*
X142496500Y-71059000D01*
X143749500Y-71025000D02*
X145914500Y-71025000D01*
X145914500Y-71025000D02*
X146431000Y-70508500D01*
X142496500Y-71059000D02*
X143715500Y-71059000D01*
X143715500Y-71059000D02*
X143749500Y-71025000D01*
%TO.N,Net-(Q7-D)*%
X145391500Y-62992000D02*
X143758000Y-62992000D01*
X142814000Y-63936000D02*
X142814000Y-64975500D01*
X143758000Y-62992000D02*
X142814000Y-63936000D01*
%TO.N,Net-(Q7-G)*%
X140104500Y-66167000D02*
X140842000Y-66167000D01*
X140842000Y-66167000D02*
X141525500Y-66850500D01*
X140707000Y-67818000D02*
X141525000Y-67000000D01*
X141525000Y-67000000D02*
X141525000Y-66851000D01*
X141525500Y-66850500D02*
X141864000Y-66850500D01*
X140231500Y-67818000D02*
X140707000Y-67818000D01*
X141525000Y-66851000D02*
X141525500Y-66850500D01*
%TO.N,Net-(Q10-G)*%
X147320000Y-73937500D02*
X147181500Y-73799000D01*
X147181500Y-73799000D02*
X144998500Y-73799000D01*
X147542000Y-74159500D02*
X147320000Y-73937500D01*
X147542000Y-75408000D02*
X147542000Y-74159500D01*
X144998500Y-73799000D02*
X144145000Y-74652500D01*
%TO.N,Net-(Q11-G)*%
X147216500Y-62992000D02*
X147216500Y-64619500D01*
X147943000Y-64643000D02*
X148300000Y-65000000D01*
X147216500Y-64619500D02*
X147193000Y-64643000D01*
X147193000Y-64643000D02*
X147943000Y-64643000D01*
X148300000Y-65600000D02*
X147982000Y-65918000D01*
X148300000Y-65000000D02*
X148300000Y-65600000D01*
X147982000Y-65918000D02*
X147558000Y-65918000D01*
%TO.N,Net-(Q12-G)*%
X147193000Y-56432000D02*
X146309000Y-57316000D01*
X145601000Y-57674000D02*
X146309000Y-57674000D01*
X145259500Y-58015500D02*
X145601000Y-57674000D01*
X146309000Y-57316000D02*
X146309000Y-57674000D01*
X147193000Y-56030500D02*
X147193000Y-56432000D01*
X145034000Y-58015500D02*
X145259500Y-58015500D01*
%TO.N,/SS*%
X107600000Y-63337189D02*
X107549000Y-63388189D01*
X105675000Y-75712500D02*
X106625000Y-76662500D01*
X105675000Y-73875000D02*
X105675000Y-75712500D01*
X107550000Y-63948644D02*
X109628000Y-66026644D01*
X107549000Y-63524000D02*
X107550000Y-63525000D01*
X107549000Y-63388189D02*
X107549000Y-63524000D01*
X91350000Y-76637500D02*
X92562500Y-77850000D01*
X103187500Y-76705000D02*
X106582500Y-76705000D01*
X109628000Y-69922000D02*
X105675000Y-73875000D01*
X107550000Y-63525000D02*
X107550000Y-63948644D01*
X107600000Y-62325000D02*
X107600000Y-63337189D01*
X105437500Y-77850000D02*
X106625000Y-76662500D01*
X109628000Y-66026644D02*
X109628000Y-69922000D01*
X106582500Y-76705000D02*
X106625000Y-76662500D01*
X92562500Y-77850000D02*
X105437500Y-77850000D01*
%TO.N,/XOUT*%
X105600000Y-47812500D02*
X105612500Y-47800000D01*
X105600000Y-52425000D02*
X105600000Y-47812500D01*
%TO.N,Net-(U1-USB_DP)*%
X104400000Y-62325000D02*
X104400000Y-63473644D01*
X105075000Y-64148644D02*
X105075000Y-65125000D01*
X105075000Y-65125000D02*
X106800000Y-66850000D01*
X104400000Y-63473644D02*
X105075000Y-64148644D01*
%TO.N,Net-(U1-USB_DM)*%
X104000000Y-62325000D02*
X104000000Y-63499322D01*
X104000000Y-63499322D02*
X104774000Y-64273322D01*
X104774000Y-64273322D02*
X104774000Y-65249678D01*
X105225000Y-65700678D02*
X105225000Y-66850000D01*
X104774000Y-65249678D02*
X105225000Y-65700678D01*
%TO.N,Net-(R8-Pad1)*%
X134025000Y-51095000D02*
X132007500Y-51095000D01*
X132007500Y-51095000D02*
X131500000Y-50587500D01*
%TO.N,/PYRO_SENSE*%
X98946012Y-56867593D02*
X98946012Y-56867590D01*
X123325000Y-65350000D02*
X137550000Y-65350000D01*
X141250000Y-60112500D02*
X141250000Y-61672500D01*
X99038602Y-56775000D02*
X100850000Y-56775000D01*
X122101000Y-64126000D02*
X123325000Y-65350000D01*
X116475000Y-61300000D02*
X119301000Y-64126000D01*
X141250000Y-61672500D02*
X141224000Y-61698500D01*
X141201500Y-61698500D02*
X141224000Y-61698500D01*
X119301000Y-64126000D02*
X122101000Y-64126000D01*
X98946012Y-56867590D02*
X99038602Y-56775000D01*
X115475000Y-61300000D02*
X116475000Y-61300000D01*
X137550000Y-65350000D02*
X141201500Y-61698500D01*
%TO.N,/PYRO_ENABLE*%
X116225000Y-60475000D02*
X119575000Y-63825000D01*
X99453814Y-54578814D02*
X99650000Y-54775000D01*
X134200000Y-62900000D02*
X134200000Y-60112500D01*
X119575000Y-63825000D02*
X122275000Y-63825000D01*
X123475000Y-65025000D02*
X132075000Y-65025000D01*
X99050000Y-54578814D02*
X99453814Y-54578814D01*
X132075000Y-65025000D02*
X134200000Y-62900000D01*
X99650000Y-54775000D02*
X100850000Y-54775000D01*
X114575000Y-60475000D02*
X116225000Y-60475000D01*
X122275000Y-63825000D02*
X123475000Y-65025000D01*
%TO.N,/PYRO_FIRE_1*%
X145841500Y-68683500D02*
X146431000Y-68683500D01*
X97850000Y-55375000D02*
X98196186Y-55028814D01*
X123651000Y-66075000D02*
X129325000Y-66075000D01*
X99575000Y-55175000D02*
X100850000Y-55175000D01*
X144875000Y-69650000D02*
X145841500Y-68683500D01*
X98196186Y-55028814D02*
X99428814Y-55028814D01*
X97837500Y-55712500D02*
X97850000Y-55700000D01*
X123625000Y-66101000D02*
X123651000Y-66075000D01*
X99428814Y-55028814D02*
X99575000Y-55175000D01*
X129325000Y-66075000D02*
X132900000Y-69650000D01*
X132900000Y-69650000D02*
X144875000Y-69650000D01*
X97850000Y-55700000D02*
X97850000Y-55375000D01*
%TO.N,/PYRO_FIRE_2*%
X98911293Y-55479919D02*
X99006374Y-55575000D01*
X121475000Y-65450000D02*
X119725000Y-65450000D01*
X98869304Y-55479919D02*
X98911293Y-55479919D01*
X130016000Y-66167000D02*
X129500000Y-65651000D01*
X121676000Y-65651000D02*
X121475000Y-65450000D01*
X129500000Y-65651000D02*
X121676000Y-65651000D01*
X99006374Y-55575000D02*
X100850000Y-55575000D01*
X119197189Y-65450000D02*
X117375000Y-63627811D01*
X98869199Y-55479814D02*
X98869304Y-55479919D01*
X117375000Y-63627811D02*
X117375000Y-63600000D01*
X119725000Y-65450000D02*
X119197189Y-65450000D01*
X138279500Y-66167000D02*
X130016000Y-66167000D01*
X98425000Y-55479814D02*
X98869199Y-55479814D01*
%TO.N,/PYRO_FIRE_3*%
X141678500Y-55850000D02*
X135350000Y-55850000D01*
X119175000Y-58700000D02*
X117130699Y-60744301D01*
X98784190Y-55975000D02*
X100850000Y-55975000D01*
X132500000Y-58700000D02*
X119175000Y-58700000D01*
X142240000Y-56411500D02*
X141678500Y-55850000D01*
X98775783Y-55966593D02*
X98784190Y-55975000D01*
X135350000Y-55850000D02*
X132500000Y-58700000D01*
%TO.N,/SD_DAT2*%
X110750000Y-60375000D02*
X112425000Y-60375000D01*
X116633059Y-66966941D02*
X116600000Y-67000000D01*
X112425000Y-60375000D02*
X116750000Y-64700000D01*
X116633059Y-66000000D02*
X116633059Y-66966941D01*
%TO.N,/SD_DAT3*%
X112450678Y-59975000D02*
X110750000Y-59975000D01*
X116775000Y-64050000D02*
X116525678Y-64050000D01*
X117400000Y-66025000D02*
X117400000Y-67000000D01*
X116525678Y-64050000D02*
X112450678Y-59975000D01*
X117400000Y-64675000D02*
X116775000Y-64050000D01*
%TO.N,/SD_CMD*%
X109600000Y-62325000D02*
X109600000Y-63549322D01*
X114350000Y-66775000D02*
X115349000Y-67774000D01*
X114350000Y-65475000D02*
X114350000Y-66775000D01*
X110224678Y-64174000D02*
X113049000Y-64174000D01*
X109600000Y-63549322D02*
X110224678Y-64174000D01*
X118200000Y-67575000D02*
X118200000Y-67000000D01*
X113049000Y-64174000D02*
X114350000Y-65475000D01*
X115349000Y-67774000D02*
X118001000Y-67774000D01*
X118001000Y-67774000D02*
X118200000Y-67575000D01*
%TO.N,/microSD/_CMD*%
X115975000Y-72200000D02*
X114600000Y-72200000D01*
X118200000Y-69975000D02*
X115975000Y-72200000D01*
X118200000Y-68800000D02*
X118200000Y-69975000D01*
%TO.N,/SD_DAT0*%
X121000000Y-66400000D02*
X121000000Y-67000000D01*
X120675000Y-66075000D02*
X121000000Y-66400000D01*
X110750000Y-61175000D02*
X112000000Y-61175000D01*
X118500000Y-66075000D02*
X120675000Y-66075000D01*
X116375000Y-65550000D02*
X117975000Y-65550000D01*
X112000000Y-61175000D02*
X116375000Y-65550000D01*
X117975000Y-65550000D02*
X118500000Y-66075000D01*
%TO.N,/SD_CLK*%
X120200000Y-67600000D02*
X119725000Y-68075000D01*
X115200000Y-68075000D02*
X114025000Y-66900000D01*
X120200000Y-67000000D02*
X120200000Y-67600000D01*
X114025000Y-66900000D02*
X114025000Y-65575000D01*
X119725000Y-68075000D02*
X115200000Y-68075000D01*
X109200000Y-63575000D02*
X109200000Y-62325000D01*
X112925000Y-64475000D02*
X110100000Y-64475000D01*
X110100000Y-64475000D02*
X109200000Y-63575000D01*
X114025000Y-65575000D02*
X112925000Y-64475000D01*
%TO.N,/SD_DAT1*%
X118099678Y-65249000D02*
X118624678Y-65774000D01*
X121800000Y-66325000D02*
X121800000Y-67000000D01*
X112175000Y-60775000D02*
X116649000Y-65249000D01*
X116649000Y-65249000D02*
X118099678Y-65249000D01*
X121249000Y-65774000D02*
X121800000Y-66325000D01*
X110750000Y-60775000D02*
X112175000Y-60775000D01*
X118624678Y-65774000D02*
X121249000Y-65774000D01*
%TO.N,/RESET*%
X83577000Y-53867000D02*
X83577000Y-64573000D01*
X86390000Y-51050000D02*
X85160000Y-52280000D01*
X104000000Y-52425000D02*
X104000000Y-50675000D01*
X85160000Y-52280000D02*
X83575000Y-53865000D01*
X102917801Y-49592801D02*
X90257199Y-49592801D01*
X83577000Y-64573000D02*
X83575000Y-64575000D01*
X104000000Y-50675000D02*
X102917801Y-49592801D01*
X90257199Y-49592801D02*
X88800000Y-51050000D01*
X88800000Y-51050000D02*
X86390000Y-51050000D01*
X83575000Y-53865000D02*
X83577000Y-53867000D01*
%TO.N,/SCLK*%
X107801000Y-69897644D02*
X105848644Y-71850000D01*
X94974000Y-72567076D02*
X94974000Y-73938999D01*
X105848644Y-71850000D02*
X95691076Y-71850000D01*
X106000000Y-62325000D02*
X106000000Y-64224322D01*
X106000000Y-64224322D02*
X107801000Y-66025322D01*
X94974000Y-73938999D02*
X95200001Y-74165000D01*
X96012500Y-74165000D02*
X96002500Y-74175000D01*
X95200001Y-74165000D02*
X96012500Y-74165000D01*
X95691076Y-71850000D02*
X94974000Y-72567076D01*
X107801000Y-66025322D02*
X107801000Y-69897644D01*
%TO.N,/IMU_INT2*%
X121090300Y-37150000D02*
X120546600Y-37150000D01*
X120546600Y-37150000D02*
X120146600Y-37550000D01*
X118800000Y-37550000D02*
X118375000Y-37975000D01*
X118375000Y-37975000D02*
X118375000Y-40313605D01*
X112125000Y-47250000D02*
X111762189Y-47250000D01*
X108800000Y-51487811D02*
X108800000Y-52425000D01*
X120146600Y-37550000D02*
X118800000Y-37550000D01*
X108891120Y-50121069D02*
X108891120Y-51396691D01*
X118375000Y-40313605D02*
X118961395Y-40900000D01*
X108891120Y-51396691D02*
X108800000Y-51487811D01*
X111762189Y-47250000D02*
X108891120Y-50121069D01*
%TO.N,/SD2*%
X107075322Y-64325322D02*
X106899000Y-64149000D01*
X109026000Y-69524000D02*
X109026000Y-66276000D01*
X104475322Y-74074678D02*
X105475000Y-73075000D01*
X105475000Y-73075000D02*
X109026000Y-69524000D01*
X106800000Y-64050000D02*
X106800000Y-62325000D01*
X104385000Y-74165000D02*
X104475322Y-74074678D01*
X103187500Y-74165000D02*
X104385000Y-74165000D01*
X106899000Y-64149000D02*
X106800000Y-64050000D01*
X109026000Y-66276000D02*
X107075322Y-64325322D01*
%TO.N,/IMU45_INT2*%
X106400000Y-39150000D02*
X106926415Y-38623585D01*
X106926415Y-38623585D02*
X106926415Y-38620032D01*
X112269301Y-53474000D02*
X111768301Y-53975000D01*
X107125000Y-40575000D02*
X106400000Y-39850000D01*
X111768301Y-53975000D02*
X110750000Y-53975000D01*
X106400000Y-39850000D02*
X106400000Y-39150000D01*
%TO.N,/SPI1.RX*%
X124600001Y-38150001D02*
X123909700Y-38150001D01*
X112481801Y-37481801D02*
X111485661Y-36485661D01*
X97300000Y-38600000D02*
X97900000Y-38600000D01*
X110475000Y-35875000D02*
X110475000Y-36485661D01*
X118824000Y-41399000D02*
X123951000Y-41399000D01*
X123951000Y-41399000D02*
X125150000Y-40200000D01*
X125150000Y-38700000D02*
X124600001Y-38150001D01*
X114900000Y-39475000D02*
X114900000Y-38562500D01*
X97900000Y-38600000D02*
X98525000Y-39225000D01*
X114900000Y-38562500D02*
X115987500Y-38562500D01*
X105658103Y-33941897D02*
X108541897Y-33941897D01*
X98525000Y-39225000D02*
X101275000Y-39225000D01*
X103625000Y-35975000D02*
X105658103Y-33941897D01*
X114900000Y-55925000D02*
X113650000Y-57175000D01*
X114900000Y-39475000D02*
X114900000Y-55925000D01*
X110475000Y-36485661D02*
X109627139Y-37333522D01*
X111485661Y-36485661D02*
X110475000Y-36485661D01*
X108541897Y-33941897D02*
X110475000Y-35875000D01*
X112481801Y-37493199D02*
X112481801Y-37481801D01*
X113650000Y-57175000D02*
X110750000Y-57175000D01*
X103625000Y-36875000D02*
X103625000Y-35975000D01*
X101275000Y-39225000D02*
X103625000Y-36875000D01*
X125150000Y-40200000D02*
X125150000Y-38700000D01*
X115987500Y-38562500D02*
X118824000Y-41399000D01*
%TO.N,Net-(D5-A)*%
X73700000Y-58875000D02*
X75650000Y-58875000D01*
X73412500Y-59700000D02*
X73412500Y-59162500D01*
X75650000Y-58875000D02*
X75775000Y-59000000D01*
X73412500Y-59162500D02*
X73700000Y-58875000D01*
X75775000Y-59000000D02*
X76352500Y-59000000D01*
%TO.N,/IMU_CS*%
X121775000Y-40900000D02*
X121775000Y-39725000D01*
X122000000Y-39500000D02*
X122000001Y-38555700D01*
X121775000Y-39725000D02*
X122000000Y-39500000D01*
X112375000Y-48400000D02*
X109600000Y-51175000D01*
X109600000Y-51175000D02*
X109600000Y-52425000D01*
X113275000Y-48400000D02*
X112375000Y-48400000D01*
%TO.N,/SPI1.CK*%
X112025000Y-56375000D02*
X110750000Y-56375000D01*
X94709627Y-41360305D02*
X93999000Y-40649678D01*
X122500000Y-39675000D02*
X122500000Y-38555700D01*
X110536354Y-40236354D02*
X108917203Y-38617203D01*
X111837500Y-38787500D02*
X112575000Y-38050000D01*
X112575000Y-38050000D02*
X113637500Y-38050000D01*
X111675000Y-42350000D02*
X110685305Y-41360305D01*
X122350707Y-39825706D02*
X122350707Y-39824293D01*
X112075000Y-56325000D02*
X112025000Y-56375000D01*
X94950000Y-37100000D02*
X95775000Y-37100000D01*
X93999000Y-40649678D02*
X93999000Y-38051000D01*
X110685305Y-41360305D02*
X94709627Y-41360305D01*
X122350707Y-39824293D02*
X122500000Y-39675000D01*
X93999000Y-38051000D02*
X94950000Y-37100000D01*
%TO.N,/MAG_CS*%
X94650000Y-38150000D02*
X95725000Y-38150000D01*
X112525000Y-43908059D02*
X112525000Y-43838892D01*
X93550000Y-39650000D02*
X93549000Y-39650000D01*
X94584949Y-41661305D02*
X93550000Y-40626356D01*
X93550000Y-40626356D02*
X93550000Y-39650000D01*
X95725000Y-38150000D02*
X95775000Y-38100000D01*
X110347413Y-41661305D02*
X94584949Y-41661305D01*
X112575000Y-56775000D02*
X112625000Y-56725000D01*
X112525000Y-43838892D02*
X110347413Y-41661305D01*
X112625962Y-44009021D02*
X112525000Y-43908059D01*
X110750000Y-56775000D02*
X112575000Y-56775000D01*
%TO.N,/IMU45_INT1*%
X108566478Y-36272861D02*
X108566478Y-36272124D01*
X108566478Y-36272124D02*
X109356801Y-35481801D01*
X112050000Y-54375000D02*
X110750000Y-54375000D01*
%TO.N,Net-(D6-A)*%
X73412500Y-57950000D02*
X73412500Y-58237500D01*
X75525000Y-58425000D02*
X75750000Y-58200000D01*
X75750000Y-58200000D02*
X76352500Y-58200000D01*
X73412500Y-58237500D02*
X73600000Y-58425000D01*
X73600000Y-58425000D02*
X75525000Y-58425000D01*
%TO.N,/IMU_INT1*%
X125450000Y-37646599D02*
X124453400Y-36649999D01*
X115425000Y-41700000D02*
X124075678Y-41700000D01*
X113024000Y-47225000D02*
X113024000Y-47326000D01*
X124453400Y-36649999D02*
X123909700Y-36649999D01*
X115400000Y-41725000D02*
X115425000Y-41700000D01*
X124075678Y-41700000D02*
X125450000Y-40325678D01*
X125450000Y-40325678D02*
X125450000Y-37646599D01*
X113074000Y-47175000D02*
X113024000Y-47225000D01*
X113024000Y-47326000D02*
X109200000Y-51150000D01*
X109200000Y-51150000D02*
X109200000Y-52425000D01*
%TO.N,/SD3*%
X95197076Y-74716000D02*
X95916076Y-75435000D01*
X94673000Y-73814321D02*
X94673000Y-74063677D01*
X107500000Y-69772966D02*
X105723966Y-71549000D01*
X95566398Y-71549000D02*
X95390076Y-71725322D01*
X95815754Y-71549000D02*
X95566398Y-71549000D01*
X94849322Y-72266076D02*
X94673000Y-72442398D01*
X94673000Y-72442398D02*
X94673000Y-72691754D01*
X105875322Y-64525322D02*
X107500000Y-66150000D01*
X105699000Y-64349000D02*
X105875322Y-64525322D01*
X105600000Y-62325000D02*
X105600000Y-64250000D01*
X95390076Y-71725322D02*
X94849322Y-72266076D01*
X94673000Y-74191924D02*
X94974000Y-74492924D01*
X107500000Y-66150000D02*
X107500000Y-69772966D01*
X95916076Y-75435000D02*
X96012500Y-75435000D01*
X94974000Y-74492924D02*
X95197076Y-74716000D01*
X94673000Y-74063677D02*
X94673000Y-74191924D01*
X94673000Y-72691754D02*
X94673000Y-73814321D01*
X105600000Y-64250000D02*
X105699000Y-64349000D01*
X105723966Y-71549000D02*
X95815754Y-71549000D01*
%TO.N,/SD0*%
X108725000Y-66523644D02*
X108725000Y-69399322D01*
X106400000Y-62325000D02*
X106400000Y-64198644D01*
X106400000Y-64198644D02*
X108725000Y-66523644D01*
X108725000Y-69399322D02*
X105974322Y-72150000D01*
X105974322Y-72150000D02*
X96757500Y-72150000D01*
X96757500Y-72150000D02*
X96012500Y-72895000D01*
%TO.N,/BARO_INT*%
X102850000Y-50150000D02*
X102825000Y-50150000D01*
X103600000Y-52425000D02*
X103600000Y-50900000D01*
X116113500Y-37261500D02*
X115825000Y-37550000D01*
X115824568Y-35050000D02*
X116113500Y-35338932D01*
X112075000Y-35050000D02*
X115824568Y-35050000D01*
X111742705Y-35329603D02*
X111795397Y-35329603D01*
X103600000Y-50900000D02*
X102850000Y-50150000D01*
X115825000Y-37550000D02*
X115162500Y-37550000D01*
X116113500Y-35338932D02*
X116113500Y-37261500D01*
X111795397Y-35329603D02*
X112075000Y-35050000D01*
%TO.N,/SPI1.TX*%
X111208105Y-40201000D02*
X109270756Y-38263651D01*
X114400000Y-38562500D02*
X114400000Y-39537811D01*
X94800000Y-41025000D02*
X110384105Y-41025000D01*
X123000000Y-39800000D02*
X123000000Y-38555701D01*
X95775000Y-38600000D02*
X94900000Y-38600000D01*
X114375000Y-40875000D02*
X114450000Y-40800000D01*
X123000000Y-38555701D02*
X122999999Y-38555700D01*
X114450000Y-40750000D02*
X114400000Y-40700000D01*
X114375000Y-40875000D02*
X114375000Y-41300000D01*
X114599000Y-41524000D02*
X114599000Y-55376000D01*
X110384105Y-41025000D02*
X111208105Y-40201000D01*
X94300000Y-40525000D02*
X94800000Y-41025000D01*
X114100000Y-55875000D02*
X111775000Y-55875000D01*
X111675000Y-55975000D02*
X110750000Y-55975000D01*
X114400000Y-40700000D02*
X114400000Y-38562500D01*
X94300000Y-39200000D02*
X94300000Y-40525000D01*
X114400000Y-39537811D02*
X113736811Y-40201000D01*
X122975000Y-39825000D02*
X123000000Y-39800000D01*
X111775000Y-55875000D02*
X111675000Y-55975000D01*
X94900000Y-38600000D02*
X94300000Y-39200000D01*
X114450000Y-40800000D02*
X114450000Y-40750000D01*
X114375000Y-41300000D02*
X114599000Y-41524000D01*
X114599000Y-55376000D02*
X114100000Y-55875000D01*
X113736811Y-40201000D02*
X111208105Y-40201000D01*
%TO.N,Net-(D7-A)*%
X73412500Y-56200000D02*
X73412500Y-56712500D01*
X76352500Y-57400000D02*
X76352500Y-56600000D01*
X73650000Y-56950000D02*
X75525000Y-56950000D01*
X75525000Y-56950000D02*
X75875000Y-56600000D01*
X75875000Y-56600000D02*
X76352500Y-56600000D01*
X73412500Y-56712500D02*
X73650000Y-56950000D01*
%TO.N,/BARO_CS*%
X116414500Y-37685500D02*
X116050000Y-38050000D01*
X111702000Y-34749000D02*
X111685497Y-34749000D01*
X111702000Y-34749000D02*
X115949246Y-34749000D01*
X111685497Y-34749000D02*
X111025000Y-35409497D01*
X103200000Y-51675000D02*
X103200000Y-52425000D01*
X102950000Y-50900000D02*
X102950000Y-51425000D01*
X111025000Y-35409497D02*
X111025000Y-35825000D01*
X116414500Y-35214254D02*
X116414500Y-37685500D01*
X102950000Y-51425000D02*
X103200000Y-51675000D01*
X116050000Y-38050000D02*
X115162500Y-38050000D01*
X115949246Y-34749000D02*
X116414500Y-35214254D01*
%TO.N,/IMU45_CS*%
X113125000Y-57975000D02*
X110750000Y-57975000D01*
X113175000Y-58025000D02*
X113125000Y-57975000D01*
X108595756Y-38970756D02*
X109050000Y-39425000D01*
X108563651Y-38970756D02*
X108595756Y-38970756D01*
X109050000Y-39975000D02*
X108550000Y-40475000D01*
X109050000Y-39425000D02*
X109050000Y-39975000D01*
%TO.N,/SD1*%
X109327000Y-69797322D02*
X109327000Y-66151322D01*
X105374000Y-74501000D02*
X105374000Y-73999678D01*
X103187500Y-75435000D02*
X104440000Y-75435000D01*
X105374000Y-73750322D02*
X105550322Y-73574000D01*
X107248000Y-64072322D02*
X107200000Y-64024322D01*
X107200000Y-64024322D02*
X107200000Y-62325000D01*
X105374000Y-73999678D02*
X105374000Y-73750322D01*
X107424322Y-64248644D02*
X107248000Y-64072322D01*
X109327000Y-66151322D02*
X107424322Y-64248644D01*
X105550322Y-73574000D02*
X109327000Y-69797322D01*
X104440000Y-75435000D02*
X105374000Y-74501000D01*
%TO.N,Net-(Q3-D)*%
X94800000Y-67600000D02*
X95125000Y-67925000D01*
X95275000Y-68075000D02*
X95275000Y-69000000D01*
X95125000Y-67925000D02*
X95275000Y-68075000D01*
X93937500Y-67600000D02*
X94800000Y-67600000D01*
%TO.N,unconnected-(U8-NC-Pad11)*%
X96787500Y-37087500D02*
X96787500Y-36600000D01*
%TO.N,unconnected-(U8-NC-Pad2)*%
X95775000Y-37600000D02*
X95075000Y-37600000D01*
%TO.N,unconnected-(U8-NC-Pad12)*%
X96287500Y-37087500D02*
X96287500Y-36600000D01*
%TO.N,Net-(Q3-G)*%
X87500000Y-66912500D02*
X87500000Y-67725000D01*
X91275000Y-66650000D02*
X92062500Y-66650000D01*
X87500000Y-67725000D02*
X87900000Y-68125000D01*
X87900000Y-68125000D02*
X89800000Y-68125000D01*
X89800000Y-68125000D02*
X91275000Y-66650000D01*
%TO.N,/BUZZ*%
X99775000Y-53975000D02*
X100850000Y-53975000D01*
X92350000Y-61225000D02*
X92350000Y-60450000D01*
X87500000Y-65087500D02*
X89000000Y-65087500D01*
X89000000Y-64575000D02*
X89400000Y-64175000D01*
X98800000Y-53675000D02*
X99475000Y-53675000D01*
X89000000Y-65087500D02*
X89000000Y-64575000D01*
X99475000Y-53675000D02*
X99775000Y-53975000D01*
X89400000Y-64175000D02*
X92350000Y-61225000D01*
%TO.N,/L_RED*%
X102800000Y-51725000D02*
X101325000Y-50250000D01*
X93150000Y-50250000D02*
X90225000Y-53175000D01*
X102800000Y-52425000D02*
X102800000Y-51725000D01*
X79450000Y-56600000D02*
X78152500Y-56600000D01*
X101325000Y-50250000D02*
X93150000Y-50250000D01*
X78152500Y-57400000D02*
X78152500Y-56600000D01*
%TO.N,/L_GREEN*%
X93499000Y-50551000D02*
X90250000Y-53800000D01*
X79325000Y-58200000D02*
X78152500Y-58200000D01*
X101176000Y-50551000D02*
X93499000Y-50551000D01*
X102400000Y-52425000D02*
X102400000Y-51775000D01*
X102400000Y-51775000D02*
X101176000Y-50551000D01*
X80125000Y-57400000D02*
X79325000Y-58200000D01*
%TO.N,/L_BLUE*%
X79750000Y-59000000D02*
X78152500Y-59000000D01*
X102000000Y-51800000D02*
X102000000Y-52425000D01*
X94073000Y-50852000D02*
X101052000Y-50852000D01*
X90925000Y-54000000D02*
X94073000Y-50852000D01*
X101052000Y-50852000D02*
X102000000Y-51800000D01*
X79825000Y-58925000D02*
X79750000Y-59000000D01*
%TO.N,+3V3*%
X140500000Y-48162500D02*
X141287500Y-48162500D01*
X105459880Y-34790120D02*
X107009880Y-34790120D01*
X138950000Y-48162500D02*
X137400000Y-48162500D01*
X104850000Y-35400000D02*
X105459880Y-34790120D01*
X105150000Y-63500000D02*
X105062751Y-63500000D01*
X93000000Y-76575000D02*
X93130000Y-76705000D01*
X105150000Y-63500000D02*
X105200000Y-63450000D01*
X112825000Y-59825000D02*
X112674000Y-59674000D01*
X143100000Y-46775000D02*
X142675000Y-46775000D01*
X99037500Y-36487500D02*
X101037500Y-36487500D01*
X111700000Y-36075000D02*
X113175000Y-37550000D01*
X98093593Y-57318593D02*
X99132823Y-57318593D01*
X113175000Y-37550000D02*
X113637500Y-37550000D01*
X105200000Y-63450000D02*
X105200000Y-62325000D01*
X126875000Y-69375000D02*
X126450000Y-69800000D01*
X99037500Y-36562500D02*
X99037500Y-36487500D01*
X140500000Y-48162500D02*
X138950000Y-48162500D01*
X126450000Y-69800000D02*
X126450000Y-70200000D01*
X126450000Y-70200000D02*
X126450000Y-70975000D01*
X141287500Y-48162500D02*
X142175000Y-47275000D01*
X137400000Y-48162500D02*
X135850000Y-48162500D01*
X108400000Y-51250000D02*
X108400000Y-52425000D01*
X108100000Y-77362500D02*
X109600000Y-77362500D01*
X110750000Y-55575000D02*
X113350000Y-55575000D01*
X98625000Y-61900000D02*
X98675000Y-61900000D01*
X126450000Y-72575000D02*
X126225000Y-72800000D01*
X111825000Y-71200000D02*
X111825000Y-71950000D01*
X111850000Y-71950000D02*
X112100000Y-72200000D01*
X111825000Y-71950000D02*
X111850000Y-71950000D01*
X126225000Y-71200000D02*
X126450000Y-70975000D01*
X103662500Y-64212500D02*
X103662500Y-64787500D01*
X111825000Y-71950000D02*
X111825000Y-72750000D01*
X112099000Y-59674000D02*
X112000000Y-59575000D01*
X113350000Y-55575000D02*
X113600000Y-55325000D01*
X105150000Y-63587249D02*
X105150000Y-63500000D01*
X106558522Y-38266478D02*
X105750000Y-39075000D01*
X142675000Y-46775000D02*
X142175000Y-47275000D01*
X112674000Y-59674000D02*
X112099000Y-59674000D01*
X121090300Y-36649999D02*
X119468202Y-36649999D01*
X125400000Y-71200000D02*
X126225000Y-71200000D01*
X126200000Y-72000000D02*
X126450000Y-71750000D01*
X98950000Y-52950000D02*
X99250000Y-52950000D01*
X111700000Y-36000000D02*
X111925000Y-35775000D01*
X107500000Y-48775000D02*
X106400000Y-49875000D01*
X103200000Y-63750000D02*
X103662500Y-64212500D01*
X126450000Y-71750000D02*
X126450000Y-72575000D01*
X99276416Y-57175000D02*
X100850000Y-57175000D01*
X108000000Y-63575000D02*
X108000000Y-62325000D01*
X99875000Y-53575000D02*
X100850000Y-53575000D01*
X126450000Y-70975000D02*
X126450000Y-71750000D01*
X107009880Y-34790120D02*
X107009880Y-36002775D01*
X97300000Y-37600000D02*
X97700000Y-37600000D01*
X109600000Y-77362500D02*
X110537500Y-77362500D01*
X97700000Y-37600000D02*
X98812500Y-36487500D01*
X108440120Y-51209880D02*
X108400000Y-51250000D01*
X97300000Y-35862500D02*
X97362500Y-35800000D01*
X112000000Y-59575000D02*
X110750000Y-59575000D01*
X97700000Y-56925000D02*
X98093593Y-57318593D01*
X110537500Y-77362500D02*
X111050000Y-76850000D01*
X126225000Y-72800000D02*
X125400000Y-72800000D01*
X113500000Y-59825000D02*
X112825000Y-59825000D01*
X98350000Y-35800000D02*
X99037500Y-36487500D01*
X98812500Y-36487500D02*
X99037500Y-36487500D01*
X112075000Y-73000000D02*
X112800000Y-73000000D01*
X112100000Y-72200000D02*
X112800000Y-72200000D01*
X99250000Y-52950000D02*
X99875000Y-53575000D01*
X111700000Y-36075000D02*
X111700000Y-36000000D01*
X100850000Y-60775000D02*
X99800000Y-60775000D01*
X104055240Y-39075000D02*
X103390120Y-38409880D01*
X99132823Y-57318593D02*
X99276416Y-57175000D01*
X99800000Y-60775000D02*
X99400000Y-61175000D01*
X119468202Y-36649999D02*
X119400001Y-36718200D01*
X98675000Y-61900000D02*
X99400000Y-61175000D01*
X123387499Y-34744300D02*
X124118300Y-34744300D01*
X106572861Y-38266478D02*
X106558522Y-38266478D01*
X111825000Y-71200000D02*
X112025000Y-71400000D01*
X103200000Y-62325000D02*
X103200000Y-63750000D01*
X93000000Y-76562500D02*
X93000000Y-76575000D01*
X111925000Y-35775000D02*
X113625000Y-35775000D01*
X126250000Y-70400000D02*
X126450000Y-70200000D01*
X124118300Y-34744300D02*
X124625000Y-35251000D01*
X97300000Y-37100000D02*
X97300000Y-35862500D01*
X99400000Y-61175000D02*
X100850000Y-61175000D01*
X107009880Y-36002775D02*
X107636349Y-36629244D01*
X111825000Y-70600000D02*
X111825000Y-71200000D01*
X142175000Y-47275000D02*
X143100000Y-47275000D01*
X111825000Y-70600000D02*
X111425000Y-70200000D01*
X113900000Y-36050000D02*
X113625000Y-35775000D01*
X112025000Y-71400000D02*
X112800000Y-71400000D01*
X105750000Y-39075000D02*
X104055240Y-39075000D01*
X97362500Y-35800000D02*
X98350000Y-35800000D01*
X104800000Y-63237249D02*
X104800000Y-62325000D01*
X106400000Y-49875000D02*
X106400000Y-52425000D01*
X111825000Y-72750000D02*
X112075000Y-73000000D01*
X93130000Y-76705000D02*
X96012500Y-76705000D01*
X105062751Y-63500000D02*
X104800000Y-63237249D01*
X122999999Y-35131800D02*
X123387499Y-34744300D01*
X112800000Y-70600000D02*
X111825000Y-70600000D01*
X125400000Y-70400000D02*
X126250000Y-70400000D01*
X113900000Y-37037500D02*
X113900000Y-36050000D01*
X125400000Y-72000000D02*
X126200000Y-72000000D01*
X122999999Y-36244300D02*
X122999999Y-35131800D01*
%TO.N,/RX_GPS*%
X113637189Y-54650000D02*
X114025000Y-54650000D01*
X113112189Y-55175000D02*
X113637189Y-54650000D01*
X110750000Y-55175000D02*
X113112189Y-55175000D01*
%TO.N,/TX_GPS*%
X112749000Y-54826000D02*
X113525000Y-54050000D01*
X113525000Y-54050000D02*
X114125000Y-54050000D01*
X110801000Y-54826000D02*
X112749000Y-54826000D01*
X110750000Y-54775000D02*
X110801000Y-54826000D01*
%TO.N,PPS*%
X99675678Y-54375000D02*
X99425678Y-54125000D01*
X100850000Y-54375000D02*
X99675678Y-54375000D01*
X89625000Y-53812811D02*
X89625000Y-51675000D01*
X99425678Y-54125000D02*
X98662811Y-54125000D01*
X98336811Y-54451000D02*
X90263189Y-54451000D01*
X90263189Y-54451000D02*
X89625000Y-53812811D01*
X98662811Y-54125000D02*
X98336811Y-54451000D01*
%TO.N,HIL_TX*%
X112213189Y-59276000D02*
X113024000Y-59276000D01*
X113024000Y-59276000D02*
X113200000Y-59100000D01*
X112112189Y-59175000D02*
X112213189Y-59276000D01*
X110750000Y-59175000D02*
X112112189Y-59175000D01*
%TO.N,/GPIO20*%
X112675000Y-50850000D02*
X113925000Y-49600000D01*
X111530490Y-53575000D02*
X112675000Y-52430490D01*
X110750000Y-53575000D02*
X111530490Y-53575000D01*
X112675000Y-52430490D02*
X112675000Y-50850000D01*
%TO.N,/BATT_SENSE*%
X144975000Y-36800000D02*
X145137500Y-36800000D01*
X99563605Y-60375000D02*
X100850000Y-60375000D01*
X145137500Y-35250000D02*
X145137500Y-36800000D01*
X143525000Y-38250000D02*
X144975000Y-36800000D01*
X99318301Y-60620304D02*
X99563605Y-60375000D01*
%TO.N,GND*%
X102400000Y-62325000D02*
X102400000Y-63500000D01*
X105790120Y-36009880D02*
X106200000Y-36419760D01*
X113549000Y-39751000D02*
X113900000Y-39400000D01*
X143750000Y-45349000D02*
X143750000Y-42162500D01*
X114400000Y-36375000D02*
X114650000Y-36125000D01*
X96787500Y-39825000D02*
X97062500Y-40100000D01*
X122500000Y-36244300D02*
X122500000Y-35375000D01*
X138950000Y-46437500D02*
X140500000Y-46437500D01*
X120906700Y-34744300D02*
X120400000Y-35251000D01*
X114900000Y-36400000D02*
X115175000Y-36125000D01*
X143100000Y-46275000D02*
X140662500Y-46275000D01*
X104609880Y-37190120D02*
X105790120Y-36009880D01*
X96787500Y-38612500D02*
X96787500Y-39825000D01*
X80425000Y-51800000D02*
X81175000Y-51800000D01*
X114400000Y-37037500D02*
X114400000Y-36375000D01*
X143764000Y-67636000D02*
X142712500Y-68687500D01*
X79670000Y-51045000D02*
X80425000Y-51800000D01*
X145900000Y-45775000D02*
X146575000Y-45775000D01*
X121869300Y-34744300D02*
X121662499Y-34744300D01*
X90850000Y-68550000D02*
X90475000Y-68925000D01*
X106230240Y-36450000D02*
X105790120Y-36009880D01*
X137400000Y-46437500D02*
X138950000Y-46437500D01*
X104455000Y-72895000D02*
X104750000Y-72600000D01*
X143715500Y-72959000D02*
X142659000Y-72959000D01*
X99037500Y-38212500D02*
X101037500Y-38212500D01*
X143764000Y-66850500D02*
X143764000Y-67636000D01*
X112575000Y-39751000D02*
X113549000Y-39751000D01*
X146725000Y-45625000D02*
X146725000Y-45300000D01*
X142712500Y-68687500D02*
X141950000Y-68687500D01*
X146575000Y-45775000D02*
X146725000Y-45625000D01*
X106200000Y-36607105D02*
X106929244Y-37336349D01*
X114650000Y-36125000D02*
X115350000Y-36125000D01*
X115175000Y-36125000D02*
X115350000Y-36125000D01*
X107282797Y-36982797D02*
X106750000Y-36450000D01*
X121662499Y-34744300D02*
X120906700Y-34744300D01*
X142659000Y-72959000D02*
X142300000Y-72600000D01*
X115350000Y-36125000D02*
X115350000Y-35775000D01*
X135850000Y-46437500D02*
X137400000Y-46437500D01*
X139695000Y-59611500D02*
X139695000Y-61055000D01*
X106200000Y-36419760D02*
X106200000Y-36607105D01*
X145669000Y-56134000D02*
X144250000Y-57553000D01*
X139695000Y-61055000D02*
X139175000Y-61575000D01*
X97300000Y-38100000D02*
X98925000Y-38100000D01*
X101937500Y-64787500D02*
X101937500Y-66287500D01*
X98925000Y-38100000D02*
X99037500Y-38212500D01*
X140662500Y-46275000D02*
X140500000Y-46437500D01*
X114900000Y-37037500D02*
X114900000Y-36400000D01*
X143750000Y-42162500D02*
X143637500Y-42050000D01*
X108100000Y-75637500D02*
X109600000Y-75637500D01*
X144250000Y-57553000D02*
X144250000Y-59100500D01*
X122500000Y-35375000D02*
X121869300Y-34744300D01*
X103187500Y-72895000D02*
X104455000Y-72895000D01*
X104609880Y-37190120D02*
X104609880Y-37159880D01*
X144250000Y-59100500D02*
X143510000Y-59840500D01*
X101937500Y-66287500D02*
X101925000Y-66300000D01*
X113900000Y-39400000D02*
X113900000Y-38562500D01*
X109600000Y-75637500D02*
X110487500Y-75637500D01*
X106750000Y-36450000D02*
X106230240Y-36450000D01*
X92062500Y-68550000D02*
X90850000Y-68550000D01*
X102400000Y-63500000D02*
X101937500Y-63962500D01*
X110487500Y-75637500D02*
X110950000Y-75175000D01*
X122000001Y-35081802D02*
X121662499Y-34744300D01*
X122000001Y-36244300D02*
X122000001Y-35081802D01*
X101937500Y-63962500D02*
X101937500Y-64787500D01*
X144500000Y-47100000D02*
X144500000Y-48575000D01*
X79155000Y-51045000D02*
X79670000Y-51045000D01*
%TO.N,/microSD/_DAT2*%
X115700000Y-70600000D02*
X114600000Y-70600000D01*
X116600000Y-69700000D02*
X115700000Y-70600000D01*
X116600000Y-68800000D02*
X116600000Y-69700000D01*
%TO.N,/microSD/_DAT3*%
X117400000Y-69825000D02*
X115825000Y-71400000D01*
X117400000Y-68800000D02*
X117400000Y-69825000D01*
X115825000Y-71400000D02*
X114600000Y-71400000D01*
%TO.N,unconnected-(U4-Pad11)*%
X107633522Y-39327139D02*
X107622861Y-39327139D01*
X107622861Y-39327139D02*
X107050000Y-39900000D01*
%TO.N,unconnected-(U4-SDX-Pad2)*%
X109273585Y-36976415D02*
X110100000Y-36150000D01*
X109273585Y-36979968D02*
X109273585Y-36976415D01*
%TO.N,unconnected-(U4-Pad3)*%
X108923585Y-36626415D02*
X109750000Y-35800000D01*
X108920032Y-36626415D02*
X108923585Y-36626415D01*
%TO.N,unconnected-(U4-Pad10)*%
X107276415Y-38973585D02*
X106700000Y-39550000D01*
X107279968Y-38973585D02*
X107276415Y-38973585D01*
%TO.N,Net-(Q4-Pad1)*%
X138975000Y-52365000D02*
X138975000Y-53635000D01*
X134025000Y-52365000D02*
X134025000Y-53635000D01*
X129560000Y-54050000D02*
X129560000Y-52840000D01*
X129560000Y-52840000D02*
X129987500Y-52412500D01*
X129987500Y-52412500D02*
X131500000Y-52412500D01*
X134025000Y-53635000D02*
X138975000Y-53635000D01*
X131500000Y-52412500D02*
X133977500Y-52412500D01*
X133977500Y-52412500D02*
X134025000Y-52365000D01*
%TO.N,Net-(Q2-G)*%
X142240000Y-54605000D02*
X143769000Y-56134000D01*
X142240000Y-54586500D02*
X142240000Y-54605000D01*
X143510000Y-58015500D02*
X143769000Y-57756500D01*
X143769000Y-57756500D02*
X143769000Y-56134000D01*
%TO.N,Net-(Q2-D)*%
X144719000Y-54259000D02*
X147139500Y-54259000D01*
X147139500Y-54259000D02*
X147193000Y-54205500D01*
%TO.N,BOOTSEL*%
X91350000Y-74812500D02*
X89237500Y-74812500D01*
X89237500Y-74812500D02*
X81625000Y-67200000D01*
X81625000Y-67200000D02*
X81625000Y-62500000D01*
X85160000Y-49740000D02*
X83126000Y-51774000D01*
X83126000Y-51774000D02*
X83126000Y-60925000D01*
%TO.N,unconnected-(RN6-R1.1-Pad1)*%
X114600000Y-73000000D02*
X115600000Y-73000000D01*
%TO.N,unconnected-(RN8-R1.2-Pad8)*%
X123600000Y-72800000D02*
X122475000Y-72800000D01*
%TO.N,/GPIO46*%
X100850000Y-59975000D02*
X87775000Y-59975000D01*
X87775000Y-59975000D02*
X87700000Y-59900000D01*
%TO.N,/GPIO45*%
X88251000Y-58751000D02*
X86309000Y-58751000D01*
X100850000Y-59575000D02*
X89075000Y-59575000D01*
X89075000Y-59575000D02*
X88251000Y-58751000D01*
X86309000Y-58751000D02*
X85160000Y-59900000D01*
%TO.N,/GPIO39*%
X99157407Y-56417593D02*
X97792593Y-56417593D01*
X90686511Y-55300000D02*
X87700000Y-52313489D01*
X97792593Y-56417593D02*
X96675000Y-55300000D01*
X87700000Y-52313489D02*
X87700000Y-52280000D01*
X96675000Y-55300000D02*
X90686511Y-55300000D01*
X99200000Y-56375000D02*
X99157407Y-56417593D01*
X100850000Y-56375000D02*
X99200000Y-56375000D01*
%TO.N,/SWDCLK*%
X89100000Y-48600000D02*
X87700000Y-47200000D01*
X104800000Y-50600000D02*
X102800000Y-48600000D01*
X102800000Y-48600000D02*
X89100000Y-48600000D01*
X104800000Y-52425000D02*
X104800000Y-50600000D01*
%TO.N,/SWDIO*%
X88974322Y-48900000D02*
X88950000Y-48900000D01*
X104400000Y-50625000D02*
X102676000Y-48901000D01*
X88110000Y-49740000D02*
X87700000Y-49740000D01*
X102676000Y-48901000D02*
X88975322Y-48901000D01*
X104400000Y-52425000D02*
X104400000Y-50625000D01*
X88950000Y-48900000D02*
X88110000Y-49740000D01*
X88975322Y-48901000D02*
X88974322Y-48900000D01*
%TD*%
%TA.AperFunction,Conductor*%
%TO.N,+BATT*%
G36*
X154443981Y-40786057D02*
G01*
X154610249Y-40819324D01*
X154617689Y-40824308D01*
X154619427Y-40833092D01*
X154618856Y-40835043D01*
X154017355Y-42379408D01*
X154011160Y-42385874D01*
X154006453Y-42386862D01*
X153522451Y-42386862D01*
X153514178Y-42383435D01*
X153511549Y-42379408D01*
X152910047Y-40835043D01*
X152910237Y-40826090D01*
X152916703Y-40819895D01*
X152918652Y-40819324D01*
X153762158Y-40650559D01*
X153766746Y-40650559D01*
X154443981Y-40786057D01*
G37*
%TD.AperFunction*%
%TD*%
%TA.AperFunction,Conductor*%
%TO.N,+1V1*%
G36*
X108443039Y-54719685D02*
G01*
X108488794Y-54772489D01*
X108500000Y-54824000D01*
X108500000Y-59876000D01*
X108480315Y-59943039D01*
X108427511Y-59988794D01*
X108376000Y-60000000D01*
X103224000Y-60000000D01*
X103156961Y-59980315D01*
X103111206Y-59927511D01*
X103100000Y-59876000D01*
X103100000Y-59300000D01*
X103800000Y-59300000D01*
X107800000Y-59300000D01*
X107800000Y-55400000D01*
X103800000Y-55400000D01*
X103800000Y-59300000D01*
X103100000Y-59300000D01*
X103100000Y-54824000D01*
X103119685Y-54756961D01*
X103172489Y-54711206D01*
X103224000Y-54700000D01*
X108376000Y-54700000D01*
X108443039Y-54719685D01*
G37*
%TD.AperFunction*%
%TD*%
M02*
