%TF.GenerationSoftware,KiCad,Pcbnew,9.0.7+dfsg-1*%
%TF.CreationDate,2026-03-28T18:53:48+01:00*%
%TF.ProjectId,TABv1,54414276-312e-46b6-9963-61645f706362,2.2*%
%TF.SameCoordinates,Original*%
%TF.FileFunction,Copper,L4,Bot*%
%TF.FilePolarity,Positive*%
%FSLAX46Y46*%
G04 Gerber Fmt 4.6, Leading zero omitted, Abs format (unit mm)*
G04 Created by KiCad (PCBNEW 9.0.7+dfsg-1) date 2026-03-28 18:53:48*
%MOMM*%
%LPD*%
G01*
G04 APERTURE LIST*
G04 Aperture macros list*
%AMRoundRect*
0 Rectangle with rounded corners*
0 $1 Rounding radius*
0 $2 $3 $4 $5 $6 $7 $8 $9 X,Y pos of 4 corners*
0 Add a 4 corners polygon primitive as box body*
4,1,4,$2,$3,$4,$5,$6,$7,$8,$9,$2,$3,0*
0 Add four circle primitives for the rounded corners*
1,1,$1+$1,$2,$3*
1,1,$1+$1,$4,$5*
1,1,$1+$1,$6,$7*
1,1,$1+$1,$8,$9*
0 Add four rect primitives between the rounded corners*
20,1,$1+$1,$2,$3,$4,$5,0*
20,1,$1+$1,$4,$5,$6,$7,0*
20,1,$1+$1,$6,$7,$8,$9,0*
20,1,$1+$1,$8,$9,$2,$3,0*%
G04 Aperture macros list end*
%TA.AperFunction,ComponentPad*%
%ADD10C,1.700000*%
%TD*%
%TA.AperFunction,ComponentPad*%
%ADD11R,1.700000X1.700000*%
%TD*%
%TA.AperFunction,ComponentPad*%
%ADD12R,2.300000X1.500000*%
%TD*%
%TA.AperFunction,ComponentPad*%
%ADD13RoundRect,0.250001X0.899999X-0.499999X0.899999X0.499999X-0.899999X0.499999X-0.899999X-0.499999X0*%
%TD*%
%TA.AperFunction,ComponentPad*%
%ADD14O,2.300000X1.500000*%
%TD*%
%TA.AperFunction,SMDPad,CuDef*%
%ADD15RoundRect,0.218750X0.218750X0.256250X-0.218750X0.256250X-0.218750X-0.256250X0.218750X-0.256250X0*%
%TD*%
%TA.AperFunction,SMDPad,CuDef*%
%ADD16R,0.700000X1.100000*%
%TD*%
%TA.AperFunction,SMDPad,CuDef*%
%ADD17R,0.900000X0.930000*%
%TD*%
%TA.AperFunction,SMDPad,CuDef*%
%ADD18R,1.050000X0.780000*%
%TD*%
%TA.AperFunction,SMDPad,CuDef*%
%ADD19R,0.700000X3.330000*%
%TD*%
%TA.AperFunction,SMDPad,CuDef*%
%ADD20R,0.860000X2.800000*%
%TD*%
%TA.AperFunction,SMDPad,CuDef*%
%ADD21R,1.140000X1.830000*%
%TD*%
%TA.AperFunction,SMDPad,CuDef*%
%ADD22RoundRect,0.237500X-0.300000X-0.237500X0.300000X-0.237500X0.300000X0.237500X-0.300000X0.237500X0*%
%TD*%
%TA.AperFunction,SMDPad,CuDef*%
%ADD23RoundRect,0.180000X-0.770000X-0.420000X0.770000X-0.420000X0.770000X0.420000X-0.770000X0.420000X0*%
%TD*%
%TA.AperFunction,ComponentPad*%
%ADD24O,2.400000X0.900000*%
%TD*%
%TA.AperFunction,ComponentPad*%
%ADD25O,1.700000X0.900000*%
%TD*%
%TA.AperFunction,ComponentPad*%
%ADD26C,0.650000*%
%TD*%
%TA.AperFunction,SMDPad,CuDef*%
%ADD27RoundRect,0.237500X0.237500X-0.250000X0.237500X0.250000X-0.237500X0.250000X-0.237500X-0.250000X0*%
%TD*%
%TA.AperFunction,SMDPad,CuDef*%
%ADD28RoundRect,0.237500X-0.237500X0.300000X-0.237500X-0.300000X0.237500X-0.300000X0.237500X0.300000X0*%
%TD*%
%TA.AperFunction,SMDPad,CuDef*%
%ADD29RoundRect,0.237500X0.237500X-0.300000X0.237500X0.300000X-0.237500X0.300000X-0.237500X-0.300000X0*%
%TD*%
%TA.AperFunction,ComponentPad*%
%ADD30C,1.752600*%
%TD*%
%TA.AperFunction,SMDPad,CuDef*%
%ADD31RoundRect,0.237500X0.044194X0.380070X-0.380070X-0.044194X-0.044194X-0.380070X0.380070X0.044194X0*%
%TD*%
%TA.AperFunction,SMDPad,CuDef*%
%ADD32R,2.500000X2.500000*%
%TD*%
%TA.AperFunction,SMDPad,CuDef*%
%ADD33RoundRect,0.237500X0.300000X0.237500X-0.300000X0.237500X-0.300000X-0.237500X0.300000X-0.237500X0*%
%TD*%
%TA.AperFunction,ViaPad*%
%ADD34C,0.450000*%
%TD*%
%TA.AperFunction,Conductor*%
%ADD35C,0.150000*%
%TD*%
%TA.AperFunction,Conductor*%
%ADD36C,0.500000*%
%TD*%
G04 APERTURE END LIST*
D10*
%TO.P,J9,1,Pin_1*%
%TO.N,/PWM4*%
X152920000Y-45960000D03*
%TO.P,J9,2,Pin_2*%
%TO.N,/PWM3*%
X155460000Y-45960000D03*
%TO.P,J9,3,Pin_3*%
%TO.N,+BATT*%
X152920000Y-48500000D03*
%TO.P,J9,4,Pin_4*%
X155460000Y-48500000D03*
D11*
%TO.P,J9,5,Pin_5*%
%TO.N,GND*%
X152920000Y-51040000D03*
%TO.P,J9,6,Pin_6*%
X155460000Y-51040000D03*
%TD*%
D10*
%TO.P,J10,1,Pin_1*%
%TO.N,/PWM2*%
X158000000Y-45960000D03*
%TO.P,J10,2,Pin_2*%
%TO.N,/PWM1*%
X160540000Y-45960000D03*
%TO.P,J10,3,Pin_3*%
%TO.N,+BATT*%
X158000000Y-48500000D03*
%TO.P,J10,4,Pin_4*%
X160540000Y-48500000D03*
D11*
%TO.P,J10,5,Pin_5*%
%TO.N,GND*%
X158000000Y-51040000D03*
%TO.P,J10,6,Pin_6*%
X160540000Y-51040000D03*
%TD*%
D12*
%TO.P,J11,1,Pin_1*%
%TO.N,/Pyro/PYRO1*%
X152800000Y-74500000D03*
D13*
X157800000Y-74500000D03*
D14*
%TO.P,J11,2,Pin_2*%
%TO.N,/Pyro/PYRO_LOW*%
X152800000Y-71000000D03*
X157800000Y-71000000D03*
%TO.P,J11,3,Pin_3*%
%TO.N,/Pyro/PYRO2*%
X152800000Y-67500000D03*
X157800000Y-67500000D03*
%TO.P,J11,4,Pin_4*%
%TO.N,/Pyro/PYRO_LOW*%
X152800000Y-64000000D03*
X157800000Y-64000000D03*
%TO.P,J11,5,Pin_5*%
%TO.N,/Pyro/PYRO3*%
X152800000Y-60500000D03*
X157800000Y-60500000D03*
%TO.P,J11,6,Pin_6*%
%TO.N,/Pyro/PYRO_LOW*%
X152800000Y-57000000D03*
X157800000Y-57000000D03*
%TD*%
D15*
%TO.P,D7,1,K*%
%TO.N,GND*%
X74987500Y-56200000D03*
%TO.P,D7,2,A*%
%TO.N,Net-(D7-A)*%
X73412500Y-56200000D03*
%TD*%
D11*
%TO.P,J6,1,Pin_1*%
%TO.N,+3V3*%
X87700000Y-44660000D03*
D10*
%TO.P,J6,2,Pin_2*%
X85160000Y-44660000D03*
%TO.P,J6,3,Pin_3*%
%TO.N,/SWDCLK*%
X87700000Y-47200000D03*
%TO.P,J6,4,Pin_4*%
%TO.N,PPS*%
X85160000Y-47200000D03*
%TO.P,J6,5,Pin_5*%
%TO.N,/SWDIO*%
X87700000Y-49740000D03*
%TO.P,J6,6,Pin_6*%
%TO.N,BOOTSEL*%
X85160000Y-49740000D03*
%TO.P,J6,7,Pin_7*%
%TO.N,/GPIO39*%
X87700000Y-52280000D03*
%TO.P,J6,8,Pin_8*%
%TO.N,/RESET*%
X85160000Y-52280000D03*
%TO.P,J6,9,Pin_9*%
%TO.N,/GPIO41*%
X87700000Y-54820000D03*
%TO.P,J6,10,Pin_10*%
%TO.N,/GPIO42*%
X85160000Y-54820000D03*
%TO.P,J6,11,Pin_11*%
%TO.N,/GPIO43*%
X87700000Y-57360000D03*
%TO.P,J6,12,Pin_12*%
%TO.N,/GPIO44*%
X85160000Y-57360000D03*
%TO.P,J6,13,Pin_13*%
%TO.N,/GPIO46*%
X87700000Y-59900000D03*
%TO.P,J6,14,Pin_14*%
%TO.N,/GPIO45*%
X85160000Y-59900000D03*
%TO.P,J6,15,Pin_15*%
%TO.N,GND*%
X87700000Y-62440000D03*
%TO.P,J6,16,Pin_16*%
X85160000Y-62440000D03*
%TD*%
D16*
%TO.P,J7,1,DAT2*%
%TO.N,/microSD/_DAT2*%
X116370000Y-77000000D03*
%TO.P,J7,2,CD/DAT3*%
%TO.N,/microSD/_DAT3*%
X117470000Y-77000000D03*
%TO.P,J7,3,CMD*%
%TO.N,/microSD/_CMD*%
X118570000Y-77000000D03*
%TO.P,J7,4,VDD*%
%TO.N,+3V3*%
X119670000Y-77000000D03*
%TO.P,J7,5,CLK*%
%TO.N,/microSD/_CLK*%
X120770000Y-77000000D03*
%TO.P,J7,6,VSS*%
%TO.N,GND*%
X121870000Y-77000000D03*
%TO.P,J7,7,DAT0*%
%TO.N,/microSD/_DAT0*%
X122970000Y-77000000D03*
%TO.P,J7,8,DAT1*%
%TO.N,/microSD/_DAT1*%
X124070000Y-77000000D03*
D17*
%TO.P,J7,9,DETECT_LEVER*%
%TO.N,/SD_detect*%
X114580000Y-64535000D03*
D18*
%TO.P,J7,10,DETECT_SWITCH*%
%TO.N,+3V3*%
X118845000Y-64460000D03*
D19*
%TO.P,J7,11,11*%
%TO.N,GND*%
X125230000Y-65735000D03*
D20*
%TO.P,J7,12,12*%
X125150000Y-76500000D03*
D21*
%TO.P,J7,13,13*%
X112490000Y-76985000D03*
D19*
%TO.P,J7,14,14*%
X112270000Y-65735000D03*
%TD*%
D22*
%TO.P,C9,1*%
%TO.N,GND*%
X94937500Y-56100000D03*
%TO.P,C9,2*%
%TO.N,+3V3*%
X96662500Y-56100000D03*
%TD*%
D11*
%TO.P,J5,1,Pin_1*%
%TO.N,+3V3*%
X123000000Y-44760000D03*
D10*
%TO.P,J5,2,Pin_2*%
X120460000Y-44760000D03*
%TO.P,J5,3,Pin_3*%
%TO.N,/PWM4*%
X123000000Y-47300000D03*
%TO.P,J5,4,Pin_4*%
%TO.N,/PWM1*%
X120460000Y-47300000D03*
%TO.P,J5,5,Pin_5*%
%TO.N,/PWM2*%
X123000000Y-49840000D03*
%TO.P,J5,6,Pin_6*%
%TO.N,/PWM3*%
X120460000Y-49840000D03*
%TO.P,J5,7,Pin_7*%
%TO.N,GND*%
X123000000Y-52380000D03*
%TO.P,J5,8,Pin_8*%
%TO.N,/GPIO20*%
X120460000Y-52380000D03*
%TO.P,J5,9,Pin_9*%
%TO.N,/RX_GPS*%
X123000000Y-54920000D03*
%TO.P,J5,10,Pin_10*%
%TO.N,/TX_GPS*%
X120460000Y-54920000D03*
%TO.P,J5,11,Pin_11*%
%TO.N,HIL_TX*%
X123000000Y-57460000D03*
%TO.P,J5,12,Pin_12*%
%TO.N,HIL_RX*%
X120460000Y-57460000D03*
%TO.P,J5,13,Pin_13*%
%TO.N,GND*%
X123000000Y-60000000D03*
%TO.P,J5,14,Pin_14*%
X120460000Y-60000000D03*
%TO.P,J5,15,Pin_15*%
%TO.N,/SDA_RADIO*%
X123000000Y-62540000D03*
%TO.P,J5,16,Pin_16*%
%TO.N,/SCL_RADIO*%
X120460000Y-62540000D03*
%TD*%
D15*
%TO.P,D6,1,K*%
%TO.N,GND*%
X74987500Y-57950000D03*
%TO.P,D6,2,A*%
%TO.N,Net-(D6-A)*%
X73412500Y-57950000D03*
%TD*%
D23*
%TO.P,SW1,1,1*%
%TO.N,GND*%
X73875000Y-62500000D03*
%TO.P,SW1,2,2*%
%TO.N,BOOTSEL*%
X81625000Y-62500000D03*
%TD*%
D24*
%TO.P,USB1,17,EH*%
%TO.N,GND*%
X78175000Y-43755000D03*
D25*
%TO.P,USB1,18,EH*%
X74795000Y-43755000D03*
%TO.P,USB1,19,EH*%
X74795000Y-52395000D03*
D24*
%TO.P,USB1,20,EH*%
X78175000Y-52395000D03*
D26*
%TO.P,USB1,A1,GND*%
X79155000Y-51045000D03*
%TO.P,USB1,A4,VBUS*%
%TO.N,VUSB*%
X79155000Y-50195000D03*
%TO.P,USB1,A5,CC1*%
%TO.N,Net-(USB1-CC1)*%
X79155000Y-49345000D03*
%TO.P,USB1,A6,DP1*%
%TO.N,D+*%
X79155000Y-48495000D03*
%TO.P,USB1,A7,DN1*%
%TO.N,D-*%
X79155000Y-47645000D03*
%TO.P,USB1,A8,SBU1*%
%TO.N,unconnected-(USB1-SBU1-PadA8)*%
X79155000Y-46795000D03*
%TO.P,USB1,A9,VBUS*%
%TO.N,VUSB*%
X79155000Y-45945000D03*
%TO.P,USB1,A12,GND*%
%TO.N,GND*%
X79155000Y-45095000D03*
%TO.P,USB1,B1,GND*%
X77805000Y-45095000D03*
%TO.P,USB1,B4,VBUS*%
%TO.N,VUSB*%
X77805000Y-45945000D03*
%TO.P,USB1,B5,CC2*%
%TO.N,Net-(USB1-CC2)*%
X77805000Y-46795000D03*
%TO.P,USB1,B6,DP2*%
%TO.N,D+*%
X77805000Y-47645000D03*
%TO.P,USB1,B7,DN2*%
%TO.N,D-*%
X77805000Y-48495000D03*
%TO.P,USB1,B8,SBU2*%
%TO.N,unconnected-(USB1-SBU2-PadB8)*%
X77805000Y-49345000D03*
%TO.P,USB1,B9,VBUS*%
%TO.N,VUSB*%
X77805000Y-50195000D03*
%TO.P,USB1,B12,GND*%
%TO.N,GND*%
X77805000Y-51045000D03*
%TD*%
D22*
%TO.P,C10,1*%
%TO.N,GND*%
X95737500Y-61900000D03*
%TO.P,C10,2*%
%TO.N,+3V3*%
X97462500Y-61900000D03*
%TD*%
%TO.P,C13,1*%
%TO.N,GND*%
X94737500Y-57575000D03*
%TO.P,C13,2*%
%TO.N,+1V1*%
X96462500Y-57575000D03*
%TD*%
D27*
%TO.P,R7,1*%
%TO.N,GND*%
X73850000Y-70712500D03*
%TO.P,R7,2*%
%TO.N,Net-(R7-Pad2)*%
X73850000Y-68887500D03*
%TD*%
D28*
%TO.P,C14,1*%
%TO.N,GND*%
X105200000Y-47837500D03*
%TO.P,C14,2*%
%TO.N,+1V1*%
X105200000Y-49562500D03*
%TD*%
D22*
%TO.P,C11,1*%
%TO.N,GND*%
X95837500Y-53600000D03*
%TO.P,C11,2*%
%TO.N,+3V3*%
X97562500Y-53600000D03*
%TD*%
D15*
%TO.P,D5,1,K*%
%TO.N,GND*%
X74987500Y-59700000D03*
%TO.P,D5,2,A*%
%TO.N,Net-(D5-A)*%
X73412500Y-59700000D03*
%TD*%
D29*
%TO.P,C6,1*%
%TO.N,GND*%
X108000000Y-65287500D03*
%TO.P,C6,2*%
%TO.N,+3V3*%
X108000000Y-63562500D03*
%TD*%
D28*
%TO.P,C7,1*%
%TO.N,GND*%
X107500000Y-47037500D03*
%TO.P,C7,2*%
%TO.N,+3V3*%
X107500000Y-48762500D03*
%TD*%
D30*
%TO.P,J8,1,1*%
%TO.N,unconnected-(J8-Pad1)*%
X151264452Y-40651100D03*
%TO.P,J8,2,2*%
%TO.N,unconnected-(J8-Pad2)*%
X151264452Y-38151100D03*
%TO.P,J8,3,3*%
%TO.N,+BATT*%
X153764452Y-40651100D03*
%TO.P,J8,4,4*%
%TO.N,GND*%
X153764452Y-38151100D03*
%TD*%
D31*
%TO.P,C8,1*%
%TO.N,GND*%
X109659880Y-49990120D03*
%TO.P,C8,2*%
%TO.N,+3V3*%
X108440120Y-51209880D03*
%TD*%
D32*
%TO.P,LS1,1*%
%TO.N,N/C*%
X88250000Y-76100000D03*
%TO.P,LS1,2*%
X95250000Y-76100000D03*
%TO.P,LS1,N*%
%TO.N,Net-(Q3-D)*%
X95250000Y-69100000D03*
%TO.P,LS1,P*%
%TO.N,+3V3*%
X88250000Y-69100000D03*
%TD*%
D23*
%TO.P,SW2,1,1*%
%TO.N,Net-(R7-Pad2)*%
X73850000Y-67000000D03*
%TO.P,SW2,2,2*%
%TO.N,/RESET*%
X81600000Y-67000000D03*
%TD*%
D33*
%TO.P,C5,1*%
%TO.N,GND*%
X116237500Y-59575000D03*
%TO.P,C5,2*%
%TO.N,+3V3*%
X114512500Y-59575000D03*
%TD*%
%TO.P,C15,1*%
%TO.N,GND*%
X116137500Y-57600000D03*
%TO.P,C15,2*%
%TO.N,+1V1*%
X114412500Y-57600000D03*
%TD*%
%TO.P,C12,1*%
%TO.N,GND*%
X115562500Y-55600000D03*
%TO.P,C12,2*%
%TO.N,+3V3*%
X113837500Y-55600000D03*
%TD*%
D34*
%TO.N,+1V1*%
X105150000Y-49575000D03*
X97711801Y-57573199D03*
X114412500Y-57600000D03*
%TO.N,VUSB*%
X95337500Y-34662500D03*
X150462000Y-47200000D03*
%TO.N,+BATT*%
X151800000Y-42300000D03*
%TO.N,/microSD/_CLK*%
X120200000Y-70275000D03*
%TO.N,/microSD/_DAT1*%
X122562500Y-70362500D03*
%TO.N,/microSD/_DAT0*%
X121000000Y-69925000D03*
%TO.N,/SD_detect*%
X116593538Y-63481462D03*
X113075000Y-65275000D03*
%TO.N,/PWM3*%
X113825000Y-45171318D03*
X125950000Y-49025000D03*
%TO.N,/PWM1*%
X118068801Y-47305199D03*
X124975000Y-48375000D03*
X113900027Y-46425000D03*
%TO.N,/PWM4*%
X113930699Y-44580699D03*
X126175000Y-47300000D03*
%TO.N,/PWM2*%
X113881493Y-45768655D03*
X126000000Y-49850000D03*
%TO.N,/SCL_RADIO*%
X109676000Y-64687396D03*
%TO.N,/SDA_RADIO*%
X110696649Y-64925000D03*
%TO.N,HIL_RX*%
X112400000Y-58825000D03*
%TO.N,/Pyro/PYRO_LOW*%
X140925000Y-56475000D03*
%TO.N,/Pyro/PYRO_HIGH*%
X146325000Y-65300000D03*
X140875000Y-52850000D03*
X145650000Y-58825000D03*
X140875000Y-54375000D03*
X140875000Y-53600000D03*
X145775000Y-74275000D03*
%TO.N,/PYRO_SENSE*%
X115475000Y-61300000D03*
X98946012Y-56867593D03*
%TO.N,/PYRO_ENABLE*%
X99050000Y-54578814D03*
X114575000Y-60475000D03*
%TO.N,/PYRO_FIRE_1*%
X97837500Y-55712500D03*
X123625000Y-66101000D03*
%TO.N,/PYRO_FIRE_2*%
X98425000Y-55479814D03*
X117375000Y-63600000D03*
%TO.N,/PYRO_FIRE_3*%
X98775783Y-55966593D03*
X117130699Y-60744301D03*
%TO.N,/SD_DAT2*%
X116750000Y-64700000D03*
X116633059Y-66000000D03*
%TO.N,/SD_DAT3*%
X117400000Y-66025000D03*
X117400000Y-64675000D03*
%TO.N,/microSD/_CMD*%
X118200000Y-69975000D03*
%TO.N,/RESET*%
X83575000Y-64575000D03*
%TO.N,/IMU_INT2*%
X112125000Y-47250000D03*
X118961395Y-40900000D03*
%TO.N,/IMU45_INT2*%
X107125000Y-40575000D03*
X112269301Y-53474000D03*
%TO.N,/SPI1.RX*%
X114900000Y-39475000D03*
X112481801Y-37493199D03*
%TO.N,Net-(D5-A)*%
X73412500Y-59700000D03*
%TO.N,/IMU_CS*%
X113275000Y-48400000D03*
X121775000Y-40900000D03*
%TO.N,/SPI1.CK*%
X110536354Y-40236354D03*
X112075000Y-56325000D03*
X111837500Y-38787500D03*
X111675000Y-42350000D03*
X122350707Y-39825706D03*
%TO.N,/MAG_CS*%
X112625962Y-44009021D03*
X112625000Y-56725000D03*
X93549000Y-39650000D03*
X94650000Y-38150000D03*
%TO.N,/IMU45_INT1*%
X112050000Y-54375000D03*
X109356801Y-35481801D03*
%TO.N,Net-(D6-A)*%
X73412500Y-57950000D03*
%TO.N,/IMU_INT1*%
X115425000Y-41700000D03*
X113074000Y-47175000D03*
%TO.N,/BARO_INT*%
X102825000Y-50150000D03*
X111742705Y-35329603D03*
%TO.N,/SPI1.TX*%
X122975000Y-39825000D03*
X114375000Y-40875000D03*
%TO.N,Net-(D7-A)*%
X73412500Y-56200000D03*
%TO.N,/BARO_CS*%
X111025000Y-35825000D03*
X102950000Y-50900000D03*
%TO.N,/IMU45_CS*%
X113175000Y-58025000D03*
X108550000Y-40475000D03*
%TO.N,Net-(Q3-D)*%
X95275000Y-69000000D03*
%TO.N,/BUZZ*%
X92350000Y-60450000D03*
X98800000Y-53675000D03*
%TO.N,/L_RED*%
X90225000Y-53175000D03*
X79450000Y-56600000D03*
%TO.N,/L_GREEN*%
X90250000Y-53800000D03*
X80125000Y-57400000D03*
%TO.N,/L_BLUE*%
X90925000Y-54000000D03*
X79825000Y-58925000D03*
%TO.N,+3V3*%
X93000000Y-76575000D03*
X140500000Y-42937500D03*
X113500000Y-59825000D03*
X124625000Y-35251000D03*
X101037500Y-36487500D03*
X111700000Y-36075000D03*
X140500000Y-48162500D03*
X113600000Y-55325000D03*
X106625000Y-74837500D03*
X138950000Y-48162500D03*
X119675000Y-75050000D03*
X108000000Y-63575000D03*
X88250000Y-69100000D03*
X118845000Y-64460000D03*
X111050000Y-76850000D03*
X148225000Y-42512500D03*
X104850000Y-35400000D03*
X103390120Y-38409880D03*
X119400001Y-36718200D03*
X108440120Y-51209880D03*
X111425000Y-70200000D03*
X98625000Y-61900000D03*
X105150000Y-63587249D03*
X96887500Y-65200000D03*
X98950000Y-52950000D03*
X127612500Y-62500000D03*
X137400000Y-48162500D03*
X107500000Y-48775000D03*
X103662500Y-64787500D03*
X126875000Y-69375000D03*
X135850000Y-48162500D03*
X127600000Y-64100000D03*
X97700000Y-56925000D03*
%TO.N,/RX_GPS*%
X114025000Y-54650000D03*
%TO.N,/TX_GPS*%
X114125000Y-54050000D03*
%TO.N,PPS*%
X89625000Y-51675000D03*
%TO.N,HIL_TX*%
X113200000Y-59100000D03*
%TO.N,/GPIO20*%
X113925000Y-49600000D03*
%TO.N,/BATT_SENSE*%
X143525000Y-38250000D03*
X99318301Y-60620304D03*
%TO.N,GND*%
X137400000Y-46437500D03*
X116137500Y-57600000D03*
X74987500Y-56200000D03*
X105050000Y-58225000D03*
X135850000Y-46437500D03*
X146962500Y-36800000D03*
X125150000Y-76500000D03*
X138950000Y-46437500D03*
X94737500Y-57575000D03*
X135900000Y-60112500D03*
X142300000Y-72600000D03*
X94937500Y-56100000D03*
X108252000Y-67375000D03*
X138406500Y-67818000D03*
X101925000Y-66300000D03*
X119400001Y-38443200D03*
X74987500Y-59700000D03*
X73850000Y-70712500D03*
X126225000Y-67000000D03*
X107350000Y-45475000D03*
X143510000Y-59840500D03*
X102600000Y-43737500D03*
X95837500Y-53600000D03*
X140500000Y-46437500D03*
X111600000Y-68812500D03*
X143637500Y-42050000D03*
X146725000Y-45300000D03*
X74987500Y-57950000D03*
X139175000Y-61575000D03*
X112490000Y-76985000D03*
X107500000Y-47037500D03*
X120400000Y-35251000D03*
X89000000Y-66912500D03*
X93000000Y-74837500D03*
X109659880Y-49990120D03*
X106600000Y-58225000D03*
X112575000Y-39751000D03*
X101037500Y-38212500D03*
X95737500Y-61900000D03*
X110950000Y-75175000D03*
X105050000Y-43725000D03*
X121870000Y-77000000D03*
X141950000Y-68687500D03*
X104750000Y-72600000D03*
X105800000Y-57375000D03*
X104609880Y-37190120D03*
X104850000Y-56300000D03*
X90475000Y-68925000D03*
X73875000Y-62500000D03*
X109800000Y-45400000D03*
X144500000Y-48575000D03*
X115562500Y-55600000D03*
X115350000Y-35775000D03*
X97062500Y-40100000D03*
X138750000Y-42937500D03*
X73887500Y-47200000D03*
X101937500Y-64787500D03*
X116237500Y-59575000D03*
X106400000Y-56225000D03*
X96937500Y-63700000D03*
X141224000Y-63523500D03*
X95637500Y-35800000D03*
X112925000Y-68300000D03*
%TO.N,/microSD/_DAT2*%
X115700000Y-70625000D03*
%TO.N,/microSD/_DAT3*%
X117375000Y-69850000D03*
%TO.N,BOOTSEL*%
X83126000Y-60925000D03*
X81625000Y-62500000D03*
%TD*%
D35*
%TO.N,+1V1*%
X97525000Y-57575000D02*
X96462500Y-57575000D01*
X105150000Y-49575000D02*
X105162500Y-49562500D01*
X105162500Y-49562500D02*
X105200000Y-49562500D01*
X97526801Y-57573199D02*
X97525000Y-57575000D01*
X97711801Y-57573199D02*
X97526801Y-57573199D01*
%TO.N,D-*%
X78055000Y-48495000D02*
X78905000Y-47645000D01*
X77805000Y-48495000D02*
X78055000Y-48495000D01*
X78905000Y-47645000D02*
X79155000Y-47645000D01*
%TO.N,/microSD/_CLK*%
X120200000Y-70275000D02*
X120200000Y-72610000D01*
X120770000Y-73180000D02*
X120770000Y-77000000D01*
X120200000Y-72610000D02*
X120770000Y-73180000D01*
%TO.N,/microSD/_DAT1*%
X124070000Y-77000000D02*
X124070000Y-74145000D01*
X124070000Y-74145000D02*
X122562500Y-72637500D01*
X122562500Y-72637500D02*
X122562500Y-70362500D01*
%TO.N,/microSD/_DAT0*%
X121000000Y-72500000D02*
X122970000Y-74470000D01*
X122970000Y-74470000D02*
X122970000Y-77000000D01*
X121000000Y-69925000D02*
X121000000Y-72500000D01*
%TO.N,/SD_detect*%
X116593199Y-63481801D02*
X116168199Y-63481801D01*
X116168199Y-63481801D02*
X115115000Y-64535000D01*
X114570000Y-64525000D02*
X114580000Y-64535000D01*
X113075000Y-65275000D02*
X113825000Y-64525000D01*
X115115000Y-64535000D02*
X114580000Y-64535000D01*
X116593538Y-63481462D02*
X116593199Y-63481801D01*
X113825000Y-64525000D02*
X114570000Y-64525000D01*
%TO.N,/PWM3*%
X149399000Y-49026000D02*
X151325000Y-47100000D01*
X119790000Y-49840000D02*
X120460000Y-49840000D01*
X154320000Y-47100000D02*
X155460000Y-45960000D01*
X151325000Y-47100000D02*
X154320000Y-47100000D01*
X125951000Y-49026000D02*
X149399000Y-49026000D01*
X118825000Y-48875000D02*
X119790000Y-49840000D01*
X118825000Y-46675000D02*
X118825000Y-48875000D01*
X117321318Y-45171318D02*
X118825000Y-46675000D01*
X125950000Y-49025000D02*
X125951000Y-49026000D01*
X113825000Y-45171318D02*
X117321318Y-45171318D01*
%TO.N,/PWM1*%
X125475000Y-47875000D02*
X125475000Y-47275000D01*
X117225000Y-46450000D02*
X118068801Y-47293801D01*
X113900054Y-46450000D02*
X117225000Y-46450000D01*
X124975000Y-48375000D02*
X125475000Y-47875000D01*
X113900027Y-46425000D02*
X113900027Y-46450027D01*
X158891500Y-44311500D02*
X160540000Y-45960000D01*
X125475000Y-47275000D02*
X128438500Y-44311500D01*
X118068801Y-47293801D02*
X118068801Y-47305199D01*
X128438500Y-44311500D02*
X158891500Y-44311500D01*
X113900027Y-46450027D02*
X113900054Y-46450000D01*
%TO.N,/PWM4*%
X131590000Y-45960000D02*
X152920000Y-45960000D01*
X113930699Y-44580699D02*
X117780699Y-44580699D01*
X117780699Y-44580699D02*
X119250000Y-46050000D01*
X130250000Y-47300000D02*
X131590000Y-45960000D01*
X119250000Y-46050000D02*
X121750000Y-46050000D01*
X126175000Y-47300000D02*
X130250000Y-47300000D01*
X121750000Y-46050000D02*
X123000000Y-47300000D01*
%TO.N,/PWM2*%
X126000000Y-49850000D02*
X149350000Y-49850000D01*
X156559000Y-47401000D02*
X158000000Y-45960000D01*
X117168655Y-45768655D02*
X118524000Y-47124000D01*
X118524000Y-49674000D02*
X119900000Y-51050000D01*
X121790000Y-51050000D02*
X123000000Y-49840000D01*
X119900000Y-51050000D02*
X121790000Y-51050000D01*
X149350000Y-49850000D02*
X151799000Y-47401000D01*
X151799000Y-47401000D02*
X156559000Y-47401000D01*
X118524000Y-47124000D02*
X118524000Y-49674000D01*
X113881493Y-45768655D02*
X117168655Y-45768655D01*
%TO.N,/SCL_RADIO*%
X109676000Y-64687396D02*
X110212604Y-64687396D01*
X119974801Y-62054801D02*
X120460000Y-62540000D01*
X110649000Y-63974678D02*
X110649000Y-63826000D01*
X110212604Y-64687396D02*
X110649000Y-64251000D01*
X112568877Y-62054801D02*
X118631123Y-62054801D01*
X118631123Y-62054801D02*
X118880479Y-62054801D01*
X112319521Y-62054801D02*
X112420199Y-62054801D01*
X110649000Y-63826000D02*
X110649000Y-63725322D01*
X110649000Y-63725322D02*
X110825322Y-63549000D01*
X112420199Y-62054801D02*
X112568877Y-62054801D01*
X112143199Y-62231123D02*
X112319521Y-62054801D01*
X110825322Y-63549000D02*
X112143199Y-62231123D01*
X118880479Y-62054801D02*
X119974801Y-62054801D01*
X110649000Y-64251000D02*
X110649000Y-63974678D01*
%TO.N,/SDA_RADIO*%
X112444199Y-62355801D02*
X110950000Y-63850000D01*
X123000000Y-62540000D02*
X121890000Y-63650000D01*
X110950000Y-63850000D02*
X110950000Y-64671649D01*
X110950000Y-64671649D02*
X110696649Y-64925000D01*
X121890000Y-63650000D02*
X120050000Y-63650000D01*
X120050000Y-63650000D02*
X118755801Y-62355801D01*
X118755801Y-62355801D02*
X112444199Y-62355801D01*
%TO.N,HIL_RX*%
X112800000Y-58475000D02*
X119445000Y-58475000D01*
X112500000Y-58775000D02*
X112800000Y-58475000D01*
X112400000Y-58825000D02*
X112450000Y-58775000D01*
X112450000Y-58775000D02*
X112500000Y-58775000D01*
X119445000Y-58475000D02*
X120460000Y-57460000D01*
D36*
%TO.N,/Pyro/PYRO_LOW*%
X141450000Y-57000000D02*
X140925000Y-56475000D01*
X152800000Y-57000000D02*
X141450000Y-57000000D01*
D35*
%TO.N,Net-(R7-Pad2)*%
X73850000Y-68887500D02*
X73850000Y-67000000D01*
%TO.N,/PYRO_SENSE*%
X99038602Y-56775000D02*
X106550000Y-56775000D01*
X98946012Y-56867590D02*
X99038602Y-56775000D01*
X98946012Y-56867593D02*
X98946012Y-56867590D01*
X111075000Y-61300000D02*
X115475000Y-61300000D01*
X106550000Y-56775000D02*
X111075000Y-61300000D01*
%TO.N,/PYRO_ENABLE*%
X99050000Y-54578814D02*
X106379492Y-54578814D01*
X112275678Y-60475000D02*
X114575000Y-60475000D01*
X106379492Y-54578814D02*
X112275678Y-60475000D01*
%TO.N,/PYRO_FIRE_1*%
X98350000Y-56225000D02*
X98350000Y-60450000D01*
X111001000Y-65549000D02*
X111251000Y-65299000D01*
X97837500Y-55712500D02*
X98350000Y-56225000D01*
X109424678Y-65549000D02*
X111001000Y-65549000D01*
X118573000Y-62699000D02*
X119825000Y-63951000D01*
X119825000Y-63951000D02*
X121475000Y-63951000D01*
X112526000Y-62699000D02*
X118573000Y-62699000D01*
X109226000Y-63101000D02*
X109226000Y-65350322D01*
X111251000Y-63974000D02*
X112526000Y-62699000D01*
X121475000Y-63951000D02*
X123625000Y-66101000D01*
X99650000Y-61750000D02*
X107875000Y-61750000D01*
X111251000Y-65299000D02*
X111251000Y-63974000D01*
X98350000Y-60450000D02*
X99650000Y-61750000D01*
X107875000Y-61750000D02*
X109226000Y-63101000D01*
X109226000Y-65350322D02*
X109424678Y-65549000D01*
%TO.N,/PYRO_FIRE_2*%
X94650000Y-60125000D02*
X97525000Y-60125000D01*
X93150000Y-58625000D02*
X94650000Y-60125000D01*
X111675000Y-63975000D02*
X112650000Y-63000000D01*
X109300000Y-65850000D02*
X111325000Y-65850000D01*
X112650000Y-63000000D02*
X116775000Y-63000000D01*
X111675000Y-65500000D02*
X111675000Y-63975000D01*
X98425000Y-55479814D02*
X98254814Y-55479814D01*
X93150000Y-56200000D02*
X93150000Y-58625000D01*
X107800000Y-62100000D02*
X108925000Y-63225000D01*
X97800000Y-55025000D02*
X94325000Y-55025000D01*
X99500000Y-62100000D02*
X107800000Y-62100000D01*
X108925000Y-65475000D02*
X109300000Y-65850000D01*
X116775000Y-63000000D02*
X117375000Y-63600000D01*
X108925000Y-63225000D02*
X108925000Y-65475000D01*
X111325000Y-65850000D02*
X111675000Y-65500000D01*
X98254814Y-55479814D02*
X97800000Y-55025000D01*
X97525000Y-60125000D02*
X99500000Y-62100000D01*
X94325000Y-55025000D02*
X93150000Y-56200000D01*
%TO.N,/PYRO_FIRE_3*%
X114943510Y-60744301D02*
X117130699Y-60744301D01*
X98967376Y-55775000D02*
X106800000Y-55775000D01*
X112000000Y-60975000D02*
X114712811Y-60975000D01*
X114712811Y-60975000D02*
X114943510Y-60744301D01*
X98775783Y-55966593D02*
X98967376Y-55775000D01*
X106800000Y-55775000D02*
X112000000Y-60975000D01*
%TO.N,/SD_DAT2*%
X116750000Y-65883059D02*
X116633059Y-66000000D01*
X116750000Y-64700000D02*
X116750000Y-65883059D01*
%TO.N,/SD_DAT3*%
X117400000Y-64675000D02*
X117400000Y-66025000D01*
%TO.N,/microSD/_CMD*%
X118570000Y-70345000D02*
X118200000Y-69975000D01*
X118570000Y-77000000D02*
X118570000Y-70345000D01*
%TO.N,/RESET*%
X83575000Y-64575000D02*
X81600000Y-66550000D01*
X81600000Y-66550000D02*
X81600000Y-67000000D01*
%TO.N,/IMU_INT2*%
X112125000Y-43873587D02*
X112356388Y-43642199D01*
X112125000Y-47250000D02*
X112125000Y-43873587D01*
X114975000Y-41025000D02*
X118875000Y-41025000D01*
X118961395Y-40938605D02*
X118961395Y-40900000D01*
X118875000Y-41025000D02*
X118961395Y-40938605D01*
X112356388Y-43642199D02*
X112357801Y-43642199D01*
X112357801Y-43642199D02*
X114975000Y-41025000D01*
%TO.N,/IMU45_INT2*%
X108249000Y-46250322D02*
X108249000Y-41699000D01*
X112269301Y-50519979D02*
X108425322Y-46676000D01*
X108249000Y-46499678D02*
X108249000Y-46401000D01*
X112269301Y-53474000D02*
X112269301Y-50519979D01*
X108249000Y-41699000D02*
X107125000Y-40575000D01*
X108249000Y-46401000D02*
X108249000Y-46299000D01*
X108249000Y-46299000D02*
X108249000Y-46250322D01*
X108425322Y-46676000D02*
X108249000Y-46499678D01*
%TO.N,/SPI1.RX*%
X112481801Y-37493199D02*
X112493199Y-37493199D01*
X112493199Y-37493199D02*
X114475000Y-39475000D01*
X114475000Y-39475000D02*
X114900000Y-39475000D01*
%TO.N,/IMU_CS*%
X113375000Y-44500000D02*
X116100000Y-41775000D01*
X113275000Y-48400000D02*
X113525000Y-48150000D01*
X113525000Y-46900000D02*
X113375000Y-46750000D01*
X113525000Y-48150000D02*
X113525000Y-46900000D01*
X120900000Y-41775000D02*
X121775000Y-40900000D01*
X116100000Y-41775000D02*
X120900000Y-41775000D01*
X113375000Y-46750000D02*
X113375000Y-44500000D01*
%TO.N,/SPI1.CK*%
X112499322Y-49274322D02*
X112323000Y-49098000D01*
X111675000Y-48450000D02*
X111675000Y-41375000D01*
X112599000Y-55801000D02*
X112599000Y-55175356D01*
X122125000Y-40050000D02*
X122349294Y-39825706D01*
X111675000Y-41375000D02*
X110536354Y-40236354D01*
X113350000Y-54175000D02*
X113350000Y-50125000D01*
X112775322Y-54749678D02*
X113350000Y-54175000D01*
X112599000Y-55175356D02*
X112599000Y-54926000D01*
X110536354Y-40088646D02*
X110536354Y-40236354D01*
X111837500Y-38787500D02*
X110536354Y-40088646D01*
X111837500Y-38787500D02*
X112887500Y-38787500D01*
X112323000Y-49098000D02*
X111675000Y-48450000D01*
X112075000Y-56325000D02*
X112599000Y-55801000D01*
X114150000Y-40050000D02*
X122125000Y-40050000D01*
X122349294Y-39825706D02*
X122350707Y-39825706D01*
X112725000Y-54800000D02*
X112775322Y-54749678D01*
X112599000Y-54926000D02*
X112725000Y-54800000D01*
X113350000Y-50125000D02*
X112499322Y-49274322D01*
X112887500Y-38787500D02*
X114150000Y-40050000D01*
%TO.N,/MAG_CS*%
X112624000Y-48973322D02*
X113651000Y-50000322D01*
X94650000Y-38150000D02*
X94300000Y-38150000D01*
X94300000Y-38150000D02*
X93549000Y-38901000D01*
X113651000Y-50000322D02*
X113651000Y-54299678D01*
X113651000Y-54299678D02*
X112900000Y-55050678D01*
X93549000Y-38901000D02*
X93549000Y-39650000D01*
X112625962Y-44172038D02*
X112624000Y-44174000D01*
X112625962Y-44009021D02*
X112625962Y-44172038D01*
X112900000Y-56450000D02*
X112625000Y-56725000D01*
X112624000Y-44174000D02*
X112624000Y-48973322D01*
X112900000Y-55050678D02*
X112900000Y-56450000D01*
%TO.N,/IMU45_INT1*%
X109349000Y-46649000D02*
X109349000Y-39951000D01*
X112600000Y-54375000D02*
X113050000Y-53925000D01*
X113050000Y-53925000D02*
X113050000Y-50350000D01*
X112575000Y-36725000D02*
X112575000Y-35525000D01*
X112575000Y-35525000D02*
X111725000Y-34675000D01*
X113050000Y-50350000D02*
X109349000Y-46649000D01*
X111725000Y-34675000D02*
X110163602Y-34675000D01*
X112050000Y-54375000D02*
X112600000Y-54375000D01*
X110163602Y-34675000D02*
X109356801Y-35481801D01*
X109349000Y-39951000D02*
X112575000Y-36725000D01*
%TO.N,/IMU_INT1*%
X113074000Y-47175000D02*
X113074000Y-44051000D01*
X113074000Y-44051000D02*
X115425000Y-41700000D01*
%TO.N,/BARO_INT*%
X103600000Y-48125000D02*
X103600000Y-41875000D01*
X111722308Y-35350000D02*
X111742705Y-35329603D01*
X102825000Y-48900000D02*
X103600000Y-48125000D01*
X110125000Y-35350000D02*
X111722308Y-35350000D01*
X102825000Y-50150000D02*
X102825000Y-48900000D01*
X103600000Y-41875000D02*
X110125000Y-35350000D01*
%TO.N,/SPI1.TX*%
X122975000Y-39837811D02*
X122975000Y-39825000D01*
X114800000Y-40450000D02*
X122362811Y-40450000D01*
X114375000Y-40875000D02*
X114800000Y-40450000D01*
X122362811Y-40450000D02*
X122975000Y-39837811D01*
%TO.N,/BARO_CS*%
X104051000Y-42799000D02*
X111025000Y-35825000D01*
X102950000Y-50875000D02*
X104051000Y-49774000D01*
X104051000Y-49774000D02*
X104051000Y-42799000D01*
X102950000Y-50900000D02*
X102950000Y-50875000D01*
%TO.N,/IMU45_CS*%
X112975000Y-58025000D02*
X111525000Y-56575000D01*
X111525000Y-54262189D02*
X111863189Y-53924000D01*
X112501000Y-53924000D02*
X112750000Y-53675000D01*
X111863189Y-53924000D02*
X112501000Y-53924000D01*
X112750000Y-53675000D02*
X112750000Y-50575000D01*
X108550000Y-46375000D02*
X108550000Y-40475000D01*
X112750000Y-50575000D02*
X108550000Y-46375000D01*
X113175000Y-58025000D02*
X112975000Y-58025000D01*
X111525000Y-56575000D02*
X111525000Y-54262189D01*
%TO.N,/BUZZ*%
X97900000Y-54575000D02*
X98800000Y-53675000D01*
X96400000Y-54575000D02*
X97900000Y-54575000D01*
X94099322Y-54575000D02*
X96400000Y-54575000D01*
X92350000Y-60450000D02*
X92350000Y-56324322D01*
X92350000Y-56324322D02*
X94099322Y-54575000D01*
%TO.N,/L_RED*%
X90044000Y-53356000D02*
X82694000Y-53356000D01*
X90225000Y-53175000D02*
X90044000Y-53356000D01*
X82694000Y-53356000D02*
X79450000Y-56600000D01*
%TO.N,/L_GREEN*%
X90194000Y-53744000D02*
X83781000Y-53744000D01*
X90250000Y-53800000D02*
X90194000Y-53744000D01*
X83781000Y-53744000D02*
X80125000Y-57400000D01*
%TO.N,/L_BLUE*%
X89550000Y-55375000D02*
X89550000Y-57175000D01*
X80175000Y-58575000D02*
X79825000Y-58925000D01*
X90925000Y-54000000D02*
X89550000Y-55375000D01*
X88150000Y-58575000D02*
X80175000Y-58575000D01*
X89550000Y-57175000D02*
X88150000Y-58575000D01*
%TO.N,+3V3*%
X97700000Y-56650000D02*
X97150000Y-56100000D01*
X98625000Y-61900000D02*
X97462500Y-61900000D01*
X97562500Y-53587500D02*
X98200000Y-52950000D01*
X97700000Y-56925000D02*
X97700000Y-56650000D01*
X113750000Y-59575000D02*
X114512500Y-59575000D01*
X97150000Y-56100000D02*
X96662500Y-56100000D01*
X107500000Y-48775000D02*
X107500000Y-48762500D01*
X113437500Y-55425000D02*
X113437500Y-55600000D01*
X97562500Y-53600000D02*
X97562500Y-53587500D01*
X113500000Y-59825000D02*
X113750000Y-59575000D01*
X119670000Y-77000000D02*
X119670000Y-75055000D01*
X119670000Y-75055000D02*
X119675000Y-75050000D01*
X98200000Y-52950000D02*
X98950000Y-52950000D01*
%TO.N,/RX_GPS*%
X118668306Y-54650000D02*
X120014306Y-55996000D01*
X120014306Y-55996000D02*
X121924000Y-55996000D01*
X121924000Y-55996000D02*
X123000000Y-54920000D01*
X114025000Y-54650000D02*
X118668306Y-54650000D01*
%TO.N,/TX_GPS*%
X114125000Y-54050000D02*
X119550000Y-54050000D01*
X120420000Y-54920000D02*
X120460000Y-54920000D01*
X119550000Y-54050000D02*
X120420000Y-54920000D01*
%TO.N,PPS*%
X86460000Y-48500000D02*
X85160000Y-47200000D01*
X88425000Y-48500000D02*
X86460000Y-48500000D01*
X89625000Y-49700000D02*
X88425000Y-48500000D01*
X89625000Y-51675000D02*
X89625000Y-49700000D01*
%TO.N,HIL_TX*%
X113426000Y-58874000D02*
X121586000Y-58874000D01*
X113200000Y-59100000D02*
X113426000Y-58874000D01*
X121586000Y-58874000D02*
X123000000Y-57460000D01*
%TO.N,/GPIO20*%
X113925000Y-49600000D02*
X115875000Y-49600000D01*
X115875000Y-49600000D02*
X118655000Y-52380000D01*
X118655000Y-52380000D02*
X120460000Y-52380000D01*
%TO.N,/BATT_SENSE*%
X99319301Y-60993623D02*
X99319301Y-60621304D01*
X115661811Y-61751000D02*
X108301678Y-61751000D01*
X115662811Y-61750000D02*
X115661811Y-61751000D01*
X129325000Y-42000000D02*
X124525000Y-46800000D01*
X108301678Y-61751000D02*
X108176000Y-61625322D01*
X139775000Y-42000000D02*
X129325000Y-42000000D01*
X99774678Y-61449000D02*
X99550000Y-61224322D01*
X143525000Y-38250000D02*
X139775000Y-42000000D01*
X108176000Y-61625322D02*
X107999678Y-61449000D01*
X116400000Y-61300000D02*
X115950000Y-61750000D01*
X99550000Y-61224322D02*
X99319301Y-60993623D01*
X107999678Y-61449000D02*
X107750322Y-61449000D01*
X107750322Y-61449000D02*
X100399000Y-61449000D01*
X124525000Y-60375000D02*
X123600000Y-61300000D01*
X99319301Y-60621304D02*
X99318301Y-60620304D01*
X100399000Y-61449000D02*
X99774678Y-61449000D01*
X123600000Y-61300000D02*
X116400000Y-61300000D01*
X115950000Y-61750000D02*
X115662811Y-61750000D01*
X124525000Y-46800000D02*
X124525000Y-60375000D01*
%TO.N,GND*%
X105200000Y-47837500D02*
X105200000Y-47650000D01*
X108000000Y-67123000D02*
X108252000Y-67375000D01*
X105812500Y-47037500D02*
X107500000Y-47037500D01*
X125230000Y-66005000D02*
X126225000Y-67000000D01*
X125230000Y-65735000D02*
X125230000Y-66005000D01*
X108000000Y-65287500D02*
X108000000Y-67123000D01*
X112270000Y-67645000D02*
X112925000Y-68300000D01*
X105200000Y-47650000D02*
X105812500Y-47037500D01*
X112270000Y-65735000D02*
X112270000Y-67645000D01*
%TO.N,/microSD/_DAT2*%
X116370000Y-77000000D02*
X116370000Y-71295000D01*
X116370000Y-71295000D02*
X115700000Y-70625000D01*
%TO.N,/microSD/_DAT3*%
X117470000Y-77000000D02*
X117470000Y-69945000D01*
X117470000Y-69945000D02*
X117375000Y-69850000D01*
%TO.N,BOOTSEL*%
X82175000Y-62500000D02*
X81625000Y-62500000D01*
X83126000Y-60925000D02*
X83126000Y-61549000D01*
X83126000Y-61549000D02*
X82175000Y-62500000D01*
%TD*%
%TA.AperFunction,Conductor*%
%TO.N,/Pyro/PYRO_LOW*%
G36*
X162142539Y-53519685D02*
G01*
X162188294Y-53572489D01*
X162199500Y-53624000D01*
X162199500Y-78061569D01*
X162179815Y-78128608D01*
X162127011Y-78174363D01*
X162075520Y-78185569D01*
X151924020Y-78187240D01*
X151856978Y-78167566D01*
X151811214Y-78114770D01*
X151800000Y-78063240D01*
X151800000Y-75524500D01*
X151819685Y-75457461D01*
X151872489Y-75411706D01*
X151924000Y-75400500D01*
X153964822Y-75400500D01*
X154008717Y-75391768D01*
X154008717Y-75391767D01*
X154008722Y-75391767D01*
X154058504Y-75358504D01*
X154091767Y-75308722D01*
X154100500Y-75264820D01*
X154100500Y-73968476D01*
X156499500Y-73968476D01*
X156499500Y-75031523D01*
X156514352Y-75125298D01*
X156514353Y-75125301D01*
X156514354Y-75125303D01*
X156571950Y-75238342D01*
X156571951Y-75238343D01*
X156571954Y-75238347D01*
X156661652Y-75328045D01*
X156661656Y-75328048D01*
X156661658Y-75328050D01*
X156774697Y-75385646D01*
X156774699Y-75385646D01*
X156774701Y-75385647D01*
X156868477Y-75400500D01*
X156868482Y-75400500D01*
X158731523Y-75400500D01*
X158825298Y-75385647D01*
X158825298Y-75385646D01*
X158825303Y-75385646D01*
X158938342Y-75328050D01*
X159028050Y-75238342D01*
X159085646Y-75125303D01*
X159085647Y-75125298D01*
X159100500Y-75031523D01*
X159100500Y-73968476D01*
X159085647Y-73874701D01*
X159085646Y-73874699D01*
X159085646Y-73874697D01*
X159028050Y-73761658D01*
X159028048Y-73761656D01*
X159028045Y-73761652D01*
X158938347Y-73671954D01*
X158938343Y-73671951D01*
X158938342Y-73671950D01*
X158825303Y-73614354D01*
X158825301Y-73614353D01*
X158825298Y-73614352D01*
X158731523Y-73599500D01*
X158731518Y-73599500D01*
X156868482Y-73599500D01*
X156868477Y-73599500D01*
X156774701Y-73614352D01*
X156661656Y-73671951D01*
X156661652Y-73671954D01*
X156571954Y-73761652D01*
X156571951Y-73761656D01*
X156514352Y-73874701D01*
X156499500Y-73968476D01*
X154100500Y-73968476D01*
X154100500Y-73735180D01*
X154100500Y-73735177D01*
X154091768Y-73691282D01*
X154091767Y-73691281D01*
X154091767Y-73691278D01*
X154058504Y-73641496D01*
X154017880Y-73614352D01*
X154008724Y-73608234D01*
X154008717Y-73608231D01*
X153964822Y-73599500D01*
X153964820Y-73599500D01*
X151924000Y-73599500D01*
X151856961Y-73579815D01*
X151811206Y-73527011D01*
X151800000Y-73475500D01*
X151800000Y-72290046D01*
X151819685Y-72223007D01*
X151872489Y-72177252D01*
X151941647Y-72167308D01*
X151962319Y-72172115D01*
X152107296Y-72219221D01*
X152301618Y-72250000D01*
X152550000Y-72250000D01*
X152550000Y-71548482D01*
X152568409Y-71559111D01*
X152721009Y-71600000D01*
X152878991Y-71600000D01*
X153031591Y-71559111D01*
X153050000Y-71548482D01*
X153050000Y-72250000D01*
X153298382Y-72250000D01*
X153492705Y-72219221D01*
X153679835Y-72158418D01*
X153855143Y-72069095D01*
X154014321Y-71953444D01*
X154153444Y-71814321D01*
X154269095Y-71655143D01*
X154358418Y-71479837D01*
X154419218Y-71292716D01*
X154425984Y-71250000D01*
X153348482Y-71250000D01*
X153359111Y-71231591D01*
X153400000Y-71078991D01*
X153400000Y-70921009D01*
X153359111Y-70768409D01*
X153348482Y-70750000D01*
X154425984Y-70750000D01*
X156174016Y-70750000D01*
X157251518Y-70750000D01*
X157240889Y-70768409D01*
X157200000Y-70921009D01*
X157200000Y-71078991D01*
X157240889Y-71231591D01*
X157251518Y-71250000D01*
X156174016Y-71250000D01*
X156180781Y-71292716D01*
X156241581Y-71479837D01*
X156330904Y-71655143D01*
X156446555Y-71814321D01*
X156585678Y-71953444D01*
X156744856Y-72069095D01*
X156920164Y-72158418D01*
X157107294Y-72219221D01*
X157301618Y-72250000D01*
X157550000Y-72250000D01*
X157550000Y-71548482D01*
X157568409Y-71559111D01*
X157721009Y-71600000D01*
X157878991Y-71600000D01*
X158031591Y-71559111D01*
X158050000Y-71548482D01*
X158050000Y-72250000D01*
X158298382Y-72250000D01*
X158492705Y-72219221D01*
X158679835Y-72158418D01*
X158855143Y-72069095D01*
X159014321Y-71953444D01*
X159153444Y-71814321D01*
X159269095Y-71655143D01*
X159358418Y-71479837D01*
X159419218Y-71292716D01*
X159425984Y-71250000D01*
X158348482Y-71250000D01*
X158359111Y-71231591D01*
X158400000Y-71078991D01*
X158400000Y-70921009D01*
X158359111Y-70768409D01*
X158348482Y-70750000D01*
X159425984Y-70750000D01*
X159419218Y-70707283D01*
X159358418Y-70520162D01*
X159269095Y-70344856D01*
X159153444Y-70185678D01*
X159014321Y-70046555D01*
X158855143Y-69930904D01*
X158679835Y-69841581D01*
X158492705Y-69780778D01*
X158298382Y-69750000D01*
X158050000Y-69750000D01*
X158050000Y-70451517D01*
X158031591Y-70440889D01*
X157878991Y-70400000D01*
X157721009Y-70400000D01*
X157568409Y-70440889D01*
X157550000Y-70451517D01*
X157550000Y-69750000D01*
X157301618Y-69750000D01*
X157107294Y-69780778D01*
X156920164Y-69841581D01*
X156744856Y-69930904D01*
X156585678Y-70046555D01*
X156446555Y-70185678D01*
X156330904Y-70344856D01*
X156241581Y-70520162D01*
X156180781Y-70707283D01*
X156174016Y-70750000D01*
X154425984Y-70750000D01*
X154419218Y-70707283D01*
X154358418Y-70520162D01*
X154269095Y-70344856D01*
X154153444Y-70185678D01*
X154014321Y-70046555D01*
X153855143Y-69930904D01*
X153679835Y-69841581D01*
X153492705Y-69780778D01*
X153298382Y-69750000D01*
X153050000Y-69750000D01*
X153050000Y-70451517D01*
X153031591Y-70440889D01*
X152878991Y-70400000D01*
X152721009Y-70400000D01*
X152568409Y-70440889D01*
X152550000Y-70451517D01*
X152550000Y-69750000D01*
X152301618Y-69750000D01*
X152107294Y-69780778D01*
X151962318Y-69827884D01*
X151892477Y-69829879D01*
X151832644Y-69793799D01*
X151801816Y-69731098D01*
X151800000Y-69709953D01*
X151800000Y-68411745D01*
X151819685Y-68344706D01*
X151872489Y-68298951D01*
X151941647Y-68289007D01*
X151971452Y-68297184D01*
X151973452Y-68298012D01*
X151973453Y-68298013D01*
X152137334Y-68365894D01*
X152137336Y-68365894D01*
X152137341Y-68365896D01*
X152311304Y-68400499D01*
X152311307Y-68400500D01*
X152311309Y-68400500D01*
X153288693Y-68400500D01*
X153288694Y-68400499D01*
X153346682Y-68388964D01*
X153462658Y-68365896D01*
X153462661Y-68365894D01*
X153462666Y-68365894D01*
X153602535Y-68307958D01*
X153626540Y-68298016D01*
X153626540Y-68298015D01*
X153626547Y-68298013D01*
X153774035Y-68199464D01*
X153899464Y-68074035D01*
X153998013Y-67926547D01*
X154065894Y-67762666D01*
X154100500Y-67588691D01*
X154100500Y-67411309D01*
X154100500Y-67411306D01*
X154100499Y-67411304D01*
X156499500Y-67411304D01*
X156499500Y-67588695D01*
X156534103Y-67762658D01*
X156534106Y-67762667D01*
X156601983Y-67926540D01*
X156601990Y-67926553D01*
X156700535Y-68074034D01*
X156700538Y-68074038D01*
X156825961Y-68199461D01*
X156825965Y-68199464D01*
X156973446Y-68298009D01*
X156973459Y-68298016D01*
X157086181Y-68344706D01*
X157137334Y-68365894D01*
X157137336Y-68365894D01*
X157137341Y-68365896D01*
X157311304Y-68400499D01*
X157311307Y-68400500D01*
X157311309Y-68400500D01*
X158288693Y-68400500D01*
X158288694Y-68400499D01*
X158346682Y-68388964D01*
X158462658Y-68365896D01*
X158462661Y-68365894D01*
X158462666Y-68365894D01*
X158602535Y-68307958D01*
X158626540Y-68298016D01*
X158626540Y-68298015D01*
X158626547Y-68298013D01*
X158774035Y-68199464D01*
X158899464Y-68074035D01*
X158998013Y-67926547D01*
X159065894Y-67762666D01*
X159100500Y-67588691D01*
X159100500Y-67411309D01*
X159100500Y-67411306D01*
X159100499Y-67411304D01*
X159065896Y-67237341D01*
X159065893Y-67237332D01*
X158998016Y-67073459D01*
X158998009Y-67073446D01*
X158899464Y-66925965D01*
X158899461Y-66925961D01*
X158774038Y-66800538D01*
X158774034Y-66800535D01*
X158626553Y-66701990D01*
X158626540Y-66701983D01*
X158462667Y-66634106D01*
X158462658Y-66634103D01*
X158288694Y-66599500D01*
X158288691Y-66599500D01*
X157311309Y-66599500D01*
X157311306Y-66599500D01*
X157137341Y-66634103D01*
X157137332Y-66634106D01*
X156973459Y-66701983D01*
X156973446Y-66701990D01*
X156825965Y-66800535D01*
X156825961Y-66800538D01*
X156700538Y-66925961D01*
X156700535Y-66925965D01*
X156601990Y-67073446D01*
X156601983Y-67073459D01*
X156534106Y-67237332D01*
X156534103Y-67237341D01*
X156499500Y-67411304D01*
X154100499Y-67411304D01*
X154065896Y-67237341D01*
X154065893Y-67237332D01*
X153998016Y-67073459D01*
X153998009Y-67073446D01*
X153899464Y-66925965D01*
X153899461Y-66925961D01*
X153774038Y-66800538D01*
X153774034Y-66800535D01*
X153626553Y-66701990D01*
X153626540Y-66701983D01*
X153462667Y-66634106D01*
X153462658Y-66634103D01*
X153288694Y-66599500D01*
X153288691Y-66599500D01*
X152311309Y-66599500D01*
X152311306Y-66599500D01*
X152137341Y-66634103D01*
X152137332Y-66634106D01*
X151971452Y-66702815D01*
X151901982Y-66710284D01*
X151839503Y-66679008D01*
X151803852Y-66618919D01*
X151800000Y-66588254D01*
X151800000Y-65290046D01*
X151819685Y-65223007D01*
X151872489Y-65177252D01*
X151941647Y-65167308D01*
X151962319Y-65172115D01*
X152107296Y-65219221D01*
X152301618Y-65250000D01*
X152550000Y-65250000D01*
X152550000Y-64548482D01*
X152568409Y-64559111D01*
X152721009Y-64600000D01*
X152878991Y-64600000D01*
X153031591Y-64559111D01*
X153050000Y-64548482D01*
X153050000Y-65250000D01*
X153298382Y-65250000D01*
X153492705Y-65219221D01*
X153679835Y-65158418D01*
X153855143Y-65069095D01*
X154014321Y-64953444D01*
X154153444Y-64814321D01*
X154269095Y-64655143D01*
X154358418Y-64479837D01*
X154419218Y-64292716D01*
X154425984Y-64250000D01*
X153348482Y-64250000D01*
X153359111Y-64231591D01*
X153400000Y-64078991D01*
X153400000Y-63921009D01*
X153359111Y-63768409D01*
X153348482Y-63750000D01*
X154425984Y-63750000D01*
X156174016Y-63750000D01*
X157251518Y-63750000D01*
X157240889Y-63768409D01*
X157200000Y-63921009D01*
X157200000Y-64078991D01*
X157240889Y-64231591D01*
X157251518Y-64250000D01*
X156174016Y-64250000D01*
X156180781Y-64292716D01*
X156241581Y-64479837D01*
X156330904Y-64655143D01*
X156446555Y-64814321D01*
X156585678Y-64953444D01*
X156744856Y-65069095D01*
X156920164Y-65158418D01*
X157107294Y-65219221D01*
X157301618Y-65250000D01*
X157550000Y-65250000D01*
X157550000Y-64548482D01*
X157568409Y-64559111D01*
X157721009Y-64600000D01*
X157878991Y-64600000D01*
X158031591Y-64559111D01*
X158050000Y-64548482D01*
X158050000Y-65250000D01*
X158298382Y-65250000D01*
X158492705Y-65219221D01*
X158679835Y-65158418D01*
X158855143Y-65069095D01*
X159014321Y-64953444D01*
X159153444Y-64814321D01*
X159269095Y-64655143D01*
X159358418Y-64479837D01*
X159419218Y-64292716D01*
X159425984Y-64250000D01*
X158348482Y-64250000D01*
X158359111Y-64231591D01*
X158400000Y-64078991D01*
X158400000Y-63921009D01*
X158359111Y-63768409D01*
X158348482Y-63750000D01*
X159425984Y-63750000D01*
X159419218Y-63707283D01*
X159358418Y-63520162D01*
X159269095Y-63344856D01*
X159153444Y-63185678D01*
X159014321Y-63046555D01*
X158855143Y-62930904D01*
X158679835Y-62841581D01*
X158492705Y-62780778D01*
X158298382Y-62750000D01*
X158050000Y-62750000D01*
X158050000Y-63451517D01*
X158031591Y-63440889D01*
X157878991Y-63400000D01*
X157721009Y-63400000D01*
X157568409Y-63440889D01*
X157550000Y-63451517D01*
X157550000Y-62750000D01*
X157301618Y-62750000D01*
X157107294Y-62780778D01*
X156920164Y-62841581D01*
X156744856Y-62930904D01*
X156585678Y-63046555D01*
X156446555Y-63185678D01*
X156330904Y-63344856D01*
X156241581Y-63520162D01*
X156180781Y-63707283D01*
X156174016Y-63750000D01*
X154425984Y-63750000D01*
X154419218Y-63707283D01*
X154358418Y-63520162D01*
X154269095Y-63344856D01*
X154153444Y-63185678D01*
X154014321Y-63046555D01*
X153855143Y-62930904D01*
X153679835Y-62841581D01*
X153492705Y-62780778D01*
X153298382Y-62750000D01*
X153050000Y-62750000D01*
X153050000Y-63451517D01*
X153031591Y-63440889D01*
X152878991Y-63400000D01*
X152721009Y-63400000D01*
X152568409Y-63440889D01*
X152550000Y-63451517D01*
X152550000Y-62750000D01*
X152301618Y-62750000D01*
X152107294Y-62780778D01*
X151962318Y-62827884D01*
X151892477Y-62829879D01*
X151832644Y-62793799D01*
X151801816Y-62731098D01*
X151800000Y-62709953D01*
X151800000Y-61411745D01*
X151819685Y-61344706D01*
X151872489Y-61298951D01*
X151941647Y-61289007D01*
X151971452Y-61297184D01*
X151973452Y-61298012D01*
X151973453Y-61298013D01*
X152137334Y-61365894D01*
X152137336Y-61365894D01*
X152137341Y-61365896D01*
X152311304Y-61400499D01*
X152311307Y-61400500D01*
X152311309Y-61400500D01*
X153288693Y-61400500D01*
X153288694Y-61400499D01*
X153346682Y-61388964D01*
X153462658Y-61365896D01*
X153462661Y-61365894D01*
X153462666Y-61365894D01*
X153602535Y-61307958D01*
X153626540Y-61298016D01*
X153626540Y-61298015D01*
X153626547Y-61298013D01*
X153774035Y-61199464D01*
X153899464Y-61074035D01*
X153998013Y-60926547D01*
X154065894Y-60762666D01*
X154100500Y-60588691D01*
X154100500Y-60411309D01*
X154100500Y-60411306D01*
X154100499Y-60411304D01*
X156499500Y-60411304D01*
X156499500Y-60588695D01*
X156534103Y-60762658D01*
X156534106Y-60762667D01*
X156601983Y-60926540D01*
X156601990Y-60926553D01*
X156700535Y-61074034D01*
X156700538Y-61074038D01*
X156825961Y-61199461D01*
X156825965Y-61199464D01*
X156973446Y-61298009D01*
X156973459Y-61298016D01*
X157086181Y-61344706D01*
X157137334Y-61365894D01*
X157137336Y-61365894D01*
X157137341Y-61365896D01*
X157311304Y-61400499D01*
X157311307Y-61400500D01*
X157311309Y-61400500D01*
X158288693Y-61400500D01*
X158288694Y-61400499D01*
X158346682Y-61388964D01*
X158462658Y-61365896D01*
X158462661Y-61365894D01*
X158462666Y-61365894D01*
X158602535Y-61307958D01*
X158626540Y-61298016D01*
X158626540Y-61298015D01*
X158626547Y-61298013D01*
X158774035Y-61199464D01*
X158899464Y-61074035D01*
X158998013Y-60926547D01*
X159065894Y-60762666D01*
X159100500Y-60588691D01*
X159100500Y-60411309D01*
X159100500Y-60411306D01*
X159100499Y-60411304D01*
X159065896Y-60237341D01*
X159065893Y-60237332D01*
X158998016Y-60073459D01*
X158998009Y-60073446D01*
X158899464Y-59925965D01*
X158899461Y-59925961D01*
X158774038Y-59800538D01*
X158774034Y-59800535D01*
X158626553Y-59701990D01*
X158626540Y-59701983D01*
X158462667Y-59634106D01*
X158462658Y-59634103D01*
X158288694Y-59599500D01*
X158288691Y-59599500D01*
X157311309Y-59599500D01*
X157311306Y-59599500D01*
X157137341Y-59634103D01*
X157137332Y-59634106D01*
X156973459Y-59701983D01*
X156973446Y-59701990D01*
X156825965Y-59800535D01*
X156825961Y-59800538D01*
X156700538Y-59925961D01*
X156700535Y-59925965D01*
X156601990Y-60073446D01*
X156601983Y-60073459D01*
X156534106Y-60237332D01*
X156534103Y-60237341D01*
X156499500Y-60411304D01*
X154100499Y-60411304D01*
X154065896Y-60237341D01*
X154065893Y-60237332D01*
X153998016Y-60073459D01*
X153998009Y-60073446D01*
X153899464Y-59925965D01*
X153899461Y-59925961D01*
X153774038Y-59800538D01*
X153774034Y-59800535D01*
X153626553Y-59701990D01*
X153626540Y-59701983D01*
X153462667Y-59634106D01*
X153462658Y-59634103D01*
X153288694Y-59599500D01*
X153288691Y-59599500D01*
X152311309Y-59599500D01*
X152311306Y-59599500D01*
X152137341Y-59634103D01*
X152137332Y-59634106D01*
X151971452Y-59702815D01*
X151901982Y-59710284D01*
X151839503Y-59679008D01*
X151803852Y-59618919D01*
X151800000Y-59588254D01*
X151800000Y-58290046D01*
X151819685Y-58223007D01*
X151872489Y-58177252D01*
X151941647Y-58167308D01*
X151962319Y-58172115D01*
X152107296Y-58219221D01*
X152301618Y-58250000D01*
X152550000Y-58250000D01*
X152550000Y-57548482D01*
X152568409Y-57559111D01*
X152721009Y-57600000D01*
X152878991Y-57600000D01*
X153031591Y-57559111D01*
X153050000Y-57548482D01*
X153050000Y-58250000D01*
X153298382Y-58250000D01*
X153492705Y-58219221D01*
X153679835Y-58158418D01*
X153855143Y-58069095D01*
X154014321Y-57953444D01*
X154153444Y-57814321D01*
X154269095Y-57655143D01*
X154358418Y-57479837D01*
X154419218Y-57292716D01*
X154425984Y-57250000D01*
X153348482Y-57250000D01*
X153359111Y-57231591D01*
X153400000Y-57078991D01*
X153400000Y-56921009D01*
X153359111Y-56768409D01*
X153348482Y-56750000D01*
X154425984Y-56750000D01*
X156174016Y-56750000D01*
X157251518Y-56750000D01*
X157240889Y-56768409D01*
X157200000Y-56921009D01*
X157200000Y-57078991D01*
X157240889Y-57231591D01*
X157251518Y-57250000D01*
X156174016Y-57250000D01*
X156180781Y-57292716D01*
X156241581Y-57479837D01*
X156330904Y-57655143D01*
X156446555Y-57814321D01*
X156585678Y-57953444D01*
X156744856Y-58069095D01*
X156920164Y-58158418D01*
X157107294Y-58219221D01*
X157301618Y-58250000D01*
X157550000Y-58250000D01*
X157550000Y-57548482D01*
X157568409Y-57559111D01*
X157721009Y-57600000D01*
X157878991Y-57600000D01*
X158031591Y-57559111D01*
X158050000Y-57548482D01*
X158050000Y-58250000D01*
X158298382Y-58250000D01*
X158492705Y-58219221D01*
X158679835Y-58158418D01*
X158855143Y-58069095D01*
X159014321Y-57953444D01*
X159153444Y-57814321D01*
X159269095Y-57655143D01*
X159358418Y-57479837D01*
X159419218Y-57292716D01*
X159425984Y-57250000D01*
X158348482Y-57250000D01*
X158359111Y-57231591D01*
X158400000Y-57078991D01*
X158400000Y-56921009D01*
X158359111Y-56768409D01*
X158348482Y-56750000D01*
X159425984Y-56750000D01*
X159419218Y-56707283D01*
X159358418Y-56520162D01*
X159269095Y-56344856D01*
X159153444Y-56185678D01*
X159014321Y-56046555D01*
X158855143Y-55930904D01*
X158679835Y-55841581D01*
X158492705Y-55780778D01*
X158298382Y-55750000D01*
X158050000Y-55750000D01*
X158050000Y-56451517D01*
X158031591Y-56440889D01*
X157878991Y-56400000D01*
X157721009Y-56400000D01*
X157568409Y-56440889D01*
X157550000Y-56451517D01*
X157550000Y-55750000D01*
X157301618Y-55750000D01*
X157107294Y-55780778D01*
X156920164Y-55841581D01*
X156744856Y-55930904D01*
X156585678Y-56046555D01*
X156446555Y-56185678D01*
X156330904Y-56344856D01*
X156241581Y-56520162D01*
X156180781Y-56707283D01*
X156174016Y-56750000D01*
X154425984Y-56750000D01*
X154419218Y-56707283D01*
X154358418Y-56520162D01*
X154269095Y-56344856D01*
X154153444Y-56185678D01*
X154014321Y-56046555D01*
X153855143Y-55930904D01*
X153679835Y-55841581D01*
X153492705Y-55780778D01*
X153298382Y-55750000D01*
X153050000Y-55750000D01*
X153050000Y-56451517D01*
X153031591Y-56440889D01*
X152878991Y-56400000D01*
X152721009Y-56400000D01*
X152568409Y-56440889D01*
X152550000Y-56451517D01*
X152550000Y-55750000D01*
X152301618Y-55750000D01*
X152107294Y-55780778D01*
X151962318Y-55827884D01*
X151892477Y-55829879D01*
X151832644Y-55793799D01*
X151801816Y-55731098D01*
X151800000Y-55709953D01*
X151800000Y-53624000D01*
X151819685Y-53556961D01*
X151872489Y-53511206D01*
X151924000Y-53500000D01*
X162075500Y-53500000D01*
X162142539Y-53519685D01*
G37*
%TD.AperFunction*%
%TD*%
M02*
