%TF.GenerationSoftware,KiCad,Pcbnew,9.0.7+dfsg-1*%
%TF.CreationDate,2026-03-28T18:53:49+01:00*%
%TF.ProjectId,TABv1,54414276-312e-46b6-9963-61645f706362,2.2*%
%TF.SameCoordinates,Original*%
%TF.FileFunction,Soldermask,Bot*%
%TF.FilePolarity,Negative*%
%FSLAX46Y46*%
G04 Gerber Fmt 4.6, Leading zero omitted, Abs format (unit mm)*
G04 Created by KiCad (PCBNEW 9.0.7+dfsg-1) date 2026-03-28 18:53:49*
%MOMM*%
%LPD*%
G01*
G04 APERTURE LIST*
G04 Aperture macros list*
%AMRoundRect*
0 Rectangle with rounded corners*
0 $1 Rounding radius*
0 $2 $3 $4 $5 $6 $7 $8 $9 X,Y pos of 4 corners*
0 Add a 4 corners polygon primitive as box body*
4,1,4,$2,$3,$4,$5,$6,$7,$8,$9,$2,$3,0*
0 Add four circle primitives for the rounded corners*
1,1,$1+$1,$2,$3*
1,1,$1+$1,$4,$5*
1,1,$1+$1,$6,$7*
1,1,$1+$1,$8,$9*
0 Add four rect primitives between the rounded corners*
20,1,$1+$1,$2,$3,$4,$5,0*
20,1,$1+$1,$4,$5,$6,$7,0*
20,1,$1+$1,$6,$7,$8,$9,0*
20,1,$1+$1,$8,$9,$2,$3,0*%
G04 Aperture macros list end*
%ADD10C,3.200000*%
%ADD11C,1.700000*%
%ADD12R,1.700000X1.700000*%
%ADD13R,2.300000X1.500000*%
%ADD14RoundRect,0.250001X0.899999X-0.499999X0.899999X0.499999X-0.899999X0.499999X-0.899999X-0.499999X0*%
%ADD15O,2.300000X1.500000*%
%ADD16RoundRect,0.218750X0.218750X0.256250X-0.218750X0.256250X-0.218750X-0.256250X0.218750X-0.256250X0*%
%ADD17R,0.700000X1.100000*%
%ADD18R,0.900000X0.930000*%
%ADD19R,1.050000X0.780000*%
%ADD20R,0.700000X3.330000*%
%ADD21R,0.860000X2.800000*%
%ADD22R,1.140000X1.830000*%
%ADD23RoundRect,0.237500X-0.300000X-0.237500X0.300000X-0.237500X0.300000X0.237500X-0.300000X0.237500X0*%
%ADD24RoundRect,0.180000X-0.770000X-0.420000X0.770000X-0.420000X0.770000X0.420000X-0.770000X0.420000X0*%
%ADD25O,2.400000X0.900000*%
%ADD26O,1.700000X0.900000*%
%ADD27C,0.650000*%
%ADD28RoundRect,0.237500X0.237500X-0.250000X0.237500X0.250000X-0.237500X0.250000X-0.237500X-0.250000X0*%
%ADD29RoundRect,0.237500X-0.237500X0.300000X-0.237500X-0.300000X0.237500X-0.300000X0.237500X0.300000X0*%
%ADD30RoundRect,0.237500X0.237500X-0.300000X0.237500X0.300000X-0.237500X0.300000X-0.237500X-0.300000X0*%
%ADD31C,1.752600*%
%ADD32RoundRect,0.237500X0.044194X0.380070X-0.380070X-0.044194X-0.044194X-0.380070X0.380070X0.044194X0*%
%ADD33RoundRect,0.102000X-1.250000X1.250000X-1.250000X-1.250000X1.250000X-1.250000X1.250000X1.250000X0*%
%ADD34RoundRect,0.237500X0.300000X0.237500X-0.300000X0.237500X-0.300000X-0.237500X0.300000X-0.237500X0*%
G04 APERTURE END LIST*
D10*
%TO.C,H1*%
X138000000Y-38000000D03*
%TD*%
%TO.C,H4*%
X138000000Y-74000000D03*
%TD*%
D11*
%TO.C,J9*%
X152920000Y-45960000D03*
X155460000Y-45960000D03*
X152920000Y-48500000D03*
X155460000Y-48500000D03*
D12*
X152920000Y-51040000D03*
X155460000Y-51040000D03*
%TD*%
D11*
%TO.C,J10*%
X158000000Y-45960000D03*
X160540000Y-45960000D03*
X158000000Y-48500000D03*
X160540000Y-48500000D03*
D12*
X158000000Y-51040000D03*
X160540000Y-51040000D03*
%TD*%
D10*
%TO.C,H6*%
X84000000Y-38000000D03*
%TD*%
%TO.C,H3*%
X77000000Y-74000000D03*
%TD*%
D13*
%TO.C,J11*%
X152800000Y-74500000D03*
D14*
X157800000Y-74500000D03*
D15*
X152800000Y-71000000D03*
X157800000Y-71000000D03*
X152800000Y-67500000D03*
X157800000Y-67500000D03*
X152800000Y-64000000D03*
X157800000Y-64000000D03*
X152800000Y-60500000D03*
X157800000Y-60500000D03*
X152800000Y-57000000D03*
X157800000Y-57000000D03*
%TD*%
D10*
%TO.C,H5*%
X131000000Y-74000000D03*
%TD*%
%TO.C,H2*%
X77000000Y-38000000D03*
%TD*%
D16*
%TO.C,D7*%
X74987500Y-56200000D03*
X73412500Y-56200000D03*
%TD*%
D12*
%TO.C,J6*%
X87700000Y-44660000D03*
D11*
X85160000Y-44660000D03*
X87700000Y-47200000D03*
X85160000Y-47200000D03*
X87700000Y-49740000D03*
X85160000Y-49740000D03*
X87700000Y-52280000D03*
X85160000Y-52280000D03*
X87700000Y-54820000D03*
X85160000Y-54820000D03*
X87700000Y-57360000D03*
X85160000Y-57360000D03*
X87700000Y-59900000D03*
X85160000Y-59900000D03*
X87700000Y-62440000D03*
X85160000Y-62440000D03*
%TD*%
D17*
%TO.C,J7*%
X116370000Y-77000000D03*
X117470000Y-77000000D03*
X118570000Y-77000000D03*
X119670000Y-77000000D03*
X120770000Y-77000000D03*
X121870000Y-77000000D03*
X122970000Y-77000000D03*
X124070000Y-77000000D03*
D18*
X114580000Y-64535000D03*
D19*
X118845000Y-64460000D03*
D20*
X125230000Y-65735000D03*
D21*
X125150000Y-76500000D03*
D22*
X112490000Y-76985000D03*
D20*
X112270000Y-65735000D03*
%TD*%
D23*
%TO.C,C9*%
X94937500Y-56100000D03*
X96662500Y-56100000D03*
%TD*%
D12*
%TO.C,J5*%
X123000000Y-44760000D03*
D11*
X120460000Y-44760000D03*
X123000000Y-47300000D03*
X120460000Y-47300000D03*
X123000000Y-49840000D03*
X120460000Y-49840000D03*
X123000000Y-52380000D03*
X120460000Y-52380000D03*
X123000000Y-54920000D03*
X120460000Y-54920000D03*
X123000000Y-57460000D03*
X120460000Y-57460000D03*
X123000000Y-60000000D03*
X120460000Y-60000000D03*
X123000000Y-62540000D03*
X120460000Y-62540000D03*
%TD*%
D16*
%TO.C,D6*%
X74987500Y-57950000D03*
X73412500Y-57950000D03*
%TD*%
D24*
%TO.C,SW1*%
X73875000Y-62500000D03*
X81625000Y-62500000D03*
%TD*%
D25*
%TO.C,USB1*%
X78175000Y-43755000D03*
D26*
X74795000Y-43755000D03*
X74795000Y-52395000D03*
D25*
X78175000Y-52395000D03*
D27*
X79155000Y-51045000D03*
X79155000Y-50195000D03*
X79155000Y-49345000D03*
X79155000Y-48495000D03*
X79155000Y-47645000D03*
X79155000Y-46795000D03*
X79155000Y-45945000D03*
X79155000Y-45095000D03*
X77805000Y-45095000D03*
X77805000Y-45945000D03*
X77805000Y-46795000D03*
X77805000Y-47645000D03*
X77805000Y-48495000D03*
X77805000Y-49345000D03*
X77805000Y-50195000D03*
X77805000Y-51045000D03*
%TD*%
D23*
%TO.C,C10*%
X95737500Y-61900000D03*
X97462500Y-61900000D03*
%TD*%
%TO.C,C13*%
X94737500Y-57575000D03*
X96462500Y-57575000D03*
%TD*%
D28*
%TO.C,R7*%
X73850000Y-70712500D03*
X73850000Y-68887500D03*
%TD*%
D29*
%TO.C,C14*%
X105200000Y-47837500D03*
X105200000Y-49562500D03*
%TD*%
D23*
%TO.C,C11*%
X95837500Y-53600000D03*
X97562500Y-53600000D03*
%TD*%
D16*
%TO.C,D5*%
X74987500Y-59700000D03*
X73412500Y-59700000D03*
%TD*%
D30*
%TO.C,C6*%
X108000000Y-65287500D03*
X108000000Y-63562500D03*
%TD*%
D29*
%TO.C,C7*%
X107500000Y-47037500D03*
X107500000Y-48762500D03*
%TD*%
D31*
%TO.C,J8*%
X151264452Y-40651100D03*
X151264452Y-38151100D03*
X153764452Y-40651100D03*
X153764452Y-38151100D03*
%TD*%
D32*
%TO.C,C8*%
X109659880Y-49990120D03*
X108440120Y-51209880D03*
%TD*%
D33*
%TO.C,LS1*%
X88250000Y-76100000D03*
X95250000Y-76100000D03*
X95250000Y-69100000D03*
X88250000Y-69100000D03*
%TD*%
D24*
%TO.C,SW2*%
X73850000Y-67000000D03*
X81600000Y-67000000D03*
%TD*%
D34*
%TO.C,C5*%
X116237500Y-59575000D03*
X114512500Y-59575000D03*
%TD*%
%TO.C,C15*%
X116137500Y-57600000D03*
X114412500Y-57600000D03*
%TD*%
%TO.C,C12*%
X115562500Y-55600000D03*
X113837500Y-55600000D03*
%TD*%
M02*
