M48
; DRILL file KiCad 10.0.0 date 2026-04-01T14:00:06
; FORMAT={-:-/ absolute / metric / decimal}
; #@! TF.CreationDate,2026-04-01T14:00:06+02:00
; #@! TF.GenerationSoftware,Kicad,Pcbnew,10.0.0
; #@! TF.FileFunction,Plated,1,4,PTH
FMAT,2
METRIC
; #@! TA.AperFunction,Plated,PTH,ViaDrill
T1C0.250
; #@! TA.AperFunction,Plated,PTH,ComponentDrill
T2C0.400
; #@! TA.AperFunction,Plated,PTH,ComponentDrill
T3C0.600
; #@! TA.AperFunction,Plated,PTH,ComponentDrill
T4C1.000
; #@! TA.AperFunction,Plated,PTH,ComponentDrill
T5C1.200
; #@! TA.AperFunction,Plated,PTH,ComponentDrill
T6C1.245
%
G90
G05
T1
X73.412Y-56.2
X73.412Y-57.95
X73.412Y-59.7
X73.85Y-70.712
X73.875Y-62.5
X73.888Y-47.2
X74.987Y-56.2
X74.987Y-57.95
X74.987Y-59.7
X77.2Y-64.7
X78.7Y-70.7
X79.45Y-56.6
X79.825Y-58.925
X80.125Y-57.4
X81.2Y-42.3
X81.625Y-62.5
X82.6Y-46.7
X83.126Y-60.925
X83.575Y-64.575
X83.8Y-72.1
X86.6Y-75.6
X88.2Y-39.0
X88.25Y-69.1
X89.0Y-66.912
X89.625Y-51.675
X90.0Y-72.8
X90.225Y-53.175
X90.25Y-53.8
X90.475Y-68.925
X90.925Y-54.0
X92.35Y-60.45
X92.4Y-43.2
X93.0Y-74.837
X93.0Y-76.575
X93.549Y-39.65
X94.65Y-38.15
X94.737Y-57.575
X94.938Y-56.1
X95.275Y-69.0
X95.337Y-34.663
X95.637Y-35.8
X95.737Y-61.9
X95.837Y-53.6
X96.887Y-65.2
X96.938Y-63.7
X97.062Y-40.1
X97.7Y-56.925
X97.712Y-57.573
X97.837Y-55.712
X98.425Y-55.48
X98.625Y-61.9
X98.776Y-55.967
X98.8Y-53.675
X98.946Y-56.868
X98.95Y-52.95
X99.05Y-54.579
X99.318Y-60.62
X99.4Y-73.1
X99.5Y-76.4
X101.037Y-36.487
X101.037Y-38.212
X101.925Y-66.3
X101.938Y-64.787
X102.6Y-43.737
X102.825Y-50.15
X102.95Y-50.9
X103.39Y-38.41
X103.662Y-64.787
X104.61Y-37.19
X104.75Y-72.6
X104.85Y-35.4
X104.85Y-56.3
X105.05Y-43.725
X105.05Y-58.225
X105.15Y-49.575
X105.15Y-63.587
X105.8Y-57.375
X106.4Y-56.225
X106.6Y-58.225
X106.625Y-74.837
X107.125Y-40.575
X107.35Y-45.475
X107.5Y-47.038
X107.5Y-48.775
X108.0Y-63.575
X108.252Y-67.375
X108.44Y-51.21
X108.55Y-40.475
X109.357Y-35.482
X109.5Y-73.4
X109.66Y-49.99
X109.676Y-64.687
X109.8Y-45.4
X110.536Y-40.236
X110.697Y-64.925
X110.95Y-75.175
X111.025Y-35.825
X111.05Y-76.85
X111.1Y-50.7
X111.425Y-70.2
X111.6Y-68.812
X111.675Y-42.35
X111.7Y-36.075
X111.743Y-35.33
X111.837Y-38.788
X112.05Y-54.375
X112.075Y-56.325
X112.125Y-47.25
X112.269Y-53.474
X112.4Y-58.825
X112.482Y-37.493
X112.49Y-76.985
X112.575Y-39.751
X112.6Y-41.3
X112.625Y-56.725
X112.626Y-44.009
X112.925Y-68.3
X113.074Y-47.175
X113.075Y-65.275
X113.175Y-58.025
X113.2Y-59.1
X113.275Y-48.4
X113.3Y-63.7
X113.5Y-59.825
X113.6Y-55.325
X113.825Y-45.171
X113.881Y-45.769
X113.9Y-46.425
X113.925Y-49.6
X113.931Y-44.581
X114.025Y-54.65
X114.1Y-47.6
X114.125Y-54.05
X114.375Y-40.875
X114.412Y-57.6
X114.575Y-60.475
X114.9Y-39.475
X115.35Y-35.775
X115.425Y-41.7
X115.475Y-61.3
X115.562Y-55.6
X115.7Y-70.625
X116.137Y-57.6
X116.2Y-52.6
X116.237Y-59.575
X116.4Y-48.0
X116.594Y-63.481
X116.633Y-66.0
X116.75Y-64.7
X117.1Y-43.6
X117.131Y-60.744
X117.375Y-63.6
X117.375Y-69.85
X117.4Y-64.675
X117.4Y-66.025
X118.069Y-47.305
X118.2Y-69.975
X118.845Y-64.46
X118.961Y-40.9
X119.2Y-71.5
X119.4Y-36.718
X119.4Y-38.443
X119.675Y-75.05
X120.2Y-70.275
X120.4Y-35.251
X121.0Y-69.925
X121.775Y-40.9
X121.87Y-77.0
X122.351Y-39.826
X122.562Y-70.362
X122.975Y-39.825
X123.625Y-66.101
X124.625Y-35.251
X124.975Y-48.375
X125.15Y-76.5
X125.95Y-49.025
X126.0Y-49.85
X126.175Y-47.3
X126.225Y-67.0
X126.875Y-69.375
X127.6Y-64.1
X127.612Y-62.5
X129.0Y-69.7
X130.3Y-48.4
X130.6Y-61.0
X134.5Y-36.2
X134.8Y-77.1
X134.9Y-43.8
X135.1Y-70.8
X135.85Y-46.438
X135.85Y-48.162
X135.9Y-60.112
X137.4Y-46.438
X137.4Y-48.162
X138.406Y-67.818
X138.75Y-42.938
X138.95Y-46.438
X138.95Y-48.162
X139.175Y-61.575
X140.5Y-42.938
X140.5Y-46.438
X140.5Y-48.162
X140.875Y-52.85
X140.875Y-53.6
X140.875Y-54.375
X140.925Y-56.475
X141.224Y-63.523
X141.95Y-68.688
X142.0Y-76.9
X142.1Y-36.6
X142.3Y-72.6
X142.5Y-52.4
X143.51Y-59.84
X143.525Y-38.25
X143.637Y-42.05
X144.5Y-48.575
X145.65Y-58.825
X145.775Y-74.275
X146.325Y-65.3
X146.725Y-45.3
X146.963Y-36.8
X148.225Y-42.512
X148.3Y-50.5
X149.5Y-55.4
X150.0Y-69.9
X150.462Y-47.2
X150.7Y-35.2
X151.8Y-42.3
X154.4Y-53.5
X155.5Y-69.8
X155.7Y-76.8
X157.5Y-36.3
X157.6Y-42.5
X159.9Y-55.0
X161.5Y-67.6
T2
X77.805Y-45.095
X77.805Y-45.945
X77.805Y-46.795
X77.805Y-47.645
X77.805Y-48.495
X77.805Y-49.345
X77.805Y-50.195
X77.805Y-51.045
X79.155Y-45.095
X79.155Y-45.945
X79.155Y-46.795
X79.155Y-47.645
X79.155Y-48.495
X79.155Y-49.345
X79.155Y-50.195
X79.155Y-51.045
T4
X85.16Y-44.66
X85.16Y-47.2
X85.16Y-49.74
X85.16Y-52.28
X85.16Y-54.82
X85.16Y-57.36
X85.16Y-59.9
X85.16Y-62.44
X87.7Y-44.66
X87.7Y-47.2
X87.7Y-49.74
X87.7Y-52.28
X87.7Y-54.82
X87.7Y-57.36
X87.7Y-59.9
X87.7Y-62.44
X120.46Y-44.76
X120.46Y-47.3
X120.46Y-49.84
X120.46Y-52.38
X120.46Y-54.92
X120.46Y-57.46
X120.46Y-60.0
X120.46Y-62.54
X123.0Y-44.76
X123.0Y-47.3
X123.0Y-49.84
X123.0Y-52.38
X123.0Y-54.92
X123.0Y-57.46
X123.0Y-60.0
X123.0Y-62.54
X152.92Y-45.96
X152.92Y-48.5
X152.92Y-51.04
X155.46Y-45.96
X155.46Y-48.5
X155.46Y-51.04
X158.0Y-45.96
X158.0Y-48.5
X158.0Y-51.04
X160.54Y-45.96
X160.54Y-48.5
X160.54Y-51.04
T5
X152.8Y-57.0
X152.8Y-60.5
X152.8Y-64.0
X152.8Y-67.5
X152.8Y-71.0
X152.8Y-74.5
X157.8Y-57.0
X157.8Y-60.5
X157.8Y-64.0
X157.8Y-67.5
X157.8Y-71.0
X157.8Y-74.5
T6
X151.264Y-38.151
X151.264Y-40.651
X153.764Y-38.151
X153.764Y-40.651
T3
G00X74.395Y-43.755
M15
G01X75.195Y-43.755
M16
G05
G00X74.395Y-52.395
M15
G01X75.195Y-52.395
M16
G05
G00X77.425Y-43.755
M15
G01X78.925Y-43.755
M16
G05
G00X77.425Y-52.395
M15
G01X78.925Y-52.395
M16
G05
M30
