%TF.GenerationSoftware,KiCad,Pcbnew,9.0.7*%
%TF.CreationDate,2026-03-14T17:35:00+01:00*%
%TF.ProjectId,TABv1,54414276-312e-46b6-9963-61645f706362,rev?*%
%TF.SameCoordinates,Original*%
%TF.FileFunction,Soldermask,Top*%
%TF.FilePolarity,Negative*%
%FSLAX46Y46*%
G04 Gerber Fmt 4.6, Leading zero omitted, Abs format (unit mm)*
G04 Created by KiCad (PCBNEW 9.0.7) date 2026-03-14 17:35:00*
%MOMM*%
%LPD*%
G01*
G04 APERTURE LIST*
G04 Aperture macros list*
%AMRoundRect*
0 Rectangle with rounded corners*
0 $1 Rounding radius*
0 $2 $3 $4 $5 $6 $7 $8 $9 X,Y pos of 4 corners*
0 Add a 4 corners polygon primitive as box body*
4,1,4,$2,$3,$4,$5,$6,$7,$8,$9,$2,$3,0*
0 Add four circle primitives for the rounded corners*
1,1,$1+$1,$2,$3*
1,1,$1+$1,$4,$5*
1,1,$1+$1,$6,$7*
1,1,$1+$1,$8,$9*
0 Add four rect primitives between the rounded corners*
20,1,$1+$1,$2,$3,$4,$5,0*
20,1,$1+$1,$4,$5,$6,$7,0*
20,1,$1+$1,$6,$7,$8,$9,0*
20,1,$1+$1,$8,$9,$2,$3,0*%
%AMRotRect*
0 Rectangle, with rotation*
0 The origin of the aperture is its center*
0 $1 length*
0 $2 width*
0 $3 Rotation angle, in degrees counterclockwise*
0 Add horizontal line*
21,1,$1,$2,0,0,$3*%
G04 Aperture macros list end*
%ADD10C,0.150000*%
%ADD11C,0.200000*%
%ADD12R,0.250000X0.600000*%
%ADD13R,0.600000X0.250000*%
%ADD14R,0.250000X0.250000*%
%ADD15R,0.250000X1.350000*%
%ADD16R,0.250000X1.700000*%
%ADD17RoundRect,0.237500X-0.237500X0.250000X-0.237500X-0.250000X0.237500X-0.250000X0.237500X0.250000X0*%
%ADD18R,0.800000X0.500000*%
%ADD19R,0.800000X0.400000*%
%ADD20C,3.200000*%
%ADD21RoundRect,0.162500X0.650000X0.162500X-0.650000X0.162500X-0.650000X-0.162500X0.650000X-0.162500X0*%
%ADD22RotRect,0.254000X0.787400X315.000000*%
%ADD23RotRect,0.254000X0.787400X225.000000*%
%ADD24RoundRect,0.150000X-0.587500X-0.150000X0.587500X-0.150000X0.587500X0.150000X-0.587500X0.150000X0*%
%ADD25R,1.300000X1.050000*%
%ADD26C,1.700000*%
%ADD27R,1.700000X1.700000*%
%ADD28RoundRect,0.237500X-0.300000X-0.237500X0.300000X-0.237500X0.300000X0.237500X-0.300000X0.237500X0*%
%ADD29RoundRect,0.237500X0.250000X0.237500X-0.250000X0.237500X-0.250000X-0.237500X0.250000X-0.237500X0*%
%ADD30RoundRect,0.237500X-0.237500X0.300000X-0.237500X-0.300000X0.237500X-0.300000X0.237500X0.300000X0*%
%ADD31RoundRect,0.237500X0.237500X-0.300000X0.237500X0.300000X-0.237500X0.300000X-0.237500X-0.300000X0*%
%ADD32RoundRect,0.237500X-0.250000X-0.237500X0.250000X-0.237500X0.250000X0.237500X-0.250000X0.237500X0*%
%ADD33RoundRect,0.237500X0.300000X0.237500X-0.300000X0.237500X-0.300000X-0.237500X0.300000X-0.237500X0*%
%ADD34RoundRect,0.237500X0.237500X-0.250000X0.237500X0.250000X-0.237500X0.250000X-0.237500X-0.250000X0*%
%ADD35RoundRect,0.150000X0.150000X-0.587500X0.150000X0.587500X-0.150000X0.587500X-0.150000X-0.587500X0*%
%ADD36R,0.500000X0.350000*%
%ADD37R,1.000000X0.950000*%
%ADD38R,0.850000X0.300000*%
%ADD39RoundRect,0.150000X-0.825000X-0.150000X0.825000X-0.150000X0.825000X0.150000X-0.825000X0.150000X0*%
%ADD40R,1.070000X0.600000*%
%ADD41RoundRect,0.050000X0.350000X0.050000X-0.350000X0.050000X-0.350000X-0.050000X0.350000X-0.050000X0*%
%ADD42RoundRect,0.050000X0.050000X0.350000X-0.050000X0.350000X-0.050000X-0.350000X0.050000X-0.350000X0*%
%ADD43R,3.400000X3.400000*%
%ADD44R,0.500000X0.800000*%
%ADD45R,0.400000X0.800000*%
%ADD46R,1.016000X1.803400*%
%ADD47R,0.385000X0.690000*%
%ADD48R,1.035000X0.690000*%
%ADD49R,2.300000X1.500000*%
%ADD50RoundRect,0.250001X0.899999X-0.499999X0.899999X0.499999X-0.899999X0.499999X-0.899999X-0.499999X0*%
%ADD51O,2.300000X1.500000*%
%ADD52RoundRect,0.097900X-0.135400X-0.097900X0.135400X-0.097900X0.135400X0.097900X-0.135400X0.097900X0*%
%ADD53RoundRect,0.097900X-0.097900X-0.135400X0.097900X-0.135400X0.097900X0.135400X-0.097900X0.135400X0*%
%ADD54RoundRect,0.237500X-0.044194X-0.380070X0.380070X0.044194X0.044194X0.380070X-0.380070X-0.044194X0*%
%ADD55R,0.787400X0.254000*%
%ADD56R,0.254000X0.787400*%
%ADD57R,1.350000X2.800000*%
%ADD58R,1.500000X2.800000*%
%ADD59R,6.000000X6.500000*%
%ADD60RoundRect,0.020800X-0.187500X-0.175000X0.187500X-0.175000X0.187500X0.175000X-0.187500X0.175000X0*%
%ADD61RoundRect,0.020800X0.175000X-0.187500X0.175000X0.187500X-0.175000X0.187500X-0.175000X-0.187500X0*%
%ADD62RoundRect,0.250000X-0.375000X-0.850000X0.375000X-0.850000X0.375000X0.850000X-0.375000X0.850000X0*%
%ADD63R,0.350000X0.500000*%
%ADD64R,0.950000X1.000000*%
%ADD65R,0.300000X0.850000*%
%ADD66RoundRect,0.237500X0.044194X0.380070X-0.380070X-0.044194X-0.044194X-0.380070X0.380070X0.044194X0*%
%ADD67O,2.400000X0.900000*%
%ADD68O,1.700000X0.900000*%
%ADD69C,0.650000*%
%ADD70C,1.752600*%
G04 APERTURE END LIST*
D10*
X136967731Y-35322200D02*
X136872493Y-35369819D01*
X136872493Y-35369819D02*
X136682017Y-35369819D01*
X136682017Y-35369819D02*
X136586779Y-35322200D01*
X136586779Y-35322200D02*
X136539160Y-35226961D01*
X136539160Y-35226961D02*
X136539160Y-34846009D01*
X136539160Y-34846009D02*
X136586779Y-34750771D01*
X136586779Y-34750771D02*
X136682017Y-34703152D01*
X136682017Y-34703152D02*
X136872493Y-34703152D01*
X136872493Y-34703152D02*
X136967731Y-34750771D01*
X136967731Y-34750771D02*
X137015350Y-34846009D01*
X137015350Y-34846009D02*
X137015350Y-34941247D01*
X137015350Y-34941247D02*
X136539160Y-35036485D01*
X137586779Y-35369819D02*
X137491541Y-35322200D01*
X137491541Y-35322200D02*
X137443922Y-35226961D01*
X137443922Y-35226961D02*
X137443922Y-34369819D01*
X138348684Y-35322200D02*
X138253446Y-35369819D01*
X138253446Y-35369819D02*
X138062970Y-35369819D01*
X138062970Y-35369819D02*
X137967732Y-35322200D01*
X137967732Y-35322200D02*
X137920113Y-35226961D01*
X137920113Y-35226961D02*
X137920113Y-34846009D01*
X137920113Y-34846009D02*
X137967732Y-34750771D01*
X137967732Y-34750771D02*
X138062970Y-34703152D01*
X138062970Y-34703152D02*
X138253446Y-34703152D01*
X138253446Y-34703152D02*
X138348684Y-34750771D01*
X138348684Y-34750771D02*
X138396303Y-34846009D01*
X138396303Y-34846009D02*
X138396303Y-34941247D01*
X138396303Y-34941247D02*
X137920113Y-35036485D01*
X138824875Y-35369819D02*
X138824875Y-34369819D01*
X138920113Y-34988866D02*
X139205827Y-35369819D01*
X139205827Y-34703152D02*
X138824875Y-35084104D01*
X139491542Y-34703152D02*
X139872494Y-34703152D01*
X139634399Y-34369819D02*
X139634399Y-35226961D01*
X139634399Y-35226961D02*
X139682018Y-35322200D01*
X139682018Y-35322200D02*
X139777256Y-35369819D01*
X139777256Y-35369819D02*
X139872494Y-35369819D01*
X140205828Y-35369819D02*
X140205828Y-34703152D01*
X140205828Y-34893628D02*
X140253447Y-34798390D01*
X140253447Y-34798390D02*
X140301066Y-34750771D01*
X140301066Y-34750771D02*
X140396304Y-34703152D01*
X140396304Y-34703152D02*
X140491542Y-34703152D01*
X140967733Y-35369819D02*
X140872495Y-35322200D01*
X140872495Y-35322200D02*
X140824876Y-35274580D01*
X140824876Y-35274580D02*
X140777257Y-35179342D01*
X140777257Y-35179342D02*
X140777257Y-34893628D01*
X140777257Y-34893628D02*
X140824876Y-34798390D01*
X140824876Y-34798390D02*
X140872495Y-34750771D01*
X140872495Y-34750771D02*
X140967733Y-34703152D01*
X140967733Y-34703152D02*
X141110590Y-34703152D01*
X141110590Y-34703152D02*
X141205828Y-34750771D01*
X141205828Y-34750771D02*
X141253447Y-34798390D01*
X141253447Y-34798390D02*
X141301066Y-34893628D01*
X141301066Y-34893628D02*
X141301066Y-35179342D01*
X141301066Y-35179342D02*
X141253447Y-35274580D01*
X141253447Y-35274580D02*
X141205828Y-35322200D01*
X141205828Y-35322200D02*
X141110590Y-35369819D01*
X141110590Y-35369819D02*
X140967733Y-35369819D01*
X141729638Y-34703152D02*
X141729638Y-35369819D01*
X141729638Y-34798390D02*
X141777257Y-34750771D01*
X141777257Y-34750771D02*
X141872495Y-34703152D01*
X141872495Y-34703152D02*
X142015352Y-34703152D01*
X142015352Y-34703152D02*
X142110590Y-34750771D01*
X142110590Y-34750771D02*
X142158209Y-34846009D01*
X142158209Y-34846009D02*
X142158209Y-35369819D01*
D11*
X133238720Y-71156028D02*
X133238720Y-69656028D01*
X133238720Y-69656028D02*
X133595863Y-69656028D01*
X133595863Y-69656028D02*
X133810149Y-69727457D01*
X133810149Y-69727457D02*
X133953006Y-69870314D01*
X133953006Y-69870314D02*
X134024435Y-70013171D01*
X134024435Y-70013171D02*
X134095863Y-70298885D01*
X134095863Y-70298885D02*
X134095863Y-70513171D01*
X134095863Y-70513171D02*
X134024435Y-70798885D01*
X134024435Y-70798885D02*
X133953006Y-70941742D01*
X133953006Y-70941742D02*
X133810149Y-71084600D01*
X133810149Y-71084600D02*
X133595863Y-71156028D01*
X133595863Y-71156028D02*
X133238720Y-71156028D01*
X134667292Y-70727457D02*
X135381578Y-70727457D01*
X134524435Y-71156028D02*
X135024435Y-69656028D01*
X135024435Y-69656028D02*
X135524435Y-71156028D01*
X136453006Y-69656028D02*
X136453006Y-70727457D01*
X136453006Y-70727457D02*
X136381577Y-70941742D01*
X136381577Y-70941742D02*
X136238720Y-71084600D01*
X136238720Y-71084600D02*
X136024434Y-71156028D01*
X136024434Y-71156028D02*
X135881577Y-71156028D01*
X137167291Y-70370314D02*
X137667291Y-70370314D01*
X137881577Y-71156028D02*
X137167291Y-71156028D01*
X137167291Y-71156028D02*
X137167291Y-69656028D01*
X137167291Y-69656028D02*
X137881577Y-69656028D01*
D10*
X129636779Y-77569819D02*
X129636779Y-76903152D01*
X129636779Y-76569819D02*
X129589160Y-76617438D01*
X129589160Y-76617438D02*
X129636779Y-76665057D01*
X129636779Y-76665057D02*
X129684398Y-76617438D01*
X129684398Y-76617438D02*
X129636779Y-76569819D01*
X129636779Y-76569819D02*
X129636779Y-76665057D01*
X130541540Y-77569819D02*
X130541540Y-77046009D01*
X130541540Y-77046009D02*
X130493921Y-76950771D01*
X130493921Y-76950771D02*
X130398683Y-76903152D01*
X130398683Y-76903152D02*
X130208207Y-76903152D01*
X130208207Y-76903152D02*
X130112969Y-76950771D01*
X130541540Y-77522200D02*
X130446302Y-77569819D01*
X130446302Y-77569819D02*
X130208207Y-77569819D01*
X130208207Y-77569819D02*
X130112969Y-77522200D01*
X130112969Y-77522200D02*
X130065350Y-77426961D01*
X130065350Y-77426961D02*
X130065350Y-77331723D01*
X130065350Y-77331723D02*
X130112969Y-77236485D01*
X130112969Y-77236485D02*
X130208207Y-77188866D01*
X130208207Y-77188866D02*
X130446302Y-77188866D01*
X130446302Y-77188866D02*
X130541540Y-77141247D01*
X130874874Y-76903152D02*
X131255826Y-76903152D01*
X131017731Y-76569819D02*
X131017731Y-77426961D01*
X131017731Y-77426961D02*
X131065350Y-77522200D01*
X131065350Y-77522200D02*
X131160588Y-77569819D01*
X131160588Y-77569819D02*
X131255826Y-77569819D01*
X131970112Y-77522200D02*
X131874874Y-77569819D01*
X131874874Y-77569819D02*
X131684398Y-77569819D01*
X131684398Y-77569819D02*
X131589160Y-77522200D01*
X131589160Y-77522200D02*
X131541541Y-77426961D01*
X131541541Y-77426961D02*
X131541541Y-77046009D01*
X131541541Y-77046009D02*
X131589160Y-76950771D01*
X131589160Y-76950771D02*
X131684398Y-76903152D01*
X131684398Y-76903152D02*
X131874874Y-76903152D01*
X131874874Y-76903152D02*
X131970112Y-76950771D01*
X131970112Y-76950771D02*
X132017731Y-77046009D01*
X132017731Y-77046009D02*
X132017731Y-77141247D01*
X132017731Y-77141247D02*
X131541541Y-77236485D01*
X132398684Y-77522200D02*
X132493922Y-77569819D01*
X132493922Y-77569819D02*
X132684398Y-77569819D01*
X132684398Y-77569819D02*
X132779636Y-77522200D01*
X132779636Y-77522200D02*
X132827255Y-77426961D01*
X132827255Y-77426961D02*
X132827255Y-77379342D01*
X132827255Y-77379342D02*
X132779636Y-77284104D01*
X132779636Y-77284104D02*
X132684398Y-77236485D01*
X132684398Y-77236485D02*
X132541541Y-77236485D01*
X132541541Y-77236485D02*
X132446303Y-77188866D01*
X132446303Y-77188866D02*
X132398684Y-77093628D01*
X132398684Y-77093628D02*
X132398684Y-77046009D01*
X132398684Y-77046009D02*
X132446303Y-76950771D01*
X132446303Y-76950771D02*
X132541541Y-76903152D01*
X132541541Y-76903152D02*
X132684398Y-76903152D01*
X132684398Y-76903152D02*
X132779636Y-76950771D01*
X133255827Y-76903152D02*
X133255827Y-77903152D01*
X133255827Y-76950771D02*
X133351065Y-76903152D01*
X133351065Y-76903152D02*
X133541541Y-76903152D01*
X133541541Y-76903152D02*
X133636779Y-76950771D01*
X133636779Y-76950771D02*
X133684398Y-76998390D01*
X133684398Y-76998390D02*
X133732017Y-77093628D01*
X133732017Y-77093628D02*
X133732017Y-77379342D01*
X133732017Y-77379342D02*
X133684398Y-77474580D01*
X133684398Y-77474580D02*
X133636779Y-77522200D01*
X133636779Y-77522200D02*
X133541541Y-77569819D01*
X133541541Y-77569819D02*
X133351065Y-77569819D01*
X133351065Y-77569819D02*
X133255827Y-77522200D01*
X134589160Y-77569819D02*
X134589160Y-77046009D01*
X134589160Y-77046009D02*
X134541541Y-76950771D01*
X134541541Y-76950771D02*
X134446303Y-76903152D01*
X134446303Y-76903152D02*
X134255827Y-76903152D01*
X134255827Y-76903152D02*
X134160589Y-76950771D01*
X134589160Y-77522200D02*
X134493922Y-77569819D01*
X134493922Y-77569819D02*
X134255827Y-77569819D01*
X134255827Y-77569819D02*
X134160589Y-77522200D01*
X134160589Y-77522200D02*
X134112970Y-77426961D01*
X134112970Y-77426961D02*
X134112970Y-77331723D01*
X134112970Y-77331723D02*
X134160589Y-77236485D01*
X134160589Y-77236485D02*
X134255827Y-77188866D01*
X134255827Y-77188866D02*
X134493922Y-77188866D01*
X134493922Y-77188866D02*
X134589160Y-77141247D01*
X135493922Y-76903152D02*
X135493922Y-77712676D01*
X135493922Y-77712676D02*
X135446303Y-77807914D01*
X135446303Y-77807914D02*
X135398684Y-77855533D01*
X135398684Y-77855533D02*
X135303446Y-77903152D01*
X135303446Y-77903152D02*
X135160589Y-77903152D01*
X135160589Y-77903152D02*
X135065351Y-77855533D01*
X135493922Y-77522200D02*
X135398684Y-77569819D01*
X135398684Y-77569819D02*
X135208208Y-77569819D01*
X135208208Y-77569819D02*
X135112970Y-77522200D01*
X135112970Y-77522200D02*
X135065351Y-77474580D01*
X135065351Y-77474580D02*
X135017732Y-77379342D01*
X135017732Y-77379342D02*
X135017732Y-77093628D01*
X135017732Y-77093628D02*
X135065351Y-76998390D01*
X135065351Y-76998390D02*
X135112970Y-76950771D01*
X135112970Y-76950771D02*
X135208208Y-76903152D01*
X135208208Y-76903152D02*
X135398684Y-76903152D01*
X135398684Y-76903152D02*
X135493922Y-76950771D01*
X135970113Y-77569819D02*
X135970113Y-76569819D01*
X136398684Y-77569819D02*
X136398684Y-77046009D01*
X136398684Y-77046009D02*
X136351065Y-76950771D01*
X136351065Y-76950771D02*
X136255827Y-76903152D01*
X136255827Y-76903152D02*
X136112970Y-76903152D01*
X136112970Y-76903152D02*
X136017732Y-76950771D01*
X136017732Y-76950771D02*
X135970113Y-76998390D01*
X137255827Y-77522200D02*
X137160589Y-77569819D01*
X137160589Y-77569819D02*
X136970113Y-77569819D01*
X136970113Y-77569819D02*
X136874875Y-77522200D01*
X136874875Y-77522200D02*
X136827256Y-77426961D01*
X136827256Y-77426961D02*
X136827256Y-77046009D01*
X136827256Y-77046009D02*
X136874875Y-76950771D01*
X136874875Y-76950771D02*
X136970113Y-76903152D01*
X136970113Y-76903152D02*
X137160589Y-76903152D01*
X137160589Y-76903152D02*
X137255827Y-76950771D01*
X137255827Y-76950771D02*
X137303446Y-77046009D01*
X137303446Y-77046009D02*
X137303446Y-77141247D01*
X137303446Y-77141247D02*
X136827256Y-77236485D01*
X137589161Y-76903152D02*
X137970113Y-76903152D01*
X137732018Y-76569819D02*
X137732018Y-77426961D01*
X137732018Y-77426961D02*
X137779637Y-77522200D01*
X137779637Y-77522200D02*
X137874875Y-77569819D01*
X137874875Y-77569819D02*
X137970113Y-77569819D01*
X138160590Y-76903152D02*
X138541542Y-76903152D01*
X138303447Y-76569819D02*
X138303447Y-77426961D01*
X138303447Y-77426961D02*
X138351066Y-77522200D01*
X138351066Y-77522200D02*
X138446304Y-77569819D01*
X138446304Y-77569819D02*
X138541542Y-77569819D01*
X138874876Y-77569819D02*
X138874876Y-76903152D01*
X138874876Y-76569819D02*
X138827257Y-76617438D01*
X138827257Y-76617438D02*
X138874876Y-76665057D01*
X138874876Y-76665057D02*
X138922495Y-76617438D01*
X138922495Y-76617438D02*
X138874876Y-76569819D01*
X138874876Y-76569819D02*
X138874876Y-76665057D01*
X139208209Y-76903152D02*
X139589161Y-76903152D01*
X139351066Y-77569819D02*
X139351066Y-76712676D01*
X139351066Y-76712676D02*
X139398685Y-76617438D01*
X139398685Y-76617438D02*
X139493923Y-76569819D01*
X139493923Y-76569819D02*
X139589161Y-76569819D01*
X140065352Y-77569819D02*
X139970114Y-77522200D01*
X139970114Y-77522200D02*
X139922495Y-77474580D01*
X139922495Y-77474580D02*
X139874876Y-77379342D01*
X139874876Y-77379342D02*
X139874876Y-77093628D01*
X139874876Y-77093628D02*
X139922495Y-76998390D01*
X139922495Y-76998390D02*
X139970114Y-76950771D01*
X139970114Y-76950771D02*
X140065352Y-76903152D01*
X140065352Y-76903152D02*
X140208209Y-76903152D01*
X140208209Y-76903152D02*
X140303447Y-76950771D01*
X140303447Y-76950771D02*
X140351066Y-76998390D01*
X140351066Y-76998390D02*
X140398685Y-77093628D01*
X140398685Y-77093628D02*
X140398685Y-77379342D01*
X140398685Y-77379342D02*
X140351066Y-77474580D01*
X140351066Y-77474580D02*
X140303447Y-77522200D01*
X140303447Y-77522200D02*
X140208209Y-77569819D01*
X140208209Y-77569819D02*
X140065352Y-77569819D01*
X140827257Y-77569819D02*
X140827257Y-76903152D01*
X140827257Y-77093628D02*
X140874876Y-76998390D01*
X140874876Y-76998390D02*
X140922495Y-76950771D01*
X140922495Y-76950771D02*
X141017733Y-76903152D01*
X141017733Y-76903152D02*
X141112971Y-76903152D01*
X141589162Y-77569819D02*
X141493924Y-77522200D01*
X141493924Y-77522200D02*
X141446305Y-77426961D01*
X141446305Y-77426961D02*
X141446305Y-76569819D01*
X142398686Y-76903152D02*
X142398686Y-77569819D01*
X141970115Y-76903152D02*
X141970115Y-77426961D01*
X141970115Y-77426961D02*
X142017734Y-77522200D01*
X142017734Y-77522200D02*
X142112972Y-77569819D01*
X142112972Y-77569819D02*
X142255829Y-77569819D01*
X142255829Y-77569819D02*
X142351067Y-77522200D01*
X142351067Y-77522200D02*
X142398686Y-77474580D01*
X142874877Y-76903152D02*
X142874877Y-77569819D01*
X142874877Y-76998390D02*
X142922496Y-76950771D01*
X142922496Y-76950771D02*
X143017734Y-76903152D01*
X143017734Y-76903152D02*
X143160591Y-76903152D01*
X143160591Y-76903152D02*
X143255829Y-76950771D01*
X143255829Y-76950771D02*
X143303448Y-77046009D01*
X143303448Y-77046009D02*
X143303448Y-77569819D01*
X144208210Y-77522200D02*
X144112972Y-77569819D01*
X144112972Y-77569819D02*
X143922496Y-77569819D01*
X143922496Y-77569819D02*
X143827258Y-77522200D01*
X143827258Y-77522200D02*
X143779639Y-77474580D01*
X143779639Y-77474580D02*
X143732020Y-77379342D01*
X143732020Y-77379342D02*
X143732020Y-77093628D01*
X143732020Y-77093628D02*
X143779639Y-76998390D01*
X143779639Y-76998390D02*
X143827258Y-76950771D01*
X143827258Y-76950771D02*
X143922496Y-76903152D01*
X143922496Y-76903152D02*
X144112972Y-76903152D01*
X144112972Y-76903152D02*
X144208210Y-76950771D01*
X144636782Y-77569819D02*
X144636782Y-76569819D01*
X145065353Y-77569819D02*
X145065353Y-77046009D01*
X145065353Y-77046009D02*
X145017734Y-76950771D01*
X145017734Y-76950771D02*
X144922496Y-76903152D01*
X144922496Y-76903152D02*
X144779639Y-76903152D01*
X144779639Y-76903152D02*
X144684401Y-76950771D01*
X144684401Y-76950771D02*
X144636782Y-76998390D01*
X75789160Y-76884104D02*
X76265350Y-76884104D01*
X75693922Y-77169819D02*
X76027255Y-76169819D01*
X76027255Y-76169819D02*
X76360588Y-77169819D01*
X76693922Y-77169819D02*
X76693922Y-76503152D01*
X76693922Y-76693628D02*
X76741541Y-76598390D01*
X76741541Y-76598390D02*
X76789160Y-76550771D01*
X76789160Y-76550771D02*
X76884398Y-76503152D01*
X76884398Y-76503152D02*
X76979636Y-76503152D01*
X77170113Y-76503152D02*
X77551065Y-76503152D01*
X77312970Y-76169819D02*
X77312970Y-77026961D01*
X77312970Y-77026961D02*
X77360589Y-77122200D01*
X77360589Y-77122200D02*
X77455827Y-77169819D01*
X77455827Y-77169819D02*
X77551065Y-77169819D01*
X78312970Y-76503152D02*
X78312970Y-77169819D01*
X77884399Y-76503152D02*
X77884399Y-77026961D01*
X77884399Y-77026961D02*
X77932018Y-77122200D01*
X77932018Y-77122200D02*
X78027256Y-77169819D01*
X78027256Y-77169819D02*
X78170113Y-77169819D01*
X78170113Y-77169819D02*
X78265351Y-77122200D01*
X78265351Y-77122200D02*
X78312970Y-77074580D01*
X75336779Y-35869819D02*
X75336779Y-34869819D01*
X75336779Y-34869819D02*
X75908207Y-35869819D01*
X75908207Y-35869819D02*
X75908207Y-34869819D01*
X76765350Y-35822200D02*
X76670112Y-35869819D01*
X76670112Y-35869819D02*
X76479636Y-35869819D01*
X76479636Y-35869819D02*
X76384398Y-35822200D01*
X76384398Y-35822200D02*
X76336779Y-35726961D01*
X76336779Y-35726961D02*
X76336779Y-35346009D01*
X76336779Y-35346009D02*
X76384398Y-35250771D01*
X76384398Y-35250771D02*
X76479636Y-35203152D01*
X76479636Y-35203152D02*
X76670112Y-35203152D01*
X76670112Y-35203152D02*
X76765350Y-35250771D01*
X76765350Y-35250771D02*
X76812969Y-35346009D01*
X76812969Y-35346009D02*
X76812969Y-35441247D01*
X76812969Y-35441247D02*
X76336779Y-35536485D01*
X77384398Y-35869819D02*
X77289160Y-35822200D01*
X77289160Y-35822200D02*
X77241541Y-35774580D01*
X77241541Y-35774580D02*
X77193922Y-35679342D01*
X77193922Y-35679342D02*
X77193922Y-35393628D01*
X77193922Y-35393628D02*
X77241541Y-35298390D01*
X77241541Y-35298390D02*
X77289160Y-35250771D01*
X77289160Y-35250771D02*
X77384398Y-35203152D01*
X77384398Y-35203152D02*
X77527255Y-35203152D01*
X77527255Y-35203152D02*
X77622493Y-35250771D01*
X77622493Y-35250771D02*
X77670112Y-35298390D01*
X77670112Y-35298390D02*
X77717731Y-35393628D01*
X77717731Y-35393628D02*
X77717731Y-35679342D01*
X77717731Y-35679342D02*
X77670112Y-35774580D01*
X77670112Y-35774580D02*
X77622493Y-35822200D01*
X77622493Y-35822200D02*
X77527255Y-35869819D01*
X77527255Y-35869819D02*
X77384398Y-35869819D01*
X78146303Y-35203152D02*
X78146303Y-35869819D01*
X78146303Y-35298390D02*
X78193922Y-35250771D01*
X78193922Y-35250771D02*
X78289160Y-35203152D01*
X78289160Y-35203152D02*
X78432017Y-35203152D01*
X78432017Y-35203152D02*
X78527255Y-35250771D01*
X78527255Y-35250771D02*
X78574874Y-35346009D01*
X78574874Y-35346009D02*
X78574874Y-35869819D01*
X140836779Y-39569819D02*
X140836779Y-38903152D01*
X140836779Y-39093628D02*
X140884398Y-38998390D01*
X140884398Y-38998390D02*
X140932017Y-38950771D01*
X140932017Y-38950771D02*
X141027255Y-38903152D01*
X141027255Y-38903152D02*
X141122493Y-38903152D01*
X141598684Y-39569819D02*
X141503446Y-39522200D01*
X141503446Y-39522200D02*
X141455827Y-39474580D01*
X141455827Y-39474580D02*
X141408208Y-39379342D01*
X141408208Y-39379342D02*
X141408208Y-39093628D01*
X141408208Y-39093628D02*
X141455827Y-38998390D01*
X141455827Y-38998390D02*
X141503446Y-38950771D01*
X141503446Y-38950771D02*
X141598684Y-38903152D01*
X141598684Y-38903152D02*
X141741541Y-38903152D01*
X141741541Y-38903152D02*
X141836779Y-38950771D01*
X141836779Y-38950771D02*
X141884398Y-38998390D01*
X141884398Y-38998390D02*
X141932017Y-39093628D01*
X141932017Y-39093628D02*
X141932017Y-39379342D01*
X141932017Y-39379342D02*
X141884398Y-39474580D01*
X141884398Y-39474580D02*
X141836779Y-39522200D01*
X141836779Y-39522200D02*
X141741541Y-39569819D01*
X141741541Y-39569819D02*
X141598684Y-39569819D01*
X142217732Y-38903152D02*
X142598684Y-38903152D01*
X142360589Y-38569819D02*
X142360589Y-39426961D01*
X142360589Y-39426961D02*
X142408208Y-39522200D01*
X142408208Y-39522200D02*
X142503446Y-39569819D01*
X142503446Y-39569819D02*
X142598684Y-39569819D01*
X143312970Y-39522200D02*
X143217732Y-39569819D01*
X143217732Y-39569819D02*
X143027256Y-39569819D01*
X143027256Y-39569819D02*
X142932018Y-39522200D01*
X142932018Y-39522200D02*
X142884399Y-39426961D01*
X142884399Y-39426961D02*
X142884399Y-39046009D01*
X142884399Y-39046009D02*
X142932018Y-38950771D01*
X142932018Y-38950771D02*
X143027256Y-38903152D01*
X143027256Y-38903152D02*
X143217732Y-38903152D01*
X143217732Y-38903152D02*
X143312970Y-38950771D01*
X143312970Y-38950771D02*
X143360589Y-39046009D01*
X143360589Y-39046009D02*
X143360589Y-39141247D01*
X143360589Y-39141247D02*
X142884399Y-39236485D01*
X143932018Y-39569819D02*
X143836780Y-39522200D01*
X143836780Y-39522200D02*
X143789161Y-39426961D01*
X143789161Y-39426961D02*
X143789161Y-38569819D01*
X144455828Y-39569819D02*
X144360590Y-39522200D01*
X144360590Y-39522200D02*
X144312971Y-39426961D01*
X144312971Y-39426961D02*
X144312971Y-38569819D01*
X144836781Y-39569819D02*
X144836781Y-38903152D01*
X144836781Y-38569819D02*
X144789162Y-38617438D01*
X144789162Y-38617438D02*
X144836781Y-38665057D01*
X144836781Y-38665057D02*
X144884400Y-38617438D01*
X144884400Y-38617438D02*
X144836781Y-38569819D01*
X144836781Y-38569819D02*
X144836781Y-38665057D01*
X145312971Y-38903152D02*
X145312971Y-39569819D01*
X145312971Y-38998390D02*
X145360590Y-38950771D01*
X145360590Y-38950771D02*
X145455828Y-38903152D01*
X145455828Y-38903152D02*
X145598685Y-38903152D01*
X145598685Y-38903152D02*
X145693923Y-38950771D01*
X145693923Y-38950771D02*
X145741542Y-39046009D01*
X145741542Y-39046009D02*
X145741542Y-39569819D01*
X146217733Y-39569819D02*
X146217733Y-38903152D01*
X146217733Y-38569819D02*
X146170114Y-38617438D01*
X146170114Y-38617438D02*
X146217733Y-38665057D01*
X146217733Y-38665057D02*
X146265352Y-38617438D01*
X146265352Y-38617438D02*
X146217733Y-38569819D01*
X146217733Y-38569819D02*
X146217733Y-38665057D01*
X146741542Y-39569819D02*
X146932018Y-39569819D01*
X146932018Y-39569819D02*
X147027256Y-39522200D01*
X147027256Y-39522200D02*
X147074875Y-39474580D01*
X147074875Y-39474580D02*
X147170113Y-39331723D01*
X147170113Y-39331723D02*
X147217732Y-39141247D01*
X147217732Y-39141247D02*
X147217732Y-38760295D01*
X147217732Y-38760295D02*
X147170113Y-38665057D01*
X147170113Y-38665057D02*
X147122494Y-38617438D01*
X147122494Y-38617438D02*
X147027256Y-38569819D01*
X147027256Y-38569819D02*
X146836780Y-38569819D01*
X146836780Y-38569819D02*
X146741542Y-38617438D01*
X146741542Y-38617438D02*
X146693923Y-38665057D01*
X146693923Y-38665057D02*
X146646304Y-38760295D01*
X146646304Y-38760295D02*
X146646304Y-38998390D01*
X146646304Y-38998390D02*
X146693923Y-39093628D01*
X146693923Y-39093628D02*
X146741542Y-39141247D01*
X146741542Y-39141247D02*
X146836780Y-39188866D01*
X146836780Y-39188866D02*
X147027256Y-39188866D01*
X147027256Y-39188866D02*
X147122494Y-39141247D01*
X147122494Y-39141247D02*
X147170113Y-39093628D01*
X147170113Y-39093628D02*
X147217732Y-38998390D01*
X147789161Y-38998390D02*
X147693923Y-38950771D01*
X147693923Y-38950771D02*
X147646304Y-38903152D01*
X147646304Y-38903152D02*
X147598685Y-38807914D01*
X147598685Y-38807914D02*
X147598685Y-38760295D01*
X147598685Y-38760295D02*
X147646304Y-38665057D01*
X147646304Y-38665057D02*
X147693923Y-38617438D01*
X147693923Y-38617438D02*
X147789161Y-38569819D01*
X147789161Y-38569819D02*
X147979637Y-38569819D01*
X147979637Y-38569819D02*
X148074875Y-38617438D01*
X148074875Y-38617438D02*
X148122494Y-38665057D01*
X148122494Y-38665057D02*
X148170113Y-38760295D01*
X148170113Y-38760295D02*
X148170113Y-38807914D01*
X148170113Y-38807914D02*
X148122494Y-38903152D01*
X148122494Y-38903152D02*
X148074875Y-38950771D01*
X148074875Y-38950771D02*
X147979637Y-38998390D01*
X147979637Y-38998390D02*
X147789161Y-38998390D01*
X147789161Y-38998390D02*
X147693923Y-39046009D01*
X147693923Y-39046009D02*
X147646304Y-39093628D01*
X147646304Y-39093628D02*
X147598685Y-39188866D01*
X147598685Y-39188866D02*
X147598685Y-39379342D01*
X147598685Y-39379342D02*
X147646304Y-39474580D01*
X147646304Y-39474580D02*
X147693923Y-39522200D01*
X147693923Y-39522200D02*
X147789161Y-39569819D01*
X147789161Y-39569819D02*
X147979637Y-39569819D01*
X147979637Y-39569819D02*
X148074875Y-39522200D01*
X148074875Y-39522200D02*
X148122494Y-39474580D01*
X148122494Y-39474580D02*
X148170113Y-39379342D01*
X148170113Y-39379342D02*
X148170113Y-39188866D01*
X148170113Y-39188866D02*
X148122494Y-39093628D01*
X148122494Y-39093628D02*
X148074875Y-39046009D01*
X148074875Y-39046009D02*
X147979637Y-38998390D01*
X148789161Y-38569819D02*
X148884399Y-38569819D01*
X148884399Y-38569819D02*
X148979637Y-38617438D01*
X148979637Y-38617438D02*
X149027256Y-38665057D01*
X149027256Y-38665057D02*
X149074875Y-38760295D01*
X149074875Y-38760295D02*
X149122494Y-38950771D01*
X149122494Y-38950771D02*
X149122494Y-39188866D01*
X149122494Y-39188866D02*
X149074875Y-39379342D01*
X149074875Y-39379342D02*
X149027256Y-39474580D01*
X149027256Y-39474580D02*
X148979637Y-39522200D01*
X148979637Y-39522200D02*
X148884399Y-39569819D01*
X148884399Y-39569819D02*
X148789161Y-39569819D01*
X148789161Y-39569819D02*
X148693923Y-39522200D01*
X148693923Y-39522200D02*
X148646304Y-39474580D01*
X148646304Y-39474580D02*
X148598685Y-39379342D01*
X148598685Y-39379342D02*
X148551066Y-39188866D01*
X148551066Y-39188866D02*
X148551066Y-38950771D01*
X148551066Y-38950771D02*
X148598685Y-38760295D01*
X148598685Y-38760295D02*
X148646304Y-38665057D01*
X148646304Y-38665057D02*
X148693923Y-38617438D01*
X148693923Y-38617438D02*
X148789161Y-38569819D01*
X149598685Y-39569819D02*
X149789161Y-39569819D01*
X149789161Y-39569819D02*
X149884399Y-39522200D01*
X149884399Y-39522200D02*
X149932018Y-39474580D01*
X149932018Y-39474580D02*
X150027256Y-39331723D01*
X150027256Y-39331723D02*
X150074875Y-39141247D01*
X150074875Y-39141247D02*
X150074875Y-38760295D01*
X150074875Y-38760295D02*
X150027256Y-38665057D01*
X150027256Y-38665057D02*
X149979637Y-38617438D01*
X149979637Y-38617438D02*
X149884399Y-38569819D01*
X149884399Y-38569819D02*
X149693923Y-38569819D01*
X149693923Y-38569819D02*
X149598685Y-38617438D01*
X149598685Y-38617438D02*
X149551066Y-38665057D01*
X149551066Y-38665057D02*
X149503447Y-38760295D01*
X149503447Y-38760295D02*
X149503447Y-38998390D01*
X149503447Y-38998390D02*
X149551066Y-39093628D01*
X149551066Y-39093628D02*
X149598685Y-39141247D01*
X149598685Y-39141247D02*
X149693923Y-39188866D01*
X149693923Y-39188866D02*
X149884399Y-39188866D01*
X149884399Y-39188866D02*
X149979637Y-39141247D01*
X149979637Y-39141247D02*
X150027256Y-39093628D01*
X150027256Y-39093628D02*
X150074875Y-38998390D01*
D12*
%TO.C,IC1*%
X145250000Y-45349000D03*
X144750000Y-45349000D03*
X144250000Y-45349000D03*
X143750000Y-45349000D03*
D13*
X143100000Y-45775000D03*
X143100000Y-46275000D03*
X143100000Y-46775000D03*
D14*
X143275000Y-47025000D03*
D13*
X143100000Y-47275000D03*
D15*
X144000000Y-47275000D03*
D16*
X144500000Y-47100000D03*
D15*
X145000000Y-47275000D03*
D13*
X145900000Y-47275000D03*
X145900000Y-46775000D03*
D14*
X145725000Y-47025000D03*
D13*
X145900000Y-46275000D03*
X145900000Y-45775000D03*
%TD*%
D17*
%TO.C,R8*%
X131500000Y-50587500D03*
X131500000Y-52412500D03*
%TD*%
D18*
%TO.C,RN8*%
X125400000Y-72800000D03*
D19*
X125400000Y-72000000D03*
X125400000Y-71200000D03*
D18*
X125400000Y-70400000D03*
X123600000Y-70400000D03*
D19*
X123600000Y-71200000D03*
X123600000Y-72000000D03*
D18*
X123600000Y-72800000D03*
%TD*%
D20*
%TO.C,H1*%
X138750000Y-37750000D03*
%TD*%
D21*
%TO.C,U2*%
X103187500Y-76705000D03*
X103187500Y-75435000D03*
X103187500Y-74165000D03*
X103187500Y-72895000D03*
X96012500Y-72895000D03*
X96012500Y-74165000D03*
X96012500Y-75435000D03*
X96012500Y-76705000D03*
%TD*%
D22*
%TO.C,U4*%
X109627139Y-37333522D03*
X109273585Y-36979968D03*
X108920032Y-36626415D03*
X108566478Y-36272861D03*
D23*
X107636349Y-36629244D03*
X107282797Y-36982797D03*
X106929244Y-37336349D03*
D22*
X106572861Y-38266478D03*
X106926415Y-38620032D03*
X107279968Y-38973585D03*
X107633522Y-39327139D03*
D23*
X108563651Y-38970756D03*
X108917203Y-38617203D03*
X109270756Y-38263651D03*
%TD*%
D20*
%TO.C,H4*%
X138500000Y-74000000D03*
%TD*%
D24*
%TO.C,Q3*%
X92062500Y-66650000D03*
X92062500Y-68550000D03*
X93937500Y-67600000D03*
%TD*%
D25*
%TO.C,Y1*%
X105050000Y-45475000D03*
X107350000Y-45475000D03*
X107350000Y-43725000D03*
X105050000Y-43725000D03*
%TD*%
D17*
%TO.C,R10*%
X87500000Y-65087500D03*
X87500000Y-66912500D03*
%TD*%
D26*
%TO.C,J9*%
X152920000Y-45960000D03*
X155460000Y-45960000D03*
X152920000Y-48500000D03*
X155460000Y-48500000D03*
D27*
X152920000Y-51040000D03*
X155460000Y-51040000D03*
%TD*%
D28*
%TO.C,C27*%
X121662499Y-34744300D03*
X123387499Y-34744300D03*
%TD*%
D29*
%TO.C,R45*%
X82512500Y-46900000D03*
X80687500Y-46900000D03*
%TD*%
D28*
%TO.C,C38*%
X113625000Y-35775000D03*
X115350000Y-35775000D03*
%TD*%
D30*
%TO.C,C35*%
X101037500Y-36487500D03*
X101037500Y-38212500D03*
%TD*%
D31*
%TO.C,C16*%
X109800000Y-45400000D03*
X109800000Y-43675000D03*
%TD*%
D32*
%TO.C,R9*%
X125775000Y-64100000D03*
X127600000Y-64100000D03*
%TD*%
D18*
%TO.C,RN10*%
X78152500Y-59000000D03*
D19*
X78152500Y-58200000D03*
X78152500Y-57400000D03*
D18*
X78152500Y-56600000D03*
X76352500Y-56600000D03*
D19*
X76352500Y-57400000D03*
X76352500Y-58200000D03*
D18*
X76352500Y-59000000D03*
%TD*%
D33*
%TO.C,C2*%
X103662500Y-64787500D03*
X101937500Y-64787500D03*
%TD*%
D34*
%TO.C,R19*%
X135900000Y-60112500D03*
X135900000Y-58287500D03*
%TD*%
D35*
%TO.C,Q5*%
X137795000Y-59611500D03*
X139695000Y-59611500D03*
X138745000Y-57736500D03*
%TD*%
D18*
%TO.C,RN6*%
X114600000Y-73000000D03*
D19*
X114600000Y-72200000D03*
X114600000Y-71400000D03*
D18*
X114600000Y-70600000D03*
X112800000Y-70600000D03*
D19*
X112800000Y-71400000D03*
X112800000Y-72200000D03*
D18*
X112800000Y-73000000D03*
%TD*%
D32*
%TO.C,R15*%
X145391500Y-62992000D03*
X147216500Y-62992000D03*
%TD*%
D36*
%TO.C,Q11*%
X147558000Y-67218000D03*
X147558000Y-66568000D03*
X147558000Y-65918000D03*
X145558000Y-65918000D03*
X145558000Y-66568000D03*
X145558000Y-67218000D03*
D37*
X146578000Y-66858000D03*
D38*
X146558000Y-65878000D03*
%TD*%
D28*
%TO.C,C3*%
X96937500Y-63700000D03*
X98662500Y-63700000D03*
%TD*%
D34*
%TO.C,R32*%
X142240000Y-56411500D03*
X142240000Y-54586500D03*
%TD*%
D33*
%TO.C,C1*%
X103650000Y-66300000D03*
X101925000Y-66300000D03*
%TD*%
D39*
%TO.C,U7*%
X134025000Y-51095000D03*
X134025000Y-52365000D03*
X134025000Y-53635000D03*
X134025000Y-54905000D03*
X138975000Y-54905000D03*
X138975000Y-53635000D03*
X138975000Y-52365000D03*
X138975000Y-51095000D03*
%TD*%
D40*
%TO.C,Q4*%
X129560000Y-54050000D03*
X129560000Y-55950000D03*
X132040000Y-55000000D03*
%TD*%
D32*
%TO.C,R30*%
X138279500Y-66167000D03*
X140104500Y-66167000D03*
%TD*%
D36*
%TO.C,Q10*%
X147542000Y-76708000D03*
X147542000Y-76058000D03*
X147542000Y-75408000D03*
X145542000Y-75408000D03*
X145542000Y-76058000D03*
X145542000Y-76708000D03*
D37*
X146562000Y-76348000D03*
D38*
X146542000Y-75368000D03*
%TD*%
D34*
%TO.C,R40*%
X111600000Y-68812500D03*
X111600000Y-66987500D03*
%TD*%
D26*
%TO.C,J10*%
X158000000Y-45960000D03*
X160540000Y-45960000D03*
X158000000Y-48500000D03*
X160540000Y-48500000D03*
D27*
X158000000Y-51040000D03*
X160540000Y-51040000D03*
%TD*%
D17*
%TO.C,R14*%
X144145000Y-74652500D03*
X144145000Y-76477500D03*
%TD*%
D34*
%TO.C,R23*%
X148300000Y-44762500D03*
X148300000Y-42937500D03*
%TD*%
%TO.C,R11*%
X89000000Y-66912500D03*
X89000000Y-65087500D03*
%TD*%
D20*
%TO.C,H6*%
X86500000Y-38000000D03*
%TD*%
D34*
%TO.C,R6*%
X80900000Y-50900000D03*
X80900000Y-49075000D03*
%TD*%
D41*
%TO.C,U1*%
X110750000Y-61175000D03*
X110750000Y-60775000D03*
X110750000Y-60375000D03*
X110750000Y-59975000D03*
X110750000Y-59575000D03*
X110750000Y-59175000D03*
X110750000Y-58775000D03*
X110750000Y-58375000D03*
X110750000Y-57975000D03*
X110750000Y-57575000D03*
X110750000Y-57175000D03*
X110750000Y-56775000D03*
X110750000Y-56375000D03*
X110750000Y-55975000D03*
X110750000Y-55575000D03*
X110750000Y-55175000D03*
X110750000Y-54775000D03*
X110750000Y-54375000D03*
X110750000Y-53975000D03*
X110750000Y-53575000D03*
D42*
X109600000Y-52425000D03*
X109200000Y-52425000D03*
X108800000Y-52425000D03*
X108400000Y-52425000D03*
X108000000Y-52425000D03*
X107600000Y-52425000D03*
X107200000Y-52425000D03*
X106800000Y-52425000D03*
X106400000Y-52425000D03*
X106000000Y-52425000D03*
X105600000Y-52425000D03*
X105200000Y-52425000D03*
X104800000Y-52425000D03*
X104400000Y-52425000D03*
X104000000Y-52425000D03*
X103600000Y-52425000D03*
X103200000Y-52425000D03*
X102800000Y-52425000D03*
X102400000Y-52425000D03*
X102000000Y-52425000D03*
D41*
X100850000Y-53575000D03*
X100850000Y-53975000D03*
X100850000Y-54375000D03*
X100850000Y-54775000D03*
X100850000Y-55175000D03*
X100850000Y-55575000D03*
X100850000Y-55975000D03*
X100850000Y-56375000D03*
X100850000Y-56775000D03*
X100850000Y-57175000D03*
X100850000Y-57575000D03*
X100850000Y-57975000D03*
X100850000Y-58375000D03*
X100850000Y-58775000D03*
X100850000Y-59175000D03*
X100850000Y-59575000D03*
X100850000Y-59975000D03*
X100850000Y-60375000D03*
X100850000Y-60775000D03*
X100850000Y-61175000D03*
D42*
X102000000Y-62325000D03*
X102400000Y-62325000D03*
X102800000Y-62325000D03*
X103200000Y-62325000D03*
X103600000Y-62325000D03*
X104000000Y-62325000D03*
X104400000Y-62325000D03*
X104800000Y-62325000D03*
X105200000Y-62325000D03*
X105600000Y-62325000D03*
X106000000Y-62325000D03*
X106400000Y-62325000D03*
X106800000Y-62325000D03*
X107200000Y-62325000D03*
X107600000Y-62325000D03*
X108000000Y-62325000D03*
X108400000Y-62325000D03*
X108800000Y-62325000D03*
X109200000Y-62325000D03*
X109600000Y-62325000D03*
D43*
X105800000Y-57375000D03*
%TD*%
D20*
%TO.C,H3*%
X77000000Y-74000000D03*
%TD*%
D29*
%TO.C,R46*%
X75712500Y-47200000D03*
X73887500Y-47200000D03*
%TD*%
D30*
%TO.C,C32*%
X108100000Y-75637500D03*
X108100000Y-77362500D03*
%TD*%
D17*
%TO.C,R27*%
X146431000Y-68683500D03*
X146431000Y-70508500D03*
%TD*%
D44*
%TO.C,RN9*%
X118200000Y-67000000D03*
D45*
X117400000Y-67000000D03*
X116600000Y-67000000D03*
D44*
X115800000Y-67000000D03*
X115800000Y-68800000D03*
D45*
X116600000Y-68800000D03*
X117400000Y-68800000D03*
D44*
X118200000Y-68800000D03*
%TD*%
D46*
%TO.C,L1*%
X103650100Y-68300000D03*
X102049900Y-68300000D03*
%TD*%
D17*
%TO.C,R22*%
X138750000Y-42937500D03*
X138750000Y-44762500D03*
%TD*%
D32*
%TO.C,R26*%
X125787500Y-62500000D03*
X127612500Y-62500000D03*
%TD*%
D47*
%TO.C,D2*%
X149531500Y-48300000D03*
D48*
X150443500Y-48300000D03*
%TD*%
D49*
%TO.C,J11*%
X152800000Y-74500000D03*
D50*
X157800000Y-74500000D03*
D51*
X152800000Y-71000000D03*
X157800000Y-71000000D03*
X152800000Y-67500000D03*
X157800000Y-67500000D03*
X152800000Y-64000000D03*
X157800000Y-64000000D03*
X152800000Y-60500000D03*
X157800000Y-60500000D03*
X152800000Y-57000000D03*
X157800000Y-57000000D03*
%TD*%
D31*
%TO.C,C18*%
X137400000Y-48162500D03*
X137400000Y-46437500D03*
%TD*%
D52*
%TO.C,U11*%
X113637500Y-37550000D03*
X113637500Y-38050000D03*
D53*
X113900000Y-38562500D03*
X114400000Y-38562500D03*
X114900000Y-38562500D03*
D52*
X115162500Y-38050000D03*
X115162500Y-37550000D03*
D53*
X114900000Y-37037500D03*
X114400000Y-37037500D03*
X113900000Y-37037500D03*
%TD*%
D33*
%TO.C,C34*%
X97362500Y-35800000D03*
X95637500Y-35800000D03*
%TD*%
D29*
%TO.C,R3*%
X101412500Y-71100000D03*
X99587500Y-71100000D03*
%TD*%
D31*
%TO.C,C36*%
X99037500Y-38212500D03*
X99037500Y-36487500D03*
%TD*%
D32*
%TO.C,R31*%
X138406500Y-67818000D03*
X140231500Y-67818000D03*
%TD*%
D29*
%TO.C,R4*%
X105612500Y-47800000D03*
X103787500Y-47800000D03*
%TD*%
D54*
%TO.C,C30*%
X105790120Y-36009880D03*
X107009880Y-34790120D03*
%TD*%
D30*
%TO.C,C17*%
X102600000Y-43737500D03*
X102600000Y-45462500D03*
%TD*%
D44*
%TO.C,RN7*%
X122600000Y-67000000D03*
D45*
X121800000Y-67000000D03*
X121000000Y-67000000D03*
D44*
X120200000Y-67000000D03*
X120200000Y-68800000D03*
D45*
X121000000Y-68800000D03*
X121800000Y-68800000D03*
D44*
X122600000Y-68800000D03*
%TD*%
D47*
%TO.C,D1*%
X149550000Y-47200000D03*
D48*
X150462000Y-47200000D03*
%TD*%
D29*
%TO.C,R1*%
X98712500Y-65200000D03*
X96887500Y-65200000D03*
%TD*%
D55*
%TO.C,U5*%
X123909700Y-38150001D03*
X123909700Y-37650000D03*
X123909700Y-37150000D03*
X123909700Y-36649999D03*
D56*
X122999999Y-36244300D03*
X122500000Y-36244300D03*
X122000001Y-36244300D03*
D55*
X121090300Y-36649999D03*
X121090300Y-37150000D03*
X121090300Y-37650000D03*
X121090300Y-38150001D03*
D56*
X122000001Y-38555700D03*
X122500000Y-38555700D03*
X122999999Y-38555700D03*
%TD*%
D29*
%TO.C,R16*%
X147193000Y-64643000D03*
X145368000Y-64643000D03*
%TD*%
D35*
%TO.C,Q2*%
X143769000Y-56134000D03*
X145669000Y-56134000D03*
X144719000Y-54259000D03*
%TD*%
D30*
%TO.C,C21*%
X140500000Y-46437500D03*
X140500000Y-48162500D03*
%TD*%
D20*
%TO.C,H5*%
X131000000Y-74000000D03*
%TD*%
D24*
%TO.C,Q6*%
X143715500Y-71059000D03*
X143715500Y-72959000D03*
X145590500Y-72009000D03*
%TD*%
D34*
%TO.C,R18*%
X134200000Y-60112500D03*
X134200000Y-58287500D03*
%TD*%
%TO.C,R13*%
X141250000Y-60112500D03*
X141250000Y-58287500D03*
%TD*%
D57*
%TO.C,Q1*%
X128160000Y-46205000D03*
D58*
X132740000Y-46205000D03*
D59*
X130470000Y-39245000D03*
%TD*%
D32*
%TO.C,R2*%
X95762500Y-71100000D03*
X97587500Y-71100000D03*
%TD*%
D60*
%TO.C,U8*%
X95775000Y-37100000D03*
X95775000Y-37600000D03*
X95775000Y-38100000D03*
X95775000Y-38600000D03*
D61*
X96287500Y-38612500D03*
X96787500Y-38612500D03*
D60*
X97300000Y-38600000D03*
X97300000Y-38100000D03*
X97300000Y-37600000D03*
X97300000Y-37100000D03*
D61*
X96787500Y-37087500D03*
X96287500Y-37087500D03*
%TD*%
D31*
%TO.C,C4*%
X93000000Y-76562500D03*
X93000000Y-74837500D03*
%TD*%
D17*
%TO.C,R20*%
X148300000Y-46287500D03*
X148300000Y-48112500D03*
%TD*%
%TO.C,R12*%
X147320000Y-72112500D03*
X147320000Y-73937500D03*
%TD*%
D62*
%TO.C,L2*%
X143475000Y-50300000D03*
X145625000Y-50300000D03*
%TD*%
D32*
%TO.C,R42*%
X145137500Y-35250000D03*
X146962500Y-35250000D03*
%TD*%
D63*
%TO.C,Q12*%
X147609000Y-57674000D03*
X146959000Y-57674000D03*
X146309000Y-57674000D03*
X146309000Y-59674000D03*
X146959000Y-59674000D03*
X147609000Y-59674000D03*
D64*
X147249000Y-58654000D03*
D65*
X146269000Y-58674000D03*
%TD*%
D31*
%TO.C,C22*%
X138950000Y-48162500D03*
X138950000Y-46437500D03*
%TD*%
D66*
%TO.C,C29*%
X104609880Y-37190120D03*
X103390120Y-38409880D03*
%TD*%
D29*
%TO.C,R41*%
X146962500Y-36800000D03*
X145137500Y-36800000D03*
%TD*%
D28*
%TO.C,C20*%
X143637500Y-42050000D03*
X145362500Y-42050000D03*
%TD*%
D34*
%TO.C,R33*%
X143510000Y-59840500D03*
X143510000Y-58015500D03*
%TD*%
D29*
%TO.C,R28*%
X144422500Y-69469000D03*
X142597500Y-69469000D03*
%TD*%
D31*
%TO.C,C28*%
X119400001Y-38443200D03*
X119400001Y-36718200D03*
%TD*%
D34*
%TO.C,R5*%
X82400000Y-50900000D03*
X82400000Y-49075000D03*
%TD*%
%TO.C,R21*%
X140500000Y-44762500D03*
X140500000Y-42937500D03*
%TD*%
D31*
%TO.C,C31*%
X109600000Y-77362500D03*
X109600000Y-75637500D03*
%TD*%
D28*
%TO.C,C33*%
X95337500Y-40100000D03*
X97062500Y-40100000D03*
%TD*%
D17*
%TO.C,R34*%
X145034000Y-58015500D03*
X145034000Y-59840500D03*
%TD*%
D20*
%TO.C,H2*%
X77000000Y-38000000D03*
%TD*%
D35*
%TO.C,Q7*%
X141864000Y-66850500D03*
X143764000Y-66850500D03*
X142814000Y-64975500D03*
%TD*%
D31*
%TO.C,C19*%
X135850000Y-48162500D03*
X135850000Y-46437500D03*
%TD*%
D17*
%TO.C,R17*%
X147193000Y-54205500D03*
X147193000Y-56030500D03*
%TD*%
D34*
%TO.C,R29*%
X141224000Y-63523500D03*
X141224000Y-61698500D03*
%TD*%
D27*
%TO.C,J6*%
X87700000Y-44660000D03*
D26*
X85160000Y-44660000D03*
X87700000Y-47200000D03*
X85160000Y-47200000D03*
X87700000Y-49740000D03*
X85160000Y-49740000D03*
X87700000Y-52280000D03*
X85160000Y-52280000D03*
X87700000Y-54820000D03*
X85160000Y-54820000D03*
X87700000Y-57360000D03*
X85160000Y-57360000D03*
X87700000Y-59900000D03*
X85160000Y-59900000D03*
X87700000Y-62440000D03*
X85160000Y-62440000D03*
%TD*%
D27*
%TO.C,J5*%
X123000000Y-44760000D03*
D26*
X120460000Y-44760000D03*
X123000000Y-47300000D03*
X120460000Y-47300000D03*
X123000000Y-49840000D03*
X120460000Y-49840000D03*
X123000000Y-52380000D03*
X120460000Y-52380000D03*
X123000000Y-54920000D03*
X120460000Y-54920000D03*
X123000000Y-57460000D03*
X120460000Y-57460000D03*
X123000000Y-60000000D03*
X120460000Y-60000000D03*
X123000000Y-62540000D03*
X120460000Y-62540000D03*
%TD*%
D67*
%TO.C,USB1*%
X78175000Y-43755000D03*
D68*
X74795000Y-43755000D03*
X74795000Y-52395000D03*
D67*
X78175000Y-52395000D03*
D69*
X79155000Y-51045000D03*
X79155000Y-50195000D03*
X79155000Y-49345000D03*
X79155000Y-48495000D03*
X79155000Y-47645000D03*
X79155000Y-46795000D03*
X79155000Y-45945000D03*
X79155000Y-45095000D03*
X77805000Y-45095000D03*
X77805000Y-45945000D03*
X77805000Y-46795000D03*
X77805000Y-47645000D03*
X77805000Y-48495000D03*
X77805000Y-49345000D03*
X77805000Y-50195000D03*
X77805000Y-51045000D03*
%TD*%
D70*
%TO.C,J8*%
X151264452Y-40651100D03*
X151264452Y-38151100D03*
X153764452Y-40651100D03*
X153764452Y-38151100D03*
%TD*%
M02*
