%TF.GenerationSoftware,KiCad,Pcbnew,10.0.0*%
%TF.CreationDate,2026-04-01T14:00:11+02:00*%
%TF.ProjectId,TABv1,54414276-312e-46b6-9963-61645f706362,2.2*%
%TF.SameCoordinates,Original*%
%TF.FileFunction,Soldermask,Top*%
%TF.FilePolarity,Negative*%
%FSLAX46Y46*%
G04 Gerber Fmt 4.6, Leading zero omitted, Abs format (unit mm)*
G04 Created by KiCad (PCBNEW 10.0.0) date 2026-04-01 14:00:11*
%MOMM*%
%LPD*%
G01*
G04 APERTURE LIST*
G04 Aperture macros list*
%AMRoundRect*
0 Rectangle with rounded corners*
0 $1 Rounding radius*
0 $2 $3 $4 $5 $6 $7 $8 $9 X,Y pos of 4 corners*
0 Add a 4 corners polygon primitive as box body*
4,1,4,$2,$3,$4,$5,$6,$7,$8,$9,$2,$3,0*
0 Add four circle primitives for the rounded corners*
1,1,$1+$1,$2,$3*
1,1,$1+$1,$4,$5*
1,1,$1+$1,$6,$7*
1,1,$1+$1,$8,$9*
0 Add four rect primitives between the rounded corners*
20,1,$1+$1,$2,$3,$4,$5,0*
20,1,$1+$1,$4,$5,$6,$7,0*
20,1,$1+$1,$6,$7,$8,$9,0*
20,1,$1+$1,$8,$9,$2,$3,0*%
%AMRotRect*
0 Rectangle, with rotation*
0 The origin of the aperture is its center*
0 $1 length*
0 $2 width*
0 $3 Rotation angle, in degrees counterclockwise*
0 Add horizontal line*
21,1,$1,$2,0,0,$3*%
G04 Aperture macros list end*
%ADD10C,0.150000*%
%ADD11C,0.200000*%
%ADD12R,0.250000X0.600000*%
%ADD13R,0.600000X0.250000*%
%ADD14R,0.250000X0.250000*%
%ADD15R,0.250000X1.350000*%
%ADD16R,0.250000X1.700000*%
%ADD17RoundRect,0.237500X-0.237500X0.250000X-0.237500X-0.250000X0.237500X-0.250000X0.237500X0.250000X0*%
%ADD18R,0.800000X0.500000*%
%ADD19R,0.800000X0.400000*%
%ADD20C,3.200000*%
%ADD21RoundRect,0.162500X0.650000X0.162500X-0.650000X0.162500X-0.650000X-0.162500X0.650000X-0.162500X0*%
%ADD22RotRect,0.254000X0.787400X315.000000*%
%ADD23RotRect,0.254000X0.787400X225.000000*%
%ADD24RoundRect,0.150000X-0.587500X-0.150000X0.587500X-0.150000X0.587500X0.150000X-0.587500X0.150000X0*%
%ADD25R,1.300000X1.050000*%
%ADD26C,1.700000*%
%ADD27R,1.700000X1.700000*%
%ADD28RoundRect,0.237500X-0.300000X-0.237500X0.300000X-0.237500X0.300000X0.237500X-0.300000X0.237500X0*%
%ADD29RoundRect,0.237500X-0.237500X0.300000X-0.237500X-0.300000X0.237500X-0.300000X0.237500X0.300000X0*%
%ADD30RoundRect,0.237500X0.237500X-0.300000X0.237500X0.300000X-0.237500X0.300000X-0.237500X-0.300000X0*%
%ADD31RoundRect,0.237500X-0.250000X-0.237500X0.250000X-0.237500X0.250000X0.237500X-0.250000X0.237500X0*%
%ADD32RoundRect,0.237500X0.300000X0.237500X-0.300000X0.237500X-0.300000X-0.237500X0.300000X-0.237500X0*%
%ADD33RoundRect,0.237500X0.237500X-0.250000X0.237500X0.250000X-0.237500X0.250000X-0.237500X-0.250000X0*%
%ADD34RoundRect,0.150000X0.150000X-0.587500X0.150000X0.587500X-0.150000X0.587500X-0.150000X-0.587500X0*%
%ADD35R,0.500000X0.350000*%
%ADD36R,1.000000X0.950000*%
%ADD37R,0.850000X0.300000*%
%ADD38RoundRect,0.150000X-0.825000X-0.150000X0.825000X-0.150000X0.825000X0.150000X-0.825000X0.150000X0*%
%ADD39R,1.070000X0.600000*%
%ADD40RoundRect,0.050000X0.350000X0.050000X-0.350000X0.050000X-0.350000X-0.050000X0.350000X-0.050000X0*%
%ADD41RoundRect,0.050000X0.050000X0.350000X-0.050000X0.350000X-0.050000X-0.350000X0.050000X-0.350000X0*%
%ADD42R,3.400000X3.400000*%
%ADD43RoundRect,0.237500X0.250000X0.237500X-0.250000X0.237500X-0.250000X-0.237500X0.250000X-0.237500X0*%
%ADD44R,0.500000X0.800000*%
%ADD45R,0.400000X0.800000*%
%ADD46R,1.016000X1.803400*%
%ADD47R,0.385000X0.690000*%
%ADD48R,1.035000X0.690000*%
%ADD49R,2.300000X1.500000*%
%ADD50RoundRect,0.250001X0.899999X-0.499999X0.899999X0.499999X-0.899999X0.499999X-0.899999X-0.499999X0*%
%ADD51O,2.300000X1.500000*%
%ADD52RoundRect,0.097900X-0.135400X-0.097900X0.135400X-0.097900X0.135400X0.097900X-0.135400X0.097900X0*%
%ADD53RoundRect,0.097900X-0.097900X-0.135400X0.097900X-0.135400X0.097900X0.135400X-0.097900X0.135400X0*%
%ADD54RoundRect,0.237500X-0.044194X-0.380070X0.380070X0.044194X0.044194X0.380070X-0.380070X-0.044194X0*%
%ADD55R,0.787400X0.254000*%
%ADD56R,0.254000X0.787400*%
%ADD57R,1.350000X2.800000*%
%ADD58R,1.500000X2.800000*%
%ADD59R,6.000000X6.500000*%
%ADD60RoundRect,0.020800X-0.187500X-0.175000X0.187500X-0.175000X0.187500X0.175000X-0.187500X0.175000X0*%
%ADD61RoundRect,0.020800X0.175000X-0.187500X0.175000X0.187500X-0.175000X0.187500X-0.175000X-0.187500X0*%
%ADD62RoundRect,0.250000X-0.375000X-0.850000X0.375000X-0.850000X0.375000X0.850000X-0.375000X0.850000X0*%
%ADD63R,0.350000X0.500000*%
%ADD64R,0.950000X1.000000*%
%ADD65R,0.300000X0.850000*%
%ADD66RoundRect,0.237500X0.044194X0.380070X-0.380070X-0.044194X-0.044194X-0.380070X0.380070X0.044194X0*%
%ADD67R,2.000000X2.000000*%
%ADD68O,2.400000X0.900000*%
%ADD69O,1.700000X0.900000*%
%ADD70C,0.650000*%
%ADD71C,1.752600*%
G04 APERTURE END LIST*
D10*
X75336779Y-35869819D02*
X75336779Y-34869819D01*
X75336779Y-34869819D02*
X75908207Y-35869819D01*
X75908207Y-35869819D02*
X75908207Y-34869819D01*
X76765350Y-35822200D02*
X76670112Y-35869819D01*
X76670112Y-35869819D02*
X76479636Y-35869819D01*
X76479636Y-35869819D02*
X76384398Y-35822200D01*
X76384398Y-35822200D02*
X76336779Y-35726961D01*
X76336779Y-35726961D02*
X76336779Y-35346009D01*
X76336779Y-35346009D02*
X76384398Y-35250771D01*
X76384398Y-35250771D02*
X76479636Y-35203152D01*
X76479636Y-35203152D02*
X76670112Y-35203152D01*
X76670112Y-35203152D02*
X76765350Y-35250771D01*
X76765350Y-35250771D02*
X76812969Y-35346009D01*
X76812969Y-35346009D02*
X76812969Y-35441247D01*
X76812969Y-35441247D02*
X76336779Y-35536485D01*
X77384398Y-35869819D02*
X77289160Y-35822200D01*
X77289160Y-35822200D02*
X77241541Y-35774580D01*
X77241541Y-35774580D02*
X77193922Y-35679342D01*
X77193922Y-35679342D02*
X77193922Y-35393628D01*
X77193922Y-35393628D02*
X77241541Y-35298390D01*
X77241541Y-35298390D02*
X77289160Y-35250771D01*
X77289160Y-35250771D02*
X77384398Y-35203152D01*
X77384398Y-35203152D02*
X77527255Y-35203152D01*
X77527255Y-35203152D02*
X77622493Y-35250771D01*
X77622493Y-35250771D02*
X77670112Y-35298390D01*
X77670112Y-35298390D02*
X77717731Y-35393628D01*
X77717731Y-35393628D02*
X77717731Y-35679342D01*
X77717731Y-35679342D02*
X77670112Y-35774580D01*
X77670112Y-35774580D02*
X77622493Y-35822200D01*
X77622493Y-35822200D02*
X77527255Y-35869819D01*
X77527255Y-35869819D02*
X77384398Y-35869819D01*
X78146303Y-35203152D02*
X78146303Y-35869819D01*
X78146303Y-35298390D02*
X78193922Y-35250771D01*
X78193922Y-35250771D02*
X78289160Y-35203152D01*
X78289160Y-35203152D02*
X78432017Y-35203152D01*
X78432017Y-35203152D02*
X78527255Y-35250771D01*
X78527255Y-35250771D02*
X78574874Y-35346009D01*
X78574874Y-35346009D02*
X78574874Y-35869819D01*
X75789160Y-76884104D02*
X76265350Y-76884104D01*
X75693922Y-77169819D02*
X76027255Y-76169819D01*
X76027255Y-76169819D02*
X76360588Y-77169819D01*
X76693922Y-77169819D02*
X76693922Y-76503152D01*
X76693922Y-76693628D02*
X76741541Y-76598390D01*
X76741541Y-76598390D02*
X76789160Y-76550771D01*
X76789160Y-76550771D02*
X76884398Y-76503152D01*
X76884398Y-76503152D02*
X76979636Y-76503152D01*
X77170113Y-76503152D02*
X77551065Y-76503152D01*
X77312970Y-76169819D02*
X77312970Y-77026961D01*
X77312970Y-77026961D02*
X77360589Y-77122200D01*
X77360589Y-77122200D02*
X77455827Y-77169819D01*
X77455827Y-77169819D02*
X77551065Y-77169819D01*
X78312970Y-76503152D02*
X78312970Y-77169819D01*
X77884399Y-76503152D02*
X77884399Y-77026961D01*
X77884399Y-77026961D02*
X77932018Y-77122200D01*
X77932018Y-77122200D02*
X78027256Y-77169819D01*
X78027256Y-77169819D02*
X78170113Y-77169819D01*
X78170113Y-77169819D02*
X78265351Y-77122200D01*
X78265351Y-77122200D02*
X78312970Y-77074580D01*
X126611779Y-77819819D02*
X126611779Y-77153152D01*
X126611779Y-76819819D02*
X126564160Y-76867438D01*
X126564160Y-76867438D02*
X126611779Y-76915057D01*
X126611779Y-76915057D02*
X126659398Y-76867438D01*
X126659398Y-76867438D02*
X126611779Y-76819819D01*
X126611779Y-76819819D02*
X126611779Y-76915057D01*
X127516540Y-77819819D02*
X127516540Y-77296009D01*
X127516540Y-77296009D02*
X127468921Y-77200771D01*
X127468921Y-77200771D02*
X127373683Y-77153152D01*
X127373683Y-77153152D02*
X127183207Y-77153152D01*
X127183207Y-77153152D02*
X127087969Y-77200771D01*
X127516540Y-77772200D02*
X127421302Y-77819819D01*
X127421302Y-77819819D02*
X127183207Y-77819819D01*
X127183207Y-77819819D02*
X127087969Y-77772200D01*
X127087969Y-77772200D02*
X127040350Y-77676961D01*
X127040350Y-77676961D02*
X127040350Y-77581723D01*
X127040350Y-77581723D02*
X127087969Y-77486485D01*
X127087969Y-77486485D02*
X127183207Y-77438866D01*
X127183207Y-77438866D02*
X127421302Y-77438866D01*
X127421302Y-77438866D02*
X127516540Y-77391247D01*
X127849874Y-77153152D02*
X128230826Y-77153152D01*
X127992731Y-76819819D02*
X127992731Y-77676961D01*
X127992731Y-77676961D02*
X128040350Y-77772200D01*
X128040350Y-77772200D02*
X128135588Y-77819819D01*
X128135588Y-77819819D02*
X128230826Y-77819819D01*
X128945112Y-77772200D02*
X128849874Y-77819819D01*
X128849874Y-77819819D02*
X128659398Y-77819819D01*
X128659398Y-77819819D02*
X128564160Y-77772200D01*
X128564160Y-77772200D02*
X128516541Y-77676961D01*
X128516541Y-77676961D02*
X128516541Y-77296009D01*
X128516541Y-77296009D02*
X128564160Y-77200771D01*
X128564160Y-77200771D02*
X128659398Y-77153152D01*
X128659398Y-77153152D02*
X128849874Y-77153152D01*
X128849874Y-77153152D02*
X128945112Y-77200771D01*
X128945112Y-77200771D02*
X128992731Y-77296009D01*
X128992731Y-77296009D02*
X128992731Y-77391247D01*
X128992731Y-77391247D02*
X128516541Y-77486485D01*
X129373684Y-77772200D02*
X129468922Y-77819819D01*
X129468922Y-77819819D02*
X129659398Y-77819819D01*
X129659398Y-77819819D02*
X129754636Y-77772200D01*
X129754636Y-77772200D02*
X129802255Y-77676961D01*
X129802255Y-77676961D02*
X129802255Y-77629342D01*
X129802255Y-77629342D02*
X129754636Y-77534104D01*
X129754636Y-77534104D02*
X129659398Y-77486485D01*
X129659398Y-77486485D02*
X129516541Y-77486485D01*
X129516541Y-77486485D02*
X129421303Y-77438866D01*
X129421303Y-77438866D02*
X129373684Y-77343628D01*
X129373684Y-77343628D02*
X129373684Y-77296009D01*
X129373684Y-77296009D02*
X129421303Y-77200771D01*
X129421303Y-77200771D02*
X129516541Y-77153152D01*
X129516541Y-77153152D02*
X129659398Y-77153152D01*
X129659398Y-77153152D02*
X129754636Y-77200771D01*
X130230827Y-77153152D02*
X130230827Y-78153152D01*
X130230827Y-77200771D02*
X130326065Y-77153152D01*
X130326065Y-77153152D02*
X130516541Y-77153152D01*
X130516541Y-77153152D02*
X130611779Y-77200771D01*
X130611779Y-77200771D02*
X130659398Y-77248390D01*
X130659398Y-77248390D02*
X130707017Y-77343628D01*
X130707017Y-77343628D02*
X130707017Y-77629342D01*
X130707017Y-77629342D02*
X130659398Y-77724580D01*
X130659398Y-77724580D02*
X130611779Y-77772200D01*
X130611779Y-77772200D02*
X130516541Y-77819819D01*
X130516541Y-77819819D02*
X130326065Y-77819819D01*
X130326065Y-77819819D02*
X130230827Y-77772200D01*
X131564160Y-77819819D02*
X131564160Y-77296009D01*
X131564160Y-77296009D02*
X131516541Y-77200771D01*
X131516541Y-77200771D02*
X131421303Y-77153152D01*
X131421303Y-77153152D02*
X131230827Y-77153152D01*
X131230827Y-77153152D02*
X131135589Y-77200771D01*
X131564160Y-77772200D02*
X131468922Y-77819819D01*
X131468922Y-77819819D02*
X131230827Y-77819819D01*
X131230827Y-77819819D02*
X131135589Y-77772200D01*
X131135589Y-77772200D02*
X131087970Y-77676961D01*
X131087970Y-77676961D02*
X131087970Y-77581723D01*
X131087970Y-77581723D02*
X131135589Y-77486485D01*
X131135589Y-77486485D02*
X131230827Y-77438866D01*
X131230827Y-77438866D02*
X131468922Y-77438866D01*
X131468922Y-77438866D02*
X131564160Y-77391247D01*
X132468922Y-77153152D02*
X132468922Y-77962676D01*
X132468922Y-77962676D02*
X132421303Y-78057914D01*
X132421303Y-78057914D02*
X132373684Y-78105533D01*
X132373684Y-78105533D02*
X132278446Y-78153152D01*
X132278446Y-78153152D02*
X132135589Y-78153152D01*
X132135589Y-78153152D02*
X132040351Y-78105533D01*
X132468922Y-77772200D02*
X132373684Y-77819819D01*
X132373684Y-77819819D02*
X132183208Y-77819819D01*
X132183208Y-77819819D02*
X132087970Y-77772200D01*
X132087970Y-77772200D02*
X132040351Y-77724580D01*
X132040351Y-77724580D02*
X131992732Y-77629342D01*
X131992732Y-77629342D02*
X131992732Y-77343628D01*
X131992732Y-77343628D02*
X132040351Y-77248390D01*
X132040351Y-77248390D02*
X132087970Y-77200771D01*
X132087970Y-77200771D02*
X132183208Y-77153152D01*
X132183208Y-77153152D02*
X132373684Y-77153152D01*
X132373684Y-77153152D02*
X132468922Y-77200771D01*
X132945113Y-77819819D02*
X132945113Y-76819819D01*
X133373684Y-77819819D02*
X133373684Y-77296009D01*
X133373684Y-77296009D02*
X133326065Y-77200771D01*
X133326065Y-77200771D02*
X133230827Y-77153152D01*
X133230827Y-77153152D02*
X133087970Y-77153152D01*
X133087970Y-77153152D02*
X132992732Y-77200771D01*
X132992732Y-77200771D02*
X132945113Y-77248390D01*
X134230827Y-77772200D02*
X134135589Y-77819819D01*
X134135589Y-77819819D02*
X133945113Y-77819819D01*
X133945113Y-77819819D02*
X133849875Y-77772200D01*
X133849875Y-77772200D02*
X133802256Y-77676961D01*
X133802256Y-77676961D02*
X133802256Y-77296009D01*
X133802256Y-77296009D02*
X133849875Y-77200771D01*
X133849875Y-77200771D02*
X133945113Y-77153152D01*
X133945113Y-77153152D02*
X134135589Y-77153152D01*
X134135589Y-77153152D02*
X134230827Y-77200771D01*
X134230827Y-77200771D02*
X134278446Y-77296009D01*
X134278446Y-77296009D02*
X134278446Y-77391247D01*
X134278446Y-77391247D02*
X133802256Y-77486485D01*
X134564161Y-77153152D02*
X134945113Y-77153152D01*
X134707018Y-76819819D02*
X134707018Y-77676961D01*
X134707018Y-77676961D02*
X134754637Y-77772200D01*
X134754637Y-77772200D02*
X134849875Y-77819819D01*
X134849875Y-77819819D02*
X134945113Y-77819819D01*
X135135590Y-77153152D02*
X135516542Y-77153152D01*
X135278447Y-76819819D02*
X135278447Y-77676961D01*
X135278447Y-77676961D02*
X135326066Y-77772200D01*
X135326066Y-77772200D02*
X135421304Y-77819819D01*
X135421304Y-77819819D02*
X135516542Y-77819819D01*
X135849876Y-77819819D02*
X135849876Y-77153152D01*
X135849876Y-76819819D02*
X135802257Y-76867438D01*
X135802257Y-76867438D02*
X135849876Y-76915057D01*
X135849876Y-76915057D02*
X135897495Y-76867438D01*
X135897495Y-76867438D02*
X135849876Y-76819819D01*
X135849876Y-76819819D02*
X135849876Y-76915057D01*
X136183209Y-77153152D02*
X136564161Y-77153152D01*
X136326066Y-77819819D02*
X136326066Y-76962676D01*
X136326066Y-76962676D02*
X136373685Y-76867438D01*
X136373685Y-76867438D02*
X136468923Y-76819819D01*
X136468923Y-76819819D02*
X136564161Y-76819819D01*
X137040352Y-77819819D02*
X136945114Y-77772200D01*
X136945114Y-77772200D02*
X136897495Y-77724580D01*
X136897495Y-77724580D02*
X136849876Y-77629342D01*
X136849876Y-77629342D02*
X136849876Y-77343628D01*
X136849876Y-77343628D02*
X136897495Y-77248390D01*
X136897495Y-77248390D02*
X136945114Y-77200771D01*
X136945114Y-77200771D02*
X137040352Y-77153152D01*
X137040352Y-77153152D02*
X137183209Y-77153152D01*
X137183209Y-77153152D02*
X137278447Y-77200771D01*
X137278447Y-77200771D02*
X137326066Y-77248390D01*
X137326066Y-77248390D02*
X137373685Y-77343628D01*
X137373685Y-77343628D02*
X137373685Y-77629342D01*
X137373685Y-77629342D02*
X137326066Y-77724580D01*
X137326066Y-77724580D02*
X137278447Y-77772200D01*
X137278447Y-77772200D02*
X137183209Y-77819819D01*
X137183209Y-77819819D02*
X137040352Y-77819819D01*
X137802257Y-77819819D02*
X137802257Y-77153152D01*
X137802257Y-77343628D02*
X137849876Y-77248390D01*
X137849876Y-77248390D02*
X137897495Y-77200771D01*
X137897495Y-77200771D02*
X137992733Y-77153152D01*
X137992733Y-77153152D02*
X138087971Y-77153152D01*
X138564162Y-77819819D02*
X138468924Y-77772200D01*
X138468924Y-77772200D02*
X138421305Y-77676961D01*
X138421305Y-77676961D02*
X138421305Y-76819819D01*
X139373686Y-77153152D02*
X139373686Y-77819819D01*
X138945115Y-77153152D02*
X138945115Y-77676961D01*
X138945115Y-77676961D02*
X138992734Y-77772200D01*
X138992734Y-77772200D02*
X139087972Y-77819819D01*
X139087972Y-77819819D02*
X139230829Y-77819819D01*
X139230829Y-77819819D02*
X139326067Y-77772200D01*
X139326067Y-77772200D02*
X139373686Y-77724580D01*
X139849877Y-77153152D02*
X139849877Y-77819819D01*
X139849877Y-77248390D02*
X139897496Y-77200771D01*
X139897496Y-77200771D02*
X139992734Y-77153152D01*
X139992734Y-77153152D02*
X140135591Y-77153152D01*
X140135591Y-77153152D02*
X140230829Y-77200771D01*
X140230829Y-77200771D02*
X140278448Y-77296009D01*
X140278448Y-77296009D02*
X140278448Y-77819819D01*
X141183210Y-77772200D02*
X141087972Y-77819819D01*
X141087972Y-77819819D02*
X140897496Y-77819819D01*
X140897496Y-77819819D02*
X140802258Y-77772200D01*
X140802258Y-77772200D02*
X140754639Y-77724580D01*
X140754639Y-77724580D02*
X140707020Y-77629342D01*
X140707020Y-77629342D02*
X140707020Y-77343628D01*
X140707020Y-77343628D02*
X140754639Y-77248390D01*
X140754639Y-77248390D02*
X140802258Y-77200771D01*
X140802258Y-77200771D02*
X140897496Y-77153152D01*
X140897496Y-77153152D02*
X141087972Y-77153152D01*
X141087972Y-77153152D02*
X141183210Y-77200771D01*
X141611782Y-77819819D02*
X141611782Y-76819819D01*
X142040353Y-77819819D02*
X142040353Y-77296009D01*
X142040353Y-77296009D02*
X141992734Y-77200771D01*
X141992734Y-77200771D02*
X141897496Y-77153152D01*
X141897496Y-77153152D02*
X141754639Y-77153152D01*
X141754639Y-77153152D02*
X141659401Y-77200771D01*
X141659401Y-77200771D02*
X141611782Y-77248390D01*
X136967731Y-35322200D02*
X136872493Y-35369819D01*
X136872493Y-35369819D02*
X136682017Y-35369819D01*
X136682017Y-35369819D02*
X136586779Y-35322200D01*
X136586779Y-35322200D02*
X136539160Y-35226961D01*
X136539160Y-35226961D02*
X136539160Y-34846009D01*
X136539160Y-34846009D02*
X136586779Y-34750771D01*
X136586779Y-34750771D02*
X136682017Y-34703152D01*
X136682017Y-34703152D02*
X136872493Y-34703152D01*
X136872493Y-34703152D02*
X136967731Y-34750771D01*
X136967731Y-34750771D02*
X137015350Y-34846009D01*
X137015350Y-34846009D02*
X137015350Y-34941247D01*
X137015350Y-34941247D02*
X136539160Y-35036485D01*
X137586779Y-35369819D02*
X137491541Y-35322200D01*
X137491541Y-35322200D02*
X137443922Y-35226961D01*
X137443922Y-35226961D02*
X137443922Y-34369819D01*
X138348684Y-35322200D02*
X138253446Y-35369819D01*
X138253446Y-35369819D02*
X138062970Y-35369819D01*
X138062970Y-35369819D02*
X137967732Y-35322200D01*
X137967732Y-35322200D02*
X137920113Y-35226961D01*
X137920113Y-35226961D02*
X137920113Y-34846009D01*
X137920113Y-34846009D02*
X137967732Y-34750771D01*
X137967732Y-34750771D02*
X138062970Y-34703152D01*
X138062970Y-34703152D02*
X138253446Y-34703152D01*
X138253446Y-34703152D02*
X138348684Y-34750771D01*
X138348684Y-34750771D02*
X138396303Y-34846009D01*
X138396303Y-34846009D02*
X138396303Y-34941247D01*
X138396303Y-34941247D02*
X137920113Y-35036485D01*
X138824875Y-35369819D02*
X138824875Y-34369819D01*
X138920113Y-34988866D02*
X139205827Y-35369819D01*
X139205827Y-34703152D02*
X138824875Y-35084104D01*
X139491542Y-34703152D02*
X139872494Y-34703152D01*
X139634399Y-34369819D02*
X139634399Y-35226961D01*
X139634399Y-35226961D02*
X139682018Y-35322200D01*
X139682018Y-35322200D02*
X139777256Y-35369819D01*
X139777256Y-35369819D02*
X139872494Y-35369819D01*
X140205828Y-35369819D02*
X140205828Y-34703152D01*
X140205828Y-34893628D02*
X140253447Y-34798390D01*
X140253447Y-34798390D02*
X140301066Y-34750771D01*
X140301066Y-34750771D02*
X140396304Y-34703152D01*
X140396304Y-34703152D02*
X140491542Y-34703152D01*
X140967733Y-35369819D02*
X140872495Y-35322200D01*
X140872495Y-35322200D02*
X140824876Y-35274580D01*
X140824876Y-35274580D02*
X140777257Y-35179342D01*
X140777257Y-35179342D02*
X140777257Y-34893628D01*
X140777257Y-34893628D02*
X140824876Y-34798390D01*
X140824876Y-34798390D02*
X140872495Y-34750771D01*
X140872495Y-34750771D02*
X140967733Y-34703152D01*
X140967733Y-34703152D02*
X141110590Y-34703152D01*
X141110590Y-34703152D02*
X141205828Y-34750771D01*
X141205828Y-34750771D02*
X141253447Y-34798390D01*
X141253447Y-34798390D02*
X141301066Y-34893628D01*
X141301066Y-34893628D02*
X141301066Y-35179342D01*
X141301066Y-35179342D02*
X141253447Y-35274580D01*
X141253447Y-35274580D02*
X141205828Y-35322200D01*
X141205828Y-35322200D02*
X141110590Y-35369819D01*
X141110590Y-35369819D02*
X140967733Y-35369819D01*
X141729638Y-34703152D02*
X141729638Y-35369819D01*
X141729638Y-34798390D02*
X141777257Y-34750771D01*
X141777257Y-34750771D02*
X141872495Y-34703152D01*
X141872495Y-34703152D02*
X142015352Y-34703152D01*
X142015352Y-34703152D02*
X142110590Y-34750771D01*
X142110590Y-34750771D02*
X142158209Y-34846009D01*
X142158209Y-34846009D02*
X142158209Y-35369819D01*
X139636779Y-39669819D02*
X139636779Y-39003152D01*
X139636779Y-39193628D02*
X139684398Y-39098390D01*
X139684398Y-39098390D02*
X139732017Y-39050771D01*
X139732017Y-39050771D02*
X139827255Y-39003152D01*
X139827255Y-39003152D02*
X139922493Y-39003152D01*
X140398684Y-39669819D02*
X140303446Y-39622200D01*
X140303446Y-39622200D02*
X140255827Y-39574580D01*
X140255827Y-39574580D02*
X140208208Y-39479342D01*
X140208208Y-39479342D02*
X140208208Y-39193628D01*
X140208208Y-39193628D02*
X140255827Y-39098390D01*
X140255827Y-39098390D02*
X140303446Y-39050771D01*
X140303446Y-39050771D02*
X140398684Y-39003152D01*
X140398684Y-39003152D02*
X140541541Y-39003152D01*
X140541541Y-39003152D02*
X140636779Y-39050771D01*
X140636779Y-39050771D02*
X140684398Y-39098390D01*
X140684398Y-39098390D02*
X140732017Y-39193628D01*
X140732017Y-39193628D02*
X140732017Y-39479342D01*
X140732017Y-39479342D02*
X140684398Y-39574580D01*
X140684398Y-39574580D02*
X140636779Y-39622200D01*
X140636779Y-39622200D02*
X140541541Y-39669819D01*
X140541541Y-39669819D02*
X140398684Y-39669819D01*
X141017732Y-39003152D02*
X141398684Y-39003152D01*
X141160589Y-38669819D02*
X141160589Y-39526961D01*
X141160589Y-39526961D02*
X141208208Y-39622200D01*
X141208208Y-39622200D02*
X141303446Y-39669819D01*
X141303446Y-39669819D02*
X141398684Y-39669819D01*
X142112970Y-39622200D02*
X142017732Y-39669819D01*
X142017732Y-39669819D02*
X141827256Y-39669819D01*
X141827256Y-39669819D02*
X141732018Y-39622200D01*
X141732018Y-39622200D02*
X141684399Y-39526961D01*
X141684399Y-39526961D02*
X141684399Y-39146009D01*
X141684399Y-39146009D02*
X141732018Y-39050771D01*
X141732018Y-39050771D02*
X141827256Y-39003152D01*
X141827256Y-39003152D02*
X142017732Y-39003152D01*
X142017732Y-39003152D02*
X142112970Y-39050771D01*
X142112970Y-39050771D02*
X142160589Y-39146009D01*
X142160589Y-39146009D02*
X142160589Y-39241247D01*
X142160589Y-39241247D02*
X141684399Y-39336485D01*
X142732018Y-39669819D02*
X142636780Y-39622200D01*
X142636780Y-39622200D02*
X142589161Y-39526961D01*
X142589161Y-39526961D02*
X142589161Y-38669819D01*
X143255828Y-39669819D02*
X143160590Y-39622200D01*
X143160590Y-39622200D02*
X143112971Y-39526961D01*
X143112971Y-39526961D02*
X143112971Y-38669819D01*
X143636781Y-39669819D02*
X143636781Y-39003152D01*
X143636781Y-38669819D02*
X143589162Y-38717438D01*
X143589162Y-38717438D02*
X143636781Y-38765057D01*
X143636781Y-38765057D02*
X143684400Y-38717438D01*
X143684400Y-38717438D02*
X143636781Y-38669819D01*
X143636781Y-38669819D02*
X143636781Y-38765057D01*
X144112971Y-39003152D02*
X144112971Y-39669819D01*
X144112971Y-39098390D02*
X144160590Y-39050771D01*
X144160590Y-39050771D02*
X144255828Y-39003152D01*
X144255828Y-39003152D02*
X144398685Y-39003152D01*
X144398685Y-39003152D02*
X144493923Y-39050771D01*
X144493923Y-39050771D02*
X144541542Y-39146009D01*
X144541542Y-39146009D02*
X144541542Y-39669819D01*
X145017733Y-39669819D02*
X145017733Y-39003152D01*
X145017733Y-38669819D02*
X144970114Y-38717438D01*
X144970114Y-38717438D02*
X145017733Y-38765057D01*
X145017733Y-38765057D02*
X145065352Y-38717438D01*
X145065352Y-38717438D02*
X145017733Y-38669819D01*
X145017733Y-38669819D02*
X145017733Y-38765057D01*
X145541542Y-39669819D02*
X145732018Y-39669819D01*
X145732018Y-39669819D02*
X145827256Y-39622200D01*
X145827256Y-39622200D02*
X145874875Y-39574580D01*
X145874875Y-39574580D02*
X145970113Y-39431723D01*
X145970113Y-39431723D02*
X146017732Y-39241247D01*
X146017732Y-39241247D02*
X146017732Y-38860295D01*
X146017732Y-38860295D02*
X145970113Y-38765057D01*
X145970113Y-38765057D02*
X145922494Y-38717438D01*
X145922494Y-38717438D02*
X145827256Y-38669819D01*
X145827256Y-38669819D02*
X145636780Y-38669819D01*
X145636780Y-38669819D02*
X145541542Y-38717438D01*
X145541542Y-38717438D02*
X145493923Y-38765057D01*
X145493923Y-38765057D02*
X145446304Y-38860295D01*
X145446304Y-38860295D02*
X145446304Y-39098390D01*
X145446304Y-39098390D02*
X145493923Y-39193628D01*
X145493923Y-39193628D02*
X145541542Y-39241247D01*
X145541542Y-39241247D02*
X145636780Y-39288866D01*
X145636780Y-39288866D02*
X145827256Y-39288866D01*
X145827256Y-39288866D02*
X145922494Y-39241247D01*
X145922494Y-39241247D02*
X145970113Y-39193628D01*
X145970113Y-39193628D02*
X146017732Y-39098390D01*
X146589161Y-39098390D02*
X146493923Y-39050771D01*
X146493923Y-39050771D02*
X146446304Y-39003152D01*
X146446304Y-39003152D02*
X146398685Y-38907914D01*
X146398685Y-38907914D02*
X146398685Y-38860295D01*
X146398685Y-38860295D02*
X146446304Y-38765057D01*
X146446304Y-38765057D02*
X146493923Y-38717438D01*
X146493923Y-38717438D02*
X146589161Y-38669819D01*
X146589161Y-38669819D02*
X146779637Y-38669819D01*
X146779637Y-38669819D02*
X146874875Y-38717438D01*
X146874875Y-38717438D02*
X146922494Y-38765057D01*
X146922494Y-38765057D02*
X146970113Y-38860295D01*
X146970113Y-38860295D02*
X146970113Y-38907914D01*
X146970113Y-38907914D02*
X146922494Y-39003152D01*
X146922494Y-39003152D02*
X146874875Y-39050771D01*
X146874875Y-39050771D02*
X146779637Y-39098390D01*
X146779637Y-39098390D02*
X146589161Y-39098390D01*
X146589161Y-39098390D02*
X146493923Y-39146009D01*
X146493923Y-39146009D02*
X146446304Y-39193628D01*
X146446304Y-39193628D02*
X146398685Y-39288866D01*
X146398685Y-39288866D02*
X146398685Y-39479342D01*
X146398685Y-39479342D02*
X146446304Y-39574580D01*
X146446304Y-39574580D02*
X146493923Y-39622200D01*
X146493923Y-39622200D02*
X146589161Y-39669819D01*
X146589161Y-39669819D02*
X146779637Y-39669819D01*
X146779637Y-39669819D02*
X146874875Y-39622200D01*
X146874875Y-39622200D02*
X146922494Y-39574580D01*
X146922494Y-39574580D02*
X146970113Y-39479342D01*
X146970113Y-39479342D02*
X146970113Y-39288866D01*
X146970113Y-39288866D02*
X146922494Y-39193628D01*
X146922494Y-39193628D02*
X146874875Y-39146009D01*
X146874875Y-39146009D02*
X146779637Y-39098390D01*
X147589161Y-38669819D02*
X147684399Y-38669819D01*
X147684399Y-38669819D02*
X147779637Y-38717438D01*
X147779637Y-38717438D02*
X147827256Y-38765057D01*
X147827256Y-38765057D02*
X147874875Y-38860295D01*
X147874875Y-38860295D02*
X147922494Y-39050771D01*
X147922494Y-39050771D02*
X147922494Y-39288866D01*
X147922494Y-39288866D02*
X147874875Y-39479342D01*
X147874875Y-39479342D02*
X147827256Y-39574580D01*
X147827256Y-39574580D02*
X147779637Y-39622200D01*
X147779637Y-39622200D02*
X147684399Y-39669819D01*
X147684399Y-39669819D02*
X147589161Y-39669819D01*
X147589161Y-39669819D02*
X147493923Y-39622200D01*
X147493923Y-39622200D02*
X147446304Y-39574580D01*
X147446304Y-39574580D02*
X147398685Y-39479342D01*
X147398685Y-39479342D02*
X147351066Y-39288866D01*
X147351066Y-39288866D02*
X147351066Y-39050771D01*
X147351066Y-39050771D02*
X147398685Y-38860295D01*
X147398685Y-38860295D02*
X147446304Y-38765057D01*
X147446304Y-38765057D02*
X147493923Y-38717438D01*
X147493923Y-38717438D02*
X147589161Y-38669819D01*
X148398685Y-39669819D02*
X148589161Y-39669819D01*
X148589161Y-39669819D02*
X148684399Y-39622200D01*
X148684399Y-39622200D02*
X148732018Y-39574580D01*
X148732018Y-39574580D02*
X148827256Y-39431723D01*
X148827256Y-39431723D02*
X148874875Y-39241247D01*
X148874875Y-39241247D02*
X148874875Y-38860295D01*
X148874875Y-38860295D02*
X148827256Y-38765057D01*
X148827256Y-38765057D02*
X148779637Y-38717438D01*
X148779637Y-38717438D02*
X148684399Y-38669819D01*
X148684399Y-38669819D02*
X148493923Y-38669819D01*
X148493923Y-38669819D02*
X148398685Y-38717438D01*
X148398685Y-38717438D02*
X148351066Y-38765057D01*
X148351066Y-38765057D02*
X148303447Y-38860295D01*
X148303447Y-38860295D02*
X148303447Y-39098390D01*
X148303447Y-39098390D02*
X148351066Y-39193628D01*
X148351066Y-39193628D02*
X148398685Y-39241247D01*
X148398685Y-39241247D02*
X148493923Y-39288866D01*
X148493923Y-39288866D02*
X148684399Y-39288866D01*
X148684399Y-39288866D02*
X148779637Y-39241247D01*
X148779637Y-39241247D02*
X148827256Y-39193628D01*
X148827256Y-39193628D02*
X148874875Y-39098390D01*
D11*
X116888720Y-77506028D02*
X116888720Y-76006028D01*
X116888720Y-76006028D02*
X117245863Y-76006028D01*
X117245863Y-76006028D02*
X117460149Y-76077457D01*
X117460149Y-76077457D02*
X117603006Y-76220314D01*
X117603006Y-76220314D02*
X117674435Y-76363171D01*
X117674435Y-76363171D02*
X117745863Y-76648885D01*
X117745863Y-76648885D02*
X117745863Y-76863171D01*
X117745863Y-76863171D02*
X117674435Y-77148885D01*
X117674435Y-77148885D02*
X117603006Y-77291742D01*
X117603006Y-77291742D02*
X117460149Y-77434600D01*
X117460149Y-77434600D02*
X117245863Y-77506028D01*
X117245863Y-77506028D02*
X116888720Y-77506028D01*
X118317292Y-77077457D02*
X119031578Y-77077457D01*
X118174435Y-77506028D02*
X118674435Y-76006028D01*
X118674435Y-76006028D02*
X119174435Y-77506028D01*
X120103006Y-76006028D02*
X120103006Y-77077457D01*
X120103006Y-77077457D02*
X120031577Y-77291742D01*
X120031577Y-77291742D02*
X119888720Y-77434600D01*
X119888720Y-77434600D02*
X119674434Y-77506028D01*
X119674434Y-77506028D02*
X119531577Y-77506028D01*
X120817291Y-76720314D02*
X121317291Y-76720314D01*
X121531577Y-77506028D02*
X120817291Y-77506028D01*
X120817291Y-77506028D02*
X120817291Y-76006028D01*
X120817291Y-76006028D02*
X121531577Y-76006028D01*
D12*
%TO.C,IC1*%
X145250000Y-45349000D03*
X144750000Y-45349000D03*
X144250000Y-45349000D03*
X143750000Y-45349000D03*
D13*
X143100000Y-45775000D03*
X143100000Y-46275000D03*
X143100000Y-46775000D03*
D14*
X143275000Y-47025000D03*
D13*
X143100000Y-47275000D03*
D15*
X144000000Y-47275000D03*
D16*
X144500000Y-47100000D03*
D15*
X145000000Y-47275000D03*
D13*
X145900000Y-47275000D03*
X145900000Y-46775000D03*
D14*
X145725000Y-47025000D03*
D13*
X145900000Y-46275000D03*
X145900000Y-45775000D03*
%TD*%
D17*
%TO.C,R8*%
X131500000Y-50587500D03*
X131500000Y-52412500D03*
%TD*%
D18*
%TO.C,RN8*%
X125400000Y-72800000D03*
D19*
X125400000Y-72000000D03*
X125400000Y-71200000D03*
D18*
X125400000Y-70400000D03*
X123600000Y-70400000D03*
D19*
X123600000Y-71200000D03*
X123600000Y-72000000D03*
D18*
X123600000Y-72800000D03*
%TD*%
D20*
%TO.C,H1*%
X138000000Y-38000000D03*
%TD*%
D21*
%TO.C,U2*%
X103187500Y-76705000D03*
X103187500Y-75435000D03*
X103187500Y-74165000D03*
X103187500Y-72895000D03*
X96012500Y-72895000D03*
X96012500Y-74165000D03*
X96012500Y-75435000D03*
X96012500Y-76705000D03*
%TD*%
D22*
%TO.C,U4*%
X109627139Y-37333522D03*
X109273585Y-36979968D03*
X108920032Y-36626415D03*
X108566478Y-36272861D03*
D23*
X107636349Y-36629244D03*
X107282797Y-36982797D03*
X106929244Y-37336349D03*
D22*
X106572861Y-38266478D03*
X106926415Y-38620032D03*
X107279968Y-38973585D03*
X107633522Y-39327139D03*
D23*
X108563651Y-38970756D03*
X108917203Y-38617203D03*
X109270756Y-38263651D03*
%TD*%
D20*
%TO.C,H4*%
X138000000Y-74000000D03*
%TD*%
D24*
%TO.C,Q3*%
X92062500Y-66650000D03*
X92062500Y-68550000D03*
X93937500Y-67600000D03*
%TD*%
D25*
%TO.C,Y1*%
X105050000Y-45475000D03*
X107350000Y-45475000D03*
X107350000Y-43725000D03*
X105050000Y-43725000D03*
%TD*%
D17*
%TO.C,R10*%
X87500000Y-65087500D03*
X87500000Y-66912500D03*
%TD*%
D26*
%TO.C,J9*%
X152920000Y-45960000D03*
X155460000Y-45960000D03*
X152920000Y-48500000D03*
X155460000Y-48500000D03*
D27*
X152920000Y-51040000D03*
X155460000Y-51040000D03*
%TD*%
D28*
%TO.C,C27*%
X121662499Y-34744300D03*
X123387499Y-34744300D03*
%TD*%
D17*
%TO.C,R45*%
X81175000Y-49975000D03*
X81175000Y-51800000D03*
%TD*%
D28*
%TO.C,C38*%
X113625000Y-35775000D03*
X115350000Y-35775000D03*
%TD*%
D29*
%TO.C,C35*%
X101037500Y-36487500D03*
X101037500Y-38212500D03*
%TD*%
D30*
%TO.C,C16*%
X109800000Y-45400000D03*
X109800000Y-43675000D03*
%TD*%
D31*
%TO.C,R9*%
X125775000Y-64100000D03*
X127600000Y-64100000D03*
%TD*%
D18*
%TO.C,RN10*%
X78152500Y-59000000D03*
D19*
X78152500Y-58200000D03*
X78152500Y-57400000D03*
D18*
X78152500Y-56600000D03*
X76352500Y-56600000D03*
D19*
X76352500Y-57400000D03*
X76352500Y-58200000D03*
D18*
X76352500Y-59000000D03*
%TD*%
D32*
%TO.C,C2*%
X103662500Y-64787500D03*
X101937500Y-64787500D03*
%TD*%
D33*
%TO.C,R19*%
X135900000Y-60112500D03*
X135900000Y-58287500D03*
%TD*%
D34*
%TO.C,Q5*%
X137795000Y-59611500D03*
X139695000Y-59611500D03*
X138745000Y-57736500D03*
%TD*%
D18*
%TO.C,RN6*%
X114600000Y-73000000D03*
D19*
X114600000Y-72200000D03*
X114600000Y-71400000D03*
D18*
X114600000Y-70600000D03*
X112800000Y-70600000D03*
D19*
X112800000Y-71400000D03*
X112800000Y-72200000D03*
D18*
X112800000Y-73000000D03*
%TD*%
D31*
%TO.C,R15*%
X145391500Y-62992000D03*
X147216500Y-62992000D03*
%TD*%
D35*
%TO.C,Q11*%
X147558000Y-67218000D03*
X147558000Y-66568000D03*
X147558000Y-65918000D03*
X145558000Y-65918000D03*
X145558000Y-66568000D03*
X145558000Y-67218000D03*
D36*
X146578000Y-66858000D03*
D37*
X146558000Y-65878000D03*
%TD*%
D28*
%TO.C,C3*%
X96937500Y-63700000D03*
X98662500Y-63700000D03*
%TD*%
D33*
%TO.C,R32*%
X142240000Y-56411500D03*
X142240000Y-54586500D03*
%TD*%
D32*
%TO.C,C1*%
X103650000Y-66300000D03*
X101925000Y-66300000D03*
%TD*%
D38*
%TO.C,U7*%
X134025000Y-51095000D03*
X134025000Y-52365000D03*
X134025000Y-53635000D03*
X134025000Y-54905000D03*
X138975000Y-54905000D03*
X138975000Y-53635000D03*
X138975000Y-52365000D03*
X138975000Y-51095000D03*
%TD*%
D39*
%TO.C,Q4*%
X129560000Y-54050000D03*
X129560000Y-55950000D03*
X132040000Y-55000000D03*
%TD*%
D31*
%TO.C,R30*%
X138279500Y-66167000D03*
X140104500Y-66167000D03*
%TD*%
D35*
%TO.C,Q10*%
X147542000Y-76708000D03*
X147542000Y-76058000D03*
X147542000Y-75408000D03*
X145542000Y-75408000D03*
X145542000Y-76058000D03*
X145542000Y-76708000D03*
D36*
X146562000Y-76348000D03*
D37*
X146542000Y-75368000D03*
%TD*%
D33*
%TO.C,R40*%
X111600000Y-68812500D03*
X111600000Y-66987500D03*
%TD*%
D26*
%TO.C,J10*%
X158000000Y-45960000D03*
X160540000Y-45960000D03*
X158000000Y-48500000D03*
X160540000Y-48500000D03*
D27*
X158000000Y-51040000D03*
X160540000Y-51040000D03*
%TD*%
D17*
%TO.C,R14*%
X144145000Y-74652500D03*
X144145000Y-76477500D03*
%TD*%
%TO.C,R23*%
X148225000Y-42512500D03*
X148225000Y-44337500D03*
%TD*%
D33*
%TO.C,R11*%
X89000000Y-66912500D03*
X89000000Y-65087500D03*
%TD*%
D20*
%TO.C,H6*%
X84000000Y-38000000D03*
%TD*%
D17*
%TO.C,R6*%
X105225000Y-66850000D03*
X105225000Y-68675000D03*
%TD*%
D40*
%TO.C,U1*%
X110750000Y-61175000D03*
X110750000Y-60775000D03*
X110750000Y-60375000D03*
X110750000Y-59975000D03*
X110750000Y-59575000D03*
X110750000Y-59175000D03*
X110750000Y-58775000D03*
X110750000Y-58375000D03*
X110750000Y-57975000D03*
X110750000Y-57575000D03*
X110750000Y-57175000D03*
X110750000Y-56775000D03*
X110750000Y-56375000D03*
X110750000Y-55975000D03*
X110750000Y-55575000D03*
X110750000Y-55175000D03*
X110750000Y-54775000D03*
X110750000Y-54375000D03*
X110750000Y-53975000D03*
X110750000Y-53575000D03*
D41*
X109600000Y-52425000D03*
X109200000Y-52425000D03*
X108800000Y-52425000D03*
X108400000Y-52425000D03*
X108000000Y-52425000D03*
X107600000Y-52425000D03*
X107200000Y-52425000D03*
X106800000Y-52425000D03*
X106400000Y-52425000D03*
X106000000Y-52425000D03*
X105600000Y-52425000D03*
X105200000Y-52425000D03*
X104800000Y-52425000D03*
X104400000Y-52425000D03*
X104000000Y-52425000D03*
X103600000Y-52425000D03*
X103200000Y-52425000D03*
X102800000Y-52425000D03*
X102400000Y-52425000D03*
X102000000Y-52425000D03*
D40*
X100850000Y-53575000D03*
X100850000Y-53975000D03*
X100850000Y-54375000D03*
X100850000Y-54775000D03*
X100850000Y-55175000D03*
X100850000Y-55575000D03*
X100850000Y-55975000D03*
X100850000Y-56375000D03*
X100850000Y-56775000D03*
X100850000Y-57175000D03*
X100850000Y-57575000D03*
X100850000Y-57975000D03*
X100850000Y-58375000D03*
X100850000Y-58775000D03*
X100850000Y-59175000D03*
X100850000Y-59575000D03*
X100850000Y-59975000D03*
X100850000Y-60375000D03*
X100850000Y-60775000D03*
X100850000Y-61175000D03*
D41*
X102000000Y-62325000D03*
X102400000Y-62325000D03*
X102800000Y-62325000D03*
X103200000Y-62325000D03*
X103600000Y-62325000D03*
X104000000Y-62325000D03*
X104400000Y-62325000D03*
X104800000Y-62325000D03*
X105200000Y-62325000D03*
X105600000Y-62325000D03*
X106000000Y-62325000D03*
X106400000Y-62325000D03*
X106800000Y-62325000D03*
X107200000Y-62325000D03*
X107600000Y-62325000D03*
X108000000Y-62325000D03*
X108400000Y-62325000D03*
X108800000Y-62325000D03*
X109200000Y-62325000D03*
X109600000Y-62325000D03*
D42*
X105800000Y-57375000D03*
%TD*%
D20*
%TO.C,H3*%
X77000000Y-74000000D03*
%TD*%
D43*
%TO.C,R46*%
X75712500Y-47200000D03*
X73887500Y-47200000D03*
%TD*%
D29*
%TO.C,C32*%
X108100000Y-75637500D03*
X108100000Y-77362500D03*
%TD*%
D17*
%TO.C,R27*%
X146431000Y-68683500D03*
X146431000Y-70508500D03*
%TD*%
D44*
%TO.C,RN9*%
X118200000Y-67000000D03*
D45*
X117400000Y-67000000D03*
X116600000Y-67000000D03*
D44*
X115800000Y-67000000D03*
X115800000Y-68800000D03*
D45*
X116600000Y-68800000D03*
X117400000Y-68800000D03*
D44*
X118200000Y-68800000D03*
%TD*%
D46*
%TO.C,L1*%
X103650100Y-68300000D03*
X102049900Y-68300000D03*
%TD*%
D17*
%TO.C,R22*%
X138750000Y-42937500D03*
X138750000Y-44762500D03*
%TD*%
D31*
%TO.C,R26*%
X125787500Y-62500000D03*
X127612500Y-62500000D03*
%TD*%
D47*
%TO.C,D2*%
X149531500Y-48300000D03*
D48*
X150443500Y-48300000D03*
%TD*%
D49*
%TO.C,J11*%
X152800000Y-74500000D03*
D50*
X157800000Y-74500000D03*
D51*
X152800000Y-71000000D03*
X157800000Y-71000000D03*
X152800000Y-67500000D03*
X157800000Y-67500000D03*
X152800000Y-64000000D03*
X157800000Y-64000000D03*
X152800000Y-60500000D03*
X157800000Y-60500000D03*
X152800000Y-57000000D03*
X157800000Y-57000000D03*
%TD*%
D30*
%TO.C,C18*%
X137400000Y-48162500D03*
X137400000Y-46437500D03*
%TD*%
D52*
%TO.C,U11*%
X113637500Y-37550000D03*
X113637500Y-38050000D03*
D53*
X113900000Y-38562500D03*
X114400000Y-38562500D03*
X114900000Y-38562500D03*
D52*
X115162500Y-38050000D03*
X115162500Y-37550000D03*
D53*
X114900000Y-37037500D03*
X114400000Y-37037500D03*
X113900000Y-37037500D03*
%TD*%
D32*
%TO.C,C34*%
X97362500Y-35800000D03*
X95637500Y-35800000D03*
%TD*%
D17*
%TO.C,R3*%
X106625000Y-74837500D03*
X106625000Y-76662500D03*
%TD*%
D30*
%TO.C,C36*%
X99037500Y-38212500D03*
X99037500Y-36487500D03*
%TD*%
D31*
%TO.C,R31*%
X138406500Y-67818000D03*
X140231500Y-67818000D03*
%TD*%
D43*
%TO.C,R4*%
X105612500Y-47800000D03*
X103787500Y-47800000D03*
%TD*%
D54*
%TO.C,C30*%
X105790120Y-36009880D03*
X107009880Y-34790120D03*
%TD*%
D29*
%TO.C,C17*%
X102600000Y-43737500D03*
X102600000Y-45462500D03*
%TD*%
D44*
%TO.C,RN7*%
X122600000Y-67000000D03*
D45*
X121800000Y-67000000D03*
X121000000Y-67000000D03*
D44*
X120200000Y-67000000D03*
X120200000Y-68800000D03*
D45*
X121000000Y-68800000D03*
X121800000Y-68800000D03*
D44*
X122600000Y-68800000D03*
%TD*%
D47*
%TO.C,D1*%
X149550000Y-47200000D03*
D48*
X150462000Y-47200000D03*
%TD*%
D43*
%TO.C,R1*%
X98712500Y-65200000D03*
X96887500Y-65200000D03*
%TD*%
D55*
%TO.C,U5*%
X123909700Y-38150001D03*
X123909700Y-37650000D03*
X123909700Y-37150000D03*
X123909700Y-36649999D03*
D56*
X122999999Y-36244300D03*
X122500000Y-36244300D03*
X122000001Y-36244300D03*
D55*
X121090300Y-36649999D03*
X121090300Y-37150000D03*
X121090300Y-37650000D03*
X121090300Y-38150001D03*
D56*
X122000001Y-38555700D03*
X122500000Y-38555700D03*
X122999999Y-38555700D03*
%TD*%
D43*
%TO.C,R16*%
X147193000Y-64643000D03*
X145368000Y-64643000D03*
%TD*%
D34*
%TO.C,Q2*%
X143769000Y-56134000D03*
X145669000Y-56134000D03*
X144719000Y-54259000D03*
%TD*%
D29*
%TO.C,C21*%
X140500000Y-46437500D03*
X140500000Y-48162500D03*
%TD*%
D20*
%TO.C,H5*%
X131000000Y-74000000D03*
%TD*%
D24*
%TO.C,Q6*%
X143715500Y-71059000D03*
X143715500Y-72959000D03*
X145590500Y-72009000D03*
%TD*%
D33*
%TO.C,R18*%
X134200000Y-60112500D03*
X134200000Y-58287500D03*
%TD*%
%TO.C,R13*%
X141250000Y-60112500D03*
X141250000Y-58287500D03*
%TD*%
D57*
%TO.C,Q1*%
X128160000Y-46205000D03*
D58*
X132740000Y-46205000D03*
D59*
X130470000Y-39245000D03*
%TD*%
D17*
%TO.C,R2*%
X91350000Y-74812500D03*
X91350000Y-76637500D03*
%TD*%
D60*
%TO.C,U8*%
X95775000Y-37100000D03*
X95775000Y-37600000D03*
X95775000Y-38100000D03*
X95775000Y-38600000D03*
D61*
X96287500Y-38612500D03*
X96787500Y-38612500D03*
D60*
X97300000Y-38600000D03*
X97300000Y-38100000D03*
X97300000Y-37600000D03*
X97300000Y-37100000D03*
D61*
X96787500Y-37087500D03*
X96287500Y-37087500D03*
%TD*%
D30*
%TO.C,C4*%
X93000000Y-76562500D03*
X93000000Y-74837500D03*
%TD*%
D17*
%TO.C,R20*%
X148300000Y-46287500D03*
X148300000Y-48112500D03*
%TD*%
%TO.C,R12*%
X147320000Y-72112500D03*
X147320000Y-73937500D03*
%TD*%
D62*
%TO.C,L2*%
X143475000Y-50300000D03*
X145625000Y-50300000D03*
%TD*%
D31*
%TO.C,R42*%
X145137500Y-35250000D03*
X146962500Y-35250000D03*
%TD*%
D63*
%TO.C,Q12*%
X147609000Y-57674000D03*
X146959000Y-57674000D03*
X146309000Y-57674000D03*
X146309000Y-59674000D03*
X146959000Y-59674000D03*
X147609000Y-59674000D03*
D64*
X147249000Y-58654000D03*
D65*
X146269000Y-58674000D03*
%TD*%
D30*
%TO.C,C22*%
X138950000Y-48162500D03*
X138950000Y-46437500D03*
%TD*%
D66*
%TO.C,C29*%
X104609880Y-37190120D03*
X103390120Y-38409880D03*
%TD*%
D43*
%TO.C,R41*%
X146962500Y-36800000D03*
X145137500Y-36800000D03*
%TD*%
D28*
%TO.C,C20*%
X143637500Y-42050000D03*
X145362500Y-42050000D03*
%TD*%
D33*
%TO.C,R33*%
X143510000Y-59840500D03*
X143510000Y-58015500D03*
%TD*%
D67*
%TO.C,TP2*%
X92875000Y-35950000D03*
%TD*%
D17*
%TO.C,R28*%
X141950000Y-68687500D03*
X141950000Y-70512500D03*
%TD*%
D30*
%TO.C,C28*%
X119400001Y-38443200D03*
X119400001Y-36718200D03*
%TD*%
D17*
%TO.C,R5*%
X106800000Y-66850000D03*
X106800000Y-68675000D03*
%TD*%
D33*
%TO.C,R21*%
X140500000Y-44762500D03*
X140500000Y-42937500D03*
%TD*%
D30*
%TO.C,C31*%
X109600000Y-77362500D03*
X109600000Y-75637500D03*
%TD*%
D28*
%TO.C,C33*%
X95337500Y-40100000D03*
X97062500Y-40100000D03*
%TD*%
D17*
%TO.C,R34*%
X145034000Y-58015500D03*
X145034000Y-59840500D03*
%TD*%
D20*
%TO.C,H2*%
X77000000Y-38000000D03*
%TD*%
D34*
%TO.C,Q7*%
X141864000Y-66850500D03*
X143764000Y-66850500D03*
X142814000Y-64975500D03*
%TD*%
D30*
%TO.C,C19*%
X135850000Y-48162500D03*
X135850000Y-46437500D03*
%TD*%
D17*
%TO.C,R17*%
X147193000Y-54205500D03*
X147193000Y-56030500D03*
%TD*%
D33*
%TO.C,R29*%
X141224000Y-63523500D03*
X141224000Y-61698500D03*
%TD*%
D27*
%TO.C,J6*%
X87700000Y-44660000D03*
D26*
X85160000Y-44660000D03*
X87700000Y-47200000D03*
X85160000Y-47200000D03*
X87700000Y-49740000D03*
X85160000Y-49740000D03*
X87700000Y-52280000D03*
X85160000Y-52280000D03*
X87700000Y-54820000D03*
X85160000Y-54820000D03*
X87700000Y-57360000D03*
X85160000Y-57360000D03*
X87700000Y-59900000D03*
X85160000Y-59900000D03*
X87700000Y-62440000D03*
X85160000Y-62440000D03*
%TD*%
D27*
%TO.C,J5*%
X123000000Y-44760000D03*
D26*
X120460000Y-44760000D03*
X123000000Y-47300000D03*
X120460000Y-47300000D03*
X123000000Y-49840000D03*
X120460000Y-49840000D03*
X123000000Y-52380000D03*
X120460000Y-52380000D03*
X123000000Y-54920000D03*
X120460000Y-54920000D03*
X123000000Y-57460000D03*
X120460000Y-57460000D03*
X123000000Y-60000000D03*
X120460000Y-60000000D03*
X123000000Y-62540000D03*
X120460000Y-62540000D03*
%TD*%
D68*
%TO.C,USB1*%
X78175000Y-43755000D03*
D69*
X74795000Y-43755000D03*
X74795000Y-52395000D03*
D68*
X78175000Y-52395000D03*
D70*
X79155000Y-51045000D03*
X79155000Y-50195000D03*
X79155000Y-49345000D03*
X79155000Y-48495000D03*
X79155000Y-47645000D03*
X79155000Y-46795000D03*
X79155000Y-45945000D03*
X79155000Y-45095000D03*
X77805000Y-45095000D03*
X77805000Y-45945000D03*
X77805000Y-46795000D03*
X77805000Y-47645000D03*
X77805000Y-48495000D03*
X77805000Y-49345000D03*
X77805000Y-50195000D03*
X77805000Y-51045000D03*
%TD*%
D71*
%TO.C,J8*%
X151264452Y-40651100D03*
X151264452Y-38151100D03*
X153764452Y-40651100D03*
X153764452Y-38151100D03*
%TD*%
M02*
