%TF.GenerationSoftware,KiCad,Pcbnew,9.0.7*%
%TF.CreationDate,2026-03-14T17:34:57+01:00*%
%TF.ProjectId,TABv1,54414276-312e-46b6-9963-61645f706362,rev?*%
%TF.SameCoordinates,Original*%
%TF.FileFunction,Copper,L1,Top*%
%TF.FilePolarity,Positive*%
%FSLAX46Y46*%
G04 Gerber Fmt 4.6, Leading zero omitted, Abs format (unit mm)*
G04 Created by KiCad (PCBNEW 9.0.7) date 2026-03-14 17:34:57*
%MOMM*%
%LPD*%
G01*
G04 APERTURE LIST*
G04 Aperture macros list*
%AMRoundRect*
0 Rectangle with rounded corners*
0 $1 Rounding radius*
0 $2 $3 $4 $5 $6 $7 $8 $9 X,Y pos of 4 corners*
0 Add a 4 corners polygon primitive as box body*
4,1,4,$2,$3,$4,$5,$6,$7,$8,$9,$2,$3,0*
0 Add four circle primitives for the rounded corners*
1,1,$1+$1,$2,$3*
1,1,$1+$1,$4,$5*
1,1,$1+$1,$6,$7*
1,1,$1+$1,$8,$9*
0 Add four rect primitives between the rounded corners*
20,1,$1+$1,$2,$3,$4,$5,0*
20,1,$1+$1,$4,$5,$6,$7,0*
20,1,$1+$1,$6,$7,$8,$9,0*
20,1,$1+$1,$8,$9,$2,$3,0*%
%AMRotRect*
0 Rectangle, with rotation*
0 The origin of the aperture is its center*
0 $1 length*
0 $2 width*
0 $3 Rotation angle, in degrees counterclockwise*
0 Add horizontal line*
21,1,$1,$2,0,0,$3*%
G04 Aperture macros list end*
%TA.AperFunction,Conductor*%
%ADD10C,0.200000*%
%TD*%
%TA.AperFunction,SMDPad,CuDef*%
%ADD11R,0.250000X0.600000*%
%TD*%
%TA.AperFunction,SMDPad,CuDef*%
%ADD12R,0.600000X0.250000*%
%TD*%
%TA.AperFunction,SMDPad,CuDef*%
%ADD13R,0.250000X0.250000*%
%TD*%
%TA.AperFunction,SMDPad,CuDef*%
%ADD14R,0.250000X1.350000*%
%TD*%
%TA.AperFunction,SMDPad,CuDef*%
%ADD15R,0.250000X1.700000*%
%TD*%
%TA.AperFunction,SMDPad,CuDef*%
%ADD16RoundRect,0.237500X-0.237500X0.250000X-0.237500X-0.250000X0.237500X-0.250000X0.237500X0.250000X0*%
%TD*%
%TA.AperFunction,SMDPad,CuDef*%
%ADD17R,0.800000X0.500000*%
%TD*%
%TA.AperFunction,SMDPad,CuDef*%
%ADD18R,0.800000X0.400000*%
%TD*%
%TA.AperFunction,SMDPad,CuDef*%
%ADD19RoundRect,0.162500X0.650000X0.162500X-0.650000X0.162500X-0.650000X-0.162500X0.650000X-0.162500X0*%
%TD*%
%TA.AperFunction,SMDPad,CuDef*%
%ADD20RotRect,0.254000X0.787400X315.000000*%
%TD*%
%TA.AperFunction,SMDPad,CuDef*%
%ADD21RotRect,0.254000X0.787400X225.000000*%
%TD*%
%TA.AperFunction,SMDPad,CuDef*%
%ADD22RoundRect,0.150000X-0.587500X-0.150000X0.587500X-0.150000X0.587500X0.150000X-0.587500X0.150000X0*%
%TD*%
%TA.AperFunction,SMDPad,CuDef*%
%ADD23R,1.300000X1.050000*%
%TD*%
%TA.AperFunction,ComponentPad*%
%ADD24C,1.700000*%
%TD*%
%TA.AperFunction,ComponentPad*%
%ADD25R,1.700000X1.700000*%
%TD*%
%TA.AperFunction,SMDPad,CuDef*%
%ADD26RoundRect,0.237500X-0.300000X-0.237500X0.300000X-0.237500X0.300000X0.237500X-0.300000X0.237500X0*%
%TD*%
%TA.AperFunction,SMDPad,CuDef*%
%ADD27RoundRect,0.237500X0.250000X0.237500X-0.250000X0.237500X-0.250000X-0.237500X0.250000X-0.237500X0*%
%TD*%
%TA.AperFunction,SMDPad,CuDef*%
%ADD28RoundRect,0.237500X-0.237500X0.300000X-0.237500X-0.300000X0.237500X-0.300000X0.237500X0.300000X0*%
%TD*%
%TA.AperFunction,SMDPad,CuDef*%
%ADD29RoundRect,0.237500X0.237500X-0.300000X0.237500X0.300000X-0.237500X0.300000X-0.237500X-0.300000X0*%
%TD*%
%TA.AperFunction,SMDPad,CuDef*%
%ADD30RoundRect,0.237500X-0.250000X-0.237500X0.250000X-0.237500X0.250000X0.237500X-0.250000X0.237500X0*%
%TD*%
%TA.AperFunction,SMDPad,CuDef*%
%ADD31RoundRect,0.237500X0.300000X0.237500X-0.300000X0.237500X-0.300000X-0.237500X0.300000X-0.237500X0*%
%TD*%
%TA.AperFunction,SMDPad,CuDef*%
%ADD32RoundRect,0.237500X0.237500X-0.250000X0.237500X0.250000X-0.237500X0.250000X-0.237500X-0.250000X0*%
%TD*%
%TA.AperFunction,SMDPad,CuDef*%
%ADD33RoundRect,0.150000X0.150000X-0.587500X0.150000X0.587500X-0.150000X0.587500X-0.150000X-0.587500X0*%
%TD*%
%TA.AperFunction,SMDPad,CuDef*%
%ADD34R,0.500000X0.350000*%
%TD*%
%TA.AperFunction,SMDPad,CuDef*%
%ADD35R,1.000000X0.950000*%
%TD*%
%TA.AperFunction,SMDPad,CuDef*%
%ADD36R,0.850000X0.300000*%
%TD*%
%TA.AperFunction,SMDPad,CuDef*%
%ADD37RoundRect,0.150000X-0.825000X-0.150000X0.825000X-0.150000X0.825000X0.150000X-0.825000X0.150000X0*%
%TD*%
%TA.AperFunction,SMDPad,CuDef*%
%ADD38R,1.070000X0.600000*%
%TD*%
%TA.AperFunction,SMDPad,CuDef*%
%ADD39RoundRect,0.050000X0.350000X0.050000X-0.350000X0.050000X-0.350000X-0.050000X0.350000X-0.050000X0*%
%TD*%
%TA.AperFunction,SMDPad,CuDef*%
%ADD40RoundRect,0.050000X0.050000X0.350000X-0.050000X0.350000X-0.050000X-0.350000X0.050000X-0.350000X0*%
%TD*%
%TA.AperFunction,HeatsinkPad*%
%ADD41R,3.400000X3.400000*%
%TD*%
%TA.AperFunction,SMDPad,CuDef*%
%ADD42R,0.500000X0.800000*%
%TD*%
%TA.AperFunction,SMDPad,CuDef*%
%ADD43R,0.400000X0.800000*%
%TD*%
%TA.AperFunction,SMDPad,CuDef*%
%ADD44R,1.016000X1.803400*%
%TD*%
%TA.AperFunction,SMDPad,CuDef*%
%ADD45R,0.385000X0.690000*%
%TD*%
%TA.AperFunction,SMDPad,CuDef*%
%ADD46R,1.035000X0.690000*%
%TD*%
%TA.AperFunction,ComponentPad*%
%ADD47R,2.300000X1.500000*%
%TD*%
%TA.AperFunction,ComponentPad*%
%ADD48RoundRect,0.250001X0.899999X-0.499999X0.899999X0.499999X-0.899999X0.499999X-0.899999X-0.499999X0*%
%TD*%
%TA.AperFunction,ComponentPad*%
%ADD49O,2.300000X1.500000*%
%TD*%
%TA.AperFunction,SMDPad,CuDef*%
%ADD50RoundRect,0.087500X-0.125000X-0.087500X0.125000X-0.087500X0.125000X0.087500X-0.125000X0.087500X0*%
%TD*%
%TA.AperFunction,SMDPad,CuDef*%
%ADD51RoundRect,0.087500X-0.087500X-0.125000X0.087500X-0.125000X0.087500X0.125000X-0.087500X0.125000X0*%
%TD*%
%TA.AperFunction,SMDPad,CuDef*%
%ADD52RoundRect,0.237500X-0.044194X-0.380070X0.380070X0.044194X0.044194X0.380070X-0.380070X-0.044194X0*%
%TD*%
%TA.AperFunction,SMDPad,CuDef*%
%ADD53R,0.787400X0.254000*%
%TD*%
%TA.AperFunction,SMDPad,CuDef*%
%ADD54R,0.254000X0.787400*%
%TD*%
%TA.AperFunction,SMDPad,CuDef*%
%ADD55R,1.350000X2.800000*%
%TD*%
%TA.AperFunction,SMDPad,CuDef*%
%ADD56R,1.500000X2.800000*%
%TD*%
%TA.AperFunction,SMDPad,CuDef*%
%ADD57R,6.000000X6.500000*%
%TD*%
%TA.AperFunction,SMDPad,CuDef*%
%ADD58R,0.375000X0.350000*%
%TD*%
%TA.AperFunction,SMDPad,CuDef*%
%ADD59R,0.350000X0.375000*%
%TD*%
%TA.AperFunction,SMDPad,CuDef*%
%ADD60RoundRect,0.250000X-0.375000X-0.850000X0.375000X-0.850000X0.375000X0.850000X-0.375000X0.850000X0*%
%TD*%
%TA.AperFunction,SMDPad,CuDef*%
%ADD61R,0.350000X0.500000*%
%TD*%
%TA.AperFunction,SMDPad,CuDef*%
%ADD62R,0.950000X1.000000*%
%TD*%
%TA.AperFunction,SMDPad,CuDef*%
%ADD63R,0.300000X0.850000*%
%TD*%
%TA.AperFunction,SMDPad,CuDef*%
%ADD64RoundRect,0.237500X0.044194X0.380070X-0.380070X-0.044194X-0.044194X-0.380070X0.380070X0.044194X0*%
%TD*%
%TA.AperFunction,ComponentPad*%
%ADD65O,2.400000X0.900000*%
%TD*%
%TA.AperFunction,ComponentPad*%
%ADD66O,1.700000X0.900000*%
%TD*%
%TA.AperFunction,ComponentPad*%
%ADD67C,0.650000*%
%TD*%
%TA.AperFunction,ComponentPad*%
%ADD68C,1.752600*%
%TD*%
%TA.AperFunction,ViaPad*%
%ADD69C,0.450000*%
%TD*%
%TA.AperFunction,ViaPad*%
%ADD70C,1.000000*%
%TD*%
%TA.AperFunction,Conductor*%
%ADD71C,0.400000*%
%TD*%
%TA.AperFunction,Conductor*%
%ADD72C,0.350000*%
%TD*%
%TA.AperFunction,Conductor*%
%ADD73C,0.125000*%
%TD*%
%TA.AperFunction,Conductor*%
%ADD74C,0.500000*%
%TD*%
%TA.AperFunction,Conductor*%
%ADD75C,0.600000*%
%TD*%
%TA.AperFunction,Conductor*%
%ADD76C,1.000000*%
%TD*%
G04 APERTURE END LIST*
D10*
%TO.N,/PWM3*%
X120700000Y-49000000D02*
X120300000Y-49000000D01*
X120300000Y-48800000D01*
X120700000Y-48800000D01*
X120700000Y-49000000D01*
%TA.AperFunction,Conductor*%
G36*
X120700000Y-49000000D02*
G01*
X120300000Y-49000000D01*
X120300000Y-48800000D01*
X120700000Y-48800000D01*
X120700000Y-49000000D01*
G37*
%TD.AperFunction*%
%TO.N,/PWM4*%
X123200000Y-48420000D02*
X122800000Y-48420000D01*
X122800000Y-48120000D01*
X123200000Y-48120000D01*
X123200000Y-48420000D01*
%TA.AperFunction,Conductor*%
G36*
X123200000Y-48420000D02*
G01*
X122800000Y-48420000D01*
X122800000Y-48120000D01*
X123200000Y-48120000D01*
X123200000Y-48420000D01*
G37*
%TD.AperFunction*%
%TD*%
D11*
%TO.P,IC1,1,PS/SYNC*%
%TO.N,SYNC*%
X145250000Y-45349000D03*
%TO.P,IC1,2,PG*%
%TO.N,PG*%
X144750000Y-45349000D03*
%TO.P,IC1,3,VAUX*%
%TO.N,Net-(IC1-VAUX)*%
X144250000Y-45349000D03*
%TO.P,IC1,4,GND*%
%TO.N,GND*%
X143750000Y-45349000D03*
D12*
%TO.P,IC1,5,FB*%
%TO.N,Net-(IC1-FB)*%
X143100000Y-45775000D03*
%TO.P,IC1,6,FB2*%
%TO.N,GND*%
X143100000Y-46275000D03*
%TO.P,IC1,7,VOUT_1*%
%TO.N,+3V3*%
X143100000Y-46775000D03*
D13*
X143275000Y-47025000D03*
D12*
%TO.P,IC1,8,VOUT_2*%
X143100000Y-47275000D03*
D14*
%TO.P,IC1,9,L2*%
%TO.N,Net-(IC1-L2)*%
X144000000Y-47275000D03*
D15*
%TO.P,IC1,10,PGND*%
%TO.N,GND*%
X144500000Y-47100000D03*
D14*
%TO.P,IC1,11,L1*%
%TO.N,Net-(IC1-L1)*%
X145000000Y-47275000D03*
D12*
%TO.P,IC1,12,VIN_1*%
%TO.N,Net-(D1-K)*%
X145900000Y-47275000D03*
%TO.P,IC1,13,VIN_2*%
X145900000Y-46775000D03*
D13*
X145725000Y-47025000D03*
D12*
%TO.P,IC1,14,EN*%
%TO.N,SYNC*%
X145900000Y-46275000D03*
%TO.P,IC1,15,VSEL*%
%TO.N,GND*%
X145900000Y-45775000D03*
%TD*%
D16*
%TO.P,R8,1*%
%TO.N,Net-(R8-Pad1)*%
X131500000Y-50587500D03*
%TO.P,R8,2*%
%TO.N,Net-(Q4-Pad1)*%
X131500000Y-52412500D03*
%TD*%
D17*
%TO.P,RN8,1,R1.1*%
%TO.N,+3V3*%
X125400000Y-72800000D03*
D18*
%TO.P,RN8,2,R2.1*%
X125400000Y-72000000D03*
%TO.P,RN8,3,R3.1*%
X125400000Y-71200000D03*
D17*
%TO.P,RN8,4,R4.1*%
X125400000Y-70400000D03*
%TO.P,RN8,5,R4.2*%
%TO.N,/microSD/_DAT1*%
X123600000Y-70400000D03*
D18*
%TO.P,RN8,6,R3.2*%
%TO.N,/microSD/_DAT0*%
X123600000Y-71200000D03*
%TO.P,RN8,7,R2.2*%
%TO.N,/microSD/_CLK*%
X123600000Y-72000000D03*
D17*
%TO.P,RN8,8,R1.2*%
%TO.N,unconnected-(RN8-R1.2-Pad8)*%
X123600000Y-72800000D03*
%TD*%
D19*
%TO.P,U2,1,~{CS}*%
%TO.N,/SS*%
X103187500Y-76705000D03*
%TO.P,U2,2,DO/IO_{1}*%
%TO.N,/SD1*%
X103187500Y-75435000D03*
%TO.P,U2,3,~{WP}/IO_{2}*%
%TO.N,/SD2*%
X103187500Y-74165000D03*
%TO.P,U2,4,GND*%
%TO.N,GND*%
X103187500Y-72895000D03*
%TO.P,U2,5,DI/IO_{0}*%
%TO.N,/SD0*%
X96012500Y-72895000D03*
%TO.P,U2,6,CLK*%
%TO.N,/SCLK*%
X96012500Y-74165000D03*
%TO.P,U2,7,~{HOLD}/~{RESET}/IO_{3}*%
%TO.N,/SD3*%
X96012500Y-75435000D03*
%TO.P,U2,8,VCC*%
%TO.N,+3V3*%
X96012500Y-76705000D03*
%TD*%
D20*
%TO.P,U4,1,1*%
%TO.N,/SPI1.RX*%
X109627139Y-37333522D03*
%TO.P,U4,2,SDX*%
%TO.N,unconnected-(U4-SDX-Pad2)*%
X109273585Y-36979968D03*
%TO.P,U4,3,3*%
%TO.N,unconnected-(U4-Pad3)*%
X108920032Y-36626415D03*
%TO.P,U4,4,4*%
%TO.N,/IMU45_INT1*%
X108566478Y-36272861D03*
D21*
%TO.P,U4,5,5*%
%TO.N,+3V3*%
X107636349Y-36629244D03*
%TO.P,U4,6,6*%
%TO.N,GND*%
X107282797Y-36982797D03*
%TO.P,U4,7,7*%
X106929244Y-37336349D03*
D20*
%TO.P,U4,8,8*%
%TO.N,+3V3*%
X106572861Y-38266478D03*
%TO.P,U4,9,9*%
%TO.N,/IMU45_INT2*%
X106926415Y-38620032D03*
%TO.P,U4,10,10*%
%TO.N,unconnected-(U4-Pad10)*%
X107279968Y-38973585D03*
%TO.P,U4,11,11*%
%TO.N,unconnected-(U4-Pad11)*%
X107633522Y-39327139D03*
D21*
%TO.P,U4,12,12*%
%TO.N,/IMU45_CS*%
X108563651Y-38970756D03*
%TO.P,U4,13,13*%
%TO.N,/SPI1.CK*%
X108917203Y-38617203D03*
%TO.P,U4,14,14*%
%TO.N,/SPI1.TX*%
X109270756Y-38263651D03*
%TD*%
D22*
%TO.P,Q3,1,G*%
%TO.N,Net-(Q3-G)*%
X92062500Y-66650000D03*
%TO.P,Q3,2,S*%
%TO.N,GND*%
X92062500Y-68550000D03*
%TO.P,Q3,3,D*%
%TO.N,Net-(Q3-D)*%
X93937500Y-67600000D03*
%TD*%
D23*
%TO.P,Y1,1,1*%
%TO.N,Net-(C17-Pad2)*%
X105050000Y-45475000D03*
%TO.P,Y1,2,2*%
%TO.N,GND*%
X107350000Y-45475000D03*
%TO.P,Y1,3,3*%
%TO.N,/XIN*%
X107350000Y-43725000D03*
%TO.P,Y1,4,4*%
%TO.N,GND*%
X105050000Y-43725000D03*
%TD*%
D16*
%TO.P,R10,1*%
%TO.N,/BUZZ*%
X87500000Y-65087500D03*
%TO.P,R10,2*%
%TO.N,Net-(Q3-G)*%
X87500000Y-66912500D03*
%TD*%
D24*
%TO.P,J9,1,Pin_1*%
%TO.N,/PWM4*%
X152920000Y-45960000D03*
%TO.P,J9,2,Pin_2*%
%TO.N,/PWM3*%
X155460000Y-45960000D03*
%TO.P,J9,3,Pin_3*%
%TO.N,+BATT*%
X152920000Y-48500000D03*
%TO.P,J9,4,Pin_4*%
X155460000Y-48500000D03*
D25*
%TO.P,J9,5,Pin_5*%
%TO.N,GND*%
X152920000Y-51040000D03*
%TO.P,J9,6,Pin_6*%
X155460000Y-51040000D03*
%TD*%
D26*
%TO.P,C27,1*%
%TO.N,GND*%
X121662499Y-34744300D03*
%TO.P,C27,2*%
%TO.N,+3V3*%
X123387499Y-34744300D03*
%TD*%
D27*
%TO.P,R45,1*%
%TO.N,Net-(USB1-CC1)*%
X82512500Y-46900000D03*
%TO.P,R45,2*%
%TO.N,GND*%
X80687500Y-46900000D03*
%TD*%
D26*
%TO.P,C38,1*%
%TO.N,+3V3*%
X113625000Y-35775000D03*
%TO.P,C38,2*%
%TO.N,GND*%
X115350000Y-35775000D03*
%TD*%
D28*
%TO.P,C35,1*%
%TO.N,+3V3*%
X101037500Y-36487500D03*
%TO.P,C35,2*%
%TO.N,GND*%
X101037500Y-38212500D03*
%TD*%
D29*
%TO.P,C16,1*%
%TO.N,GND*%
X109800000Y-45400000D03*
%TO.P,C16,2*%
%TO.N,/XIN*%
X109800000Y-43675000D03*
%TD*%
D30*
%TO.P,R9,1*%
%TO.N,/SDA_RADIO*%
X125775000Y-64100000D03*
%TO.P,R9,2*%
%TO.N,+3V3*%
X127600000Y-64100000D03*
%TD*%
D17*
%TO.P,RN10,1,R1.1*%
%TO.N,/L_BLUE*%
X78152500Y-59000000D03*
D18*
%TO.P,RN10,2,R2.1*%
%TO.N,/L_GREEN*%
X78152500Y-58200000D03*
%TO.P,RN10,3,R3.1*%
%TO.N,/L_RED*%
X78152500Y-57400000D03*
D17*
%TO.P,RN10,4,R4.1*%
X78152500Y-56600000D03*
%TO.P,RN10,5,R4.2*%
%TO.N,Net-(D7-A)*%
X76352500Y-56600000D03*
D18*
%TO.P,RN10,6,R3.2*%
X76352500Y-57400000D03*
%TO.P,RN10,7,R2.2*%
%TO.N,Net-(D6-A)*%
X76352500Y-58200000D03*
D17*
%TO.P,RN10,8,R1.2*%
%TO.N,Net-(D5-A)*%
X76352500Y-59000000D03*
%TD*%
D31*
%TO.P,C2,1*%
%TO.N,+3V3*%
X103662500Y-64787500D03*
%TO.P,C2,2*%
%TO.N,GND*%
X101937500Y-64787500D03*
%TD*%
D32*
%TO.P,R19,1*%
%TO.N,GND*%
X135900000Y-60112500D03*
%TO.P,R19,2*%
%TO.N,Net-(Q5-G)*%
X135900000Y-58287500D03*
%TD*%
D33*
%TO.P,Q5,1,G*%
%TO.N,Net-(Q5-G)*%
X137795000Y-59611500D03*
%TO.P,Q5,2,S*%
%TO.N,GND*%
X139695000Y-59611500D03*
%TO.P,Q5,3,D*%
%TO.N,/Pyro/PYRO_LOW*%
X138745000Y-57736500D03*
%TD*%
D17*
%TO.P,RN6,1,R1.1*%
%TO.N,unconnected-(RN6-R1.1-Pad1)*%
X114600000Y-73000000D03*
D18*
%TO.P,RN6,2,R2.1*%
%TO.N,/microSD/_CMD*%
X114600000Y-72200000D03*
%TO.P,RN6,3,R3.1*%
%TO.N,/microSD/_DAT3*%
X114600000Y-71400000D03*
D17*
%TO.P,RN6,4,R4.1*%
%TO.N,/microSD/_DAT2*%
X114600000Y-70600000D03*
%TO.P,RN6,5,R4.2*%
%TO.N,+3V3*%
X112800000Y-70600000D03*
D18*
%TO.P,RN6,6,R3.2*%
X112800000Y-71400000D03*
%TO.P,RN6,7,R2.2*%
X112800000Y-72200000D03*
D17*
%TO.P,RN6,8,R1.2*%
X112800000Y-73000000D03*
%TD*%
D30*
%TO.P,R15,1*%
%TO.N,Net-(Q7-D)*%
X145391500Y-62992000D03*
%TO.P,R15,2*%
%TO.N,Net-(Q11-G)*%
X147216500Y-62992000D03*
%TD*%
D34*
%TO.P,Q11,1,D*%
%TO.N,/Pyro/PYRO2*%
X147558000Y-67218000D03*
%TO.P,Q11,2,D*%
X147558000Y-66568000D03*
%TO.P,Q11,3,G*%
%TO.N,Net-(Q11-G)*%
X147558000Y-65918000D03*
%TO.P,Q11,4,S*%
%TO.N,/Pyro/PYRO_HIGH*%
X145558000Y-65918000D03*
%TO.P,Q11,5,D*%
%TO.N,/Pyro/PYRO2*%
X145558000Y-66568000D03*
%TO.P,Q11,6,D*%
X145558000Y-67218000D03*
D35*
%TO.P,Q11,7,D*%
X146578000Y-66858000D03*
D36*
%TO.P,Q11,8,S*%
%TO.N,/Pyro/PYRO_HIGH*%
X146558000Y-65878000D03*
%TD*%
D26*
%TO.P,C3,1*%
%TO.N,GND*%
X96937500Y-63700000D03*
%TO.P,C3,2*%
%TO.N,/AVDD*%
X98662500Y-63700000D03*
%TD*%
D32*
%TO.P,R32,1*%
%TO.N,/PYRO_FIRE_3*%
X142240000Y-56411500D03*
%TO.P,R32,2*%
%TO.N,Net-(Q2-G)*%
X142240000Y-54586500D03*
%TD*%
D31*
%TO.P,C1,1*%
%TO.N,+1V1*%
X103650000Y-66300000D03*
%TO.P,C1,2*%
%TO.N,GND*%
X101925000Y-66300000D03*
%TD*%
D37*
%TO.P,U7,1*%
%TO.N,Net-(R8-Pad1)*%
X134025000Y-51095000D03*
%TO.P,U7,2*%
%TO.N,Net-(Q4-Pad1)*%
X134025000Y-52365000D03*
%TO.P,U7,3*%
X134025000Y-53635000D03*
%TO.P,U7,4*%
%TO.N,+BATT*%
X134025000Y-54905000D03*
%TO.P,U7,5*%
%TO.N,N/C*%
X138975000Y-54905000D03*
%TO.P,U7,6*%
%TO.N,Net-(Q4-Pad1)*%
X138975000Y-53635000D03*
%TO.P,U7,7*%
X138975000Y-52365000D03*
%TO.P,U7,8*%
%TO.N,N/C*%
X138975000Y-51095000D03*
%TD*%
D38*
%TO.P,Q4,1,1*%
%TO.N,Net-(Q4-Pad1)*%
X129560000Y-54050000D03*
%TO.P,Q4,2,2*%
%TO.N,Net-(Q1-B)*%
X129560000Y-55950000D03*
%TO.P,Q4,3,3*%
%TO.N,+BATT*%
X132040000Y-55000000D03*
%TD*%
D30*
%TO.P,R30,1*%
%TO.N,/PYRO_FIRE_2*%
X138279500Y-66167000D03*
%TO.P,R30,2*%
%TO.N,Net-(Q7-G)*%
X140104500Y-66167000D03*
%TD*%
D34*
%TO.P,Q10,1,D*%
%TO.N,/Pyro/PYRO1*%
X147542000Y-76708000D03*
%TO.P,Q10,2,D*%
X147542000Y-76058000D03*
%TO.P,Q10,3,G*%
%TO.N,Net-(Q10-G)*%
X147542000Y-75408000D03*
%TO.P,Q10,4,S*%
%TO.N,/Pyro/PYRO_HIGH*%
X145542000Y-75408000D03*
%TO.P,Q10,5,D*%
%TO.N,/Pyro/PYRO1*%
X145542000Y-76058000D03*
%TO.P,Q10,6,D*%
X145542000Y-76708000D03*
D35*
%TO.P,Q10,7,D*%
X146562000Y-76348000D03*
D36*
%TO.P,Q10,8,S*%
%TO.N,/Pyro/PYRO_HIGH*%
X146542000Y-75368000D03*
%TD*%
D32*
%TO.P,R40,1*%
%TO.N,GND*%
X111600000Y-68812500D03*
%TO.P,R40,2*%
%TO.N,/SD_detect*%
X111600000Y-66987500D03*
%TD*%
D24*
%TO.P,J10,1,Pin_1*%
%TO.N,/PWM2*%
X158000000Y-45960000D03*
%TO.P,J10,2,Pin_2*%
%TO.N,/PWM1*%
X160540000Y-45960000D03*
%TO.P,J10,3,Pin_3*%
%TO.N,+BATT*%
X158000000Y-48500000D03*
%TO.P,J10,4,Pin_4*%
X160540000Y-48500000D03*
D25*
%TO.P,J10,5,Pin_5*%
%TO.N,GND*%
X158000000Y-51040000D03*
%TO.P,J10,6,Pin_6*%
X160540000Y-51040000D03*
%TD*%
D16*
%TO.P,R14,1*%
%TO.N,Net-(Q10-G)*%
X144145000Y-74652500D03*
%TO.P,R14,2*%
%TO.N,/Pyro/PYRO_HIGH*%
X144145000Y-76477500D03*
%TD*%
D32*
%TO.P,R23,1*%
%TO.N,+3V3*%
X148300000Y-44762500D03*
%TO.P,R23,2*%
%TO.N,PG*%
X148300000Y-42937500D03*
%TD*%
%TO.P,R11,1*%
%TO.N,GND*%
X89000000Y-66912500D03*
%TO.P,R11,2*%
%TO.N,/BUZZ*%
X89000000Y-65087500D03*
%TD*%
%TO.P,R6,1*%
%TO.N,Net-(U1-USB_DM)*%
X80900000Y-50900000D03*
%TO.P,R6,2*%
%TO.N,D-*%
X80900000Y-49075000D03*
%TD*%
D39*
%TO.P,U1,1,GPIO4*%
%TO.N,/SD_DAT0*%
X110750000Y-61175000D03*
%TO.P,U1,2,GPIO5*%
%TO.N,/SD_DAT1*%
X110750000Y-60775000D03*
%TO.P,U1,3,GPIO6*%
%TO.N,/SD_DAT2*%
X110750000Y-60375000D03*
%TO.P,U1,4,GPIO7*%
%TO.N,/SD_DAT3*%
X110750000Y-59975000D03*
%TO.P,U1,5,IOVDD*%
%TO.N,+3V3*%
X110750000Y-59575000D03*
%TO.P,U1,6,GPIO8*%
%TO.N,HIL_TX*%
X110750000Y-59175000D03*
%TO.P,U1,7,GPIO9*%
%TO.N,HIL_RX*%
X110750000Y-58775000D03*
%TO.P,U1,8,GPIO10*%
%TO.N,/SD_detect*%
X110750000Y-58375000D03*
%TO.P,U1,9,GPIO11*%
%TO.N,/IMU45_CS*%
X110750000Y-57975000D03*
%TO.P,U1,10,DVDD*%
%TO.N,+1V1*%
X110750000Y-57575000D03*
%TO.P,U1,11,GPIO12*%
%TO.N,/SPI1.RX*%
X110750000Y-57175000D03*
%TO.P,U1,12,GPIO13*%
%TO.N,/MAG_CS*%
X110750000Y-56775000D03*
%TO.P,U1,13,GPIO14*%
%TO.N,/SPI1.CK*%
X110750000Y-56375000D03*
%TO.P,U1,14,GPIO15*%
%TO.N,/SPI1.TX*%
X110750000Y-55975000D03*
%TO.P,U1,15,IOVDD*%
%TO.N,+3V3*%
X110750000Y-55575000D03*
%TO.P,U1,16,GPIO16*%
%TO.N,/RX_GPS*%
X110750000Y-55175000D03*
%TO.P,U1,17,GPIO17*%
%TO.N,/TX_GPS*%
X110750000Y-54775000D03*
%TO.P,U1,18,GPIO18*%
%TO.N,/IMU45_INT1*%
X110750000Y-54375000D03*
%TO.P,U1,19,GPIO19*%
%TO.N,/IMU45_INT2*%
X110750000Y-53975000D03*
%TO.P,U1,20,GPIO20*%
%TO.N,/GPIO20*%
X110750000Y-53575000D03*
D40*
%TO.P,U1,21,GPIO21*%
%TO.N,/IMU_CS*%
X109600000Y-52425000D03*
%TO.P,U1,22,GPIO22*%
%TO.N,/IMU_INT1*%
X109200000Y-52425000D03*
%TO.P,U1,23,GPIO23*%
%TO.N,/IMU_INT2*%
X108800000Y-52425000D03*
%TO.P,U1,24,IOVDD*%
%TO.N,+3V3*%
X108400000Y-52425000D03*
%TO.P,U1,25,GPIO24*%
%TO.N,/PWM1*%
X108000000Y-52425000D03*
%TO.P,U1,26,GPIO25*%
%TO.N,/PWM2*%
X107600000Y-52425000D03*
%TO.P,U1,27,GPIO26*%
%TO.N,/PWM3*%
X107200000Y-52425000D03*
%TO.P,U1,28,GPIO27*%
%TO.N,/PWM4*%
X106800000Y-52425000D03*
%TO.P,U1,29,IOVDD*%
%TO.N,+3V3*%
X106400000Y-52425000D03*
%TO.P,U1,30,XIN*%
%TO.N,/XIN*%
X106000000Y-52425000D03*
%TO.P,U1,31,XOUT*%
%TO.N,/XOUT*%
X105600000Y-52425000D03*
%TO.P,U1,32,DVDD*%
%TO.N,+1V1*%
X105200000Y-52425000D03*
%TO.P,U1,33,SWCLK*%
%TO.N,/SWDCLK*%
X104800000Y-52425000D03*
%TO.P,U1,34,SWDIO*%
%TO.N,/SWDIO*%
X104400000Y-52425000D03*
%TO.P,U1,35,RUN*%
%TO.N,/RESET*%
X104000000Y-52425000D03*
%TO.P,U1,36,GPIO28*%
%TO.N,/BARO_INT*%
X103600000Y-52425000D03*
%TO.P,U1,37,GPIO29*%
%TO.N,/BARO_CS*%
X103200000Y-52425000D03*
%TO.P,U1,38,GPIO30*%
%TO.N,/L_RED*%
X102800000Y-52425000D03*
%TO.P,U1,39,GPIO31*%
%TO.N,/L_GREEN*%
X102400000Y-52425000D03*
%TO.P,U1,40,GPIO32*%
%TO.N,/L_BLUE*%
X102000000Y-52425000D03*
D39*
%TO.P,U1,41,IOVDD*%
%TO.N,+3V3*%
X100850000Y-53575000D03*
%TO.P,U1,42,GPIO33*%
%TO.N,/BUZZ*%
X100850000Y-53975000D03*
%TO.P,U1,43,GPIO34*%
%TO.N,PPS*%
X100850000Y-54375000D03*
%TO.P,U1,44,GPIO35*%
%TO.N,/PYRO_ENABLE*%
X100850000Y-54775000D03*
%TO.P,U1,45,GPIO36*%
%TO.N,/PYRO_FIRE_1*%
X100850000Y-55175000D03*
%TO.P,U1,46,GPIO37*%
%TO.N,/PYRO_FIRE_2*%
X100850000Y-55575000D03*
%TO.P,U1,47,GPIO38*%
%TO.N,/PYRO_FIRE_3*%
X100850000Y-55975000D03*
%TO.P,U1,48,GPIO39*%
%TO.N,/GPIO39*%
X100850000Y-56375000D03*
%TO.P,U1,49,GPIO40_ADC0*%
%TO.N,/PYRO_SENSE*%
X100850000Y-56775000D03*
%TO.P,U1,50,IOVDD*%
%TO.N,+3V3*%
X100850000Y-57175000D03*
%TO.P,U1,51,DVDD*%
%TO.N,+1V1*%
X100850000Y-57575000D03*
%TO.P,U1,52,GPIO41_ADC1*%
%TO.N,/GPIO41*%
X100850000Y-57975000D03*
%TO.P,U1,53,GPIO42_ADC2*%
%TO.N,/GPIO42*%
X100850000Y-58375000D03*
%TO.P,U1,54,GPIO43_ADC3*%
%TO.N,/GPIO43*%
X100850000Y-58775000D03*
%TO.P,U1,55,GPIO44_ADC4*%
%TO.N,/GPIO44*%
X100850000Y-59175000D03*
%TO.P,U1,56,GPIO45_ADC5*%
%TO.N,/GPIO45*%
X100850000Y-59575000D03*
%TO.P,U1,57,GPIO46_ADC6*%
%TO.N,/GPIO46*%
X100850000Y-59975000D03*
%TO.P,U1,58,GPIO47_ADC7*%
%TO.N,/BATT_SENSE*%
X100850000Y-60375000D03*
%TO.P,U1,59,ADC_AVDD*%
%TO.N,+3V3*%
X100850000Y-60775000D03*
%TO.P,U1,60,IOVDD*%
X100850000Y-61175000D03*
D40*
%TO.P,U1,61,VREG_AVDD*%
%TO.N,/AVDD*%
X102000000Y-62325000D03*
%TO.P,U1,62,VREG_PGND*%
%TO.N,GND*%
X102400000Y-62325000D03*
%TO.P,U1,63,VREG_LX*%
%TO.N,/LX*%
X102800000Y-62325000D03*
%TO.P,U1,64,VREG_VIN*%
%TO.N,+3V3*%
X103200000Y-62325000D03*
%TO.P,U1,65,VREG_FB*%
%TO.N,+1V1*%
X103600000Y-62325000D03*
%TO.P,U1,66,USB_DM*%
%TO.N,Net-(U1-USB_DM)*%
X104000000Y-62325000D03*
%TO.P,U1,67,USB_DP*%
%TO.N,Net-(U1-USB_DP)*%
X104400000Y-62325000D03*
%TO.P,U1,68,USB_OTP_VDD*%
%TO.N,+3V3*%
X104800000Y-62325000D03*
%TO.P,U1,69,QSPI_IOVDD*%
X105200000Y-62325000D03*
%TO.P,U1,70,QSPI_SD3*%
%TO.N,/SD3*%
X105600000Y-62325000D03*
%TO.P,U1,71,QSPI_SCLK*%
%TO.N,/SCLK*%
X106000000Y-62325000D03*
%TO.P,U1,72,QSPI_SD0*%
%TO.N,/SD0*%
X106400000Y-62325000D03*
%TO.P,U1,73,QSPI_SD2*%
%TO.N,/SD2*%
X106800000Y-62325000D03*
%TO.P,U1,74,QSPI_SD1*%
%TO.N,/SD1*%
X107200000Y-62325000D03*
%TO.P,U1,75,QSPI_SS*%
%TO.N,/SS*%
X107600000Y-62325000D03*
%TO.P,U1,76,IOVDD*%
%TO.N,+3V3*%
X108000000Y-62325000D03*
%TO.P,U1,77,GPIO0*%
%TO.N,/SDA_RADIO*%
X108400000Y-62325000D03*
%TO.P,U1,78,GPIO1*%
%TO.N,/SCL_RADIO*%
X108800000Y-62325000D03*
%TO.P,U1,79,GPIO2*%
%TO.N,/SD_CLK*%
X109200000Y-62325000D03*
%TO.P,U1,80,GPIO3*%
%TO.N,/SD_CMD*%
X109600000Y-62325000D03*
D41*
%TO.P,U1,81,GND*%
%TO.N,GND*%
X105800000Y-57375000D03*
%TD*%
D27*
%TO.P,R46,1*%
%TO.N,Net-(USB1-CC2)*%
X75712500Y-47200000D03*
%TO.P,R46,2*%
%TO.N,GND*%
X73887500Y-47200000D03*
%TD*%
D28*
%TO.P,C32,1*%
%TO.N,GND*%
X108100000Y-75637500D03*
%TO.P,C32,2*%
%TO.N,+3V3*%
X108100000Y-77362500D03*
%TD*%
D16*
%TO.P,R27,1*%
%TO.N,/PYRO_FIRE_1*%
X146431000Y-68683500D03*
%TO.P,R27,2*%
%TO.N,Net-(Q6-G)*%
X146431000Y-70508500D03*
%TD*%
D42*
%TO.P,RN9,1,R1.1*%
%TO.N,/SD_CMD*%
X118200000Y-67000000D03*
D43*
%TO.P,RN9,2,R2.1*%
%TO.N,/SD_DAT3*%
X117400000Y-67000000D03*
%TO.P,RN9,3,R3.1*%
%TO.N,/SD_DAT2*%
X116600000Y-67000000D03*
D42*
%TO.P,RN9,4,R4.1*%
%TO.N,unconnected-(RN9-R4.1-Pad4)*%
X115800000Y-67000000D03*
%TO.P,RN9,5,R4.2*%
%TO.N,unconnected-(RN9-R4.2-Pad5)*%
X115800000Y-68800000D03*
D43*
%TO.P,RN9,6,R3.2*%
%TO.N,/microSD/_DAT2*%
X116600000Y-68800000D03*
%TO.P,RN9,7,R2.2*%
%TO.N,/microSD/_DAT3*%
X117400000Y-68800000D03*
D42*
%TO.P,RN9,8,R1.2*%
%TO.N,/microSD/_CMD*%
X118200000Y-68800000D03*
%TD*%
D44*
%TO.P,L1,1,1*%
%TO.N,+1V1*%
X103650100Y-68300000D03*
%TO.P,L1,2,2*%
%TO.N,/LX*%
X102049900Y-68300000D03*
%TD*%
D16*
%TO.P,R22,1*%
%TO.N,GND*%
X138750000Y-42937500D03*
%TO.P,R22,2*%
%TO.N,Net-(IC1-FB)*%
X138750000Y-44762500D03*
%TD*%
D30*
%TO.P,R26,1*%
%TO.N,/SCL_RADIO*%
X125787500Y-62500000D03*
%TO.P,R26,2*%
%TO.N,+3V3*%
X127612500Y-62500000D03*
%TD*%
D45*
%TO.P,D2,1,K*%
%TO.N,Net-(D1-K)*%
X149531500Y-48300000D03*
D46*
%TO.P,D2,2,A*%
%TO.N,+BATT*%
X150443500Y-48300000D03*
%TD*%
D47*
%TO.P,J11,1,Pin_1*%
%TO.N,/Pyro/PYRO1*%
X152800000Y-74500000D03*
D48*
X157800000Y-74500000D03*
D49*
%TO.P,J11,2,Pin_2*%
%TO.N,/Pyro/PYRO_LOW*%
X152800000Y-71000000D03*
X157800000Y-71000000D03*
%TO.P,J11,3,Pin_3*%
%TO.N,/Pyro/PYRO2*%
X152800000Y-67500000D03*
X157800000Y-67500000D03*
%TO.P,J11,4,Pin_4*%
%TO.N,/Pyro/PYRO_LOW*%
X152800000Y-64000000D03*
X157800000Y-64000000D03*
%TO.P,J11,5,Pin_5*%
%TO.N,/Pyro/PYRO3*%
X152800000Y-60500000D03*
X157800000Y-60500000D03*
%TO.P,J11,6,Pin_6*%
%TO.N,/Pyro/PYRO_LOW*%
X152800000Y-57000000D03*
X157800000Y-57000000D03*
%TD*%
D29*
%TO.P,C18,1*%
%TO.N,+3V3*%
X137400000Y-48162500D03*
%TO.P,C18,2*%
%TO.N,GND*%
X137400000Y-46437500D03*
%TD*%
D50*
%TO.P,U11,1,Vdd_IO*%
%TO.N,+3V3*%
X113637500Y-37550000D03*
%TO.P,U11,2,SCL*%
%TO.N,/SPI1.CK*%
X113637500Y-38050000D03*
D51*
%TO.P,U11,3,GND*%
%TO.N,GND*%
X113900000Y-38562500D03*
%TO.P,U11,4,SDA*%
%TO.N,/SPI1.TX*%
X114400000Y-38562500D03*
%TO.P,U11,5,SA0*%
%TO.N,/SPI1.RX*%
X114900000Y-38562500D03*
D50*
%TO.P,U11,6,~{CS}*%
%TO.N,/BARO_CS*%
X115162500Y-38050000D03*
%TO.P,U11,7,INT_DRDY*%
%TO.N,/BARO_INT*%
X115162500Y-37550000D03*
D51*
%TO.P,U11,8,GND_IO*%
%TO.N,GND*%
X114900000Y-37037500D03*
%TO.P,U11,9,GND*%
X114400000Y-37037500D03*
%TO.P,U11,10,VDD*%
%TO.N,+3V3*%
X113900000Y-37037500D03*
%TD*%
D31*
%TO.P,C34,1*%
%TO.N,+3V3*%
X97362500Y-35800000D03*
%TO.P,C34,2*%
%TO.N,GND*%
X95637500Y-35800000D03*
%TD*%
D27*
%TO.P,R3,1*%
%TO.N,+3V3*%
X101412500Y-71100000D03*
%TO.P,R3,2*%
%TO.N,/SS*%
X99587500Y-71100000D03*
%TD*%
D29*
%TO.P,C36,1*%
%TO.N,GND*%
X99037500Y-38212500D03*
%TO.P,C36,2*%
%TO.N,+3V3*%
X99037500Y-36487500D03*
%TD*%
D30*
%TO.P,R31,1*%
%TO.N,GND*%
X138406500Y-67818000D03*
%TO.P,R31,2*%
%TO.N,Net-(Q7-G)*%
X140231500Y-67818000D03*
%TD*%
D27*
%TO.P,R4,1*%
%TO.N,/XOUT*%
X105612500Y-47800000D03*
%TO.P,R4,2*%
%TO.N,Net-(C17-Pad2)*%
X103787500Y-47800000D03*
%TD*%
D52*
%TO.P,C30,1*%
%TO.N,GND*%
X105790120Y-36009880D03*
%TO.P,C30,2*%
%TO.N,+3V3*%
X107009880Y-34790120D03*
%TD*%
D28*
%TO.P,C17,1*%
%TO.N,GND*%
X102600000Y-43737500D03*
%TO.P,C17,2*%
%TO.N,Net-(C17-Pad2)*%
X102600000Y-45462500D03*
%TD*%
D42*
%TO.P,RN7,1,R1.1*%
%TO.N,unconnected-(RN7-R1.1-Pad1)*%
X122600000Y-67000000D03*
D43*
%TO.P,RN7,2,R2.1*%
%TO.N,/SD_DAT1*%
X121800000Y-67000000D03*
%TO.P,RN7,3,R3.1*%
%TO.N,/SD_DAT0*%
X121000000Y-67000000D03*
D42*
%TO.P,RN7,4,R4.1*%
%TO.N,/SD_CLK*%
X120200000Y-67000000D03*
%TO.P,RN7,5,R4.2*%
%TO.N,/microSD/_CLK*%
X120200000Y-68800000D03*
D43*
%TO.P,RN7,6,R3.2*%
%TO.N,/microSD/_DAT0*%
X121000000Y-68800000D03*
%TO.P,RN7,7,R2.2*%
%TO.N,/microSD/_DAT1*%
X121800000Y-68800000D03*
D42*
%TO.P,RN7,8,R1.2*%
%TO.N,unconnected-(RN7-R1.2-Pad8)*%
X122600000Y-68800000D03*
%TD*%
D45*
%TO.P,D1,1,K*%
%TO.N,Net-(D1-K)*%
X149550000Y-47200000D03*
D46*
%TO.P,D1,2,A*%
%TO.N,VUSB*%
X150462000Y-47200000D03*
%TD*%
D27*
%TO.P,R1,1*%
%TO.N,/AVDD*%
X98712500Y-65200000D03*
%TO.P,R1,2*%
%TO.N,+3V3*%
X96887500Y-65200000D03*
%TD*%
D53*
%TO.P,U5,1,1*%
%TO.N,/SPI1.RX*%
X123909700Y-38150001D03*
%TO.P,U5,2,SDX*%
%TO.N,unconnected-(U5-SDX-Pad2)*%
X123909700Y-37650000D03*
%TO.P,U5,3,3*%
%TO.N,unconnected-(U5-Pad3)*%
X123909700Y-37150000D03*
%TO.P,U5,4,4*%
%TO.N,/IMU_INT1*%
X123909700Y-36649999D03*
D54*
%TO.P,U5,5,5*%
%TO.N,+3V3*%
X122999999Y-36244300D03*
%TO.P,U5,6,6*%
%TO.N,GND*%
X122500000Y-36244300D03*
%TO.P,U5,7,7*%
X122000001Y-36244300D03*
D53*
%TO.P,U5,8,8*%
%TO.N,+3V3*%
X121090300Y-36649999D03*
%TO.P,U5,9,9*%
%TO.N,/IMU_INT2*%
X121090300Y-37150000D03*
%TO.P,U5,10,10*%
%TO.N,unconnected-(U5-Pad10)*%
X121090300Y-37650000D03*
%TO.P,U5,11,11*%
%TO.N,unconnected-(U5-Pad11)*%
X121090300Y-38150001D03*
D54*
%TO.P,U5,12,12*%
%TO.N,/IMU_CS*%
X122000001Y-38555700D03*
%TO.P,U5,13,13*%
%TO.N,/SPI1.CK*%
X122500000Y-38555700D03*
%TO.P,U5,14,14*%
%TO.N,/SPI1.TX*%
X122999999Y-38555700D03*
%TD*%
D27*
%TO.P,R16,1*%
%TO.N,Net-(Q11-G)*%
X147193000Y-64643000D03*
%TO.P,R16,2*%
%TO.N,/Pyro/PYRO_HIGH*%
X145368000Y-64643000D03*
%TD*%
D33*
%TO.P,Q2,1,G*%
%TO.N,Net-(Q2-G)*%
X143769000Y-56134000D03*
%TO.P,Q2,2,S*%
%TO.N,GND*%
X145669000Y-56134000D03*
%TO.P,Q2,3,D*%
%TO.N,Net-(Q2-D)*%
X144719000Y-54259000D03*
%TD*%
D28*
%TO.P,C21,1*%
%TO.N,GND*%
X140500000Y-46437500D03*
%TO.P,C21,2*%
%TO.N,+3V3*%
X140500000Y-48162500D03*
%TD*%
D22*
%TO.P,Q6,1,G*%
%TO.N,Net-(Q6-G)*%
X143715500Y-71059000D03*
%TO.P,Q6,2,S*%
%TO.N,GND*%
X143715500Y-72959000D03*
%TO.P,Q6,3,D*%
%TO.N,Net-(Q6-D)*%
X145590500Y-72009000D03*
%TD*%
D32*
%TO.P,R18,1*%
%TO.N,/PYRO_ENABLE*%
X134200000Y-60112500D03*
%TO.P,R18,2*%
%TO.N,Net-(Q5-G)*%
X134200000Y-58287500D03*
%TD*%
%TO.P,R13,1*%
%TO.N,/PYRO_SENSE*%
X141250000Y-60112500D03*
%TO.P,R13,2*%
%TO.N,/Pyro/PYRO_LOW*%
X141250000Y-58287500D03*
%TD*%
D55*
%TO.P,Q1,1,B*%
%TO.N,Net-(Q1-B)*%
X128160000Y-46205000D03*
D56*
%TO.P,Q1,3,E*%
%TO.N,/Pyro/PYRO_HIGH*%
X132740000Y-46205000D03*
D57*
%TO.P,Q1,4,C*%
%TO.N,+BATT*%
X130470000Y-39245000D03*
%TD*%
D30*
%TO.P,R2,1*%
%TO.N,BOOTSEL*%
X95762500Y-71100000D03*
%TO.P,R2,2*%
%TO.N,/SS*%
X97587500Y-71100000D03*
%TD*%
D58*
%TO.P,U8,1,SCL/SPC*%
%TO.N,/SPI1.CK*%
X95775000Y-37100000D03*
%TO.P,U8,2,NC*%
%TO.N,unconnected-(U8-NC-Pad2)*%
X95775000Y-37600000D03*
%TO.P,U8,3,~{CS}*%
%TO.N,/MAG_CS*%
X95775000Y-38100000D03*
%TO.P,U8,4,SDA/SDI/SDO*%
%TO.N,/SPI1.TX*%
X95775000Y-38600000D03*
D59*
%TO.P,U8,5,C1*%
%TO.N,Net-(U8-C1)*%
X96287500Y-38612500D03*
%TO.P,U8,6,GND*%
%TO.N,GND*%
X96787500Y-38612500D03*
D58*
%TO.P,U8,7,DRDY*%
%TO.N,/SPI1.RX*%
X97300000Y-38600000D03*
%TO.P,U8,8,GND*%
%TO.N,GND*%
X97300000Y-38100000D03*
%TO.P,U8,9,Vdd*%
%TO.N,+3V3*%
X97300000Y-37600000D03*
%TO.P,U8,10,Vdd_IO*%
X97300000Y-37100000D03*
D59*
%TO.P,U8,11,NC*%
%TO.N,unconnected-(U8-NC-Pad11)*%
X96787500Y-37087500D03*
%TO.P,U8,12,NC*%
%TO.N,unconnected-(U8-NC-Pad12)*%
X96287500Y-37087500D03*
%TD*%
D29*
%TO.P,C4,1*%
%TO.N,+3V3*%
X93000000Y-76562500D03*
%TO.P,C4,2*%
%TO.N,GND*%
X93000000Y-74837500D03*
%TD*%
D16*
%TO.P,R20,1*%
%TO.N,SYNC*%
X148300000Y-46287500D03*
%TO.P,R20,2*%
%TO.N,Net-(D1-K)*%
X148300000Y-48112500D03*
%TD*%
%TO.P,R12,1*%
%TO.N,Net-(Q6-D)*%
X147320000Y-72112500D03*
%TO.P,R12,2*%
%TO.N,Net-(Q10-G)*%
X147320000Y-73937500D03*
%TD*%
D60*
%TO.P,L2,1,1*%
%TO.N,Net-(IC1-L2)*%
X143475000Y-50300000D03*
%TO.P,L2,2,2*%
%TO.N,Net-(IC1-L1)*%
X145625000Y-50300000D03*
%TD*%
D30*
%TO.P,R42,1*%
%TO.N,/BATT_SENSE*%
X145137500Y-35250000D03*
%TO.P,R42,2*%
%TO.N,+BATT*%
X146962500Y-35250000D03*
%TD*%
D61*
%TO.P,Q12,1,D*%
%TO.N,/Pyro/PYRO3*%
X147609000Y-57674000D03*
%TO.P,Q12,2,D*%
X146959000Y-57674000D03*
%TO.P,Q12,3,G*%
%TO.N,Net-(Q12-G)*%
X146309000Y-57674000D03*
%TO.P,Q12,4,S*%
%TO.N,/Pyro/PYRO_HIGH*%
X146309000Y-59674000D03*
%TO.P,Q12,5,D*%
%TO.N,/Pyro/PYRO3*%
X146959000Y-59674000D03*
%TO.P,Q12,6,D*%
X147609000Y-59674000D03*
D62*
%TO.P,Q12,7,D*%
X147249000Y-58654000D03*
D63*
%TO.P,Q12,8,S*%
%TO.N,/Pyro/PYRO_HIGH*%
X146269000Y-58674000D03*
%TD*%
D29*
%TO.P,C22,1*%
%TO.N,+3V3*%
X138950000Y-48162500D03*
%TO.P,C22,2*%
%TO.N,GND*%
X138950000Y-46437500D03*
%TD*%
D64*
%TO.P,C29,1*%
%TO.N,GND*%
X104609880Y-37190120D03*
%TO.P,C29,2*%
%TO.N,+3V3*%
X103390120Y-38409880D03*
%TD*%
D27*
%TO.P,R41,1*%
%TO.N,GND*%
X146962500Y-36800000D03*
%TO.P,R41,2*%
%TO.N,/BATT_SENSE*%
X145137500Y-36800000D03*
%TD*%
D26*
%TO.P,C20,1*%
%TO.N,GND*%
X143637500Y-42050000D03*
%TO.P,C20,2*%
%TO.N,Net-(IC1-VAUX)*%
X145362500Y-42050000D03*
%TD*%
D32*
%TO.P,R33,1*%
%TO.N,GND*%
X143510000Y-59840500D03*
%TO.P,R33,2*%
%TO.N,Net-(Q2-G)*%
X143510000Y-58015500D03*
%TD*%
D27*
%TO.P,R28,1*%
%TO.N,GND*%
X144422500Y-69469000D03*
%TO.P,R28,2*%
%TO.N,Net-(Q6-G)*%
X142597500Y-69469000D03*
%TD*%
D29*
%TO.P,C28,1*%
%TO.N,GND*%
X119400001Y-38443200D03*
%TO.P,C28,2*%
%TO.N,+3V3*%
X119400001Y-36718200D03*
%TD*%
D32*
%TO.P,R5,1*%
%TO.N,Net-(U1-USB_DP)*%
X82400000Y-50900000D03*
%TO.P,R5,2*%
%TO.N,D+*%
X82400000Y-49075000D03*
%TD*%
%TO.P,R21,1*%
%TO.N,Net-(IC1-FB)*%
X140500000Y-44762500D03*
%TO.P,R21,2*%
%TO.N,+3V3*%
X140500000Y-42937500D03*
%TD*%
D29*
%TO.P,C31,1*%
%TO.N,+3V3*%
X109600000Y-77362500D03*
%TO.P,C31,2*%
%TO.N,GND*%
X109600000Y-75637500D03*
%TD*%
D26*
%TO.P,C33,1*%
%TO.N,Net-(U8-C1)*%
X95337500Y-40100000D03*
%TO.P,C33,2*%
%TO.N,GND*%
X97062500Y-40100000D03*
%TD*%
D16*
%TO.P,R34,1*%
%TO.N,Net-(Q12-G)*%
X145034000Y-58015500D03*
%TO.P,R34,2*%
%TO.N,/Pyro/PYRO_HIGH*%
X145034000Y-59840500D03*
%TD*%
D33*
%TO.P,Q7,1,G*%
%TO.N,Net-(Q7-G)*%
X141864000Y-66850500D03*
%TO.P,Q7,2,S*%
%TO.N,GND*%
X143764000Y-66850500D03*
%TO.P,Q7,3,D*%
%TO.N,Net-(Q7-D)*%
X142814000Y-64975500D03*
%TD*%
D29*
%TO.P,C19,1*%
%TO.N,+3V3*%
X135850000Y-48162500D03*
%TO.P,C19,2*%
%TO.N,GND*%
X135850000Y-46437500D03*
%TD*%
D16*
%TO.P,R17,1*%
%TO.N,Net-(Q2-D)*%
X147193000Y-54205500D03*
%TO.P,R17,2*%
%TO.N,Net-(Q12-G)*%
X147193000Y-56030500D03*
%TD*%
D32*
%TO.P,R29,1*%
%TO.N,GND*%
X141224000Y-63523500D03*
%TO.P,R29,2*%
%TO.N,/PYRO_SENSE*%
X141224000Y-61698500D03*
%TD*%
D25*
%TO.P,J6,1,Pin_1*%
%TO.N,+3V3*%
X87700000Y-44660000D03*
D24*
%TO.P,J6,2,Pin_2*%
X85160000Y-44660000D03*
%TO.P,J6,3,Pin_3*%
%TO.N,/SWDCLK*%
X87700000Y-47200000D03*
%TO.P,J6,4,Pin_4*%
%TO.N,PPS*%
X85160000Y-47200000D03*
%TO.P,J6,5,Pin_5*%
%TO.N,/SWDIO*%
X87700000Y-49740000D03*
%TO.P,J6,6,Pin_6*%
%TO.N,BOOTSEL*%
X85160000Y-49740000D03*
%TO.P,J6,7,Pin_7*%
%TO.N,/GPIO39*%
X87700000Y-52280000D03*
%TO.P,J6,8,Pin_8*%
%TO.N,/RESET*%
X85160000Y-52280000D03*
%TO.P,J6,9,Pin_9*%
%TO.N,/GPIO41*%
X87700000Y-54820000D03*
%TO.P,J6,10,Pin_10*%
%TO.N,/GPIO42*%
X85160000Y-54820000D03*
%TO.P,J6,11,Pin_11*%
%TO.N,/GPIO43*%
X87700000Y-57360000D03*
%TO.P,J6,12,Pin_12*%
%TO.N,/GPIO44*%
X85160000Y-57360000D03*
%TO.P,J6,13,Pin_13*%
%TO.N,/GPIO46*%
X87700000Y-59900000D03*
%TO.P,J6,14,Pin_14*%
%TO.N,/GPIO45*%
X85160000Y-59900000D03*
%TO.P,J6,15,Pin_15*%
%TO.N,GND*%
X87700000Y-62440000D03*
%TO.P,J6,16,Pin_16*%
X85160000Y-62440000D03*
%TD*%
D25*
%TO.P,J5,1,Pin_1*%
%TO.N,+3V3*%
X123000000Y-44760000D03*
D24*
%TO.P,J5,2,Pin_2*%
X120460000Y-44760000D03*
%TO.P,J5,3,Pin_3*%
%TO.N,/PWM4*%
X123000000Y-47300000D03*
%TO.P,J5,4,Pin_4*%
%TO.N,/PWM1*%
X120460000Y-47300000D03*
%TO.P,J5,5,Pin_5*%
%TO.N,/PWM2*%
X123000000Y-49840000D03*
%TO.P,J5,6,Pin_6*%
%TO.N,/PWM3*%
X120460000Y-49840000D03*
%TO.P,J5,7,Pin_7*%
%TO.N,GND*%
X123000000Y-52380000D03*
%TO.P,J5,8,Pin_8*%
%TO.N,/GPIO20*%
X120460000Y-52380000D03*
%TO.P,J5,9,Pin_9*%
%TO.N,/RX_GPS*%
X123000000Y-54920000D03*
%TO.P,J5,10,Pin_10*%
%TO.N,/TX_GPS*%
X120460000Y-54920000D03*
%TO.P,J5,11,Pin_11*%
%TO.N,HIL_TX*%
X123000000Y-57460000D03*
%TO.P,J5,12,Pin_12*%
%TO.N,HIL_RX*%
X120460000Y-57460000D03*
%TO.P,J5,13,Pin_13*%
%TO.N,GND*%
X123000000Y-60000000D03*
%TO.P,J5,14,Pin_14*%
X120460000Y-60000000D03*
%TO.P,J5,15,Pin_15*%
%TO.N,/SDA_RADIO*%
X123000000Y-62540000D03*
%TO.P,J5,16,Pin_16*%
%TO.N,/SCL_RADIO*%
X120460000Y-62540000D03*
%TD*%
D65*
%TO.P,USB1,17,EH*%
%TO.N,GND*%
X78175000Y-43755000D03*
D66*
%TO.P,USB1,18,EH*%
X74795000Y-43755000D03*
%TO.P,USB1,19,EH*%
X74795000Y-52395000D03*
D65*
%TO.P,USB1,20,EH*%
X78175000Y-52395000D03*
D67*
%TO.P,USB1,A1,GND*%
X79155000Y-51045000D03*
%TO.P,USB1,A4,VBUS*%
%TO.N,VUSB*%
X79155000Y-50195000D03*
%TO.P,USB1,A5,CC1*%
%TO.N,Net-(USB1-CC1)*%
X79155000Y-49345000D03*
%TO.P,USB1,A6,DP1*%
%TO.N,D+*%
X79155000Y-48495000D03*
%TO.P,USB1,A7,DN1*%
%TO.N,D-*%
X79155000Y-47645000D03*
%TO.P,USB1,A8,SBU1*%
%TO.N,unconnected-(USB1-SBU1-PadA8)*%
X79155000Y-46795000D03*
%TO.P,USB1,A9,VBUS*%
%TO.N,VUSB*%
X79155000Y-45945000D03*
%TO.P,USB1,A12,GND*%
%TO.N,GND*%
X79155000Y-45095000D03*
%TO.P,USB1,B1,GND*%
X77805000Y-45095000D03*
%TO.P,USB1,B4,VBUS*%
%TO.N,VUSB*%
X77805000Y-45945000D03*
%TO.P,USB1,B5,CC2*%
%TO.N,Net-(USB1-CC2)*%
X77805000Y-46795000D03*
%TO.P,USB1,B6,DP2*%
%TO.N,D+*%
X77805000Y-47645000D03*
%TO.P,USB1,B7,DN2*%
%TO.N,D-*%
X77805000Y-48495000D03*
%TO.P,USB1,B8,SBU2*%
%TO.N,unconnected-(USB1-SBU2-PadB8)*%
X77805000Y-49345000D03*
%TO.P,USB1,B9,VBUS*%
%TO.N,VUSB*%
X77805000Y-50195000D03*
%TO.P,USB1,B12,GND*%
%TO.N,GND*%
X77805000Y-51045000D03*
%TD*%
D68*
%TO.P,J8,1,1*%
%TO.N,unconnected-(J8-Pad1)*%
X151264452Y-40651100D03*
%TO.P,J8,2,2*%
%TO.N,unconnected-(J8-Pad2)*%
X151264452Y-38151100D03*
%TO.P,J8,3,3*%
%TO.N,+BATT*%
X153764452Y-40651100D03*
%TO.P,J8,4,4*%
%TO.N,GND*%
X153764452Y-38151100D03*
%TD*%
D69*
%TO.N,GND*%
X138100000Y-61336000D03*
X139100000Y-61336000D03*
%TO.N,+1V1*%
X104400000Y-65488500D03*
X105187500Y-49562500D03*
X113437500Y-57600000D03*
X96462500Y-57575000D03*
%TO.N,VUSB*%
X150462000Y-47200000D03*
%TO.N,D+*%
X82400000Y-49000000D03*
%TO.N,/microSD/_CLK*%
X120200000Y-72000000D03*
%TO.N,/microSD/_DAT1*%
X121800000Y-70400000D03*
%TO.N,/microSD/_DAT0*%
X121000000Y-71200000D03*
%TO.N,/SD_detect*%
X116125000Y-58362500D03*
X114500000Y-66600000D03*
%TO.N,/GPIO42*%
X93500000Y-58936500D03*
%TO.N,/PWM3*%
X107187500Y-50524462D03*
X124900000Y-48947000D03*
X118700000Y-48947000D03*
%TO.N,/PWM1*%
X107987500Y-49600000D03*
%TO.N,/PWM4*%
X125900000Y-49412500D03*
X118000000Y-49198000D03*
X106787500Y-51200000D03*
%TO.N,/PWM2*%
X107532832Y-49952001D03*
%TO.N,/SCL_RADIO*%
X115900000Y-65874449D03*
%TO.N,/SDA_RADIO*%
X115393475Y-66286949D03*
%TO.N,/GPIO44*%
X95900000Y-59162500D03*
%TO.N,/GPIO41*%
X93013444Y-58630082D03*
%TO.N,/GPIO43*%
X98400000Y-58762500D03*
%TO.N,/Pyro/PYRO_HIGH*%
X144780000Y-67691000D03*
D70*
X136700000Y-53700000D03*
D69*
X146431000Y-60579000D03*
X145796000Y-74549000D03*
%TO.N,/PYRO_SENSE*%
X98500000Y-56762500D03*
X137743043Y-63656957D03*
X141224000Y-61698500D03*
X136900000Y-64400000D03*
%TO.N,/PYRO_ENABLE*%
X98207725Y-54313409D03*
X134200000Y-60112500D03*
%TO.N,/PYRO_FIRE_1*%
X97400000Y-54600000D03*
X146431000Y-68683500D03*
%TO.N,/PYRO_FIRE_2*%
X138279500Y-66167000D03*
X97100000Y-55200000D03*
%TO.N,/PYRO_FIRE_3*%
X132853350Y-56846650D03*
X97800000Y-55612500D03*
X134700000Y-56800000D03*
X142240000Y-56411500D03*
%TO.N,/SD_CMD*%
X116187500Y-64700000D03*
X117812500Y-64700000D03*
%TO.N,/microSD/_CMD*%
X118200000Y-72200000D03*
%TO.N,/SD_DAT0*%
X117900000Y-62300000D03*
X115980834Y-61619166D03*
%TO.N,/SD_CLK*%
X118900000Y-65300000D03*
X116000000Y-65300000D03*
%TO.N,/SD_DAT1*%
X115380834Y-61019166D03*
X117800000Y-61500000D03*
%TO.N,/RESET*%
X88700000Y-53700000D03*
X81600000Y-67000000D03*
X82200000Y-56900000D03*
X99800000Y-51693000D03*
X104012500Y-51300000D03*
%TO.N,/SCLK*%
X105600000Y-72900000D03*
X97400000Y-74200000D03*
%TO.N,/IMU_INT2*%
X116300000Y-45500000D03*
X117900000Y-41200000D03*
X113700000Y-45500000D03*
X118300000Y-37500000D03*
%TO.N,/IMU45_INT2*%
X106100000Y-41900000D03*
X106100000Y-40100000D03*
%TO.N,/SPI1.RX*%
X113287010Y-40625000D03*
X114899954Y-39387500D03*
X112556250Y-39043750D03*
X115806190Y-40631590D03*
%TO.N,Net-(D5-A)*%
X73412500Y-59700000D03*
%TO.N,/IMU_CS*%
X113695757Y-46617063D03*
X116407590Y-46639850D03*
X120573720Y-42473720D03*
X121800000Y-39387500D03*
%TO.N,/SPI1.CK*%
X115412500Y-40212500D03*
X113017186Y-39387500D03*
X110500000Y-40200000D03*
X113700000Y-40212500D03*
X109200000Y-41450000D03*
%TO.N,/MAG_CS*%
X113100000Y-53200000D03*
X93200000Y-38100000D03*
X113858318Y-56758318D03*
X94600000Y-38100000D03*
%TO.N,/IMU45_INT1*%
X108600000Y-41862500D03*
X109400000Y-35500000D03*
%TO.N,Net-(D6-A)*%
X73412500Y-57950000D03*
%TO.N,/IMU_INT1*%
X116300000Y-46075003D03*
X113834501Y-46059051D03*
%TO.N,/SD3*%
X105000000Y-73500000D03*
X97400000Y-75500000D03*
%TO.N,/SD0*%
X106387500Y-72400000D03*
X97400000Y-72900000D03*
%TO.N,/BARO_INT*%
X101500000Y-43000000D03*
X116100000Y-37500000D03*
%TO.N,/SPI1.TX*%
X110500000Y-41037500D03*
X121000000Y-39800000D03*
X123000000Y-39800000D03*
X111100000Y-39800000D03*
%TO.N,Net-(D7-A)*%
X73412500Y-56200000D03*
%TO.N,/BARO_CS*%
X101087500Y-43500000D03*
X117000000Y-38000000D03*
%TO.N,/IMU45_CS*%
X109600000Y-39900000D03*
X116111728Y-41118698D03*
%TO.N,Net-(Q3-D)*%
X95250000Y-69100000D03*
%TO.N,/L_RED*%
X80700000Y-55700000D03*
X89400000Y-50778500D03*
%TO.N,/L_GREEN*%
X88841500Y-51241500D03*
X81200000Y-56122532D03*
%TO.N,/L_BLUE*%
X88580500Y-53100000D03*
X81700000Y-56600000D03*
%TO.N,+3V3*%
X103662500Y-64787500D03*
X113437500Y-55600000D03*
X140500000Y-41900000D03*
X105187500Y-63500000D03*
X127600000Y-64100000D03*
X140500000Y-48162500D03*
X97462500Y-61900000D03*
X108000000Y-63937500D03*
X97362500Y-35800000D03*
X107500000Y-48762500D03*
X112800000Y-73000000D03*
X99037500Y-36487500D03*
X113737500Y-59562500D03*
X108300000Y-35226000D03*
X149237500Y-44737500D03*
X125400000Y-72800000D03*
X93000000Y-76562500D03*
X103390120Y-38409880D03*
X119400001Y-36718200D03*
X124400000Y-35300000D03*
X101412500Y-71100000D03*
X88250000Y-69100000D03*
X118845000Y-64460000D03*
X125400000Y-70400000D03*
X101037500Y-36487500D03*
X97562500Y-53600000D03*
X109000000Y-48762500D03*
X127612500Y-62500000D03*
X119670000Y-77000000D03*
X113625000Y-35775000D03*
X112800000Y-70600000D03*
X96662500Y-56100000D03*
X108100000Y-77362500D03*
X96887500Y-65200000D03*
%TO.N,/RX_GPS*%
X114200000Y-54900000D03*
X116600000Y-54900000D03*
%TO.N,/TX_GPS*%
X114587500Y-54400000D03*
X117100000Y-54400000D03*
%TO.N,PPS*%
X91250000Y-49750000D03*
X99975569Y-54276088D03*
%TO.N,/GPIO20*%
X113800000Y-51400000D03*
%TO.N,/BATT_SENSE*%
X92600000Y-54900000D03*
X92600000Y-50300000D03*
%TO.N,GND*%
X105790120Y-36009880D03*
X105050000Y-43725000D03*
X97062500Y-40100000D03*
X104300000Y-71900000D03*
X125150000Y-76500000D03*
X115162500Y-57600000D03*
X140500000Y-46437500D03*
X112600000Y-63300000D03*
X73400000Y-71412500D03*
X113910000Y-39387500D03*
X144525000Y-49037500D03*
X139100000Y-41900000D03*
X105800000Y-57375000D03*
X144422500Y-69469000D03*
X120900000Y-35300000D03*
X145669000Y-56134000D03*
X94737500Y-57575000D03*
X148200000Y-36800000D03*
X74987500Y-56200000D03*
X112490000Y-76950000D03*
X73875000Y-62500000D03*
X74987500Y-57950000D03*
X143510000Y-59840500D03*
X115162500Y-55600000D03*
X93000000Y-74837500D03*
X146766668Y-45333332D03*
X95737500Y-61900000D03*
X95637500Y-35800000D03*
X142748000Y-68072000D03*
X102600000Y-43737500D03*
X109800000Y-45400000D03*
X119400001Y-38443200D03*
X89000000Y-66912500D03*
X80687500Y-46900000D03*
X92062500Y-68550000D03*
X140059000Y-61700000D03*
X143715500Y-72959000D03*
X73887500Y-47200000D03*
X104609880Y-37190120D03*
X94937500Y-56100000D03*
X109600000Y-75637500D03*
X99037500Y-38212500D03*
X95837500Y-53600000D03*
X138406500Y-67818000D03*
X115350000Y-35775000D03*
X143637500Y-42050000D03*
X108100000Y-75637500D03*
X96937500Y-63700000D03*
X125217500Y-65525000D03*
X121870000Y-77000000D03*
X74987500Y-59700000D03*
X111600000Y-68812500D03*
X115462500Y-59600000D03*
X101937500Y-64787500D03*
X101925000Y-66300000D03*
X108000000Y-65662500D03*
X109000000Y-47037500D03*
%TO.N,/microSD/_DAT2*%
X116600000Y-70600000D03*
%TO.N,/microSD/_DAT3*%
X117400000Y-71400000D03*
%TO.N,BOOTSEL*%
X81625000Y-62500000D03*
X84150000Y-61250000D03*
%TO.N,/GPIO46*%
X94600000Y-59962500D03*
%TO.N,/GPIO45*%
X95300000Y-59562500D03*
%TO.N,/GPIO39*%
X93100000Y-55400000D03*
%TO.N,/SWDCLK*%
X104012500Y-50000000D03*
%TO.N,/SWDIO*%
X104012500Y-50600000D03*
%TD*%
D71*
%TO.N,GND*%
X140150000Y-61791000D02*
X140150000Y-63315000D01*
X140059000Y-61700000D02*
X140150000Y-61791000D01*
X140150000Y-63315000D02*
X140358500Y-63523500D01*
X140358500Y-63523500D02*
X141224000Y-63523500D01*
X140059000Y-61700000D02*
X139695000Y-61336000D01*
X138100000Y-61336000D02*
X139100000Y-61336000D01*
X139100000Y-61336000D02*
X139695000Y-61336000D01*
D10*
%TO.N,/Pyro/PYRO_HIGH*%
X145542000Y-75408000D02*
X146502000Y-75408000D01*
X146502000Y-75408000D02*
X146542000Y-75368000D01*
D72*
%TO.N,/Pyro/PYRO1*%
X146500000Y-77500000D02*
X145800000Y-77500000D01*
X146500000Y-77500000D02*
X146562000Y-77438000D01*
X146562000Y-77438000D02*
X146562000Y-76348000D01*
X145542000Y-76708000D02*
X145542000Y-76058000D01*
X148590000Y-76708000D02*
X148590000Y-76710000D01*
X148590000Y-76710000D02*
X147800000Y-77500000D01*
X147800000Y-77500000D02*
X146500000Y-77500000D01*
X145800000Y-77500000D02*
X145542000Y-77242000D01*
X145542000Y-77242000D02*
X145542000Y-76708000D01*
X149349000Y-75949000D02*
X149240000Y-76058000D01*
X149240000Y-76058000D02*
X147542000Y-76058000D01*
X149349000Y-75949000D02*
X150788000Y-74510000D01*
%TO.N,/Pyro/PYRO_HIGH*%
X145558000Y-65918000D02*
X145598000Y-65878000D01*
X145598000Y-65878000D02*
X146558000Y-65878000D01*
%TO.N,/Pyro/PYRO2*%
X148900000Y-67218000D02*
X150418000Y-67218000D01*
X150418000Y-67218000D02*
X150710000Y-67510000D01*
X150710000Y-67510000D02*
X152790000Y-67510000D01*
X152790000Y-67510000D02*
X152800000Y-67500000D01*
X148900000Y-67218000D02*
X148900000Y-67400000D01*
X148900000Y-67400000D02*
X148400000Y-67900000D01*
X148400000Y-67900000D02*
X148395000Y-67895000D01*
X148395000Y-67895000D02*
X146500000Y-67895000D01*
X146500000Y-67895000D02*
X146005000Y-67895000D01*
X146500000Y-67895000D02*
X146578000Y-67817000D01*
X146578000Y-67817000D02*
X146578000Y-66858000D01*
X145558000Y-67218000D02*
X145558000Y-66568000D01*
X146005000Y-67895000D02*
X146000000Y-67900000D01*
X146000000Y-67900000D02*
X145558000Y-67458000D01*
X145558000Y-67458000D02*
X145558000Y-67218000D01*
X147558000Y-67218000D02*
X148900000Y-67218000D01*
X148900000Y-67218000D02*
X148900000Y-67100000D01*
X148900000Y-67100000D02*
X148368000Y-66568000D01*
X148368000Y-66568000D02*
X147558000Y-66568000D01*
%TO.N,/Pyro/PYRO3*%
X150228750Y-58271250D02*
X152457500Y-60500000D01*
X149746000Y-58654000D02*
X147249000Y-58654000D01*
X150228750Y-58271250D02*
X150128750Y-58271250D01*
X150128750Y-58271250D02*
X149746000Y-58654000D01*
X147609000Y-57674000D02*
X146959000Y-57674000D01*
X147700000Y-60500000D02*
X147131232Y-60500000D01*
X147131232Y-60500000D02*
X146959000Y-60327768D01*
X146959000Y-60327768D02*
X146959000Y-59674000D01*
X147700000Y-60500000D02*
X147600000Y-60400000D01*
X152800000Y-60500000D02*
X147700000Y-60500000D01*
X147600000Y-60400000D02*
X147609000Y-60391000D01*
X147609000Y-60391000D02*
X147609000Y-59674000D01*
%TO.N,/Pyro/PYRO_HIGH*%
X145034000Y-59840500D02*
X145034000Y-59466000D01*
X145034000Y-59466000D02*
X145826000Y-58674000D01*
X145826000Y-58674000D02*
X146269000Y-58674000D01*
%TO.N,/Pyro/PYRO1*%
X147542000Y-76708000D02*
X148590000Y-76708000D01*
%TO.N,/Pyro/PYRO3*%
X152457500Y-60500000D02*
X152800000Y-60500000D01*
D71*
%TO.N,/Pyro/PYRO_LOW*%
X141250000Y-53568000D02*
X141732000Y-53086000D01*
X141250000Y-58287500D02*
X141250000Y-53568000D01*
D72*
%TO.N,/Pyro/PYRO1*%
X152790000Y-74510000D02*
X152800000Y-74500000D01*
D71*
%TO.N,/Pyro/PYRO_LOW*%
X150586000Y-53086000D02*
X152467500Y-54967500D01*
X141732000Y-53086000D02*
X150586000Y-53086000D01*
D72*
%TO.N,/Pyro/PYRO3*%
X147609000Y-57674000D02*
X149631500Y-57674000D01*
%TO.N,/Pyro/PYRO1*%
X148590000Y-76708000D02*
X149349000Y-75949000D01*
X150788000Y-74510000D02*
X152790000Y-74510000D01*
%TO.N,/Pyro/PYRO3*%
X149631500Y-57674000D02*
X150228750Y-58271250D01*
D71*
%TO.N,/Pyro/PYRO_LOW*%
X152467500Y-54967500D02*
X152467500Y-56667500D01*
X152467500Y-56667500D02*
X152800000Y-57000000D01*
D73*
%TO.N,+1V1*%
X113437500Y-57600000D02*
X113412500Y-57575000D01*
X104388500Y-64088500D02*
X103600000Y-63300000D01*
X100850000Y-57575000D02*
X96462500Y-57575000D01*
X105200000Y-49762500D02*
X105200000Y-52425000D01*
X103650100Y-66300100D02*
X103650000Y-66300000D01*
X104388500Y-65477000D02*
X104388500Y-64088500D01*
X105187500Y-49750000D02*
X105200000Y-49762500D01*
X103650100Y-68300000D02*
X103650100Y-66300100D01*
X104388500Y-65500000D02*
X104388500Y-65561500D01*
X105187500Y-49562500D02*
X105187500Y-49750000D01*
X104400000Y-65488500D02*
X104388500Y-65477000D01*
X103600000Y-63300000D02*
X103600000Y-62325000D01*
X104400000Y-65488500D02*
X104388500Y-65500000D01*
X113412500Y-57575000D02*
X110750000Y-57575000D01*
X104388500Y-65561500D02*
X103650000Y-66300000D01*
%TO.N,/LX*%
X102800000Y-67167996D02*
X102049900Y-67918096D01*
X102800000Y-62325000D02*
X102800000Y-67167996D01*
X102049900Y-67918096D02*
X102049900Y-68300000D01*
%TO.N,/AVDD*%
X98712500Y-65200000D02*
X98712500Y-63750000D01*
X102000000Y-62325000D02*
X102000000Y-63100000D01*
X101400000Y-63700000D02*
X98662500Y-63700000D01*
X98712500Y-63750000D02*
X98662500Y-63700000D01*
X102000000Y-63100000D02*
X101400000Y-63700000D01*
%TO.N,/XIN*%
X107375000Y-43700000D02*
X107350000Y-43725000D01*
X109775000Y-43700000D02*
X107375000Y-43700000D01*
X106000000Y-52425000D02*
X106000000Y-49100000D01*
X106300000Y-44775000D02*
X107350000Y-43725000D01*
X109800000Y-43675000D02*
X109775000Y-43700000D01*
X106000000Y-49100000D02*
X106300000Y-48800000D01*
X106300000Y-48800000D02*
X106300000Y-44775000D01*
D10*
%TO.N,Net-(IC1-VAUX)*%
X145362500Y-42850000D02*
X145362500Y-42050000D01*
X144250000Y-43962500D02*
X145362500Y-42850000D01*
X144250000Y-45299000D02*
X144250000Y-43962500D01*
X144275000Y-45324000D02*
X144250000Y-45299000D01*
D73*
%TO.N,Net-(U8-C1)*%
X96287500Y-39150000D02*
X95337500Y-40100000D01*
X96287500Y-38612500D02*
X96287500Y-39150000D01*
D10*
%TO.N,Net-(D1-K)*%
X145950000Y-46775000D02*
X146812500Y-46775000D01*
X146812500Y-46775000D02*
X147287500Y-47250000D01*
D71*
X149419000Y-48237500D02*
X149481500Y-48300000D01*
D10*
X147287500Y-47250000D02*
X148275000Y-48237500D01*
X147262500Y-47275000D02*
X147287500Y-47250000D01*
X145950000Y-47275000D02*
X147262500Y-47275000D01*
D71*
X149212500Y-47200000D02*
X149522000Y-47200000D01*
X148300000Y-48112500D02*
X149212500Y-47200000D01*
X148275000Y-48237500D02*
X149419000Y-48237500D01*
D10*
X145925000Y-46750000D02*
X145950000Y-46775000D01*
X145925000Y-47250000D02*
X145950000Y-47275000D01*
D74*
%TO.N,+BATT*%
X149069820Y-41169820D02*
X150000000Y-42100000D01*
D75*
X134025000Y-54905000D02*
X133930000Y-55000000D01*
D76*
X153815552Y-40600000D02*
X153764452Y-40651100D01*
D74*
X132394820Y-41169820D02*
X149069820Y-41169820D01*
X132040000Y-56160000D02*
X132040000Y-55000000D01*
D71*
X152720000Y-48300000D02*
X152920000Y-48500000D01*
D10*
X155800000Y-37000000D02*
X155800000Y-38615552D01*
D74*
X126950000Y-42765000D02*
X126950000Y-55500000D01*
D75*
X133930000Y-55000000D02*
X132040000Y-55000000D01*
D10*
X155800000Y-38615552D02*
X153764452Y-40651100D01*
D74*
X150000000Y-42100000D02*
X152315552Y-42100000D01*
X131400000Y-56800000D02*
X132040000Y-56160000D01*
D71*
X150393500Y-48300000D02*
X152720000Y-48300000D01*
D74*
X128250000Y-56800000D02*
X131400000Y-56800000D01*
X130470000Y-39245000D02*
X132394820Y-41169820D01*
D10*
X146962500Y-35250000D02*
X154050000Y-35250000D01*
D74*
X126950000Y-55500000D02*
X128250000Y-56800000D01*
D10*
X154050000Y-35250000D02*
X155800000Y-37000000D01*
D74*
X152315552Y-42100000D02*
X153764452Y-40651100D01*
X130470000Y-39245000D02*
X126950000Y-42765000D01*
D10*
%TO.N,PG*%
X144750000Y-45299000D02*
X144750000Y-44781866D01*
X144775000Y-45324000D02*
X144750000Y-45299000D01*
X146619366Y-42912500D02*
X148275000Y-42912500D01*
X144750000Y-44781866D02*
X146619366Y-42912500D01*
%TO.N,Net-(IC1-L1)*%
X145000000Y-47275000D02*
X145000000Y-48262500D01*
X145000000Y-48262500D02*
X145625000Y-48887500D01*
X145025000Y-47250000D02*
X145000000Y-47275000D01*
X145625000Y-48887500D02*
X145625000Y-50300000D01*
%TO.N,Net-(IC1-L2)*%
X144000000Y-48312500D02*
X143475000Y-48837500D01*
X143475000Y-48837500D02*
X143475000Y-50300000D01*
X144000000Y-47275000D02*
X144000000Y-48312500D01*
X144025000Y-47250000D02*
X144000000Y-47275000D01*
%TO.N,SYNC*%
X148137500Y-46275000D02*
X145950000Y-46275000D01*
X148275000Y-46412500D02*
X148137500Y-46275000D01*
X146781866Y-44500000D02*
X148275000Y-45993134D01*
X145700000Y-44500000D02*
X146781866Y-44500000D01*
X145275000Y-45324000D02*
X145250000Y-45349000D01*
X145950000Y-46275000D02*
X145925000Y-46250000D01*
X148275000Y-45993134D02*
X148275000Y-46412500D01*
X145250000Y-45349000D02*
X145250000Y-44950000D01*
X145250000Y-44950000D02*
X145700000Y-44500000D01*
%TO.N,Net-(IC1-FB)*%
X143125000Y-45750000D02*
X143100000Y-45775000D01*
X143100000Y-45775000D02*
X142475000Y-45775000D01*
X141475000Y-44775000D02*
X138750000Y-44775000D01*
X142475000Y-45775000D02*
X141475000Y-44775000D01*
%TO.N,D-*%
X80900000Y-48500000D02*
X80900000Y-49075000D01*
X77805000Y-48495000D02*
X78305000Y-48495000D01*
X80045000Y-47645000D02*
X80900000Y-48500000D01*
X79155000Y-47645000D02*
X80045000Y-47645000D01*
X78305000Y-48495000D02*
X79155000Y-47645000D01*
D73*
%TO.N,Net-(USB1-CC1)*%
X81700000Y-49544536D02*
X81700000Y-47712500D01*
X81700000Y-47712500D02*
X82512500Y-46900000D01*
X79155000Y-49345000D02*
X79610000Y-49800000D01*
X81444536Y-49800000D02*
X81700000Y-49544536D01*
X79610000Y-49800000D02*
X81444536Y-49800000D01*
%TO.N,Net-(USB1-CC2)*%
X77805000Y-46795000D02*
X77400000Y-47200000D01*
X77400000Y-47200000D02*
X75712500Y-47200000D01*
%TO.N,/microSD/_CLK*%
X123600000Y-72000000D02*
X120200000Y-72000000D01*
X120200000Y-72000000D02*
X120200000Y-68800000D01*
%TO.N,/microSD/_DAT1*%
X121800000Y-68800000D02*
X121800000Y-70400000D01*
X121800000Y-70400000D02*
X123600000Y-70400000D01*
%TO.N,/microSD/_DAT0*%
X121000000Y-71200000D02*
X123600000Y-71200000D01*
X121000000Y-68800000D02*
X121000000Y-71200000D01*
%TO.N,/SD_detect*%
X111600000Y-66987500D02*
X114112500Y-66987500D01*
X114112500Y-66987500D02*
X114500000Y-66600000D01*
X116112500Y-58375000D02*
X110750000Y-58375000D01*
X116125000Y-58362500D02*
X116112500Y-58375000D01*
%TO.N,/GPIO42*%
X100824000Y-58349000D02*
X98051000Y-58349000D01*
X97650000Y-58750000D02*
X97649000Y-58749000D01*
X97649000Y-58749000D02*
X93687500Y-58749000D01*
X100850000Y-58375000D02*
X100824000Y-58349000D01*
X98051000Y-58349000D02*
X97650000Y-58750000D01*
X93687500Y-58749000D02*
X93500000Y-58936500D01*
%TO.N,/PWM3*%
X118900500Y-48746500D02*
X118700000Y-48947000D01*
X107200000Y-50536962D02*
X107187500Y-50524462D01*
X124699500Y-48746500D02*
X118900500Y-48746500D01*
X107200000Y-52425000D02*
X107200000Y-50536962D01*
X124900000Y-48947000D02*
X124699500Y-48746500D01*
%TO.N,/PWM1*%
X108000000Y-52425000D02*
X108000000Y-49612500D01*
X108000000Y-49612500D02*
X107987500Y-49600000D01*
%TO.N,/PWM4*%
X106787500Y-51200000D02*
X106800000Y-51212500D01*
X125033278Y-48495500D02*
X125900000Y-49362222D01*
X118566722Y-48495500D02*
X125033278Y-48495500D01*
X106800000Y-51212500D02*
X106800000Y-52425000D01*
X118000000Y-49198000D02*
X118000000Y-49062222D01*
X118000000Y-49062222D02*
X118566722Y-48495500D01*
X125900000Y-49362222D02*
X125900000Y-49412500D01*
%TO.N,/PWM2*%
X107600000Y-50019169D02*
X107600000Y-52425000D01*
X107532832Y-49952001D02*
X107600000Y-50019169D01*
%TO.N,/SCL_RADIO*%
X115900000Y-65874449D02*
X115525551Y-65500000D01*
X121438500Y-61501500D02*
X124789000Y-61501500D01*
X120400000Y-62540000D02*
X121438500Y-61501500D01*
X124789000Y-61501500D02*
X125787500Y-62500000D01*
X108800000Y-63625000D02*
X108800000Y-62325000D01*
X110675000Y-65500000D02*
X108800000Y-63625000D01*
X115525551Y-65500000D02*
X110675000Y-65500000D01*
%TO.N,/SDA_RADIO*%
X115006526Y-65900000D02*
X110550000Y-65900000D01*
X124500000Y-64100000D02*
X125775000Y-64100000D01*
X122940000Y-62540000D02*
X124500000Y-64100000D01*
X108400000Y-63400000D02*
X108400000Y-62325000D01*
X110550000Y-65900000D02*
X108500000Y-63850000D01*
X108500000Y-63850000D02*
X108500000Y-63500000D01*
X108500000Y-63500000D02*
X108400000Y-63400000D01*
X115393475Y-66286949D02*
X115006526Y-65900000D01*
%TO.N,HIL_RX*%
X118990000Y-58775000D02*
X120360000Y-57405000D01*
X110750000Y-58775000D02*
X118990000Y-58775000D01*
%TO.N,/GPIO44*%
X100850000Y-59175000D02*
X95912500Y-59175000D01*
X95912500Y-59175000D02*
X95900000Y-59162500D01*
%TO.N,/GPIO41*%
X97325000Y-57975000D02*
X96802000Y-58498000D01*
X96802000Y-58498000D02*
X93145526Y-58498000D01*
X100850000Y-57975000D02*
X97325000Y-57975000D01*
X93145526Y-58498000D02*
X93013444Y-58630082D01*
%TO.N,/GPIO43*%
X98412500Y-58775000D02*
X100850000Y-58775000D01*
X98400000Y-58762500D02*
X98412500Y-58775000D01*
D71*
%TO.N,/Pyro/PYRO_LOW*%
X152800000Y-57000000D02*
X157800000Y-57000000D01*
X141250000Y-58287500D02*
X141212500Y-58250000D01*
X141212500Y-58027500D02*
X140589000Y-57404000D01*
X141212500Y-58250000D02*
X141212500Y-58027500D01*
X140589000Y-57404000D02*
X139077500Y-57404000D01*
X139077500Y-57404000D02*
X138745000Y-57736500D01*
D72*
%TO.N,/Pyro/PYRO3*%
X152800000Y-60500000D02*
X157800000Y-60500000D01*
%TO.N,/Pyro/PYRO2*%
X152800000Y-67500000D02*
X157800000Y-67500000D01*
D71*
%TO.N,/Pyro/PYRO1*%
X152800000Y-74500000D02*
X157800000Y-74500000D01*
D10*
%TO.N,Net-(Q1-B)*%
X129010000Y-55950000D02*
X128160000Y-55100000D01*
X128160000Y-55100000D02*
X128160000Y-46205000D01*
X129560000Y-55950000D02*
X129010000Y-55950000D01*
D75*
%TO.N,/Pyro/PYRO_HIGH*%
X136700000Y-50165000D02*
X135736000Y-49201000D01*
D72*
X144780000Y-67691000D02*
X144780000Y-66167000D01*
D71*
X146304000Y-59679000D02*
X146309000Y-59674000D01*
X145200500Y-59674000D02*
X145034000Y-59840500D01*
D75*
X134226000Y-49201000D02*
X132740000Y-47715000D01*
D72*
X144780000Y-66167000D02*
X145029000Y-65918000D01*
D10*
X144780000Y-76073000D02*
X144780000Y-75720000D01*
D71*
X146304000Y-60452000D02*
X146304000Y-59679000D01*
D75*
X136700000Y-53700000D02*
X136700000Y-50165000D01*
D10*
X144145000Y-76477500D02*
X144375500Y-76477500D01*
D71*
X146431000Y-60579000D02*
X146304000Y-60452000D01*
D75*
X132740000Y-47715000D02*
X132740000Y-46205000D01*
X135736000Y-49201000D02*
X134226000Y-49201000D01*
D72*
X145029000Y-65918000D02*
X145558000Y-65918000D01*
D10*
X145542000Y-74803000D02*
X145796000Y-74549000D01*
X144780000Y-75720000D02*
X145092000Y-75408000D01*
D72*
X145368000Y-65728000D02*
X145558000Y-65918000D01*
D10*
X145092000Y-75408000D02*
X145542000Y-75408000D01*
D71*
X146309000Y-59674000D02*
X145200500Y-59674000D01*
D72*
X145368000Y-64643000D02*
X145368000Y-65728000D01*
D10*
X144375500Y-76477500D02*
X144780000Y-76073000D01*
X145542000Y-75408000D02*
X145542000Y-74803000D01*
%TO.N,Net-(Q5-G)*%
X137600000Y-58750000D02*
X137795000Y-58945000D01*
X137795000Y-58945000D02*
X137795000Y-59611500D01*
X137000000Y-58750000D02*
X137600000Y-58750000D01*
X136537500Y-58287500D02*
X137000000Y-58750000D01*
X134200000Y-58287500D02*
X135900000Y-58287500D01*
X135900000Y-58287500D02*
X136537500Y-58287500D01*
%TO.N,Net-(Q6-D)*%
X145590500Y-72009000D02*
X147216500Y-72009000D01*
X147216500Y-72009000D02*
X147320000Y-72112500D01*
%TO.N,Net-(Q6-G)*%
X145391500Y-70508500D02*
X146431000Y-70508500D01*
X142597500Y-69941000D02*
X143715500Y-71059000D01*
X143715500Y-71059000D02*
X144841000Y-71059000D01*
X142597500Y-69469000D02*
X142597500Y-69941000D01*
X144841000Y-71059000D02*
X145391500Y-70508500D01*
%TO.N,Net-(Q7-D)*%
X142814000Y-64975500D02*
X142814000Y-64196000D01*
X144018000Y-62992000D02*
X145391500Y-62992000D01*
X142814000Y-64196000D02*
X144018000Y-62992000D01*
%TO.N,Net-(Q7-G)*%
X140104500Y-66167000D02*
X140104500Y-67691000D01*
X140104500Y-66167000D02*
X141478000Y-66167000D01*
X141864000Y-66553000D02*
X141864000Y-66850500D01*
X140104500Y-67691000D02*
X140231500Y-67818000D01*
X141478000Y-66167000D02*
X141864000Y-66553000D01*
%TO.N,Net-(Q10-G)*%
X144803500Y-74652500D02*
X145518500Y-73937500D01*
X145518500Y-73937500D02*
X147320000Y-73937500D01*
X147320000Y-73937500D02*
X147542000Y-74159500D01*
X144145000Y-74652500D02*
X144803500Y-74652500D01*
X147542000Y-74159500D02*
X147542000Y-75408000D01*
%TO.N,Net-(Q11-G)*%
X147558000Y-65294000D02*
X147558000Y-65918000D01*
X147193000Y-64643000D02*
X147193000Y-64929000D01*
X147193000Y-63015500D02*
X147216500Y-62992000D01*
X147193000Y-64643000D02*
X147193000Y-63015500D01*
X147193000Y-64929000D02*
X147558000Y-65294000D01*
%TO.N,Net-(Q12-G)*%
X147193000Y-56769000D02*
X147193000Y-56030500D01*
X146309000Y-57224000D02*
X146510000Y-57023000D01*
X145272000Y-57674000D02*
X146309000Y-57674000D01*
X146510000Y-57023000D02*
X146939000Y-57023000D01*
X146939000Y-57023000D02*
X147193000Y-56769000D01*
X145034000Y-57912000D02*
X145272000Y-57674000D01*
X146309000Y-57674000D02*
X146309000Y-57224000D01*
X145034000Y-58015500D02*
X145034000Y-57912000D01*
D73*
%TO.N,/SS*%
X99587500Y-74987500D02*
X99587500Y-70812500D01*
X107600000Y-63600000D02*
X107500000Y-63700000D01*
X101305000Y-76705000D02*
X99587500Y-74987500D01*
X107500000Y-63700000D02*
X107500000Y-74400000D01*
X107600000Y-62325000D02*
X107600000Y-63600000D01*
X103187500Y-76705000D02*
X101305000Y-76705000D01*
X105195000Y-76705000D02*
X103187500Y-76705000D01*
X107500000Y-74400000D02*
X105195000Y-76705000D01*
X99587500Y-71100000D02*
X97587500Y-71100000D01*
X99587500Y-71012500D02*
X99600000Y-71000000D01*
%TO.N,/XOUT*%
X105600000Y-52425000D02*
X105600000Y-47887500D01*
X105600000Y-47887500D02*
X105512500Y-47800000D01*
D10*
%TO.N,Net-(U1-USB_DP)*%
X82400000Y-50900000D02*
X83374000Y-51874000D01*
X104535034Y-70126000D02*
X105300000Y-69361034D01*
X105300000Y-69361034D02*
X105300000Y-64200000D01*
D73*
X104400000Y-63300000D02*
X104400000Y-62325000D01*
D10*
X86726000Y-70126000D02*
X104535034Y-70126000D01*
X83374000Y-51874000D02*
X83374000Y-66774000D01*
X83374000Y-66774000D02*
X86726000Y-70126000D01*
D73*
X104400000Y-63300000D02*
X105300000Y-64200000D01*
%TO.N,Net-(U1-USB_DM)*%
X104974000Y-64228968D02*
X104000000Y-63254968D01*
X104000000Y-63254968D02*
X104000000Y-62325000D01*
D10*
X86861034Y-69800000D02*
X83700000Y-66638966D01*
X104974000Y-69226000D02*
X104400000Y-69800000D01*
X104974000Y-64500000D02*
X104974000Y-69226000D01*
X83700000Y-50900000D02*
X82800000Y-50000000D01*
X82800000Y-50000000D02*
X81800000Y-50000000D01*
X104400000Y-69800000D02*
X86861034Y-69800000D01*
X83700000Y-66638966D02*
X83700000Y-50900000D01*
X81800000Y-50000000D02*
X80900000Y-50900000D01*
D73*
X104974000Y-64500000D02*
X104974000Y-64228968D01*
D10*
%TO.N,Net-(R8-Pad1)*%
X132087500Y-50587500D02*
X131500000Y-50587500D01*
X132595000Y-51095000D02*
X132087500Y-50587500D01*
X134025000Y-51095000D02*
X132595000Y-51095000D01*
D73*
%TO.N,/PYRO_SENSE*%
X136900000Y-64400000D02*
X137000000Y-64400000D01*
X141224000Y-61698500D02*
X141224000Y-61468000D01*
X141250000Y-61442000D02*
X141250000Y-60112500D01*
X141224000Y-61468000D02*
X141250000Y-61442000D01*
X137000000Y-64400000D02*
X137743043Y-63656957D01*
X100850000Y-56775000D02*
X98512500Y-56775000D01*
X98512500Y-56775000D02*
X98500000Y-56762500D01*
%TO.N,/PYRO_ENABLE*%
X100850000Y-54775000D02*
X98669316Y-54775000D01*
X98669316Y-54775000D02*
X98207725Y-54313409D01*
%TO.N,/PYRO_FIRE_1*%
X97526909Y-54726909D02*
X98226909Y-54726909D01*
X98226909Y-54726909D02*
X98675000Y-55175000D01*
X98675000Y-55175000D02*
X100850000Y-55175000D01*
X97400000Y-54600000D02*
X97526909Y-54726909D01*
%TO.N,/PYRO_FIRE_2*%
X98225000Y-55200000D02*
X98600000Y-55575000D01*
X97100000Y-55200000D02*
X98225000Y-55200000D01*
X98600000Y-55575000D02*
X100850000Y-55575000D01*
%TO.N,/PYRO_FIRE_3*%
X98162500Y-55975000D02*
X100850000Y-55975000D01*
X97800000Y-55612500D02*
X98162500Y-55975000D01*
X134653350Y-56846650D02*
X134700000Y-56800000D01*
X132853350Y-56846650D02*
X134653350Y-56846650D01*
%TO.N,/SD_DAT2*%
X116600000Y-61654968D02*
X116600000Y-67000000D01*
X115320032Y-60375000D02*
X116600000Y-61654968D01*
X110750000Y-60375000D02*
X115320032Y-60375000D01*
%TO.N,/SD_DAT3*%
X117400000Y-67000000D02*
X117400000Y-62100000D01*
X117400000Y-62100000D02*
X115275000Y-59975000D01*
X115275000Y-59975000D02*
X110750000Y-59975000D01*
%TO.N,/SD_CMD*%
X109600000Y-63200000D02*
X109600000Y-62325000D01*
X116187500Y-64700000D02*
X111100000Y-64700000D01*
X111100000Y-64700000D02*
X109600000Y-63200000D01*
X118200000Y-65087500D02*
X118200000Y-67000000D01*
X117812500Y-64700000D02*
X118200000Y-65087500D01*
%TO.N,/microSD/_CMD*%
X114600000Y-72200000D02*
X118200000Y-72200000D01*
X118200000Y-72200000D02*
X118200000Y-68800000D01*
%TO.N,/SD_DAT0*%
X114500000Y-61175000D02*
X110750000Y-61175000D01*
X121000000Y-65400000D02*
X121000000Y-67000000D01*
X115980834Y-61619166D02*
X114944166Y-61619166D01*
X114944166Y-61619166D02*
X114500000Y-61175000D01*
X117900000Y-62300000D02*
X121000000Y-65400000D01*
%TO.N,/SD_CLK*%
X109200000Y-63500000D02*
X109200000Y-62325000D01*
X110800000Y-65100000D02*
X109200000Y-63500000D01*
X118900000Y-65300000D02*
X119600000Y-65300000D01*
X120200000Y-65900000D02*
X120200000Y-67000000D01*
X119600000Y-65300000D02*
X120200000Y-65900000D01*
X116000000Y-65300000D02*
X115800000Y-65100000D01*
X115800000Y-65100000D02*
X110800000Y-65100000D01*
%TO.N,/SD_DAT1*%
X115380834Y-61019166D02*
X115119166Y-61019166D01*
X121800000Y-65500000D02*
X121800000Y-67000000D01*
X115119166Y-61019166D02*
X114875000Y-60775000D01*
X114875000Y-60775000D02*
X110750000Y-60775000D01*
X117800000Y-61500000D02*
X121800000Y-65500000D01*
%TO.N,/RESET*%
X99638500Y-51531500D02*
X99800000Y-51693000D01*
X104012500Y-51300000D02*
X104012500Y-51487500D01*
X90968500Y-51531500D02*
X99638500Y-51531500D01*
X86580000Y-53700000D02*
X85160000Y-52280000D01*
X88700000Y-53700000D02*
X88800000Y-53700000D01*
X82200000Y-66400000D02*
X81600000Y-67000000D01*
X88800000Y-53700000D02*
X90968500Y-51531500D01*
X104012500Y-51487500D02*
X104000000Y-51500000D01*
X104000000Y-51500000D02*
X104000000Y-52425000D01*
X82200000Y-56900000D02*
X82200000Y-66400000D01*
X88700000Y-53700000D02*
X86580000Y-53700000D01*
%TO.N,/SCLK*%
X106000000Y-71800000D02*
X106000000Y-62325000D01*
X97400000Y-74200000D02*
X97365000Y-74165000D01*
X105600000Y-72200000D02*
X106000000Y-71800000D01*
X105600000Y-72900000D02*
X105600000Y-72200000D01*
X97365000Y-74165000D02*
X96012500Y-74165000D01*
%TO.N,/IMU_INT2*%
X108800000Y-49800000D02*
X109900000Y-48700000D01*
X108800000Y-52425000D02*
X108800000Y-49800000D01*
X120000000Y-37500000D02*
X120350000Y-37150000D01*
X120350000Y-37150000D02*
X121090300Y-37150000D01*
X118300000Y-37500000D02*
X120000000Y-37500000D01*
X113100000Y-45500000D02*
X113700000Y-45500000D01*
X116300000Y-45500000D02*
X117900000Y-43900000D01*
X109900000Y-48700000D02*
X113100000Y-45500000D01*
X117900000Y-43900000D02*
X117900000Y-41200000D01*
%TO.N,/SD2*%
X106800000Y-73200000D02*
X105835000Y-74165000D01*
X106800000Y-62325000D02*
X106800000Y-73200000D01*
X105835000Y-74165000D02*
X103187500Y-74165000D01*
%TO.N,/IMU45_INT2*%
X112925000Y-53975000D02*
X114498000Y-52402000D01*
X113576000Y-42276000D02*
X106476000Y-42276000D01*
X106476000Y-42276000D02*
X106100000Y-41900000D01*
X114498000Y-43198000D02*
X113576000Y-42276000D01*
X106100000Y-39446447D02*
X106926415Y-38620032D01*
X114498000Y-52402000D02*
X114498000Y-43198000D01*
X106100000Y-40100000D02*
X106100000Y-39446447D01*
X110750000Y-53975000D02*
X112925000Y-53975000D01*
%TO.N,/SPI1.RX*%
X115576000Y-55869032D02*
X114270032Y-57175000D01*
X115576000Y-54876000D02*
X115576000Y-55869032D01*
X124550001Y-38150001D02*
X123909700Y-38150001D01*
X115806190Y-40631590D02*
X124068410Y-40631590D01*
X111300000Y-36500000D02*
X110460661Y-36500000D01*
X114899954Y-39387500D02*
X114899954Y-38562546D01*
X124068410Y-40631590D02*
X125100000Y-39600000D01*
X98100000Y-38600000D02*
X97300000Y-38600000D01*
X115502000Y-42779696D02*
X115502000Y-54802000D01*
X111700000Y-38187500D02*
X111700000Y-36900000D01*
X114899954Y-38562546D02*
X114900000Y-38562500D01*
X100125000Y-40625000D02*
X98100000Y-38600000D01*
X111700000Y-36900000D02*
X111300000Y-36500000D01*
X115502000Y-40935780D02*
X115806190Y-40631590D01*
X115502000Y-54802000D02*
X115576000Y-54876000D01*
X110460661Y-36500000D02*
X109627139Y-37333522D01*
X112556250Y-39043750D02*
X111700000Y-38187500D01*
X125100000Y-38700000D02*
X124550001Y-38150001D01*
X115502000Y-42779696D02*
X115502000Y-40935780D01*
X125100000Y-39600000D02*
X125100000Y-38700000D01*
X114270032Y-57175000D02*
X110750000Y-57175000D01*
X113287010Y-40625000D02*
X100125000Y-40625000D01*
%TO.N,Net-(D5-A)*%
X76352500Y-59000000D02*
X74112500Y-59000000D01*
X74112500Y-59000000D02*
X73412500Y-59700000D01*
%TO.N,/IMU_CS*%
X109600000Y-50200000D02*
X110200000Y-49600000D01*
X122000001Y-39187499D02*
X121800000Y-39387500D01*
X109600000Y-52425000D02*
X109600000Y-50200000D01*
X113182937Y-46617063D02*
X113695757Y-46617063D01*
X110200000Y-49600000D02*
X113182937Y-46617063D01*
X122000001Y-38555700D02*
X122000001Y-39187499D01*
X116407590Y-46639850D02*
X120573720Y-42473720D01*
%TO.N,/SPI1.CK*%
X113017186Y-38232814D02*
X113200000Y-38050000D01*
X122187500Y-40212500D02*
X122500000Y-39900000D01*
X115251000Y-40374000D02*
X115412500Y-40212500D01*
X115251000Y-42332364D02*
X115251000Y-40374000D01*
X111500000Y-40212500D02*
X111300000Y-40212500D01*
X110512500Y-40212500D02*
X110500000Y-40200000D01*
X113700000Y-40212500D02*
X111500000Y-40212500D01*
X115251000Y-54803968D02*
X115251000Y-53800000D01*
X113679968Y-56375000D02*
X114877484Y-55177484D01*
X93950000Y-41450000D02*
X92900000Y-40400000D01*
X94900000Y-37100000D02*
X95775000Y-37100000D01*
X113017186Y-39387500D02*
X113017186Y-38232814D01*
X115412500Y-40212500D02*
X122187500Y-40212500D01*
X122500000Y-39900000D02*
X122500000Y-38955700D01*
X109200000Y-41450000D02*
X93950000Y-41450000D01*
X113200000Y-38050000D02*
X113637500Y-38050000D01*
X115251000Y-53800000D02*
X115251000Y-42332364D01*
X110750000Y-56375000D02*
X113679968Y-56375000D01*
X111300000Y-40212500D02*
X110512500Y-40212500D01*
X92900000Y-39100000D02*
X94900000Y-37100000D01*
X92900000Y-40400000D02*
X92900000Y-39100000D01*
X114877484Y-55177484D02*
X115251000Y-54803968D01*
X110500000Y-40200000D02*
X108917203Y-38617203D01*
%TO.N,/MAG_CS*%
X94327000Y-42527000D02*
X92500000Y-40700000D01*
X114247000Y-44321516D02*
X114247000Y-43301968D01*
X92500000Y-40700000D02*
X92500000Y-38800000D01*
X113841636Y-56775000D02*
X113858318Y-56758318D01*
X113472032Y-42527000D02*
X112700000Y-42527000D01*
X110750000Y-56775000D02*
X113841636Y-56775000D01*
X113100000Y-53200000D02*
X114247000Y-52053000D01*
X114247000Y-43301968D02*
X113472032Y-42527000D01*
X114247000Y-52053000D02*
X114247000Y-44321516D01*
X92500000Y-38800000D02*
X93200000Y-38100000D01*
X94600000Y-38100000D02*
X95775000Y-38100000D01*
X112700000Y-42527000D02*
X94327000Y-42527000D01*
%TO.N,/IMU45_INT1*%
X113611500Y-41862500D02*
X108600000Y-41862500D01*
X114749000Y-43000000D02*
X113611500Y-41862500D01*
X110750000Y-54375000D02*
X113225000Y-54375000D01*
X109400000Y-35500000D02*
X109339339Y-35500000D01*
X109339339Y-35500000D02*
X108566478Y-36272861D01*
X113225000Y-54375000D02*
X114749000Y-52851000D01*
X114749000Y-52851000D02*
X114749000Y-43000000D01*
%TO.N,Net-(D6-A)*%
X73412500Y-57950000D02*
X73826000Y-58363500D01*
X75700000Y-58200000D02*
X76352500Y-58200000D01*
X75536500Y-58363500D02*
X75700000Y-58200000D01*
X73826000Y-58363500D02*
X75536500Y-58363500D01*
%TO.N,/IMU_INT1*%
X124200000Y-41300000D02*
X125800000Y-39700000D01*
X116324997Y-46075003D02*
X121100000Y-41300000D01*
X116300000Y-46075003D02*
X116324997Y-46075003D01*
X125800000Y-37300000D02*
X125149999Y-36649999D01*
X109200000Y-52425000D02*
X109200000Y-50000000D01*
X125149999Y-36649999D02*
X123909700Y-36649999D01*
X109200000Y-50000000D02*
X111800000Y-47400000D01*
X111800000Y-47400000D02*
X113140949Y-46059051D01*
X121100000Y-41300000D02*
X124200000Y-41300000D01*
X113140949Y-46059051D02*
X113834501Y-46059051D01*
X125800000Y-39700000D02*
X125800000Y-37300000D01*
%TO.N,/SD3*%
X105000000Y-73500000D02*
X105000000Y-72300000D01*
X97335000Y-75435000D02*
X96012500Y-75435000D01*
X105000000Y-72300000D02*
X105600000Y-71700000D01*
X97400000Y-75500000D02*
X97335000Y-75435000D01*
X105600000Y-71700000D02*
X105600000Y-62325000D01*
%TO.N,/SD0*%
X106387500Y-72400000D02*
X106400000Y-72387500D01*
X106400000Y-72387500D02*
X106400000Y-62325000D01*
X97395000Y-72895000D02*
X96012500Y-72895000D01*
X97400000Y-72900000D02*
X97395000Y-72895000D01*
%TO.N,/BARO_INT*%
X116050000Y-37550000D02*
X115162500Y-37550000D01*
X102400000Y-47900000D02*
X101500000Y-47000000D01*
X103600000Y-49100000D02*
X102400000Y-47900000D01*
X103600000Y-52425000D02*
X103600000Y-49100000D01*
X116100000Y-37500000D02*
X116050000Y-37550000D01*
X101500000Y-47000000D02*
X101500000Y-43000000D01*
%TO.N,/SPI1.TX*%
X110807105Y-39800000D02*
X110803553Y-39796447D01*
X110500000Y-41037500D02*
X94137500Y-41037500D01*
X113200000Y-56100000D02*
X113600000Y-56100000D01*
X93400000Y-39300000D02*
X94100000Y-38600000D01*
X94137500Y-41037500D02*
X93400000Y-40300000D01*
X115000000Y-39800000D02*
X121000000Y-39800000D01*
X94100000Y-38600000D02*
X95775000Y-38600000D01*
X123000000Y-39800000D02*
X122999999Y-38955700D01*
X113075000Y-55975000D02*
X113200000Y-56100000D01*
X114400000Y-38562500D02*
X114400000Y-39800000D01*
X113600000Y-56100000D02*
X115000000Y-54700000D01*
X115000000Y-39800000D02*
X114400000Y-39800000D01*
X93400000Y-40300000D02*
X93400000Y-39300000D01*
X111100000Y-39800000D02*
X110807105Y-39800000D01*
X114400000Y-39800000D02*
X111100000Y-39800000D01*
X110750000Y-55975000D02*
X113075000Y-55975000D01*
X110803553Y-39796447D02*
X109270756Y-38263651D01*
X115000000Y-54700000D02*
X115000000Y-39800000D01*
%TO.N,Net-(D7-A)*%
X76352500Y-57400000D02*
X75486500Y-57400000D01*
X76339000Y-56613500D02*
X74700000Y-56613500D01*
X76352500Y-56600000D02*
X76339000Y-56613500D01*
X73826000Y-56613500D02*
X73412500Y-56200000D01*
X74700000Y-56613500D02*
X73826000Y-56613500D01*
X75486500Y-57400000D02*
X74700000Y-56613500D01*
%TO.N,/BARO_CS*%
X103200000Y-49054968D02*
X101087500Y-46942468D01*
X117000000Y-38000000D02*
X116950000Y-38050000D01*
X103200000Y-52425000D02*
X103200000Y-49054968D01*
X116950000Y-38050000D02*
X115162500Y-38050000D01*
X101087500Y-46942468D02*
X101087500Y-43500000D01*
%TO.N,/IMU45_CS*%
X115753000Y-54698032D02*
X115753000Y-43247000D01*
X109600000Y-39900000D02*
X109492895Y-39900000D01*
X110750000Y-57975000D02*
X113075000Y-57975000D01*
X113700000Y-58100000D02*
X115827000Y-55973000D01*
X115753000Y-41477426D02*
X116111728Y-41118698D01*
X115827000Y-55973000D02*
X115827000Y-54772032D01*
X109492895Y-39900000D02*
X108563651Y-38970756D01*
X113200000Y-58100000D02*
X113700000Y-58100000D01*
X115753000Y-43247000D02*
X115753000Y-41477426D01*
X113075000Y-57975000D02*
X113200000Y-58100000D01*
X115827000Y-54772032D02*
X115753000Y-54698032D01*
%TO.N,/SD1*%
X107200000Y-62325000D02*
X107200000Y-73600000D01*
X105365000Y-75435000D02*
X103187500Y-75435000D01*
X107200000Y-73600000D02*
X105365000Y-75435000D01*
%TO.N,Net-(Q3-D)*%
X93937500Y-67600000D02*
X95100000Y-67600000D01*
X95250000Y-67750000D02*
X95250000Y-69100000D01*
X95100000Y-67600000D02*
X95250000Y-67750000D01*
%TO.N,unconnected-(U8-NC-Pad11)*%
X96787500Y-37087500D02*
X96787500Y-36387500D01*
%TO.N,unconnected-(U8-NC-Pad2)*%
X95775000Y-37600000D02*
X95100000Y-37600000D01*
%TO.N,unconnected-(U8-NC-Pad12)*%
X96287500Y-37087500D02*
X96287500Y-36412500D01*
%TO.N,Net-(Q3-G)*%
X87500000Y-66912500D02*
X87500000Y-67600000D01*
X90750000Y-66650000D02*
X92062500Y-66650000D01*
X89300000Y-68100000D02*
X90750000Y-66650000D01*
X88000000Y-68100000D02*
X89300000Y-68100000D01*
X87500000Y-67600000D02*
X88000000Y-68100000D01*
%TO.N,/BUZZ*%
X89600000Y-64487500D02*
X89600000Y-55700000D01*
X87500000Y-65087500D02*
X89000000Y-65087500D01*
X100257532Y-53975000D02*
X100850000Y-53975000D01*
X89000000Y-65087500D02*
X89600000Y-64487500D01*
X99782532Y-53500000D02*
X100257532Y-53975000D01*
X97733778Y-54013500D02*
X98247278Y-53500000D01*
X98247278Y-53500000D02*
X99782532Y-53500000D01*
X89600000Y-55700000D02*
X91286500Y-54013500D01*
X91286500Y-54013500D02*
X97733778Y-54013500D01*
%TO.N,/L_RED*%
X102391234Y-50778500D02*
X102800000Y-51187266D01*
X102800000Y-51187266D02*
X102800000Y-52425000D01*
X79400000Y-57000000D02*
X80700000Y-55700000D01*
X79200000Y-57200000D02*
X79000000Y-57400000D01*
X78152500Y-56600000D02*
X78800000Y-56600000D01*
X79000000Y-57400000D02*
X78152500Y-57400000D01*
X79200000Y-57000000D02*
X79400000Y-57000000D01*
X79400000Y-57000000D02*
X79200000Y-57200000D01*
X78800000Y-56600000D02*
X79200000Y-57000000D01*
X89400000Y-50778500D02*
X102391234Y-50778500D01*
X79200000Y-57000000D02*
X79200000Y-57200000D01*
%TO.N,/L_GREEN*%
X88841500Y-51241500D02*
X89758500Y-51241500D01*
X81200000Y-56122532D02*
X79122532Y-58200000D01*
X79122532Y-58200000D02*
X78152500Y-58200000D01*
X89970500Y-51029500D02*
X102200000Y-51029500D01*
X102200000Y-51029500D02*
X102400000Y-51229500D01*
X89758500Y-51241500D02*
X89970500Y-51029500D01*
X102400000Y-51229500D02*
X102400000Y-52425000D01*
%TO.N,/L_BLUE*%
X102000000Y-51480500D02*
X102000000Y-52425000D01*
X88580500Y-53100000D02*
X90400000Y-51280500D01*
X101800000Y-51280500D02*
X102000000Y-51480500D01*
X79300000Y-59000000D02*
X81700000Y-56600000D01*
X90400000Y-51280500D02*
X101800000Y-51280500D01*
X78152500Y-59000000D02*
X79300000Y-59000000D01*
%TO.N,+3V3*%
X113637500Y-37550000D02*
X113150000Y-37550000D01*
D10*
X138950000Y-48162500D02*
X137400000Y-48162500D01*
D73*
X106300000Y-49962500D02*
X106300000Y-51412500D01*
X105839339Y-39000000D02*
X103980240Y-39000000D01*
X97925000Y-37600000D02*
X99037500Y-36487500D01*
X108000000Y-62325000D02*
X108000000Y-63937500D01*
X97800000Y-37100000D02*
X98000000Y-36900000D01*
D10*
X143100000Y-46775000D02*
X143125000Y-46750000D01*
D73*
X118970000Y-77700000D02*
X119670000Y-77000000D01*
X97737500Y-57175000D02*
X100850000Y-57175000D01*
X113737500Y-59562500D02*
X113437500Y-59562500D01*
X122999999Y-36244300D02*
X122999999Y-35131800D01*
X113000000Y-37400000D02*
X113000000Y-36400000D01*
X125400000Y-72800000D02*
X125400000Y-72000000D01*
X97300000Y-37600000D02*
X97925000Y-37600000D01*
D10*
X141750000Y-47750000D02*
X142725000Y-46775000D01*
D73*
X103980240Y-39000000D02*
X103590120Y-38609880D01*
X108768750Y-48762500D02*
X108400000Y-49131250D01*
X98000000Y-36900000D02*
X98000000Y-36437500D01*
X96012500Y-76705000D02*
X93142500Y-76705000D01*
X109937500Y-77700000D02*
X118970000Y-77700000D01*
X97300000Y-37100000D02*
X97800000Y-37100000D01*
X103600000Y-63700000D02*
X103600000Y-64725000D01*
X97462500Y-61900000D02*
X98187500Y-61175000D01*
D10*
X140500000Y-48162500D02*
X138950000Y-48162500D01*
D73*
X122999999Y-35131800D02*
X123387499Y-34744300D01*
X103200000Y-62325000D02*
X103200000Y-63300000D01*
X113437500Y-55600000D02*
X113412500Y-55575000D01*
X113000000Y-36400000D02*
X113625000Y-35775000D01*
X107636349Y-36629244D02*
X107009880Y-36002775D01*
X123844300Y-34744300D02*
X124400000Y-35300000D01*
D10*
X141750000Y-47750000D02*
X142225000Y-47275000D01*
D73*
X109000000Y-48762500D02*
X108768750Y-48762500D01*
X113900000Y-37037500D02*
X113900000Y-36050000D01*
X113425000Y-59575000D02*
X110750000Y-59575000D01*
X106572861Y-38266478D02*
X105839339Y-39000000D01*
X123387499Y-34744300D02*
X123844300Y-34744300D01*
X112800000Y-70600000D02*
X112800000Y-71400000D01*
X99900000Y-60775000D02*
X99500000Y-61175000D01*
X103600000Y-64725000D02*
X103662500Y-64787500D01*
D10*
X149237500Y-44737500D02*
X148275000Y-44737500D01*
D73*
X108100000Y-77362500D02*
X109600000Y-77362500D01*
X105200000Y-62325000D02*
X105200000Y-63487500D01*
X125400000Y-72000000D02*
X125400000Y-71200000D01*
X103200000Y-63300000D02*
X103600000Y-63700000D01*
X106400000Y-51512500D02*
X106400000Y-52425000D01*
X98187500Y-61175000D02*
X99500000Y-61175000D01*
D10*
X142725000Y-46775000D02*
X143100000Y-46775000D01*
D73*
X119468202Y-36649999D02*
X119400001Y-36718200D01*
X113900000Y-36050000D02*
X113625000Y-35775000D01*
D10*
X135850000Y-48162500D02*
X137400000Y-48162500D01*
D73*
X99037500Y-36487500D02*
X101037500Y-36487500D01*
D10*
X141750000Y-47750000D02*
X141337500Y-48162500D01*
D73*
X107500000Y-48762500D02*
X106300000Y-49962500D01*
X104800000Y-62325000D02*
X104800000Y-63112500D01*
X107009880Y-36002775D02*
X107009880Y-34790120D01*
X98162500Y-53000000D02*
X97562500Y-53600000D01*
X106300000Y-51412500D02*
X106400000Y-51512500D01*
X113412500Y-55575000D02*
X110750000Y-55575000D01*
X104800000Y-63112500D02*
X105187500Y-63500000D01*
X100850000Y-60775000D02*
X99900000Y-60775000D01*
X112800000Y-73000000D02*
X112800000Y-72200000D01*
X121090300Y-36649999D02*
X119468202Y-36649999D01*
X113437500Y-59562500D02*
X113425000Y-59575000D01*
D10*
X143100000Y-47275000D02*
X143125000Y-47250000D01*
D73*
X100212500Y-53575000D02*
X99637500Y-53000000D01*
X107009880Y-34790120D02*
X107864120Y-34790120D01*
X100850000Y-53575000D02*
X100212500Y-53575000D01*
X99637500Y-53000000D02*
X98162500Y-53000000D01*
D10*
X140500000Y-42950000D02*
X140500000Y-41900000D01*
D73*
X113150000Y-37550000D02*
X113000000Y-37400000D01*
X98000000Y-36437500D02*
X97362500Y-35800000D01*
X107864120Y-34790120D02*
X108300000Y-35226000D01*
X125400000Y-70400000D02*
X125400000Y-71200000D01*
X108400000Y-49131250D02*
X108400000Y-52425000D01*
X96662500Y-56100000D02*
X97737500Y-57175000D01*
X112800000Y-72200000D02*
X112800000Y-71400000D01*
X105200000Y-63487500D02*
X105187500Y-63500000D01*
D10*
X141337500Y-48162500D02*
X140500000Y-48162500D01*
D73*
X93142500Y-76705000D02*
X93000000Y-76562500D01*
X99500000Y-61175000D02*
X100850000Y-61175000D01*
X109600000Y-77362500D02*
X109937500Y-77700000D01*
D10*
X142225000Y-47275000D02*
X143100000Y-47275000D01*
D73*
%TO.N,/RX_GPS*%
X121665000Y-56100000D02*
X122900000Y-54865000D01*
X113925000Y-55175000D02*
X114200000Y-54900000D01*
X117800000Y-56100000D02*
X121665000Y-56100000D01*
X116600000Y-54900000D02*
X117800000Y-56100000D01*
X110750000Y-55175000D02*
X113925000Y-55175000D01*
%TO.N,/TX_GPS*%
X113740222Y-54775000D02*
X114115222Y-54400000D01*
X117565000Y-54865000D02*
X120360000Y-54865000D01*
X117100000Y-54400000D02*
X117565000Y-54865000D01*
X114115222Y-54400000D02*
X114587500Y-54400000D01*
X110750000Y-54775000D02*
X113740222Y-54775000D01*
%TO.N,PPS*%
X100074481Y-54375000D02*
X99975569Y-54276088D01*
X100850000Y-54375000D02*
X100074481Y-54375000D01*
X90000000Y-48500000D02*
X86460000Y-48500000D01*
X86460000Y-48500000D02*
X85160000Y-47200000D01*
X91250000Y-49750000D02*
X90000000Y-48500000D01*
%TO.N,HIL_TX*%
X119825000Y-58500000D02*
X121805000Y-58500000D01*
X119299000Y-59026000D02*
X119825000Y-58500000D01*
X113074000Y-59026000D02*
X119299000Y-59026000D01*
X121805000Y-58500000D02*
X122900000Y-57405000D01*
X110750000Y-59175000D02*
X112925000Y-59175000D01*
X112925000Y-59175000D02*
X113074000Y-59026000D01*
%TO.N,/GPIO20*%
X111625000Y-53575000D02*
X110750000Y-53575000D01*
X113800000Y-51400000D02*
X111625000Y-53575000D01*
%TO.N,/BATT_SENSE*%
X92600000Y-50300000D02*
X91100000Y-48800000D01*
X91100000Y-37200000D02*
X94436500Y-33863500D01*
X94175000Y-60375000D02*
X100850000Y-60375000D01*
X145137500Y-35250000D02*
X145137500Y-36800000D01*
X91100000Y-48800000D02*
X91100000Y-37200000D01*
X144450000Y-35250000D02*
X145137500Y-35250000D01*
X92600000Y-54900000D02*
X92600000Y-58800000D01*
X94436500Y-33863500D02*
X143063500Y-33863500D01*
X143063500Y-33863500D02*
X144450000Y-35250000D01*
X92600000Y-58800000D02*
X94175000Y-60375000D01*
D10*
%TO.N,GND*%
X143764000Y-67691000D02*
X143764000Y-66850500D01*
D71*
X139695000Y-61336000D02*
X139695000Y-59817000D01*
D73*
X121455700Y-34744300D02*
X120900000Y-35300000D01*
D10*
X142748000Y-68072000D02*
X143383000Y-68072000D01*
X140500000Y-46437500D02*
X141562500Y-46437500D01*
D73*
X122500000Y-36244300D02*
X122500000Y-35581801D01*
D10*
X143750000Y-45299000D02*
X143775000Y-45324000D01*
X146962500Y-36800000D02*
X148200000Y-36800000D01*
X146325000Y-45775000D02*
X146766668Y-45333332D01*
D73*
X105790120Y-36197225D02*
X105790120Y-36009880D01*
X109800000Y-45400000D02*
X107425000Y-45400000D01*
X114400000Y-37037500D02*
X114400000Y-36500000D01*
X114400000Y-36500000D02*
X115125000Y-35775000D01*
D10*
X139100000Y-41900000D02*
X138750000Y-42250000D01*
D73*
X97300000Y-38100000D02*
X98925000Y-38100000D01*
X104182500Y-71900000D02*
X104300000Y-71900000D01*
X96787500Y-39825000D02*
X97062500Y-40100000D01*
X113900000Y-39200000D02*
X113900000Y-38562500D01*
D10*
X138950000Y-46437500D02*
X137400000Y-46437500D01*
X140500000Y-46500000D02*
X138750000Y-46500000D01*
D73*
X122000001Y-36244300D02*
X122000001Y-35081802D01*
D71*
X137586000Y-61336000D02*
X138100000Y-61336000D01*
D73*
X101937500Y-66287500D02*
X101925000Y-66300000D01*
D10*
X141725000Y-46275000D02*
X143100000Y-46275000D01*
D73*
X121662499Y-34744300D02*
X121455700Y-34744300D01*
X115125000Y-35775000D02*
X115350000Y-35775000D01*
D10*
X143662500Y-42075000D02*
X143662500Y-42825000D01*
D73*
X122000001Y-35081802D02*
X121662499Y-34744300D01*
X114900000Y-37037500D02*
X114900000Y-36225000D01*
X114900000Y-36225000D02*
X115350000Y-35775000D01*
X96787500Y-38612500D02*
X96787500Y-39825000D01*
D71*
X136691770Y-60454268D02*
X136704268Y-60454268D01*
D73*
X101937500Y-64787500D02*
X101937500Y-66287500D01*
X102400000Y-64325000D02*
X101937500Y-64787500D01*
D10*
X137400000Y-46437500D02*
X135850000Y-46437500D01*
D73*
X98925000Y-38100000D02*
X99037500Y-38212500D01*
D10*
X143383000Y-68072000D02*
X143764000Y-67691000D01*
D73*
X113910000Y-39210000D02*
X113900000Y-39200000D01*
D10*
X143637500Y-42050000D02*
X143662500Y-42075000D01*
D73*
X122500000Y-35581801D02*
X121662499Y-34744300D01*
X103187500Y-72895000D02*
X104182500Y-71900000D01*
X106929244Y-37336349D02*
X105790120Y-36197225D01*
D10*
X145925000Y-45750000D02*
X145900000Y-45775000D01*
X141562500Y-46437500D02*
X141725000Y-46275000D01*
D71*
X136704268Y-60454268D02*
X137586000Y-61336000D01*
D73*
X101037500Y-38212500D02*
X99037500Y-38212500D01*
D10*
X143750000Y-42912500D02*
X143750000Y-45299000D01*
X144525000Y-47075000D02*
X144500000Y-47100000D01*
D73*
X102400000Y-62325000D02*
X102400000Y-64325000D01*
X107425000Y-45400000D02*
X107350000Y-45475000D01*
D71*
X136350002Y-60112500D02*
X136691770Y-60454268D01*
D10*
X145900000Y-45775000D02*
X146325000Y-45775000D01*
X138750000Y-42250000D02*
X138750000Y-42950000D01*
X143100000Y-46275000D02*
X143125000Y-46250000D01*
D73*
X113910000Y-39387500D02*
X113910000Y-39210000D01*
X106309880Y-36009880D02*
X105790120Y-36009880D01*
D71*
X135900000Y-60112500D02*
X136350002Y-60112500D01*
D73*
X107282797Y-36982797D02*
X106309880Y-36009880D01*
D10*
X144500000Y-47100000D02*
X144500000Y-49012500D01*
X144500000Y-49012500D02*
X144525000Y-49037500D01*
X143662500Y-42825000D02*
X143750000Y-42912500D01*
D73*
%TO.N,/microSD/_DAT2*%
X116600000Y-70600000D02*
X116600000Y-68800000D01*
X114600000Y-70600000D02*
X116600000Y-70600000D01*
%TO.N,/microSD/_DAT3*%
X114600000Y-71400000D02*
X117400000Y-71400000D01*
X117400000Y-71400000D02*
X117400000Y-68800000D01*
%TO.N,unconnected-(U4-Pad11)*%
X107633522Y-39327139D02*
X106960661Y-40000000D01*
%TO.N,unconnected-(U4-SDX-Pad2)*%
X109273585Y-36979968D02*
X110253553Y-36000000D01*
%TO.N,unconnected-(U4-Pad3)*%
X108920032Y-36626415D02*
X109846447Y-35700000D01*
%TO.N,unconnected-(U4-Pad10)*%
X107279968Y-38973585D02*
X106553553Y-39700000D01*
%TO.N,unconnected-(U5-Pad11)*%
X121090300Y-38150001D02*
X120249999Y-38150001D01*
%TO.N,unconnected-(U5-SDX-Pad2)*%
X123909700Y-37650000D02*
X125050000Y-37650000D01*
%TO.N,unconnected-(U5-Pad10)*%
X121090300Y-37650000D02*
X120250000Y-37650000D01*
%TO.N,unconnected-(U5-Pad3)*%
X123909700Y-37150000D02*
X125050000Y-37150000D01*
D74*
%TO.N,Net-(Q4-Pad1)*%
X135750000Y-54750000D02*
X137250000Y-54750000D01*
X130112500Y-54050000D02*
X131500000Y-52662500D01*
X131797500Y-52365000D02*
X134025000Y-52365000D01*
X134025000Y-53635000D02*
X134635000Y-53635000D01*
X137250000Y-54750000D02*
X138365000Y-53635000D01*
X131750000Y-52412500D02*
X131797500Y-52365000D01*
X138365000Y-53635000D02*
X138975000Y-53635000D01*
X134635000Y-53635000D02*
X135750000Y-54750000D01*
X131500000Y-52662500D02*
X131500000Y-52412500D01*
X138975000Y-53635000D02*
X138975000Y-52365000D01*
X131500000Y-52412500D02*
X131750000Y-52412500D01*
X134025000Y-52365000D02*
X134025000Y-53635000D01*
X129560000Y-54050000D02*
X130112500Y-54050000D01*
D10*
%TO.N,Net-(Q2-G)*%
X142240000Y-54586500D02*
X142851500Y-54586500D01*
X143510000Y-57277000D02*
X143510000Y-58015500D01*
X143129000Y-55880000D02*
X143383000Y-56134000D01*
X143769000Y-57018000D02*
X143510000Y-57277000D01*
X142851500Y-54586500D02*
X143129000Y-54864000D01*
X143129000Y-54864000D02*
X143129000Y-55880000D01*
X143383000Y-56134000D02*
X143769000Y-56134000D01*
X143769000Y-56134000D02*
X143769000Y-57018000D01*
%TO.N,Net-(Q2-D)*%
X146708500Y-53721000D02*
X147193000Y-54205500D01*
X144719000Y-54259000D02*
X145257000Y-53721000D01*
X145257000Y-53721000D02*
X146708500Y-53721000D01*
D73*
%TO.N,BOOTSEL*%
X95762500Y-71200000D02*
X83500000Y-71200000D01*
X80500000Y-63625000D02*
X81625000Y-62500000D01*
X84000000Y-50900000D02*
X85160000Y-49740000D01*
X80500000Y-68200000D02*
X80500000Y-63625000D01*
X84000000Y-61100000D02*
X84000000Y-50900000D01*
X83500000Y-71200000D02*
X80500000Y-68200000D01*
X84150000Y-61250000D02*
X84000000Y-61100000D01*
%TO.N,/GPIO46*%
X94612500Y-59975000D02*
X94600000Y-59962500D01*
X100850000Y-59975000D02*
X94612500Y-59975000D01*
%TO.N,/GPIO45*%
X100850000Y-59575000D02*
X95312500Y-59575000D01*
X95312500Y-59575000D02*
X95300000Y-59562500D01*
%TO.N,/GPIO39*%
X97326000Y-56026000D02*
X97673278Y-56026000D01*
X98775000Y-56375000D02*
X100850000Y-56375000D01*
X96700000Y-55400000D02*
X97326000Y-56026000D01*
X93100000Y-55400000D02*
X96700000Y-55400000D01*
X98700000Y-56300000D02*
X98775000Y-56375000D01*
X97947278Y-56300000D02*
X98700000Y-56300000D01*
X97673278Y-56026000D02*
X97947278Y-56300000D01*
%TO.N,/SWDCLK*%
X104800000Y-50800000D02*
X104800000Y-52425000D01*
X104012500Y-50000000D02*
X104012500Y-50012500D01*
X104012500Y-50012500D02*
X104800000Y-50800000D01*
%TO.N,/SWDIO*%
X104400000Y-51700000D02*
X104400000Y-52425000D01*
X104012500Y-50600000D02*
X104012500Y-50634486D01*
X104500000Y-51600000D02*
X104400000Y-51700000D01*
X104012500Y-50634486D02*
X104500000Y-51121986D01*
X104500000Y-51121986D02*
X104500000Y-51600000D01*
%TD*%
%TA.AperFunction,Conductor*%
%TO.N,Net-(C17-Pad2)*%
G36*
X105643039Y-44919685D02*
G01*
X105688794Y-44972489D01*
X105700000Y-45024000D01*
X105700000Y-45962456D01*
X105680315Y-46029495D01*
X105679174Y-46031239D01*
X104336811Y-48044783D01*
X104283246Y-48089644D01*
X104233637Y-48100000D01*
X103375167Y-48100000D01*
X103308128Y-48080315D01*
X103265230Y-48033358D01*
X102114063Y-45826954D01*
X102100000Y-45769596D01*
X102100000Y-45024000D01*
X102119685Y-44956961D01*
X102172489Y-44911206D01*
X102224000Y-44900000D01*
X105576000Y-44900000D01*
X105643039Y-44919685D01*
G37*
%TD.AperFunction*%
%TD*%
%TA.AperFunction,Conductor*%
%TO.N,+BATT*%
G36*
X154923194Y-39355939D02*
G01*
X154926207Y-39358117D01*
X155057434Y-39489344D01*
X155060861Y-39497617D01*
X155060270Y-39501287D01*
X154627156Y-40812244D01*
X154621307Y-40819025D01*
X154613775Y-40820051D01*
X153771429Y-40653327D01*
X153763979Y-40648359D01*
X153762224Y-40644122D01*
X153744043Y-40552265D01*
X153595500Y-39801774D01*
X153597255Y-39792995D01*
X153603304Y-39788396D01*
X154914265Y-39355281D01*
X154923194Y-39355939D01*
G37*
%TD.AperFunction*%
%TD*%
%TA.AperFunction,Conductor*%
%TO.N,+BATT*%
G36*
X153045648Y-40171006D02*
G01*
X153047430Y-40171983D01*
X153257679Y-40312126D01*
X153763212Y-40649095D01*
X153766457Y-40652340D01*
X154243568Y-41368121D01*
X154245306Y-41376905D01*
X154240322Y-41384345D01*
X154238540Y-41385322D01*
X152721183Y-42052028D01*
X152712230Y-42052218D01*
X152708203Y-42049589D01*
X152365962Y-41707348D01*
X152362535Y-41699075D01*
X152363522Y-41694372D01*
X153030230Y-40177009D01*
X153036695Y-40170816D01*
X153045648Y-40171006D01*
G37*
%TD.AperFunction*%
%TD*%
M02*
