%TF.GenerationSoftware,KiCad,Pcbnew,9.0.7*%
%TF.CreationDate,2026-03-14T17:34:55+01:00*%
%TF.ProjectId,TABv1,54414276-312e-46b6-9963-61645f706362,rev?*%
%TF.SameCoordinates,Original*%
%TF.FileFunction,Plated,1,4,PTH,Mixed*%
%TF.FilePolarity,Positive*%
%FSLAX46Y46*%
G04 Gerber Fmt 4.6, Leading zero omitted, Abs format (unit mm)*
G04 Created by KiCad (PCBNEW 9.0.7) date 2026-03-14 17:34:55*
%MOMM*%
%LPD*%
G01*
G04 APERTURE LIST*
%TA.AperFunction,ViaDrill*%
%ADD10C,0.250000*%
%TD*%
%TA.AperFunction,ComponentDrill*%
%ADD11C,0.399999*%
%TD*%
%TA.AperFunction,ViaDrill*%
%ADD12C,0.500000*%
%TD*%
G04 aperture for slot hole*
%TA.AperFunction,ComponentDrill*%
%ADD13C,0.599999*%
%TD*%
%TA.AperFunction,ComponentDrill*%
%ADD14C,1.000000*%
%TD*%
%TA.AperFunction,ComponentDrill*%
%ADD15C,1.200000*%
%TD*%
%TA.AperFunction,ComponentDrill*%
%ADD16C,1.244600*%
%TD*%
G04 APERTURE END LIST*
D10*
X73400000Y-71412500D03*
X73412500Y-56200000D03*
X73412500Y-57950000D03*
X73412500Y-59700000D03*
X73875000Y-62500000D03*
X73887500Y-47200000D03*
X74987500Y-56200000D03*
X74987500Y-57950000D03*
X74987500Y-59700000D03*
X80687500Y-46900000D03*
X80700000Y-55700000D03*
X81200000Y-56122532D03*
X81600000Y-67000000D03*
X81625000Y-62500000D03*
X81700000Y-56600000D03*
X82200000Y-56900000D03*
X82400000Y-49000000D03*
X84150000Y-61250000D03*
X88250000Y-69100000D03*
X88580500Y-53100000D03*
X88700000Y-53700000D03*
X88841500Y-51241500D03*
X89000000Y-66912500D03*
X89400000Y-50778500D03*
X91250000Y-49750000D03*
X92062500Y-68550000D03*
X92600000Y-50300000D03*
X92600000Y-54900000D03*
X93000000Y-74837500D03*
X93000000Y-76562500D03*
X93013444Y-58630082D03*
X93100000Y-55400000D03*
X93200000Y-38100000D03*
X93500000Y-58936500D03*
X94600000Y-38100000D03*
X94600000Y-59962500D03*
X94737500Y-57575000D03*
X94937500Y-56100000D03*
X95250000Y-69100000D03*
X95300000Y-59562500D03*
X95637500Y-35800000D03*
X95737500Y-61900000D03*
X95837500Y-53600000D03*
X95900000Y-59162500D03*
X96462500Y-57575000D03*
X96662500Y-56100000D03*
X96887500Y-65200000D03*
X96937500Y-63700000D03*
X97062500Y-40100000D03*
X97100000Y-55200000D03*
X97362500Y-35800000D03*
X97400000Y-54600000D03*
X97400000Y-72900000D03*
X97400000Y-74200000D03*
X97400000Y-75500000D03*
X97462500Y-61900000D03*
X97562500Y-53600000D03*
X97800000Y-55612500D03*
X98207725Y-54313409D03*
X98400000Y-58762500D03*
X98500000Y-56762500D03*
X99037500Y-36487500D03*
X99037500Y-38212500D03*
X99800000Y-51693000D03*
X99975569Y-54276088D03*
X101037500Y-36487500D03*
X101087500Y-43500000D03*
X101412500Y-71100000D03*
X101500000Y-43000000D03*
X101925000Y-66300000D03*
X101937500Y-64787500D03*
X102600000Y-43737500D03*
X103390120Y-38409880D03*
X103662500Y-64787500D03*
X104012500Y-50000000D03*
X104012500Y-50600000D03*
X104012500Y-51300000D03*
X104300000Y-71900000D03*
X104400000Y-65488500D03*
X104609880Y-37190120D03*
X105000000Y-73500000D03*
X105050000Y-43725000D03*
X105187500Y-49562500D03*
X105187500Y-63500000D03*
X105600000Y-72900000D03*
X105790120Y-36009880D03*
X105800000Y-57375000D03*
X106100000Y-40100000D03*
X106100000Y-41900000D03*
X106387500Y-72400000D03*
X106787500Y-51200000D03*
X107187500Y-50524462D03*
X107500000Y-48762500D03*
X107532832Y-49952001D03*
X107987500Y-49600000D03*
X108000000Y-63937500D03*
X108000000Y-65662500D03*
X108100000Y-75637500D03*
X108100000Y-77362500D03*
X108300000Y-35226000D03*
X108600000Y-41862500D03*
X109000000Y-47037500D03*
X109000000Y-48762500D03*
X109200000Y-41450000D03*
X109400000Y-35500000D03*
X109600000Y-39900000D03*
X109600000Y-75637500D03*
X109800000Y-45400000D03*
X110500000Y-40200000D03*
X110500000Y-41037500D03*
X111100000Y-39800000D03*
X111600000Y-68812500D03*
X112490000Y-76950000D03*
X112556250Y-39043750D03*
X112600000Y-63300000D03*
X112800000Y-70600000D03*
X112800000Y-73000000D03*
X113017186Y-39387500D03*
X113100000Y-53200000D03*
X113287010Y-40625000D03*
X113437500Y-55600000D03*
X113437500Y-57600000D03*
X113625000Y-35775000D03*
X113695757Y-46617063D03*
X113700000Y-40212500D03*
X113700000Y-45500000D03*
X113737500Y-59562500D03*
X113800000Y-51400000D03*
X113834501Y-46059051D03*
X113858318Y-56758318D03*
X113910000Y-39387500D03*
X114200000Y-54900000D03*
X114500000Y-66600000D03*
X114587500Y-54400000D03*
X114899954Y-39387500D03*
X115162500Y-55600000D03*
X115162500Y-57600000D03*
X115350000Y-35775000D03*
X115380834Y-61019166D03*
X115393475Y-66286949D03*
X115412500Y-40212500D03*
X115462500Y-59600000D03*
X115806190Y-40631590D03*
X115900000Y-65874449D03*
X115980834Y-61619166D03*
X116000000Y-65300000D03*
X116100000Y-37500000D03*
X116111728Y-41118698D03*
X116125000Y-58362500D03*
X116187500Y-64700000D03*
X116300000Y-45500000D03*
X116300000Y-46075003D03*
X116407590Y-46639850D03*
X116600000Y-54900000D03*
X116600000Y-70600000D03*
X117000000Y-38000000D03*
X117100000Y-54400000D03*
X117400000Y-71400000D03*
X117800000Y-61500000D03*
X117812500Y-64700000D03*
X117900000Y-41200000D03*
X117900000Y-62300000D03*
X118000000Y-49198000D03*
X118200000Y-72200000D03*
X118300000Y-37500000D03*
X118700000Y-48947000D03*
X118845000Y-64460000D03*
X118900000Y-65300000D03*
X119400001Y-36718200D03*
X119400001Y-38443200D03*
X119670000Y-77000000D03*
X120200000Y-72000000D03*
X120573720Y-42473720D03*
X120900000Y-35300000D03*
X121000000Y-39800000D03*
X121000000Y-71200000D03*
X121800000Y-39387500D03*
X121800000Y-70400000D03*
X121870000Y-77000000D03*
X123000000Y-39800000D03*
X124400000Y-35300000D03*
X124900000Y-48947000D03*
X125150000Y-76500000D03*
X125217500Y-65525000D03*
X125400000Y-70400000D03*
X125400000Y-72800000D03*
X125900000Y-49412500D03*
X127600000Y-64100000D03*
X127612500Y-62500000D03*
X132853350Y-56846650D03*
X134200000Y-60112500D03*
X134700000Y-56800000D03*
X136900000Y-64400000D03*
X137743043Y-63656957D03*
X138100000Y-61336000D03*
X138279500Y-66167000D03*
X138406500Y-67818000D03*
X139100000Y-41900000D03*
X139100000Y-61336000D03*
X140059000Y-61700000D03*
X140500000Y-41900000D03*
X140500000Y-46437500D03*
X140500000Y-48162500D03*
X141224000Y-61698500D03*
X142240000Y-56411500D03*
X142748000Y-68072000D03*
X143510000Y-59840500D03*
X143637500Y-42050000D03*
X143715500Y-72959000D03*
X144422500Y-69469000D03*
X144525000Y-49037500D03*
X144780000Y-67691000D03*
X145669000Y-56134000D03*
X145796000Y-74549000D03*
X146431000Y-60579000D03*
X146431000Y-68683500D03*
X146766668Y-45333332D03*
X148200000Y-36800000D03*
X149237500Y-44737500D03*
X150462000Y-47200000D03*
D11*
%TO.C,USB1*%
X77805000Y-45095000D03*
X77805000Y-45945000D03*
X77805000Y-46795000D03*
X77805000Y-47645000D03*
X77805000Y-48495000D03*
X77805000Y-49345000D03*
X77805000Y-50195000D03*
X77805000Y-51045000D03*
X79155000Y-45095000D03*
X79155000Y-45945000D03*
X79155000Y-46795000D03*
X79155000Y-47645000D03*
X79155000Y-48495000D03*
X79155000Y-49345000D03*
X79155000Y-50195000D03*
X79155000Y-51045000D03*
%TD*%
D12*
X136700000Y-53700000D03*
D13*
%TO.C,USB1*%
X75194999Y-43755000D02*
X74395001Y-43755000D01*
X75194999Y-52395000D02*
X74395001Y-52395000D01*
X78924998Y-43755000D02*
X77425002Y-43755000D01*
X78924998Y-52395000D02*
X77425002Y-52395000D01*
D14*
%TO.C,J6*%
X85160000Y-44660000D03*
X85160000Y-47200000D03*
X85160000Y-49740000D03*
X85160000Y-52280000D03*
X85160000Y-54820000D03*
X85160000Y-57360000D03*
X85160000Y-59900000D03*
X85160000Y-62440000D03*
X87700000Y-44660000D03*
X87700000Y-47200000D03*
X87700000Y-49740000D03*
X87700000Y-52280000D03*
X87700000Y-54820000D03*
X87700000Y-57360000D03*
X87700000Y-59900000D03*
X87700000Y-62440000D03*
%TO.C,J5*%
X120460000Y-44760000D03*
X120460000Y-47300000D03*
X120460000Y-49840000D03*
X120460000Y-52380000D03*
X120460000Y-54920000D03*
X120460000Y-57460000D03*
X120460000Y-60000000D03*
X120460000Y-62540000D03*
X123000000Y-44760000D03*
X123000000Y-47300000D03*
X123000000Y-49840000D03*
X123000000Y-52380000D03*
X123000000Y-54920000D03*
X123000000Y-57460000D03*
X123000000Y-60000000D03*
X123000000Y-62540000D03*
%TO.C,J9*%
X152920000Y-45960000D03*
X152920000Y-48500000D03*
X152920000Y-51040000D03*
X155460000Y-45960000D03*
X155460000Y-48500000D03*
X155460000Y-51040000D03*
%TO.C,J10*%
X158000000Y-45960000D03*
X158000000Y-48500000D03*
X158000000Y-51040000D03*
X160540000Y-45960000D03*
X160540000Y-48500000D03*
X160540000Y-51040000D03*
D15*
%TO.C,J11*%
X152800000Y-57000000D03*
X152800000Y-60500000D03*
X152800000Y-64000000D03*
X152800000Y-67500000D03*
X152800000Y-71000000D03*
X152800000Y-74500000D03*
X157800000Y-57000000D03*
X157800000Y-60500000D03*
X157800000Y-64000000D03*
X157800000Y-67500000D03*
X157800000Y-71000000D03*
X157800000Y-74500000D03*
D16*
%TO.C,J8*%
X151264452Y-38151100D03*
X151264452Y-40651100D03*
X153764452Y-38151100D03*
X153764452Y-40651100D03*
M02*
