%TF.GenerationSoftware,KiCad,Pcbnew,9.0.7+dfsg-1*%
%TF.CreationDate,2026-03-28T18:53:48+01:00*%
%TF.ProjectId,TABv1,54414276-312e-46b6-9963-61645f706362,2.2*%
%TF.SameCoordinates,Original*%
%TF.FileFunction,Legend,Top*%
%TF.FilePolarity,Positive*%
%FSLAX46Y46*%
G04 Gerber Fmt 4.6, Leading zero omitted, Abs format (unit mm)*
G04 Created by KiCad (PCBNEW 9.0.7+dfsg-1) date 2026-03-28 18:53:48*
%MOMM*%
%LPD*%
G01*
G04 APERTURE LIST*
%ADD10C,0.200000*%
%ADD11C,0.300000*%
%ADD12C,0.254000*%
%ADD13C,0.150000*%
%ADD14C,0.100000*%
%ADD15C,0.120000*%
%ADD16C,0.152400*%
%ADD17C,0.000000*%
%ADD18C,0.350000*%
%ADD19C,0.400000*%
%ADD20C,0.508000*%
G04 APERTURE END LIST*
G36*
X152915000Y-36350000D02*
G01*
X154685000Y-36350000D01*
X154685000Y-36850000D01*
X152915000Y-36850000D01*
X152915000Y-36350000D01*
G37*
G36*
X152915000Y-35125000D02*
G01*
X154685000Y-35125000D01*
X154685000Y-35750000D01*
X152915000Y-35750000D01*
X152915000Y-35125000D01*
G37*
D10*
G36*
X93798987Y-38153430D02*
G01*
X93818439Y-38172882D01*
X93848244Y-38232492D01*
X93848244Y-38328135D01*
X93818439Y-38387743D01*
X93793770Y-38412413D01*
X93734161Y-38442219D01*
X93476816Y-38442219D01*
X93476816Y-38118409D01*
X93693922Y-38118409D01*
X93798987Y-38153430D01*
G37*
G36*
X93746151Y-37672024D02*
G01*
X93770820Y-37696692D01*
X93800625Y-37756302D01*
X93800625Y-37804326D01*
X93770820Y-37863935D01*
X93746151Y-37888603D01*
X93686542Y-37918409D01*
X93476816Y-37918409D01*
X93476816Y-37642219D01*
X93686542Y-37642219D01*
X93746151Y-37672024D01*
G37*
G36*
X94159355Y-38753330D02*
G01*
X90166490Y-38753330D01*
X90166490Y-37554726D01*
X90277601Y-37554726D01*
X90281948Y-37573842D01*
X90615281Y-38573841D01*
X90623272Y-38591742D01*
X90627955Y-38597141D01*
X90631150Y-38603531D01*
X90640621Y-38611746D01*
X90648837Y-38621218D01*
X90655225Y-38624412D01*
X90660626Y-38629096D01*
X90672527Y-38633063D01*
X90683736Y-38638667D01*
X90690860Y-38639173D01*
X90697642Y-38641434D01*
X90710151Y-38640544D01*
X90722656Y-38641434D01*
X90729434Y-38639174D01*
X90736562Y-38638668D01*
X90747778Y-38633059D01*
X90759672Y-38629095D01*
X90765069Y-38624414D01*
X90771461Y-38621218D01*
X90779679Y-38611742D01*
X90789148Y-38603530D01*
X90792341Y-38597143D01*
X90797026Y-38591742D01*
X90805017Y-38573842D01*
X91138350Y-37573842D01*
X91142697Y-37554727D01*
X91141808Y-37542219D01*
X91276816Y-37542219D01*
X91276816Y-38351742D01*
X91278737Y-38371251D01*
X91280112Y-38374571D01*
X91280367Y-38378155D01*
X91287373Y-38396463D01*
X91334992Y-38491701D01*
X91340275Y-38500093D01*
X91341287Y-38502537D01*
X91343543Y-38505286D01*
X91345435Y-38508291D01*
X91347429Y-38510020D01*
X91353724Y-38517690D01*
X91401342Y-38565310D01*
X91409010Y-38571603D01*
X91410742Y-38573600D01*
X91413750Y-38575493D01*
X91416496Y-38577747D01*
X91418936Y-38578757D01*
X91427333Y-38584043D01*
X91522570Y-38631662D01*
X91540879Y-38638668D01*
X91544462Y-38638922D01*
X91547783Y-38640298D01*
X91567292Y-38642219D01*
X91757768Y-38642219D01*
X91777277Y-38640298D01*
X91780597Y-38638922D01*
X91784181Y-38638668D01*
X91802489Y-38631662D01*
X91897727Y-38584043D01*
X91906122Y-38578758D01*
X91908564Y-38577747D01*
X91911311Y-38575491D01*
X91914317Y-38573600D01*
X91916047Y-38571605D01*
X91923717Y-38565310D01*
X91971336Y-38517690D01*
X91977628Y-38510023D01*
X91979625Y-38508292D01*
X91981518Y-38505284D01*
X91983773Y-38502537D01*
X91984784Y-38500095D01*
X91990068Y-38491701D01*
X92037687Y-38396464D01*
X92044693Y-38378155D01*
X92044947Y-38374571D01*
X92046323Y-38371251D01*
X92048244Y-38351742D01*
X92048244Y-37732695D01*
X92276816Y-37732695D01*
X92276816Y-37827933D01*
X92278737Y-37847442D01*
X92280112Y-37850762D01*
X92280367Y-37854346D01*
X92287373Y-37872654D01*
X92334992Y-37967892D01*
X92340277Y-37976288D01*
X92341288Y-37978728D01*
X92343541Y-37981474D01*
X92345435Y-37984482D01*
X92347429Y-37986211D01*
X92353724Y-37993882D01*
X92401343Y-38041500D01*
X92409009Y-38047792D01*
X92410742Y-38049790D01*
X92413750Y-38051683D01*
X92416496Y-38053937D01*
X92418936Y-38054947D01*
X92427333Y-38060233D01*
X92522570Y-38107852D01*
X92523998Y-38108398D01*
X92524578Y-38108828D01*
X92532754Y-38111749D01*
X92540879Y-38114858D01*
X92541599Y-38114909D01*
X92543038Y-38115423D01*
X92722863Y-38160379D01*
X92793770Y-38195833D01*
X92818439Y-38220501D01*
X92848244Y-38280111D01*
X92848244Y-38328135D01*
X92818439Y-38387743D01*
X92793770Y-38412413D01*
X92734161Y-38442219D01*
X92535899Y-38442219D01*
X92408439Y-38399732D01*
X92389323Y-38395385D01*
X92350403Y-38398151D01*
X92315504Y-38415601D01*
X92289939Y-38445077D01*
X92277601Y-38482093D01*
X92280367Y-38521013D01*
X92297817Y-38555912D01*
X92327293Y-38581477D01*
X92345193Y-38589468D01*
X92488050Y-38637087D01*
X92497722Y-38639286D01*
X92500164Y-38640298D01*
X92503701Y-38640646D01*
X92507165Y-38641434D01*
X92509799Y-38641246D01*
X92519673Y-38642219D01*
X92757768Y-38642219D01*
X92777277Y-38640298D01*
X92780597Y-38638922D01*
X92784181Y-38638668D01*
X92802489Y-38631662D01*
X92897727Y-38584043D01*
X92906122Y-38578758D01*
X92908564Y-38577747D01*
X92911311Y-38575491D01*
X92914317Y-38573600D01*
X92916047Y-38571605D01*
X92923717Y-38565310D01*
X92971336Y-38517690D01*
X92977628Y-38510023D01*
X92979625Y-38508292D01*
X92981518Y-38505284D01*
X92983773Y-38502537D01*
X92984784Y-38500095D01*
X92990068Y-38491701D01*
X93037687Y-38396464D01*
X93044693Y-38378155D01*
X93044947Y-38374571D01*
X93046323Y-38371251D01*
X93048244Y-38351742D01*
X93048244Y-38256504D01*
X93046323Y-38236995D01*
X93044947Y-38233674D01*
X93044693Y-38230091D01*
X93037687Y-38211782D01*
X92990068Y-38116545D01*
X92984782Y-38108148D01*
X92983772Y-38105708D01*
X92981518Y-38102962D01*
X92979625Y-38099954D01*
X92977627Y-38098221D01*
X92971335Y-38090555D01*
X92923717Y-38042936D01*
X92916046Y-38036641D01*
X92914317Y-38034647D01*
X92911309Y-38032753D01*
X92908563Y-38030500D01*
X92906123Y-38029489D01*
X92897727Y-38024204D01*
X92802489Y-37976585D01*
X92801062Y-37976039D01*
X92800482Y-37975609D01*
X92792305Y-37972687D01*
X92784181Y-37969579D01*
X92783458Y-37969527D01*
X92782021Y-37969014D01*
X92602196Y-37924057D01*
X92531289Y-37888604D01*
X92506621Y-37863935D01*
X92476816Y-37804325D01*
X92476816Y-37756302D01*
X92506621Y-37696692D01*
X92531289Y-37672023D01*
X92590899Y-37642219D01*
X92789160Y-37642219D01*
X92916621Y-37684706D01*
X92935736Y-37689053D01*
X92974656Y-37686287D01*
X93009555Y-37668837D01*
X93035120Y-37639361D01*
X93047459Y-37602345D01*
X93044692Y-37563425D01*
X93034089Y-37542219D01*
X93276816Y-37542219D01*
X93276816Y-38542219D01*
X93278737Y-38561728D01*
X93293669Y-38597776D01*
X93321259Y-38625366D01*
X93357307Y-38640298D01*
X93376816Y-38642219D01*
X93757768Y-38642219D01*
X93777277Y-38640298D01*
X93780597Y-38638922D01*
X93784181Y-38638668D01*
X93802489Y-38631662D01*
X93897727Y-38584043D01*
X93906122Y-38578758D01*
X93908564Y-38577747D01*
X93911311Y-38575491D01*
X93914317Y-38573600D01*
X93916047Y-38571605D01*
X93923717Y-38565310D01*
X93971336Y-38517690D01*
X93977628Y-38510023D01*
X93979625Y-38508292D01*
X93981518Y-38505284D01*
X93983773Y-38502537D01*
X93984784Y-38500095D01*
X93990068Y-38491701D01*
X94037687Y-38396464D01*
X94044693Y-38378155D01*
X94044947Y-38374571D01*
X94046323Y-38371251D01*
X94048244Y-38351742D01*
X94048244Y-38208885D01*
X94046323Y-38189376D01*
X94044947Y-38186055D01*
X94044693Y-38182472D01*
X94037687Y-38164163D01*
X93990068Y-38068926D01*
X93984782Y-38060529D01*
X93983772Y-38058089D01*
X93981518Y-38055343D01*
X93979625Y-38052335D01*
X93977627Y-38050602D01*
X93971335Y-38042936D01*
X93923717Y-37995317D01*
X93922928Y-37994669D01*
X93923716Y-37993882D01*
X93930008Y-37986215D01*
X93932006Y-37984483D01*
X93933899Y-37981474D01*
X93936153Y-37978729D01*
X93937163Y-37976288D01*
X93942449Y-37967892D01*
X93990068Y-37872655D01*
X93997074Y-37854346D01*
X93997328Y-37850762D01*
X93998704Y-37847442D01*
X94000625Y-37827933D01*
X94000625Y-37732695D01*
X93998704Y-37713186D01*
X93997328Y-37709865D01*
X93997074Y-37706282D01*
X93990068Y-37687973D01*
X93942449Y-37592736D01*
X93937163Y-37584339D01*
X93936153Y-37581899D01*
X93933899Y-37579153D01*
X93932006Y-37576145D01*
X93930008Y-37574412D01*
X93923716Y-37566746D01*
X93876098Y-37519127D01*
X93868427Y-37512832D01*
X93866698Y-37510838D01*
X93863690Y-37508944D01*
X93860944Y-37506691D01*
X93858504Y-37505680D01*
X93850108Y-37500395D01*
X93754870Y-37452776D01*
X93736562Y-37445770D01*
X93732978Y-37445515D01*
X93729658Y-37444140D01*
X93710149Y-37442219D01*
X93376816Y-37442219D01*
X93357307Y-37444140D01*
X93321259Y-37459072D01*
X93293669Y-37486662D01*
X93278737Y-37522710D01*
X93276816Y-37542219D01*
X93034089Y-37542219D01*
X93027243Y-37528526D01*
X92997767Y-37502961D01*
X92979866Y-37494970D01*
X92837010Y-37447351D01*
X92827338Y-37445151D01*
X92824896Y-37444140D01*
X92821357Y-37443791D01*
X92817894Y-37443004D01*
X92815260Y-37443191D01*
X92805387Y-37442219D01*
X92567292Y-37442219D01*
X92547783Y-37444140D01*
X92544462Y-37445515D01*
X92540879Y-37445770D01*
X92522570Y-37452776D01*
X92427333Y-37500395D01*
X92418936Y-37505680D01*
X92416496Y-37506691D01*
X92413750Y-37508944D01*
X92410742Y-37510838D01*
X92409009Y-37512835D01*
X92401343Y-37519128D01*
X92353724Y-37566746D01*
X92347429Y-37574416D01*
X92345435Y-37576146D01*
X92343541Y-37579153D01*
X92341288Y-37581900D01*
X92340277Y-37584339D01*
X92334992Y-37592736D01*
X92287373Y-37687974D01*
X92280367Y-37706282D01*
X92280112Y-37709865D01*
X92278737Y-37713186D01*
X92276816Y-37732695D01*
X92048244Y-37732695D01*
X92048244Y-37542219D01*
X92046323Y-37522710D01*
X92031391Y-37486662D01*
X92003801Y-37459072D01*
X91967753Y-37444140D01*
X91928735Y-37444140D01*
X91892687Y-37459072D01*
X91865097Y-37486662D01*
X91850165Y-37522710D01*
X91848244Y-37542219D01*
X91848244Y-38328135D01*
X91818439Y-38387743D01*
X91793770Y-38412413D01*
X91734161Y-38442219D01*
X91590899Y-38442219D01*
X91531289Y-38412414D01*
X91506622Y-38387746D01*
X91476816Y-38328134D01*
X91476816Y-37542219D01*
X91474895Y-37522710D01*
X91459963Y-37486662D01*
X91432373Y-37459072D01*
X91396325Y-37444140D01*
X91357307Y-37444140D01*
X91321259Y-37459072D01*
X91293669Y-37486662D01*
X91278737Y-37522710D01*
X91276816Y-37542219D01*
X91141808Y-37542219D01*
X91139931Y-37515807D01*
X91122481Y-37480908D01*
X91093005Y-37455343D01*
X91055989Y-37443004D01*
X91017069Y-37445771D01*
X90982170Y-37463220D01*
X90956605Y-37492696D01*
X90948614Y-37510597D01*
X90710149Y-38225991D01*
X90471684Y-37510596D01*
X90463693Y-37492696D01*
X90438128Y-37463220D01*
X90403229Y-37445770D01*
X90364309Y-37443004D01*
X90327293Y-37455342D01*
X90297817Y-37480907D01*
X90280367Y-37515806D01*
X90277601Y-37554726D01*
X90166490Y-37554726D01*
X90166490Y-37331108D01*
X94159355Y-37331108D01*
X94159355Y-38753330D01*
G37*
D11*
G36*
X154661153Y-43639613D02*
G01*
X152890725Y-43639613D01*
X152890725Y-42725136D01*
X153057392Y-42725136D01*
X153057392Y-42783664D01*
X153079790Y-42837736D01*
X153121174Y-42879120D01*
X153175246Y-42901518D01*
X153204510Y-42904400D01*
X153625939Y-42904400D01*
X153625939Y-43325828D01*
X153628821Y-43355092D01*
X153651219Y-43409164D01*
X153692603Y-43450548D01*
X153746675Y-43472946D01*
X153805203Y-43472946D01*
X153859275Y-43450548D01*
X153900659Y-43409164D01*
X153923057Y-43355092D01*
X153925939Y-43325828D01*
X153925939Y-42904400D01*
X154347368Y-42904400D01*
X154376632Y-42901518D01*
X154430704Y-42879120D01*
X154472088Y-42837736D01*
X154494486Y-42783664D01*
X154494486Y-42725136D01*
X154472088Y-42671064D01*
X154430704Y-42629680D01*
X154376632Y-42607282D01*
X154347368Y-42604400D01*
X153925939Y-42604400D01*
X153925939Y-42182971D01*
X153923057Y-42153707D01*
X153900659Y-42099635D01*
X153859275Y-42058251D01*
X153805203Y-42035853D01*
X153746675Y-42035853D01*
X153692603Y-42058251D01*
X153651219Y-42099635D01*
X153628821Y-42153707D01*
X153625939Y-42182971D01*
X153625939Y-42604400D01*
X153204510Y-42604400D01*
X153175246Y-42607282D01*
X153121174Y-42629680D01*
X153079790Y-42671064D01*
X153057392Y-42725136D01*
X152890725Y-42725136D01*
X152890725Y-41869186D01*
X154661153Y-41869186D01*
X154661153Y-43639613D01*
G37*
G36*
X154686153Y-36371067D02*
G01*
X152915725Y-36371067D01*
X152915725Y-36025136D01*
X153082392Y-36025136D01*
X153082392Y-36083664D01*
X153104790Y-36137736D01*
X153146174Y-36179120D01*
X153200246Y-36201518D01*
X153229510Y-36204400D01*
X154372368Y-36204400D01*
X154401632Y-36201518D01*
X154455704Y-36179120D01*
X154497088Y-36137736D01*
X154519486Y-36083664D01*
X154519486Y-36025136D01*
X154497088Y-35971064D01*
X154455704Y-35929680D01*
X154401632Y-35907282D01*
X154372368Y-35904400D01*
X153229510Y-35904400D01*
X153200246Y-35907282D01*
X153146174Y-35929680D01*
X153104790Y-35971064D01*
X153082392Y-36025136D01*
X152915725Y-36025136D01*
X152915725Y-35737733D01*
X154686153Y-35737733D01*
X154686153Y-36371067D01*
G37*
D12*
X142110237Y-44524318D02*
X142110237Y-43254318D01*
X143440714Y-44403365D02*
X143380238Y-44463842D01*
X143380238Y-44463842D02*
X143198809Y-44524318D01*
X143198809Y-44524318D02*
X143077857Y-44524318D01*
X143077857Y-44524318D02*
X142896428Y-44463842D01*
X142896428Y-44463842D02*
X142775476Y-44342889D01*
X142775476Y-44342889D02*
X142714999Y-44221937D01*
X142714999Y-44221937D02*
X142654523Y-43980032D01*
X142654523Y-43980032D02*
X142654523Y-43798603D01*
X142654523Y-43798603D02*
X142714999Y-43556699D01*
X142714999Y-43556699D02*
X142775476Y-43435746D01*
X142775476Y-43435746D02*
X142896428Y-43314794D01*
X142896428Y-43314794D02*
X143077857Y-43254318D01*
X143077857Y-43254318D02*
X143198809Y-43254318D01*
X143198809Y-43254318D02*
X143380238Y-43314794D01*
X143380238Y-43314794D02*
X143440714Y-43375270D01*
X144650238Y-44524318D02*
X143924523Y-44524318D01*
X144287380Y-44524318D02*
X144287380Y-43254318D01*
X144287380Y-43254318D02*
X144166428Y-43435746D01*
X144166428Y-43435746D02*
X144045476Y-43556699D01*
X144045476Y-43556699D02*
X143924523Y-43617175D01*
D13*
X130704819Y-51666666D02*
X130228628Y-51999999D01*
X130704819Y-52238094D02*
X129704819Y-52238094D01*
X129704819Y-52238094D02*
X129704819Y-51857142D01*
X129704819Y-51857142D02*
X129752438Y-51761904D01*
X129752438Y-51761904D02*
X129800057Y-51714285D01*
X129800057Y-51714285D02*
X129895295Y-51666666D01*
X129895295Y-51666666D02*
X130038152Y-51666666D01*
X130038152Y-51666666D02*
X130133390Y-51714285D01*
X130133390Y-51714285D02*
X130181009Y-51761904D01*
X130181009Y-51761904D02*
X130228628Y-51857142D01*
X130228628Y-51857142D02*
X130228628Y-52238094D01*
X130133390Y-51095237D02*
X130085771Y-51190475D01*
X130085771Y-51190475D02*
X130038152Y-51238094D01*
X130038152Y-51238094D02*
X129942914Y-51285713D01*
X129942914Y-51285713D02*
X129895295Y-51285713D01*
X129895295Y-51285713D02*
X129800057Y-51238094D01*
X129800057Y-51238094D02*
X129752438Y-51190475D01*
X129752438Y-51190475D02*
X129704819Y-51095237D01*
X129704819Y-51095237D02*
X129704819Y-50904761D01*
X129704819Y-50904761D02*
X129752438Y-50809523D01*
X129752438Y-50809523D02*
X129800057Y-50761904D01*
X129800057Y-50761904D02*
X129895295Y-50714285D01*
X129895295Y-50714285D02*
X129942914Y-50714285D01*
X129942914Y-50714285D02*
X130038152Y-50761904D01*
X130038152Y-50761904D02*
X130085771Y-50809523D01*
X130085771Y-50809523D02*
X130133390Y-50904761D01*
X130133390Y-50904761D02*
X130133390Y-51095237D01*
X130133390Y-51095237D02*
X130181009Y-51190475D01*
X130181009Y-51190475D02*
X130228628Y-51238094D01*
X130228628Y-51238094D02*
X130323866Y-51285713D01*
X130323866Y-51285713D02*
X130514342Y-51285713D01*
X130514342Y-51285713D02*
X130609580Y-51238094D01*
X130609580Y-51238094D02*
X130657200Y-51190475D01*
X130657200Y-51190475D02*
X130704819Y-51095237D01*
X130704819Y-51095237D02*
X130704819Y-50904761D01*
X130704819Y-50904761D02*
X130657200Y-50809523D01*
X130657200Y-50809523D02*
X130609580Y-50761904D01*
X130609580Y-50761904D02*
X130514342Y-50714285D01*
X130514342Y-50714285D02*
X130323866Y-50714285D01*
X130323866Y-50714285D02*
X130228628Y-50761904D01*
X130228628Y-50761904D02*
X130181009Y-50809523D01*
X130181009Y-50809523D02*
X130133390Y-50904761D01*
X122604819Y-72290476D02*
X122128628Y-72623809D01*
X122604819Y-72861904D02*
X121604819Y-72861904D01*
X121604819Y-72861904D02*
X121604819Y-72480952D01*
X121604819Y-72480952D02*
X121652438Y-72385714D01*
X121652438Y-72385714D02*
X121700057Y-72338095D01*
X121700057Y-72338095D02*
X121795295Y-72290476D01*
X121795295Y-72290476D02*
X121938152Y-72290476D01*
X121938152Y-72290476D02*
X122033390Y-72338095D01*
X122033390Y-72338095D02*
X122081009Y-72385714D01*
X122081009Y-72385714D02*
X122128628Y-72480952D01*
X122128628Y-72480952D02*
X122128628Y-72861904D01*
X122604819Y-71861904D02*
X121604819Y-71861904D01*
X121604819Y-71861904D02*
X122604819Y-71290476D01*
X122604819Y-71290476D02*
X121604819Y-71290476D01*
X122033390Y-70671428D02*
X121985771Y-70766666D01*
X121985771Y-70766666D02*
X121938152Y-70814285D01*
X121938152Y-70814285D02*
X121842914Y-70861904D01*
X121842914Y-70861904D02*
X121795295Y-70861904D01*
X121795295Y-70861904D02*
X121700057Y-70814285D01*
X121700057Y-70814285D02*
X121652438Y-70766666D01*
X121652438Y-70766666D02*
X121604819Y-70671428D01*
X121604819Y-70671428D02*
X121604819Y-70480952D01*
X121604819Y-70480952D02*
X121652438Y-70385714D01*
X121652438Y-70385714D02*
X121700057Y-70338095D01*
X121700057Y-70338095D02*
X121795295Y-70290476D01*
X121795295Y-70290476D02*
X121842914Y-70290476D01*
X121842914Y-70290476D02*
X121938152Y-70338095D01*
X121938152Y-70338095D02*
X121985771Y-70385714D01*
X121985771Y-70385714D02*
X122033390Y-70480952D01*
X122033390Y-70480952D02*
X122033390Y-70671428D01*
X122033390Y-70671428D02*
X122081009Y-70766666D01*
X122081009Y-70766666D02*
X122128628Y-70814285D01*
X122128628Y-70814285D02*
X122223866Y-70861904D01*
X122223866Y-70861904D02*
X122414342Y-70861904D01*
X122414342Y-70861904D02*
X122509580Y-70814285D01*
X122509580Y-70814285D02*
X122557200Y-70766666D01*
X122557200Y-70766666D02*
X122604819Y-70671428D01*
X122604819Y-70671428D02*
X122604819Y-70480952D01*
X122604819Y-70480952D02*
X122557200Y-70385714D01*
X122557200Y-70385714D02*
X122509580Y-70338095D01*
X122509580Y-70338095D02*
X122414342Y-70290476D01*
X122414342Y-70290476D02*
X122223866Y-70290476D01*
X122223866Y-70290476D02*
X122128628Y-70338095D01*
X122128628Y-70338095D02*
X122081009Y-70385714D01*
X122081009Y-70385714D02*
X122033390Y-70480952D01*
X98988095Y-74154819D02*
X98988095Y-74964342D01*
X98988095Y-74964342D02*
X99035714Y-75059580D01*
X99035714Y-75059580D02*
X99083333Y-75107200D01*
X99083333Y-75107200D02*
X99178571Y-75154819D01*
X99178571Y-75154819D02*
X99369047Y-75154819D01*
X99369047Y-75154819D02*
X99464285Y-75107200D01*
X99464285Y-75107200D02*
X99511904Y-75059580D01*
X99511904Y-75059580D02*
X99559523Y-74964342D01*
X99559523Y-74964342D02*
X99559523Y-74154819D01*
X99988095Y-74250057D02*
X100035714Y-74202438D01*
X100035714Y-74202438D02*
X100130952Y-74154819D01*
X100130952Y-74154819D02*
X100369047Y-74154819D01*
X100369047Y-74154819D02*
X100464285Y-74202438D01*
X100464285Y-74202438D02*
X100511904Y-74250057D01*
X100511904Y-74250057D02*
X100559523Y-74345295D01*
X100559523Y-74345295D02*
X100559523Y-74440533D01*
X100559523Y-74440533D02*
X100511904Y-74583390D01*
X100511904Y-74583390D02*
X99940476Y-75154819D01*
X99940476Y-75154819D02*
X100559523Y-75154819D01*
X111585544Y-38431905D02*
X111013124Y-37859485D01*
X111013124Y-37859485D02*
X110912109Y-37825813D01*
X110912109Y-37825813D02*
X110844765Y-37825813D01*
X110844765Y-37825813D02*
X110743750Y-37859485D01*
X110743750Y-37859485D02*
X110609063Y-37994172D01*
X110609063Y-37994172D02*
X110575391Y-38095187D01*
X110575391Y-38095187D02*
X110575391Y-38162531D01*
X110575391Y-38162531D02*
X110609063Y-38263546D01*
X110609063Y-38263546D02*
X111181483Y-38835966D01*
X110306017Y-39240027D02*
X109834613Y-38768622D01*
X110743750Y-39341042D02*
X110407032Y-38667607D01*
X110407032Y-38667607D02*
X109969300Y-39105340D01*
X110916816Y-37168399D02*
X110748458Y-37000040D01*
X110984160Y-36899025D02*
X110748458Y-37000040D01*
X110748458Y-37000040D02*
X110647442Y-37235742D01*
X110714786Y-36764338D02*
X110748458Y-37000040D01*
X110748458Y-37000040D02*
X110512755Y-36966368D01*
X110145815Y-36397396D02*
X110314173Y-36565755D01*
X110078471Y-36666770D02*
X110314173Y-36565755D01*
X110314173Y-36565755D02*
X110415189Y-36330053D01*
X110347845Y-36801457D02*
X110314173Y-36565755D01*
X110314173Y-36565755D02*
X110549876Y-36599427D01*
X92904761Y-70600057D02*
X92809523Y-70552438D01*
X92809523Y-70552438D02*
X92714285Y-70457200D01*
X92714285Y-70457200D02*
X92571428Y-70314342D01*
X92571428Y-70314342D02*
X92476190Y-70266723D01*
X92476190Y-70266723D02*
X92380952Y-70266723D01*
X92428571Y-70504819D02*
X92333333Y-70457200D01*
X92333333Y-70457200D02*
X92238095Y-70361961D01*
X92238095Y-70361961D02*
X92190476Y-70171485D01*
X92190476Y-70171485D02*
X92190476Y-69838152D01*
X92190476Y-69838152D02*
X92238095Y-69647676D01*
X92238095Y-69647676D02*
X92333333Y-69552438D01*
X92333333Y-69552438D02*
X92428571Y-69504819D01*
X92428571Y-69504819D02*
X92619047Y-69504819D01*
X92619047Y-69504819D02*
X92714285Y-69552438D01*
X92714285Y-69552438D02*
X92809523Y-69647676D01*
X92809523Y-69647676D02*
X92857142Y-69838152D01*
X92857142Y-69838152D02*
X92857142Y-70171485D01*
X92857142Y-70171485D02*
X92809523Y-70361961D01*
X92809523Y-70361961D02*
X92714285Y-70457200D01*
X92714285Y-70457200D02*
X92619047Y-70504819D01*
X92619047Y-70504819D02*
X92428571Y-70504819D01*
X93190476Y-69504819D02*
X93809523Y-69504819D01*
X93809523Y-69504819D02*
X93476190Y-69885771D01*
X93476190Y-69885771D02*
X93619047Y-69885771D01*
X93619047Y-69885771D02*
X93714285Y-69933390D01*
X93714285Y-69933390D02*
X93761904Y-69981009D01*
X93761904Y-69981009D02*
X93809523Y-70076247D01*
X93809523Y-70076247D02*
X93809523Y-70314342D01*
X93809523Y-70314342D02*
X93761904Y-70409580D01*
X93761904Y-70409580D02*
X93714285Y-70457200D01*
X93714285Y-70457200D02*
X93619047Y-70504819D01*
X93619047Y-70504819D02*
X93333333Y-70504819D01*
X93333333Y-70504819D02*
X93238095Y-70457200D01*
X93238095Y-70457200D02*
X93190476Y-70409580D01*
D10*
X105595238Y-42478742D02*
X105595238Y-42859695D01*
X105171905Y-42059695D02*
X105595238Y-42478742D01*
X105595238Y-42478742D02*
X106018572Y-42059695D01*
X107107143Y-42859695D02*
X106381428Y-42859695D01*
X106744285Y-42859695D02*
X106744285Y-42059695D01*
X106744285Y-42059695D02*
X106623333Y-42173980D01*
X106623333Y-42173980D02*
X106502381Y-42250171D01*
X106502381Y-42250171D02*
X106381428Y-42288266D01*
D13*
X86504819Y-66642857D02*
X86028628Y-66976190D01*
X86504819Y-67214285D02*
X85504819Y-67214285D01*
X85504819Y-67214285D02*
X85504819Y-66833333D01*
X85504819Y-66833333D02*
X85552438Y-66738095D01*
X85552438Y-66738095D02*
X85600057Y-66690476D01*
X85600057Y-66690476D02*
X85695295Y-66642857D01*
X85695295Y-66642857D02*
X85838152Y-66642857D01*
X85838152Y-66642857D02*
X85933390Y-66690476D01*
X85933390Y-66690476D02*
X85981009Y-66738095D01*
X85981009Y-66738095D02*
X86028628Y-66833333D01*
X86028628Y-66833333D02*
X86028628Y-67214285D01*
X86504819Y-65690476D02*
X86504819Y-66261904D01*
X86504819Y-65976190D02*
X85504819Y-65976190D01*
X85504819Y-65976190D02*
X85647676Y-66071428D01*
X85647676Y-66071428D02*
X85742914Y-66166666D01*
X85742914Y-66166666D02*
X85790533Y-66261904D01*
X85504819Y-65071428D02*
X85504819Y-64976190D01*
X85504819Y-64976190D02*
X85552438Y-64880952D01*
X85552438Y-64880952D02*
X85600057Y-64833333D01*
X85600057Y-64833333D02*
X85695295Y-64785714D01*
X85695295Y-64785714D02*
X85885771Y-64738095D01*
X85885771Y-64738095D02*
X86123866Y-64738095D01*
X86123866Y-64738095D02*
X86314342Y-64785714D01*
X86314342Y-64785714D02*
X86409580Y-64833333D01*
X86409580Y-64833333D02*
X86457200Y-64880952D01*
X86457200Y-64880952D02*
X86504819Y-64976190D01*
X86504819Y-64976190D02*
X86504819Y-65071428D01*
X86504819Y-65071428D02*
X86457200Y-65166666D01*
X86457200Y-65166666D02*
X86409580Y-65214285D01*
X86409580Y-65214285D02*
X86314342Y-65261904D01*
X86314342Y-65261904D02*
X86123866Y-65309523D01*
X86123866Y-65309523D02*
X85885771Y-65309523D01*
X85885771Y-65309523D02*
X85695295Y-65261904D01*
X85695295Y-65261904D02*
X85600057Y-65214285D01*
X85600057Y-65214285D02*
X85552438Y-65166666D01*
X85552438Y-65166666D02*
X85504819Y-65071428D01*
X118657142Y-35159580D02*
X118609523Y-35207200D01*
X118609523Y-35207200D02*
X118466666Y-35254819D01*
X118466666Y-35254819D02*
X118371428Y-35254819D01*
X118371428Y-35254819D02*
X118228571Y-35207200D01*
X118228571Y-35207200D02*
X118133333Y-35111961D01*
X118133333Y-35111961D02*
X118085714Y-35016723D01*
X118085714Y-35016723D02*
X118038095Y-34826247D01*
X118038095Y-34826247D02*
X118038095Y-34683390D01*
X118038095Y-34683390D02*
X118085714Y-34492914D01*
X118085714Y-34492914D02*
X118133333Y-34397676D01*
X118133333Y-34397676D02*
X118228571Y-34302438D01*
X118228571Y-34302438D02*
X118371428Y-34254819D01*
X118371428Y-34254819D02*
X118466666Y-34254819D01*
X118466666Y-34254819D02*
X118609523Y-34302438D01*
X118609523Y-34302438D02*
X118657142Y-34350057D01*
X119038095Y-34350057D02*
X119085714Y-34302438D01*
X119085714Y-34302438D02*
X119180952Y-34254819D01*
X119180952Y-34254819D02*
X119419047Y-34254819D01*
X119419047Y-34254819D02*
X119514285Y-34302438D01*
X119514285Y-34302438D02*
X119561904Y-34350057D01*
X119561904Y-34350057D02*
X119609523Y-34445295D01*
X119609523Y-34445295D02*
X119609523Y-34540533D01*
X119609523Y-34540533D02*
X119561904Y-34683390D01*
X119561904Y-34683390D02*
X118990476Y-35254819D01*
X118990476Y-35254819D02*
X119609523Y-35254819D01*
X119942857Y-34254819D02*
X120609523Y-34254819D01*
X120609523Y-34254819D02*
X120180952Y-35254819D01*
X83059819Y-51530357D02*
X82583628Y-51863690D01*
X83059819Y-52101785D02*
X82059819Y-52101785D01*
X82059819Y-52101785D02*
X82059819Y-51720833D01*
X82059819Y-51720833D02*
X82107438Y-51625595D01*
X82107438Y-51625595D02*
X82155057Y-51577976D01*
X82155057Y-51577976D02*
X82250295Y-51530357D01*
X82250295Y-51530357D02*
X82393152Y-51530357D01*
X82393152Y-51530357D02*
X82488390Y-51577976D01*
X82488390Y-51577976D02*
X82536009Y-51625595D01*
X82536009Y-51625595D02*
X82583628Y-51720833D01*
X82583628Y-51720833D02*
X82583628Y-52101785D01*
X82393152Y-50673214D02*
X83059819Y-50673214D01*
X82012200Y-50911309D02*
X82726485Y-51149404D01*
X82726485Y-51149404D02*
X82726485Y-50530357D01*
X82059819Y-49673214D02*
X82059819Y-50149404D01*
X82059819Y-50149404D02*
X82536009Y-50197023D01*
X82536009Y-50197023D02*
X82488390Y-50149404D01*
X82488390Y-50149404D02*
X82440771Y-50054166D01*
X82440771Y-50054166D02*
X82440771Y-49816071D01*
X82440771Y-49816071D02*
X82488390Y-49720833D01*
X82488390Y-49720833D02*
X82536009Y-49673214D01*
X82536009Y-49673214D02*
X82631247Y-49625595D01*
X82631247Y-49625595D02*
X82869342Y-49625595D01*
X82869342Y-49625595D02*
X82964580Y-49673214D01*
X82964580Y-49673214D02*
X83012200Y-49720833D01*
X83012200Y-49720833D02*
X83059819Y-49816071D01*
X83059819Y-49816071D02*
X83059819Y-50054166D01*
X83059819Y-50054166D02*
X83012200Y-50149404D01*
X83012200Y-50149404D02*
X82964580Y-50197023D01*
X113844642Y-34761104D02*
X113797023Y-34799200D01*
X113797023Y-34799200D02*
X113654166Y-34837295D01*
X113654166Y-34837295D02*
X113558928Y-34837295D01*
X113558928Y-34837295D02*
X113416071Y-34799200D01*
X113416071Y-34799200D02*
X113320833Y-34723009D01*
X113320833Y-34723009D02*
X113273214Y-34646819D01*
X113273214Y-34646819D02*
X113225595Y-34494438D01*
X113225595Y-34494438D02*
X113225595Y-34380152D01*
X113225595Y-34380152D02*
X113273214Y-34227771D01*
X113273214Y-34227771D02*
X113320833Y-34151580D01*
X113320833Y-34151580D02*
X113416071Y-34075390D01*
X113416071Y-34075390D02*
X113558928Y-34037295D01*
X113558928Y-34037295D02*
X113654166Y-34037295D01*
X113654166Y-34037295D02*
X113797023Y-34075390D01*
X113797023Y-34075390D02*
X113844642Y-34113485D01*
X114177976Y-34037295D02*
X114797023Y-34037295D01*
X114797023Y-34037295D02*
X114463690Y-34342057D01*
X114463690Y-34342057D02*
X114606547Y-34342057D01*
X114606547Y-34342057D02*
X114701785Y-34380152D01*
X114701785Y-34380152D02*
X114749404Y-34418247D01*
X114749404Y-34418247D02*
X114797023Y-34494438D01*
X114797023Y-34494438D02*
X114797023Y-34684914D01*
X114797023Y-34684914D02*
X114749404Y-34761104D01*
X114749404Y-34761104D02*
X114701785Y-34799200D01*
X114701785Y-34799200D02*
X114606547Y-34837295D01*
X114606547Y-34837295D02*
X114320833Y-34837295D01*
X114320833Y-34837295D02*
X114225595Y-34799200D01*
X114225595Y-34799200D02*
X114177976Y-34761104D01*
X115368452Y-34380152D02*
X115273214Y-34342057D01*
X115273214Y-34342057D02*
X115225595Y-34303961D01*
X115225595Y-34303961D02*
X115177976Y-34227771D01*
X115177976Y-34227771D02*
X115177976Y-34189676D01*
X115177976Y-34189676D02*
X115225595Y-34113485D01*
X115225595Y-34113485D02*
X115273214Y-34075390D01*
X115273214Y-34075390D02*
X115368452Y-34037295D01*
X115368452Y-34037295D02*
X115558928Y-34037295D01*
X115558928Y-34037295D02*
X115654166Y-34075390D01*
X115654166Y-34075390D02*
X115701785Y-34113485D01*
X115701785Y-34113485D02*
X115749404Y-34189676D01*
X115749404Y-34189676D02*
X115749404Y-34227771D01*
X115749404Y-34227771D02*
X115701785Y-34303961D01*
X115701785Y-34303961D02*
X115654166Y-34342057D01*
X115654166Y-34342057D02*
X115558928Y-34380152D01*
X115558928Y-34380152D02*
X115368452Y-34380152D01*
X115368452Y-34380152D02*
X115273214Y-34418247D01*
X115273214Y-34418247D02*
X115225595Y-34456342D01*
X115225595Y-34456342D02*
X115177976Y-34532533D01*
X115177976Y-34532533D02*
X115177976Y-34684914D01*
X115177976Y-34684914D02*
X115225595Y-34761104D01*
X115225595Y-34761104D02*
X115273214Y-34799200D01*
X115273214Y-34799200D02*
X115368452Y-34837295D01*
X115368452Y-34837295D02*
X115558928Y-34837295D01*
X115558928Y-34837295D02*
X115654166Y-34799200D01*
X115654166Y-34799200D02*
X115701785Y-34761104D01*
X115701785Y-34761104D02*
X115749404Y-34684914D01*
X115749404Y-34684914D02*
X115749404Y-34532533D01*
X115749404Y-34532533D02*
X115701785Y-34456342D01*
X115701785Y-34456342D02*
X115654166Y-34418247D01*
X115654166Y-34418247D02*
X115558928Y-34380152D01*
X101387080Y-41162857D02*
X101434700Y-41210476D01*
X101434700Y-41210476D02*
X101482319Y-41353333D01*
X101482319Y-41353333D02*
X101482319Y-41448571D01*
X101482319Y-41448571D02*
X101434700Y-41591428D01*
X101434700Y-41591428D02*
X101339461Y-41686666D01*
X101339461Y-41686666D02*
X101244223Y-41734285D01*
X101244223Y-41734285D02*
X101053747Y-41781904D01*
X101053747Y-41781904D02*
X100910890Y-41781904D01*
X100910890Y-41781904D02*
X100720414Y-41734285D01*
X100720414Y-41734285D02*
X100625176Y-41686666D01*
X100625176Y-41686666D02*
X100529938Y-41591428D01*
X100529938Y-41591428D02*
X100482319Y-41448571D01*
X100482319Y-41448571D02*
X100482319Y-41353333D01*
X100482319Y-41353333D02*
X100529938Y-41210476D01*
X100529938Y-41210476D02*
X100577557Y-41162857D01*
X100482319Y-40829523D02*
X100482319Y-40210476D01*
X100482319Y-40210476D02*
X100863271Y-40543809D01*
X100863271Y-40543809D02*
X100863271Y-40400952D01*
X100863271Y-40400952D02*
X100910890Y-40305714D01*
X100910890Y-40305714D02*
X100958509Y-40258095D01*
X100958509Y-40258095D02*
X101053747Y-40210476D01*
X101053747Y-40210476D02*
X101291842Y-40210476D01*
X101291842Y-40210476D02*
X101387080Y-40258095D01*
X101387080Y-40258095D02*
X101434700Y-40305714D01*
X101434700Y-40305714D02*
X101482319Y-40400952D01*
X101482319Y-40400952D02*
X101482319Y-40686666D01*
X101482319Y-40686666D02*
X101434700Y-40781904D01*
X101434700Y-40781904D02*
X101387080Y-40829523D01*
X100482319Y-39305714D02*
X100482319Y-39781904D01*
X100482319Y-39781904D02*
X100958509Y-39829523D01*
X100958509Y-39829523D02*
X100910890Y-39781904D01*
X100910890Y-39781904D02*
X100863271Y-39686666D01*
X100863271Y-39686666D02*
X100863271Y-39448571D01*
X100863271Y-39448571D02*
X100910890Y-39353333D01*
X100910890Y-39353333D02*
X100958509Y-39305714D01*
X100958509Y-39305714D02*
X101053747Y-39258095D01*
X101053747Y-39258095D02*
X101291842Y-39258095D01*
X101291842Y-39258095D02*
X101387080Y-39305714D01*
X101387080Y-39305714D02*
X101434700Y-39353333D01*
X101434700Y-39353333D02*
X101482319Y-39448571D01*
X101482319Y-39448571D02*
X101482319Y-39686666D01*
X101482319Y-39686666D02*
X101434700Y-39781904D01*
X101434700Y-39781904D02*
X101387080Y-39829523D01*
X111559580Y-45242857D02*
X111607200Y-45290476D01*
X111607200Y-45290476D02*
X111654819Y-45433333D01*
X111654819Y-45433333D02*
X111654819Y-45528571D01*
X111654819Y-45528571D02*
X111607200Y-45671428D01*
X111607200Y-45671428D02*
X111511961Y-45766666D01*
X111511961Y-45766666D02*
X111416723Y-45814285D01*
X111416723Y-45814285D02*
X111226247Y-45861904D01*
X111226247Y-45861904D02*
X111083390Y-45861904D01*
X111083390Y-45861904D02*
X110892914Y-45814285D01*
X110892914Y-45814285D02*
X110797676Y-45766666D01*
X110797676Y-45766666D02*
X110702438Y-45671428D01*
X110702438Y-45671428D02*
X110654819Y-45528571D01*
X110654819Y-45528571D02*
X110654819Y-45433333D01*
X110654819Y-45433333D02*
X110702438Y-45290476D01*
X110702438Y-45290476D02*
X110750057Y-45242857D01*
X111654819Y-44290476D02*
X111654819Y-44861904D01*
X111654819Y-44576190D02*
X110654819Y-44576190D01*
X110654819Y-44576190D02*
X110797676Y-44671428D01*
X110797676Y-44671428D02*
X110892914Y-44766666D01*
X110892914Y-44766666D02*
X110940533Y-44861904D01*
X110654819Y-43433333D02*
X110654819Y-43623809D01*
X110654819Y-43623809D02*
X110702438Y-43719047D01*
X110702438Y-43719047D02*
X110750057Y-43766666D01*
X110750057Y-43766666D02*
X110892914Y-43861904D01*
X110892914Y-43861904D02*
X111083390Y-43909523D01*
X111083390Y-43909523D02*
X111464342Y-43909523D01*
X111464342Y-43909523D02*
X111559580Y-43861904D01*
X111559580Y-43861904D02*
X111607200Y-43814285D01*
X111607200Y-43814285D02*
X111654819Y-43719047D01*
X111654819Y-43719047D02*
X111654819Y-43528571D01*
X111654819Y-43528571D02*
X111607200Y-43433333D01*
X111607200Y-43433333D02*
X111559580Y-43385714D01*
X111559580Y-43385714D02*
X111464342Y-43338095D01*
X111464342Y-43338095D02*
X111226247Y-43338095D01*
X111226247Y-43338095D02*
X111131009Y-43385714D01*
X111131009Y-43385714D02*
X111083390Y-43433333D01*
X111083390Y-43433333D02*
X111035771Y-43528571D01*
X111035771Y-43528571D02*
X111035771Y-43719047D01*
X111035771Y-43719047D02*
X111083390Y-43814285D01*
X111083390Y-43814285D02*
X111131009Y-43861904D01*
X111131009Y-43861904D02*
X111226247Y-43909523D01*
X129208333Y-64554819D02*
X128875000Y-64078628D01*
X128636905Y-64554819D02*
X128636905Y-63554819D01*
X128636905Y-63554819D02*
X129017857Y-63554819D01*
X129017857Y-63554819D02*
X129113095Y-63602438D01*
X129113095Y-63602438D02*
X129160714Y-63650057D01*
X129160714Y-63650057D02*
X129208333Y-63745295D01*
X129208333Y-63745295D02*
X129208333Y-63888152D01*
X129208333Y-63888152D02*
X129160714Y-63983390D01*
X129160714Y-63983390D02*
X129113095Y-64031009D01*
X129113095Y-64031009D02*
X129017857Y-64078628D01*
X129017857Y-64078628D02*
X128636905Y-64078628D01*
X129684524Y-64554819D02*
X129875000Y-64554819D01*
X129875000Y-64554819D02*
X129970238Y-64507200D01*
X129970238Y-64507200D02*
X130017857Y-64459580D01*
X130017857Y-64459580D02*
X130113095Y-64316723D01*
X130113095Y-64316723D02*
X130160714Y-64126247D01*
X130160714Y-64126247D02*
X130160714Y-63745295D01*
X130160714Y-63745295D02*
X130113095Y-63650057D01*
X130113095Y-63650057D02*
X130065476Y-63602438D01*
X130065476Y-63602438D02*
X129970238Y-63554819D01*
X129970238Y-63554819D02*
X129779762Y-63554819D01*
X129779762Y-63554819D02*
X129684524Y-63602438D01*
X129684524Y-63602438D02*
X129636905Y-63650057D01*
X129636905Y-63650057D02*
X129589286Y-63745295D01*
X129589286Y-63745295D02*
X129589286Y-63983390D01*
X129589286Y-63983390D02*
X129636905Y-64078628D01*
X129636905Y-64078628D02*
X129684524Y-64126247D01*
X129684524Y-64126247D02*
X129779762Y-64173866D01*
X129779762Y-64173866D02*
X129970238Y-64173866D01*
X129970238Y-64173866D02*
X130065476Y-64126247D01*
X130065476Y-64126247D02*
X130113095Y-64078628D01*
X130113095Y-64078628D02*
X130160714Y-63983390D01*
X80064795Y-58966666D02*
X79683842Y-59299999D01*
X80064795Y-59538094D02*
X79264795Y-59538094D01*
X79264795Y-59538094D02*
X79264795Y-59157142D01*
X79264795Y-59157142D02*
X79302890Y-59061904D01*
X79302890Y-59061904D02*
X79340985Y-59014285D01*
X79340985Y-59014285D02*
X79417176Y-58966666D01*
X79417176Y-58966666D02*
X79531461Y-58966666D01*
X79531461Y-58966666D02*
X79607652Y-59014285D01*
X79607652Y-59014285D02*
X79645747Y-59061904D01*
X79645747Y-59061904D02*
X79683842Y-59157142D01*
X79683842Y-59157142D02*
X79683842Y-59538094D01*
X80064795Y-58538094D02*
X79264795Y-58538094D01*
X79264795Y-58538094D02*
X80064795Y-57966666D01*
X80064795Y-57966666D02*
X79264795Y-57966666D01*
X80064795Y-56966666D02*
X80064795Y-57538094D01*
X80064795Y-57252380D02*
X79264795Y-57252380D01*
X79264795Y-57252380D02*
X79379080Y-57347618D01*
X79379080Y-57347618D02*
X79455271Y-57442856D01*
X79455271Y-57442856D02*
X79493366Y-57538094D01*
X79264795Y-56347618D02*
X79264795Y-56252380D01*
X79264795Y-56252380D02*
X79302890Y-56157142D01*
X79302890Y-56157142D02*
X79340985Y-56109523D01*
X79340985Y-56109523D02*
X79417176Y-56061904D01*
X79417176Y-56061904D02*
X79569557Y-56014285D01*
X79569557Y-56014285D02*
X79760033Y-56014285D01*
X79760033Y-56014285D02*
X79912414Y-56061904D01*
X79912414Y-56061904D02*
X79988604Y-56109523D01*
X79988604Y-56109523D02*
X80026700Y-56157142D01*
X80026700Y-56157142D02*
X80064795Y-56252380D01*
X80064795Y-56252380D02*
X80064795Y-56347618D01*
X80064795Y-56347618D02*
X80026700Y-56442856D01*
X80026700Y-56442856D02*
X79988604Y-56490475D01*
X79988604Y-56490475D02*
X79912414Y-56538094D01*
X79912414Y-56538094D02*
X79760033Y-56585713D01*
X79760033Y-56585713D02*
X79569557Y-56585713D01*
X79569557Y-56585713D02*
X79417176Y-56538094D01*
X79417176Y-56538094D02*
X79340985Y-56490475D01*
X79340985Y-56490475D02*
X79302890Y-56442856D01*
X79302890Y-56442856D02*
X79264795Y-56347618D01*
D14*
G36*
X93655706Y-52058630D02*
G01*
X93655706Y-52319426D01*
X92150041Y-53214589D01*
X92150041Y-52915171D01*
X92614132Y-52638224D01*
X92614132Y-52551292D01*
X92782110Y-52551292D01*
X93235761Y-52293726D01*
X93296577Y-52261425D01*
X93387985Y-52218029D01*
X93460434Y-52184183D01*
X93333397Y-52132642D01*
X93235761Y-52084330D01*
X92782110Y-51823534D01*
X92782110Y-52551292D01*
X92614132Y-52551292D01*
X92614132Y-51726911D01*
X92150041Y-51453195D01*
X92150041Y-51160238D01*
X93655706Y-52058630D01*
G37*
G36*
X92150041Y-54175898D02*
G01*
X92150041Y-53345057D01*
X92259217Y-53345057D01*
X92299151Y-53615544D01*
X93498261Y-53615544D01*
X93540210Y-53345057D01*
X93649478Y-53345057D01*
X93649478Y-54175898D01*
X93540210Y-54175898D01*
X93498261Y-53905411D01*
X92299151Y-53905411D01*
X92259217Y-54175898D01*
X92150041Y-54175898D01*
G37*
G36*
X92551118Y-55922546D02*
G01*
X92454158Y-55907790D01*
X92371868Y-55865695D01*
X92301241Y-55797244D01*
X92240349Y-55700370D01*
X92193783Y-55586165D01*
X92159067Y-55450992D01*
X92136945Y-55290968D01*
X92129066Y-55101395D01*
X92133963Y-54912113D01*
X92147934Y-54743976D01*
X92171605Y-54587693D01*
X92200416Y-54470259D01*
X92381033Y-54470259D01*
X92350338Y-54594013D01*
X92320125Y-54758441D01*
X92299711Y-54932833D01*
X92292831Y-55114315D01*
X92301327Y-55283784D01*
X92323989Y-55409759D01*
X92357952Y-55502210D01*
X92406567Y-55574769D01*
X92464359Y-55617752D01*
X92534357Y-55632678D01*
X92603704Y-55619942D01*
X92658188Y-55584367D01*
X92704398Y-55522952D01*
X92751702Y-55418508D01*
X92793154Y-55288413D01*
X92843019Y-55091705D01*
X92896301Y-54901469D01*
X92953210Y-54756579D01*
X93013103Y-54649039D01*
X93066180Y-54585378D01*
X93128445Y-54538897D01*
X93201685Y-54509675D01*
X93288243Y-54499330D01*
X93366084Y-54510260D01*
X93433657Y-54541635D01*
X93492949Y-54592723D01*
X93544554Y-54661728D01*
X93588230Y-54747318D01*
X93624199Y-54851834D01*
X93649309Y-54964504D01*
X93664985Y-55090970D01*
X93670452Y-55233408D01*
X93664417Y-55418943D01*
X93647280Y-55581137D01*
X93620007Y-55734203D01*
X93586463Y-55867774D01*
X93424713Y-55777612D01*
X93455305Y-55655028D01*
X93481408Y-55518360D01*
X93498722Y-55376321D01*
X93504581Y-55226948D01*
X93496859Y-55085730D01*
X93476129Y-54980041D01*
X93444680Y-54901690D01*
X93400631Y-54841060D01*
X93348632Y-54804872D01*
X93286136Y-54792287D01*
X93214932Y-54805113D01*
X93160107Y-54840599D01*
X93114214Y-54900947D01*
X93069798Y-54998312D01*
X93030882Y-55118511D01*
X92983702Y-55294640D01*
X92931685Y-55487958D01*
X92879747Y-55637453D01*
X92838997Y-55725644D01*
X92794603Y-55795813D01*
X92746390Y-55850079D01*
X92692650Y-55889006D01*
X92628320Y-55913724D01*
X92551118Y-55922546D01*
G37*
G36*
X92150041Y-56384592D02*
G01*
X93649478Y-56384592D01*
X93649478Y-56674459D01*
X92318019Y-56674459D01*
X92318019Y-57679024D01*
X92150041Y-57679024D01*
X92150041Y-56384592D01*
G37*
G36*
X92150041Y-59354609D02*
G01*
X92150041Y-58069868D01*
X93649478Y-58069868D01*
X93649478Y-59354609D01*
X93483515Y-59354609D01*
X93483515Y-58359735D01*
X93015210Y-58359735D01*
X93015210Y-59296748D01*
X92851445Y-59296748D01*
X92851445Y-58359735D01*
X92315912Y-58359735D01*
X92315912Y-59354609D01*
X92150041Y-59354609D01*
G37*
G36*
X93649478Y-60492873D02*
G01*
X93641372Y-60712525D01*
X93619356Y-60885729D01*
X93586160Y-61021012D01*
X93543415Y-61125553D01*
X93485771Y-61212518D01*
X93415184Y-61275738D01*
X93328932Y-61315714D01*
X93223121Y-61330033D01*
X93144289Y-61321757D01*
X93078535Y-61298610D01*
X93023636Y-61262341D01*
X92951260Y-61184530D01*
X92896599Y-61090162D01*
X92854189Y-60982273D01*
X92822044Y-60869532D01*
X92150041Y-61500668D01*
X92150041Y-61162629D01*
X92769562Y-60605505D01*
X92769562Y-60492873D01*
X92929114Y-60492873D01*
X92938744Y-60677044D01*
X92964064Y-60809038D01*
X93001563Y-60901833D01*
X93055244Y-60971370D01*
X93124657Y-61014872D01*
X93214695Y-61030616D01*
X93287738Y-61020797D01*
X93344804Y-60993887D01*
X93389307Y-60952108D01*
X93423614Y-60895373D01*
X93455471Y-60799924D01*
X93477293Y-60664553D01*
X93485621Y-60476722D01*
X93485621Y-60148374D01*
X92929114Y-60148374D01*
X92929114Y-60492873D01*
X92769562Y-60492873D01*
X92769562Y-60148374D01*
X92150041Y-60148374D01*
X92150041Y-59858507D01*
X93649478Y-59858507D01*
X93649478Y-60492873D01*
G37*
D13*
X100295833Y-65172080D02*
X100248214Y-65219700D01*
X100248214Y-65219700D02*
X100105357Y-65267319D01*
X100105357Y-65267319D02*
X100010119Y-65267319D01*
X100010119Y-65267319D02*
X99867262Y-65219700D01*
X99867262Y-65219700D02*
X99772024Y-65124461D01*
X99772024Y-65124461D02*
X99724405Y-65029223D01*
X99724405Y-65029223D02*
X99676786Y-64838747D01*
X99676786Y-64838747D02*
X99676786Y-64695890D01*
X99676786Y-64695890D02*
X99724405Y-64505414D01*
X99724405Y-64505414D02*
X99772024Y-64410176D01*
X99772024Y-64410176D02*
X99867262Y-64314938D01*
X99867262Y-64314938D02*
X100010119Y-64267319D01*
X100010119Y-64267319D02*
X100105357Y-64267319D01*
X100105357Y-64267319D02*
X100248214Y-64314938D01*
X100248214Y-64314938D02*
X100295833Y-64362557D01*
X100676786Y-64362557D02*
X100724405Y-64314938D01*
X100724405Y-64314938D02*
X100819643Y-64267319D01*
X100819643Y-64267319D02*
X101057738Y-64267319D01*
X101057738Y-64267319D02*
X101152976Y-64314938D01*
X101152976Y-64314938D02*
X101200595Y-64362557D01*
X101200595Y-64362557D02*
X101248214Y-64457795D01*
X101248214Y-64457795D02*
X101248214Y-64553033D01*
X101248214Y-64553033D02*
X101200595Y-64695890D01*
X101200595Y-64695890D02*
X100629167Y-65267319D01*
X100629167Y-65267319D02*
X101248214Y-65267319D01*
X136252295Y-62822857D02*
X135871342Y-63156190D01*
X136252295Y-63394285D02*
X135452295Y-63394285D01*
X135452295Y-63394285D02*
X135452295Y-63013333D01*
X135452295Y-63013333D02*
X135490390Y-62918095D01*
X135490390Y-62918095D02*
X135528485Y-62870476D01*
X135528485Y-62870476D02*
X135604676Y-62822857D01*
X135604676Y-62822857D02*
X135718961Y-62822857D01*
X135718961Y-62822857D02*
X135795152Y-62870476D01*
X135795152Y-62870476D02*
X135833247Y-62918095D01*
X135833247Y-62918095D02*
X135871342Y-63013333D01*
X135871342Y-63013333D02*
X135871342Y-63394285D01*
X136252295Y-61870476D02*
X136252295Y-62441904D01*
X136252295Y-62156190D02*
X135452295Y-62156190D01*
X135452295Y-62156190D02*
X135566580Y-62251428D01*
X135566580Y-62251428D02*
X135642771Y-62346666D01*
X135642771Y-62346666D02*
X135680866Y-62441904D01*
X136252295Y-61394285D02*
X136252295Y-61203809D01*
X136252295Y-61203809D02*
X136214200Y-61108571D01*
X136214200Y-61108571D02*
X136176104Y-61060952D01*
X136176104Y-61060952D02*
X136061819Y-60965714D01*
X136061819Y-60965714D02*
X135909438Y-60918095D01*
X135909438Y-60918095D02*
X135604676Y-60918095D01*
X135604676Y-60918095D02*
X135528485Y-60965714D01*
X135528485Y-60965714D02*
X135490390Y-61013333D01*
X135490390Y-61013333D02*
X135452295Y-61108571D01*
X135452295Y-61108571D02*
X135452295Y-61299047D01*
X135452295Y-61299047D02*
X135490390Y-61394285D01*
X135490390Y-61394285D02*
X135528485Y-61441904D01*
X135528485Y-61441904D02*
X135604676Y-61489523D01*
X135604676Y-61489523D02*
X135795152Y-61489523D01*
X135795152Y-61489523D02*
X135871342Y-61441904D01*
X135871342Y-61441904D02*
X135909438Y-61394285D01*
X135909438Y-61394285D02*
X135947533Y-61299047D01*
X135947533Y-61299047D02*
X135947533Y-61108571D01*
X135947533Y-61108571D02*
X135909438Y-61013333D01*
X135909438Y-61013333D02*
X135871342Y-60965714D01*
X135871342Y-60965714D02*
X135795152Y-60918095D01*
X138025057Y-56895238D02*
X137977438Y-56990476D01*
X137977438Y-56990476D02*
X137882200Y-57085714D01*
X137882200Y-57085714D02*
X137739342Y-57228571D01*
X137739342Y-57228571D02*
X137691723Y-57323809D01*
X137691723Y-57323809D02*
X137691723Y-57419047D01*
X137929819Y-57371428D02*
X137882200Y-57466666D01*
X137882200Y-57466666D02*
X137786961Y-57561904D01*
X137786961Y-57561904D02*
X137596485Y-57609523D01*
X137596485Y-57609523D02*
X137263152Y-57609523D01*
X137263152Y-57609523D02*
X137072676Y-57561904D01*
X137072676Y-57561904D02*
X136977438Y-57466666D01*
X136977438Y-57466666D02*
X136929819Y-57371428D01*
X136929819Y-57371428D02*
X136929819Y-57180952D01*
X136929819Y-57180952D02*
X136977438Y-57085714D01*
X136977438Y-57085714D02*
X137072676Y-56990476D01*
X137072676Y-56990476D02*
X137263152Y-56942857D01*
X137263152Y-56942857D02*
X137596485Y-56942857D01*
X137596485Y-56942857D02*
X137786961Y-56990476D01*
X137786961Y-56990476D02*
X137882200Y-57085714D01*
X137882200Y-57085714D02*
X137929819Y-57180952D01*
X137929819Y-57180952D02*
X137929819Y-57371428D01*
X136929819Y-56038095D02*
X136929819Y-56514285D01*
X136929819Y-56514285D02*
X137406009Y-56561904D01*
X137406009Y-56561904D02*
X137358390Y-56514285D01*
X137358390Y-56514285D02*
X137310771Y-56419047D01*
X137310771Y-56419047D02*
X137310771Y-56180952D01*
X137310771Y-56180952D02*
X137358390Y-56085714D01*
X137358390Y-56085714D02*
X137406009Y-56038095D01*
X137406009Y-56038095D02*
X137501247Y-55990476D01*
X137501247Y-55990476D02*
X137739342Y-55990476D01*
X137739342Y-55990476D02*
X137834580Y-56038095D01*
X137834580Y-56038095D02*
X137882200Y-56085714D01*
X137882200Y-56085714D02*
X137929819Y-56180952D01*
X137929819Y-56180952D02*
X137929819Y-56419047D01*
X137929819Y-56419047D02*
X137882200Y-56514285D01*
X137882200Y-56514285D02*
X137834580Y-56561904D01*
X111829819Y-72490476D02*
X111353628Y-72823809D01*
X111829819Y-73061904D02*
X110829819Y-73061904D01*
X110829819Y-73061904D02*
X110829819Y-72680952D01*
X110829819Y-72680952D02*
X110877438Y-72585714D01*
X110877438Y-72585714D02*
X110925057Y-72538095D01*
X110925057Y-72538095D02*
X111020295Y-72490476D01*
X111020295Y-72490476D02*
X111163152Y-72490476D01*
X111163152Y-72490476D02*
X111258390Y-72538095D01*
X111258390Y-72538095D02*
X111306009Y-72585714D01*
X111306009Y-72585714D02*
X111353628Y-72680952D01*
X111353628Y-72680952D02*
X111353628Y-73061904D01*
X111829819Y-72061904D02*
X110829819Y-72061904D01*
X110829819Y-72061904D02*
X111829819Y-71490476D01*
X111829819Y-71490476D02*
X110829819Y-71490476D01*
X110829819Y-70585714D02*
X110829819Y-70776190D01*
X110829819Y-70776190D02*
X110877438Y-70871428D01*
X110877438Y-70871428D02*
X110925057Y-70919047D01*
X110925057Y-70919047D02*
X111067914Y-71014285D01*
X111067914Y-71014285D02*
X111258390Y-71061904D01*
X111258390Y-71061904D02*
X111639342Y-71061904D01*
X111639342Y-71061904D02*
X111734580Y-71014285D01*
X111734580Y-71014285D02*
X111782200Y-70966666D01*
X111782200Y-70966666D02*
X111829819Y-70871428D01*
X111829819Y-70871428D02*
X111829819Y-70680952D01*
X111829819Y-70680952D02*
X111782200Y-70585714D01*
X111782200Y-70585714D02*
X111734580Y-70538095D01*
X111734580Y-70538095D02*
X111639342Y-70490476D01*
X111639342Y-70490476D02*
X111401247Y-70490476D01*
X111401247Y-70490476D02*
X111306009Y-70538095D01*
X111306009Y-70538095D02*
X111258390Y-70585714D01*
X111258390Y-70585714D02*
X111210771Y-70680952D01*
X111210771Y-70680952D02*
X111210771Y-70871428D01*
X111210771Y-70871428D02*
X111258390Y-70966666D01*
X111258390Y-70966666D02*
X111306009Y-71014285D01*
X111306009Y-71014285D02*
X111401247Y-71061904D01*
X149332142Y-63429819D02*
X148998809Y-62953628D01*
X148760714Y-63429819D02*
X148760714Y-62429819D01*
X148760714Y-62429819D02*
X149141666Y-62429819D01*
X149141666Y-62429819D02*
X149236904Y-62477438D01*
X149236904Y-62477438D02*
X149284523Y-62525057D01*
X149284523Y-62525057D02*
X149332142Y-62620295D01*
X149332142Y-62620295D02*
X149332142Y-62763152D01*
X149332142Y-62763152D02*
X149284523Y-62858390D01*
X149284523Y-62858390D02*
X149236904Y-62906009D01*
X149236904Y-62906009D02*
X149141666Y-62953628D01*
X149141666Y-62953628D02*
X148760714Y-62953628D01*
X150284523Y-63429819D02*
X149713095Y-63429819D01*
X149998809Y-63429819D02*
X149998809Y-62429819D01*
X149998809Y-62429819D02*
X149903571Y-62572676D01*
X149903571Y-62572676D02*
X149808333Y-62667914D01*
X149808333Y-62667914D02*
X149713095Y-62715533D01*
X151189285Y-62429819D02*
X150713095Y-62429819D01*
X150713095Y-62429819D02*
X150665476Y-62906009D01*
X150665476Y-62906009D02*
X150713095Y-62858390D01*
X150713095Y-62858390D02*
X150808333Y-62810771D01*
X150808333Y-62810771D02*
X151046428Y-62810771D01*
X151046428Y-62810771D02*
X151141666Y-62858390D01*
X151141666Y-62858390D02*
X151189285Y-62906009D01*
X151189285Y-62906009D02*
X151236904Y-63001247D01*
X151236904Y-63001247D02*
X151236904Y-63239342D01*
X151236904Y-63239342D02*
X151189285Y-63334580D01*
X151189285Y-63334580D02*
X151141666Y-63382200D01*
X151141666Y-63382200D02*
X151046428Y-63429819D01*
X151046428Y-63429819D02*
X150808333Y-63429819D01*
X150808333Y-63429819D02*
X150713095Y-63382200D01*
X150713095Y-63382200D02*
X150665476Y-63334580D01*
X143778571Y-68825057D02*
X143683333Y-68777438D01*
X143683333Y-68777438D02*
X143588095Y-68682200D01*
X143588095Y-68682200D02*
X143445238Y-68539342D01*
X143445238Y-68539342D02*
X143350000Y-68491723D01*
X143350000Y-68491723D02*
X143254762Y-68491723D01*
X143302381Y-68729819D02*
X143207143Y-68682200D01*
X143207143Y-68682200D02*
X143111905Y-68586961D01*
X143111905Y-68586961D02*
X143064286Y-68396485D01*
X143064286Y-68396485D02*
X143064286Y-68063152D01*
X143064286Y-68063152D02*
X143111905Y-67872676D01*
X143111905Y-67872676D02*
X143207143Y-67777438D01*
X143207143Y-67777438D02*
X143302381Y-67729819D01*
X143302381Y-67729819D02*
X143492857Y-67729819D01*
X143492857Y-67729819D02*
X143588095Y-67777438D01*
X143588095Y-67777438D02*
X143683333Y-67872676D01*
X143683333Y-67872676D02*
X143730952Y-68063152D01*
X143730952Y-68063152D02*
X143730952Y-68396485D01*
X143730952Y-68396485D02*
X143683333Y-68586961D01*
X143683333Y-68586961D02*
X143588095Y-68682200D01*
X143588095Y-68682200D02*
X143492857Y-68729819D01*
X143492857Y-68729819D02*
X143302381Y-68729819D01*
X144683333Y-68729819D02*
X144111905Y-68729819D01*
X144397619Y-68729819D02*
X144397619Y-67729819D01*
X144397619Y-67729819D02*
X144302381Y-67872676D01*
X144302381Y-67872676D02*
X144207143Y-67967914D01*
X144207143Y-67967914D02*
X144111905Y-68015533D01*
X145635714Y-68729819D02*
X145064286Y-68729819D01*
X145350000Y-68729819D02*
X145350000Y-67729819D01*
X145350000Y-67729819D02*
X145254762Y-67872676D01*
X145254762Y-67872676D02*
X145159524Y-67967914D01*
X145159524Y-67967914D02*
X145064286Y-68015533D01*
X94865833Y-63999580D02*
X94818214Y-64047200D01*
X94818214Y-64047200D02*
X94675357Y-64094819D01*
X94675357Y-64094819D02*
X94580119Y-64094819D01*
X94580119Y-64094819D02*
X94437262Y-64047200D01*
X94437262Y-64047200D02*
X94342024Y-63951961D01*
X94342024Y-63951961D02*
X94294405Y-63856723D01*
X94294405Y-63856723D02*
X94246786Y-63666247D01*
X94246786Y-63666247D02*
X94246786Y-63523390D01*
X94246786Y-63523390D02*
X94294405Y-63332914D01*
X94294405Y-63332914D02*
X94342024Y-63237676D01*
X94342024Y-63237676D02*
X94437262Y-63142438D01*
X94437262Y-63142438D02*
X94580119Y-63094819D01*
X94580119Y-63094819D02*
X94675357Y-63094819D01*
X94675357Y-63094819D02*
X94818214Y-63142438D01*
X94818214Y-63142438D02*
X94865833Y-63190057D01*
X95199167Y-63094819D02*
X95818214Y-63094819D01*
X95818214Y-63094819D02*
X95484881Y-63475771D01*
X95484881Y-63475771D02*
X95627738Y-63475771D01*
X95627738Y-63475771D02*
X95722976Y-63523390D01*
X95722976Y-63523390D02*
X95770595Y-63571009D01*
X95770595Y-63571009D02*
X95818214Y-63666247D01*
X95818214Y-63666247D02*
X95818214Y-63904342D01*
X95818214Y-63904342D02*
X95770595Y-63999580D01*
X95770595Y-63999580D02*
X95722976Y-64047200D01*
X95722976Y-64047200D02*
X95627738Y-64094819D01*
X95627738Y-64094819D02*
X95342024Y-64094819D01*
X95342024Y-64094819D02*
X95246786Y-64047200D01*
X95246786Y-64047200D02*
X95199167Y-63999580D01*
X141379819Y-53942857D02*
X140903628Y-54276190D01*
X141379819Y-54514285D02*
X140379819Y-54514285D01*
X140379819Y-54514285D02*
X140379819Y-54133333D01*
X140379819Y-54133333D02*
X140427438Y-54038095D01*
X140427438Y-54038095D02*
X140475057Y-53990476D01*
X140475057Y-53990476D02*
X140570295Y-53942857D01*
X140570295Y-53942857D02*
X140713152Y-53942857D01*
X140713152Y-53942857D02*
X140808390Y-53990476D01*
X140808390Y-53990476D02*
X140856009Y-54038095D01*
X140856009Y-54038095D02*
X140903628Y-54133333D01*
X140903628Y-54133333D02*
X140903628Y-54514285D01*
X140379819Y-53609523D02*
X140379819Y-52990476D01*
X140379819Y-52990476D02*
X140760771Y-53323809D01*
X140760771Y-53323809D02*
X140760771Y-53180952D01*
X140760771Y-53180952D02*
X140808390Y-53085714D01*
X140808390Y-53085714D02*
X140856009Y-53038095D01*
X140856009Y-53038095D02*
X140951247Y-52990476D01*
X140951247Y-52990476D02*
X141189342Y-52990476D01*
X141189342Y-52990476D02*
X141284580Y-53038095D01*
X141284580Y-53038095D02*
X141332200Y-53085714D01*
X141332200Y-53085714D02*
X141379819Y-53180952D01*
X141379819Y-53180952D02*
X141379819Y-53466666D01*
X141379819Y-53466666D02*
X141332200Y-53561904D01*
X141332200Y-53561904D02*
X141284580Y-53609523D01*
X140475057Y-52609523D02*
X140427438Y-52561904D01*
X140427438Y-52561904D02*
X140379819Y-52466666D01*
X140379819Y-52466666D02*
X140379819Y-52228571D01*
X140379819Y-52228571D02*
X140427438Y-52133333D01*
X140427438Y-52133333D02*
X140475057Y-52085714D01*
X140475057Y-52085714D02*
X140570295Y-52038095D01*
X140570295Y-52038095D02*
X140665533Y-52038095D01*
X140665533Y-52038095D02*
X140808390Y-52085714D01*
X140808390Y-52085714D02*
X141379819Y-52657142D01*
X141379819Y-52657142D02*
X141379819Y-52038095D01*
X100258333Y-66647080D02*
X100210714Y-66694700D01*
X100210714Y-66694700D02*
X100067857Y-66742319D01*
X100067857Y-66742319D02*
X99972619Y-66742319D01*
X99972619Y-66742319D02*
X99829762Y-66694700D01*
X99829762Y-66694700D02*
X99734524Y-66599461D01*
X99734524Y-66599461D02*
X99686905Y-66504223D01*
X99686905Y-66504223D02*
X99639286Y-66313747D01*
X99639286Y-66313747D02*
X99639286Y-66170890D01*
X99639286Y-66170890D02*
X99686905Y-65980414D01*
X99686905Y-65980414D02*
X99734524Y-65885176D01*
X99734524Y-65885176D02*
X99829762Y-65789938D01*
X99829762Y-65789938D02*
X99972619Y-65742319D01*
X99972619Y-65742319D02*
X100067857Y-65742319D01*
X100067857Y-65742319D02*
X100210714Y-65789938D01*
X100210714Y-65789938D02*
X100258333Y-65837557D01*
X101210714Y-66742319D02*
X100639286Y-66742319D01*
X100925000Y-66742319D02*
X100925000Y-65742319D01*
X100925000Y-65742319D02*
X100829762Y-65885176D01*
X100829762Y-65885176D02*
X100734524Y-65980414D01*
X100734524Y-65980414D02*
X100639286Y-66028033D01*
X135738095Y-52379819D02*
X135738095Y-53189342D01*
X135738095Y-53189342D02*
X135785714Y-53284580D01*
X135785714Y-53284580D02*
X135833333Y-53332200D01*
X135833333Y-53332200D02*
X135928571Y-53379819D01*
X135928571Y-53379819D02*
X136119047Y-53379819D01*
X136119047Y-53379819D02*
X136214285Y-53332200D01*
X136214285Y-53332200D02*
X136261904Y-53284580D01*
X136261904Y-53284580D02*
X136309523Y-53189342D01*
X136309523Y-53189342D02*
X136309523Y-52379819D01*
X136690476Y-52379819D02*
X137357142Y-52379819D01*
X137357142Y-52379819D02*
X136928571Y-53379819D01*
X130729761Y-58000057D02*
X130634523Y-57952438D01*
X130634523Y-57952438D02*
X130539285Y-57857200D01*
X130539285Y-57857200D02*
X130396428Y-57714342D01*
X130396428Y-57714342D02*
X130301190Y-57666723D01*
X130301190Y-57666723D02*
X130205952Y-57666723D01*
X130253571Y-57904819D02*
X130158333Y-57857200D01*
X130158333Y-57857200D02*
X130063095Y-57761961D01*
X130063095Y-57761961D02*
X130015476Y-57571485D01*
X130015476Y-57571485D02*
X130015476Y-57238152D01*
X130015476Y-57238152D02*
X130063095Y-57047676D01*
X130063095Y-57047676D02*
X130158333Y-56952438D01*
X130158333Y-56952438D02*
X130253571Y-56904819D01*
X130253571Y-56904819D02*
X130444047Y-56904819D01*
X130444047Y-56904819D02*
X130539285Y-56952438D01*
X130539285Y-56952438D02*
X130634523Y-57047676D01*
X130634523Y-57047676D02*
X130682142Y-57238152D01*
X130682142Y-57238152D02*
X130682142Y-57571485D01*
X130682142Y-57571485D02*
X130634523Y-57761961D01*
X130634523Y-57761961D02*
X130539285Y-57857200D01*
X130539285Y-57857200D02*
X130444047Y-57904819D01*
X130444047Y-57904819D02*
X130253571Y-57904819D01*
X131539285Y-57238152D02*
X131539285Y-57904819D01*
X131301190Y-56857200D02*
X131063095Y-57571485D01*
X131063095Y-57571485D02*
X131682142Y-57571485D01*
X135457142Y-66654819D02*
X135123809Y-66178628D01*
X134885714Y-66654819D02*
X134885714Y-65654819D01*
X134885714Y-65654819D02*
X135266666Y-65654819D01*
X135266666Y-65654819D02*
X135361904Y-65702438D01*
X135361904Y-65702438D02*
X135409523Y-65750057D01*
X135409523Y-65750057D02*
X135457142Y-65845295D01*
X135457142Y-65845295D02*
X135457142Y-65988152D01*
X135457142Y-65988152D02*
X135409523Y-66083390D01*
X135409523Y-66083390D02*
X135361904Y-66131009D01*
X135361904Y-66131009D02*
X135266666Y-66178628D01*
X135266666Y-66178628D02*
X134885714Y-66178628D01*
X135790476Y-65654819D02*
X136409523Y-65654819D01*
X136409523Y-65654819D02*
X136076190Y-66035771D01*
X136076190Y-66035771D02*
X136219047Y-66035771D01*
X136219047Y-66035771D02*
X136314285Y-66083390D01*
X136314285Y-66083390D02*
X136361904Y-66131009D01*
X136361904Y-66131009D02*
X136409523Y-66226247D01*
X136409523Y-66226247D02*
X136409523Y-66464342D01*
X136409523Y-66464342D02*
X136361904Y-66559580D01*
X136361904Y-66559580D02*
X136314285Y-66607200D01*
X136314285Y-66607200D02*
X136219047Y-66654819D01*
X136219047Y-66654819D02*
X135933333Y-66654819D01*
X135933333Y-66654819D02*
X135838095Y-66607200D01*
X135838095Y-66607200D02*
X135790476Y-66559580D01*
X137028571Y-65654819D02*
X137123809Y-65654819D01*
X137123809Y-65654819D02*
X137219047Y-65702438D01*
X137219047Y-65702438D02*
X137266666Y-65750057D01*
X137266666Y-65750057D02*
X137314285Y-65845295D01*
X137314285Y-65845295D02*
X137361904Y-66035771D01*
X137361904Y-66035771D02*
X137361904Y-66273866D01*
X137361904Y-66273866D02*
X137314285Y-66464342D01*
X137314285Y-66464342D02*
X137266666Y-66559580D01*
X137266666Y-66559580D02*
X137219047Y-66607200D01*
X137219047Y-66607200D02*
X137123809Y-66654819D01*
X137123809Y-66654819D02*
X137028571Y-66654819D01*
X137028571Y-66654819D02*
X136933333Y-66607200D01*
X136933333Y-66607200D02*
X136885714Y-66559580D01*
X136885714Y-66559580D02*
X136838095Y-66464342D01*
X136838095Y-66464342D02*
X136790476Y-66273866D01*
X136790476Y-66273866D02*
X136790476Y-66035771D01*
X136790476Y-66035771D02*
X136838095Y-65845295D01*
X136838095Y-65845295D02*
X136885714Y-65750057D01*
X136885714Y-65750057D02*
X136933333Y-65702438D01*
X136933333Y-65702438D02*
X137028571Y-65654819D01*
X149603571Y-76650057D02*
X149508333Y-76602438D01*
X149508333Y-76602438D02*
X149413095Y-76507200D01*
X149413095Y-76507200D02*
X149270238Y-76364342D01*
X149270238Y-76364342D02*
X149175000Y-76316723D01*
X149175000Y-76316723D02*
X149079762Y-76316723D01*
X149127381Y-76554819D02*
X149032143Y-76507200D01*
X149032143Y-76507200D02*
X148936905Y-76411961D01*
X148936905Y-76411961D02*
X148889286Y-76221485D01*
X148889286Y-76221485D02*
X148889286Y-75888152D01*
X148889286Y-75888152D02*
X148936905Y-75697676D01*
X148936905Y-75697676D02*
X149032143Y-75602438D01*
X149032143Y-75602438D02*
X149127381Y-75554819D01*
X149127381Y-75554819D02*
X149317857Y-75554819D01*
X149317857Y-75554819D02*
X149413095Y-75602438D01*
X149413095Y-75602438D02*
X149508333Y-75697676D01*
X149508333Y-75697676D02*
X149555952Y-75888152D01*
X149555952Y-75888152D02*
X149555952Y-76221485D01*
X149555952Y-76221485D02*
X149508333Y-76411961D01*
X149508333Y-76411961D02*
X149413095Y-76507200D01*
X149413095Y-76507200D02*
X149317857Y-76554819D01*
X149317857Y-76554819D02*
X149127381Y-76554819D01*
X150508333Y-76554819D02*
X149936905Y-76554819D01*
X150222619Y-76554819D02*
X150222619Y-75554819D01*
X150222619Y-75554819D02*
X150127381Y-75697676D01*
X150127381Y-75697676D02*
X150032143Y-75792914D01*
X150032143Y-75792914D02*
X149936905Y-75840533D01*
X151127381Y-75554819D02*
X151222619Y-75554819D01*
X151222619Y-75554819D02*
X151317857Y-75602438D01*
X151317857Y-75602438D02*
X151365476Y-75650057D01*
X151365476Y-75650057D02*
X151413095Y-75745295D01*
X151413095Y-75745295D02*
X151460714Y-75935771D01*
X151460714Y-75935771D02*
X151460714Y-76173866D01*
X151460714Y-76173866D02*
X151413095Y-76364342D01*
X151413095Y-76364342D02*
X151365476Y-76459580D01*
X151365476Y-76459580D02*
X151317857Y-76507200D01*
X151317857Y-76507200D02*
X151222619Y-76554819D01*
X151222619Y-76554819D02*
X151127381Y-76554819D01*
X151127381Y-76554819D02*
X151032143Y-76507200D01*
X151032143Y-76507200D02*
X150984524Y-76459580D01*
X150984524Y-76459580D02*
X150936905Y-76364342D01*
X150936905Y-76364342D02*
X150889286Y-76173866D01*
X150889286Y-76173866D02*
X150889286Y-75935771D01*
X150889286Y-75935771D02*
X150936905Y-75745295D01*
X150936905Y-75745295D02*
X150984524Y-75650057D01*
X150984524Y-75650057D02*
X151032143Y-75602438D01*
X151032143Y-75602438D02*
X151127381Y-75554819D01*
X113554819Y-68542857D02*
X113078628Y-68876190D01*
X113554819Y-69114285D02*
X112554819Y-69114285D01*
X112554819Y-69114285D02*
X112554819Y-68733333D01*
X112554819Y-68733333D02*
X112602438Y-68638095D01*
X112602438Y-68638095D02*
X112650057Y-68590476D01*
X112650057Y-68590476D02*
X112745295Y-68542857D01*
X112745295Y-68542857D02*
X112888152Y-68542857D01*
X112888152Y-68542857D02*
X112983390Y-68590476D01*
X112983390Y-68590476D02*
X113031009Y-68638095D01*
X113031009Y-68638095D02*
X113078628Y-68733333D01*
X113078628Y-68733333D02*
X113078628Y-69114285D01*
X112888152Y-67685714D02*
X113554819Y-67685714D01*
X112507200Y-67923809D02*
X113221485Y-68161904D01*
X113221485Y-68161904D02*
X113221485Y-67542857D01*
X112554819Y-66971428D02*
X112554819Y-66876190D01*
X112554819Y-66876190D02*
X112602438Y-66780952D01*
X112602438Y-66780952D02*
X112650057Y-66733333D01*
X112650057Y-66733333D02*
X112745295Y-66685714D01*
X112745295Y-66685714D02*
X112935771Y-66638095D01*
X112935771Y-66638095D02*
X113173866Y-66638095D01*
X113173866Y-66638095D02*
X113364342Y-66685714D01*
X113364342Y-66685714D02*
X113459580Y-66733333D01*
X113459580Y-66733333D02*
X113507200Y-66780952D01*
X113507200Y-66780952D02*
X113554819Y-66876190D01*
X113554819Y-66876190D02*
X113554819Y-66971428D01*
X113554819Y-66971428D02*
X113507200Y-67066666D01*
X113507200Y-67066666D02*
X113459580Y-67114285D01*
X113459580Y-67114285D02*
X113364342Y-67161904D01*
X113364342Y-67161904D02*
X113173866Y-67209523D01*
X113173866Y-67209523D02*
X112935771Y-67209523D01*
X112935771Y-67209523D02*
X112745295Y-67161904D01*
X112745295Y-67161904D02*
X112650057Y-67114285D01*
X112650057Y-67114285D02*
X112602438Y-67066666D01*
X112602438Y-67066666D02*
X112554819Y-66971428D01*
X143254819Y-76207857D02*
X142778628Y-76541190D01*
X143254819Y-76779285D02*
X142254819Y-76779285D01*
X142254819Y-76779285D02*
X142254819Y-76398333D01*
X142254819Y-76398333D02*
X142302438Y-76303095D01*
X142302438Y-76303095D02*
X142350057Y-76255476D01*
X142350057Y-76255476D02*
X142445295Y-76207857D01*
X142445295Y-76207857D02*
X142588152Y-76207857D01*
X142588152Y-76207857D02*
X142683390Y-76255476D01*
X142683390Y-76255476D02*
X142731009Y-76303095D01*
X142731009Y-76303095D02*
X142778628Y-76398333D01*
X142778628Y-76398333D02*
X142778628Y-76779285D01*
X143254819Y-75255476D02*
X143254819Y-75826904D01*
X143254819Y-75541190D02*
X142254819Y-75541190D01*
X142254819Y-75541190D02*
X142397676Y-75636428D01*
X142397676Y-75636428D02*
X142492914Y-75731666D01*
X142492914Y-75731666D02*
X142540533Y-75826904D01*
X142588152Y-74398333D02*
X143254819Y-74398333D01*
X142207200Y-74636428D02*
X142921485Y-74874523D01*
X142921485Y-74874523D02*
X142921485Y-74255476D01*
X150179819Y-44067857D02*
X149703628Y-44401190D01*
X150179819Y-44639285D02*
X149179819Y-44639285D01*
X149179819Y-44639285D02*
X149179819Y-44258333D01*
X149179819Y-44258333D02*
X149227438Y-44163095D01*
X149227438Y-44163095D02*
X149275057Y-44115476D01*
X149275057Y-44115476D02*
X149370295Y-44067857D01*
X149370295Y-44067857D02*
X149513152Y-44067857D01*
X149513152Y-44067857D02*
X149608390Y-44115476D01*
X149608390Y-44115476D02*
X149656009Y-44163095D01*
X149656009Y-44163095D02*
X149703628Y-44258333D01*
X149703628Y-44258333D02*
X149703628Y-44639285D01*
X149275057Y-43686904D02*
X149227438Y-43639285D01*
X149227438Y-43639285D02*
X149179819Y-43544047D01*
X149179819Y-43544047D02*
X149179819Y-43305952D01*
X149179819Y-43305952D02*
X149227438Y-43210714D01*
X149227438Y-43210714D02*
X149275057Y-43163095D01*
X149275057Y-43163095D02*
X149370295Y-43115476D01*
X149370295Y-43115476D02*
X149465533Y-43115476D01*
X149465533Y-43115476D02*
X149608390Y-43163095D01*
X149608390Y-43163095D02*
X150179819Y-43734523D01*
X150179819Y-43734523D02*
X150179819Y-43115476D01*
X149179819Y-42782142D02*
X149179819Y-42163095D01*
X149179819Y-42163095D02*
X149560771Y-42496428D01*
X149560771Y-42496428D02*
X149560771Y-42353571D01*
X149560771Y-42353571D02*
X149608390Y-42258333D01*
X149608390Y-42258333D02*
X149656009Y-42210714D01*
X149656009Y-42210714D02*
X149751247Y-42163095D01*
X149751247Y-42163095D02*
X149989342Y-42163095D01*
X149989342Y-42163095D02*
X150084580Y-42210714D01*
X150084580Y-42210714D02*
X150132200Y-42258333D01*
X150132200Y-42258333D02*
X150179819Y-42353571D01*
X150179819Y-42353571D02*
X150179819Y-42639285D01*
X150179819Y-42639285D02*
X150132200Y-42734523D01*
X150132200Y-42734523D02*
X150084580Y-42782142D01*
X90954819Y-66642857D02*
X90478628Y-66976190D01*
X90954819Y-67214285D02*
X89954819Y-67214285D01*
X89954819Y-67214285D02*
X89954819Y-66833333D01*
X89954819Y-66833333D02*
X90002438Y-66738095D01*
X90002438Y-66738095D02*
X90050057Y-66690476D01*
X90050057Y-66690476D02*
X90145295Y-66642857D01*
X90145295Y-66642857D02*
X90288152Y-66642857D01*
X90288152Y-66642857D02*
X90383390Y-66690476D01*
X90383390Y-66690476D02*
X90431009Y-66738095D01*
X90431009Y-66738095D02*
X90478628Y-66833333D01*
X90478628Y-66833333D02*
X90478628Y-67214285D01*
X90954819Y-65690476D02*
X90954819Y-66261904D01*
X90954819Y-65976190D02*
X89954819Y-65976190D01*
X89954819Y-65976190D02*
X90097676Y-66071428D01*
X90097676Y-66071428D02*
X90192914Y-66166666D01*
X90192914Y-66166666D02*
X90240533Y-66261904D01*
X90954819Y-64738095D02*
X90954819Y-65309523D01*
X90954819Y-65023809D02*
X89954819Y-65023809D01*
X89954819Y-65023809D02*
X90097676Y-65119047D01*
X90097676Y-65119047D02*
X90192914Y-65214285D01*
X90192914Y-65214285D02*
X90240533Y-65309523D01*
X105679819Y-65351666D02*
X105203628Y-65684999D01*
X105679819Y-65923094D02*
X104679819Y-65923094D01*
X104679819Y-65923094D02*
X104679819Y-65542142D01*
X104679819Y-65542142D02*
X104727438Y-65446904D01*
X104727438Y-65446904D02*
X104775057Y-65399285D01*
X104775057Y-65399285D02*
X104870295Y-65351666D01*
X104870295Y-65351666D02*
X105013152Y-65351666D01*
X105013152Y-65351666D02*
X105108390Y-65399285D01*
X105108390Y-65399285D02*
X105156009Y-65446904D01*
X105156009Y-65446904D02*
X105203628Y-65542142D01*
X105203628Y-65542142D02*
X105203628Y-65923094D01*
X104679819Y-64494523D02*
X104679819Y-64684999D01*
X104679819Y-64684999D02*
X104727438Y-64780237D01*
X104727438Y-64780237D02*
X104775057Y-64827856D01*
X104775057Y-64827856D02*
X104917914Y-64923094D01*
X104917914Y-64923094D02*
X105108390Y-64970713D01*
X105108390Y-64970713D02*
X105489342Y-64970713D01*
X105489342Y-64970713D02*
X105584580Y-64923094D01*
X105584580Y-64923094D02*
X105632200Y-64875475D01*
X105632200Y-64875475D02*
X105679819Y-64780237D01*
X105679819Y-64780237D02*
X105679819Y-64589761D01*
X105679819Y-64589761D02*
X105632200Y-64494523D01*
X105632200Y-64494523D02*
X105584580Y-64446904D01*
X105584580Y-64446904D02*
X105489342Y-64399285D01*
X105489342Y-64399285D02*
X105251247Y-64399285D01*
X105251247Y-64399285D02*
X105156009Y-64446904D01*
X105156009Y-64446904D02*
X105108390Y-64494523D01*
X105108390Y-64494523D02*
X105060771Y-64589761D01*
X105060771Y-64589761D02*
X105060771Y-64780237D01*
X105060771Y-64780237D02*
X105108390Y-64875475D01*
X105108390Y-64875475D02*
X105156009Y-64923094D01*
X105156009Y-64923094D02*
X105251247Y-64970713D01*
X112158095Y-61199819D02*
X112158095Y-62009342D01*
X112158095Y-62009342D02*
X112205714Y-62104580D01*
X112205714Y-62104580D02*
X112253333Y-62152200D01*
X112253333Y-62152200D02*
X112348571Y-62199819D01*
X112348571Y-62199819D02*
X112539047Y-62199819D01*
X112539047Y-62199819D02*
X112634285Y-62152200D01*
X112634285Y-62152200D02*
X112681904Y-62104580D01*
X112681904Y-62104580D02*
X112729523Y-62009342D01*
X112729523Y-62009342D02*
X112729523Y-61199819D01*
X113729523Y-62199819D02*
X113158095Y-62199819D01*
X113443809Y-62199819D02*
X113443809Y-61199819D01*
X113443809Y-61199819D02*
X113348571Y-61342676D01*
X113348571Y-61342676D02*
X113253333Y-61437914D01*
X113253333Y-61437914D02*
X113158095Y-61485533D01*
X74157142Y-46354819D02*
X73823809Y-45878628D01*
X73585714Y-46354819D02*
X73585714Y-45354819D01*
X73585714Y-45354819D02*
X73966666Y-45354819D01*
X73966666Y-45354819D02*
X74061904Y-45402438D01*
X74061904Y-45402438D02*
X74109523Y-45450057D01*
X74109523Y-45450057D02*
X74157142Y-45545295D01*
X74157142Y-45545295D02*
X74157142Y-45688152D01*
X74157142Y-45688152D02*
X74109523Y-45783390D01*
X74109523Y-45783390D02*
X74061904Y-45831009D01*
X74061904Y-45831009D02*
X73966666Y-45878628D01*
X73966666Y-45878628D02*
X73585714Y-45878628D01*
X75014285Y-45688152D02*
X75014285Y-46354819D01*
X74776190Y-45307200D02*
X74538095Y-46021485D01*
X74538095Y-46021485D02*
X75157142Y-46021485D01*
X75966666Y-45354819D02*
X75776190Y-45354819D01*
X75776190Y-45354819D02*
X75680952Y-45402438D01*
X75680952Y-45402438D02*
X75633333Y-45450057D01*
X75633333Y-45450057D02*
X75538095Y-45592914D01*
X75538095Y-45592914D02*
X75490476Y-45783390D01*
X75490476Y-45783390D02*
X75490476Y-46164342D01*
X75490476Y-46164342D02*
X75538095Y-46259580D01*
X75538095Y-46259580D02*
X75585714Y-46307200D01*
X75585714Y-46307200D02*
X75680952Y-46354819D01*
X75680952Y-46354819D02*
X75871428Y-46354819D01*
X75871428Y-46354819D02*
X75966666Y-46307200D01*
X75966666Y-46307200D02*
X76014285Y-46259580D01*
X76014285Y-46259580D02*
X76061904Y-46164342D01*
X76061904Y-46164342D02*
X76061904Y-45926247D01*
X76061904Y-45926247D02*
X76014285Y-45831009D01*
X76014285Y-45831009D02*
X75966666Y-45783390D01*
X75966666Y-45783390D02*
X75871428Y-45735771D01*
X75871428Y-45735771D02*
X75680952Y-45735771D01*
X75680952Y-45735771D02*
X75585714Y-45783390D01*
X75585714Y-45783390D02*
X75538095Y-45831009D01*
X75538095Y-45831009D02*
X75490476Y-45926247D01*
X108484580Y-74017857D02*
X108532200Y-74065476D01*
X108532200Y-74065476D02*
X108579819Y-74208333D01*
X108579819Y-74208333D02*
X108579819Y-74303571D01*
X108579819Y-74303571D02*
X108532200Y-74446428D01*
X108532200Y-74446428D02*
X108436961Y-74541666D01*
X108436961Y-74541666D02*
X108341723Y-74589285D01*
X108341723Y-74589285D02*
X108151247Y-74636904D01*
X108151247Y-74636904D02*
X108008390Y-74636904D01*
X108008390Y-74636904D02*
X107817914Y-74589285D01*
X107817914Y-74589285D02*
X107722676Y-74541666D01*
X107722676Y-74541666D02*
X107627438Y-74446428D01*
X107627438Y-74446428D02*
X107579819Y-74303571D01*
X107579819Y-74303571D02*
X107579819Y-74208333D01*
X107579819Y-74208333D02*
X107627438Y-74065476D01*
X107627438Y-74065476D02*
X107675057Y-74017857D01*
X107579819Y-73684523D02*
X107579819Y-73065476D01*
X107579819Y-73065476D02*
X107960771Y-73398809D01*
X107960771Y-73398809D02*
X107960771Y-73255952D01*
X107960771Y-73255952D02*
X108008390Y-73160714D01*
X108008390Y-73160714D02*
X108056009Y-73113095D01*
X108056009Y-73113095D02*
X108151247Y-73065476D01*
X108151247Y-73065476D02*
X108389342Y-73065476D01*
X108389342Y-73065476D02*
X108484580Y-73113095D01*
X108484580Y-73113095D02*
X108532200Y-73160714D01*
X108532200Y-73160714D02*
X108579819Y-73255952D01*
X108579819Y-73255952D02*
X108579819Y-73541666D01*
X108579819Y-73541666D02*
X108532200Y-73636904D01*
X108532200Y-73636904D02*
X108484580Y-73684523D01*
X107675057Y-72684523D02*
X107627438Y-72636904D01*
X107627438Y-72636904D02*
X107579819Y-72541666D01*
X107579819Y-72541666D02*
X107579819Y-72303571D01*
X107579819Y-72303571D02*
X107627438Y-72208333D01*
X107627438Y-72208333D02*
X107675057Y-72160714D01*
X107675057Y-72160714D02*
X107770295Y-72113095D01*
X107770295Y-72113095D02*
X107865533Y-72113095D01*
X107865533Y-72113095D02*
X108008390Y-72160714D01*
X108008390Y-72160714D02*
X108579819Y-72732142D01*
X108579819Y-72732142D02*
X108579819Y-72113095D01*
X148154819Y-70238857D02*
X147678628Y-70572190D01*
X148154819Y-70810285D02*
X147154819Y-70810285D01*
X147154819Y-70810285D02*
X147154819Y-70429333D01*
X147154819Y-70429333D02*
X147202438Y-70334095D01*
X147202438Y-70334095D02*
X147250057Y-70286476D01*
X147250057Y-70286476D02*
X147345295Y-70238857D01*
X147345295Y-70238857D02*
X147488152Y-70238857D01*
X147488152Y-70238857D02*
X147583390Y-70286476D01*
X147583390Y-70286476D02*
X147631009Y-70334095D01*
X147631009Y-70334095D02*
X147678628Y-70429333D01*
X147678628Y-70429333D02*
X147678628Y-70810285D01*
X147250057Y-69857904D02*
X147202438Y-69810285D01*
X147202438Y-69810285D02*
X147154819Y-69715047D01*
X147154819Y-69715047D02*
X147154819Y-69476952D01*
X147154819Y-69476952D02*
X147202438Y-69381714D01*
X147202438Y-69381714D02*
X147250057Y-69334095D01*
X147250057Y-69334095D02*
X147345295Y-69286476D01*
X147345295Y-69286476D02*
X147440533Y-69286476D01*
X147440533Y-69286476D02*
X147583390Y-69334095D01*
X147583390Y-69334095D02*
X148154819Y-69905523D01*
X148154819Y-69905523D02*
X148154819Y-69286476D01*
X147154819Y-68953142D02*
X147154819Y-68286476D01*
X147154819Y-68286476D02*
X148154819Y-68715047D01*
X124354819Y-68590476D02*
X123878628Y-68923809D01*
X124354819Y-69161904D02*
X123354819Y-69161904D01*
X123354819Y-69161904D02*
X123354819Y-68780952D01*
X123354819Y-68780952D02*
X123402438Y-68685714D01*
X123402438Y-68685714D02*
X123450057Y-68638095D01*
X123450057Y-68638095D02*
X123545295Y-68590476D01*
X123545295Y-68590476D02*
X123688152Y-68590476D01*
X123688152Y-68590476D02*
X123783390Y-68638095D01*
X123783390Y-68638095D02*
X123831009Y-68685714D01*
X123831009Y-68685714D02*
X123878628Y-68780952D01*
X123878628Y-68780952D02*
X123878628Y-69161904D01*
X124354819Y-68161904D02*
X123354819Y-68161904D01*
X123354819Y-68161904D02*
X124354819Y-67590476D01*
X124354819Y-67590476D02*
X123354819Y-67590476D01*
X124354819Y-67066666D02*
X124354819Y-66876190D01*
X124354819Y-66876190D02*
X124307200Y-66780952D01*
X124307200Y-66780952D02*
X124259580Y-66733333D01*
X124259580Y-66733333D02*
X124116723Y-66638095D01*
X124116723Y-66638095D02*
X123926247Y-66590476D01*
X123926247Y-66590476D02*
X123545295Y-66590476D01*
X123545295Y-66590476D02*
X123450057Y-66638095D01*
X123450057Y-66638095D02*
X123402438Y-66685714D01*
X123402438Y-66685714D02*
X123354819Y-66780952D01*
X123354819Y-66780952D02*
X123354819Y-66971428D01*
X123354819Y-66971428D02*
X123402438Y-67066666D01*
X123402438Y-67066666D02*
X123450057Y-67114285D01*
X123450057Y-67114285D02*
X123545295Y-67161904D01*
X123545295Y-67161904D02*
X123783390Y-67161904D01*
X123783390Y-67161904D02*
X123878628Y-67114285D01*
X123878628Y-67114285D02*
X123926247Y-67066666D01*
X123926247Y-67066666D02*
X123973866Y-66971428D01*
X123973866Y-66971428D02*
X123973866Y-66780952D01*
X123973866Y-66780952D02*
X123926247Y-66685714D01*
X123926247Y-66685714D02*
X123878628Y-66638095D01*
X123878628Y-66638095D02*
X123783390Y-66590476D01*
X100566666Y-67445180D02*
X101042856Y-67445180D01*
X101042856Y-67445180D02*
X101042856Y-68445180D01*
X99709523Y-67445180D02*
X100280951Y-67445180D01*
X99995237Y-67445180D02*
X99995237Y-68445180D01*
X99995237Y-68445180D02*
X100090475Y-68302323D01*
X100090475Y-68302323D02*
X100185713Y-68207085D01*
X100185713Y-68207085D02*
X100280951Y-68159466D01*
X139265819Y-41409857D02*
X138789628Y-41743190D01*
X139265819Y-41981285D02*
X138265819Y-41981285D01*
X138265819Y-41981285D02*
X138265819Y-41600333D01*
X138265819Y-41600333D02*
X138313438Y-41505095D01*
X138313438Y-41505095D02*
X138361057Y-41457476D01*
X138361057Y-41457476D02*
X138456295Y-41409857D01*
X138456295Y-41409857D02*
X138599152Y-41409857D01*
X138599152Y-41409857D02*
X138694390Y-41457476D01*
X138694390Y-41457476D02*
X138742009Y-41505095D01*
X138742009Y-41505095D02*
X138789628Y-41600333D01*
X138789628Y-41600333D02*
X138789628Y-41981285D01*
X138361057Y-41028904D02*
X138313438Y-40981285D01*
X138313438Y-40981285D02*
X138265819Y-40886047D01*
X138265819Y-40886047D02*
X138265819Y-40647952D01*
X138265819Y-40647952D02*
X138313438Y-40552714D01*
X138313438Y-40552714D02*
X138361057Y-40505095D01*
X138361057Y-40505095D02*
X138456295Y-40457476D01*
X138456295Y-40457476D02*
X138551533Y-40457476D01*
X138551533Y-40457476D02*
X138694390Y-40505095D01*
X138694390Y-40505095D02*
X139265819Y-41076523D01*
X139265819Y-41076523D02*
X139265819Y-40457476D01*
X138361057Y-40076523D02*
X138313438Y-40028904D01*
X138313438Y-40028904D02*
X138265819Y-39933666D01*
X138265819Y-39933666D02*
X138265819Y-39695571D01*
X138265819Y-39695571D02*
X138313438Y-39600333D01*
X138313438Y-39600333D02*
X138361057Y-39552714D01*
X138361057Y-39552714D02*
X138456295Y-39505095D01*
X138456295Y-39505095D02*
X138551533Y-39505095D01*
X138551533Y-39505095D02*
X138694390Y-39552714D01*
X138694390Y-39552714D02*
X139265819Y-40124142D01*
X139265819Y-40124142D02*
X139265819Y-39505095D01*
X129044642Y-62954819D02*
X128711309Y-62478628D01*
X128473214Y-62954819D02*
X128473214Y-61954819D01*
X128473214Y-61954819D02*
X128854166Y-61954819D01*
X128854166Y-61954819D02*
X128949404Y-62002438D01*
X128949404Y-62002438D02*
X128997023Y-62050057D01*
X128997023Y-62050057D02*
X129044642Y-62145295D01*
X129044642Y-62145295D02*
X129044642Y-62288152D01*
X129044642Y-62288152D02*
X128997023Y-62383390D01*
X128997023Y-62383390D02*
X128949404Y-62431009D01*
X128949404Y-62431009D02*
X128854166Y-62478628D01*
X128854166Y-62478628D02*
X128473214Y-62478628D01*
X129425595Y-62050057D02*
X129473214Y-62002438D01*
X129473214Y-62002438D02*
X129568452Y-61954819D01*
X129568452Y-61954819D02*
X129806547Y-61954819D01*
X129806547Y-61954819D02*
X129901785Y-62002438D01*
X129901785Y-62002438D02*
X129949404Y-62050057D01*
X129949404Y-62050057D02*
X129997023Y-62145295D01*
X129997023Y-62145295D02*
X129997023Y-62240533D01*
X129997023Y-62240533D02*
X129949404Y-62383390D01*
X129949404Y-62383390D02*
X129377976Y-62954819D01*
X129377976Y-62954819D02*
X129997023Y-62954819D01*
X130854166Y-61954819D02*
X130663690Y-61954819D01*
X130663690Y-61954819D02*
X130568452Y-62002438D01*
X130568452Y-62002438D02*
X130520833Y-62050057D01*
X130520833Y-62050057D02*
X130425595Y-62192914D01*
X130425595Y-62192914D02*
X130377976Y-62383390D01*
X130377976Y-62383390D02*
X130377976Y-62764342D01*
X130377976Y-62764342D02*
X130425595Y-62859580D01*
X130425595Y-62859580D02*
X130473214Y-62907200D01*
X130473214Y-62907200D02*
X130568452Y-62954819D01*
X130568452Y-62954819D02*
X130758928Y-62954819D01*
X130758928Y-62954819D02*
X130854166Y-62907200D01*
X130854166Y-62907200D02*
X130901785Y-62859580D01*
X130901785Y-62859580D02*
X130949404Y-62764342D01*
X130949404Y-62764342D02*
X130949404Y-62526247D01*
X130949404Y-62526247D02*
X130901785Y-62431009D01*
X130901785Y-62431009D02*
X130854166Y-62383390D01*
X130854166Y-62383390D02*
X130758928Y-62335771D01*
X130758928Y-62335771D02*
X130568452Y-62335771D01*
X130568452Y-62335771D02*
X130473214Y-62383390D01*
X130473214Y-62383390D02*
X130425595Y-62431009D01*
X130425595Y-62431009D02*
X130377976Y-62526247D01*
D14*
X149261905Y-49957419D02*
X149261905Y-48957419D01*
X149261905Y-48957419D02*
X149500000Y-48957419D01*
X149500000Y-48957419D02*
X149642857Y-49005038D01*
X149642857Y-49005038D02*
X149738095Y-49100276D01*
X149738095Y-49100276D02*
X149785714Y-49195514D01*
X149785714Y-49195514D02*
X149833333Y-49385990D01*
X149833333Y-49385990D02*
X149833333Y-49528847D01*
X149833333Y-49528847D02*
X149785714Y-49719323D01*
X149785714Y-49719323D02*
X149738095Y-49814561D01*
X149738095Y-49814561D02*
X149642857Y-49909800D01*
X149642857Y-49909800D02*
X149500000Y-49957419D01*
X149500000Y-49957419D02*
X149261905Y-49957419D01*
X150214286Y-49052657D02*
X150261905Y-49005038D01*
X150261905Y-49005038D02*
X150357143Y-48957419D01*
X150357143Y-48957419D02*
X150595238Y-48957419D01*
X150595238Y-48957419D02*
X150690476Y-49005038D01*
X150690476Y-49005038D02*
X150738095Y-49052657D01*
X150738095Y-49052657D02*
X150785714Y-49147895D01*
X150785714Y-49147895D02*
X150785714Y-49243133D01*
X150785714Y-49243133D02*
X150738095Y-49385990D01*
X150738095Y-49385990D02*
X150166667Y-49957419D01*
X150166667Y-49957419D02*
X150785714Y-49957419D01*
D13*
X137759580Y-44842857D02*
X137807200Y-44890476D01*
X137807200Y-44890476D02*
X137854819Y-45033333D01*
X137854819Y-45033333D02*
X137854819Y-45128571D01*
X137854819Y-45128571D02*
X137807200Y-45271428D01*
X137807200Y-45271428D02*
X137711961Y-45366666D01*
X137711961Y-45366666D02*
X137616723Y-45414285D01*
X137616723Y-45414285D02*
X137426247Y-45461904D01*
X137426247Y-45461904D02*
X137283390Y-45461904D01*
X137283390Y-45461904D02*
X137092914Y-45414285D01*
X137092914Y-45414285D02*
X136997676Y-45366666D01*
X136997676Y-45366666D02*
X136902438Y-45271428D01*
X136902438Y-45271428D02*
X136854819Y-45128571D01*
X136854819Y-45128571D02*
X136854819Y-45033333D01*
X136854819Y-45033333D02*
X136902438Y-44890476D01*
X136902438Y-44890476D02*
X136950057Y-44842857D01*
X137854819Y-43890476D02*
X137854819Y-44461904D01*
X137854819Y-44176190D02*
X136854819Y-44176190D01*
X136854819Y-44176190D02*
X136997676Y-44271428D01*
X136997676Y-44271428D02*
X137092914Y-44366666D01*
X137092914Y-44366666D02*
X137140533Y-44461904D01*
X137283390Y-43319047D02*
X137235771Y-43414285D01*
X137235771Y-43414285D02*
X137188152Y-43461904D01*
X137188152Y-43461904D02*
X137092914Y-43509523D01*
X137092914Y-43509523D02*
X137045295Y-43509523D01*
X137045295Y-43509523D02*
X136950057Y-43461904D01*
X136950057Y-43461904D02*
X136902438Y-43414285D01*
X136902438Y-43414285D02*
X136854819Y-43319047D01*
X136854819Y-43319047D02*
X136854819Y-43128571D01*
X136854819Y-43128571D02*
X136902438Y-43033333D01*
X136902438Y-43033333D02*
X136950057Y-42985714D01*
X136950057Y-42985714D02*
X137045295Y-42938095D01*
X137045295Y-42938095D02*
X137092914Y-42938095D01*
X137092914Y-42938095D02*
X137188152Y-42985714D01*
X137188152Y-42985714D02*
X137235771Y-43033333D01*
X137235771Y-43033333D02*
X137283390Y-43128571D01*
X137283390Y-43128571D02*
X137283390Y-43319047D01*
X137283390Y-43319047D02*
X137331009Y-43414285D01*
X137331009Y-43414285D02*
X137378628Y-43461904D01*
X137378628Y-43461904D02*
X137473866Y-43509523D01*
X137473866Y-43509523D02*
X137664342Y-43509523D01*
X137664342Y-43509523D02*
X137759580Y-43461904D01*
X137759580Y-43461904D02*
X137807200Y-43414285D01*
X137807200Y-43414285D02*
X137854819Y-43319047D01*
X137854819Y-43319047D02*
X137854819Y-43128571D01*
X137854819Y-43128571D02*
X137807200Y-43033333D01*
X137807200Y-43033333D02*
X137759580Y-42985714D01*
X137759580Y-42985714D02*
X137664342Y-42938095D01*
X137664342Y-42938095D02*
X137473866Y-42938095D01*
X137473866Y-42938095D02*
X137378628Y-42985714D01*
X137378628Y-42985714D02*
X137331009Y-43033333D01*
X137331009Y-43033333D02*
X137283390Y-43128571D01*
X113211905Y-39204819D02*
X113211905Y-40014342D01*
X113211905Y-40014342D02*
X113259524Y-40109580D01*
X113259524Y-40109580D02*
X113307143Y-40157200D01*
X113307143Y-40157200D02*
X113402381Y-40204819D01*
X113402381Y-40204819D02*
X113592857Y-40204819D01*
X113592857Y-40204819D02*
X113688095Y-40157200D01*
X113688095Y-40157200D02*
X113735714Y-40109580D01*
X113735714Y-40109580D02*
X113783333Y-40014342D01*
X113783333Y-40014342D02*
X113783333Y-39204819D01*
X114783333Y-40204819D02*
X114211905Y-40204819D01*
X114497619Y-40204819D02*
X114497619Y-39204819D01*
X114497619Y-39204819D02*
X114402381Y-39347676D01*
X114402381Y-39347676D02*
X114307143Y-39442914D01*
X114307143Y-39442914D02*
X114211905Y-39490533D01*
X115735714Y-40204819D02*
X115164286Y-40204819D01*
X115450000Y-40204819D02*
X115450000Y-39204819D01*
X115450000Y-39204819D02*
X115354762Y-39347676D01*
X115354762Y-39347676D02*
X115259524Y-39442914D01*
X115259524Y-39442914D02*
X115164286Y-39490533D01*
X95882142Y-34809580D02*
X95834523Y-34857200D01*
X95834523Y-34857200D02*
X95691666Y-34904819D01*
X95691666Y-34904819D02*
X95596428Y-34904819D01*
X95596428Y-34904819D02*
X95453571Y-34857200D01*
X95453571Y-34857200D02*
X95358333Y-34761961D01*
X95358333Y-34761961D02*
X95310714Y-34666723D01*
X95310714Y-34666723D02*
X95263095Y-34476247D01*
X95263095Y-34476247D02*
X95263095Y-34333390D01*
X95263095Y-34333390D02*
X95310714Y-34142914D01*
X95310714Y-34142914D02*
X95358333Y-34047676D01*
X95358333Y-34047676D02*
X95453571Y-33952438D01*
X95453571Y-33952438D02*
X95596428Y-33904819D01*
X95596428Y-33904819D02*
X95691666Y-33904819D01*
X95691666Y-33904819D02*
X95834523Y-33952438D01*
X95834523Y-33952438D02*
X95882142Y-34000057D01*
X96215476Y-33904819D02*
X96834523Y-33904819D01*
X96834523Y-33904819D02*
X96501190Y-34285771D01*
X96501190Y-34285771D02*
X96644047Y-34285771D01*
X96644047Y-34285771D02*
X96739285Y-34333390D01*
X96739285Y-34333390D02*
X96786904Y-34381009D01*
X96786904Y-34381009D02*
X96834523Y-34476247D01*
X96834523Y-34476247D02*
X96834523Y-34714342D01*
X96834523Y-34714342D02*
X96786904Y-34809580D01*
X96786904Y-34809580D02*
X96739285Y-34857200D01*
X96739285Y-34857200D02*
X96644047Y-34904819D01*
X96644047Y-34904819D02*
X96358333Y-34904819D01*
X96358333Y-34904819D02*
X96263095Y-34857200D01*
X96263095Y-34857200D02*
X96215476Y-34809580D01*
X97691666Y-34238152D02*
X97691666Y-34904819D01*
X97453571Y-33857200D02*
X97215476Y-34571485D01*
X97215476Y-34571485D02*
X97834523Y-34571485D01*
X105679819Y-75916666D02*
X105203628Y-76249999D01*
X105679819Y-76488094D02*
X104679819Y-76488094D01*
X104679819Y-76488094D02*
X104679819Y-76107142D01*
X104679819Y-76107142D02*
X104727438Y-76011904D01*
X104727438Y-76011904D02*
X104775057Y-75964285D01*
X104775057Y-75964285D02*
X104870295Y-75916666D01*
X104870295Y-75916666D02*
X105013152Y-75916666D01*
X105013152Y-75916666D02*
X105108390Y-75964285D01*
X105108390Y-75964285D02*
X105156009Y-76011904D01*
X105156009Y-76011904D02*
X105203628Y-76107142D01*
X105203628Y-76107142D02*
X105203628Y-76488094D01*
X104679819Y-75583332D02*
X104679819Y-74964285D01*
X104679819Y-74964285D02*
X105060771Y-75297618D01*
X105060771Y-75297618D02*
X105060771Y-75154761D01*
X105060771Y-75154761D02*
X105108390Y-75059523D01*
X105108390Y-75059523D02*
X105156009Y-75011904D01*
X105156009Y-75011904D02*
X105251247Y-74964285D01*
X105251247Y-74964285D02*
X105489342Y-74964285D01*
X105489342Y-74964285D02*
X105584580Y-75011904D01*
X105584580Y-75011904D02*
X105632200Y-75059523D01*
X105632200Y-75059523D02*
X105679819Y-75154761D01*
X105679819Y-75154761D02*
X105679819Y-75440475D01*
X105679819Y-75440475D02*
X105632200Y-75535713D01*
X105632200Y-75535713D02*
X105584580Y-75583332D01*
X99397080Y-41152857D02*
X99444700Y-41200476D01*
X99444700Y-41200476D02*
X99492319Y-41343333D01*
X99492319Y-41343333D02*
X99492319Y-41438571D01*
X99492319Y-41438571D02*
X99444700Y-41581428D01*
X99444700Y-41581428D02*
X99349461Y-41676666D01*
X99349461Y-41676666D02*
X99254223Y-41724285D01*
X99254223Y-41724285D02*
X99063747Y-41771904D01*
X99063747Y-41771904D02*
X98920890Y-41771904D01*
X98920890Y-41771904D02*
X98730414Y-41724285D01*
X98730414Y-41724285D02*
X98635176Y-41676666D01*
X98635176Y-41676666D02*
X98539938Y-41581428D01*
X98539938Y-41581428D02*
X98492319Y-41438571D01*
X98492319Y-41438571D02*
X98492319Y-41343333D01*
X98492319Y-41343333D02*
X98539938Y-41200476D01*
X98539938Y-41200476D02*
X98587557Y-41152857D01*
X98492319Y-40819523D02*
X98492319Y-40200476D01*
X98492319Y-40200476D02*
X98873271Y-40533809D01*
X98873271Y-40533809D02*
X98873271Y-40390952D01*
X98873271Y-40390952D02*
X98920890Y-40295714D01*
X98920890Y-40295714D02*
X98968509Y-40248095D01*
X98968509Y-40248095D02*
X99063747Y-40200476D01*
X99063747Y-40200476D02*
X99301842Y-40200476D01*
X99301842Y-40200476D02*
X99397080Y-40248095D01*
X99397080Y-40248095D02*
X99444700Y-40295714D01*
X99444700Y-40295714D02*
X99492319Y-40390952D01*
X99492319Y-40390952D02*
X99492319Y-40676666D01*
X99492319Y-40676666D02*
X99444700Y-40771904D01*
X99444700Y-40771904D02*
X99397080Y-40819523D01*
X98492319Y-39343333D02*
X98492319Y-39533809D01*
X98492319Y-39533809D02*
X98539938Y-39629047D01*
X98539938Y-39629047D02*
X98587557Y-39676666D01*
X98587557Y-39676666D02*
X98730414Y-39771904D01*
X98730414Y-39771904D02*
X98920890Y-39819523D01*
X98920890Y-39819523D02*
X99301842Y-39819523D01*
X99301842Y-39819523D02*
X99397080Y-39771904D01*
X99397080Y-39771904D02*
X99444700Y-39724285D01*
X99444700Y-39724285D02*
X99492319Y-39629047D01*
X99492319Y-39629047D02*
X99492319Y-39438571D01*
X99492319Y-39438571D02*
X99444700Y-39343333D01*
X99444700Y-39343333D02*
X99397080Y-39295714D01*
X99397080Y-39295714D02*
X99301842Y-39248095D01*
X99301842Y-39248095D02*
X99063747Y-39248095D01*
X99063747Y-39248095D02*
X98968509Y-39295714D01*
X98968509Y-39295714D02*
X98920890Y-39343333D01*
X98920890Y-39343333D02*
X98873271Y-39438571D01*
X98873271Y-39438571D02*
X98873271Y-39629047D01*
X98873271Y-39629047D02*
X98920890Y-39724285D01*
X98920890Y-39724285D02*
X98968509Y-39771904D01*
X98968509Y-39771904D02*
X99063747Y-39819523D01*
X135457142Y-68254819D02*
X135123809Y-67778628D01*
X134885714Y-68254819D02*
X134885714Y-67254819D01*
X134885714Y-67254819D02*
X135266666Y-67254819D01*
X135266666Y-67254819D02*
X135361904Y-67302438D01*
X135361904Y-67302438D02*
X135409523Y-67350057D01*
X135409523Y-67350057D02*
X135457142Y-67445295D01*
X135457142Y-67445295D02*
X135457142Y-67588152D01*
X135457142Y-67588152D02*
X135409523Y-67683390D01*
X135409523Y-67683390D02*
X135361904Y-67731009D01*
X135361904Y-67731009D02*
X135266666Y-67778628D01*
X135266666Y-67778628D02*
X134885714Y-67778628D01*
X135790476Y-67254819D02*
X136409523Y-67254819D01*
X136409523Y-67254819D02*
X136076190Y-67635771D01*
X136076190Y-67635771D02*
X136219047Y-67635771D01*
X136219047Y-67635771D02*
X136314285Y-67683390D01*
X136314285Y-67683390D02*
X136361904Y-67731009D01*
X136361904Y-67731009D02*
X136409523Y-67826247D01*
X136409523Y-67826247D02*
X136409523Y-68064342D01*
X136409523Y-68064342D02*
X136361904Y-68159580D01*
X136361904Y-68159580D02*
X136314285Y-68207200D01*
X136314285Y-68207200D02*
X136219047Y-68254819D01*
X136219047Y-68254819D02*
X135933333Y-68254819D01*
X135933333Y-68254819D02*
X135838095Y-68207200D01*
X135838095Y-68207200D02*
X135790476Y-68159580D01*
X137361904Y-68254819D02*
X136790476Y-68254819D01*
X137076190Y-68254819D02*
X137076190Y-67254819D01*
X137076190Y-67254819D02*
X136980952Y-67397676D01*
X136980952Y-67397676D02*
X136885714Y-67492914D01*
X136885714Y-67492914D02*
X136790476Y-67540533D01*
X107058333Y-48162295D02*
X106725000Y-47781342D01*
X106486905Y-48162295D02*
X106486905Y-47362295D01*
X106486905Y-47362295D02*
X106867857Y-47362295D01*
X106867857Y-47362295D02*
X106963095Y-47400390D01*
X106963095Y-47400390D02*
X107010714Y-47438485D01*
X107010714Y-47438485D02*
X107058333Y-47514676D01*
X107058333Y-47514676D02*
X107058333Y-47628961D01*
X107058333Y-47628961D02*
X107010714Y-47705152D01*
X107010714Y-47705152D02*
X106963095Y-47743247D01*
X106963095Y-47743247D02*
X106867857Y-47781342D01*
X106867857Y-47781342D02*
X106486905Y-47781342D01*
X107915476Y-47628961D02*
X107915476Y-48162295D01*
X107677381Y-47324200D02*
X107439286Y-47895628D01*
X107439286Y-47895628D02*
X108058333Y-47895628D01*
X104847737Y-35656875D02*
X104841003Y-35717484D01*
X104841003Y-35717484D02*
X104766925Y-35845437D01*
X104766925Y-35845437D02*
X104699582Y-35912780D01*
X104699582Y-35912780D02*
X104571629Y-35986858D01*
X104571629Y-35986858D02*
X104450411Y-36000327D01*
X104450411Y-36000327D02*
X104362864Y-35980124D01*
X104362864Y-35980124D02*
X104221443Y-35906046D01*
X104221443Y-35906046D02*
X104140631Y-35825234D01*
X104140631Y-35825234D02*
X104066553Y-35683812D01*
X104066553Y-35683812D02*
X104046350Y-35596266D01*
X104046350Y-35596266D02*
X104059818Y-35475047D01*
X104059818Y-35475047D02*
X104133896Y-35347095D01*
X104133896Y-35347095D02*
X104201240Y-35279751D01*
X104201240Y-35279751D02*
X104329192Y-35205673D01*
X104329192Y-35205673D02*
X104389802Y-35198939D01*
X104571629Y-34909362D02*
X105009362Y-34471629D01*
X105009362Y-34471629D02*
X104989159Y-34922831D01*
X104989159Y-34922831D02*
X105090174Y-34821815D01*
X105090174Y-34821815D02*
X105184455Y-34781409D01*
X105184455Y-34781409D02*
X105245064Y-34774675D01*
X105245064Y-34774675D02*
X105332611Y-34794878D01*
X105332611Y-34794878D02*
X105467298Y-34929565D01*
X105467298Y-34929565D02*
X105487501Y-35017112D01*
X105487501Y-35017112D02*
X105480766Y-35077721D01*
X105480766Y-35077721D02*
X105440360Y-35172002D01*
X105440360Y-35172002D02*
X105238330Y-35374032D01*
X105238330Y-35374032D02*
X105144049Y-35414438D01*
X105144049Y-35414438D02*
X105083440Y-35421173D01*
X105447095Y-34033896D02*
X105514438Y-33966553D01*
X105514438Y-33966553D02*
X105608719Y-33926147D01*
X105608719Y-33926147D02*
X105669328Y-33919412D01*
X105669328Y-33919412D02*
X105756875Y-33939615D01*
X105756875Y-33939615D02*
X105898296Y-34013693D01*
X105898296Y-34013693D02*
X106032983Y-34148380D01*
X106032983Y-34148380D02*
X106107061Y-34289802D01*
X106107061Y-34289802D02*
X106127264Y-34377348D01*
X106127264Y-34377348D02*
X106120530Y-34437957D01*
X106120530Y-34437957D02*
X106080124Y-34532238D01*
X106080124Y-34532238D02*
X106012780Y-34599582D01*
X106012780Y-34599582D02*
X105918499Y-34639988D01*
X105918499Y-34639988D02*
X105857890Y-34646722D01*
X105857890Y-34646722D02*
X105770343Y-34626519D01*
X105770343Y-34626519D02*
X105628922Y-34552441D01*
X105628922Y-34552441D02*
X105494235Y-34417754D01*
X105494235Y-34417754D02*
X105420157Y-34276333D01*
X105420157Y-34276333D02*
X105399954Y-34188786D01*
X105399954Y-34188786D02*
X105406689Y-34128177D01*
X105406689Y-34128177D02*
X105447095Y-34033896D01*
X101586104Y-45242857D02*
X101624200Y-45290476D01*
X101624200Y-45290476D02*
X101662295Y-45433333D01*
X101662295Y-45433333D02*
X101662295Y-45528571D01*
X101662295Y-45528571D02*
X101624200Y-45671428D01*
X101624200Y-45671428D02*
X101548009Y-45766666D01*
X101548009Y-45766666D02*
X101471819Y-45814285D01*
X101471819Y-45814285D02*
X101319438Y-45861904D01*
X101319438Y-45861904D02*
X101205152Y-45861904D01*
X101205152Y-45861904D02*
X101052771Y-45814285D01*
X101052771Y-45814285D02*
X100976580Y-45766666D01*
X100976580Y-45766666D02*
X100900390Y-45671428D01*
X100900390Y-45671428D02*
X100862295Y-45528571D01*
X100862295Y-45528571D02*
X100862295Y-45433333D01*
X100862295Y-45433333D02*
X100900390Y-45290476D01*
X100900390Y-45290476D02*
X100938485Y-45242857D01*
X101662295Y-44290476D02*
X101662295Y-44861904D01*
X101662295Y-44576190D02*
X100862295Y-44576190D01*
X100862295Y-44576190D02*
X100976580Y-44671428D01*
X100976580Y-44671428D02*
X101052771Y-44766666D01*
X101052771Y-44766666D02*
X101090866Y-44861904D01*
X100862295Y-43957142D02*
X100862295Y-43290476D01*
X100862295Y-43290476D02*
X101662295Y-43719047D01*
X115004819Y-68590476D02*
X114528628Y-68923809D01*
X115004819Y-69161904D02*
X114004819Y-69161904D01*
X114004819Y-69161904D02*
X114004819Y-68780952D01*
X114004819Y-68780952D02*
X114052438Y-68685714D01*
X114052438Y-68685714D02*
X114100057Y-68638095D01*
X114100057Y-68638095D02*
X114195295Y-68590476D01*
X114195295Y-68590476D02*
X114338152Y-68590476D01*
X114338152Y-68590476D02*
X114433390Y-68638095D01*
X114433390Y-68638095D02*
X114481009Y-68685714D01*
X114481009Y-68685714D02*
X114528628Y-68780952D01*
X114528628Y-68780952D02*
X114528628Y-69161904D01*
X115004819Y-68161904D02*
X114004819Y-68161904D01*
X114004819Y-68161904D02*
X115004819Y-67590476D01*
X115004819Y-67590476D02*
X114004819Y-67590476D01*
X114004819Y-67209523D02*
X114004819Y-66542857D01*
X114004819Y-66542857D02*
X115004819Y-66971428D01*
D14*
X149261905Y-46557419D02*
X149261905Y-45557419D01*
X149261905Y-45557419D02*
X149500000Y-45557419D01*
X149500000Y-45557419D02*
X149642857Y-45605038D01*
X149642857Y-45605038D02*
X149738095Y-45700276D01*
X149738095Y-45700276D02*
X149785714Y-45795514D01*
X149785714Y-45795514D02*
X149833333Y-45985990D01*
X149833333Y-45985990D02*
X149833333Y-46128847D01*
X149833333Y-46128847D02*
X149785714Y-46319323D01*
X149785714Y-46319323D02*
X149738095Y-46414561D01*
X149738095Y-46414561D02*
X149642857Y-46509800D01*
X149642857Y-46509800D02*
X149500000Y-46557419D01*
X149500000Y-46557419D02*
X149261905Y-46557419D01*
X150785714Y-46557419D02*
X150214286Y-46557419D01*
X150500000Y-46557419D02*
X150500000Y-45557419D01*
X150500000Y-45557419D02*
X150404762Y-45700276D01*
X150404762Y-45700276D02*
X150309524Y-45795514D01*
X150309524Y-45795514D02*
X150214286Y-45843133D01*
D13*
X94800833Y-65634819D02*
X94467500Y-65158628D01*
X94229405Y-65634819D02*
X94229405Y-64634819D01*
X94229405Y-64634819D02*
X94610357Y-64634819D01*
X94610357Y-64634819D02*
X94705595Y-64682438D01*
X94705595Y-64682438D02*
X94753214Y-64730057D01*
X94753214Y-64730057D02*
X94800833Y-64825295D01*
X94800833Y-64825295D02*
X94800833Y-64968152D01*
X94800833Y-64968152D02*
X94753214Y-65063390D01*
X94753214Y-65063390D02*
X94705595Y-65111009D01*
X94705595Y-65111009D02*
X94610357Y-65158628D01*
X94610357Y-65158628D02*
X94229405Y-65158628D01*
X95753214Y-65634819D02*
X95181786Y-65634819D01*
X95467500Y-65634819D02*
X95467500Y-64634819D01*
X95467500Y-64634819D02*
X95372262Y-64777676D01*
X95372262Y-64777676D02*
X95277024Y-64872914D01*
X95277024Y-64872914D02*
X95181786Y-64920533D01*
X123211904Y-40495180D02*
X123211904Y-39685657D01*
X123211904Y-39685657D02*
X123164285Y-39590419D01*
X123164285Y-39590419D02*
X123116666Y-39542800D01*
X123116666Y-39542800D02*
X123021428Y-39495180D01*
X123021428Y-39495180D02*
X122830952Y-39495180D01*
X122830952Y-39495180D02*
X122735714Y-39542800D01*
X122735714Y-39542800D02*
X122688095Y-39590419D01*
X122688095Y-39590419D02*
X122640476Y-39685657D01*
X122640476Y-39685657D02*
X122640476Y-40495180D01*
X121688095Y-40495180D02*
X122164285Y-40495180D01*
X122164285Y-40495180D02*
X122211904Y-40018990D01*
X122211904Y-40018990D02*
X122164285Y-40066609D01*
X122164285Y-40066609D02*
X122069047Y-40114228D01*
X122069047Y-40114228D02*
X121830952Y-40114228D01*
X121830952Y-40114228D02*
X121735714Y-40066609D01*
X121735714Y-40066609D02*
X121688095Y-40018990D01*
X121688095Y-40018990D02*
X121640476Y-39923752D01*
X121640476Y-39923752D02*
X121640476Y-39685657D01*
X121640476Y-39685657D02*
X121688095Y-39590419D01*
X121688095Y-39590419D02*
X121735714Y-39542800D01*
X121735714Y-39542800D02*
X121830952Y-39495180D01*
X121830952Y-39495180D02*
X122069047Y-39495180D01*
X122069047Y-39495180D02*
X122164285Y-39542800D01*
X122164285Y-39542800D02*
X122211904Y-39590419D01*
X124938400Y-37854819D02*
X124938400Y-38092914D01*
X124700305Y-37997676D02*
X124938400Y-38092914D01*
X124938400Y-38092914D02*
X125176495Y-37997676D01*
X124795543Y-38283390D02*
X124938400Y-38092914D01*
X124938400Y-38092914D02*
X125081257Y-38283390D01*
X124938399Y-38945180D02*
X124938399Y-38707085D01*
X125176494Y-38802323D02*
X124938399Y-38707085D01*
X124938399Y-38707085D02*
X124700304Y-38802323D01*
X125081256Y-38516609D02*
X124938399Y-38707085D01*
X124938399Y-38707085D02*
X124795542Y-38516609D01*
X149357142Y-65029819D02*
X149023809Y-64553628D01*
X148785714Y-65029819D02*
X148785714Y-64029819D01*
X148785714Y-64029819D02*
X149166666Y-64029819D01*
X149166666Y-64029819D02*
X149261904Y-64077438D01*
X149261904Y-64077438D02*
X149309523Y-64125057D01*
X149309523Y-64125057D02*
X149357142Y-64220295D01*
X149357142Y-64220295D02*
X149357142Y-64363152D01*
X149357142Y-64363152D02*
X149309523Y-64458390D01*
X149309523Y-64458390D02*
X149261904Y-64506009D01*
X149261904Y-64506009D02*
X149166666Y-64553628D01*
X149166666Y-64553628D02*
X148785714Y-64553628D01*
X150309523Y-65029819D02*
X149738095Y-65029819D01*
X150023809Y-65029819D02*
X150023809Y-64029819D01*
X150023809Y-64029819D02*
X149928571Y-64172676D01*
X149928571Y-64172676D02*
X149833333Y-64267914D01*
X149833333Y-64267914D02*
X149738095Y-64315533D01*
X151166666Y-64029819D02*
X150976190Y-64029819D01*
X150976190Y-64029819D02*
X150880952Y-64077438D01*
X150880952Y-64077438D02*
X150833333Y-64125057D01*
X150833333Y-64125057D02*
X150738095Y-64267914D01*
X150738095Y-64267914D02*
X150690476Y-64458390D01*
X150690476Y-64458390D02*
X150690476Y-64839342D01*
X150690476Y-64839342D02*
X150738095Y-64934580D01*
X150738095Y-64934580D02*
X150785714Y-64982200D01*
X150785714Y-64982200D02*
X150880952Y-65029819D01*
X150880952Y-65029819D02*
X151071428Y-65029819D01*
X151071428Y-65029819D02*
X151166666Y-64982200D01*
X151166666Y-64982200D02*
X151214285Y-64934580D01*
X151214285Y-64934580D02*
X151261904Y-64839342D01*
X151261904Y-64839342D02*
X151261904Y-64601247D01*
X151261904Y-64601247D02*
X151214285Y-64506009D01*
X151214285Y-64506009D02*
X151166666Y-64458390D01*
X151166666Y-64458390D02*
X151071428Y-64410771D01*
X151071428Y-64410771D02*
X150880952Y-64410771D01*
X150880952Y-64410771D02*
X150785714Y-64458390D01*
X150785714Y-64458390D02*
X150738095Y-64506009D01*
X150738095Y-64506009D02*
X150690476Y-64601247D01*
X145229761Y-52950057D02*
X145134523Y-52902438D01*
X145134523Y-52902438D02*
X145039285Y-52807200D01*
X145039285Y-52807200D02*
X144896428Y-52664342D01*
X144896428Y-52664342D02*
X144801190Y-52616723D01*
X144801190Y-52616723D02*
X144705952Y-52616723D01*
X144753571Y-52854819D02*
X144658333Y-52807200D01*
X144658333Y-52807200D02*
X144563095Y-52711961D01*
X144563095Y-52711961D02*
X144515476Y-52521485D01*
X144515476Y-52521485D02*
X144515476Y-52188152D01*
X144515476Y-52188152D02*
X144563095Y-51997676D01*
X144563095Y-51997676D02*
X144658333Y-51902438D01*
X144658333Y-51902438D02*
X144753571Y-51854819D01*
X144753571Y-51854819D02*
X144944047Y-51854819D01*
X144944047Y-51854819D02*
X145039285Y-51902438D01*
X145039285Y-51902438D02*
X145134523Y-51997676D01*
X145134523Y-51997676D02*
X145182142Y-52188152D01*
X145182142Y-52188152D02*
X145182142Y-52521485D01*
X145182142Y-52521485D02*
X145134523Y-52711961D01*
X145134523Y-52711961D02*
X145039285Y-52807200D01*
X145039285Y-52807200D02*
X144944047Y-52854819D01*
X144944047Y-52854819D02*
X144753571Y-52854819D01*
X145563095Y-51950057D02*
X145610714Y-51902438D01*
X145610714Y-51902438D02*
X145705952Y-51854819D01*
X145705952Y-51854819D02*
X145944047Y-51854819D01*
X145944047Y-51854819D02*
X146039285Y-51902438D01*
X146039285Y-51902438D02*
X146086904Y-51950057D01*
X146086904Y-51950057D02*
X146134523Y-52045295D01*
X146134523Y-52045295D02*
X146134523Y-52140533D01*
X146134523Y-52140533D02*
X146086904Y-52283390D01*
X146086904Y-52283390D02*
X145515476Y-52854819D01*
X145515476Y-52854819D02*
X146134523Y-52854819D01*
X141484580Y-50992857D02*
X141532200Y-51040476D01*
X141532200Y-51040476D02*
X141579819Y-51183333D01*
X141579819Y-51183333D02*
X141579819Y-51278571D01*
X141579819Y-51278571D02*
X141532200Y-51421428D01*
X141532200Y-51421428D02*
X141436961Y-51516666D01*
X141436961Y-51516666D02*
X141341723Y-51564285D01*
X141341723Y-51564285D02*
X141151247Y-51611904D01*
X141151247Y-51611904D02*
X141008390Y-51611904D01*
X141008390Y-51611904D02*
X140817914Y-51564285D01*
X140817914Y-51564285D02*
X140722676Y-51516666D01*
X140722676Y-51516666D02*
X140627438Y-51421428D01*
X140627438Y-51421428D02*
X140579819Y-51278571D01*
X140579819Y-51278571D02*
X140579819Y-51183333D01*
X140579819Y-51183333D02*
X140627438Y-51040476D01*
X140627438Y-51040476D02*
X140675057Y-50992857D01*
X140675057Y-50611904D02*
X140627438Y-50564285D01*
X140627438Y-50564285D02*
X140579819Y-50469047D01*
X140579819Y-50469047D02*
X140579819Y-50230952D01*
X140579819Y-50230952D02*
X140627438Y-50135714D01*
X140627438Y-50135714D02*
X140675057Y-50088095D01*
X140675057Y-50088095D02*
X140770295Y-50040476D01*
X140770295Y-50040476D02*
X140865533Y-50040476D01*
X140865533Y-50040476D02*
X141008390Y-50088095D01*
X141008390Y-50088095D02*
X141579819Y-50659523D01*
X141579819Y-50659523D02*
X141579819Y-50040476D01*
X141579819Y-49088095D02*
X141579819Y-49659523D01*
X141579819Y-49373809D02*
X140579819Y-49373809D01*
X140579819Y-49373809D02*
X140722676Y-49469047D01*
X140722676Y-49469047D02*
X140817914Y-49564285D01*
X140817914Y-49564285D02*
X140865533Y-49659523D01*
X141729761Y-72575057D02*
X141634523Y-72527438D01*
X141634523Y-72527438D02*
X141539285Y-72432200D01*
X141539285Y-72432200D02*
X141396428Y-72289342D01*
X141396428Y-72289342D02*
X141301190Y-72241723D01*
X141301190Y-72241723D02*
X141205952Y-72241723D01*
X141253571Y-72479819D02*
X141158333Y-72432200D01*
X141158333Y-72432200D02*
X141063095Y-72336961D01*
X141063095Y-72336961D02*
X141015476Y-72146485D01*
X141015476Y-72146485D02*
X141015476Y-71813152D01*
X141015476Y-71813152D02*
X141063095Y-71622676D01*
X141063095Y-71622676D02*
X141158333Y-71527438D01*
X141158333Y-71527438D02*
X141253571Y-71479819D01*
X141253571Y-71479819D02*
X141444047Y-71479819D01*
X141444047Y-71479819D02*
X141539285Y-71527438D01*
X141539285Y-71527438D02*
X141634523Y-71622676D01*
X141634523Y-71622676D02*
X141682142Y-71813152D01*
X141682142Y-71813152D02*
X141682142Y-72146485D01*
X141682142Y-72146485D02*
X141634523Y-72336961D01*
X141634523Y-72336961D02*
X141539285Y-72432200D01*
X141539285Y-72432200D02*
X141444047Y-72479819D01*
X141444047Y-72479819D02*
X141253571Y-72479819D01*
X142539285Y-71479819D02*
X142348809Y-71479819D01*
X142348809Y-71479819D02*
X142253571Y-71527438D01*
X142253571Y-71527438D02*
X142205952Y-71575057D01*
X142205952Y-71575057D02*
X142110714Y-71717914D01*
X142110714Y-71717914D02*
X142063095Y-71908390D01*
X142063095Y-71908390D02*
X142063095Y-72289342D01*
X142063095Y-72289342D02*
X142110714Y-72384580D01*
X142110714Y-72384580D02*
X142158333Y-72432200D01*
X142158333Y-72432200D02*
X142253571Y-72479819D01*
X142253571Y-72479819D02*
X142444047Y-72479819D01*
X142444047Y-72479819D02*
X142539285Y-72432200D01*
X142539285Y-72432200D02*
X142586904Y-72384580D01*
X142586904Y-72384580D02*
X142634523Y-72289342D01*
X142634523Y-72289342D02*
X142634523Y-72051247D01*
X142634523Y-72051247D02*
X142586904Y-71956009D01*
X142586904Y-71956009D02*
X142539285Y-71908390D01*
X142539285Y-71908390D02*
X142444047Y-71860771D01*
X142444047Y-71860771D02*
X142253571Y-71860771D01*
X142253571Y-71860771D02*
X142158333Y-71908390D01*
X142158333Y-71908390D02*
X142110714Y-71956009D01*
X142110714Y-71956009D02*
X142063095Y-72051247D01*
X134654819Y-62842857D02*
X134178628Y-63176190D01*
X134654819Y-63414285D02*
X133654819Y-63414285D01*
X133654819Y-63414285D02*
X133654819Y-63033333D01*
X133654819Y-63033333D02*
X133702438Y-62938095D01*
X133702438Y-62938095D02*
X133750057Y-62890476D01*
X133750057Y-62890476D02*
X133845295Y-62842857D01*
X133845295Y-62842857D02*
X133988152Y-62842857D01*
X133988152Y-62842857D02*
X134083390Y-62890476D01*
X134083390Y-62890476D02*
X134131009Y-62938095D01*
X134131009Y-62938095D02*
X134178628Y-63033333D01*
X134178628Y-63033333D02*
X134178628Y-63414285D01*
X134654819Y-61890476D02*
X134654819Y-62461904D01*
X134654819Y-62176190D02*
X133654819Y-62176190D01*
X133654819Y-62176190D02*
X133797676Y-62271428D01*
X133797676Y-62271428D02*
X133892914Y-62366666D01*
X133892914Y-62366666D02*
X133940533Y-62461904D01*
X134083390Y-61319047D02*
X134035771Y-61414285D01*
X134035771Y-61414285D02*
X133988152Y-61461904D01*
X133988152Y-61461904D02*
X133892914Y-61509523D01*
X133892914Y-61509523D02*
X133845295Y-61509523D01*
X133845295Y-61509523D02*
X133750057Y-61461904D01*
X133750057Y-61461904D02*
X133702438Y-61414285D01*
X133702438Y-61414285D02*
X133654819Y-61319047D01*
X133654819Y-61319047D02*
X133654819Y-61128571D01*
X133654819Y-61128571D02*
X133702438Y-61033333D01*
X133702438Y-61033333D02*
X133750057Y-60985714D01*
X133750057Y-60985714D02*
X133845295Y-60938095D01*
X133845295Y-60938095D02*
X133892914Y-60938095D01*
X133892914Y-60938095D02*
X133988152Y-60985714D01*
X133988152Y-60985714D02*
X134035771Y-61033333D01*
X134035771Y-61033333D02*
X134083390Y-61128571D01*
X134083390Y-61128571D02*
X134083390Y-61319047D01*
X134083390Y-61319047D02*
X134131009Y-61414285D01*
X134131009Y-61414285D02*
X134178628Y-61461904D01*
X134178628Y-61461904D02*
X134273866Y-61509523D01*
X134273866Y-61509523D02*
X134464342Y-61509523D01*
X134464342Y-61509523D02*
X134559580Y-61461904D01*
X134559580Y-61461904D02*
X134607200Y-61414285D01*
X134607200Y-61414285D02*
X134654819Y-61319047D01*
X134654819Y-61319047D02*
X134654819Y-61128571D01*
X134654819Y-61128571D02*
X134607200Y-61033333D01*
X134607200Y-61033333D02*
X134559580Y-60985714D01*
X134559580Y-60985714D02*
X134464342Y-60938095D01*
X134464342Y-60938095D02*
X134273866Y-60938095D01*
X134273866Y-60938095D02*
X134178628Y-60985714D01*
X134178628Y-60985714D02*
X134131009Y-61033333D01*
X134131009Y-61033333D02*
X134083390Y-61128571D01*
X141329819Y-56792857D02*
X140853628Y-57126190D01*
X141329819Y-57364285D02*
X140329819Y-57364285D01*
X140329819Y-57364285D02*
X140329819Y-56983333D01*
X140329819Y-56983333D02*
X140377438Y-56888095D01*
X140377438Y-56888095D02*
X140425057Y-56840476D01*
X140425057Y-56840476D02*
X140520295Y-56792857D01*
X140520295Y-56792857D02*
X140663152Y-56792857D01*
X140663152Y-56792857D02*
X140758390Y-56840476D01*
X140758390Y-56840476D02*
X140806009Y-56888095D01*
X140806009Y-56888095D02*
X140853628Y-56983333D01*
X140853628Y-56983333D02*
X140853628Y-57364285D01*
X141329819Y-55840476D02*
X141329819Y-56411904D01*
X141329819Y-56126190D02*
X140329819Y-56126190D01*
X140329819Y-56126190D02*
X140472676Y-56221428D01*
X140472676Y-56221428D02*
X140567914Y-56316666D01*
X140567914Y-56316666D02*
X140615533Y-56411904D01*
X140329819Y-55507142D02*
X140329819Y-54888095D01*
X140329819Y-54888095D02*
X140710771Y-55221428D01*
X140710771Y-55221428D02*
X140710771Y-55078571D01*
X140710771Y-55078571D02*
X140758390Y-54983333D01*
X140758390Y-54983333D02*
X140806009Y-54935714D01*
X140806009Y-54935714D02*
X140901247Y-54888095D01*
X140901247Y-54888095D02*
X141139342Y-54888095D01*
X141139342Y-54888095D02*
X141234580Y-54935714D01*
X141234580Y-54935714D02*
X141282200Y-54983333D01*
X141282200Y-54983333D02*
X141329819Y-55078571D01*
X141329819Y-55078571D02*
X141329819Y-55364285D01*
X141329819Y-55364285D02*
X141282200Y-55459523D01*
X141282200Y-55459523D02*
X141234580Y-55507142D01*
X131050057Y-45360238D02*
X131002438Y-45455476D01*
X131002438Y-45455476D02*
X130907200Y-45550714D01*
X130907200Y-45550714D02*
X130764342Y-45693571D01*
X130764342Y-45693571D02*
X130716723Y-45788809D01*
X130716723Y-45788809D02*
X130716723Y-45884047D01*
X130954819Y-45836428D02*
X130907200Y-45931666D01*
X130907200Y-45931666D02*
X130811961Y-46026904D01*
X130811961Y-46026904D02*
X130621485Y-46074523D01*
X130621485Y-46074523D02*
X130288152Y-46074523D01*
X130288152Y-46074523D02*
X130097676Y-46026904D01*
X130097676Y-46026904D02*
X130002438Y-45931666D01*
X130002438Y-45931666D02*
X129954819Y-45836428D01*
X129954819Y-45836428D02*
X129954819Y-45645952D01*
X129954819Y-45645952D02*
X130002438Y-45550714D01*
X130002438Y-45550714D02*
X130097676Y-45455476D01*
X130097676Y-45455476D02*
X130288152Y-45407857D01*
X130288152Y-45407857D02*
X130621485Y-45407857D01*
X130621485Y-45407857D02*
X130811961Y-45455476D01*
X130811961Y-45455476D02*
X130907200Y-45550714D01*
X130907200Y-45550714D02*
X130954819Y-45645952D01*
X130954819Y-45645952D02*
X130954819Y-45836428D01*
X130954819Y-44455476D02*
X130954819Y-45026904D01*
X130954819Y-44741190D02*
X129954819Y-44741190D01*
X129954819Y-44741190D02*
X130097676Y-44836428D01*
X130097676Y-44836428D02*
X130192914Y-44931666D01*
X130192914Y-44931666D02*
X130240533Y-45026904D01*
X90154819Y-75891666D02*
X89678628Y-76224999D01*
X90154819Y-76463094D02*
X89154819Y-76463094D01*
X89154819Y-76463094D02*
X89154819Y-76082142D01*
X89154819Y-76082142D02*
X89202438Y-75986904D01*
X89202438Y-75986904D02*
X89250057Y-75939285D01*
X89250057Y-75939285D02*
X89345295Y-75891666D01*
X89345295Y-75891666D02*
X89488152Y-75891666D01*
X89488152Y-75891666D02*
X89583390Y-75939285D01*
X89583390Y-75939285D02*
X89631009Y-75986904D01*
X89631009Y-75986904D02*
X89678628Y-76082142D01*
X89678628Y-76082142D02*
X89678628Y-76463094D01*
X89250057Y-75510713D02*
X89202438Y-75463094D01*
X89202438Y-75463094D02*
X89154819Y-75367856D01*
X89154819Y-75367856D02*
X89154819Y-75129761D01*
X89154819Y-75129761D02*
X89202438Y-75034523D01*
X89202438Y-75034523D02*
X89250057Y-74986904D01*
X89250057Y-74986904D02*
X89345295Y-74939285D01*
X89345295Y-74939285D02*
X89440533Y-74939285D01*
X89440533Y-74939285D02*
X89583390Y-74986904D01*
X89583390Y-74986904D02*
X90154819Y-75558332D01*
X90154819Y-75558332D02*
X90154819Y-74939285D01*
X92588095Y-39154819D02*
X92588095Y-39964342D01*
X92588095Y-39964342D02*
X92635714Y-40059580D01*
X92635714Y-40059580D02*
X92683333Y-40107200D01*
X92683333Y-40107200D02*
X92778571Y-40154819D01*
X92778571Y-40154819D02*
X92969047Y-40154819D01*
X92969047Y-40154819D02*
X93064285Y-40107200D01*
X93064285Y-40107200D02*
X93111904Y-40059580D01*
X93111904Y-40059580D02*
X93159523Y-39964342D01*
X93159523Y-39964342D02*
X93159523Y-39154819D01*
X93778571Y-39583390D02*
X93683333Y-39535771D01*
X93683333Y-39535771D02*
X93635714Y-39488152D01*
X93635714Y-39488152D02*
X93588095Y-39392914D01*
X93588095Y-39392914D02*
X93588095Y-39345295D01*
X93588095Y-39345295D02*
X93635714Y-39250057D01*
X93635714Y-39250057D02*
X93683333Y-39202438D01*
X93683333Y-39202438D02*
X93778571Y-39154819D01*
X93778571Y-39154819D02*
X93969047Y-39154819D01*
X93969047Y-39154819D02*
X94064285Y-39202438D01*
X94064285Y-39202438D02*
X94111904Y-39250057D01*
X94111904Y-39250057D02*
X94159523Y-39345295D01*
X94159523Y-39345295D02*
X94159523Y-39392914D01*
X94159523Y-39392914D02*
X94111904Y-39488152D01*
X94111904Y-39488152D02*
X94064285Y-39535771D01*
X94064285Y-39535771D02*
X93969047Y-39583390D01*
X93969047Y-39583390D02*
X93778571Y-39583390D01*
X93778571Y-39583390D02*
X93683333Y-39631009D01*
X93683333Y-39631009D02*
X93635714Y-39678628D01*
X93635714Y-39678628D02*
X93588095Y-39773866D01*
X93588095Y-39773866D02*
X93588095Y-39964342D01*
X93588095Y-39964342D02*
X93635714Y-40059580D01*
X93635714Y-40059580D02*
X93683333Y-40107200D01*
X93683333Y-40107200D02*
X93778571Y-40154819D01*
X93778571Y-40154819D02*
X93969047Y-40154819D01*
X93969047Y-40154819D02*
X94064285Y-40107200D01*
X94064285Y-40107200D02*
X94111904Y-40059580D01*
X94111904Y-40059580D02*
X94159523Y-39964342D01*
X94159523Y-39964342D02*
X94159523Y-39773866D01*
X94159523Y-39773866D02*
X94111904Y-39678628D01*
X94111904Y-39678628D02*
X94064285Y-39631009D01*
X94064285Y-39631009D02*
X93969047Y-39583390D01*
X93459580Y-72766666D02*
X93507200Y-72814285D01*
X93507200Y-72814285D02*
X93554819Y-72957142D01*
X93554819Y-72957142D02*
X93554819Y-73052380D01*
X93554819Y-73052380D02*
X93507200Y-73195237D01*
X93507200Y-73195237D02*
X93411961Y-73290475D01*
X93411961Y-73290475D02*
X93316723Y-73338094D01*
X93316723Y-73338094D02*
X93126247Y-73385713D01*
X93126247Y-73385713D02*
X92983390Y-73385713D01*
X92983390Y-73385713D02*
X92792914Y-73338094D01*
X92792914Y-73338094D02*
X92697676Y-73290475D01*
X92697676Y-73290475D02*
X92602438Y-73195237D01*
X92602438Y-73195237D02*
X92554819Y-73052380D01*
X92554819Y-73052380D02*
X92554819Y-72957142D01*
X92554819Y-72957142D02*
X92602438Y-72814285D01*
X92602438Y-72814285D02*
X92650057Y-72766666D01*
X92888152Y-71909523D02*
X93554819Y-71909523D01*
X92507200Y-72147618D02*
X93221485Y-72385713D01*
X93221485Y-72385713D02*
X93221485Y-71766666D01*
X148879819Y-50942857D02*
X148403628Y-51276190D01*
X148879819Y-51514285D02*
X147879819Y-51514285D01*
X147879819Y-51514285D02*
X147879819Y-51133333D01*
X147879819Y-51133333D02*
X147927438Y-51038095D01*
X147927438Y-51038095D02*
X147975057Y-50990476D01*
X147975057Y-50990476D02*
X148070295Y-50942857D01*
X148070295Y-50942857D02*
X148213152Y-50942857D01*
X148213152Y-50942857D02*
X148308390Y-50990476D01*
X148308390Y-50990476D02*
X148356009Y-51038095D01*
X148356009Y-51038095D02*
X148403628Y-51133333D01*
X148403628Y-51133333D02*
X148403628Y-51514285D01*
X147975057Y-50561904D02*
X147927438Y-50514285D01*
X147927438Y-50514285D02*
X147879819Y-50419047D01*
X147879819Y-50419047D02*
X147879819Y-50180952D01*
X147879819Y-50180952D02*
X147927438Y-50085714D01*
X147927438Y-50085714D02*
X147975057Y-50038095D01*
X147975057Y-50038095D02*
X148070295Y-49990476D01*
X148070295Y-49990476D02*
X148165533Y-49990476D01*
X148165533Y-49990476D02*
X148308390Y-50038095D01*
X148308390Y-50038095D02*
X148879819Y-50609523D01*
X148879819Y-50609523D02*
X148879819Y-49990476D01*
X147879819Y-49371428D02*
X147879819Y-49276190D01*
X147879819Y-49276190D02*
X147927438Y-49180952D01*
X147927438Y-49180952D02*
X147975057Y-49133333D01*
X147975057Y-49133333D02*
X148070295Y-49085714D01*
X148070295Y-49085714D02*
X148260771Y-49038095D01*
X148260771Y-49038095D02*
X148498866Y-49038095D01*
X148498866Y-49038095D02*
X148689342Y-49085714D01*
X148689342Y-49085714D02*
X148784580Y-49133333D01*
X148784580Y-49133333D02*
X148832200Y-49180952D01*
X148832200Y-49180952D02*
X148879819Y-49276190D01*
X148879819Y-49276190D02*
X148879819Y-49371428D01*
X148879819Y-49371428D02*
X148832200Y-49466666D01*
X148832200Y-49466666D02*
X148784580Y-49514285D01*
X148784580Y-49514285D02*
X148689342Y-49561904D01*
X148689342Y-49561904D02*
X148498866Y-49609523D01*
X148498866Y-49609523D02*
X148260771Y-49609523D01*
X148260771Y-49609523D02*
X148070295Y-49561904D01*
X148070295Y-49561904D02*
X147975057Y-49514285D01*
X147975057Y-49514285D02*
X147927438Y-49466666D01*
X147927438Y-49466666D02*
X147879819Y-49371428D01*
X149779819Y-73667857D02*
X149303628Y-74001190D01*
X149779819Y-74239285D02*
X148779819Y-74239285D01*
X148779819Y-74239285D02*
X148779819Y-73858333D01*
X148779819Y-73858333D02*
X148827438Y-73763095D01*
X148827438Y-73763095D02*
X148875057Y-73715476D01*
X148875057Y-73715476D02*
X148970295Y-73667857D01*
X148970295Y-73667857D02*
X149113152Y-73667857D01*
X149113152Y-73667857D02*
X149208390Y-73715476D01*
X149208390Y-73715476D02*
X149256009Y-73763095D01*
X149256009Y-73763095D02*
X149303628Y-73858333D01*
X149303628Y-73858333D02*
X149303628Y-74239285D01*
X149779819Y-72715476D02*
X149779819Y-73286904D01*
X149779819Y-73001190D02*
X148779819Y-73001190D01*
X148779819Y-73001190D02*
X148922676Y-73096428D01*
X148922676Y-73096428D02*
X149017914Y-73191666D01*
X149017914Y-73191666D02*
X149065533Y-73286904D01*
X148875057Y-72334523D02*
X148827438Y-72286904D01*
X148827438Y-72286904D02*
X148779819Y-72191666D01*
X148779819Y-72191666D02*
X148779819Y-71953571D01*
X148779819Y-71953571D02*
X148827438Y-71858333D01*
X148827438Y-71858333D02*
X148875057Y-71810714D01*
X148875057Y-71810714D02*
X148970295Y-71763095D01*
X148970295Y-71763095D02*
X149065533Y-71763095D01*
X149065533Y-71763095D02*
X149208390Y-71810714D01*
X149208390Y-71810714D02*
X149779819Y-72382142D01*
X149779819Y-72382142D02*
X149779819Y-71763095D01*
X143233333Y-52829819D02*
X142757143Y-52829819D01*
X142757143Y-52829819D02*
X142757143Y-51829819D01*
X143519048Y-51925057D02*
X143566667Y-51877438D01*
X143566667Y-51877438D02*
X143661905Y-51829819D01*
X143661905Y-51829819D02*
X143900000Y-51829819D01*
X143900000Y-51829819D02*
X143995238Y-51877438D01*
X143995238Y-51877438D02*
X144042857Y-51925057D01*
X144042857Y-51925057D02*
X144090476Y-52020295D01*
X144090476Y-52020295D02*
X144090476Y-52115533D01*
X144090476Y-52115533D02*
X144042857Y-52258390D01*
X144042857Y-52258390D02*
X143471429Y-52829819D01*
X143471429Y-52829819D02*
X144090476Y-52829819D01*
X148607142Y-35704819D02*
X148273809Y-35228628D01*
X148035714Y-35704819D02*
X148035714Y-34704819D01*
X148035714Y-34704819D02*
X148416666Y-34704819D01*
X148416666Y-34704819D02*
X148511904Y-34752438D01*
X148511904Y-34752438D02*
X148559523Y-34800057D01*
X148559523Y-34800057D02*
X148607142Y-34895295D01*
X148607142Y-34895295D02*
X148607142Y-35038152D01*
X148607142Y-35038152D02*
X148559523Y-35133390D01*
X148559523Y-35133390D02*
X148511904Y-35181009D01*
X148511904Y-35181009D02*
X148416666Y-35228628D01*
X148416666Y-35228628D02*
X148035714Y-35228628D01*
X149464285Y-35038152D02*
X149464285Y-35704819D01*
X149226190Y-34657200D02*
X148988095Y-35371485D01*
X148988095Y-35371485D02*
X149607142Y-35371485D01*
X149940476Y-34800057D02*
X149988095Y-34752438D01*
X149988095Y-34752438D02*
X150083333Y-34704819D01*
X150083333Y-34704819D02*
X150321428Y-34704819D01*
X150321428Y-34704819D02*
X150416666Y-34752438D01*
X150416666Y-34752438D02*
X150464285Y-34800057D01*
X150464285Y-34800057D02*
X150511904Y-34895295D01*
X150511904Y-34895295D02*
X150511904Y-34990533D01*
X150511904Y-34990533D02*
X150464285Y-35133390D01*
X150464285Y-35133390D02*
X149892857Y-35704819D01*
X149892857Y-35704819D02*
X150511904Y-35704819D01*
X150025057Y-59296428D02*
X149977438Y-59391666D01*
X149977438Y-59391666D02*
X149882200Y-59486904D01*
X149882200Y-59486904D02*
X149739342Y-59629761D01*
X149739342Y-59629761D02*
X149691723Y-59724999D01*
X149691723Y-59724999D02*
X149691723Y-59820237D01*
X149929819Y-59772618D02*
X149882200Y-59867856D01*
X149882200Y-59867856D02*
X149786961Y-59963094D01*
X149786961Y-59963094D02*
X149596485Y-60010713D01*
X149596485Y-60010713D02*
X149263152Y-60010713D01*
X149263152Y-60010713D02*
X149072676Y-59963094D01*
X149072676Y-59963094D02*
X148977438Y-59867856D01*
X148977438Y-59867856D02*
X148929819Y-59772618D01*
X148929819Y-59772618D02*
X148929819Y-59582142D01*
X148929819Y-59582142D02*
X148977438Y-59486904D01*
X148977438Y-59486904D02*
X149072676Y-59391666D01*
X149072676Y-59391666D02*
X149263152Y-59344047D01*
X149263152Y-59344047D02*
X149596485Y-59344047D01*
X149596485Y-59344047D02*
X149786961Y-59391666D01*
X149786961Y-59391666D02*
X149882200Y-59486904D01*
X149882200Y-59486904D02*
X149929819Y-59582142D01*
X149929819Y-59582142D02*
X149929819Y-59772618D01*
X149929819Y-58391666D02*
X149929819Y-58963094D01*
X149929819Y-58677380D02*
X148929819Y-58677380D01*
X148929819Y-58677380D02*
X149072676Y-58772618D01*
X149072676Y-58772618D02*
X149167914Y-58867856D01*
X149167914Y-58867856D02*
X149215533Y-58963094D01*
X149025057Y-58010713D02*
X148977438Y-57963094D01*
X148977438Y-57963094D02*
X148929819Y-57867856D01*
X148929819Y-57867856D02*
X148929819Y-57629761D01*
X148929819Y-57629761D02*
X148977438Y-57534523D01*
X148977438Y-57534523D02*
X149025057Y-57486904D01*
X149025057Y-57486904D02*
X149120295Y-57439285D01*
X149120295Y-57439285D02*
X149215533Y-57439285D01*
X149215533Y-57439285D02*
X149358390Y-57486904D01*
X149358390Y-57486904D02*
X149929819Y-58058332D01*
X149929819Y-58058332D02*
X149929819Y-57439285D01*
X138307142Y-50009580D02*
X138259523Y-50057200D01*
X138259523Y-50057200D02*
X138116666Y-50104819D01*
X138116666Y-50104819D02*
X138021428Y-50104819D01*
X138021428Y-50104819D02*
X137878571Y-50057200D01*
X137878571Y-50057200D02*
X137783333Y-49961961D01*
X137783333Y-49961961D02*
X137735714Y-49866723D01*
X137735714Y-49866723D02*
X137688095Y-49676247D01*
X137688095Y-49676247D02*
X137688095Y-49533390D01*
X137688095Y-49533390D02*
X137735714Y-49342914D01*
X137735714Y-49342914D02*
X137783333Y-49247676D01*
X137783333Y-49247676D02*
X137878571Y-49152438D01*
X137878571Y-49152438D02*
X138021428Y-49104819D01*
X138021428Y-49104819D02*
X138116666Y-49104819D01*
X138116666Y-49104819D02*
X138259523Y-49152438D01*
X138259523Y-49152438D02*
X138307142Y-49200057D01*
X138688095Y-49200057D02*
X138735714Y-49152438D01*
X138735714Y-49152438D02*
X138830952Y-49104819D01*
X138830952Y-49104819D02*
X139069047Y-49104819D01*
X139069047Y-49104819D02*
X139164285Y-49152438D01*
X139164285Y-49152438D02*
X139211904Y-49200057D01*
X139211904Y-49200057D02*
X139259523Y-49295295D01*
X139259523Y-49295295D02*
X139259523Y-49390533D01*
X139259523Y-49390533D02*
X139211904Y-49533390D01*
X139211904Y-49533390D02*
X138640476Y-50104819D01*
X138640476Y-50104819D02*
X139259523Y-50104819D01*
X139640476Y-49200057D02*
X139688095Y-49152438D01*
X139688095Y-49152438D02*
X139783333Y-49104819D01*
X139783333Y-49104819D02*
X140021428Y-49104819D01*
X140021428Y-49104819D02*
X140116666Y-49152438D01*
X140116666Y-49152438D02*
X140164285Y-49200057D01*
X140164285Y-49200057D02*
X140211904Y-49295295D01*
X140211904Y-49295295D02*
X140211904Y-49390533D01*
X140211904Y-49390533D02*
X140164285Y-49533390D01*
X140164285Y-49533390D02*
X139592857Y-50104819D01*
X139592857Y-50104819D02*
X140211904Y-50104819D01*
X102747737Y-37756875D02*
X102741003Y-37817484D01*
X102741003Y-37817484D02*
X102666925Y-37945437D01*
X102666925Y-37945437D02*
X102599582Y-38012780D01*
X102599582Y-38012780D02*
X102471629Y-38086858D01*
X102471629Y-38086858D02*
X102350411Y-38100327D01*
X102350411Y-38100327D02*
X102262864Y-38080124D01*
X102262864Y-38080124D02*
X102121443Y-38006046D01*
X102121443Y-38006046D02*
X102040631Y-37925234D01*
X102040631Y-37925234D02*
X101966553Y-37783812D01*
X101966553Y-37783812D02*
X101946350Y-37696266D01*
X101946350Y-37696266D02*
X101959818Y-37575047D01*
X101959818Y-37575047D02*
X102033896Y-37447095D01*
X102033896Y-37447095D02*
X102101240Y-37379751D01*
X102101240Y-37379751D02*
X102229192Y-37305673D01*
X102229192Y-37305673D02*
X102289802Y-37298939D01*
X102559176Y-37029565D02*
X102565910Y-36968956D01*
X102565910Y-36968956D02*
X102606316Y-36874675D01*
X102606316Y-36874675D02*
X102774675Y-36706316D01*
X102774675Y-36706316D02*
X102868956Y-36665910D01*
X102868956Y-36665910D02*
X102929565Y-36659176D01*
X102929565Y-36659176D02*
X103017111Y-36679379D01*
X103017111Y-36679379D02*
X103070986Y-36733254D01*
X103070986Y-36733254D02*
X103118127Y-36847738D01*
X103118127Y-36847738D02*
X103037315Y-37575047D01*
X103037315Y-37575047D02*
X103475047Y-37137315D01*
X103811765Y-36800597D02*
X103946452Y-36665910D01*
X103946452Y-36665910D02*
X103986858Y-36571629D01*
X103986858Y-36571629D02*
X103993592Y-36511020D01*
X103993592Y-36511020D02*
X103980124Y-36362864D01*
X103980124Y-36362864D02*
X103906046Y-36221443D01*
X103906046Y-36221443D02*
X103690547Y-36005944D01*
X103690547Y-36005944D02*
X103603000Y-35985741D01*
X103603000Y-35985741D02*
X103542391Y-35992475D01*
X103542391Y-35992475D02*
X103448110Y-36032881D01*
X103448110Y-36032881D02*
X103313423Y-36167568D01*
X103313423Y-36167568D02*
X103273017Y-36261849D01*
X103273017Y-36261849D02*
X103266282Y-36322458D01*
X103266282Y-36322458D02*
X103286485Y-36410005D01*
X103286485Y-36410005D02*
X103421173Y-36544692D01*
X103421173Y-36544692D02*
X103508719Y-36564895D01*
X103508719Y-36564895D02*
X103569328Y-36558160D01*
X103569328Y-36558160D02*
X103663609Y-36517754D01*
X103663609Y-36517754D02*
X103798296Y-36383067D01*
X103798296Y-36383067D02*
X103838702Y-36288786D01*
X103838702Y-36288786D02*
X103845437Y-36228177D01*
X103845437Y-36228177D02*
X103825234Y-36140631D01*
X148607142Y-37204819D02*
X148273809Y-36728628D01*
X148035714Y-37204819D02*
X148035714Y-36204819D01*
X148035714Y-36204819D02*
X148416666Y-36204819D01*
X148416666Y-36204819D02*
X148511904Y-36252438D01*
X148511904Y-36252438D02*
X148559523Y-36300057D01*
X148559523Y-36300057D02*
X148607142Y-36395295D01*
X148607142Y-36395295D02*
X148607142Y-36538152D01*
X148607142Y-36538152D02*
X148559523Y-36633390D01*
X148559523Y-36633390D02*
X148511904Y-36681009D01*
X148511904Y-36681009D02*
X148416666Y-36728628D01*
X148416666Y-36728628D02*
X148035714Y-36728628D01*
X149464285Y-36538152D02*
X149464285Y-37204819D01*
X149226190Y-36157200D02*
X148988095Y-36871485D01*
X148988095Y-36871485D02*
X149607142Y-36871485D01*
X150511904Y-37204819D02*
X149940476Y-37204819D01*
X150226190Y-37204819D02*
X150226190Y-36204819D01*
X150226190Y-36204819D02*
X150130952Y-36347676D01*
X150130952Y-36347676D02*
X150035714Y-36442914D01*
X150035714Y-36442914D02*
X149940476Y-36490533D01*
X143857142Y-40979580D02*
X143809523Y-41027200D01*
X143809523Y-41027200D02*
X143666666Y-41074819D01*
X143666666Y-41074819D02*
X143571428Y-41074819D01*
X143571428Y-41074819D02*
X143428571Y-41027200D01*
X143428571Y-41027200D02*
X143333333Y-40931961D01*
X143333333Y-40931961D02*
X143285714Y-40836723D01*
X143285714Y-40836723D02*
X143238095Y-40646247D01*
X143238095Y-40646247D02*
X143238095Y-40503390D01*
X143238095Y-40503390D02*
X143285714Y-40312914D01*
X143285714Y-40312914D02*
X143333333Y-40217676D01*
X143333333Y-40217676D02*
X143428571Y-40122438D01*
X143428571Y-40122438D02*
X143571428Y-40074819D01*
X143571428Y-40074819D02*
X143666666Y-40074819D01*
X143666666Y-40074819D02*
X143809523Y-40122438D01*
X143809523Y-40122438D02*
X143857142Y-40170057D01*
X144238095Y-40170057D02*
X144285714Y-40122438D01*
X144285714Y-40122438D02*
X144380952Y-40074819D01*
X144380952Y-40074819D02*
X144619047Y-40074819D01*
X144619047Y-40074819D02*
X144714285Y-40122438D01*
X144714285Y-40122438D02*
X144761904Y-40170057D01*
X144761904Y-40170057D02*
X144809523Y-40265295D01*
X144809523Y-40265295D02*
X144809523Y-40360533D01*
X144809523Y-40360533D02*
X144761904Y-40503390D01*
X144761904Y-40503390D02*
X144190476Y-41074819D01*
X144190476Y-41074819D02*
X144809523Y-41074819D01*
X145428571Y-40074819D02*
X145523809Y-40074819D01*
X145523809Y-40074819D02*
X145619047Y-40122438D01*
X145619047Y-40122438D02*
X145666666Y-40170057D01*
X145666666Y-40170057D02*
X145714285Y-40265295D01*
X145714285Y-40265295D02*
X145761904Y-40455771D01*
X145761904Y-40455771D02*
X145761904Y-40693866D01*
X145761904Y-40693866D02*
X145714285Y-40884342D01*
X145714285Y-40884342D02*
X145666666Y-40979580D01*
X145666666Y-40979580D02*
X145619047Y-41027200D01*
X145619047Y-41027200D02*
X145523809Y-41074819D01*
X145523809Y-41074819D02*
X145428571Y-41074819D01*
X145428571Y-41074819D02*
X145333333Y-41027200D01*
X145333333Y-41027200D02*
X145285714Y-40979580D01*
X145285714Y-40979580D02*
X145238095Y-40884342D01*
X145238095Y-40884342D02*
X145190476Y-40693866D01*
X145190476Y-40693866D02*
X145190476Y-40455771D01*
X145190476Y-40455771D02*
X145238095Y-40265295D01*
X145238095Y-40265295D02*
X145285714Y-40170057D01*
X145285714Y-40170057D02*
X145333333Y-40122438D01*
X145333333Y-40122438D02*
X145428571Y-40074819D01*
X143879819Y-62717857D02*
X143403628Y-63051190D01*
X143879819Y-63289285D02*
X142879819Y-63289285D01*
X142879819Y-63289285D02*
X142879819Y-62908333D01*
X142879819Y-62908333D02*
X142927438Y-62813095D01*
X142927438Y-62813095D02*
X142975057Y-62765476D01*
X142975057Y-62765476D02*
X143070295Y-62717857D01*
X143070295Y-62717857D02*
X143213152Y-62717857D01*
X143213152Y-62717857D02*
X143308390Y-62765476D01*
X143308390Y-62765476D02*
X143356009Y-62813095D01*
X143356009Y-62813095D02*
X143403628Y-62908333D01*
X143403628Y-62908333D02*
X143403628Y-63289285D01*
X142879819Y-62384523D02*
X142879819Y-61765476D01*
X142879819Y-61765476D02*
X143260771Y-62098809D01*
X143260771Y-62098809D02*
X143260771Y-61955952D01*
X143260771Y-61955952D02*
X143308390Y-61860714D01*
X143308390Y-61860714D02*
X143356009Y-61813095D01*
X143356009Y-61813095D02*
X143451247Y-61765476D01*
X143451247Y-61765476D02*
X143689342Y-61765476D01*
X143689342Y-61765476D02*
X143784580Y-61813095D01*
X143784580Y-61813095D02*
X143832200Y-61860714D01*
X143832200Y-61860714D02*
X143879819Y-61955952D01*
X143879819Y-61955952D02*
X143879819Y-62241666D01*
X143879819Y-62241666D02*
X143832200Y-62336904D01*
X143832200Y-62336904D02*
X143784580Y-62384523D01*
X142879819Y-61432142D02*
X142879819Y-60813095D01*
X142879819Y-60813095D02*
X143260771Y-61146428D01*
X143260771Y-61146428D02*
X143260771Y-61003571D01*
X143260771Y-61003571D02*
X143308390Y-60908333D01*
X143308390Y-60908333D02*
X143356009Y-60860714D01*
X143356009Y-60860714D02*
X143451247Y-60813095D01*
X143451247Y-60813095D02*
X143689342Y-60813095D01*
X143689342Y-60813095D02*
X143784580Y-60860714D01*
X143784580Y-60860714D02*
X143832200Y-60908333D01*
X143832200Y-60908333D02*
X143879819Y-61003571D01*
X143879819Y-61003571D02*
X143879819Y-61289285D01*
X143879819Y-61289285D02*
X143832200Y-61384523D01*
X143832200Y-61384523D02*
X143784580Y-61432142D01*
X90229819Y-36836904D02*
X90229819Y-36265476D01*
X91229819Y-36551190D02*
X90229819Y-36551190D01*
X91229819Y-35932142D02*
X90229819Y-35932142D01*
X90229819Y-35932142D02*
X90229819Y-35551190D01*
X90229819Y-35551190D02*
X90277438Y-35455952D01*
X90277438Y-35455952D02*
X90325057Y-35408333D01*
X90325057Y-35408333D02*
X90420295Y-35360714D01*
X90420295Y-35360714D02*
X90563152Y-35360714D01*
X90563152Y-35360714D02*
X90658390Y-35408333D01*
X90658390Y-35408333D02*
X90706009Y-35455952D01*
X90706009Y-35455952D02*
X90753628Y-35551190D01*
X90753628Y-35551190D02*
X90753628Y-35932142D01*
X90325057Y-34979761D02*
X90277438Y-34932142D01*
X90277438Y-34932142D02*
X90229819Y-34836904D01*
X90229819Y-34836904D02*
X90229819Y-34598809D01*
X90229819Y-34598809D02*
X90277438Y-34503571D01*
X90277438Y-34503571D02*
X90325057Y-34455952D01*
X90325057Y-34455952D02*
X90420295Y-34408333D01*
X90420295Y-34408333D02*
X90515533Y-34408333D01*
X90515533Y-34408333D02*
X90658390Y-34455952D01*
X90658390Y-34455952D02*
X91229819Y-35027380D01*
X91229819Y-35027380D02*
X91229819Y-34408333D01*
X140929819Y-70592857D02*
X140453628Y-70926190D01*
X140929819Y-71164285D02*
X139929819Y-71164285D01*
X139929819Y-71164285D02*
X139929819Y-70783333D01*
X139929819Y-70783333D02*
X139977438Y-70688095D01*
X139977438Y-70688095D02*
X140025057Y-70640476D01*
X140025057Y-70640476D02*
X140120295Y-70592857D01*
X140120295Y-70592857D02*
X140263152Y-70592857D01*
X140263152Y-70592857D02*
X140358390Y-70640476D01*
X140358390Y-70640476D02*
X140406009Y-70688095D01*
X140406009Y-70688095D02*
X140453628Y-70783333D01*
X140453628Y-70783333D02*
X140453628Y-71164285D01*
X140025057Y-70211904D02*
X139977438Y-70164285D01*
X139977438Y-70164285D02*
X139929819Y-70069047D01*
X139929819Y-70069047D02*
X139929819Y-69830952D01*
X139929819Y-69830952D02*
X139977438Y-69735714D01*
X139977438Y-69735714D02*
X140025057Y-69688095D01*
X140025057Y-69688095D02*
X140120295Y-69640476D01*
X140120295Y-69640476D02*
X140215533Y-69640476D01*
X140215533Y-69640476D02*
X140358390Y-69688095D01*
X140358390Y-69688095D02*
X140929819Y-70259523D01*
X140929819Y-70259523D02*
X140929819Y-69640476D01*
X140358390Y-69069047D02*
X140310771Y-69164285D01*
X140310771Y-69164285D02*
X140263152Y-69211904D01*
X140263152Y-69211904D02*
X140167914Y-69259523D01*
X140167914Y-69259523D02*
X140120295Y-69259523D01*
X140120295Y-69259523D02*
X140025057Y-69211904D01*
X140025057Y-69211904D02*
X139977438Y-69164285D01*
X139977438Y-69164285D02*
X139929819Y-69069047D01*
X139929819Y-69069047D02*
X139929819Y-68878571D01*
X139929819Y-68878571D02*
X139977438Y-68783333D01*
X139977438Y-68783333D02*
X140025057Y-68735714D01*
X140025057Y-68735714D02*
X140120295Y-68688095D01*
X140120295Y-68688095D02*
X140167914Y-68688095D01*
X140167914Y-68688095D02*
X140263152Y-68735714D01*
X140263152Y-68735714D02*
X140310771Y-68783333D01*
X140310771Y-68783333D02*
X140358390Y-68878571D01*
X140358390Y-68878571D02*
X140358390Y-69069047D01*
X140358390Y-69069047D02*
X140406009Y-69164285D01*
X140406009Y-69164285D02*
X140453628Y-69211904D01*
X140453628Y-69211904D02*
X140548866Y-69259523D01*
X140548866Y-69259523D02*
X140739342Y-69259523D01*
X140739342Y-69259523D02*
X140834580Y-69211904D01*
X140834580Y-69211904D02*
X140882200Y-69164285D01*
X140882200Y-69164285D02*
X140929819Y-69069047D01*
X140929819Y-69069047D02*
X140929819Y-68878571D01*
X140929819Y-68878571D02*
X140882200Y-68783333D01*
X140882200Y-68783333D02*
X140834580Y-68735714D01*
X140834580Y-68735714D02*
X140739342Y-68688095D01*
X140739342Y-68688095D02*
X140548866Y-68688095D01*
X140548866Y-68688095D02*
X140453628Y-68735714D01*
X140453628Y-68735714D02*
X140406009Y-68783333D01*
X140406009Y-68783333D02*
X140358390Y-68878571D01*
X118309582Y-38267257D02*
X118357202Y-38314876D01*
X118357202Y-38314876D02*
X118404821Y-38457733D01*
X118404821Y-38457733D02*
X118404821Y-38552971D01*
X118404821Y-38552971D02*
X118357202Y-38695828D01*
X118357202Y-38695828D02*
X118261963Y-38791066D01*
X118261963Y-38791066D02*
X118166725Y-38838685D01*
X118166725Y-38838685D02*
X117976249Y-38886304D01*
X117976249Y-38886304D02*
X117833392Y-38886304D01*
X117833392Y-38886304D02*
X117642916Y-38838685D01*
X117642916Y-38838685D02*
X117547678Y-38791066D01*
X117547678Y-38791066D02*
X117452440Y-38695828D01*
X117452440Y-38695828D02*
X117404821Y-38552971D01*
X117404821Y-38552971D02*
X117404821Y-38457733D01*
X117404821Y-38457733D02*
X117452440Y-38314876D01*
X117452440Y-38314876D02*
X117500059Y-38267257D01*
X117500059Y-37886304D02*
X117452440Y-37838685D01*
X117452440Y-37838685D02*
X117404821Y-37743447D01*
X117404821Y-37743447D02*
X117404821Y-37505352D01*
X117404821Y-37505352D02*
X117452440Y-37410114D01*
X117452440Y-37410114D02*
X117500059Y-37362495D01*
X117500059Y-37362495D02*
X117595297Y-37314876D01*
X117595297Y-37314876D02*
X117690535Y-37314876D01*
X117690535Y-37314876D02*
X117833392Y-37362495D01*
X117833392Y-37362495D02*
X118404821Y-37933923D01*
X118404821Y-37933923D02*
X118404821Y-37314876D01*
X117833392Y-36743447D02*
X117785773Y-36838685D01*
X117785773Y-36838685D02*
X117738154Y-36886304D01*
X117738154Y-36886304D02*
X117642916Y-36933923D01*
X117642916Y-36933923D02*
X117595297Y-36933923D01*
X117595297Y-36933923D02*
X117500059Y-36886304D01*
X117500059Y-36886304D02*
X117452440Y-36838685D01*
X117452440Y-36838685D02*
X117404821Y-36743447D01*
X117404821Y-36743447D02*
X117404821Y-36552971D01*
X117404821Y-36552971D02*
X117452440Y-36457733D01*
X117452440Y-36457733D02*
X117500059Y-36410114D01*
X117500059Y-36410114D02*
X117595297Y-36362495D01*
X117595297Y-36362495D02*
X117642916Y-36362495D01*
X117642916Y-36362495D02*
X117738154Y-36410114D01*
X117738154Y-36410114D02*
X117785773Y-36457733D01*
X117785773Y-36457733D02*
X117833392Y-36552971D01*
X117833392Y-36552971D02*
X117833392Y-36743447D01*
X117833392Y-36743447D02*
X117881011Y-36838685D01*
X117881011Y-36838685D02*
X117928630Y-36886304D01*
X117928630Y-36886304D02*
X118023868Y-36933923D01*
X118023868Y-36933923D02*
X118214344Y-36933923D01*
X118214344Y-36933923D02*
X118309582Y-36886304D01*
X118309582Y-36886304D02*
X118357202Y-36838685D01*
X118357202Y-36838685D02*
X118404821Y-36743447D01*
X118404821Y-36743447D02*
X118404821Y-36552971D01*
X118404821Y-36552971D02*
X118357202Y-36457733D01*
X118357202Y-36457733D02*
X118309582Y-36410114D01*
X118309582Y-36410114D02*
X118214344Y-36362495D01*
X118214344Y-36362495D02*
X118023868Y-36362495D01*
X118023868Y-36362495D02*
X117928630Y-36410114D01*
X117928630Y-36410114D02*
X117881011Y-36457733D01*
X117881011Y-36457733D02*
X117833392Y-36552971D01*
X107224819Y-65331666D02*
X106748628Y-65664999D01*
X107224819Y-65903094D02*
X106224819Y-65903094D01*
X106224819Y-65903094D02*
X106224819Y-65522142D01*
X106224819Y-65522142D02*
X106272438Y-65426904D01*
X106272438Y-65426904D02*
X106320057Y-65379285D01*
X106320057Y-65379285D02*
X106415295Y-65331666D01*
X106415295Y-65331666D02*
X106558152Y-65331666D01*
X106558152Y-65331666D02*
X106653390Y-65379285D01*
X106653390Y-65379285D02*
X106701009Y-65426904D01*
X106701009Y-65426904D02*
X106748628Y-65522142D01*
X106748628Y-65522142D02*
X106748628Y-65903094D01*
X106224819Y-64426904D02*
X106224819Y-64903094D01*
X106224819Y-64903094D02*
X106701009Y-64950713D01*
X106701009Y-64950713D02*
X106653390Y-64903094D01*
X106653390Y-64903094D02*
X106605771Y-64807856D01*
X106605771Y-64807856D02*
X106605771Y-64569761D01*
X106605771Y-64569761D02*
X106653390Y-64474523D01*
X106653390Y-64474523D02*
X106701009Y-64426904D01*
X106701009Y-64426904D02*
X106796247Y-64379285D01*
X106796247Y-64379285D02*
X107034342Y-64379285D01*
X107034342Y-64379285D02*
X107129580Y-64426904D01*
X107129580Y-64426904D02*
X107177200Y-64474523D01*
X107177200Y-64474523D02*
X107224819Y-64569761D01*
X107224819Y-64569761D02*
X107224819Y-64807856D01*
X107224819Y-64807856D02*
X107177200Y-64903094D01*
X107177200Y-64903094D02*
X107129580Y-64950713D01*
X140916819Y-41282857D02*
X140440628Y-41616190D01*
X140916819Y-41854285D02*
X139916819Y-41854285D01*
X139916819Y-41854285D02*
X139916819Y-41473333D01*
X139916819Y-41473333D02*
X139964438Y-41378095D01*
X139964438Y-41378095D02*
X140012057Y-41330476D01*
X140012057Y-41330476D02*
X140107295Y-41282857D01*
X140107295Y-41282857D02*
X140250152Y-41282857D01*
X140250152Y-41282857D02*
X140345390Y-41330476D01*
X140345390Y-41330476D02*
X140393009Y-41378095D01*
X140393009Y-41378095D02*
X140440628Y-41473333D01*
X140440628Y-41473333D02*
X140440628Y-41854285D01*
X140012057Y-40901904D02*
X139964438Y-40854285D01*
X139964438Y-40854285D02*
X139916819Y-40759047D01*
X139916819Y-40759047D02*
X139916819Y-40520952D01*
X139916819Y-40520952D02*
X139964438Y-40425714D01*
X139964438Y-40425714D02*
X140012057Y-40378095D01*
X140012057Y-40378095D02*
X140107295Y-40330476D01*
X140107295Y-40330476D02*
X140202533Y-40330476D01*
X140202533Y-40330476D02*
X140345390Y-40378095D01*
X140345390Y-40378095D02*
X140916819Y-40949523D01*
X140916819Y-40949523D02*
X140916819Y-40330476D01*
X140916819Y-39378095D02*
X140916819Y-39949523D01*
X140916819Y-39663809D02*
X139916819Y-39663809D01*
X139916819Y-39663809D02*
X140059676Y-39759047D01*
X140059676Y-39759047D02*
X140154914Y-39854285D01*
X140154914Y-39854285D02*
X140202533Y-39949523D01*
X111459580Y-77142857D02*
X111507200Y-77190476D01*
X111507200Y-77190476D02*
X111554819Y-77333333D01*
X111554819Y-77333333D02*
X111554819Y-77428571D01*
X111554819Y-77428571D02*
X111507200Y-77571428D01*
X111507200Y-77571428D02*
X111411961Y-77666666D01*
X111411961Y-77666666D02*
X111316723Y-77714285D01*
X111316723Y-77714285D02*
X111126247Y-77761904D01*
X111126247Y-77761904D02*
X110983390Y-77761904D01*
X110983390Y-77761904D02*
X110792914Y-77714285D01*
X110792914Y-77714285D02*
X110697676Y-77666666D01*
X110697676Y-77666666D02*
X110602438Y-77571428D01*
X110602438Y-77571428D02*
X110554819Y-77428571D01*
X110554819Y-77428571D02*
X110554819Y-77333333D01*
X110554819Y-77333333D02*
X110602438Y-77190476D01*
X110602438Y-77190476D02*
X110650057Y-77142857D01*
X110554819Y-76809523D02*
X110554819Y-76190476D01*
X110554819Y-76190476D02*
X110935771Y-76523809D01*
X110935771Y-76523809D02*
X110935771Y-76380952D01*
X110935771Y-76380952D02*
X110983390Y-76285714D01*
X110983390Y-76285714D02*
X111031009Y-76238095D01*
X111031009Y-76238095D02*
X111126247Y-76190476D01*
X111126247Y-76190476D02*
X111364342Y-76190476D01*
X111364342Y-76190476D02*
X111459580Y-76238095D01*
X111459580Y-76238095D02*
X111507200Y-76285714D01*
X111507200Y-76285714D02*
X111554819Y-76380952D01*
X111554819Y-76380952D02*
X111554819Y-76666666D01*
X111554819Y-76666666D02*
X111507200Y-76761904D01*
X111507200Y-76761904D02*
X111459580Y-76809523D01*
X111554819Y-75238095D02*
X111554819Y-75809523D01*
X111554819Y-75523809D02*
X110554819Y-75523809D01*
X110554819Y-75523809D02*
X110697676Y-75619047D01*
X110697676Y-75619047D02*
X110792914Y-75714285D01*
X110792914Y-75714285D02*
X110840533Y-75809523D01*
X95557142Y-41959580D02*
X95509523Y-42007200D01*
X95509523Y-42007200D02*
X95366666Y-42054819D01*
X95366666Y-42054819D02*
X95271428Y-42054819D01*
X95271428Y-42054819D02*
X95128571Y-42007200D01*
X95128571Y-42007200D02*
X95033333Y-41911961D01*
X95033333Y-41911961D02*
X94985714Y-41816723D01*
X94985714Y-41816723D02*
X94938095Y-41626247D01*
X94938095Y-41626247D02*
X94938095Y-41483390D01*
X94938095Y-41483390D02*
X94985714Y-41292914D01*
X94985714Y-41292914D02*
X95033333Y-41197676D01*
X95033333Y-41197676D02*
X95128571Y-41102438D01*
X95128571Y-41102438D02*
X95271428Y-41054819D01*
X95271428Y-41054819D02*
X95366666Y-41054819D01*
X95366666Y-41054819D02*
X95509523Y-41102438D01*
X95509523Y-41102438D02*
X95557142Y-41150057D01*
X95890476Y-41054819D02*
X96509523Y-41054819D01*
X96509523Y-41054819D02*
X96176190Y-41435771D01*
X96176190Y-41435771D02*
X96319047Y-41435771D01*
X96319047Y-41435771D02*
X96414285Y-41483390D01*
X96414285Y-41483390D02*
X96461904Y-41531009D01*
X96461904Y-41531009D02*
X96509523Y-41626247D01*
X96509523Y-41626247D02*
X96509523Y-41864342D01*
X96509523Y-41864342D02*
X96461904Y-41959580D01*
X96461904Y-41959580D02*
X96414285Y-42007200D01*
X96414285Y-42007200D02*
X96319047Y-42054819D01*
X96319047Y-42054819D02*
X96033333Y-42054819D01*
X96033333Y-42054819D02*
X95938095Y-42007200D01*
X95938095Y-42007200D02*
X95890476Y-41959580D01*
X96842857Y-41054819D02*
X97461904Y-41054819D01*
X97461904Y-41054819D02*
X97128571Y-41435771D01*
X97128571Y-41435771D02*
X97271428Y-41435771D01*
X97271428Y-41435771D02*
X97366666Y-41483390D01*
X97366666Y-41483390D02*
X97414285Y-41531009D01*
X97414285Y-41531009D02*
X97461904Y-41626247D01*
X97461904Y-41626247D02*
X97461904Y-41864342D01*
X97461904Y-41864342D02*
X97414285Y-41959580D01*
X97414285Y-41959580D02*
X97366666Y-42007200D01*
X97366666Y-42007200D02*
X97271428Y-42054819D01*
X97271428Y-42054819D02*
X96985714Y-42054819D01*
X96985714Y-42054819D02*
X96890476Y-42007200D01*
X96890476Y-42007200D02*
X96842857Y-41959580D01*
X145307142Y-62004819D02*
X144973809Y-61528628D01*
X144735714Y-62004819D02*
X144735714Y-61004819D01*
X144735714Y-61004819D02*
X145116666Y-61004819D01*
X145116666Y-61004819D02*
X145211904Y-61052438D01*
X145211904Y-61052438D02*
X145259523Y-61100057D01*
X145259523Y-61100057D02*
X145307142Y-61195295D01*
X145307142Y-61195295D02*
X145307142Y-61338152D01*
X145307142Y-61338152D02*
X145259523Y-61433390D01*
X145259523Y-61433390D02*
X145211904Y-61481009D01*
X145211904Y-61481009D02*
X145116666Y-61528628D01*
X145116666Y-61528628D02*
X144735714Y-61528628D01*
X145640476Y-61004819D02*
X146259523Y-61004819D01*
X146259523Y-61004819D02*
X145926190Y-61385771D01*
X145926190Y-61385771D02*
X146069047Y-61385771D01*
X146069047Y-61385771D02*
X146164285Y-61433390D01*
X146164285Y-61433390D02*
X146211904Y-61481009D01*
X146211904Y-61481009D02*
X146259523Y-61576247D01*
X146259523Y-61576247D02*
X146259523Y-61814342D01*
X146259523Y-61814342D02*
X146211904Y-61909580D01*
X146211904Y-61909580D02*
X146164285Y-61957200D01*
X146164285Y-61957200D02*
X146069047Y-62004819D01*
X146069047Y-62004819D02*
X145783333Y-62004819D01*
X145783333Y-62004819D02*
X145688095Y-61957200D01*
X145688095Y-61957200D02*
X145640476Y-61909580D01*
X147116666Y-61338152D02*
X147116666Y-62004819D01*
X146878571Y-60957200D02*
X146640476Y-61671485D01*
X146640476Y-61671485D02*
X147259523Y-61671485D01*
X140204761Y-65350057D02*
X140109523Y-65302438D01*
X140109523Y-65302438D02*
X140014285Y-65207200D01*
X140014285Y-65207200D02*
X139871428Y-65064342D01*
X139871428Y-65064342D02*
X139776190Y-65016723D01*
X139776190Y-65016723D02*
X139680952Y-65016723D01*
X139728571Y-65254819D02*
X139633333Y-65207200D01*
X139633333Y-65207200D02*
X139538095Y-65111961D01*
X139538095Y-65111961D02*
X139490476Y-64921485D01*
X139490476Y-64921485D02*
X139490476Y-64588152D01*
X139490476Y-64588152D02*
X139538095Y-64397676D01*
X139538095Y-64397676D02*
X139633333Y-64302438D01*
X139633333Y-64302438D02*
X139728571Y-64254819D01*
X139728571Y-64254819D02*
X139919047Y-64254819D01*
X139919047Y-64254819D02*
X140014285Y-64302438D01*
X140014285Y-64302438D02*
X140109523Y-64397676D01*
X140109523Y-64397676D02*
X140157142Y-64588152D01*
X140157142Y-64588152D02*
X140157142Y-64921485D01*
X140157142Y-64921485D02*
X140109523Y-65111961D01*
X140109523Y-65111961D02*
X140014285Y-65207200D01*
X140014285Y-65207200D02*
X139919047Y-65254819D01*
X139919047Y-65254819D02*
X139728571Y-65254819D01*
X140490476Y-64254819D02*
X141157142Y-64254819D01*
X141157142Y-64254819D02*
X140728571Y-65254819D01*
X134779580Y-47942857D02*
X134827200Y-47990476D01*
X134827200Y-47990476D02*
X134874819Y-48133333D01*
X134874819Y-48133333D02*
X134874819Y-48228571D01*
X134874819Y-48228571D02*
X134827200Y-48371428D01*
X134827200Y-48371428D02*
X134731961Y-48466666D01*
X134731961Y-48466666D02*
X134636723Y-48514285D01*
X134636723Y-48514285D02*
X134446247Y-48561904D01*
X134446247Y-48561904D02*
X134303390Y-48561904D01*
X134303390Y-48561904D02*
X134112914Y-48514285D01*
X134112914Y-48514285D02*
X134017676Y-48466666D01*
X134017676Y-48466666D02*
X133922438Y-48371428D01*
X133922438Y-48371428D02*
X133874819Y-48228571D01*
X133874819Y-48228571D02*
X133874819Y-48133333D01*
X133874819Y-48133333D02*
X133922438Y-47990476D01*
X133922438Y-47990476D02*
X133970057Y-47942857D01*
X134874819Y-46990476D02*
X134874819Y-47561904D01*
X134874819Y-47276190D02*
X133874819Y-47276190D01*
X133874819Y-47276190D02*
X134017676Y-47371428D01*
X134017676Y-47371428D02*
X134112914Y-47466666D01*
X134112914Y-47466666D02*
X134160533Y-47561904D01*
X134874819Y-46514285D02*
X134874819Y-46323809D01*
X134874819Y-46323809D02*
X134827200Y-46228571D01*
X134827200Y-46228571D02*
X134779580Y-46180952D01*
X134779580Y-46180952D02*
X134636723Y-46085714D01*
X134636723Y-46085714D02*
X134446247Y-46038095D01*
X134446247Y-46038095D02*
X134065295Y-46038095D01*
X134065295Y-46038095D02*
X133970057Y-46085714D01*
X133970057Y-46085714D02*
X133922438Y-46133333D01*
X133922438Y-46133333D02*
X133874819Y-46228571D01*
X133874819Y-46228571D02*
X133874819Y-46419047D01*
X133874819Y-46419047D02*
X133922438Y-46514285D01*
X133922438Y-46514285D02*
X133970057Y-46561904D01*
X133970057Y-46561904D02*
X134065295Y-46609523D01*
X134065295Y-46609523D02*
X134303390Y-46609523D01*
X134303390Y-46609523D02*
X134398628Y-46561904D01*
X134398628Y-46561904D02*
X134446247Y-46514285D01*
X134446247Y-46514285D02*
X134493866Y-46419047D01*
X134493866Y-46419047D02*
X134493866Y-46228571D01*
X134493866Y-46228571D02*
X134446247Y-46133333D01*
X134446247Y-46133333D02*
X134398628Y-46085714D01*
X134398628Y-46085714D02*
X134303390Y-46038095D01*
X147654819Y-52542857D02*
X147178628Y-52876190D01*
X147654819Y-53114285D02*
X146654819Y-53114285D01*
X146654819Y-53114285D02*
X146654819Y-52733333D01*
X146654819Y-52733333D02*
X146702438Y-52638095D01*
X146702438Y-52638095D02*
X146750057Y-52590476D01*
X146750057Y-52590476D02*
X146845295Y-52542857D01*
X146845295Y-52542857D02*
X146988152Y-52542857D01*
X146988152Y-52542857D02*
X147083390Y-52590476D01*
X147083390Y-52590476D02*
X147131009Y-52638095D01*
X147131009Y-52638095D02*
X147178628Y-52733333D01*
X147178628Y-52733333D02*
X147178628Y-53114285D01*
X147654819Y-51590476D02*
X147654819Y-52161904D01*
X147654819Y-51876190D02*
X146654819Y-51876190D01*
X146654819Y-51876190D02*
X146797676Y-51971428D01*
X146797676Y-51971428D02*
X146892914Y-52066666D01*
X146892914Y-52066666D02*
X146940533Y-52161904D01*
X146654819Y-51257142D02*
X146654819Y-50590476D01*
X146654819Y-50590476D02*
X147654819Y-51019047D01*
X140304819Y-63042857D02*
X139828628Y-63376190D01*
X140304819Y-63614285D02*
X139304819Y-63614285D01*
X139304819Y-63614285D02*
X139304819Y-63233333D01*
X139304819Y-63233333D02*
X139352438Y-63138095D01*
X139352438Y-63138095D02*
X139400057Y-63090476D01*
X139400057Y-63090476D02*
X139495295Y-63042857D01*
X139495295Y-63042857D02*
X139638152Y-63042857D01*
X139638152Y-63042857D02*
X139733390Y-63090476D01*
X139733390Y-63090476D02*
X139781009Y-63138095D01*
X139781009Y-63138095D02*
X139828628Y-63233333D01*
X139828628Y-63233333D02*
X139828628Y-63614285D01*
X139400057Y-62661904D02*
X139352438Y-62614285D01*
X139352438Y-62614285D02*
X139304819Y-62519047D01*
X139304819Y-62519047D02*
X139304819Y-62280952D01*
X139304819Y-62280952D02*
X139352438Y-62185714D01*
X139352438Y-62185714D02*
X139400057Y-62138095D01*
X139400057Y-62138095D02*
X139495295Y-62090476D01*
X139495295Y-62090476D02*
X139590533Y-62090476D01*
X139590533Y-62090476D02*
X139733390Y-62138095D01*
X139733390Y-62138095D02*
X140304819Y-62709523D01*
X140304819Y-62709523D02*
X140304819Y-62090476D01*
X140304819Y-61614285D02*
X140304819Y-61423809D01*
X140304819Y-61423809D02*
X140257200Y-61328571D01*
X140257200Y-61328571D02*
X140209580Y-61280952D01*
X140209580Y-61280952D02*
X140066723Y-61185714D01*
X140066723Y-61185714D02*
X139876247Y-61138095D01*
X139876247Y-61138095D02*
X139495295Y-61138095D01*
X139495295Y-61138095D02*
X139400057Y-61185714D01*
X139400057Y-61185714D02*
X139352438Y-61233333D01*
X139352438Y-61233333D02*
X139304819Y-61328571D01*
X139304819Y-61328571D02*
X139304819Y-61519047D01*
X139304819Y-61519047D02*
X139352438Y-61614285D01*
X139352438Y-61614285D02*
X139400057Y-61661904D01*
X139400057Y-61661904D02*
X139495295Y-61709523D01*
X139495295Y-61709523D02*
X139733390Y-61709523D01*
X139733390Y-61709523D02*
X139828628Y-61661904D01*
X139828628Y-61661904D02*
X139876247Y-61614285D01*
X139876247Y-61614285D02*
X139923866Y-61519047D01*
X139923866Y-61519047D02*
X139923866Y-61328571D01*
X139923866Y-61328571D02*
X139876247Y-61233333D01*
X139876247Y-61233333D02*
X139828628Y-61185714D01*
X139828628Y-61185714D02*
X139733390Y-61138095D01*
D14*
%TO.C,IC1*%
X143000000Y-45062000D02*
X143275000Y-45062000D01*
X143000000Y-45349000D02*
X143000000Y-45062000D01*
X143750000Y-47562000D02*
X143000000Y-47562000D01*
D10*
X145200000Y-44112000D02*
X145200000Y-44112000D01*
X145400000Y-44112000D02*
X145400000Y-44112000D01*
D14*
X145500000Y-45062000D02*
X146000000Y-45062000D01*
X146000000Y-45062000D02*
X146000000Y-45312000D01*
X146000000Y-47562000D02*
X145250000Y-47562000D01*
D10*
X145200000Y-44112000D02*
G75*
G02*
X145400000Y-44112000I100000J0D01*
G01*
X145400000Y-44112000D02*
G75*
G02*
X145200000Y-44112000I-100000J0D01*
G01*
D15*
%TO.C,R8*%
X130977500Y-51245276D02*
X130977500Y-51754724D01*
X132022500Y-51245276D02*
X132022500Y-51754724D01*
%TO.C,RN8*%
X124000000Y-69920000D02*
X125000000Y-69920000D01*
X124000000Y-73280000D02*
X125000000Y-73280000D01*
%TO.C,U2*%
X96840000Y-72040000D02*
X96840000Y-72310000D01*
X96840000Y-77560000D02*
X96840000Y-77290000D01*
X99600000Y-72040000D02*
X96840000Y-72040000D01*
X99600000Y-72040000D02*
X102360000Y-72040000D01*
X99600000Y-77560000D02*
X96840000Y-77560000D01*
X99600000Y-77560000D02*
X102360000Y-77560000D01*
X102360000Y-72040000D02*
X102360000Y-72310000D01*
X102360000Y-77560000D02*
X102360000Y-77290000D01*
X103365000Y-77620000D02*
X102885000Y-77620000D01*
X103125000Y-77290000D01*
X103365000Y-77620000D01*
G36*
X103365000Y-77620000D02*
G01*
X102885000Y-77620000D01*
X103125000Y-77290000D01*
X103365000Y-77620000D01*
G37*
D16*
%TO.C,U4*%
X106451494Y-37508770D02*
X105980660Y-37979605D01*
X107920395Y-39919340D02*
X108391230Y-39448506D01*
X108279605Y-35680660D02*
X107808770Y-36151494D01*
X109748506Y-38091230D02*
X110219340Y-37620395D01*
D17*
G36*
X106956679Y-39566282D02*
G01*
X106777074Y-39745887D01*
X106507666Y-39476479D01*
X106687271Y-39296874D01*
X106956679Y-39566282D01*
G37*
D15*
%TO.C,Q3*%
X92240000Y-66040000D02*
X93760000Y-66040000D01*
X92240000Y-66090000D02*
X92240000Y-66040000D01*
X92240000Y-67990000D02*
X92240000Y-67210000D01*
X92240000Y-69160000D02*
X92240000Y-69110000D01*
X93760000Y-66040000D02*
X93760000Y-67040000D01*
X93760000Y-68160000D02*
X93760000Y-69160000D01*
X93760000Y-69160000D02*
X92240000Y-69160000D01*
X91940000Y-67550000D02*
X91460000Y-67550000D01*
X91700000Y-67220000D01*
X91940000Y-67550000D01*
G36*
X91940000Y-67550000D02*
G01*
X91460000Y-67550000D01*
X91700000Y-67220000D01*
X91940000Y-67550000D01*
G37*
D14*
%TO.C,Y1*%
X105050000Y-46400000D02*
X105050000Y-46400000D01*
X105050000Y-46500000D02*
X105050000Y-46500000D01*
D10*
X106000000Y-43350000D02*
X106400000Y-43350000D01*
X106000000Y-45850000D02*
X106400000Y-45850000D01*
D14*
X105050000Y-46400000D02*
G75*
G02*
X105050000Y-46500000I0J-50000D01*
G01*
X105050000Y-46500000D02*
G75*
G02*
X105050000Y-46400000I0J50000D01*
G01*
D15*
%TO.C,R10*%
X86977500Y-65745276D02*
X86977500Y-66254724D01*
X88022500Y-65745276D02*
X88022500Y-66254724D01*
%TO.C,J9*%
X151540000Y-44580000D02*
X152920000Y-44580000D01*
X151540000Y-45960000D02*
X151540000Y-44580000D01*
X151540000Y-47230000D02*
X151540000Y-52420000D01*
X151540000Y-47230000D02*
X154190000Y-47230000D01*
X151540000Y-52420000D02*
X156840000Y-52420000D01*
X154190000Y-44580000D02*
X156840000Y-44580000D01*
X154190000Y-47230000D02*
X154190000Y-44580000D01*
X156840000Y-44580000D02*
X156840000Y-52420000D01*
%TO.C,C27*%
X122378732Y-34234300D02*
X122671266Y-34234300D01*
X122378732Y-35254300D02*
X122671266Y-35254300D01*
%TO.C,R45*%
X80652500Y-50632776D02*
X80652500Y-51142224D01*
X81697500Y-50632776D02*
X81697500Y-51142224D01*
%TO.C,C38*%
X114341233Y-35265000D02*
X114633767Y-35265000D01*
X114341233Y-36285000D02*
X114633767Y-36285000D01*
%TO.C,C35*%
X100527500Y-37203733D02*
X100527500Y-37496267D01*
X101547500Y-37203733D02*
X101547500Y-37496267D01*
%TO.C,C16*%
X109290000Y-44683767D02*
X109290000Y-44391233D01*
X110310000Y-44683767D02*
X110310000Y-44391233D01*
%TO.C,R9*%
X126432776Y-63577500D02*
X126942224Y-63577500D01*
X126432776Y-64622500D02*
X126942224Y-64622500D01*
%TO.C,RN10*%
X76752500Y-56120000D02*
X77752500Y-56120000D01*
X76752500Y-59480000D02*
X77752500Y-59480000D01*
D17*
%TO.C,G\u002A\u002A\u002A*%
G36*
X92503507Y-46549995D02*
G01*
X92461731Y-46591771D01*
X92419954Y-46549995D01*
X92461731Y-46508218D01*
X92503507Y-46549995D01*
G37*
G36*
X92057847Y-47472422D02*
G01*
X92070667Y-47615291D01*
X91987656Y-47772512D01*
X91878006Y-47803284D01*
X91735188Y-47741861D01*
X91674697Y-47607348D01*
X91720794Y-47485888D01*
X91845940Y-47436114D01*
X91938375Y-47427297D01*
X92057847Y-47472422D01*
G37*
G36*
X92976926Y-48475053D02*
G01*
X92989746Y-48617922D01*
X92906734Y-48775144D01*
X92797085Y-48805916D01*
X92654267Y-48744492D01*
X92593776Y-48609980D01*
X92639873Y-48488519D01*
X92765019Y-48438746D01*
X92857454Y-48429929D01*
X92976926Y-48475053D01*
G37*
G36*
X93603892Y-47608603D02*
G01*
X93765946Y-47689850D01*
X93798573Y-47803284D01*
X93744886Y-47941284D01*
X93625093Y-47976586D01*
X93501095Y-47913908D01*
X93436786Y-47775709D01*
X93443280Y-47632454D01*
X93551869Y-47602737D01*
X93603892Y-47608603D01*
G37*
G36*
X93938102Y-46438866D02*
G01*
X94100157Y-46520113D01*
X94132783Y-46633547D01*
X94079096Y-46771547D01*
X93959304Y-46806849D01*
X93835306Y-46744171D01*
X93770997Y-46605972D01*
X93777491Y-46462717D01*
X93886080Y-46433000D01*
X93938102Y-46438866D01*
G37*
G36*
X92937981Y-46658613D02*
G01*
X92991600Y-46800818D01*
X92935125Y-46937927D01*
X92803783Y-46996911D01*
X92776265Y-46993862D01*
X92642985Y-46907631D01*
X92604207Y-46766041D01*
X92672728Y-46642913D01*
X92711830Y-46622200D01*
X92875096Y-46621237D01*
X92937981Y-46658613D01*
G37*
G36*
X94049254Y-45034757D02*
G01*
X94107717Y-45071113D01*
X94162554Y-45216888D01*
X94094607Y-45355598D01*
X93937669Y-45421797D01*
X93926524Y-45422034D01*
X93796223Y-45360966D01*
X93754422Y-45225379D01*
X93808227Y-45086698D01*
X93887741Y-45032331D01*
X94049254Y-45034757D01*
G37*
G36*
X92239317Y-47039740D02*
G01*
X92515029Y-47124854D01*
X92547578Y-47144050D01*
X92747279Y-47225928D01*
X92899737Y-47223805D01*
X92886875Y-47263442D01*
X92769714Y-47404746D01*
X92562816Y-47631924D01*
X92280742Y-47929184D01*
X91938055Y-48280735D01*
X91752544Y-48467907D01*
X91372874Y-48846545D01*
X91032134Y-49181712D01*
X90748032Y-49456370D01*
X90538274Y-49653482D01*
X90420568Y-49756008D01*
X90402668Y-49766771D01*
X90333208Y-49691848D01*
X90253842Y-49498468D01*
X90177481Y-49233714D01*
X90117039Y-48944669D01*
X90085426Y-48678415D01*
X90083526Y-48603038D01*
X90102322Y-48347622D01*
X90180055Y-48178631D01*
X90356514Y-48016484D01*
X90389414Y-47991278D01*
X90729144Y-47815537D01*
X91099091Y-47755870D01*
X91445769Y-47815316D01*
X91634907Y-47920531D01*
X91876997Y-48031774D01*
X92101217Y-47995873D01*
X92260124Y-47831468D01*
X92305887Y-47589706D01*
X92210725Y-47365393D01*
X92076929Y-47255475D01*
X91896862Y-47210034D01*
X91713892Y-47231457D01*
X91597123Y-47306569D01*
X91584428Y-47349375D01*
X91510711Y-47399890D01*
X91328372Y-47426217D01*
X91277429Y-47427297D01*
X90970431Y-47427297D01*
X91166665Y-47218416D01*
X91309518Y-47095496D01*
X91479369Y-47032282D01*
X91735752Y-47010642D01*
X91852590Y-47009534D01*
X92239317Y-47039740D01*
G37*
G36*
X92252554Y-40941830D02*
G01*
X92645119Y-41148079D01*
X92982029Y-41481833D01*
X93188947Y-41830945D01*
X93312875Y-42061338D01*
X93429120Y-42212439D01*
X93488090Y-42247034D01*
X93679538Y-42297576D01*
X93937990Y-42427068D01*
X94206568Y-42602309D01*
X94428395Y-42790101D01*
X94441180Y-42803363D01*
X94759919Y-43257400D01*
X94953093Y-43799175D01*
X95008251Y-44302012D01*
X95023540Y-44623296D01*
X95074289Y-44826234D01*
X95169465Y-44955503D01*
X95338465Y-45178179D01*
X95501878Y-45512261D01*
X95637229Y-45902904D01*
X95722047Y-46295263D01*
X95723827Y-46308376D01*
X95724018Y-46810909D01*
X95614458Y-47354026D01*
X95412921Y-47870323D01*
X95232556Y-48171485D01*
X94878113Y-48557051D01*
X94447753Y-48857657D01*
X93991039Y-49041970D01*
X93799213Y-49077631D01*
X93581969Y-49110799D01*
X93443199Y-49175420D01*
X93335119Y-49311287D01*
X93209948Y-49558192D01*
X93202006Y-49574966D01*
X92917916Y-50014001D01*
X92545498Y-50342624D01*
X92114732Y-50536228D01*
X92001009Y-50560721D01*
X91754486Y-50575651D01*
X91499685Y-50521936D01*
X91200192Y-50400387D01*
X90990654Y-50304307D01*
X90859850Y-50225457D01*
X90813877Y-50138858D01*
X90858832Y-50019528D01*
X91000813Y-49842488D01*
X91245916Y-49582756D01*
X91451707Y-49369896D01*
X91776892Y-49062751D01*
X92042334Y-48888803D01*
X92274413Y-48838044D01*
X92499504Y-48900465D01*
X92575583Y-48943468D01*
X92788053Y-49000334D01*
X93013330Y-48956681D01*
X93179634Y-48832376D01*
X93212764Y-48767101D01*
X93210463Y-48529539D01*
X93079121Y-48323454D01*
X92877659Y-48213121D01*
X92740511Y-48150336D01*
X92717897Y-48086806D01*
X92846415Y-48020893D01*
X93065627Y-48026865D01*
X93317356Y-48100711D01*
X93385438Y-48132846D01*
X93652499Y-48199035D01*
X93874637Y-48106661D01*
X93995666Y-47947586D01*
X94029610Y-47740004D01*
X93949022Y-47543899D01*
X93793168Y-47401955D01*
X93601316Y-47356851D01*
X93485998Y-47393601D01*
X93465052Y-47381740D01*
X93543001Y-47277248D01*
X93580948Y-47234464D01*
X93731037Y-47100615D01*
X93841712Y-47055274D01*
X93853242Y-47059279D01*
X94025750Y-47086709D01*
X94187906Y-46991185D01*
X94307298Y-46815394D01*
X94351514Y-46602024D01*
X94317843Y-46447392D01*
X94162856Y-46263349D01*
X93955079Y-46203877D01*
X93745403Y-46262497D01*
X93584718Y-46432730D01*
X93541387Y-46546257D01*
X93437417Y-46765383D01*
X93337330Y-46885747D01*
X93227042Y-46976475D01*
X93207199Y-46943895D01*
X93227240Y-46857845D01*
X93203852Y-46663443D01*
X93071635Y-46488982D01*
X92884301Y-46386242D01*
X92739428Y-46387567D01*
X92618252Y-46403562D01*
X92623304Y-46350065D01*
X92739714Y-46285058D01*
X92940326Y-46257566D01*
X92943111Y-46257561D01*
X93213962Y-46190935D01*
X93481703Y-45990095D01*
X93714542Y-45801913D01*
X93957405Y-45660035D01*
X94020156Y-45634997D01*
X94267802Y-45493507D01*
X94368668Y-45299215D01*
X94314966Y-45078460D01*
X94220134Y-44958697D01*
X93995995Y-44819233D01*
X93784133Y-44838429D01*
X93611165Y-45008458D01*
X93544222Y-45157473D01*
X93389754Y-45467676D01*
X93174108Y-45708458D01*
X92934892Y-45845478D01*
X92773503Y-45861254D01*
X92605432Y-45870306D01*
X92432684Y-45966232D01*
X92215004Y-46168386D01*
X91985100Y-46379144D01*
X91792004Y-46482140D01*
X91590324Y-46508218D01*
X91437937Y-46523660D01*
X91289546Y-46584420D01*
X91112794Y-46712151D01*
X90875324Y-46928505D01*
X90688202Y-47111884D01*
X90080481Y-47715549D01*
X90089033Y-45085733D01*
X90093050Y-44427490D01*
X90100359Y-43813464D01*
X90110418Y-43266209D01*
X90122680Y-42808274D01*
X90136601Y-42462212D01*
X90151637Y-42250574D01*
X90158608Y-42205258D01*
X90348777Y-41712731D01*
X90636528Y-41328780D01*
X90996320Y-41056560D01*
X91402615Y-40899225D01*
X91829873Y-40859930D01*
X92252554Y-40941830D01*
G37*
D15*
%TO.C,C2*%
X102946267Y-64277500D02*
X102653733Y-64277500D01*
X102946267Y-65297500D02*
X102653733Y-65297500D01*
%TO.C,R19*%
X135377500Y-59454724D02*
X135377500Y-58945276D01*
X136422500Y-59454724D02*
X136422500Y-58945276D01*
%TO.C,Q5*%
X137185000Y-57914000D02*
X138185000Y-57914000D01*
X137185000Y-59434000D02*
X137185000Y-57914000D01*
X137235000Y-59434000D02*
X137185000Y-59434000D01*
X139135000Y-59434000D02*
X138355000Y-59434000D01*
X139305000Y-57914000D02*
X140305000Y-57914000D01*
X140305000Y-57914000D02*
X140305000Y-59434000D01*
X140305000Y-59434000D02*
X140255000Y-59434000D01*
X138695000Y-60214000D02*
X138365000Y-59974000D01*
X138695000Y-59734000D01*
X138695000Y-60214000D01*
G36*
X138695000Y-60214000D02*
G01*
X138365000Y-59974000D01*
X138695000Y-59734000D01*
X138695000Y-60214000D01*
G37*
%TO.C,RN6*%
X113200000Y-70120000D02*
X114200000Y-70120000D01*
X113200000Y-73480000D02*
X114200000Y-73480000D01*
%TO.C,R15*%
X146049276Y-62469500D02*
X146558724Y-62469500D01*
X146049276Y-63514500D02*
X146558724Y-63514500D01*
D13*
%TO.C,Q11*%
X145558000Y-65518000D02*
X147558000Y-65518000D01*
X145558000Y-65558000D02*
X145558000Y-65518000D01*
X145558000Y-67618000D02*
X145558000Y-67568000D01*
X147558000Y-65558000D02*
X147558000Y-65518000D01*
X147558000Y-67618000D02*
X145558000Y-67618000D01*
X147558000Y-67618000D02*
X147558000Y-67568000D01*
X147938000Y-67668000D02*
G75*
G02*
X147778000Y-67668000I-80000J0D01*
G01*
X147778000Y-67668000D02*
G75*
G02*
X147938000Y-67668000I80000J0D01*
G01*
D15*
%TO.C,C3*%
X97653733Y-63190000D02*
X97946267Y-63190000D01*
X97653733Y-64210000D02*
X97946267Y-64210000D01*
%TO.C,R32*%
X141717500Y-55753724D02*
X141717500Y-55244276D01*
X142762500Y-55753724D02*
X142762500Y-55244276D01*
%TO.C,C1*%
X102933767Y-65790000D02*
X102641233Y-65790000D01*
X102933767Y-66810000D02*
X102641233Y-66810000D01*
%TO.C,U7*%
X134440000Y-50440000D02*
X138560000Y-50440000D01*
X134440000Y-50535000D02*
X134440000Y-50440000D01*
X134440000Y-55560000D02*
X134440000Y-55465000D01*
X138560000Y-50440000D02*
X138560000Y-50535000D01*
X138560000Y-55465000D02*
X138560000Y-55560000D01*
X138560000Y-55560000D02*
X134440000Y-55560000D01*
X133900000Y-50530000D02*
X133660000Y-50200000D01*
X134140000Y-50200000D01*
X133900000Y-50530000D01*
G36*
X133900000Y-50530000D02*
G01*
X133660000Y-50200000D01*
X134140000Y-50200000D01*
X133900000Y-50530000D01*
G37*
D13*
%TO.C,Q4*%
X129920000Y-53460000D02*
X131680000Y-53460000D01*
X129920000Y-55460000D02*
X129920000Y-54540000D01*
X129920000Y-56540000D02*
X131680000Y-56540000D01*
X131680000Y-53460000D02*
X131680000Y-54510000D01*
X131680000Y-56540000D02*
X131680000Y-55490000D01*
D15*
%TO.C,R30*%
X138937276Y-65644500D02*
X139446724Y-65644500D01*
X138937276Y-66689500D02*
X139446724Y-66689500D01*
D13*
%TO.C,Q10*%
X145542000Y-75008000D02*
X147542000Y-75008000D01*
X145542000Y-75048000D02*
X145542000Y-75008000D01*
X145542000Y-77108000D02*
X145542000Y-77058000D01*
X147542000Y-75048000D02*
X147542000Y-75008000D01*
X147542000Y-77108000D02*
X145542000Y-77108000D01*
X147542000Y-77108000D02*
X147542000Y-77058000D01*
X147922000Y-77158000D02*
G75*
G02*
X147762000Y-77158000I-80000J0D01*
G01*
X147762000Y-77158000D02*
G75*
G02*
X147922000Y-77158000I80000J0D01*
G01*
D15*
%TO.C,R40*%
X111077500Y-68154724D02*
X111077500Y-67645276D01*
X112122500Y-68154724D02*
X112122500Y-67645276D01*
%TO.C,J10*%
X156620000Y-44580000D02*
X158000000Y-44580000D01*
X156620000Y-45960000D02*
X156620000Y-44580000D01*
X156620000Y-47230000D02*
X156620000Y-52420000D01*
X156620000Y-47230000D02*
X159270000Y-47230000D01*
X156620000Y-52420000D02*
X161920000Y-52420000D01*
X159270000Y-44580000D02*
X161920000Y-44580000D01*
X159270000Y-47230000D02*
X159270000Y-44580000D01*
X161920000Y-44580000D02*
X161920000Y-52420000D01*
%TO.C,R14*%
X143622500Y-75310276D02*
X143622500Y-75819724D01*
X144667500Y-75310276D02*
X144667500Y-75819724D01*
%TO.C,R23*%
X147702500Y-43170276D02*
X147702500Y-43679724D01*
X148747500Y-43170276D02*
X148747500Y-43679724D01*
%TO.C,R11*%
X88477500Y-66254724D02*
X88477500Y-65745276D01*
X89522500Y-66254724D02*
X89522500Y-65745276D01*
%TO.C,R6*%
X104702500Y-67507776D02*
X104702500Y-68017224D01*
X105747500Y-67507776D02*
X105747500Y-68017224D01*
%TO.C,U1*%
X100690000Y-52265000D02*
X100690000Y-53215000D01*
X100690000Y-62485000D02*
X100690000Y-61535000D01*
X101640000Y-52265000D02*
X100690000Y-52265000D01*
X101640000Y-62485000D02*
X100690000Y-62485000D01*
X109960000Y-52265000D02*
X110910000Y-52265000D01*
X109960000Y-62485000D02*
X110610000Y-62485000D01*
X110910000Y-52265000D02*
X110910000Y-53215000D01*
X110910000Y-61535000D02*
X110910000Y-62245000D01*
X111150000Y-62815000D02*
X110670000Y-62815000D01*
X110910000Y-62485000D01*
X111150000Y-62815000D01*
G36*
X111150000Y-62815000D02*
G01*
X110670000Y-62815000D01*
X110910000Y-62485000D01*
X111150000Y-62815000D01*
G37*
%TO.C,R46*%
X75054724Y-46677500D02*
X74545276Y-46677500D01*
X75054724Y-47722500D02*
X74545276Y-47722500D01*
%TO.C,C32*%
X107590000Y-76353733D02*
X107590000Y-76646267D01*
X108610000Y-76353733D02*
X108610000Y-76646267D01*
%TO.C,R27*%
X145908500Y-69341276D02*
X145908500Y-69850724D01*
X146953500Y-69341276D02*
X146953500Y-69850724D01*
%TO.C,RN9*%
X115320000Y-68400000D02*
X115320000Y-67400000D01*
X118680000Y-68400000D02*
X118680000Y-67400000D01*
%TO.C,L1*%
D18*
X104525000Y-69800000D02*
G75*
G02*
X104175000Y-69800000I-175000J0D01*
G01*
X104175000Y-69800000D02*
G75*
G02*
X104525000Y-69800000I175000J0D01*
G01*
D15*
%TO.C,R22*%
X138227500Y-43595276D02*
X138227500Y-44104724D01*
X139272500Y-43595276D02*
X139272500Y-44104724D01*
%TO.C,R26*%
X126445276Y-61977500D02*
X126954724Y-61977500D01*
X126445276Y-63022500D02*
X126954724Y-63022500D01*
D14*
%TO.C,D2*%
X149250000Y-47850000D02*
X149250000Y-48750000D01*
X149250000Y-48750000D02*
X149750000Y-48750000D01*
X149750000Y-47850000D02*
X149250000Y-47850000D01*
D15*
%TO.C,J11*%
X148530000Y-54320000D02*
X163270000Y-54320000D01*
X148530000Y-77060000D02*
X148530000Y-54320000D01*
X163270000Y-54320000D02*
X163270000Y-74200000D01*
X163270000Y-74800000D02*
X163270000Y-77060000D01*
X163270000Y-77060000D02*
X148530000Y-77060000D01*
X163880000Y-74940000D02*
X163270000Y-74500000D01*
X163880000Y-74060000D01*
X163880000Y-74940000D01*
G36*
X163880000Y-74940000D02*
G01*
X163270000Y-74500000D01*
X163880000Y-74060000D01*
X163880000Y-74940000D01*
G37*
%TO.C,C18*%
X136890000Y-47446267D02*
X136890000Y-47153733D01*
X137910000Y-47446267D02*
X137910000Y-47153733D01*
%TO.C,U11*%
X113280000Y-37115000D02*
X113280000Y-36920000D01*
X113290000Y-38910000D02*
X113290000Y-38485000D01*
X113465000Y-38910000D02*
X113290000Y-38910000D01*
X115335000Y-36690000D02*
X115510000Y-36690000D01*
X115335000Y-38910000D02*
X115510000Y-38910000D01*
X115510000Y-36690000D02*
X115510000Y-37115000D01*
X115510000Y-38910000D02*
X115510000Y-38485000D01*
X113280000Y-36680000D02*
X113140000Y-36490000D01*
X113420000Y-36490000D01*
X113280000Y-36680000D01*
G36*
X113280000Y-36680000D02*
G01*
X113140000Y-36490000D01*
X113420000Y-36490000D01*
X113280000Y-36680000D01*
G37*
%TO.C,C34*%
X96646267Y-35290000D02*
X96353733Y-35290000D01*
X96646267Y-36310000D02*
X96353733Y-36310000D01*
%TO.C,R3*%
X106102500Y-75495276D02*
X106102500Y-76004724D01*
X107147500Y-75495276D02*
X107147500Y-76004724D01*
%TO.C,C36*%
X98527500Y-37496267D02*
X98527500Y-37203733D01*
X99547500Y-37496267D02*
X99547500Y-37203733D01*
%TO.C,R31*%
X139064276Y-67295500D02*
X139573724Y-67295500D01*
X139064276Y-68340500D02*
X139573724Y-68340500D01*
%TO.C,R4*%
X104954724Y-47277500D02*
X104445276Y-47277500D01*
X104954724Y-48322500D02*
X104445276Y-48322500D01*
%TO.C,C30*%
X105935949Y-35142802D02*
X106142802Y-34935949D01*
X106657198Y-35864051D02*
X106864051Y-35657198D01*
%TO.C,C17*%
X102090000Y-44453733D02*
X102090000Y-44746267D01*
X103110000Y-44453733D02*
X103110000Y-44746267D01*
%TO.C,RN7*%
X119720000Y-68400000D02*
X119720000Y-67400000D01*
X123080000Y-68400000D02*
X123080000Y-67400000D01*
D14*
%TO.C,D1*%
X149268500Y-46750000D02*
X149268500Y-47650000D01*
X149268500Y-47650000D02*
X149768500Y-47650000D01*
X149768500Y-46750000D02*
X149268500Y-46750000D01*
D15*
%TO.C,R1*%
X98054724Y-64677500D02*
X97545276Y-64677500D01*
X98054724Y-65722500D02*
X97545276Y-65722500D01*
D16*
%TO.C,U5*%
X120874400Y-38771600D02*
X121540261Y-38771600D01*
X121540261Y-36028400D02*
X120874400Y-36028400D01*
X123459739Y-38771600D02*
X124125600Y-38771600D01*
X124125600Y-36028400D02*
X123459739Y-36028400D01*
D17*
G36*
X120442600Y-37840500D02*
G01*
X120188600Y-37840500D01*
X120188600Y-37459499D01*
X120442600Y-37459499D01*
X120442600Y-37840500D01*
G37*
D15*
%TO.C,R16*%
X146535224Y-64120500D02*
X146025776Y-64120500D01*
X146535224Y-65165500D02*
X146025776Y-65165500D01*
%TO.C,Q2*%
X143159000Y-54436500D02*
X144159000Y-54436500D01*
X143159000Y-55956500D02*
X143159000Y-54436500D01*
X143209000Y-55956500D02*
X143159000Y-55956500D01*
X145109000Y-55956500D02*
X144329000Y-55956500D01*
X145279000Y-54436500D02*
X146279000Y-54436500D01*
X146279000Y-54436500D02*
X146279000Y-55956500D01*
X146279000Y-55956500D02*
X146229000Y-55956500D01*
X144669000Y-56736500D02*
X144339000Y-56496500D01*
X144669000Y-56256500D01*
X144669000Y-56736500D01*
G36*
X144669000Y-56736500D02*
G01*
X144339000Y-56496500D01*
X144669000Y-56256500D01*
X144669000Y-56736500D01*
G37*
%TO.C,C21*%
X139990000Y-47153733D02*
X139990000Y-47446267D01*
X141010000Y-47153733D02*
X141010000Y-47446267D01*
%TO.C,Q6*%
X143893000Y-70449000D02*
X145413000Y-70449000D01*
X143893000Y-70499000D02*
X143893000Y-70449000D01*
X143893000Y-72399000D02*
X143893000Y-71619000D01*
X143893000Y-73569000D02*
X143893000Y-73519000D01*
X145413000Y-70449000D02*
X145413000Y-71449000D01*
X145413000Y-72569000D02*
X145413000Y-73569000D01*
X145413000Y-73569000D02*
X143893000Y-73569000D01*
X143593000Y-71959000D02*
X143113000Y-71959000D01*
X143353000Y-71629000D01*
X143593000Y-71959000D01*
G36*
X143593000Y-71959000D02*
G01*
X143113000Y-71959000D01*
X143353000Y-71629000D01*
X143593000Y-71959000D01*
G37*
%TO.C,R18*%
X133677500Y-59454724D02*
X133677500Y-58945276D01*
X134722500Y-59454724D02*
X134722500Y-58945276D01*
%TO.C,R13*%
X140727500Y-59454724D02*
X140727500Y-58945276D01*
X141772500Y-59454724D02*
X141772500Y-58945276D01*
D13*
%TO.C,Q1*%
X127100000Y-37825000D02*
X127100000Y-44075000D01*
X127100000Y-44075000D02*
X133850000Y-44075000D01*
X127810000Y-44075000D02*
X127810000Y-44625000D01*
X127810000Y-44625000D02*
X128550000Y-44625000D01*
X128550000Y-44075000D02*
X128540000Y-44075000D01*
X128550000Y-44625000D02*
X128550000Y-44075000D01*
X132360000Y-44075000D02*
X132360000Y-44625000D01*
X132360000Y-44625000D02*
X133100000Y-44625000D01*
X133100000Y-44075000D02*
X133090000Y-44075000D01*
X133100000Y-44625000D02*
X133100000Y-44075000D01*
X133850000Y-37825000D02*
X133850000Y-44075000D01*
D19*
X127150000Y-44585000D02*
G75*
G02*
X127149749Y-44574986I-200000J-3D01*
G01*
D15*
%TO.C,R2*%
X90827500Y-75470276D02*
X90827500Y-75979724D01*
X91872500Y-75470276D02*
X91872500Y-75979724D01*
%TO.C,U8*%
X95437500Y-36750000D02*
X95437500Y-36750000D01*
X95437500Y-37250000D02*
X95437500Y-36950000D01*
X95437500Y-38450000D02*
X95437500Y-38450000D01*
X95437500Y-38950000D02*
X95437500Y-38450000D01*
X95937500Y-36750000D02*
X95637500Y-36750000D01*
X95937500Y-38950000D02*
X95437500Y-38950000D01*
X97137500Y-36750000D02*
X97637500Y-36750000D01*
X97137500Y-38950000D02*
X97137500Y-38950000D01*
X97637500Y-36750000D02*
X97637500Y-37250000D01*
X97637500Y-37250000D02*
X97637500Y-37250000D01*
X97637500Y-38450000D02*
X97637500Y-38950000D01*
X97637500Y-38950000D02*
X97137500Y-38950000D01*
X95437500Y-36750000D02*
X95077500Y-36750000D01*
X95437500Y-36390000D01*
X95437500Y-36750000D01*
G36*
X95437500Y-36750000D02*
G01*
X95077500Y-36750000D01*
X95437500Y-36390000D01*
X95437500Y-36750000D01*
G37*
%TO.C,C4*%
X92490000Y-75846267D02*
X92490000Y-75553733D01*
X93510000Y-75846267D02*
X93510000Y-75553733D01*
%TO.C,R20*%
X147777500Y-46945276D02*
X147777500Y-47454724D01*
X148822500Y-46945276D02*
X148822500Y-47454724D01*
%TO.C,R12*%
X146797500Y-72770276D02*
X146797500Y-73279724D01*
X147842500Y-72770276D02*
X147842500Y-73279724D01*
%TO.C,L2*%
X144288748Y-49190000D02*
X144811252Y-49190000D01*
X144288748Y-51410000D02*
X144811252Y-51410000D01*
%TO.C,R42*%
X145795276Y-34727500D02*
X146304724Y-34727500D01*
X145795276Y-35772500D02*
X146304724Y-35772500D01*
D13*
%TO.C,Q12*%
X145909000Y-59674000D02*
X145909000Y-57674000D01*
X145949000Y-57674000D02*
X145909000Y-57674000D01*
X145949000Y-59674000D02*
X145909000Y-59674000D01*
X148009000Y-57674000D02*
X147959000Y-57674000D01*
X148009000Y-57674000D02*
X148009000Y-59674000D01*
X148009000Y-59674000D02*
X147959000Y-59674000D01*
X148139000Y-57374000D02*
G75*
G02*
X147979000Y-57374000I-80000J0D01*
G01*
X147979000Y-57374000D02*
G75*
G02*
X148139000Y-57374000I80000J0D01*
G01*
D15*
%TO.C,C22*%
X138440000Y-47446267D02*
X138440000Y-47153733D01*
X139460000Y-47446267D02*
X139460000Y-47153733D01*
%TO.C,C29*%
X103742802Y-37335949D02*
X103535949Y-37542802D01*
X104464051Y-38057198D02*
X104257198Y-38264051D01*
%TO.C,R41*%
X146304724Y-36277500D02*
X145795276Y-36277500D01*
X146304724Y-37322500D02*
X145795276Y-37322500D01*
%TO.C,C20*%
X144353733Y-41540000D02*
X144646267Y-41540000D01*
X144353733Y-42560000D02*
X144646267Y-42560000D01*
%TO.C,R33*%
X142987500Y-59182724D02*
X142987500Y-58673276D01*
X144032500Y-59182724D02*
X144032500Y-58673276D01*
%TO.C,TP2*%
X91675000Y-34750000D02*
X94075000Y-34750000D01*
X91675000Y-37150000D02*
X91675000Y-34750000D01*
X94075000Y-34750000D02*
X94075000Y-37150000D01*
X94075000Y-37150000D02*
X91675000Y-37150000D01*
%TO.C,R28*%
X141427500Y-69345276D02*
X141427500Y-69854724D01*
X142472500Y-69345276D02*
X142472500Y-69854724D01*
%TO.C,C28*%
X118890001Y-37726967D02*
X118890001Y-37434433D01*
X119910001Y-37726967D02*
X119910001Y-37434433D01*
%TO.C,R5*%
X106277500Y-67507776D02*
X106277500Y-68017224D01*
X107322500Y-67507776D02*
X107322500Y-68017224D01*
%TO.C,R21*%
X139977500Y-44104724D02*
X139977500Y-43595276D01*
X141022500Y-44104724D02*
X141022500Y-43595276D01*
%TO.C,C31*%
X109090000Y-76646267D02*
X109090000Y-76353733D01*
X110110000Y-76646267D02*
X110110000Y-76353733D01*
%TO.C,C33*%
X96053733Y-39590000D02*
X96346267Y-39590000D01*
X96053733Y-40610000D02*
X96346267Y-40610000D01*
%TO.C,R34*%
X144511500Y-58673276D02*
X144511500Y-59182724D01*
X145556500Y-58673276D02*
X145556500Y-59182724D01*
%TO.C,Q7*%
X141254000Y-65153000D02*
X142254000Y-65153000D01*
X141254000Y-66673000D02*
X141254000Y-65153000D01*
X141304000Y-66673000D02*
X141254000Y-66673000D01*
X143204000Y-66673000D02*
X142424000Y-66673000D01*
X143374000Y-65153000D02*
X144374000Y-65153000D01*
X144374000Y-65153000D02*
X144374000Y-66673000D01*
X144374000Y-66673000D02*
X144324000Y-66673000D01*
X142764000Y-67453000D02*
X142434000Y-67213000D01*
X142764000Y-66973000D01*
X142764000Y-67453000D01*
G36*
X142764000Y-67453000D02*
G01*
X142434000Y-67213000D01*
X142764000Y-66973000D01*
X142764000Y-67453000D01*
G37*
%TO.C,C19*%
X135340000Y-47446267D02*
X135340000Y-47153733D01*
X136360000Y-47446267D02*
X136360000Y-47153733D01*
%TO.C,R17*%
X146670500Y-54863276D02*
X146670500Y-55372724D01*
X147715500Y-54863276D02*
X147715500Y-55372724D01*
%TO.C,R29*%
X140701500Y-62865724D02*
X140701500Y-62356276D01*
X141746500Y-62865724D02*
X141746500Y-62356276D01*
D20*
%TO.C,J8*%
X151645452Y-43134900D02*
G75*
G02*
X150883452Y-43134900I-381000J0D01*
G01*
X150883452Y-43134900D02*
G75*
G02*
X151645452Y-43134900I381000J0D01*
G01*
%TD*%
M02*
