%TF.GenerationSoftware,KiCad,Pcbnew,9.0.7*%
%TF.CreationDate,2026-03-14T17:34:59+01:00*%
%TF.ProjectId,TABv1,54414276-312e-46b6-9963-61645f706362,rev?*%
%TF.SameCoordinates,Original*%
%TF.FileFunction,Paste,Bot*%
%TF.FilePolarity,Positive*%
%FSLAX46Y46*%
G04 Gerber Fmt 4.6, Leading zero omitted, Abs format (unit mm)*
G04 Created by KiCad (PCBNEW 9.0.7) date 2026-03-14 17:34:59*
%MOMM*%
%LPD*%
G01*
G04 APERTURE LIST*
G04 Aperture macros list*
%AMRoundRect*
0 Rectangle with rounded corners*
0 $1 Rounding radius*
0 $2 $3 $4 $5 $6 $7 $8 $9 X,Y pos of 4 corners*
0 Add a 4 corners polygon primitive as box body*
4,1,4,$2,$3,$4,$5,$6,$7,$8,$9,$2,$3,0*
0 Add four circle primitives for the rounded corners*
1,1,$1+$1,$2,$3*
1,1,$1+$1,$4,$5*
1,1,$1+$1,$6,$7*
1,1,$1+$1,$8,$9*
0 Add four rect primitives between the rounded corners*
20,1,$1+$1,$2,$3,$4,$5,0*
20,1,$1+$1,$4,$5,$6,$7,0*
20,1,$1+$1,$6,$7,$8,$9,0*
20,1,$1+$1,$8,$9,$2,$3,0*%
G04 Aperture macros list end*
%ADD10RoundRect,0.218750X0.218750X0.256250X-0.218750X0.256250X-0.218750X-0.256250X0.218750X-0.256250X0*%
%ADD11R,0.700000X1.100000*%
%ADD12R,0.900000X0.930000*%
%ADD13R,1.050000X0.780000*%
%ADD14R,0.700000X3.330000*%
%ADD15R,0.860000X2.800000*%
%ADD16R,1.140000X1.830000*%
%ADD17RoundRect,0.237500X-0.300000X-0.237500X0.300000X-0.237500X0.300000X0.237500X-0.300000X0.237500X0*%
%ADD18RoundRect,0.180000X-0.770000X-0.420000X0.770000X-0.420000X0.770000X0.420000X-0.770000X0.420000X0*%
%ADD19RoundRect,0.237500X0.237500X-0.250000X0.237500X0.250000X-0.237500X0.250000X-0.237500X-0.250000X0*%
%ADD20RoundRect,0.237500X-0.237500X0.300000X-0.237500X-0.300000X0.237500X-0.300000X0.237500X0.300000X0*%
%ADD21RoundRect,0.237500X0.237500X-0.300000X0.237500X0.300000X-0.237500X0.300000X-0.237500X-0.300000X0*%
%ADD22R,2.500000X2.500000*%
%ADD23RoundRect,0.237500X0.300000X0.237500X-0.300000X0.237500X-0.300000X-0.237500X0.300000X-0.237500X0*%
G04 APERTURE END LIST*
D10*
%TO.C,D7*%
X74987500Y-56200000D03*
X73412500Y-56200000D03*
%TD*%
D11*
%TO.C,J7*%
X116370000Y-77000000D03*
X117470000Y-77000000D03*
X118570000Y-77000000D03*
X119670000Y-77000000D03*
X120770000Y-77000000D03*
X121870000Y-77000000D03*
X122970000Y-77000000D03*
X124070000Y-77000000D03*
D12*
X114580000Y-64535000D03*
D13*
X118845000Y-64460000D03*
D14*
X125230000Y-65735000D03*
D15*
X125150000Y-76500000D03*
D16*
X112490000Y-76985000D03*
D14*
X112270000Y-65735000D03*
%TD*%
D17*
%TO.C,C9*%
X94937500Y-56100000D03*
X96662500Y-56100000D03*
%TD*%
D10*
%TO.C,D6*%
X74987500Y-57950000D03*
X73412500Y-57950000D03*
%TD*%
D18*
%TO.C,SW1*%
X73875000Y-62500000D03*
X81625000Y-62500000D03*
%TD*%
D17*
%TO.C,C10*%
X95737500Y-61900000D03*
X97462500Y-61900000D03*
%TD*%
%TO.C,C13*%
X94737500Y-57575000D03*
X96462500Y-57575000D03*
%TD*%
D19*
%TO.C,R7*%
X73400000Y-71412500D03*
X73400000Y-69587500D03*
%TD*%
D20*
%TO.C,C14*%
X105200000Y-47837500D03*
X105200000Y-49562500D03*
%TD*%
D17*
%TO.C,C11*%
X95837500Y-53600000D03*
X97562500Y-53600000D03*
%TD*%
D10*
%TO.C,D5*%
X74987500Y-59700000D03*
X73412500Y-59700000D03*
%TD*%
D21*
%TO.C,C6*%
X108000000Y-65662500D03*
X108000000Y-63937500D03*
%TD*%
D20*
%TO.C,C7*%
X107500000Y-47037500D03*
X107500000Y-48762500D03*
%TD*%
%TO.C,C8*%
X109000000Y-47037500D03*
X109000000Y-48762500D03*
%TD*%
D22*
%TO.C,LS1*%
X88250000Y-76100000D03*
X95250000Y-76100000D03*
X95250000Y-69100000D03*
X88250000Y-69100000D03*
%TD*%
D18*
%TO.C,SW2*%
X73850000Y-67000000D03*
X81600000Y-67000000D03*
%TD*%
D23*
%TO.C,C5*%
X115462500Y-59600000D03*
X113737500Y-59600000D03*
%TD*%
%TO.C,C15*%
X115162500Y-57600000D03*
X113437500Y-57600000D03*
%TD*%
%TO.C,C12*%
X115162500Y-55600000D03*
X113437500Y-55600000D03*
%TD*%
M02*
